%
M48
M72
T01C0.0118
T02C0.0360
T03C0.0394
T04C0.0400
%
T01
X10750Y4500
X12250Y4000
X12250Y3500
X12250Y3000
T02
X12500Y17750
X13500Y17750
X13500Y18750
X12500Y18750
X11500Y18750
X10500Y18750
X10500Y17750
X11500Y17750
X9500Y17750
X9500Y18750
X14500Y18750
X14500Y17750
X15500Y17750
X16500Y17750
X16500Y18750
X15500Y18750
X17500Y18750
X18500Y18750
X18500Y17750
X17500Y17750
X19500Y17750
X19500Y18750
X20500Y18750
X21500Y18750
X21500Y17750
X20500Y17750
X22500Y17750
X22500Y18750
X23500Y18750
X24500Y18750
X24500Y17750
X23500Y17750
T03
X23500Y20500
X24500Y20500
X25500Y20500
X22500Y20500
X21500Y20500
X20500Y20500
X19500Y20500
X18500Y20500
X16900Y20500
X15900Y20500
X14900Y20500
X13900Y20500
X12900Y20500
X11900Y20500
X10900Y20500
X9900Y20500
X8900Y20500
X7900Y20500
X11500Y1500
X12500Y1500
X13500Y1500
X14500Y1500
X15500Y1500
X16500Y1500
X17500Y1500
X18500Y1500
X20500Y1500
X21500Y1500
X22500Y1500
X23500Y1500
X24500Y1500
X25500Y1500
T04
X9500Y6500
X9500Y7500
X10500Y7500
X11500Y7500
X11500Y6500
X10500Y6500
X12500Y6500
X13500Y6500
X13500Y7500
X12500Y7500
X12500Y8500
X13500Y8500
X13500Y9500
X12500Y9500
X11500Y9500
X10500Y9500
X10500Y8500
X11500Y8500
X9500Y8500
X9500Y9500
X9500Y10500
X10500Y10500
X11500Y10500
X12500Y10500
X13500Y10500
X14500Y10500
X15500Y10500
X16500Y10500
X17500Y10500
X18500Y10500
X19500Y10500
X20500Y10500
X21500Y10500
X22500Y10500
X23500Y10500
X24500Y10500
X24500Y9500
X23500Y9500
X23500Y8500
X24500Y8500
X24500Y7500
X23500Y7500
X23500Y6500
X24500Y6500
X22500Y6500
X22500Y7500
X21500Y7500
X20500Y7500
X20500Y6500
X21500Y6500
X19500Y6500
X19500Y7500
X18500Y7500
X17500Y7500
X17500Y6500
X18500Y6500
X16500Y6500
X15500Y6500
X15500Y7500
X16500Y7500
X16500Y8500
X15500Y8500
X15500Y9500
X16500Y9500
X17500Y9500
X18500Y9500
X18500Y8500
X17500Y8500
X19500Y8500
X19500Y9500
X20500Y9500
X21500Y9500
X21500Y8500
X20500Y8500
X22500Y8500
X22500Y9500
X22500Y11500
X22500Y12500
X21500Y12500
X20500Y12500
X20500Y11500
X21500Y11500
X19500Y11500
X19500Y12500
X18500Y12500
X17500Y12500
X17500Y11500
X18500Y11500
X16500Y11500
X15500Y11500
X15500Y12500
X16500Y12500
X16500Y13500
X15500Y13500
X14500Y13500
X13500Y13500
X12500Y13500
X11500Y13500
X10500Y13500
X9500Y13500
X9500Y12500
X9500Y11500
X10500Y11500
X11500Y11500
X11500Y12500
X10500Y12500
X12500Y12500
X13500Y12500
X13500Y11500
X12500Y11500
X14500Y11500
X14500Y12500
X14500Y14500
X13500Y14500
X12500Y14500
X11500Y14500
X10500Y14500
X9500Y14500
X11500Y16500
X12500Y16500
X13500Y16500
X14500Y16500
X15500Y16500
X16500Y16500
X17500Y16500
X18500Y16500
X19500Y16500
X20500Y16500
X21500Y16500
X22500Y16500
X22500Y14500
X21500Y14500
X20500Y14500
X19500Y14500
X18500Y14500
X17500Y14500
X16500Y14500
X15500Y14500
X17500Y13500
X18500Y13500
X19500Y13500
X20500Y13500
X21500Y13500
X22500Y13500
X23500Y13500
X24500Y13500
X24500Y12500
X23500Y12500
X23500Y11500
X24500Y11500
X24500Y14500
X23500Y14500
X14500Y9500
X14500Y8500
X14500Y7500
X14500Y6500
X15500Y4500
X16500Y4500
X17500Y4500
X18500Y4500
X19500Y4500
X20500Y4500
X21500Y4500
X22500Y4500
X23500Y4500
X24500Y4500
X24500Y3250
X23500Y3250
X22500Y3250
X21500Y3250
X20500Y3250
X19500Y3250
X18500Y3250
X17500Y3250
X16500Y3250
X15500Y3250
M30
