G75*
G70*
%OFA0B0*%
%FSLAX24Y24*%
%IPPOS*%
%LPD*%
%AMOC8*
5,1,8,0,0,1.08239X$1,22.5*
%
%ADD10C,0.0060*%
%ADD11C,0.0030*%
%ADD12C,0.0080*%
%ADD13C,0.0020*%
D10*
X007500Y000500D02*
X026500Y000500D01*
X026500Y001500D01*
X027500Y002500D01*
X027500Y015500D01*
X026500Y016500D01*
X026500Y021000D01*
X026000Y021500D01*
X007500Y021500D01*
X007500Y000500D01*
X009850Y001950D02*
X009850Y002550D01*
X009852Y002567D01*
X009856Y002584D01*
X009863Y002600D01*
X009873Y002614D01*
X009886Y002627D01*
X009900Y002637D01*
X009916Y002644D01*
X009933Y002648D01*
X009950Y002650D01*
X011050Y002650D01*
X011067Y002648D01*
X011084Y002644D01*
X011100Y002637D01*
X011114Y002627D01*
X011127Y002614D01*
X011137Y002600D01*
X011144Y002584D01*
X011148Y002567D01*
X011150Y002550D01*
X011150Y001950D01*
X011148Y001933D01*
X011144Y001916D01*
X011137Y001900D01*
X011127Y001886D01*
X011114Y001873D01*
X011100Y001863D01*
X011084Y001856D01*
X011067Y001852D01*
X011050Y001850D01*
X009950Y001850D01*
X009933Y001852D01*
X009916Y001856D01*
X009900Y001863D01*
X009886Y001873D01*
X009873Y001886D01*
X009863Y001900D01*
X009856Y001916D01*
X009852Y001933D01*
X009850Y001950D01*
X009790Y002820D02*
X011210Y002820D01*
X011210Y004680D02*
X009790Y004680D01*
X008595Y004585D02*
X008472Y004462D01*
X008225Y004462D01*
X008101Y004585D01*
X008101Y004832D01*
X008225Y004955D01*
X008472Y004955D01*
X008595Y004832D01*
X008595Y004585D01*
X008595Y004219D02*
X008595Y003725D01*
X007854Y003725D01*
X007854Y005198D02*
X008595Y005198D01*
X008348Y005198D02*
X008595Y005569D01*
X008595Y005812D02*
X008595Y006059D01*
X008595Y005936D02*
X008101Y005936D01*
X008101Y005812D01*
X008101Y005569D02*
X008348Y005198D01*
X007854Y005936D02*
X007731Y005936D01*
X007978Y007040D02*
X008101Y007040D01*
X008225Y007163D01*
X008225Y007410D01*
X008348Y007534D01*
X008472Y007534D01*
X008595Y007410D01*
X008595Y007163D01*
X008472Y007040D01*
X007978Y007040D02*
X007854Y007163D01*
X007854Y007410D01*
X007978Y007534D01*
X007854Y007777D02*
X008595Y007777D01*
X008225Y007777D02*
X008101Y007900D01*
X008101Y008147D01*
X008225Y008270D01*
X008595Y008270D01*
X008595Y008513D02*
X008595Y008760D01*
X008595Y008637D02*
X008101Y008637D01*
X008101Y008513D01*
X007854Y008637D02*
X007731Y008637D01*
X008101Y009128D02*
X008225Y009004D01*
X008472Y009004D01*
X008595Y009128D01*
X008595Y009375D01*
X008348Y009498D02*
X008348Y009004D01*
X008101Y009128D02*
X008101Y009375D01*
X008225Y009498D01*
X008348Y009498D01*
X008595Y009741D02*
X008595Y009988D01*
X008595Y009864D02*
X007854Y009864D01*
X007854Y009741D01*
X008225Y010232D02*
X008101Y010355D01*
X008101Y010726D01*
X007854Y010726D02*
X008595Y010726D01*
X008595Y010355D01*
X008472Y010232D01*
X008225Y010232D01*
X008348Y011705D02*
X008348Y012076D01*
X008225Y012199D01*
X007978Y012199D01*
X007854Y012076D01*
X007854Y011705D01*
X008595Y011705D01*
X008595Y012442D02*
X008595Y012689D01*
X008595Y012565D02*
X007854Y012565D01*
X007854Y012442D01*
X008348Y013056D02*
X008472Y012933D01*
X008595Y013056D01*
X008595Y013427D01*
X008225Y013427D01*
X008101Y013303D01*
X008101Y013056D01*
X008348Y013056D02*
X008348Y013427D01*
X008101Y013670D02*
X008101Y014040D01*
X008225Y014163D01*
X008595Y014163D01*
X008595Y014406D02*
X007854Y014406D01*
X008101Y014777D02*
X008348Y014406D01*
X008595Y014777D01*
X008101Y015757D02*
X008595Y016004D01*
X008101Y016250D01*
X007978Y016493D02*
X007854Y016617D01*
X007854Y016864D01*
X007978Y016987D01*
X008472Y016493D01*
X008595Y016617D01*
X008595Y016864D01*
X008472Y016987D01*
X007978Y016987D01*
X007978Y016493D02*
X008472Y016493D01*
X008472Y017230D02*
X008472Y017353D01*
X008595Y017353D01*
X008595Y017230D01*
X008472Y017230D01*
X008595Y017598D02*
X008595Y018092D01*
X008595Y017845D02*
X007854Y017845D01*
X008101Y017598D01*
X008101Y013670D02*
X008595Y013670D01*
D11*
X011274Y015753D02*
X011500Y015979D01*
X011613Y015866D01*
X011613Y015790D01*
X011538Y015715D01*
X011462Y015715D01*
X011349Y015828D01*
X011615Y015638D02*
X011728Y015525D01*
X011728Y015449D01*
X011690Y015411D01*
X011615Y015411D01*
X011502Y015525D01*
X011728Y015751D01*
X011841Y015638D01*
X011841Y015562D01*
X011804Y015525D01*
X011728Y015525D01*
X011880Y015448D02*
X012031Y015448D01*
X011805Y015221D01*
X011880Y015146D02*
X011729Y015297D01*
X011957Y015069D02*
X012259Y015069D01*
X012297Y015107D01*
X012297Y015182D01*
X012222Y015258D01*
X012146Y015258D01*
X011957Y015069D02*
X012108Y014918D01*
X012615Y015411D02*
X012502Y015525D01*
X012728Y015751D01*
X012841Y015638D01*
X012841Y015562D01*
X012804Y015525D01*
X012728Y015525D01*
X012615Y015638D01*
X012538Y015715D02*
X012462Y015715D01*
X012349Y015828D01*
X012274Y015753D02*
X012500Y015979D01*
X012613Y015866D01*
X012613Y015790D01*
X012538Y015715D01*
X012728Y015525D02*
X012728Y015449D01*
X012690Y015411D01*
X012615Y015411D01*
X012729Y015297D02*
X012880Y015146D01*
X012805Y015221D02*
X013031Y015448D01*
X012880Y015448D01*
X013108Y015220D02*
X013259Y015220D01*
X013033Y014993D01*
X013108Y014918D02*
X012957Y015069D01*
X013502Y015525D02*
X013615Y015411D01*
X013690Y015411D01*
X013728Y015449D01*
X013728Y015525D01*
X013615Y015638D01*
X013538Y015715D02*
X013613Y015790D01*
X013613Y015866D01*
X013500Y015979D01*
X013274Y015753D01*
X013349Y015828D02*
X013462Y015715D01*
X013538Y015715D01*
X013502Y015525D02*
X013728Y015751D01*
X013841Y015638D01*
X013841Y015562D01*
X013804Y015525D01*
X013728Y015525D01*
X013880Y015448D02*
X014031Y015448D01*
X013805Y015221D01*
X013880Y015146D02*
X013729Y015297D01*
X013995Y015107D02*
X014297Y015107D01*
X014146Y014956D01*
X014071Y014956D01*
X013995Y015031D01*
X013995Y015107D01*
X014146Y015258D01*
X014222Y015258D01*
X014297Y015182D01*
X014297Y015107D01*
X014615Y015411D02*
X014502Y015525D01*
X014728Y015751D01*
X014841Y015638D01*
X014841Y015562D01*
X014804Y015525D01*
X014728Y015525D01*
X014615Y015638D01*
X014538Y015715D02*
X014462Y015715D01*
X014349Y015828D01*
X014274Y015753D02*
X014500Y015979D01*
X014613Y015866D01*
X014613Y015790D01*
X014538Y015715D01*
X014728Y015525D02*
X014728Y015449D01*
X014690Y015411D01*
X014615Y015411D01*
X014767Y015334D02*
X014767Y015259D01*
X014843Y015184D01*
X014918Y015184D01*
X015069Y015334D01*
X015069Y015410D01*
X014994Y015485D01*
X014918Y015485D01*
X014880Y015448D01*
X014880Y015372D01*
X014994Y015259D01*
X015274Y015753D02*
X015500Y015979D01*
X015613Y015866D01*
X015613Y015790D01*
X015538Y015715D01*
X015462Y015715D01*
X015349Y015828D01*
X015615Y015638D02*
X015728Y015525D01*
X015728Y015449D01*
X015690Y015411D01*
X015615Y015411D01*
X015502Y015525D01*
X015728Y015751D01*
X015841Y015638D01*
X015841Y015562D01*
X015804Y015525D01*
X015728Y015525D01*
X015880Y015448D02*
X015918Y015485D01*
X015994Y015485D01*
X016069Y015410D01*
X016069Y015334D01*
X016031Y015297D01*
X015956Y015297D01*
X015880Y015372D01*
X015880Y015448D01*
X015880Y015372D02*
X015805Y015372D01*
X015767Y015334D01*
X015767Y015259D01*
X015843Y015184D01*
X015918Y015184D01*
X015956Y015221D01*
X015956Y015297D01*
X016274Y015753D02*
X016500Y015979D01*
X016613Y015866D01*
X016613Y015790D01*
X016538Y015715D01*
X016462Y015715D01*
X016349Y015828D01*
X016615Y015638D02*
X016728Y015525D01*
X016728Y015449D01*
X016690Y015411D01*
X016615Y015411D01*
X016502Y015525D01*
X016728Y015751D01*
X016841Y015638D01*
X016841Y015562D01*
X016804Y015525D01*
X016728Y015525D01*
X016767Y015334D02*
X016729Y015297D01*
X016767Y015334D02*
X017069Y015334D01*
X017107Y015372D01*
X016956Y015523D01*
X017274Y015753D02*
X017500Y015979D01*
X017613Y015866D01*
X017613Y015790D01*
X017538Y015715D01*
X017462Y015715D01*
X017349Y015828D01*
X017615Y015638D02*
X017728Y015525D01*
X017728Y015449D01*
X017690Y015411D01*
X017615Y015411D01*
X017502Y015525D01*
X017728Y015751D01*
X017841Y015638D01*
X017841Y015562D01*
X017804Y015525D01*
X017728Y015525D01*
X017843Y015410D02*
X017956Y015297D01*
X017956Y015221D01*
X017918Y015184D01*
X017843Y015184D01*
X017767Y015259D01*
X017767Y015334D01*
X017843Y015410D01*
X017994Y015410D01*
X018107Y015372D01*
X018274Y015753D02*
X018500Y015979D01*
X018613Y015866D01*
X018613Y015790D01*
X018538Y015715D01*
X018462Y015715D01*
X018349Y015828D01*
X018615Y015638D02*
X018728Y015525D01*
X018728Y015449D01*
X018690Y015411D01*
X018615Y015411D01*
X018502Y015525D01*
X018728Y015751D01*
X018841Y015638D01*
X018841Y015562D01*
X018804Y015525D01*
X018728Y015525D01*
X018843Y015410D02*
X018956Y015372D01*
X018994Y015334D01*
X018994Y015259D01*
X018918Y015184D01*
X018843Y015184D01*
X018767Y015259D01*
X018767Y015334D01*
X018843Y015410D02*
X018956Y015523D01*
X019107Y015372D01*
X019274Y015753D02*
X019500Y015979D01*
X019613Y015866D01*
X019613Y015790D01*
X019538Y015715D01*
X019462Y015715D01*
X019349Y015828D01*
X019615Y015638D02*
X019728Y015525D01*
X019728Y015449D01*
X019690Y015411D01*
X019615Y015411D01*
X019502Y015525D01*
X019728Y015751D01*
X019841Y015638D01*
X019841Y015562D01*
X019804Y015525D01*
X019728Y015525D01*
X019843Y015410D02*
X019994Y015259D01*
X020069Y015410D02*
X019843Y015410D01*
X019843Y015184D02*
X020069Y015410D01*
X020274Y015753D02*
X020500Y015979D01*
X020613Y015866D01*
X020613Y015790D01*
X020538Y015715D01*
X020462Y015715D01*
X020349Y015828D01*
X020615Y015638D02*
X020728Y015525D01*
X020728Y015449D01*
X020690Y015411D01*
X020615Y015411D01*
X020502Y015525D01*
X020728Y015751D01*
X020841Y015638D01*
X020841Y015562D01*
X020804Y015525D01*
X020728Y015525D01*
X020918Y015485D02*
X020994Y015485D01*
X021069Y015410D01*
X021069Y015334D01*
X021031Y015297D01*
X020956Y015297D01*
X020956Y015221D01*
X020918Y015184D01*
X020843Y015184D01*
X020767Y015259D01*
X020767Y015334D01*
X020918Y015334D02*
X020956Y015297D01*
X021274Y015753D02*
X021500Y015979D01*
X021613Y015866D01*
X021613Y015790D01*
X021538Y015715D01*
X021462Y015715D01*
X021349Y015828D01*
X021615Y015638D02*
X021728Y015525D01*
X021728Y015449D01*
X021690Y015411D01*
X021615Y015411D01*
X021502Y015525D01*
X021728Y015751D01*
X021841Y015638D01*
X021841Y015562D01*
X021804Y015525D01*
X021728Y015525D01*
X021918Y015485D02*
X021994Y015485D01*
X022069Y015410D01*
X022069Y015334D01*
X022031Y015297D01*
X021729Y015297D01*
X021880Y015146D01*
X022274Y015753D02*
X022500Y015979D01*
X022613Y015866D01*
X022613Y015790D01*
X022538Y015715D01*
X022462Y015715D01*
X022349Y015828D01*
X022615Y015638D02*
X022728Y015525D01*
X022728Y015449D01*
X022690Y015411D01*
X022615Y015411D01*
X022502Y015525D01*
X022728Y015751D01*
X022841Y015638D01*
X022841Y015562D01*
X022804Y015525D01*
X022728Y015525D01*
X022880Y015448D02*
X023031Y015448D01*
X022805Y015221D01*
X022880Y015146D02*
X022729Y015297D01*
X022582Y019615D02*
X022458Y019615D01*
X022397Y019677D01*
X022520Y019800D02*
X022582Y019800D01*
X022644Y019738D01*
X022644Y019677D01*
X022582Y019615D01*
X022582Y019800D02*
X022644Y019862D01*
X022644Y019924D01*
X022582Y019985D01*
X022458Y019985D01*
X022397Y019924D01*
X021644Y019800D02*
X021397Y019800D01*
X021582Y019985D01*
X021582Y019615D01*
X020644Y019677D02*
X020582Y019615D01*
X020458Y019615D01*
X020397Y019677D01*
X020397Y019800D02*
X020520Y019862D01*
X020582Y019862D01*
X020644Y019800D01*
X020644Y019677D01*
X020397Y019800D02*
X020397Y019985D01*
X020644Y019985D01*
X019644Y019985D02*
X019520Y019924D01*
X019397Y019800D01*
X019582Y019800D01*
X019644Y019738D01*
X019644Y019677D01*
X019582Y019615D01*
X019458Y019615D01*
X019397Y019677D01*
X019397Y019800D01*
X018644Y019924D02*
X018397Y019677D01*
X018397Y019615D01*
X018397Y019985D02*
X018644Y019985D01*
X018644Y019924D01*
X017044Y019924D02*
X017044Y019862D01*
X016982Y019800D01*
X016858Y019800D01*
X016797Y019862D01*
X016797Y019924D01*
X016858Y019985D01*
X016982Y019985D01*
X017044Y019924D01*
X016982Y019800D02*
X017044Y019738D01*
X017044Y019677D01*
X016982Y019615D01*
X016858Y019615D01*
X016797Y019677D01*
X016797Y019738D01*
X016858Y019800D01*
X016044Y019800D02*
X015858Y019800D01*
X015797Y019862D01*
X015797Y019924D01*
X015858Y019985D01*
X015982Y019985D01*
X016044Y019924D01*
X016044Y019677D01*
X015982Y019615D01*
X015858Y019615D01*
X015797Y019677D01*
X015244Y019677D02*
X015244Y019924D01*
X014997Y019677D01*
X015058Y019615D01*
X015182Y019615D01*
X015244Y019677D01*
X014997Y019677D02*
X014997Y019924D01*
X015058Y019985D01*
X015182Y019985D01*
X015244Y019924D01*
X014875Y019615D02*
X014628Y019615D01*
X014752Y019615D02*
X014752Y019985D01*
X014628Y019862D01*
X014244Y019615D02*
X013997Y019615D01*
X013875Y019615D02*
X013628Y019615D01*
X013752Y019615D02*
X013752Y019985D01*
X013628Y019862D01*
X013997Y019862D02*
X014120Y019985D01*
X014120Y019615D01*
X013244Y019615D02*
X012997Y019615D01*
X013244Y019862D01*
X013244Y019924D01*
X013182Y019985D01*
X013058Y019985D01*
X012997Y019924D01*
X012752Y019985D02*
X012752Y019615D01*
X012875Y019615D02*
X012628Y019615D01*
X012628Y019862D02*
X012752Y019985D01*
X012244Y019924D02*
X012244Y019862D01*
X012182Y019800D01*
X012244Y019738D01*
X012244Y019677D01*
X012182Y019615D01*
X012058Y019615D01*
X011997Y019677D01*
X011875Y019615D02*
X011628Y019615D01*
X011752Y019615D02*
X011752Y019985D01*
X011628Y019862D01*
X011997Y019924D02*
X012058Y019985D01*
X012182Y019985D01*
X012244Y019924D01*
X012182Y019800D02*
X012120Y019800D01*
X011085Y019808D02*
X011023Y019747D01*
X010900Y019747D01*
X010838Y019808D01*
X010838Y019994D01*
X010715Y019994D02*
X011085Y019994D01*
X011085Y019808D01*
X011085Y019625D02*
X010900Y019625D01*
X010838Y019564D01*
X010838Y019378D01*
X011085Y019378D01*
X011085Y019257D02*
X011085Y019072D01*
X011023Y019010D01*
X010900Y019010D01*
X010838Y019072D01*
X010838Y019257D01*
X011147Y019257D01*
X011208Y019195D01*
X011208Y019133D01*
X010085Y019183D02*
X009715Y019183D01*
X009715Y019368D01*
X009776Y019430D01*
X009900Y019430D01*
X009962Y019368D01*
X009962Y019183D01*
X009962Y019306D02*
X010085Y019430D01*
X010023Y019551D02*
X009900Y019551D01*
X009838Y019613D01*
X009838Y019736D01*
X009900Y019798D01*
X009962Y019798D01*
X009962Y019551D01*
X010023Y019551D02*
X010085Y019613D01*
X010085Y019736D01*
X010085Y019981D02*
X009776Y019981D01*
X009715Y020043D01*
X009900Y020043D02*
X009900Y019919D01*
X009085Y019797D02*
X008838Y019797D01*
X008715Y019920D01*
X008838Y020044D01*
X009085Y020044D01*
X008900Y020044D02*
X008900Y019797D01*
X009023Y019675D02*
X008776Y019675D01*
X008715Y019614D01*
X008715Y019428D01*
X009085Y019428D01*
X009085Y019614D01*
X009023Y019675D01*
X009023Y019307D02*
X009085Y019245D01*
X009085Y019122D01*
X009023Y019060D01*
X008900Y019122D02*
X008900Y019245D01*
X008962Y019307D01*
X009023Y019307D01*
X008900Y019122D02*
X008838Y019060D01*
X008776Y019060D01*
X008715Y019122D01*
X008715Y019245D01*
X008776Y019307D01*
X008085Y019245D02*
X008085Y019122D01*
X008023Y019060D01*
X007900Y019122D02*
X007900Y019245D01*
X007962Y019307D01*
X008023Y019307D01*
X008085Y019245D01*
X008023Y019428D02*
X007776Y019428D01*
X007715Y019490D01*
X007715Y019614D01*
X007776Y019675D01*
X007715Y019797D02*
X008085Y019797D01*
X008085Y020044D01*
X008023Y019675D02*
X008085Y019614D01*
X008085Y019490D01*
X008023Y019428D01*
X007776Y019307D02*
X007715Y019245D01*
X007715Y019122D01*
X007776Y019060D01*
X007838Y019060D01*
X007900Y019122D01*
X009715Y018938D02*
X009838Y018815D01*
X010085Y018815D01*
X009900Y018815D02*
X009900Y019061D01*
X009838Y019061D02*
X010085Y019061D01*
X009838Y019061D02*
X009715Y018938D01*
X012965Y021015D02*
X012965Y021385D01*
X013150Y021385D01*
X013212Y021324D01*
X013212Y021077D01*
X013150Y021015D01*
X012965Y021015D01*
X013333Y021015D02*
X013457Y021015D01*
X013395Y021015D02*
X013395Y021262D01*
X013333Y021262D01*
X013395Y021385D02*
X013395Y021447D01*
X013641Y021262D02*
X013579Y021200D01*
X013579Y021077D01*
X013641Y021015D01*
X013826Y021015D01*
X013826Y020953D02*
X013764Y020892D01*
X013702Y020892D01*
X013826Y020953D02*
X013826Y021262D01*
X013641Y021262D01*
X013947Y021262D02*
X014009Y021262D01*
X014009Y021015D01*
X013947Y021015D02*
X014071Y021015D01*
X014254Y021077D02*
X014254Y021324D01*
X014193Y021262D02*
X014316Y021262D01*
X014500Y021262D02*
X014623Y021262D01*
X014685Y021200D01*
X014685Y021015D01*
X014500Y021015D01*
X014438Y021077D01*
X014500Y021138D01*
X014685Y021138D01*
X014807Y021015D02*
X014930Y021015D01*
X014868Y021015D02*
X014868Y021385D01*
X014807Y021385D01*
X015420Y021385D02*
X015544Y021385D01*
X015482Y021385D02*
X015482Y021015D01*
X015420Y021015D02*
X015544Y021015D01*
X015666Y021015D02*
X015913Y021385D01*
X016034Y021324D02*
X016034Y021077D01*
X016096Y021015D01*
X016219Y021015D01*
X016281Y021077D01*
X016281Y021324D01*
X016219Y021385D01*
X016096Y021385D01*
X016034Y021324D01*
X014316Y021015D02*
X014254Y021077D01*
X014009Y021385D02*
X014009Y021447D01*
X020565Y021385D02*
X020565Y021015D01*
X020750Y021015D01*
X020812Y021077D01*
X020812Y021324D01*
X020750Y021385D01*
X020565Y021385D01*
X020933Y021262D02*
X020995Y021262D01*
X020995Y021015D01*
X020933Y021015D02*
X021057Y021015D01*
X021179Y021077D02*
X021241Y021015D01*
X021426Y021015D01*
X021426Y020953D02*
X021426Y021262D01*
X021241Y021262D01*
X021179Y021200D01*
X021179Y021077D01*
X021302Y020892D02*
X021364Y020892D01*
X021426Y020953D01*
X021547Y021015D02*
X021671Y021015D01*
X021609Y021015D02*
X021609Y021262D01*
X021547Y021262D01*
X021609Y021385D02*
X021609Y021447D01*
X021793Y021262D02*
X021916Y021262D01*
X021854Y021324D02*
X021854Y021077D01*
X021916Y021015D01*
X022038Y021077D02*
X022100Y021138D01*
X022285Y021138D01*
X022285Y021200D02*
X022285Y021015D01*
X022100Y021015D01*
X022038Y021077D01*
X022100Y021262D02*
X022223Y021262D01*
X022285Y021200D01*
X022407Y021015D02*
X022530Y021015D01*
X022468Y021015D02*
X022468Y021385D01*
X022407Y021385D01*
X023020Y021385D02*
X023144Y021385D01*
X023082Y021385D02*
X023082Y021015D01*
X023020Y021015D02*
X023144Y021015D01*
X023266Y021015D02*
X023513Y021385D01*
X023634Y021324D02*
X023634Y021077D01*
X023696Y021015D01*
X023819Y021015D01*
X023881Y021077D01*
X023881Y021324D01*
X023819Y021385D01*
X023696Y021385D01*
X023634Y021324D01*
X023582Y019985D02*
X023458Y019985D01*
X023397Y019924D01*
X023582Y019985D02*
X023644Y019924D01*
X023644Y019862D01*
X023397Y019615D01*
X023644Y019615D01*
X024397Y019615D02*
X024644Y019615D01*
X024520Y019615D02*
X024520Y019985D01*
X024397Y019862D01*
X025397Y019924D02*
X025397Y019677D01*
X025644Y019924D01*
X025644Y019677D01*
X025582Y019615D01*
X025458Y019615D01*
X025397Y019677D01*
X025397Y019924D02*
X025458Y019985D01*
X025582Y019985D01*
X025644Y019924D01*
X020995Y021385D02*
X020995Y021447D01*
X021026Y005872D02*
X020989Y005835D01*
X020989Y005759D01*
X021064Y005684D01*
X021064Y005608D01*
X021026Y005570D01*
X020951Y005570D01*
X020875Y005646D01*
X020875Y005721D01*
X021026Y005872D02*
X021102Y005872D01*
X021177Y005797D01*
X021177Y005721D01*
X021292Y005682D02*
X021065Y005456D01*
X021179Y005343D01*
X021254Y005343D01*
X021405Y005494D01*
X021405Y005569D01*
X021292Y005682D01*
X021444Y005379D02*
X021595Y005379D01*
X021595Y005228D01*
X021444Y005077D01*
X021558Y005190D02*
X021407Y005341D01*
X021444Y005379D02*
X021293Y005228D01*
X022065Y005456D02*
X022216Y005607D01*
X022367Y005607D01*
X022367Y005456D01*
X022216Y005305D01*
X022331Y005266D02*
X022633Y005266D01*
X022482Y005115D01*
X022407Y005115D01*
X022331Y005190D01*
X022331Y005266D01*
X022482Y005417D01*
X022558Y005417D01*
X022633Y005341D01*
X022633Y005266D01*
X022330Y005418D02*
X022179Y005569D01*
X023065Y005456D02*
X023216Y005607D01*
X023367Y005607D01*
X023367Y005456D01*
X023216Y005305D01*
X023293Y005228D02*
X023444Y005077D01*
X023369Y005152D02*
X023595Y005379D01*
X023444Y005379D01*
X023330Y005418D02*
X023179Y005569D01*
X024065Y005456D02*
X024216Y005607D01*
X024367Y005607D01*
X024367Y005456D01*
X024216Y005305D01*
X024293Y005228D02*
X024595Y005228D01*
X024633Y005266D01*
X024633Y005341D01*
X024558Y005417D01*
X024482Y005417D01*
X024330Y005418D02*
X024179Y005569D01*
X024293Y005228D02*
X024444Y005077D01*
X024550Y002385D02*
X024365Y002200D01*
X024612Y002200D01*
X024550Y002015D02*
X024550Y002385D01*
X025365Y002385D02*
X025365Y002200D01*
X025488Y002262D01*
X025550Y002262D01*
X025612Y002200D01*
X025612Y002077D01*
X025550Y002015D01*
X025427Y002015D01*
X025365Y002077D01*
X025365Y002385D02*
X025612Y002385D01*
X024705Y000944D02*
X024520Y000944D01*
X024520Y000697D01*
X024398Y000697D02*
X024274Y000697D01*
X024336Y000697D02*
X024336Y001067D01*
X024274Y001067D02*
X024398Y001067D01*
X024705Y000944D02*
X024767Y000882D01*
X024767Y000697D01*
X023785Y000697D02*
X023599Y000697D01*
X023538Y000759D01*
X023538Y000882D01*
X023599Y000944D01*
X023785Y000944D01*
X023785Y000635D01*
X023723Y000574D01*
X023661Y000574D01*
X023416Y000759D02*
X023416Y000882D01*
X023355Y000944D01*
X023231Y000944D01*
X023169Y000882D01*
X023169Y000759D01*
X023231Y000697D01*
X023355Y000697D01*
X023416Y000759D01*
X023047Y000697D02*
X022924Y000697D01*
X022986Y000697D02*
X022986Y001067D01*
X022924Y001067D01*
X022741Y000944D02*
X022802Y000882D01*
X022802Y000697D01*
X022617Y000697D01*
X022556Y000759D01*
X022617Y000820D01*
X022802Y000820D01*
X022741Y000944D02*
X022617Y000944D01*
X022434Y000882D02*
X022434Y000697D01*
X022434Y000882D02*
X022372Y000944D01*
X022187Y000944D01*
X022187Y000697D01*
X022066Y000697D02*
X022066Y000944D01*
X021942Y001067D01*
X021819Y000944D01*
X021819Y000697D01*
X021819Y000882D02*
X022066Y000882D01*
X022365Y002015D02*
X022612Y002262D01*
X022612Y002324D01*
X022550Y002385D01*
X022427Y002385D01*
X022365Y002324D01*
X022365Y002015D02*
X022612Y002015D01*
X023365Y002077D02*
X023427Y002015D01*
X023550Y002015D01*
X023612Y002077D01*
X023612Y002138D01*
X023550Y002200D01*
X023488Y002200D01*
X023550Y002200D02*
X023612Y002262D01*
X023612Y002324D01*
X023550Y002385D01*
X023427Y002385D01*
X023365Y002324D01*
X021612Y002015D02*
X021365Y002015D01*
X021488Y002015D02*
X021488Y002385D01*
X021365Y002262D01*
X020612Y002324D02*
X020612Y002077D01*
X020550Y002015D01*
X020427Y002015D01*
X020365Y002077D01*
X020612Y002324D01*
X020550Y002385D01*
X020427Y002385D01*
X020365Y002324D01*
X020365Y002077D01*
X019008Y002015D02*
X019008Y002200D01*
X018946Y002262D01*
X018761Y002262D01*
X018761Y002015D01*
X018639Y002015D02*
X018515Y002015D01*
X018577Y002015D02*
X018577Y002262D01*
X018515Y002262D01*
X018577Y002385D02*
X018577Y002447D01*
X018394Y002385D02*
X018394Y002138D01*
X018270Y002015D01*
X018147Y002138D01*
X018147Y002385D01*
X017552Y002385D02*
X017552Y002015D01*
X017367Y002015D01*
X017306Y002077D01*
X017306Y002200D01*
X017367Y002262D01*
X017552Y002262D01*
X017184Y002200D02*
X017184Y002015D01*
X017184Y002200D02*
X017122Y002262D01*
X016937Y002262D01*
X016937Y002015D01*
X016816Y002077D02*
X016816Y002200D01*
X016692Y002200D01*
X016569Y002077D02*
X016631Y002015D01*
X016754Y002015D01*
X016816Y002077D01*
X016816Y002324D02*
X016754Y002385D01*
X016631Y002385D01*
X016569Y002324D01*
X016569Y002077D01*
X015912Y002262D02*
X015789Y002015D01*
X015665Y002262D01*
X015544Y002200D02*
X015544Y002077D01*
X015482Y002015D01*
X015359Y002015D01*
X015297Y002077D01*
X015297Y002200D02*
X015420Y002262D01*
X015482Y002262D01*
X015544Y002200D01*
X015544Y002385D02*
X015297Y002385D01*
X015297Y002200D01*
X014812Y002262D02*
X014689Y002015D01*
X014565Y002262D01*
X014444Y002262D02*
X014382Y002200D01*
X014444Y002138D01*
X014444Y002077D01*
X014382Y002015D01*
X014259Y002015D01*
X014197Y002077D01*
X014320Y002200D02*
X014382Y002200D01*
X014444Y002262D02*
X014444Y002324D01*
X014382Y002385D01*
X014259Y002385D01*
X014197Y002324D01*
X013685Y002258D02*
X013562Y002134D01*
X013562Y002196D02*
X013562Y002011D01*
X013685Y002011D02*
X013315Y002011D01*
X013315Y002196D01*
X013376Y002258D01*
X013500Y002258D01*
X013562Y002196D01*
X013623Y002379D02*
X013685Y002441D01*
X013685Y002564D01*
X013623Y002626D01*
X013562Y002626D01*
X013500Y002564D01*
X013500Y002441D01*
X013438Y002379D01*
X013376Y002379D01*
X013315Y002441D01*
X013315Y002564D01*
X013376Y002626D01*
X013315Y002748D02*
X013315Y002995D01*
X013315Y002871D02*
X013685Y002871D01*
X012685Y002625D02*
X012438Y002625D01*
X012438Y002748D02*
X012438Y002810D01*
X012438Y002748D02*
X012562Y002625D01*
X012623Y002503D02*
X012376Y002503D01*
X012315Y002442D01*
X012315Y002318D01*
X012376Y002257D01*
X012623Y002257D01*
X012685Y002318D01*
X012685Y002442D01*
X012623Y002503D01*
X012685Y002134D02*
X012685Y002011D01*
X012685Y002073D02*
X012315Y002073D01*
X012315Y002134D02*
X012315Y002011D01*
X010762Y001574D02*
X010762Y001450D01*
X010700Y001388D01*
X010515Y001388D01*
X010515Y001265D02*
X010515Y001635D01*
X010700Y001635D01*
X010762Y001574D01*
X010394Y001635D02*
X010394Y001265D01*
X010270Y001388D01*
X010147Y001265D01*
X010147Y001635D01*
X014989Y005532D02*
X015140Y005532D01*
X015291Y005683D01*
X015368Y005606D02*
X015443Y005531D01*
X015406Y005569D02*
X015179Y005342D01*
X015141Y005380D02*
X015217Y005304D01*
X015293Y005228D02*
X015520Y005454D01*
X015444Y005077D01*
X015671Y005303D01*
X015951Y005646D02*
X016102Y005797D01*
X015951Y005797D02*
X016102Y005646D01*
X016179Y005569D02*
X016292Y005682D01*
X016443Y005531D01*
X016520Y005454D02*
X016369Y005303D01*
X016369Y005152D01*
X016520Y005152D01*
X016671Y005303D01*
X016330Y005418D02*
X016254Y005343D01*
X016179Y005343D01*
X016103Y005418D01*
X016103Y005494D01*
X016179Y005569D02*
X016292Y005531D01*
X016330Y005494D01*
X016330Y005418D01*
X016875Y005646D02*
X016951Y005570D01*
X017026Y005570D01*
X017064Y005608D01*
X017064Y005684D01*
X017026Y005721D01*
X017064Y005684D02*
X017140Y005684D01*
X017177Y005721D01*
X017177Y005797D01*
X017102Y005872D01*
X017026Y005872D01*
X016874Y005874D02*
X016723Y006025D01*
X016874Y006025D02*
X016723Y005874D01*
X016875Y005721D02*
X016875Y005646D01*
X017141Y005531D02*
X017141Y005380D01*
X017292Y005380D01*
X017443Y005531D01*
X017482Y005417D02*
X017558Y005417D01*
X017633Y005341D01*
X017633Y005266D01*
X017595Y005228D01*
X017520Y005228D01*
X017520Y005152D01*
X017482Y005115D01*
X017407Y005115D01*
X017331Y005190D01*
X017331Y005266D01*
X017482Y005266D02*
X017520Y005228D01*
X017141Y005531D02*
X017292Y005682D01*
X017875Y005646D02*
X017951Y005570D01*
X018026Y005570D01*
X018102Y005646D01*
X018026Y005721D01*
X018026Y005872D02*
X017875Y005721D01*
X017875Y005646D01*
X018065Y005456D02*
X018292Y005682D01*
X018216Y005305D01*
X018443Y005531D01*
X018520Y005454D02*
X018293Y005228D01*
X018407Y005115D01*
X018482Y005115D01*
X018633Y005266D01*
X018633Y005341D01*
X018520Y005454D01*
X018838Y005684D02*
X019064Y005910D01*
X019177Y005797D01*
X019177Y005721D01*
X019102Y005646D01*
X019026Y005646D01*
X018913Y005759D01*
X018989Y005684D02*
X018989Y005533D01*
X019103Y005494D02*
X019103Y005418D01*
X019179Y005343D01*
X019254Y005343D01*
X019292Y005380D01*
X019292Y005456D01*
X019216Y005531D01*
X019216Y005607D01*
X019254Y005644D01*
X019330Y005644D01*
X019405Y005569D01*
X019405Y005494D01*
X019520Y005454D02*
X019671Y005303D01*
X019595Y005379D02*
X019369Y005152D01*
X019875Y005646D02*
X019951Y005570D01*
X020026Y005570D01*
X020064Y005608D01*
X020064Y005684D01*
X019989Y005759D01*
X019989Y005835D01*
X020026Y005872D01*
X020102Y005872D01*
X020177Y005797D01*
X020177Y005721D01*
X020254Y005644D02*
X020103Y005494D01*
X020103Y005418D01*
X020179Y005343D01*
X020254Y005343D01*
X020293Y005228D02*
X020444Y005077D01*
X020293Y005228D02*
X020520Y005454D01*
X020405Y005494D02*
X020405Y005569D01*
X020330Y005644D01*
X020254Y005644D01*
X019875Y005646D02*
X019875Y005721D01*
X018177Y005721D02*
X018177Y005797D01*
X018102Y005872D01*
X018026Y005872D01*
X015140Y005834D02*
X014989Y005683D01*
X014989Y005532D01*
D12*
X015250Y005000D02*
X015750Y005000D01*
X016000Y004750D01*
X016250Y005000D01*
X016750Y005000D01*
X017000Y004750D01*
X017250Y005000D01*
X017750Y005000D01*
X018000Y004750D01*
X018250Y005000D01*
X018750Y005000D01*
X019000Y004750D01*
X019250Y005000D01*
X019750Y005000D01*
X020000Y004750D01*
X020250Y005000D01*
X020750Y005000D01*
X021000Y004750D01*
X021250Y005000D01*
X021750Y005000D01*
X022000Y004750D01*
X022250Y005000D01*
X022750Y005000D01*
X023000Y004750D01*
X023250Y005000D01*
X023750Y005000D01*
X024000Y004750D01*
X024250Y005000D01*
X024750Y005000D01*
X025000Y004750D01*
X025000Y004250D01*
X024750Y004000D01*
X024250Y004000D01*
X024000Y004250D01*
X023750Y004000D01*
X023250Y004000D01*
X023000Y004250D01*
X022750Y004000D01*
X022250Y004000D01*
X022000Y004250D01*
X021750Y004000D01*
X021250Y004000D01*
X021000Y004250D01*
X020750Y004000D01*
X020250Y004000D01*
X020000Y004250D01*
X019750Y004000D01*
X019250Y004000D01*
X019000Y004250D01*
X018750Y004000D01*
X018250Y004000D01*
X018000Y004250D01*
X017750Y004000D01*
X017250Y004000D01*
X017000Y004250D01*
X016750Y004000D01*
X016250Y004000D01*
X016000Y004250D01*
X015750Y004000D01*
X015250Y004000D01*
X015000Y004250D01*
X015000Y004750D01*
X015250Y005000D01*
X010833Y003040D02*
X010835Y003055D01*
X010841Y003068D01*
X010850Y003080D01*
X010861Y003089D01*
X010875Y003095D01*
X010890Y003097D01*
X010905Y003095D01*
X010918Y003089D01*
X010930Y003080D01*
X010939Y003069D01*
X010945Y003055D01*
X010947Y003040D01*
X010945Y003025D01*
X010939Y003012D01*
X010930Y003000D01*
X010919Y002991D01*
X010905Y002985D01*
X010890Y002983D01*
X010875Y002985D01*
X010862Y002991D01*
X010850Y003000D01*
X010841Y003011D01*
X010835Y003025D01*
X010833Y003040D01*
X011250Y016000D02*
X011000Y016250D01*
X011000Y016750D01*
X011250Y017000D01*
X011750Y017000D01*
X012000Y016750D01*
X012250Y017000D01*
X012750Y017000D01*
X013000Y016750D01*
X013250Y017000D01*
X013750Y017000D01*
X014000Y016750D01*
X014250Y017000D01*
X014750Y017000D01*
X015000Y016750D01*
X015250Y017000D01*
X015750Y017000D01*
X016000Y016750D01*
X016250Y017000D01*
X016750Y017000D01*
X017000Y016750D01*
X017250Y017000D01*
X017750Y017000D01*
X018000Y016750D01*
X018250Y017000D01*
X018750Y017000D01*
X019000Y016750D01*
X019250Y017000D01*
X019750Y017000D01*
X020000Y016750D01*
X020250Y017000D01*
X020750Y017000D01*
X021000Y016750D01*
X021250Y017000D01*
X021750Y017000D01*
X022000Y016750D01*
X022250Y017000D01*
X022750Y017000D01*
X023000Y016750D01*
X023000Y016250D01*
X022750Y016000D01*
X022250Y016000D01*
X022000Y016250D01*
X021750Y016000D01*
X021250Y016000D01*
X021000Y016250D01*
X020750Y016000D01*
X020250Y016000D01*
X020000Y016250D01*
X019750Y016000D01*
X019250Y016000D01*
X019000Y016250D01*
X018750Y016000D01*
X018250Y016000D01*
X018000Y016250D01*
X017750Y016000D01*
X017250Y016000D01*
X017000Y016250D01*
X016750Y016000D01*
X016250Y016000D01*
X016000Y016250D01*
X015750Y016000D01*
X015250Y016000D01*
X015000Y016250D01*
X014750Y016000D01*
X014250Y016000D01*
X014000Y016250D01*
X013750Y016000D01*
X013250Y016000D01*
X013000Y016250D01*
X012750Y016000D01*
X012250Y016000D01*
X012000Y016250D01*
X011750Y016000D01*
X011250Y016000D01*
D13*
X010490Y003999D02*
X010490Y003812D01*
X010303Y003999D01*
X010256Y003999D01*
X010210Y003953D01*
X010210Y003859D01*
X010256Y003812D01*
X010256Y003723D02*
X010210Y003676D01*
X010210Y003583D01*
X010256Y003536D01*
X010303Y003536D01*
X010350Y003583D01*
X010350Y003676D01*
X010397Y003723D01*
X010443Y003723D01*
X010490Y003676D01*
X010490Y003583D01*
X010443Y003536D01*
X010443Y003447D02*
X010210Y003447D01*
X010210Y003260D02*
X010443Y003260D01*
X010490Y003307D01*
X010490Y003400D01*
X010443Y003447D01*
X010537Y003630D02*
X010163Y003630D01*
M02*
