G75*
G70*
%OFA0B0*%
%FSLAX24Y24*%
%IPPOS*%
%LPD*%
%AMOC8*
5,1,8,0,0,1.08239X$1,22.5*
%
%ADD10C,0.0060*%
%ADD11OC8,0.0660*%
%ADD12C,0.0560*%
%ADD13OC8,0.0560*%
%ADD14C,0.0740*%
%ADD15C,0.0000*%
%ADD16C,0.0001*%
%ADD17C,0.0400*%
%ADD18C,0.0200*%
%ADD19C,0.0238*%
%ADD20C,0.0100*%
%ADD21C,0.0160*%
%ADD22R,0.0650X0.0650*%
D10*
X007500Y000500D02*
X026500Y000500D01*
X026500Y001500D01*
X027500Y002500D01*
X027500Y015500D01*
X026500Y016500D01*
X026500Y021000D01*
X026000Y021500D01*
X007500Y021500D01*
X007500Y000500D01*
D11*
X011500Y001500D03*
X012500Y001500D03*
X013500Y001500D03*
X014500Y001500D03*
X015500Y001500D03*
X016500Y001500D03*
X017500Y001500D03*
X018500Y001500D03*
X020500Y001500D03*
X021500Y001500D03*
X022500Y001500D03*
X023500Y001500D03*
X024500Y001500D03*
X025500Y001500D03*
X025500Y020500D03*
X024500Y020500D03*
X023500Y020500D03*
X022500Y020500D03*
X021500Y020500D03*
X020500Y020500D03*
X019500Y020500D03*
X018500Y020500D03*
X016900Y020500D03*
X015900Y020500D03*
X014900Y020500D03*
X013900Y020500D03*
X012900Y020500D03*
X011900Y020500D03*
X010900Y020500D03*
X009900Y020500D03*
X008900Y020500D03*
X007900Y020500D03*
D12*
X024500Y018750D03*
D13*
X023500Y018750D03*
X022500Y018750D03*
X021500Y018750D03*
X020500Y018750D03*
X019500Y018750D03*
X018500Y018750D03*
X017500Y018750D03*
X016500Y018750D03*
X015500Y018750D03*
X014500Y018750D03*
X013500Y018750D03*
X012500Y018750D03*
X011500Y018750D03*
X010500Y018750D03*
X009500Y018750D03*
X009500Y017750D03*
X010500Y017750D03*
X011500Y017750D03*
X012500Y017750D03*
X013500Y017750D03*
X014500Y017750D03*
X015500Y017750D03*
X016500Y017750D03*
X017500Y017750D03*
X018500Y017750D03*
X019500Y017750D03*
X020500Y017750D03*
X021500Y017750D03*
X022500Y017750D03*
X023500Y017750D03*
X024500Y017750D03*
D14*
X022500Y016500D03*
X021500Y016500D03*
X020500Y016500D03*
X019500Y016500D03*
X018500Y016500D03*
X017500Y016500D03*
X016500Y016500D03*
X015500Y016500D03*
X014500Y016500D03*
X013500Y016500D03*
X012500Y016500D03*
X011500Y016500D03*
X015500Y004500D03*
X016500Y004500D03*
X017500Y004500D03*
X018500Y004500D03*
X019500Y004500D03*
X020500Y004500D03*
X021500Y004500D03*
X022500Y004500D03*
X023500Y004500D03*
X024500Y004500D03*
X024500Y003250D03*
X023500Y003250D03*
X022500Y003250D03*
X021500Y003250D03*
X020500Y003250D03*
X019500Y003250D03*
X018500Y003250D03*
X017500Y003250D03*
X016500Y003250D03*
X015500Y003250D03*
D15*
X010523Y003555D02*
X010499Y003547D01*
X010471Y003535D01*
X010448Y003524D01*
X010420Y003535D01*
X010393Y003543D01*
X010365Y003555D01*
X010338Y003563D01*
X010306Y003575D01*
X010279Y003587D01*
X010251Y003594D01*
X010251Y003846D01*
X010251Y003878D01*
X010279Y003886D01*
X010306Y003898D01*
X010338Y003906D01*
X010365Y003917D01*
X010393Y003929D01*
X010420Y003937D01*
X010448Y003949D01*
X010471Y003937D01*
X010499Y003925D01*
X010523Y003913D01*
X010523Y003555D01*
D16*
X010522Y003555D02*
X010365Y003555D01*
X010368Y003554D02*
X010519Y003554D01*
X010516Y003553D02*
X010370Y003553D01*
X010372Y003552D02*
X010513Y003552D01*
X010510Y003551D02*
X010375Y003551D01*
X010377Y003550D02*
X010507Y003550D01*
X010504Y003549D02*
X010379Y003549D01*
X010382Y003548D02*
X010501Y003548D01*
X010498Y003547D02*
X010384Y003547D01*
X010386Y003546D02*
X010496Y003546D01*
X010494Y003545D02*
X010389Y003545D01*
X010391Y003544D02*
X010491Y003544D01*
X010489Y003543D02*
X010394Y003543D01*
X010397Y003542D02*
X010487Y003542D01*
X010484Y003541D02*
X010401Y003541D01*
X010404Y003540D02*
X010482Y003540D01*
X010480Y003539D02*
X010408Y003539D01*
X010411Y003538D02*
X010477Y003538D01*
X010475Y003537D02*
X010415Y003537D01*
X010418Y003536D02*
X010473Y003536D01*
X010471Y003535D02*
X010421Y003535D01*
X010424Y003534D02*
X010469Y003534D01*
X010467Y003533D02*
X010426Y003533D01*
X010428Y003532D02*
X010465Y003532D01*
X010463Y003531D02*
X010431Y003531D01*
X010433Y003530D02*
X010461Y003530D01*
X010459Y003529D02*
X010435Y003529D01*
X010438Y003528D02*
X010457Y003528D01*
X010455Y003527D02*
X010440Y003527D01*
X010442Y003526D02*
X010453Y003526D01*
X010451Y003525D02*
X010445Y003525D01*
X010447Y003524D02*
X010449Y003524D01*
X010523Y003556D02*
X010362Y003556D01*
X010359Y003557D02*
X010523Y003557D01*
X010523Y003558D02*
X010355Y003558D01*
X010352Y003559D02*
X010523Y003559D01*
X010523Y003560D02*
X010348Y003560D01*
X010345Y003561D02*
X010523Y003561D01*
X010523Y003562D02*
X010341Y003562D01*
X010338Y003563D02*
X010523Y003563D01*
X010523Y003564D02*
X010335Y003564D01*
X010332Y003565D02*
X010523Y003565D01*
X010523Y003566D02*
X010330Y003566D01*
X010327Y003567D02*
X010523Y003567D01*
X010523Y003568D02*
X010324Y003568D01*
X010322Y003569D02*
X010523Y003569D01*
X010523Y003570D02*
X010319Y003570D01*
X010316Y003571D02*
X010523Y003571D01*
X010523Y003572D02*
X010314Y003572D01*
X010311Y003573D02*
X010523Y003573D01*
X010523Y003574D02*
X010308Y003574D01*
X010306Y003575D02*
X010523Y003575D01*
X010523Y003576D02*
X010303Y003576D01*
X010301Y003577D02*
X010523Y003577D01*
X010523Y003578D02*
X010299Y003578D01*
X010296Y003579D02*
X010523Y003579D01*
X010523Y003580D02*
X010294Y003580D01*
X010292Y003581D02*
X010523Y003581D01*
X010523Y003582D02*
X010289Y003582D01*
X010287Y003583D02*
X010523Y003583D01*
X010523Y003584D02*
X010285Y003584D01*
X010282Y003585D02*
X010523Y003585D01*
X010523Y003586D02*
X010280Y003586D01*
X010277Y003587D02*
X010523Y003587D01*
X010523Y003588D02*
X010274Y003588D01*
X010270Y003589D02*
X010523Y003589D01*
X010523Y003590D02*
X010267Y003590D01*
X010263Y003591D02*
X010523Y003591D01*
X010523Y003592D02*
X010260Y003592D01*
X010256Y003593D02*
X010523Y003593D01*
X010523Y003594D02*
X010253Y003594D01*
X010251Y003595D02*
X010523Y003595D01*
X010523Y003596D02*
X010251Y003596D01*
X010251Y003597D02*
X010523Y003597D01*
X010523Y003598D02*
X010251Y003598D01*
X010251Y003599D02*
X010523Y003599D01*
X010523Y003600D02*
X010251Y003600D01*
X010251Y003601D02*
X010523Y003601D01*
X010523Y003602D02*
X010251Y003602D01*
X010251Y003603D02*
X010523Y003603D01*
X010523Y003604D02*
X010251Y003604D01*
X010251Y003605D02*
X010523Y003605D01*
X010523Y003606D02*
X010251Y003606D01*
X010251Y003607D02*
X010523Y003607D01*
X010523Y003608D02*
X010251Y003608D01*
X010251Y003609D02*
X010523Y003609D01*
X010523Y003610D02*
X010251Y003610D01*
X010251Y003611D02*
X010523Y003611D01*
X010523Y003612D02*
X010251Y003612D01*
X010251Y003613D02*
X010523Y003613D01*
X010523Y003614D02*
X010251Y003614D01*
X010251Y003615D02*
X010523Y003615D01*
X010523Y003616D02*
X010251Y003616D01*
X010251Y003617D02*
X010523Y003617D01*
X010523Y003618D02*
X010251Y003618D01*
X010251Y003619D02*
X010523Y003619D01*
X010523Y003620D02*
X010251Y003620D01*
X010251Y003621D02*
X010523Y003621D01*
X010523Y003622D02*
X010251Y003622D01*
X010251Y003623D02*
X010523Y003623D01*
X010523Y003624D02*
X010251Y003624D01*
X010251Y003625D02*
X010523Y003625D01*
X010523Y003626D02*
X010251Y003626D01*
X010251Y003627D02*
X010523Y003627D01*
X010523Y003628D02*
X010251Y003628D01*
X010251Y003629D02*
X010523Y003629D01*
X010523Y003630D02*
X010251Y003630D01*
X010251Y003631D02*
X010523Y003631D01*
X010523Y003632D02*
X010251Y003632D01*
X010251Y003633D02*
X010523Y003633D01*
X010523Y003634D02*
X010251Y003634D01*
X010251Y003635D02*
X010523Y003635D01*
X010523Y003636D02*
X010251Y003636D01*
X010251Y003637D02*
X010523Y003637D01*
X010523Y003638D02*
X010251Y003638D01*
X010251Y003639D02*
X010523Y003639D01*
X010523Y003640D02*
X010251Y003640D01*
X010251Y003641D02*
X010523Y003641D01*
X010523Y003642D02*
X010251Y003642D01*
X010251Y003643D02*
X010523Y003643D01*
X010523Y003644D02*
X010251Y003644D01*
X010251Y003645D02*
X010523Y003645D01*
X010523Y003646D02*
X010251Y003646D01*
X010251Y003647D02*
X010523Y003647D01*
X010523Y003648D02*
X010251Y003648D01*
X010251Y003649D02*
X010523Y003649D01*
X010523Y003650D02*
X010251Y003650D01*
X010251Y003651D02*
X010523Y003651D01*
X010523Y003652D02*
X010251Y003652D01*
X010251Y003653D02*
X010523Y003653D01*
X010523Y003654D02*
X010251Y003654D01*
X010251Y003655D02*
X010523Y003655D01*
X010523Y003656D02*
X010251Y003656D01*
X010251Y003657D02*
X010523Y003657D01*
X010523Y003658D02*
X010251Y003658D01*
X010251Y003659D02*
X010523Y003659D01*
X010523Y003660D02*
X010251Y003660D01*
X010251Y003661D02*
X010523Y003661D01*
X010523Y003662D02*
X010251Y003662D01*
X010251Y003663D02*
X010523Y003663D01*
X010523Y003664D02*
X010251Y003664D01*
X010251Y003665D02*
X010523Y003665D01*
X010523Y003666D02*
X010251Y003666D01*
X010251Y003667D02*
X010523Y003667D01*
X010523Y003668D02*
X010251Y003668D01*
X010251Y003669D02*
X010523Y003669D01*
X010523Y003670D02*
X010251Y003670D01*
X010251Y003671D02*
X010523Y003671D01*
X010523Y003672D02*
X010251Y003672D01*
X010251Y003673D02*
X010523Y003673D01*
X010523Y003674D02*
X010251Y003674D01*
X010251Y003675D02*
X010523Y003675D01*
X010523Y003676D02*
X010251Y003676D01*
X010251Y003677D02*
X010523Y003677D01*
X010523Y003678D02*
X010251Y003678D01*
X010251Y003679D02*
X010523Y003679D01*
X010523Y003680D02*
X010251Y003680D01*
X010251Y003681D02*
X010523Y003681D01*
X010523Y003682D02*
X010251Y003682D01*
X010251Y003683D02*
X010523Y003683D01*
X010523Y003684D02*
X010251Y003684D01*
X010251Y003685D02*
X010523Y003685D01*
X010523Y003686D02*
X010251Y003686D01*
X010251Y003687D02*
X010523Y003687D01*
X010523Y003688D02*
X010251Y003688D01*
X010251Y003689D02*
X010523Y003689D01*
X010523Y003690D02*
X010251Y003690D01*
X010251Y003691D02*
X010523Y003691D01*
X010523Y003692D02*
X010251Y003692D01*
X010251Y003693D02*
X010523Y003693D01*
X010523Y003694D02*
X010251Y003694D01*
X010251Y003695D02*
X010523Y003695D01*
X010523Y003696D02*
X010251Y003696D01*
X010251Y003697D02*
X010523Y003697D01*
X010523Y003698D02*
X010251Y003698D01*
X010251Y003699D02*
X010523Y003699D01*
X010523Y003700D02*
X010251Y003700D01*
X010251Y003701D02*
X010523Y003701D01*
X010523Y003702D02*
X010251Y003702D01*
X010251Y003703D02*
X010523Y003703D01*
X010523Y003704D02*
X010251Y003704D01*
X010251Y003705D02*
X010523Y003705D01*
X010523Y003706D02*
X010251Y003706D01*
X010251Y003707D02*
X010523Y003707D01*
X010523Y003708D02*
X010251Y003708D01*
X010251Y003709D02*
X010523Y003709D01*
X010523Y003710D02*
X010251Y003710D01*
X010251Y003711D02*
X010523Y003711D01*
X010523Y003712D02*
X010251Y003712D01*
X010251Y003713D02*
X010523Y003713D01*
X010523Y003714D02*
X010251Y003714D01*
X010251Y003715D02*
X010523Y003715D01*
X010523Y003716D02*
X010251Y003716D01*
X010251Y003717D02*
X010523Y003717D01*
X010523Y003718D02*
X010251Y003718D01*
X010251Y003719D02*
X010523Y003719D01*
X010523Y003720D02*
X010251Y003720D01*
X010251Y003721D02*
X010523Y003721D01*
X010523Y003722D02*
X010251Y003722D01*
X010251Y003723D02*
X010523Y003723D01*
X010523Y003724D02*
X010251Y003724D01*
X010251Y003725D02*
X010523Y003725D01*
X010523Y003726D02*
X010251Y003726D01*
X010251Y003727D02*
X010523Y003727D01*
X010523Y003728D02*
X010251Y003728D01*
X010251Y003729D02*
X010523Y003729D01*
X010523Y003730D02*
X010251Y003730D01*
X010251Y003731D02*
X010523Y003731D01*
X010523Y003732D02*
X010251Y003732D01*
X010251Y003733D02*
X010523Y003733D01*
X010523Y003734D02*
X010251Y003734D01*
X010251Y003735D02*
X010523Y003735D01*
X010523Y003736D02*
X010251Y003736D01*
X010251Y003737D02*
X010523Y003737D01*
X010523Y003738D02*
X010251Y003738D01*
X010251Y003739D02*
X010523Y003739D01*
X010523Y003740D02*
X010251Y003740D01*
X010251Y003741D02*
X010523Y003741D01*
X010523Y003742D02*
X010251Y003742D01*
X010251Y003743D02*
X010523Y003743D01*
X010523Y003744D02*
X010251Y003744D01*
X010251Y003745D02*
X010523Y003745D01*
X010523Y003746D02*
X010251Y003746D01*
X010251Y003747D02*
X010523Y003747D01*
X010523Y003748D02*
X010251Y003748D01*
X010251Y003749D02*
X010523Y003749D01*
X010523Y003750D02*
X010251Y003750D01*
X010251Y003751D02*
X010523Y003751D01*
X010523Y003752D02*
X010251Y003752D01*
X010251Y003753D02*
X010523Y003753D01*
X010523Y003754D02*
X010251Y003754D01*
X010251Y003755D02*
X010523Y003755D01*
X010523Y003756D02*
X010251Y003756D01*
X010251Y003757D02*
X010523Y003757D01*
X010523Y003758D02*
X010251Y003758D01*
X010251Y003759D02*
X010523Y003759D01*
X010523Y003760D02*
X010251Y003760D01*
X010251Y003761D02*
X010523Y003761D01*
X010523Y003762D02*
X010251Y003762D01*
X010251Y003763D02*
X010523Y003763D01*
X010523Y003764D02*
X010251Y003764D01*
X010251Y003765D02*
X010523Y003765D01*
X010523Y003766D02*
X010251Y003766D01*
X010251Y003767D02*
X010523Y003767D01*
X010523Y003768D02*
X010251Y003768D01*
X010251Y003769D02*
X010523Y003769D01*
X010523Y003770D02*
X010251Y003770D01*
X010251Y003771D02*
X010523Y003771D01*
X010523Y003772D02*
X010251Y003772D01*
X010251Y003773D02*
X010523Y003773D01*
X010523Y003774D02*
X010251Y003774D01*
X010251Y003775D02*
X010523Y003775D01*
X010523Y003776D02*
X010251Y003776D01*
X010251Y003777D02*
X010523Y003777D01*
X010523Y003778D02*
X010251Y003778D01*
X010251Y003779D02*
X010523Y003779D01*
X010523Y003780D02*
X010251Y003780D01*
X010251Y003781D02*
X010523Y003781D01*
X010523Y003782D02*
X010251Y003782D01*
X010251Y003783D02*
X010523Y003783D01*
X010523Y003784D02*
X010251Y003784D01*
X010251Y003785D02*
X010523Y003785D01*
X010523Y003786D02*
X010251Y003786D01*
X010251Y003787D02*
X010523Y003787D01*
X010523Y003788D02*
X010251Y003788D01*
X010251Y003789D02*
X010523Y003789D01*
X010523Y003790D02*
X010251Y003790D01*
X010251Y003791D02*
X010523Y003791D01*
X010523Y003792D02*
X010251Y003792D01*
X010251Y003793D02*
X010523Y003793D01*
X010523Y003794D02*
X010251Y003794D01*
X010251Y003795D02*
X010523Y003795D01*
X010523Y003796D02*
X010251Y003796D01*
X010251Y003797D02*
X010523Y003797D01*
X010523Y003798D02*
X010251Y003798D01*
X010251Y003799D02*
X010523Y003799D01*
X010523Y003800D02*
X010251Y003800D01*
X010251Y003801D02*
X010523Y003801D01*
X010523Y003802D02*
X010251Y003802D01*
X010251Y003803D02*
X010523Y003803D01*
X010523Y003804D02*
X010251Y003804D01*
X010251Y003805D02*
X010523Y003805D01*
X010523Y003806D02*
X010251Y003806D01*
X010251Y003807D02*
X010523Y003807D01*
X010523Y003808D02*
X010251Y003808D01*
X010251Y003809D02*
X010523Y003809D01*
X010523Y003810D02*
X010251Y003810D01*
X010251Y003811D02*
X010523Y003811D01*
X010523Y003812D02*
X010251Y003812D01*
X010251Y003813D02*
X010523Y003813D01*
X010523Y003814D02*
X010251Y003814D01*
X010251Y003815D02*
X010523Y003815D01*
X010523Y003816D02*
X010251Y003816D01*
X010251Y003817D02*
X010523Y003817D01*
X010523Y003818D02*
X010251Y003818D01*
X010251Y003819D02*
X010523Y003819D01*
X010523Y003820D02*
X010251Y003820D01*
X010251Y003821D02*
X010523Y003821D01*
X010523Y003822D02*
X010251Y003822D01*
X010251Y003823D02*
X010523Y003823D01*
X010523Y003824D02*
X010251Y003824D01*
X010251Y003825D02*
X010523Y003825D01*
X010523Y003826D02*
X010251Y003826D01*
X010251Y003827D02*
X010523Y003827D01*
X010523Y003828D02*
X010251Y003828D01*
X010251Y003829D02*
X010523Y003829D01*
X010523Y003830D02*
X010251Y003830D01*
X010251Y003831D02*
X010523Y003831D01*
X010523Y003832D02*
X010251Y003832D01*
X010251Y003833D02*
X010523Y003833D01*
X010523Y003834D02*
X010251Y003834D01*
X010251Y003835D02*
X010523Y003835D01*
X010523Y003836D02*
X010251Y003836D01*
X010251Y003837D02*
X010523Y003837D01*
X010523Y003838D02*
X010251Y003838D01*
X010251Y003839D02*
X010523Y003839D01*
X010523Y003840D02*
X010251Y003840D01*
X010251Y003841D02*
X010523Y003841D01*
X010523Y003842D02*
X010251Y003842D01*
X010251Y003843D02*
X010523Y003843D01*
X010523Y003844D02*
X010251Y003844D01*
X010251Y003845D02*
X010523Y003845D01*
X010523Y003846D02*
X010251Y003846D01*
X010251Y003847D02*
X010523Y003847D01*
X010523Y003848D02*
X010251Y003848D01*
X010251Y003849D02*
X010523Y003849D01*
X010523Y003850D02*
X010251Y003850D01*
X010251Y003851D02*
X010523Y003851D01*
X010523Y003852D02*
X010251Y003852D01*
X010251Y003853D02*
X010523Y003853D01*
X010523Y003854D02*
X010251Y003854D01*
X010251Y003855D02*
X010523Y003855D01*
X010523Y003856D02*
X010251Y003856D01*
X010251Y003857D02*
X010523Y003857D01*
X010523Y003858D02*
X010251Y003858D01*
X010251Y003859D02*
X010523Y003859D01*
X010523Y003860D02*
X010251Y003860D01*
X010251Y003861D02*
X010523Y003861D01*
X010523Y003862D02*
X010251Y003862D01*
X010251Y003863D02*
X010523Y003863D01*
X010523Y003864D02*
X010251Y003864D01*
X010251Y003865D02*
X010523Y003865D01*
X010523Y003866D02*
X010251Y003866D01*
X010251Y003867D02*
X010523Y003867D01*
X010523Y003868D02*
X010251Y003868D01*
X010251Y003869D02*
X010523Y003869D01*
X010523Y003870D02*
X010251Y003870D01*
X010251Y003871D02*
X010523Y003871D01*
X010523Y003872D02*
X010251Y003872D01*
X010251Y003873D02*
X010523Y003873D01*
X010523Y003874D02*
X010251Y003874D01*
X010251Y003875D02*
X010523Y003875D01*
X010523Y003876D02*
X010251Y003876D01*
X010251Y003877D02*
X010523Y003877D01*
X010523Y003878D02*
X010251Y003878D01*
X010253Y003879D02*
X010523Y003879D01*
X010523Y003880D02*
X010257Y003880D01*
X010260Y003881D02*
X010523Y003881D01*
X010523Y003882D02*
X010264Y003882D01*
X010267Y003883D02*
X010523Y003883D01*
X010523Y003884D02*
X010271Y003884D01*
X010274Y003885D02*
X010523Y003885D01*
X010523Y003886D02*
X010278Y003886D01*
X010280Y003887D02*
X010523Y003887D01*
X010523Y003888D02*
X010283Y003888D01*
X010285Y003889D02*
X010523Y003889D01*
X010523Y003890D02*
X010287Y003890D01*
X010290Y003891D02*
X010523Y003891D01*
X010523Y003892D02*
X010292Y003892D01*
X010294Y003893D02*
X010523Y003893D01*
X010523Y003894D02*
X010297Y003894D01*
X010299Y003895D02*
X010523Y003895D01*
X010523Y003896D02*
X010301Y003896D01*
X010304Y003897D02*
X010523Y003897D01*
X010523Y003898D02*
X010306Y003898D01*
X010310Y003899D02*
X010523Y003899D01*
X010523Y003900D02*
X010314Y003900D01*
X010318Y003901D02*
X010523Y003901D01*
X010523Y003902D02*
X010322Y003902D01*
X010326Y003903D02*
X010523Y003903D01*
X010523Y003904D02*
X010330Y003904D01*
X010334Y003905D02*
X010523Y003905D01*
X010523Y003906D02*
X010338Y003906D01*
X010340Y003907D02*
X010523Y003907D01*
X010523Y003908D02*
X010343Y003908D01*
X010345Y003909D02*
X010523Y003909D01*
X010523Y003910D02*
X010347Y003910D01*
X010350Y003911D02*
X010523Y003911D01*
X010523Y003912D02*
X010352Y003912D01*
X010354Y003913D02*
X010523Y003913D01*
X010522Y003914D02*
X010357Y003914D01*
X010359Y003915D02*
X010520Y003915D01*
X010518Y003916D02*
X010361Y003916D01*
X010364Y003917D02*
X010516Y003917D01*
X010514Y003918D02*
X010366Y003918D01*
X010368Y003919D02*
X010512Y003919D01*
X010510Y003920D02*
X010371Y003920D01*
X010373Y003921D02*
X010508Y003921D01*
X010506Y003922D02*
X010375Y003922D01*
X010378Y003923D02*
X010504Y003923D01*
X010502Y003924D02*
X010380Y003924D01*
X010382Y003925D02*
X010500Y003925D01*
X010498Y003926D02*
X010385Y003926D01*
X010387Y003927D02*
X010496Y003927D01*
X010493Y003928D02*
X010389Y003928D01*
X010392Y003929D02*
X010491Y003929D01*
X010489Y003930D02*
X010394Y003930D01*
X010398Y003931D02*
X010486Y003931D01*
X010484Y003932D02*
X010401Y003932D01*
X010405Y003933D02*
X010482Y003933D01*
X010479Y003934D02*
X010408Y003934D01*
X010412Y003935D02*
X010477Y003935D01*
X010475Y003936D02*
X010415Y003936D01*
X010419Y003937D02*
X010472Y003937D01*
X010470Y003938D02*
X010422Y003938D01*
X010424Y003939D02*
X010468Y003939D01*
X010466Y003940D02*
X010426Y003940D01*
X010429Y003941D02*
X010464Y003941D01*
X010462Y003942D02*
X010431Y003942D01*
X010433Y003943D02*
X010460Y003943D01*
X010458Y003944D02*
X010436Y003944D01*
X010438Y003945D02*
X010456Y003945D01*
X010454Y003946D02*
X010440Y003946D01*
X010443Y003947D02*
X010452Y003947D01*
X010450Y003948D02*
X010445Y003948D01*
X010447Y003949D02*
X010448Y003949D01*
D17*
X008750Y004000D02*
X008750Y002750D01*
X008750Y004000D02*
X008750Y004500D01*
X008750Y019250D01*
X009000Y019500D01*
X010500Y019500D01*
X010900Y019900D01*
X010900Y020500D01*
X015500Y003250D02*
X015500Y002750D01*
X015750Y002500D01*
X018250Y002500D01*
X018500Y002250D01*
X018500Y001500D01*
D18*
X016500Y001500D02*
X016000Y001000D01*
X010000Y001000D01*
X008750Y002250D01*
X008750Y002750D01*
D19*
X010750Y004500D03*
X012250Y004000D03*
X012250Y003500D03*
X012250Y003000D03*
D20*
X014750Y003000D01*
X015000Y003250D01*
X015000Y004750D01*
X015250Y005000D01*
X022000Y005000D01*
X022500Y004500D01*
X022750Y005250D02*
X023500Y004500D01*
X024500Y004500D02*
X023500Y005500D01*
X015000Y005500D01*
X014500Y005000D01*
X014500Y004250D01*
X014250Y004000D01*
X012250Y004000D01*
X012250Y003500D02*
X014500Y003500D01*
X014750Y003750D01*
X014750Y004750D01*
X015250Y005250D01*
X022750Y005250D01*
X026000Y002000D02*
X026250Y002250D01*
X026250Y017000D01*
X026000Y017250D01*
X022750Y017250D01*
X022500Y017500D01*
X022500Y017750D01*
X022000Y018250D02*
X022000Y019000D01*
X022250Y019250D01*
X024250Y019250D01*
X024500Y019500D01*
X024500Y020500D01*
X022500Y020500D02*
X022500Y019750D01*
X022250Y019500D01*
X021250Y019500D01*
X021000Y019250D01*
X021000Y018250D01*
X020500Y017750D01*
X020000Y017500D02*
X020500Y017000D01*
X022000Y017000D01*
X022500Y016500D01*
X021500Y017750D02*
X022000Y018250D01*
X020500Y019500D02*
X020500Y020500D01*
X020500Y019500D02*
X020250Y019250D01*
X017250Y019250D01*
X017000Y019000D01*
X017000Y018250D01*
X016500Y017750D01*
X016000Y018250D02*
X015500Y017750D01*
X015750Y017250D02*
X016500Y016500D01*
X015750Y017250D02*
X012250Y017250D01*
X012000Y017500D01*
X012000Y018000D01*
X011500Y018500D01*
X011500Y018750D01*
X011000Y018250D02*
X011000Y017500D01*
X011250Y017250D01*
X012000Y017250D01*
X012250Y017000D01*
X014000Y017000D01*
X014500Y016500D01*
X014500Y017750D02*
X015000Y018250D01*
X015000Y019000D01*
X015900Y019900D01*
X015900Y020500D01*
X016250Y019500D02*
X016000Y019250D01*
X016000Y018250D01*
X016250Y019500D02*
X018250Y019500D01*
X018500Y019750D01*
X018500Y020500D01*
X018500Y018750D02*
X019000Y018250D01*
X019000Y017250D01*
X019250Y017000D01*
X020000Y017000D01*
X020500Y016500D01*
X020000Y017500D02*
X020000Y018250D01*
X019500Y018750D01*
X018000Y018250D02*
X018000Y017000D01*
X018500Y016500D01*
X018000Y018250D02*
X017500Y018750D01*
X014000Y018250D02*
X013500Y017750D01*
X014000Y018250D02*
X014000Y019500D01*
X013900Y019600D01*
X013900Y020500D01*
X012000Y019250D02*
X012000Y018250D01*
X012500Y017750D01*
X012000Y017000D02*
X012500Y016500D01*
X012000Y017000D02*
X010250Y017000D01*
X010000Y017250D01*
X010000Y018250D01*
X009500Y018750D01*
X010500Y018750D02*
X011000Y018250D01*
X012000Y019250D02*
X011900Y019350D01*
X011900Y020500D01*
X010750Y004500D02*
X008750Y004500D01*
X020500Y001500D02*
X021000Y002000D01*
X026000Y002000D01*
D21*
X026079Y001810D02*
X025855Y001810D01*
X025970Y001695D01*
X025970Y001305D01*
X025695Y001030D01*
X025305Y001030D01*
X025030Y001305D01*
X025030Y001695D01*
X025145Y001810D01*
X024855Y001810D01*
X024970Y001695D01*
X024970Y001305D01*
X024695Y001030D01*
X024305Y001030D01*
X024030Y001305D01*
X024030Y001695D01*
X024145Y001810D01*
X023855Y001810D01*
X023970Y001695D01*
X023970Y001305D01*
X023695Y001030D01*
X023305Y001030D01*
X023030Y001305D01*
X023030Y001695D01*
X023145Y001810D01*
X022855Y001810D01*
X022970Y001695D01*
X022970Y001305D01*
X022695Y001030D01*
X022305Y001030D01*
X022030Y001305D01*
X022030Y001695D01*
X022145Y001810D01*
X021855Y001810D01*
X021970Y001695D01*
X021970Y001305D01*
X021695Y001030D01*
X021305Y001030D01*
X021030Y001305D01*
X021030Y001695D01*
X021145Y001810D01*
X021079Y001810D01*
X020967Y001698D01*
X020970Y001695D01*
X020970Y001305D01*
X020695Y001030D01*
X020305Y001030D01*
X020030Y001305D01*
X020030Y001695D01*
X020305Y001970D01*
X020695Y001970D01*
X020698Y001967D01*
X020810Y002079D01*
X020921Y002190D01*
X025921Y002190D01*
X026060Y002329D01*
X026060Y016921D01*
X025921Y017060D01*
X022671Y017060D01*
X022421Y017310D01*
X022401Y017330D01*
X022326Y017330D01*
X022080Y017576D01*
X022080Y017924D01*
X022326Y018170D01*
X022674Y018170D01*
X022920Y017924D01*
X022920Y017576D01*
X022806Y017462D01*
X022829Y017440D01*
X023216Y017440D01*
X023080Y017576D01*
X023080Y017924D01*
X023326Y018170D01*
X023674Y018170D01*
X023920Y017924D01*
X023920Y017576D01*
X023784Y017440D01*
X024216Y017440D01*
X024080Y017576D01*
X024080Y017924D01*
X024326Y018170D01*
X024674Y018170D01*
X024920Y017924D01*
X024920Y017576D01*
X024784Y017440D01*
X026079Y017440D01*
X026190Y017329D01*
X026290Y017229D01*
X026290Y020913D01*
X025913Y021290D01*
X007710Y021290D01*
X007710Y020970D01*
X008095Y020970D01*
X008370Y020695D01*
X008370Y020305D01*
X008095Y020030D01*
X007710Y020030D01*
X007710Y000710D01*
X026290Y000710D01*
X026290Y001587D01*
X026413Y001710D01*
X027290Y002587D01*
X027290Y015413D01*
X026440Y016263D01*
X026440Y002171D01*
X026329Y002060D01*
X026079Y001810D01*
X026195Y001927D02*
X026630Y001927D01*
X026788Y002085D02*
X026354Y002085D01*
X026440Y002244D02*
X026947Y002244D01*
X027105Y002402D02*
X026440Y002402D01*
X026440Y002561D02*
X027264Y002561D01*
X027290Y002719D02*
X026440Y002719D01*
X026440Y002878D02*
X027290Y002878D01*
X027290Y003036D02*
X026440Y003036D01*
X026440Y003195D02*
X027290Y003195D01*
X027290Y003353D02*
X026440Y003353D01*
X026440Y003512D02*
X027290Y003512D01*
X027290Y003670D02*
X026440Y003670D01*
X026440Y003829D02*
X027290Y003829D01*
X027290Y003987D02*
X026440Y003987D01*
X026440Y004146D02*
X027290Y004146D01*
X027290Y004304D02*
X026440Y004304D01*
X026440Y004463D02*
X027290Y004463D01*
X027290Y004621D02*
X026440Y004621D01*
X026440Y004780D02*
X027290Y004780D01*
X027290Y004938D02*
X026440Y004938D01*
X026440Y005097D02*
X027290Y005097D01*
X027290Y005255D02*
X026440Y005255D01*
X026440Y005414D02*
X027290Y005414D01*
X027290Y005572D02*
X026440Y005572D01*
X026440Y005731D02*
X027290Y005731D01*
X027290Y005889D02*
X026440Y005889D01*
X026440Y006048D02*
X027290Y006048D01*
X027290Y006206D02*
X026440Y006206D01*
X026440Y006365D02*
X027290Y006365D01*
X027290Y006523D02*
X026440Y006523D01*
X026440Y006682D02*
X027290Y006682D01*
X027290Y006840D02*
X026440Y006840D01*
X026440Y006999D02*
X027290Y006999D01*
X027290Y007157D02*
X026440Y007157D01*
X026440Y007316D02*
X027290Y007316D01*
X027290Y007474D02*
X026440Y007474D01*
X026440Y007633D02*
X027290Y007633D01*
X027290Y007791D02*
X026440Y007791D01*
X026440Y007950D02*
X027290Y007950D01*
X027290Y008108D02*
X026440Y008108D01*
X026440Y008267D02*
X027290Y008267D01*
X027290Y008425D02*
X026440Y008425D01*
X026440Y008584D02*
X027290Y008584D01*
X027290Y008742D02*
X026440Y008742D01*
X026440Y008901D02*
X027290Y008901D01*
X027290Y009059D02*
X026440Y009059D01*
X026440Y009218D02*
X027290Y009218D01*
X027290Y009376D02*
X026440Y009376D01*
X026440Y009535D02*
X027290Y009535D01*
X027290Y009693D02*
X026440Y009693D01*
X026440Y009852D02*
X027290Y009852D01*
X027290Y010010D02*
X026440Y010010D01*
X026440Y010169D02*
X027290Y010169D01*
X027290Y010327D02*
X026440Y010327D01*
X026440Y010486D02*
X027290Y010486D01*
X027290Y010644D02*
X026440Y010644D01*
X026440Y010803D02*
X027290Y010803D01*
X027290Y010961D02*
X026440Y010961D01*
X026440Y011120D02*
X027290Y011120D01*
X027290Y011278D02*
X026440Y011278D01*
X026440Y011437D02*
X027290Y011437D01*
X027290Y011595D02*
X026440Y011595D01*
X026440Y011754D02*
X027290Y011754D01*
X027290Y011912D02*
X026440Y011912D01*
X026440Y012071D02*
X027290Y012071D01*
X027290Y012229D02*
X026440Y012229D01*
X026440Y012388D02*
X027290Y012388D01*
X027290Y012546D02*
X026440Y012546D01*
X026440Y012705D02*
X027290Y012705D01*
X027290Y012863D02*
X026440Y012863D01*
X026440Y013022D02*
X027290Y013022D01*
X027290Y013180D02*
X026440Y013180D01*
X026440Y013339D02*
X027290Y013339D01*
X027290Y013497D02*
X026440Y013497D01*
X026440Y013656D02*
X027290Y013656D01*
X027290Y013814D02*
X026440Y013814D01*
X026440Y013973D02*
X027290Y013973D01*
X027290Y014131D02*
X026440Y014131D01*
X026440Y014290D02*
X027290Y014290D01*
X027290Y014448D02*
X026440Y014448D01*
X026440Y014607D02*
X027290Y014607D01*
X027290Y014765D02*
X026440Y014765D01*
X026440Y014924D02*
X027290Y014924D01*
X027290Y015082D02*
X026440Y015082D01*
X026440Y015241D02*
X027290Y015241D01*
X027290Y015399D02*
X026440Y015399D01*
X026440Y015558D02*
X027145Y015558D01*
X026987Y015716D02*
X026440Y015716D01*
X026440Y015875D02*
X026828Y015875D01*
X026670Y016033D02*
X026440Y016033D01*
X026440Y016192D02*
X026511Y016192D01*
X026060Y016192D02*
X022913Y016192D01*
X022932Y016211D02*
X023010Y016399D01*
X023010Y016601D01*
X022932Y016789D01*
X022789Y016932D01*
X022601Y017010D01*
X022399Y017010D01*
X022300Y016969D01*
X022079Y017190D01*
X020579Y017190D01*
X020439Y017330D01*
X020674Y017330D01*
X020920Y017576D01*
X020920Y017901D01*
X021079Y018060D01*
X021190Y018171D01*
X021190Y018466D01*
X021326Y018330D01*
X021674Y018330D01*
X021810Y018466D01*
X021810Y018329D01*
X021651Y018170D01*
X021326Y018170D01*
X021080Y017924D01*
X021080Y017576D01*
X021326Y017330D01*
X021674Y017330D01*
X021920Y017576D01*
X021920Y017901D01*
X022079Y018060D01*
X022190Y018171D01*
X022190Y018466D01*
X022326Y018330D01*
X022674Y018330D01*
X022920Y018576D01*
X022920Y018924D01*
X022784Y019060D01*
X023216Y019060D01*
X023080Y018924D01*
X023080Y018576D01*
X023326Y018330D01*
X023674Y018330D01*
X023920Y018576D01*
X023920Y018924D01*
X023784Y019060D01*
X024216Y019060D01*
X024144Y018988D01*
X024080Y018834D01*
X024080Y018666D01*
X024144Y018512D01*
X024262Y018394D01*
X024416Y018330D01*
X024584Y018330D01*
X024738Y018394D01*
X024856Y018512D01*
X024920Y018666D01*
X024920Y018834D01*
X024856Y018988D01*
X024738Y019106D01*
X024584Y019170D01*
X024439Y019170D01*
X024440Y019171D01*
X024440Y019171D01*
X024579Y019310D01*
X024690Y019421D01*
X024690Y020030D01*
X024695Y020030D01*
X024970Y020305D01*
X024970Y020695D01*
X024695Y020970D01*
X024305Y020970D01*
X024030Y020695D01*
X024030Y020305D01*
X024305Y020030D01*
X024310Y020030D01*
X024310Y019579D01*
X024171Y019440D01*
X022459Y019440D01*
X022579Y019560D01*
X022690Y019671D01*
X022690Y020030D01*
X022695Y020030D01*
X022970Y020305D01*
X022970Y020695D01*
X022695Y020970D01*
X022305Y020970D01*
X022030Y020695D01*
X022030Y020305D01*
X022305Y020030D01*
X022310Y020030D01*
X022310Y019829D01*
X022171Y019690D01*
X021171Y019690D01*
X021060Y019579D01*
X020810Y019329D01*
X020810Y019034D01*
X020674Y019170D01*
X020439Y019170D01*
X020579Y019310D01*
X020690Y019421D01*
X020690Y020030D01*
X020695Y020030D01*
X020970Y020305D01*
X020970Y020695D01*
X020695Y020970D01*
X020305Y020970D01*
X020030Y020695D01*
X020030Y020305D01*
X020305Y020030D01*
X020310Y020030D01*
X020310Y019579D01*
X020171Y019440D01*
X018459Y019440D01*
X018690Y019671D01*
X018690Y020030D01*
X018695Y020030D01*
X018970Y020305D01*
X018970Y020695D01*
X018695Y020970D01*
X018305Y020970D01*
X018030Y020695D01*
X018030Y020305D01*
X018305Y020030D01*
X018310Y020030D01*
X018310Y019829D01*
X018171Y019690D01*
X016171Y019690D01*
X015921Y019440D01*
X015810Y019329D01*
X015810Y019034D01*
X015674Y019170D01*
X015439Y019170D01*
X016090Y019821D01*
X016090Y020030D01*
X016095Y020030D01*
X016370Y020305D01*
X016370Y020695D01*
X016095Y020970D01*
X015705Y020970D01*
X015430Y020695D01*
X015430Y020305D01*
X015705Y020030D01*
X015710Y020030D01*
X015710Y019979D01*
X014921Y019190D01*
X014810Y019079D01*
X014810Y019034D01*
X014674Y019170D01*
X014326Y019170D01*
X014190Y019034D01*
X014190Y019579D01*
X014090Y019679D01*
X014090Y020030D01*
X014095Y020030D01*
X014370Y020305D01*
X014370Y020695D01*
X014095Y020970D01*
X013705Y020970D01*
X013430Y020695D01*
X013430Y020305D01*
X013705Y020030D01*
X013710Y020030D01*
X013710Y019521D01*
X013810Y019421D01*
X013810Y019034D01*
X013674Y019170D01*
X013326Y019170D01*
X013080Y018924D01*
X013080Y018576D01*
X013326Y018330D01*
X013674Y018330D01*
X013810Y018466D01*
X013810Y018329D01*
X013651Y018170D01*
X013326Y018170D01*
X013080Y017924D01*
X013080Y017576D01*
X013216Y017440D01*
X012784Y017440D01*
X012920Y017576D01*
X012920Y017924D01*
X012674Y018170D01*
X012349Y018170D01*
X012190Y018329D01*
X012190Y018466D01*
X012326Y018330D01*
X012674Y018330D01*
X012920Y018576D01*
X012920Y018924D01*
X012674Y019170D01*
X012326Y019170D01*
X012190Y019034D01*
X012190Y019329D01*
X012090Y019429D01*
X012090Y020030D01*
X012095Y020030D01*
X012370Y020305D01*
X012370Y020695D01*
X012095Y020970D01*
X011705Y020970D01*
X011430Y020695D01*
X011430Y020305D01*
X011705Y020030D01*
X011710Y020030D01*
X011710Y019271D01*
X011810Y019171D01*
X011810Y019034D01*
X011674Y019170D01*
X011326Y019170D01*
X011080Y018924D01*
X011080Y018576D01*
X011326Y018330D01*
X011401Y018330D01*
X011561Y018170D01*
X011326Y018170D01*
X011190Y018034D01*
X011190Y018329D01*
X011079Y018440D01*
X010920Y018599D01*
X010920Y018924D01*
X010674Y019170D01*
X010326Y019170D01*
X010080Y018924D01*
X010080Y018576D01*
X010326Y018330D01*
X010651Y018330D01*
X010810Y018171D01*
X010810Y018034D01*
X010674Y018170D01*
X010326Y018170D01*
X010190Y018034D01*
X010190Y018329D01*
X010079Y018440D01*
X009920Y018599D01*
X009920Y018924D01*
X009674Y019170D01*
X009326Y019170D01*
X009080Y018924D01*
X009080Y018576D01*
X009326Y018330D01*
X009651Y018330D01*
X009810Y018171D01*
X009810Y018034D01*
X009674Y018170D01*
X009326Y018170D01*
X009080Y017924D01*
X009080Y017576D01*
X009326Y017330D01*
X009674Y017330D01*
X009810Y017466D01*
X009810Y017171D01*
X010060Y016921D01*
X010171Y016810D01*
X011089Y016810D01*
X011068Y016789D01*
X010990Y016601D01*
X010990Y016399D01*
X011068Y016211D01*
X011211Y016068D01*
X011399Y015990D01*
X011601Y015990D01*
X011789Y016068D01*
X011932Y016211D01*
X012000Y016374D01*
X012068Y016211D01*
X012211Y016068D01*
X012399Y015990D01*
X012601Y015990D01*
X012789Y016068D01*
X012932Y016211D01*
X013000Y016374D01*
X013068Y016211D01*
X013211Y016068D01*
X013399Y015990D01*
X013601Y015990D01*
X013789Y016068D01*
X013932Y016211D01*
X014000Y016374D01*
X014068Y016211D01*
X014211Y016068D01*
X014399Y015990D01*
X014601Y015990D01*
X014789Y016068D01*
X014932Y016211D01*
X015000Y016374D01*
X015068Y016211D01*
X015211Y016068D01*
X015399Y015990D01*
X015601Y015990D01*
X015789Y016068D01*
X015932Y016211D01*
X016000Y016374D01*
X016068Y016211D01*
X016211Y016068D01*
X016399Y015990D01*
X016601Y015990D01*
X016789Y016068D01*
X016932Y016211D01*
X017000Y016374D01*
X017068Y016211D01*
X017211Y016068D01*
X017399Y015990D01*
X017601Y015990D01*
X017789Y016068D01*
X017932Y016211D01*
X018000Y016374D01*
X018068Y016211D01*
X018211Y016068D01*
X018399Y015990D01*
X018601Y015990D01*
X018789Y016068D01*
X018932Y016211D01*
X019000Y016374D01*
X019068Y016211D01*
X019211Y016068D01*
X019399Y015990D01*
X019601Y015990D01*
X019789Y016068D01*
X019932Y016211D01*
X020000Y016374D01*
X020068Y016211D01*
X020211Y016068D01*
X020399Y015990D01*
X020601Y015990D01*
X020789Y016068D01*
X020932Y016211D01*
X021000Y016374D01*
X021068Y016211D01*
X021211Y016068D01*
X021399Y015990D01*
X021601Y015990D01*
X021789Y016068D01*
X021932Y016211D01*
X022000Y016374D01*
X022068Y016211D01*
X022211Y016068D01*
X022399Y015990D01*
X022601Y015990D01*
X022789Y016068D01*
X022932Y016211D01*
X022990Y016350D02*
X026060Y016350D01*
X026060Y016509D02*
X023010Y016509D01*
X022983Y016667D02*
X026060Y016667D01*
X026060Y016826D02*
X022896Y016826D01*
X022664Y016984D02*
X025997Y016984D01*
X026218Y017301D02*
X026290Y017301D01*
X026290Y017460D02*
X024803Y017460D01*
X024920Y017618D02*
X026290Y017618D01*
X026290Y017777D02*
X024920Y017777D01*
X024909Y017935D02*
X026290Y017935D01*
X026290Y018094D02*
X024750Y018094D01*
X024754Y018411D02*
X026290Y018411D01*
X026290Y018569D02*
X024880Y018569D01*
X024920Y018728D02*
X026290Y018728D01*
X026290Y018886D02*
X024898Y018886D01*
X024799Y019045D02*
X026290Y019045D01*
X026290Y019203D02*
X024472Y019203D01*
X024579Y019310D02*
X024579Y019310D01*
X024630Y019362D02*
X026290Y019362D01*
X026290Y019520D02*
X024690Y019520D01*
X024690Y019679D02*
X026290Y019679D01*
X026290Y019837D02*
X024690Y019837D01*
X024690Y019996D02*
X026290Y019996D01*
X026290Y020154D02*
X025819Y020154D01*
X025695Y020030D02*
X025970Y020305D01*
X025970Y020695D01*
X025695Y020970D01*
X025305Y020970D01*
X025030Y020695D01*
X025030Y020305D01*
X025305Y020030D01*
X025695Y020030D01*
X025970Y020313D02*
X026290Y020313D01*
X026290Y020471D02*
X025970Y020471D01*
X025970Y020630D02*
X026290Y020630D01*
X026290Y020788D02*
X025877Y020788D01*
X025718Y020947D02*
X026256Y020947D01*
X026098Y021105D02*
X007710Y021105D01*
X007710Y021264D02*
X025939Y021264D01*
X025282Y020947D02*
X024718Y020947D01*
X024877Y020788D02*
X025123Y020788D01*
X025030Y020630D02*
X024970Y020630D01*
X024970Y020471D02*
X025030Y020471D01*
X025030Y020313D02*
X024970Y020313D01*
X024819Y020154D02*
X025181Y020154D01*
X024310Y019996D02*
X022690Y019996D01*
X022690Y019837D02*
X024310Y019837D01*
X024310Y019679D02*
X022690Y019679D01*
X022539Y019520D02*
X024251Y019520D01*
X024181Y020154D02*
X023819Y020154D01*
X023695Y020030D02*
X023970Y020305D01*
X023970Y020695D01*
X023695Y020970D01*
X023305Y020970D01*
X023030Y020695D01*
X023030Y020305D01*
X023305Y020030D01*
X023695Y020030D01*
X023970Y020313D02*
X024030Y020313D01*
X024030Y020471D02*
X023970Y020471D01*
X023970Y020630D02*
X024030Y020630D01*
X024123Y020788D02*
X023877Y020788D01*
X023718Y020947D02*
X024282Y020947D01*
X023282Y020947D02*
X022718Y020947D01*
X022877Y020788D02*
X023123Y020788D01*
X023030Y020630D02*
X022970Y020630D01*
X022970Y020471D02*
X023030Y020471D01*
X023030Y020313D02*
X022970Y020313D01*
X022819Y020154D02*
X023181Y020154D01*
X022310Y019996D02*
X020690Y019996D01*
X020690Y019837D02*
X022310Y019837D01*
X022181Y020154D02*
X021819Y020154D01*
X021695Y020030D02*
X021970Y020305D01*
X021970Y020695D01*
X021695Y020970D01*
X021305Y020970D01*
X021030Y020695D01*
X021030Y020305D01*
X021305Y020030D01*
X021695Y020030D01*
X021970Y020313D02*
X022030Y020313D01*
X022030Y020471D02*
X021970Y020471D01*
X021970Y020630D02*
X022030Y020630D01*
X022123Y020788D02*
X021877Y020788D01*
X021718Y020947D02*
X022282Y020947D01*
X021282Y020947D02*
X020718Y020947D01*
X020877Y020788D02*
X021123Y020788D01*
X021030Y020630D02*
X020970Y020630D01*
X020970Y020471D02*
X021030Y020471D01*
X021030Y020313D02*
X020970Y020313D01*
X020819Y020154D02*
X021181Y020154D01*
X021160Y019679D02*
X020690Y019679D01*
X020690Y019520D02*
X021001Y019520D01*
X020843Y019362D02*
X020630Y019362D01*
X020472Y019203D02*
X020810Y019203D01*
X020799Y019045D02*
X020810Y019045D01*
X020251Y019520D02*
X018539Y019520D01*
X018690Y019679D02*
X020310Y019679D01*
X020310Y019837D02*
X018690Y019837D01*
X018690Y019996D02*
X020310Y019996D01*
X020181Y020154D02*
X019819Y020154D01*
X019695Y020030D02*
X019970Y020305D01*
X019970Y020695D01*
X019695Y020970D01*
X019305Y020970D01*
X019030Y020695D01*
X019030Y020305D01*
X019305Y020030D01*
X019695Y020030D01*
X019970Y020313D02*
X020030Y020313D01*
X020030Y020471D02*
X019970Y020471D01*
X019970Y020630D02*
X020030Y020630D01*
X020123Y020788D02*
X019877Y020788D01*
X019718Y020947D02*
X020282Y020947D01*
X019282Y020947D02*
X018718Y020947D01*
X018877Y020788D02*
X019123Y020788D01*
X019030Y020630D02*
X018970Y020630D01*
X018970Y020471D02*
X019030Y020471D01*
X019030Y020313D02*
X018970Y020313D01*
X018819Y020154D02*
X019181Y020154D01*
X018310Y019996D02*
X016090Y019996D01*
X016090Y019837D02*
X018310Y019837D01*
X018181Y020154D02*
X017219Y020154D01*
X017095Y020030D02*
X017370Y020305D01*
X017370Y020695D01*
X017095Y020970D01*
X016705Y020970D01*
X016430Y020695D01*
X016430Y020305D01*
X016705Y020030D01*
X017095Y020030D01*
X017370Y020313D02*
X018030Y020313D01*
X018030Y020471D02*
X017370Y020471D01*
X017370Y020630D02*
X018030Y020630D01*
X018123Y020788D02*
X017277Y020788D01*
X017118Y020947D02*
X018282Y020947D01*
X016682Y020947D02*
X016118Y020947D01*
X016277Y020788D02*
X016523Y020788D01*
X016430Y020630D02*
X016370Y020630D01*
X016370Y020471D02*
X016430Y020471D01*
X016430Y020313D02*
X016370Y020313D01*
X016219Y020154D02*
X016581Y020154D01*
X016160Y019679D02*
X015947Y019679D01*
X016001Y019520D02*
X015789Y019520D01*
X015843Y019362D02*
X015630Y019362D01*
X015472Y019203D02*
X015810Y019203D01*
X015799Y019045D02*
X015810Y019045D01*
X015251Y019520D02*
X014190Y019520D01*
X014190Y019362D02*
X015093Y019362D01*
X014934Y019203D02*
X014190Y019203D01*
X014190Y019045D02*
X014201Y019045D01*
X013810Y019045D02*
X013799Y019045D01*
X013810Y019203D02*
X012190Y019203D01*
X012190Y019045D02*
X012201Y019045D01*
X012157Y019362D02*
X013810Y019362D01*
X013711Y019520D02*
X012090Y019520D01*
X012090Y019679D02*
X013710Y019679D01*
X013710Y019837D02*
X012090Y019837D01*
X012090Y019996D02*
X013710Y019996D01*
X013581Y020154D02*
X013219Y020154D01*
X013095Y020030D02*
X013370Y020305D01*
X013370Y020695D01*
X013095Y020970D01*
X012705Y020970D01*
X012430Y020695D01*
X012430Y020305D01*
X012705Y020030D01*
X013095Y020030D01*
X013370Y020313D02*
X013430Y020313D01*
X013430Y020471D02*
X013370Y020471D01*
X013370Y020630D02*
X013430Y020630D01*
X013523Y020788D02*
X013277Y020788D01*
X013118Y020947D02*
X013682Y020947D01*
X014118Y020947D02*
X014682Y020947D01*
X014705Y020970D02*
X014430Y020695D01*
X014430Y020305D01*
X014705Y020030D01*
X015095Y020030D01*
X015370Y020305D01*
X015370Y020695D01*
X015095Y020970D01*
X014705Y020970D01*
X014523Y020788D02*
X014277Y020788D01*
X014370Y020630D02*
X014430Y020630D01*
X014430Y020471D02*
X014370Y020471D01*
X014370Y020313D02*
X014430Y020313D01*
X014581Y020154D02*
X014219Y020154D01*
X014090Y019996D02*
X015710Y019996D01*
X015581Y020154D02*
X015219Y020154D01*
X015370Y020313D02*
X015430Y020313D01*
X015430Y020471D02*
X015370Y020471D01*
X015370Y020630D02*
X015430Y020630D01*
X015523Y020788D02*
X015277Y020788D01*
X015118Y020947D02*
X015682Y020947D01*
X015568Y019837D02*
X014090Y019837D01*
X014090Y019679D02*
X015410Y019679D01*
X014810Y019045D02*
X014799Y019045D01*
X013810Y018411D02*
X013754Y018411D01*
X013733Y018252D02*
X012267Y018252D01*
X012246Y018411D02*
X012190Y018411D01*
X012754Y018411D02*
X013246Y018411D01*
X013087Y018569D02*
X012913Y018569D01*
X012920Y018728D02*
X013080Y018728D01*
X013080Y018886D02*
X012920Y018886D01*
X012799Y019045D02*
X013201Y019045D01*
X013250Y018094D02*
X012750Y018094D01*
X012909Y017935D02*
X013091Y017935D01*
X013080Y017777D02*
X012920Y017777D01*
X012920Y017618D02*
X013080Y017618D01*
X013197Y017460D02*
X012803Y017460D01*
X012990Y016350D02*
X013010Y016350D01*
X013087Y016192D02*
X012913Y016192D01*
X012705Y016033D02*
X013295Y016033D01*
X013705Y016033D02*
X014295Y016033D01*
X014087Y016192D02*
X013913Y016192D01*
X013990Y016350D02*
X014010Y016350D01*
X014705Y016033D02*
X015295Y016033D01*
X015087Y016192D02*
X014913Y016192D01*
X014990Y016350D02*
X015010Y016350D01*
X015705Y016033D02*
X016295Y016033D01*
X016087Y016192D02*
X015913Y016192D01*
X015990Y016350D02*
X016010Y016350D01*
X016705Y016033D02*
X017295Y016033D01*
X017087Y016192D02*
X016913Y016192D01*
X016990Y016350D02*
X017010Y016350D01*
X017705Y016033D02*
X018295Y016033D01*
X018087Y016192D02*
X017913Y016192D01*
X017990Y016350D02*
X018010Y016350D01*
X018705Y016033D02*
X019295Y016033D01*
X019087Y016192D02*
X018913Y016192D01*
X018990Y016350D02*
X019010Y016350D01*
X019705Y016033D02*
X020295Y016033D01*
X020087Y016192D02*
X019913Y016192D01*
X019990Y016350D02*
X020010Y016350D01*
X020705Y016033D02*
X021295Y016033D01*
X021087Y016192D02*
X020913Y016192D01*
X020990Y016350D02*
X021010Y016350D01*
X021705Y016033D02*
X022295Y016033D01*
X022087Y016192D02*
X021913Y016192D01*
X021990Y016350D02*
X022010Y016350D01*
X022285Y016984D02*
X022336Y016984D01*
X022126Y017143D02*
X022589Y017143D01*
X022430Y017301D02*
X020468Y017301D01*
X020803Y017460D02*
X021197Y017460D01*
X021080Y017618D02*
X020920Y017618D01*
X020920Y017777D02*
X021080Y017777D01*
X021091Y017935D02*
X020954Y017935D01*
X021112Y018094D02*
X021250Y018094D01*
X021190Y018252D02*
X021733Y018252D01*
X021754Y018411D02*
X021810Y018411D01*
X022112Y018094D02*
X022250Y018094D01*
X022190Y018252D02*
X026290Y018252D01*
X024250Y018094D02*
X023750Y018094D01*
X023909Y017935D02*
X024091Y017935D01*
X024080Y017777D02*
X023920Y017777D01*
X023920Y017618D02*
X024080Y017618D01*
X024197Y017460D02*
X023803Y017460D01*
X023197Y017460D02*
X022809Y017460D01*
X022920Y017618D02*
X023080Y017618D01*
X023080Y017777D02*
X022920Y017777D01*
X022909Y017935D02*
X023091Y017935D01*
X023250Y018094D02*
X022750Y018094D01*
X022754Y018411D02*
X023246Y018411D01*
X023087Y018569D02*
X022913Y018569D01*
X022920Y018728D02*
X023080Y018728D01*
X023080Y018886D02*
X022920Y018886D01*
X022799Y019045D02*
X023201Y019045D01*
X023799Y019045D02*
X024201Y019045D01*
X024102Y018886D02*
X023920Y018886D01*
X023920Y018728D02*
X024080Y018728D01*
X024120Y018569D02*
X023913Y018569D01*
X023754Y018411D02*
X024246Y018411D01*
X022246Y018411D02*
X022190Y018411D01*
X022091Y017935D02*
X021954Y017935D01*
X021920Y017777D02*
X022080Y017777D01*
X022080Y017618D02*
X021920Y017618D01*
X021803Y017460D02*
X022197Y017460D01*
X021246Y018411D02*
X021190Y018411D01*
X022705Y016033D02*
X026060Y016033D01*
X026060Y015875D02*
X007710Y015875D01*
X007710Y016033D02*
X011295Y016033D01*
X011087Y016192D02*
X007710Y016192D01*
X007710Y016350D02*
X011010Y016350D01*
X010990Y016509D02*
X007710Y016509D01*
X007710Y016667D02*
X011017Y016667D01*
X010156Y016826D02*
X007710Y016826D01*
X007710Y016984D02*
X009997Y016984D01*
X009839Y017143D02*
X007710Y017143D01*
X007710Y017301D02*
X009810Y017301D01*
X009803Y017460D02*
X009810Y017460D01*
X009197Y017460D02*
X007710Y017460D01*
X007710Y017618D02*
X009080Y017618D01*
X009080Y017777D02*
X007710Y017777D01*
X007710Y017935D02*
X009091Y017935D01*
X009250Y018094D02*
X007710Y018094D01*
X007710Y018252D02*
X009729Y018252D01*
X009750Y018094D02*
X009810Y018094D01*
X010190Y018094D02*
X010250Y018094D01*
X010190Y018252D02*
X010729Y018252D01*
X010750Y018094D02*
X010810Y018094D01*
X011190Y018094D02*
X011250Y018094D01*
X011190Y018252D02*
X011479Y018252D01*
X011246Y018411D02*
X011108Y018411D01*
X011087Y018569D02*
X010950Y018569D01*
X010920Y018728D02*
X011080Y018728D01*
X011080Y018886D02*
X010920Y018886D01*
X010799Y019045D02*
X011201Y019045D01*
X011799Y019045D02*
X011810Y019045D01*
X011778Y019203D02*
X007710Y019203D01*
X007710Y019045D02*
X009201Y019045D01*
X009080Y018886D02*
X007710Y018886D01*
X007710Y018728D02*
X009080Y018728D01*
X009087Y018569D02*
X007710Y018569D01*
X007710Y018411D02*
X009246Y018411D01*
X009950Y018569D02*
X010087Y018569D01*
X010080Y018728D02*
X009920Y018728D01*
X009920Y018886D02*
X010080Y018886D01*
X010201Y019045D02*
X009799Y019045D01*
X010108Y018411D02*
X010246Y018411D01*
X011710Y019362D02*
X007710Y019362D01*
X007710Y019520D02*
X011710Y019520D01*
X011710Y019679D02*
X007710Y019679D01*
X007710Y019837D02*
X011710Y019837D01*
X011710Y019996D02*
X011117Y019996D01*
X011111Y019990D02*
X011410Y020289D01*
X011410Y020482D01*
X010918Y020482D01*
X010918Y020518D01*
X011410Y020518D01*
X011410Y020711D01*
X011111Y021010D01*
X010918Y021010D01*
X010918Y020518D01*
X010882Y020518D01*
X010882Y020482D01*
X010918Y020482D01*
X010918Y019990D01*
X011111Y019990D01*
X010918Y019996D02*
X010882Y019996D01*
X010882Y019990D02*
X010882Y020482D01*
X010390Y020482D01*
X010390Y020289D01*
X010689Y019990D01*
X010882Y019990D01*
X010882Y020154D02*
X010918Y020154D01*
X010918Y020313D02*
X010882Y020313D01*
X010882Y020471D02*
X010918Y020471D01*
X010882Y020518D02*
X010390Y020518D01*
X010390Y020711D01*
X010689Y021010D01*
X010882Y021010D01*
X010882Y020518D01*
X010882Y020630D02*
X010918Y020630D01*
X010918Y020788D02*
X010882Y020788D01*
X010882Y020947D02*
X010918Y020947D01*
X011175Y020947D02*
X011682Y020947D01*
X011523Y020788D02*
X011333Y020788D01*
X011410Y020630D02*
X011430Y020630D01*
X011430Y020471D02*
X011410Y020471D01*
X011410Y020313D02*
X011430Y020313D01*
X011581Y020154D02*
X011275Y020154D01*
X010683Y019996D02*
X007710Y019996D01*
X008219Y020154D02*
X008581Y020154D01*
X008705Y020030D02*
X009095Y020030D01*
X009370Y020305D01*
X009370Y020695D01*
X009095Y020970D01*
X008705Y020970D01*
X008430Y020695D01*
X008430Y020305D01*
X008705Y020030D01*
X008430Y020313D02*
X008370Y020313D01*
X008370Y020471D02*
X008430Y020471D01*
X008430Y020630D02*
X008370Y020630D01*
X008277Y020788D02*
X008523Y020788D01*
X008682Y020947D02*
X008118Y020947D01*
X009118Y020947D02*
X009682Y020947D01*
X009705Y020970D02*
X009430Y020695D01*
X009430Y020305D01*
X009705Y020030D01*
X010095Y020030D01*
X010370Y020305D01*
X010370Y020695D01*
X010095Y020970D01*
X009705Y020970D01*
X009523Y020788D02*
X009277Y020788D01*
X009370Y020630D02*
X009430Y020630D01*
X009430Y020471D02*
X009370Y020471D01*
X009370Y020313D02*
X009430Y020313D01*
X009581Y020154D02*
X009219Y020154D01*
X010219Y020154D02*
X010525Y020154D01*
X010390Y020313D02*
X010370Y020313D01*
X010370Y020471D02*
X010390Y020471D01*
X010390Y020630D02*
X010370Y020630D01*
X010277Y020788D02*
X010467Y020788D01*
X010625Y020947D02*
X010118Y020947D01*
X012118Y020947D02*
X012682Y020947D01*
X012523Y020788D02*
X012277Y020788D01*
X012370Y020630D02*
X012430Y020630D01*
X012430Y020471D02*
X012370Y020471D01*
X012370Y020313D02*
X012430Y020313D01*
X012581Y020154D02*
X012219Y020154D01*
X012010Y016350D02*
X011990Y016350D01*
X011913Y016192D02*
X012087Y016192D01*
X012295Y016033D02*
X011705Y016033D01*
X011883Y014965D02*
X011117Y014965D01*
X011035Y014883D01*
X011035Y014117D01*
X011117Y014035D01*
X011883Y014035D01*
X011965Y014117D01*
X011965Y014883D01*
X011883Y014965D01*
X011924Y014924D02*
X012076Y014924D01*
X012117Y014965D02*
X012035Y014883D01*
X012035Y014117D01*
X012117Y014035D01*
X012883Y014035D01*
X012965Y014117D01*
X012965Y014883D01*
X012883Y014965D01*
X012117Y014965D01*
X012035Y014765D02*
X011965Y014765D01*
X011965Y014607D02*
X012035Y014607D01*
X012035Y014448D02*
X011965Y014448D01*
X011965Y014290D02*
X012035Y014290D01*
X012035Y014131D02*
X011965Y014131D01*
X011883Y013965D02*
X011117Y013965D01*
X011035Y013883D01*
X011035Y013117D01*
X011117Y013035D01*
X011883Y013035D01*
X011965Y013117D01*
X011965Y013883D01*
X011883Y013965D01*
X011965Y013814D02*
X012035Y013814D01*
X012035Y013883D02*
X012035Y013117D01*
X012117Y013035D01*
X012883Y013035D01*
X012965Y013117D01*
X012965Y013883D01*
X012883Y013965D01*
X012117Y013965D01*
X012035Y013883D01*
X012035Y013656D02*
X011965Y013656D01*
X011965Y013497D02*
X012035Y013497D01*
X012035Y013339D02*
X011965Y013339D01*
X011965Y013180D02*
X012035Y013180D01*
X012117Y012965D02*
X012035Y012883D01*
X012035Y012117D01*
X012117Y012035D01*
X012883Y012035D01*
X012965Y012117D01*
X012965Y012883D01*
X012883Y012965D01*
X012117Y012965D01*
X012035Y012863D02*
X011965Y012863D01*
X011965Y012883D02*
X011883Y012965D01*
X011117Y012965D01*
X011035Y012883D01*
X011035Y012117D01*
X011117Y012035D01*
X011883Y012035D01*
X011965Y012117D01*
X011965Y012883D01*
X011965Y012705D02*
X012035Y012705D01*
X012035Y012546D02*
X011965Y012546D01*
X011965Y012388D02*
X012035Y012388D01*
X012035Y012229D02*
X011965Y012229D01*
X011919Y012071D02*
X012081Y012071D01*
X012117Y011965D02*
X012035Y011883D01*
X012035Y011117D01*
X012117Y011035D01*
X012883Y011035D01*
X012965Y011117D01*
X012965Y011883D01*
X012883Y011965D01*
X012117Y011965D01*
X012064Y011912D02*
X011936Y011912D01*
X011965Y011883D02*
X011883Y011965D01*
X011117Y011965D01*
X011035Y011883D01*
X011035Y011117D01*
X011117Y011035D01*
X011883Y011035D01*
X011965Y011117D01*
X011965Y011883D01*
X011965Y011754D02*
X012035Y011754D01*
X012035Y011595D02*
X011965Y011595D01*
X011965Y011437D02*
X012035Y011437D01*
X012035Y011278D02*
X011965Y011278D01*
X011965Y011120D02*
X012035Y011120D01*
X012117Y010965D02*
X012035Y010883D01*
X012035Y010117D01*
X012117Y010035D01*
X012883Y010035D01*
X012965Y010117D01*
X012965Y010883D01*
X012883Y010965D01*
X012117Y010965D01*
X012113Y010961D02*
X011887Y010961D01*
X011883Y010965D02*
X011117Y010965D01*
X011035Y010883D01*
X011035Y010117D01*
X011117Y010035D01*
X011883Y010035D01*
X011965Y010117D01*
X011965Y010883D01*
X011883Y010965D01*
X011965Y010803D02*
X012035Y010803D01*
X012035Y010644D02*
X011965Y010644D01*
X011965Y010486D02*
X012035Y010486D01*
X012035Y010327D02*
X011965Y010327D01*
X011965Y010169D02*
X012035Y010169D01*
X012117Y009965D02*
X012035Y009883D01*
X012035Y009117D01*
X012117Y009035D01*
X012883Y009035D01*
X012965Y009117D01*
X012965Y009883D01*
X012883Y009965D01*
X012117Y009965D01*
X012035Y009852D02*
X011965Y009852D01*
X011965Y009883D02*
X011883Y009965D01*
X011117Y009965D01*
X011035Y009883D01*
X011035Y009117D01*
X011117Y009035D01*
X011883Y009035D01*
X011965Y009117D01*
X011965Y009883D01*
X011965Y009693D02*
X012035Y009693D01*
X012035Y009535D02*
X011965Y009535D01*
X011965Y009376D02*
X012035Y009376D01*
X012035Y009218D02*
X011965Y009218D01*
X011907Y009059D02*
X012093Y009059D01*
X012117Y008965D02*
X012035Y008883D01*
X012035Y008117D01*
X012117Y008035D01*
X012883Y008035D01*
X012965Y008117D01*
X012965Y008883D01*
X012883Y008965D01*
X012117Y008965D01*
X012053Y008901D02*
X011947Y008901D01*
X011965Y008883D02*
X011883Y008965D01*
X011117Y008965D01*
X011035Y008883D01*
X011035Y008117D01*
X011117Y008035D01*
X011883Y008035D01*
X011965Y008117D01*
X011965Y008883D01*
X011965Y008742D02*
X012035Y008742D01*
X012035Y008584D02*
X011965Y008584D01*
X011965Y008425D02*
X012035Y008425D01*
X012035Y008267D02*
X011965Y008267D01*
X011956Y008108D02*
X012044Y008108D01*
X012117Y007965D02*
X012035Y007883D01*
X012035Y007117D01*
X012117Y007035D01*
X012883Y007035D01*
X012965Y007117D01*
X012965Y007883D01*
X012883Y007965D01*
X012117Y007965D01*
X012102Y007950D02*
X011898Y007950D01*
X011883Y007965D02*
X011117Y007965D01*
X011035Y007883D01*
X011035Y007117D01*
X011117Y007035D01*
X011883Y007035D01*
X011965Y007117D01*
X011965Y007883D01*
X011883Y007965D01*
X011965Y007791D02*
X012035Y007791D01*
X012035Y007633D02*
X011965Y007633D01*
X011965Y007474D02*
X012035Y007474D01*
X012035Y007316D02*
X011965Y007316D01*
X011965Y007157D02*
X012035Y007157D01*
X012117Y006965D02*
X012035Y006883D01*
X012035Y006117D01*
X012117Y006035D01*
X012883Y006035D01*
X012965Y006117D01*
X012965Y006883D01*
X012883Y006965D01*
X012117Y006965D01*
X012035Y006840D02*
X011965Y006840D01*
X011965Y006883D02*
X011883Y006965D01*
X011117Y006965D01*
X011035Y006883D01*
X011035Y006117D01*
X011117Y006035D01*
X011883Y006035D01*
X011965Y006117D01*
X011965Y006883D01*
X011965Y006682D02*
X012035Y006682D01*
X012035Y006523D02*
X011965Y006523D01*
X011965Y006365D02*
X012035Y006365D01*
X012035Y006206D02*
X011965Y006206D01*
X011895Y006048D02*
X012105Y006048D01*
X012895Y006048D02*
X013105Y006048D01*
X013117Y006035D02*
X013883Y006035D01*
X013965Y006117D01*
X013965Y006883D01*
X013883Y006965D01*
X013117Y006965D01*
X013035Y006883D01*
X013035Y006117D01*
X013117Y006035D01*
X013035Y006206D02*
X012965Y006206D01*
X012965Y006365D02*
X013035Y006365D01*
X013035Y006523D02*
X012965Y006523D01*
X012965Y006682D02*
X013035Y006682D01*
X013035Y006840D02*
X012965Y006840D01*
X013117Y007035D02*
X013883Y007035D01*
X013965Y007117D01*
X013965Y007883D01*
X013883Y007965D01*
X013117Y007965D01*
X013035Y007883D01*
X013035Y007117D01*
X013117Y007035D01*
X013035Y007157D02*
X012965Y007157D01*
X012965Y007316D02*
X013035Y007316D01*
X013035Y007474D02*
X012965Y007474D01*
X012965Y007633D02*
X013035Y007633D01*
X013035Y007791D02*
X012965Y007791D01*
X012898Y007950D02*
X013102Y007950D01*
X013117Y008035D02*
X013883Y008035D01*
X013965Y008117D01*
X013965Y008883D01*
X013883Y008965D01*
X013117Y008965D01*
X013035Y008883D01*
X013035Y008117D01*
X013117Y008035D01*
X013044Y008108D02*
X012956Y008108D01*
X012965Y008267D02*
X013035Y008267D01*
X013035Y008425D02*
X012965Y008425D01*
X012965Y008584D02*
X013035Y008584D01*
X013035Y008742D02*
X012965Y008742D01*
X012947Y008901D02*
X013053Y008901D01*
X013117Y009035D02*
X013883Y009035D01*
X013965Y009117D01*
X013965Y009883D01*
X013883Y009965D01*
X013117Y009965D01*
X013035Y009883D01*
X013035Y009117D01*
X013117Y009035D01*
X013093Y009059D02*
X012907Y009059D01*
X012965Y009218D02*
X013035Y009218D01*
X013035Y009376D02*
X012965Y009376D01*
X012965Y009535D02*
X013035Y009535D01*
X013035Y009693D02*
X012965Y009693D01*
X012965Y009852D02*
X013035Y009852D01*
X013117Y010035D02*
X013883Y010035D01*
X013965Y010117D01*
X013965Y010883D01*
X013883Y010965D01*
X013117Y010965D01*
X013035Y010883D01*
X013035Y010117D01*
X013117Y010035D01*
X013035Y010169D02*
X012965Y010169D01*
X012965Y010327D02*
X013035Y010327D01*
X013035Y010486D02*
X012965Y010486D01*
X012965Y010644D02*
X013035Y010644D01*
X013035Y010803D02*
X012965Y010803D01*
X012887Y010961D02*
X013113Y010961D01*
X013117Y011035D02*
X013883Y011035D01*
X013965Y011117D01*
X013965Y011883D01*
X013883Y011965D01*
X013117Y011965D01*
X013035Y011883D01*
X013035Y011117D01*
X013117Y011035D01*
X013035Y011120D02*
X012965Y011120D01*
X012965Y011278D02*
X013035Y011278D01*
X013035Y011437D02*
X012965Y011437D01*
X012965Y011595D02*
X013035Y011595D01*
X013035Y011754D02*
X012965Y011754D01*
X012936Y011912D02*
X013064Y011912D01*
X013117Y012035D02*
X013883Y012035D01*
X013965Y012117D01*
X013965Y012883D01*
X013883Y012965D01*
X013117Y012965D01*
X013035Y012883D01*
X013035Y012117D01*
X013117Y012035D01*
X013081Y012071D02*
X012919Y012071D01*
X012965Y012229D02*
X013035Y012229D01*
X013035Y012388D02*
X012965Y012388D01*
X012965Y012546D02*
X013035Y012546D01*
X013035Y012705D02*
X012965Y012705D01*
X012965Y012863D02*
X013035Y012863D01*
X013117Y013035D02*
X013883Y013035D01*
X013965Y013117D01*
X013965Y013883D01*
X013883Y013965D01*
X013117Y013965D01*
X013035Y013883D01*
X013035Y013117D01*
X013117Y013035D01*
X013035Y013180D02*
X012965Y013180D01*
X012965Y013339D02*
X013035Y013339D01*
X013035Y013497D02*
X012965Y013497D01*
X012965Y013656D02*
X013035Y013656D01*
X013035Y013814D02*
X012965Y013814D01*
X013117Y014035D02*
X013883Y014035D01*
X013965Y014117D01*
X013965Y014883D01*
X013883Y014965D01*
X013117Y014965D01*
X013035Y014883D01*
X013035Y014117D01*
X013117Y014035D01*
X013035Y014131D02*
X012965Y014131D01*
X012965Y014290D02*
X013035Y014290D01*
X013035Y014448D02*
X012965Y014448D01*
X012965Y014607D02*
X013035Y014607D01*
X013035Y014765D02*
X012965Y014765D01*
X012924Y014924D02*
X013076Y014924D01*
X013924Y014924D02*
X014076Y014924D01*
X014117Y014965D02*
X014035Y014883D01*
X014035Y014117D01*
X014117Y014035D01*
X014883Y014035D01*
X014965Y014117D01*
X014965Y014883D01*
X014883Y014965D01*
X014117Y014965D01*
X014035Y014765D02*
X013965Y014765D01*
X013965Y014607D02*
X014035Y014607D01*
X014035Y014448D02*
X013965Y014448D01*
X013965Y014290D02*
X014035Y014290D01*
X014035Y014131D02*
X013965Y014131D01*
X014117Y013965D02*
X014035Y013883D01*
X014035Y013117D01*
X014117Y013035D01*
X014883Y013035D01*
X014965Y013117D01*
X014965Y013883D01*
X014883Y013965D01*
X014117Y013965D01*
X014035Y013814D02*
X013965Y013814D01*
X013965Y013656D02*
X014035Y013656D01*
X014035Y013497D02*
X013965Y013497D01*
X013965Y013339D02*
X014035Y013339D01*
X014035Y013180D02*
X013965Y013180D01*
X014117Y012965D02*
X014035Y012883D01*
X014035Y012117D01*
X014117Y012035D01*
X014883Y012035D01*
X014965Y012117D01*
X014965Y012883D01*
X014883Y012965D01*
X014117Y012965D01*
X014035Y012863D02*
X013965Y012863D01*
X013965Y012705D02*
X014035Y012705D01*
X014035Y012546D02*
X013965Y012546D01*
X013965Y012388D02*
X014035Y012388D01*
X014035Y012229D02*
X013965Y012229D01*
X013919Y012071D02*
X014081Y012071D01*
X014117Y011965D02*
X014035Y011883D01*
X014035Y011117D01*
X014117Y011035D01*
X014883Y011035D01*
X014965Y011117D01*
X014965Y011883D01*
X014883Y011965D01*
X014117Y011965D01*
X014064Y011912D02*
X013936Y011912D01*
X013965Y011754D02*
X014035Y011754D01*
X014035Y011595D02*
X013965Y011595D01*
X013965Y011437D02*
X014035Y011437D01*
X014035Y011278D02*
X013965Y011278D01*
X013965Y011120D02*
X014035Y011120D01*
X014117Y010965D02*
X014035Y010883D01*
X014035Y010117D01*
X014117Y010035D01*
X014883Y010035D01*
X014965Y010117D01*
X014965Y010883D01*
X014883Y010965D01*
X014117Y010965D01*
X014113Y010961D02*
X013887Y010961D01*
X013965Y010803D02*
X014035Y010803D01*
X014035Y010644D02*
X013965Y010644D01*
X013965Y010486D02*
X014035Y010486D01*
X014035Y010327D02*
X013965Y010327D01*
X013965Y010169D02*
X014035Y010169D01*
X014117Y009965D02*
X014035Y009883D01*
X014035Y009117D01*
X014117Y009035D01*
X014883Y009035D01*
X014965Y009117D01*
X014965Y009883D01*
X014883Y009965D01*
X014117Y009965D01*
X014035Y009852D02*
X013965Y009852D01*
X013965Y009693D02*
X014035Y009693D01*
X014035Y009535D02*
X013965Y009535D01*
X013965Y009376D02*
X014035Y009376D01*
X014035Y009218D02*
X013965Y009218D01*
X013907Y009059D02*
X014093Y009059D01*
X014117Y008965D02*
X014035Y008883D01*
X014035Y008117D01*
X014117Y008035D01*
X014883Y008035D01*
X014965Y008117D01*
X014965Y008883D01*
X014883Y008965D01*
X014117Y008965D01*
X014053Y008901D02*
X013947Y008901D01*
X013965Y008742D02*
X014035Y008742D01*
X014035Y008584D02*
X013965Y008584D01*
X013965Y008425D02*
X014035Y008425D01*
X014035Y008267D02*
X013965Y008267D01*
X013956Y008108D02*
X014044Y008108D01*
X014117Y007965D02*
X014035Y007883D01*
X014035Y007117D01*
X014117Y007035D01*
X014883Y007035D01*
X014965Y007117D01*
X014965Y007883D01*
X014883Y007965D01*
X014117Y007965D01*
X014102Y007950D02*
X013898Y007950D01*
X013965Y007791D02*
X014035Y007791D01*
X014035Y007633D02*
X013965Y007633D01*
X013965Y007474D02*
X014035Y007474D01*
X014035Y007316D02*
X013965Y007316D01*
X013965Y007157D02*
X014035Y007157D01*
X014117Y006965D02*
X014035Y006883D01*
X014035Y006117D01*
X014117Y006035D01*
X014883Y006035D01*
X014965Y006117D01*
X014965Y006883D01*
X014883Y006965D01*
X014117Y006965D01*
X014035Y006840D02*
X013965Y006840D01*
X013965Y006682D02*
X014035Y006682D01*
X014035Y006523D02*
X013965Y006523D01*
X013965Y006365D02*
X014035Y006365D01*
X014035Y006206D02*
X013965Y006206D01*
X013895Y006048D02*
X014105Y006048D01*
X014895Y006048D02*
X015105Y006048D01*
X015117Y006035D02*
X015883Y006035D01*
X015965Y006117D01*
X015965Y006883D01*
X015883Y006965D01*
X015117Y006965D01*
X015035Y006883D01*
X015035Y006117D01*
X015117Y006035D01*
X015035Y006206D02*
X014965Y006206D01*
X014965Y006365D02*
X015035Y006365D01*
X015035Y006523D02*
X014965Y006523D01*
X014965Y006682D02*
X015035Y006682D01*
X015035Y006840D02*
X014965Y006840D01*
X015117Y007035D02*
X015883Y007035D01*
X015965Y007117D01*
X015965Y007883D01*
X015883Y007965D01*
X015117Y007965D01*
X015035Y007883D01*
X015035Y007117D01*
X015117Y007035D01*
X015035Y007157D02*
X014965Y007157D01*
X014965Y007316D02*
X015035Y007316D01*
X015035Y007474D02*
X014965Y007474D01*
X014965Y007633D02*
X015035Y007633D01*
X015035Y007791D02*
X014965Y007791D01*
X014898Y007950D02*
X015102Y007950D01*
X015117Y008035D02*
X015883Y008035D01*
X015965Y008117D01*
X015965Y008883D01*
X015883Y008965D01*
X015117Y008965D01*
X015035Y008883D01*
X015035Y008117D01*
X015117Y008035D01*
X015044Y008108D02*
X014956Y008108D01*
X014965Y008267D02*
X015035Y008267D01*
X015035Y008425D02*
X014965Y008425D01*
X014965Y008584D02*
X015035Y008584D01*
X015035Y008742D02*
X014965Y008742D01*
X014947Y008901D02*
X015053Y008901D01*
X015117Y009035D02*
X015883Y009035D01*
X015965Y009117D01*
X015965Y009883D01*
X015883Y009965D01*
X015117Y009965D01*
X015035Y009883D01*
X015035Y009117D01*
X015117Y009035D01*
X015093Y009059D02*
X014907Y009059D01*
X014965Y009218D02*
X015035Y009218D01*
X015035Y009376D02*
X014965Y009376D01*
X014965Y009535D02*
X015035Y009535D01*
X015035Y009693D02*
X014965Y009693D01*
X014965Y009852D02*
X015035Y009852D01*
X015117Y010035D02*
X015883Y010035D01*
X015965Y010117D01*
X015965Y010883D01*
X015883Y010965D01*
X015117Y010965D01*
X015035Y010883D01*
X015035Y010117D01*
X015117Y010035D01*
X015035Y010169D02*
X014965Y010169D01*
X014965Y010327D02*
X015035Y010327D01*
X015035Y010486D02*
X014965Y010486D01*
X014965Y010644D02*
X015035Y010644D01*
X015035Y010803D02*
X014965Y010803D01*
X014887Y010961D02*
X015113Y010961D01*
X015117Y011035D02*
X015883Y011035D01*
X015965Y011117D01*
X015965Y011883D01*
X015883Y011965D01*
X015117Y011965D01*
X015035Y011883D01*
X015035Y011117D01*
X015117Y011035D01*
X015035Y011120D02*
X014965Y011120D01*
X014965Y011278D02*
X015035Y011278D01*
X015035Y011437D02*
X014965Y011437D01*
X014965Y011595D02*
X015035Y011595D01*
X015035Y011754D02*
X014965Y011754D01*
X014936Y011912D02*
X015064Y011912D01*
X015117Y012035D02*
X015883Y012035D01*
X015965Y012117D01*
X015965Y012883D01*
X015883Y012965D01*
X015117Y012965D01*
X015035Y012883D01*
X015035Y012117D01*
X015117Y012035D01*
X015081Y012071D02*
X014919Y012071D01*
X014965Y012229D02*
X015035Y012229D01*
X015035Y012388D02*
X014965Y012388D01*
X014965Y012546D02*
X015035Y012546D01*
X015035Y012705D02*
X014965Y012705D01*
X014965Y012863D02*
X015035Y012863D01*
X015117Y013035D02*
X015883Y013035D01*
X015965Y013117D01*
X015965Y013883D01*
X015883Y013965D01*
X015117Y013965D01*
X015035Y013883D01*
X015035Y013117D01*
X015117Y013035D01*
X015035Y013180D02*
X014965Y013180D01*
X014965Y013339D02*
X015035Y013339D01*
X015035Y013497D02*
X014965Y013497D01*
X014965Y013656D02*
X015035Y013656D01*
X015035Y013814D02*
X014965Y013814D01*
X015117Y014035D02*
X015883Y014035D01*
X015965Y014117D01*
X015965Y014883D01*
X015883Y014965D01*
X015117Y014965D01*
X015035Y014883D01*
X015035Y014117D01*
X015117Y014035D01*
X015035Y014131D02*
X014965Y014131D01*
X014965Y014290D02*
X015035Y014290D01*
X015035Y014448D02*
X014965Y014448D01*
X014965Y014607D02*
X015035Y014607D01*
X015035Y014765D02*
X014965Y014765D01*
X014924Y014924D02*
X015076Y014924D01*
X015924Y014924D02*
X016076Y014924D01*
X016117Y014965D02*
X016035Y014883D01*
X016035Y014117D01*
X016117Y014035D01*
X016883Y014035D01*
X016965Y014117D01*
X016965Y014883D01*
X016883Y014965D01*
X016117Y014965D01*
X016035Y014765D02*
X015965Y014765D01*
X015965Y014607D02*
X016035Y014607D01*
X016035Y014448D02*
X015965Y014448D01*
X015965Y014290D02*
X016035Y014290D01*
X016035Y014131D02*
X015965Y014131D01*
X016117Y013965D02*
X016035Y013883D01*
X016035Y013117D01*
X016117Y013035D01*
X016883Y013035D01*
X016965Y013117D01*
X016965Y013883D01*
X016883Y013965D01*
X016117Y013965D01*
X016035Y013814D02*
X015965Y013814D01*
X015965Y013656D02*
X016035Y013656D01*
X016035Y013497D02*
X015965Y013497D01*
X015965Y013339D02*
X016035Y013339D01*
X016035Y013180D02*
X015965Y013180D01*
X016117Y012965D02*
X016035Y012883D01*
X016035Y012117D01*
X016117Y012035D01*
X016883Y012035D01*
X016965Y012117D01*
X016965Y012883D01*
X016883Y012965D01*
X016117Y012965D01*
X016035Y012863D02*
X015965Y012863D01*
X015965Y012705D02*
X016035Y012705D01*
X016035Y012546D02*
X015965Y012546D01*
X015965Y012388D02*
X016035Y012388D01*
X016035Y012229D02*
X015965Y012229D01*
X015919Y012071D02*
X016081Y012071D01*
X016117Y011965D02*
X016035Y011883D01*
X016035Y011117D01*
X016117Y011035D01*
X016883Y011035D01*
X016965Y011117D01*
X016965Y011883D01*
X016883Y011965D01*
X016117Y011965D01*
X016064Y011912D02*
X015936Y011912D01*
X015965Y011754D02*
X016035Y011754D01*
X016035Y011595D02*
X015965Y011595D01*
X015965Y011437D02*
X016035Y011437D01*
X016035Y011278D02*
X015965Y011278D01*
X015965Y011120D02*
X016035Y011120D01*
X016117Y010965D02*
X016035Y010883D01*
X016035Y010117D01*
X016117Y010035D01*
X016883Y010035D01*
X016965Y010117D01*
X016965Y010883D01*
X016883Y010965D01*
X016117Y010965D01*
X016113Y010961D02*
X015887Y010961D01*
X015965Y010803D02*
X016035Y010803D01*
X016035Y010644D02*
X015965Y010644D01*
X015965Y010486D02*
X016035Y010486D01*
X016035Y010327D02*
X015965Y010327D01*
X015965Y010169D02*
X016035Y010169D01*
X016117Y009965D02*
X016035Y009883D01*
X016035Y009117D01*
X016117Y009035D01*
X016883Y009035D01*
X016965Y009117D01*
X016965Y009883D01*
X016883Y009965D01*
X016117Y009965D01*
X016035Y009852D02*
X015965Y009852D01*
X015965Y009693D02*
X016035Y009693D01*
X016035Y009535D02*
X015965Y009535D01*
X015965Y009376D02*
X016035Y009376D01*
X016035Y009218D02*
X015965Y009218D01*
X015907Y009059D02*
X016093Y009059D01*
X016117Y008965D02*
X016035Y008883D01*
X016035Y008117D01*
X016117Y008035D01*
X016883Y008035D01*
X016965Y008117D01*
X016965Y008883D01*
X016883Y008965D01*
X016117Y008965D01*
X016053Y008901D02*
X015947Y008901D01*
X015965Y008742D02*
X016035Y008742D01*
X016035Y008584D02*
X015965Y008584D01*
X015965Y008425D02*
X016035Y008425D01*
X016035Y008267D02*
X015965Y008267D01*
X015956Y008108D02*
X016044Y008108D01*
X016117Y007965D02*
X016035Y007883D01*
X016035Y007117D01*
X016117Y007035D01*
X016883Y007035D01*
X016965Y007117D01*
X016965Y007883D01*
X016883Y007965D01*
X016117Y007965D01*
X016102Y007950D02*
X015898Y007950D01*
X015965Y007791D02*
X016035Y007791D01*
X016035Y007633D02*
X015965Y007633D01*
X015965Y007474D02*
X016035Y007474D01*
X016035Y007316D02*
X015965Y007316D01*
X015965Y007157D02*
X016035Y007157D01*
X016117Y006965D02*
X016035Y006883D01*
X016035Y006117D01*
X016117Y006035D01*
X016883Y006035D01*
X016965Y006117D01*
X016965Y006883D01*
X016883Y006965D01*
X016117Y006965D01*
X016035Y006840D02*
X015965Y006840D01*
X015965Y006682D02*
X016035Y006682D01*
X016035Y006523D02*
X015965Y006523D01*
X015965Y006365D02*
X016035Y006365D01*
X016035Y006206D02*
X015965Y006206D01*
X015895Y006048D02*
X016105Y006048D01*
X016895Y006048D02*
X017105Y006048D01*
X017117Y006035D02*
X017883Y006035D01*
X017965Y006117D01*
X017965Y006883D01*
X017883Y006965D01*
X017117Y006965D01*
X017035Y006883D01*
X017035Y006117D01*
X017117Y006035D01*
X017035Y006206D02*
X016965Y006206D01*
X016965Y006365D02*
X017035Y006365D01*
X017035Y006523D02*
X016965Y006523D01*
X016965Y006682D02*
X017035Y006682D01*
X017035Y006840D02*
X016965Y006840D01*
X017117Y007035D02*
X017883Y007035D01*
X017965Y007117D01*
X017965Y007883D01*
X017883Y007965D01*
X017117Y007965D01*
X017035Y007883D01*
X017035Y007117D01*
X017117Y007035D01*
X017035Y007157D02*
X016965Y007157D01*
X016965Y007316D02*
X017035Y007316D01*
X017035Y007474D02*
X016965Y007474D01*
X016965Y007633D02*
X017035Y007633D01*
X017035Y007791D02*
X016965Y007791D01*
X016898Y007950D02*
X017102Y007950D01*
X017117Y008035D02*
X017883Y008035D01*
X017965Y008117D01*
X017965Y008883D01*
X017883Y008965D01*
X017117Y008965D01*
X017035Y008883D01*
X017035Y008117D01*
X017117Y008035D01*
X017044Y008108D02*
X016956Y008108D01*
X016965Y008267D02*
X017035Y008267D01*
X017035Y008425D02*
X016965Y008425D01*
X016965Y008584D02*
X017035Y008584D01*
X017035Y008742D02*
X016965Y008742D01*
X016947Y008901D02*
X017053Y008901D01*
X017117Y009035D02*
X017883Y009035D01*
X017965Y009117D01*
X017965Y009883D01*
X017883Y009965D01*
X017117Y009965D01*
X017035Y009883D01*
X017035Y009117D01*
X017117Y009035D01*
X017093Y009059D02*
X016907Y009059D01*
X016965Y009218D02*
X017035Y009218D01*
X017035Y009376D02*
X016965Y009376D01*
X016965Y009535D02*
X017035Y009535D01*
X017035Y009693D02*
X016965Y009693D01*
X016965Y009852D02*
X017035Y009852D01*
X017117Y010035D02*
X017883Y010035D01*
X017965Y010117D01*
X017965Y010883D01*
X017883Y010965D01*
X017117Y010965D01*
X017035Y010883D01*
X017035Y010117D01*
X017117Y010035D01*
X017035Y010169D02*
X016965Y010169D01*
X016965Y010327D02*
X017035Y010327D01*
X017035Y010486D02*
X016965Y010486D01*
X016965Y010644D02*
X017035Y010644D01*
X017035Y010803D02*
X016965Y010803D01*
X016887Y010961D02*
X017113Y010961D01*
X017117Y011035D02*
X017883Y011035D01*
X017965Y011117D01*
X017965Y011883D01*
X017883Y011965D01*
X017117Y011965D01*
X017035Y011883D01*
X017035Y011117D01*
X017117Y011035D01*
X017035Y011120D02*
X016965Y011120D01*
X016965Y011278D02*
X017035Y011278D01*
X017035Y011437D02*
X016965Y011437D01*
X016965Y011595D02*
X017035Y011595D01*
X017035Y011754D02*
X016965Y011754D01*
X016936Y011912D02*
X017064Y011912D01*
X017117Y012035D02*
X017883Y012035D01*
X017965Y012117D01*
X017965Y012883D01*
X017883Y012965D01*
X017117Y012965D01*
X017035Y012883D01*
X017035Y012117D01*
X017117Y012035D01*
X017081Y012071D02*
X016919Y012071D01*
X016965Y012229D02*
X017035Y012229D01*
X017035Y012388D02*
X016965Y012388D01*
X016965Y012546D02*
X017035Y012546D01*
X017035Y012705D02*
X016965Y012705D01*
X016965Y012863D02*
X017035Y012863D01*
X017117Y013035D02*
X017883Y013035D01*
X017965Y013117D01*
X017965Y013883D01*
X017883Y013965D01*
X017117Y013965D01*
X017035Y013883D01*
X017035Y013117D01*
X017117Y013035D01*
X017035Y013180D02*
X016965Y013180D01*
X016965Y013339D02*
X017035Y013339D01*
X017035Y013497D02*
X016965Y013497D01*
X016965Y013656D02*
X017035Y013656D01*
X017035Y013814D02*
X016965Y013814D01*
X017117Y014035D02*
X017883Y014035D01*
X017965Y014117D01*
X017965Y014883D01*
X017883Y014965D01*
X017117Y014965D01*
X017035Y014883D01*
X017035Y014117D01*
X017117Y014035D01*
X017035Y014131D02*
X016965Y014131D01*
X016965Y014290D02*
X017035Y014290D01*
X017035Y014448D02*
X016965Y014448D01*
X016965Y014607D02*
X017035Y014607D01*
X017035Y014765D02*
X016965Y014765D01*
X016924Y014924D02*
X017076Y014924D01*
X017924Y014924D02*
X018076Y014924D01*
X018117Y014965D02*
X018035Y014883D01*
X018035Y014117D01*
X018117Y014035D01*
X018883Y014035D01*
X018965Y014117D01*
X018965Y014883D01*
X018883Y014965D01*
X018117Y014965D01*
X018035Y014765D02*
X017965Y014765D01*
X017965Y014607D02*
X018035Y014607D01*
X018035Y014448D02*
X017965Y014448D01*
X017965Y014290D02*
X018035Y014290D01*
X018035Y014131D02*
X017965Y014131D01*
X018117Y013965D02*
X018035Y013883D01*
X018035Y013117D01*
X018117Y013035D01*
X018883Y013035D01*
X018965Y013117D01*
X018965Y013883D01*
X018883Y013965D01*
X018117Y013965D01*
X018035Y013814D02*
X017965Y013814D01*
X017965Y013656D02*
X018035Y013656D01*
X018035Y013497D02*
X017965Y013497D01*
X017965Y013339D02*
X018035Y013339D01*
X018035Y013180D02*
X017965Y013180D01*
X018117Y012965D02*
X018035Y012883D01*
X018035Y012117D01*
X018117Y012035D01*
X018883Y012035D01*
X018965Y012117D01*
X018965Y012883D01*
X018883Y012965D01*
X018117Y012965D01*
X018035Y012863D02*
X017965Y012863D01*
X017965Y012705D02*
X018035Y012705D01*
X018035Y012546D02*
X017965Y012546D01*
X017965Y012388D02*
X018035Y012388D01*
X018035Y012229D02*
X017965Y012229D01*
X017919Y012071D02*
X018081Y012071D01*
X018117Y011965D02*
X018035Y011883D01*
X018035Y011117D01*
X018117Y011035D01*
X018883Y011035D01*
X018965Y011117D01*
X018965Y011883D01*
X018883Y011965D01*
X018117Y011965D01*
X018064Y011912D02*
X017936Y011912D01*
X017965Y011754D02*
X018035Y011754D01*
X018035Y011595D02*
X017965Y011595D01*
X017965Y011437D02*
X018035Y011437D01*
X018035Y011278D02*
X017965Y011278D01*
X017965Y011120D02*
X018035Y011120D01*
X018117Y010965D02*
X018035Y010883D01*
X018035Y010117D01*
X018117Y010035D01*
X018883Y010035D01*
X018965Y010117D01*
X018965Y010883D01*
X018883Y010965D01*
X018117Y010965D01*
X018113Y010961D02*
X017887Y010961D01*
X017965Y010803D02*
X018035Y010803D01*
X018035Y010644D02*
X017965Y010644D01*
X017965Y010486D02*
X018035Y010486D01*
X018035Y010327D02*
X017965Y010327D01*
X017965Y010169D02*
X018035Y010169D01*
X018117Y009965D02*
X018035Y009883D01*
X018035Y009117D01*
X018117Y009035D01*
X018883Y009035D01*
X018965Y009117D01*
X018965Y009883D01*
X018883Y009965D01*
X018117Y009965D01*
X018035Y009852D02*
X017965Y009852D01*
X017965Y009693D02*
X018035Y009693D01*
X018035Y009535D02*
X017965Y009535D01*
X017965Y009376D02*
X018035Y009376D01*
X018035Y009218D02*
X017965Y009218D01*
X017907Y009059D02*
X018093Y009059D01*
X018117Y008965D02*
X018035Y008883D01*
X018035Y008117D01*
X018117Y008035D01*
X018883Y008035D01*
X018965Y008117D01*
X018965Y008883D01*
X018883Y008965D01*
X018117Y008965D01*
X018053Y008901D02*
X017947Y008901D01*
X017965Y008742D02*
X018035Y008742D01*
X018035Y008584D02*
X017965Y008584D01*
X017965Y008425D02*
X018035Y008425D01*
X018035Y008267D02*
X017965Y008267D01*
X017956Y008108D02*
X018044Y008108D01*
X018117Y007965D02*
X018035Y007883D01*
X018035Y007117D01*
X018117Y007035D01*
X018883Y007035D01*
X018965Y007117D01*
X018965Y007883D01*
X018883Y007965D01*
X018117Y007965D01*
X018102Y007950D02*
X017898Y007950D01*
X017965Y007791D02*
X018035Y007791D01*
X018035Y007633D02*
X017965Y007633D01*
X017965Y007474D02*
X018035Y007474D01*
X018035Y007316D02*
X017965Y007316D01*
X017965Y007157D02*
X018035Y007157D01*
X018117Y006965D02*
X018035Y006883D01*
X018035Y006117D01*
X018117Y006035D01*
X018883Y006035D01*
X018965Y006117D01*
X018965Y006883D01*
X018883Y006965D01*
X018117Y006965D01*
X018035Y006840D02*
X017965Y006840D01*
X017965Y006682D02*
X018035Y006682D01*
X018035Y006523D02*
X017965Y006523D01*
X017965Y006365D02*
X018035Y006365D01*
X018035Y006206D02*
X017965Y006206D01*
X017895Y006048D02*
X018105Y006048D01*
X018895Y006048D02*
X019105Y006048D01*
X019117Y006035D02*
X019883Y006035D01*
X019965Y006117D01*
X019965Y006883D01*
X019883Y006965D01*
X019117Y006965D01*
X019035Y006883D01*
X019035Y006117D01*
X019117Y006035D01*
X019035Y006206D02*
X018965Y006206D01*
X018965Y006365D02*
X019035Y006365D01*
X019035Y006523D02*
X018965Y006523D01*
X018965Y006682D02*
X019035Y006682D01*
X019035Y006840D02*
X018965Y006840D01*
X019117Y007035D02*
X019035Y007117D01*
X019035Y007883D01*
X019117Y007965D01*
X019883Y007965D01*
X019965Y007883D01*
X019965Y007117D01*
X019883Y007035D01*
X019117Y007035D01*
X019035Y007157D02*
X018965Y007157D01*
X018965Y007316D02*
X019035Y007316D01*
X019035Y007474D02*
X018965Y007474D01*
X018965Y007633D02*
X019035Y007633D01*
X019035Y007791D02*
X018965Y007791D01*
X018898Y007950D02*
X019102Y007950D01*
X019117Y008035D02*
X019035Y008117D01*
X019035Y008883D01*
X019117Y008965D01*
X019883Y008965D01*
X019965Y008883D01*
X019965Y008117D01*
X019883Y008035D01*
X019117Y008035D01*
X019044Y008108D02*
X018956Y008108D01*
X018965Y008267D02*
X019035Y008267D01*
X019035Y008425D02*
X018965Y008425D01*
X018965Y008584D02*
X019035Y008584D01*
X019035Y008742D02*
X018965Y008742D01*
X018947Y008901D02*
X019053Y008901D01*
X019117Y009035D02*
X019035Y009117D01*
X019035Y009883D01*
X019117Y009965D01*
X019883Y009965D01*
X019965Y009883D01*
X019965Y009117D01*
X019883Y009035D01*
X019117Y009035D01*
X019093Y009059D02*
X018907Y009059D01*
X018965Y009218D02*
X019035Y009218D01*
X019035Y009376D02*
X018965Y009376D01*
X018965Y009535D02*
X019035Y009535D01*
X019035Y009693D02*
X018965Y009693D01*
X018965Y009852D02*
X019035Y009852D01*
X019117Y010035D02*
X019035Y010117D01*
X019035Y010883D01*
X019117Y010965D01*
X019883Y010965D01*
X019965Y010883D01*
X019965Y010117D01*
X019883Y010035D01*
X019117Y010035D01*
X019035Y010169D02*
X018965Y010169D01*
X018965Y010327D02*
X019035Y010327D01*
X019035Y010486D02*
X018965Y010486D01*
X018965Y010644D02*
X019035Y010644D01*
X019035Y010803D02*
X018965Y010803D01*
X018887Y010961D02*
X019113Y010961D01*
X019117Y011035D02*
X019883Y011035D01*
X019965Y011117D01*
X019965Y011883D01*
X019883Y011965D01*
X019117Y011965D01*
X019035Y011883D01*
X019035Y011117D01*
X019117Y011035D01*
X019035Y011120D02*
X018965Y011120D01*
X018965Y011278D02*
X019035Y011278D01*
X019035Y011437D02*
X018965Y011437D01*
X018965Y011595D02*
X019035Y011595D01*
X019035Y011754D02*
X018965Y011754D01*
X018936Y011912D02*
X019064Y011912D01*
X019117Y012035D02*
X019035Y012117D01*
X019035Y012883D01*
X019117Y012965D01*
X019883Y012965D01*
X019965Y012883D01*
X019965Y012117D01*
X019883Y012035D01*
X019117Y012035D01*
X019081Y012071D02*
X018919Y012071D01*
X018965Y012229D02*
X019035Y012229D01*
X019035Y012388D02*
X018965Y012388D01*
X018965Y012546D02*
X019035Y012546D01*
X019035Y012705D02*
X018965Y012705D01*
X018965Y012863D02*
X019035Y012863D01*
X019117Y013035D02*
X019035Y013117D01*
X019035Y013883D01*
X019117Y013965D01*
X019883Y013965D01*
X019965Y013883D01*
X019965Y013117D01*
X019883Y013035D01*
X019117Y013035D01*
X019035Y013180D02*
X018965Y013180D01*
X018965Y013339D02*
X019035Y013339D01*
X019035Y013497D02*
X018965Y013497D01*
X018965Y013656D02*
X019035Y013656D01*
X019035Y013814D02*
X018965Y013814D01*
X019117Y014035D02*
X019883Y014035D01*
X019965Y014117D01*
X019965Y014883D01*
X019883Y014965D01*
X019117Y014965D01*
X019035Y014883D01*
X019035Y014117D01*
X019117Y014035D01*
X019035Y014131D02*
X018965Y014131D01*
X018965Y014290D02*
X019035Y014290D01*
X019035Y014448D02*
X018965Y014448D01*
X018965Y014607D02*
X019035Y014607D01*
X019035Y014765D02*
X018965Y014765D01*
X018924Y014924D02*
X019076Y014924D01*
X019924Y014924D02*
X020076Y014924D01*
X020117Y014965D02*
X020035Y014883D01*
X020035Y014117D01*
X020117Y014035D01*
X020883Y014035D01*
X020965Y014117D01*
X020965Y014883D01*
X020883Y014965D01*
X020117Y014965D01*
X020035Y014765D02*
X019965Y014765D01*
X019965Y014607D02*
X020035Y014607D01*
X020035Y014448D02*
X019965Y014448D01*
X019965Y014290D02*
X020035Y014290D01*
X020035Y014131D02*
X019965Y014131D01*
X020117Y013965D02*
X020035Y013883D01*
X020035Y013117D01*
X020117Y013035D01*
X020883Y013035D01*
X020965Y013117D01*
X020965Y013883D01*
X020883Y013965D01*
X020117Y013965D01*
X020035Y013814D02*
X019965Y013814D01*
X019965Y013656D02*
X020035Y013656D01*
X020035Y013497D02*
X019965Y013497D01*
X019965Y013339D02*
X020035Y013339D01*
X020035Y013180D02*
X019965Y013180D01*
X020117Y012965D02*
X020035Y012883D01*
X020035Y012117D01*
X020117Y012035D01*
X020883Y012035D01*
X020965Y012117D01*
X020965Y012883D01*
X020883Y012965D01*
X020117Y012965D01*
X020035Y012863D02*
X019965Y012863D01*
X019965Y012705D02*
X020035Y012705D01*
X020035Y012546D02*
X019965Y012546D01*
X019965Y012388D02*
X020035Y012388D01*
X020035Y012229D02*
X019965Y012229D01*
X019919Y012071D02*
X020081Y012071D01*
X020117Y011965D02*
X020035Y011883D01*
X020035Y011117D01*
X020117Y011035D01*
X020883Y011035D01*
X020965Y011117D01*
X020965Y011883D01*
X020883Y011965D01*
X020117Y011965D01*
X020064Y011912D02*
X019936Y011912D01*
X019965Y011754D02*
X020035Y011754D01*
X020035Y011595D02*
X019965Y011595D01*
X019965Y011437D02*
X020035Y011437D01*
X020035Y011278D02*
X019965Y011278D01*
X019965Y011120D02*
X020035Y011120D01*
X020117Y010965D02*
X020035Y010883D01*
X020035Y010117D01*
X020117Y010035D01*
X020883Y010035D01*
X020965Y010117D01*
X020965Y010883D01*
X020883Y010965D01*
X020117Y010965D01*
X020113Y010961D02*
X019887Y010961D01*
X019965Y010803D02*
X020035Y010803D01*
X020035Y010644D02*
X019965Y010644D01*
X019965Y010486D02*
X020035Y010486D01*
X020035Y010327D02*
X019965Y010327D01*
X019965Y010169D02*
X020035Y010169D01*
X020117Y009965D02*
X020035Y009883D01*
X020035Y009117D01*
X020117Y009035D01*
X020883Y009035D01*
X020965Y009117D01*
X020965Y009883D01*
X020883Y009965D01*
X020117Y009965D01*
X020035Y009852D02*
X019965Y009852D01*
X019965Y009693D02*
X020035Y009693D01*
X020035Y009535D02*
X019965Y009535D01*
X019965Y009376D02*
X020035Y009376D01*
X020035Y009218D02*
X019965Y009218D01*
X019907Y009059D02*
X020093Y009059D01*
X020117Y008965D02*
X020035Y008883D01*
X020035Y008117D01*
X020117Y008035D01*
X020883Y008035D01*
X020965Y008117D01*
X020965Y008883D01*
X020883Y008965D01*
X020117Y008965D01*
X020053Y008901D02*
X019947Y008901D01*
X019965Y008742D02*
X020035Y008742D01*
X020035Y008584D02*
X019965Y008584D01*
X019965Y008425D02*
X020035Y008425D01*
X020035Y008267D02*
X019965Y008267D01*
X019956Y008108D02*
X020044Y008108D01*
X020117Y007965D02*
X020035Y007883D01*
X020035Y007117D01*
X020117Y007035D01*
X020883Y007035D01*
X020965Y007117D01*
X020965Y007883D01*
X020883Y007965D01*
X020117Y007965D01*
X020102Y007950D02*
X019898Y007950D01*
X019965Y007791D02*
X020035Y007791D01*
X020035Y007633D02*
X019965Y007633D01*
X019965Y007474D02*
X020035Y007474D01*
X020035Y007316D02*
X019965Y007316D01*
X019965Y007157D02*
X020035Y007157D01*
X020117Y006965D02*
X020035Y006883D01*
X020035Y006117D01*
X020117Y006035D01*
X020883Y006035D01*
X020965Y006117D01*
X020965Y006883D01*
X020883Y006965D01*
X020117Y006965D01*
X020035Y006840D02*
X019965Y006840D01*
X019965Y006682D02*
X020035Y006682D01*
X020035Y006523D02*
X019965Y006523D01*
X019965Y006365D02*
X020035Y006365D01*
X020035Y006206D02*
X019965Y006206D01*
X019895Y006048D02*
X020105Y006048D01*
X020895Y006048D02*
X021105Y006048D01*
X021117Y006035D02*
X021883Y006035D01*
X021965Y006117D01*
X021965Y006883D01*
X021883Y006965D01*
X021117Y006965D01*
X021035Y006883D01*
X021035Y006117D01*
X021117Y006035D01*
X021035Y006206D02*
X020965Y006206D01*
X020965Y006365D02*
X021035Y006365D01*
X021035Y006523D02*
X020965Y006523D01*
X020965Y006682D02*
X021035Y006682D01*
X021035Y006840D02*
X020965Y006840D01*
X021117Y007035D02*
X021035Y007117D01*
X021035Y007883D01*
X021117Y007965D01*
X021883Y007965D01*
X021965Y007883D01*
X021965Y007117D01*
X021883Y007035D01*
X021117Y007035D01*
X021035Y007157D02*
X020965Y007157D01*
X020965Y007316D02*
X021035Y007316D01*
X021035Y007474D02*
X020965Y007474D01*
X020965Y007633D02*
X021035Y007633D01*
X021035Y007791D02*
X020965Y007791D01*
X020898Y007950D02*
X021102Y007950D01*
X021117Y008035D02*
X021035Y008117D01*
X021035Y008883D01*
X021117Y008965D01*
X021883Y008965D01*
X021965Y008883D01*
X021965Y008117D01*
X021883Y008035D01*
X021117Y008035D01*
X021044Y008108D02*
X020956Y008108D01*
X020965Y008267D02*
X021035Y008267D01*
X021035Y008425D02*
X020965Y008425D01*
X020965Y008584D02*
X021035Y008584D01*
X021035Y008742D02*
X020965Y008742D01*
X020947Y008901D02*
X021053Y008901D01*
X021117Y009035D02*
X021883Y009035D01*
X021965Y009117D01*
X021965Y009883D01*
X021883Y009965D01*
X021117Y009965D01*
X021035Y009883D01*
X021035Y009117D01*
X021117Y009035D01*
X021093Y009059D02*
X020907Y009059D01*
X020965Y009218D02*
X021035Y009218D01*
X021035Y009376D02*
X020965Y009376D01*
X020965Y009535D02*
X021035Y009535D01*
X021035Y009693D02*
X020965Y009693D01*
X020965Y009852D02*
X021035Y009852D01*
X021117Y010035D02*
X021035Y010117D01*
X021035Y010883D01*
X021117Y010965D01*
X021883Y010965D01*
X021965Y010883D01*
X021965Y010117D01*
X021883Y010035D01*
X021117Y010035D01*
X021035Y010169D02*
X020965Y010169D01*
X020965Y010327D02*
X021035Y010327D01*
X021035Y010486D02*
X020965Y010486D01*
X020965Y010644D02*
X021035Y010644D01*
X021035Y010803D02*
X020965Y010803D01*
X020887Y010961D02*
X021113Y010961D01*
X021117Y011035D02*
X021883Y011035D01*
X021965Y011117D01*
X021965Y011883D01*
X021883Y011965D01*
X021117Y011965D01*
X021035Y011883D01*
X021035Y011117D01*
X021117Y011035D01*
X021035Y011120D02*
X020965Y011120D01*
X020965Y011278D02*
X021035Y011278D01*
X021035Y011437D02*
X020965Y011437D01*
X020965Y011595D02*
X021035Y011595D01*
X021035Y011754D02*
X020965Y011754D01*
X020936Y011912D02*
X021064Y011912D01*
X021117Y012035D02*
X021035Y012117D01*
X021035Y012883D01*
X021117Y012965D01*
X021883Y012965D01*
X021965Y012883D01*
X021965Y012117D01*
X021883Y012035D01*
X021117Y012035D01*
X021081Y012071D02*
X020919Y012071D01*
X020965Y012229D02*
X021035Y012229D01*
X021035Y012388D02*
X020965Y012388D01*
X020965Y012546D02*
X021035Y012546D01*
X021035Y012705D02*
X020965Y012705D01*
X020965Y012863D02*
X021035Y012863D01*
X021117Y013035D02*
X021035Y013117D01*
X021035Y013883D01*
X021117Y013965D01*
X021883Y013965D01*
X021965Y013883D01*
X021965Y013117D01*
X021883Y013035D01*
X021117Y013035D01*
X021035Y013180D02*
X020965Y013180D01*
X020965Y013339D02*
X021035Y013339D01*
X021035Y013497D02*
X020965Y013497D01*
X020965Y013656D02*
X021035Y013656D01*
X021035Y013814D02*
X020965Y013814D01*
X021117Y014035D02*
X021883Y014035D01*
X021965Y014117D01*
X021965Y014883D01*
X021883Y014965D01*
X021117Y014965D01*
X021035Y014883D01*
X021035Y014117D01*
X021117Y014035D01*
X021035Y014131D02*
X020965Y014131D01*
X020965Y014290D02*
X021035Y014290D01*
X021035Y014448D02*
X020965Y014448D01*
X020965Y014607D02*
X021035Y014607D01*
X021035Y014765D02*
X020965Y014765D01*
X020924Y014924D02*
X021076Y014924D01*
X021924Y014924D02*
X022076Y014924D01*
X022117Y014965D02*
X022035Y014883D01*
X022035Y014117D01*
X022117Y014035D01*
X022883Y014035D01*
X022965Y014117D01*
X022965Y014883D01*
X022883Y014965D01*
X022117Y014965D01*
X022035Y014765D02*
X021965Y014765D01*
X021965Y014607D02*
X022035Y014607D01*
X022035Y014448D02*
X021965Y014448D01*
X021965Y014290D02*
X022035Y014290D01*
X022035Y014131D02*
X021965Y014131D01*
X022117Y013965D02*
X022035Y013883D01*
X022035Y013117D01*
X022117Y013035D01*
X022883Y013035D01*
X022965Y013117D01*
X022965Y013883D01*
X022883Y013965D01*
X022117Y013965D01*
X022035Y013814D02*
X021965Y013814D01*
X021965Y013656D02*
X022035Y013656D01*
X022035Y013497D02*
X021965Y013497D01*
X021965Y013339D02*
X022035Y013339D01*
X022035Y013180D02*
X021965Y013180D01*
X022117Y012965D02*
X022035Y012883D01*
X022035Y012117D01*
X022117Y012035D01*
X022883Y012035D01*
X022965Y012117D01*
X022965Y012883D01*
X022883Y012965D01*
X022117Y012965D01*
X022035Y012863D02*
X021965Y012863D01*
X021965Y012705D02*
X022035Y012705D01*
X022035Y012546D02*
X021965Y012546D01*
X021965Y012388D02*
X022035Y012388D01*
X022035Y012229D02*
X021965Y012229D01*
X021919Y012071D02*
X022081Y012071D01*
X022117Y011965D02*
X022035Y011883D01*
X022035Y011117D01*
X022117Y011035D01*
X022883Y011035D01*
X022965Y011117D01*
X022965Y011883D01*
X022883Y011965D01*
X022117Y011965D01*
X022064Y011912D02*
X021936Y011912D01*
X021965Y011754D02*
X022035Y011754D01*
X022035Y011595D02*
X021965Y011595D01*
X021965Y011437D02*
X022035Y011437D01*
X022035Y011278D02*
X021965Y011278D01*
X021965Y011120D02*
X022035Y011120D01*
X022117Y010965D02*
X022035Y010883D01*
X022035Y010117D01*
X022117Y010035D01*
X022883Y010035D01*
X022965Y010117D01*
X022965Y010883D01*
X022883Y010965D01*
X022117Y010965D01*
X022113Y010961D02*
X021887Y010961D01*
X021965Y010803D02*
X022035Y010803D01*
X022035Y010644D02*
X021965Y010644D01*
X021965Y010486D02*
X022035Y010486D01*
X022035Y010327D02*
X021965Y010327D01*
X021965Y010169D02*
X022035Y010169D01*
X022117Y009965D02*
X022035Y009883D01*
X022035Y009117D01*
X022117Y009035D01*
X022883Y009035D01*
X022965Y009117D01*
X022965Y009883D01*
X022883Y009965D01*
X022117Y009965D01*
X022035Y009852D02*
X021965Y009852D01*
X021965Y009693D02*
X022035Y009693D01*
X022035Y009535D02*
X021965Y009535D01*
X021965Y009376D02*
X022035Y009376D01*
X022035Y009218D02*
X021965Y009218D01*
X021907Y009059D02*
X022093Y009059D01*
X022117Y008965D02*
X022035Y008883D01*
X022035Y008117D01*
X022117Y008035D01*
X022883Y008035D01*
X022965Y008117D01*
X022965Y008883D01*
X022883Y008965D01*
X022117Y008965D01*
X022053Y008901D02*
X021947Y008901D01*
X021965Y008742D02*
X022035Y008742D01*
X022035Y008584D02*
X021965Y008584D01*
X021965Y008425D02*
X022035Y008425D01*
X022035Y008267D02*
X021965Y008267D01*
X021956Y008108D02*
X022044Y008108D01*
X022117Y007965D02*
X022035Y007883D01*
X022035Y007117D01*
X022117Y007035D01*
X022883Y007035D01*
X022965Y007117D01*
X022965Y007883D01*
X022883Y007965D01*
X022117Y007965D01*
X022102Y007950D02*
X021898Y007950D01*
X021965Y007791D02*
X022035Y007791D01*
X022035Y007633D02*
X021965Y007633D01*
X021965Y007474D02*
X022035Y007474D01*
X022035Y007316D02*
X021965Y007316D01*
X021965Y007157D02*
X022035Y007157D01*
X022117Y006965D02*
X022035Y006883D01*
X022035Y006117D01*
X022117Y006035D01*
X022883Y006035D01*
X022965Y006117D01*
X022965Y006883D01*
X022883Y006965D01*
X022117Y006965D01*
X022035Y006840D02*
X021965Y006840D01*
X021965Y006682D02*
X022035Y006682D01*
X022035Y006523D02*
X021965Y006523D01*
X021965Y006365D02*
X022035Y006365D01*
X022035Y006206D02*
X021965Y006206D01*
X021895Y006048D02*
X022105Y006048D01*
X022895Y006048D02*
X023105Y006048D01*
X023117Y006035D02*
X023883Y006035D01*
X023965Y006117D01*
X023965Y006883D01*
X023883Y006965D01*
X023117Y006965D01*
X023035Y006883D01*
X023035Y006117D01*
X023117Y006035D01*
X023035Y006206D02*
X022965Y006206D01*
X022965Y006365D02*
X023035Y006365D01*
X023035Y006523D02*
X022965Y006523D01*
X022965Y006682D02*
X023035Y006682D01*
X023035Y006840D02*
X022965Y006840D01*
X023117Y007035D02*
X023883Y007035D01*
X023965Y007117D01*
X023965Y007883D01*
X023883Y007965D01*
X023117Y007965D01*
X023035Y007883D01*
X023035Y007117D01*
X023117Y007035D01*
X023035Y007157D02*
X022965Y007157D01*
X022965Y007316D02*
X023035Y007316D01*
X023035Y007474D02*
X022965Y007474D01*
X022965Y007633D02*
X023035Y007633D01*
X023035Y007791D02*
X022965Y007791D01*
X022898Y007950D02*
X023102Y007950D01*
X023117Y008035D02*
X023883Y008035D01*
X023965Y008117D01*
X023965Y008883D01*
X023883Y008965D01*
X023117Y008965D01*
X023035Y008883D01*
X023035Y008117D01*
X023117Y008035D01*
X023044Y008108D02*
X022956Y008108D01*
X022965Y008267D02*
X023035Y008267D01*
X023035Y008425D02*
X022965Y008425D01*
X022965Y008584D02*
X023035Y008584D01*
X023035Y008742D02*
X022965Y008742D01*
X022947Y008901D02*
X023053Y008901D01*
X023117Y009035D02*
X023883Y009035D01*
X023965Y009117D01*
X023965Y009883D01*
X023883Y009965D01*
X023117Y009965D01*
X023035Y009883D01*
X023035Y009117D01*
X023117Y009035D01*
X023093Y009059D02*
X022907Y009059D01*
X022965Y009218D02*
X023035Y009218D01*
X023035Y009376D02*
X022965Y009376D01*
X022965Y009535D02*
X023035Y009535D01*
X023035Y009693D02*
X022965Y009693D01*
X022965Y009852D02*
X023035Y009852D01*
X023117Y010035D02*
X023883Y010035D01*
X023965Y010117D01*
X023965Y010883D01*
X023883Y010965D01*
X023117Y010965D01*
X023035Y010883D01*
X023035Y010117D01*
X023117Y010035D01*
X023035Y010169D02*
X022965Y010169D01*
X022965Y010327D02*
X023035Y010327D01*
X023035Y010486D02*
X022965Y010486D01*
X022965Y010644D02*
X023035Y010644D01*
X023035Y010803D02*
X022965Y010803D01*
X022887Y010961D02*
X023113Y010961D01*
X023117Y011035D02*
X023883Y011035D01*
X023965Y011117D01*
X023965Y011883D01*
X023883Y011965D01*
X023117Y011965D01*
X023035Y011883D01*
X023035Y011117D01*
X023117Y011035D01*
X023035Y011120D02*
X022965Y011120D01*
X022965Y011278D02*
X023035Y011278D01*
X023035Y011437D02*
X022965Y011437D01*
X022965Y011595D02*
X023035Y011595D01*
X023035Y011754D02*
X022965Y011754D01*
X022936Y011912D02*
X023064Y011912D01*
X023117Y012035D02*
X023883Y012035D01*
X023965Y012117D01*
X023965Y012883D01*
X023883Y012965D01*
X023117Y012965D01*
X023035Y012883D01*
X023035Y012117D01*
X023117Y012035D01*
X023081Y012071D02*
X022919Y012071D01*
X022965Y012229D02*
X023035Y012229D01*
X023035Y012388D02*
X022965Y012388D01*
X022965Y012546D02*
X023035Y012546D01*
X023035Y012705D02*
X022965Y012705D01*
X022965Y012863D02*
X023035Y012863D01*
X023117Y013035D02*
X023883Y013035D01*
X023965Y013117D01*
X023965Y013883D01*
X023883Y013965D01*
X023117Y013965D01*
X023035Y013883D01*
X023035Y013117D01*
X023117Y013035D01*
X023035Y013180D02*
X022965Y013180D01*
X022965Y013339D02*
X023035Y013339D01*
X023035Y013497D02*
X022965Y013497D01*
X022965Y013656D02*
X023035Y013656D01*
X023035Y013814D02*
X022965Y013814D01*
X023117Y014035D02*
X023883Y014035D01*
X023965Y014117D01*
X023965Y014883D01*
X023883Y014965D01*
X023117Y014965D01*
X023035Y014883D01*
X023035Y014117D01*
X023117Y014035D01*
X023035Y014131D02*
X022965Y014131D01*
X022965Y014290D02*
X023035Y014290D01*
X023035Y014448D02*
X022965Y014448D01*
X022965Y014607D02*
X023035Y014607D01*
X023035Y014765D02*
X022965Y014765D01*
X022924Y014924D02*
X023076Y014924D01*
X023924Y014924D02*
X024076Y014924D01*
X024117Y014965D02*
X024035Y014883D01*
X024035Y014117D01*
X024117Y014035D01*
X024883Y014035D01*
X024965Y014117D01*
X024965Y014883D01*
X024883Y014965D01*
X024117Y014965D01*
X024035Y014765D02*
X023965Y014765D01*
X023965Y014607D02*
X024035Y014607D01*
X024035Y014448D02*
X023965Y014448D01*
X023965Y014290D02*
X024035Y014290D01*
X024035Y014131D02*
X023965Y014131D01*
X024117Y013965D02*
X024035Y013883D01*
X024035Y013117D01*
X024117Y013035D01*
X024883Y013035D01*
X024965Y013117D01*
X024965Y013883D01*
X024883Y013965D01*
X024117Y013965D01*
X024035Y013814D02*
X023965Y013814D01*
X023965Y013656D02*
X024035Y013656D01*
X024035Y013497D02*
X023965Y013497D01*
X023965Y013339D02*
X024035Y013339D01*
X024035Y013180D02*
X023965Y013180D01*
X024117Y012965D02*
X024035Y012883D01*
X024035Y012117D01*
X024117Y012035D01*
X024883Y012035D01*
X024965Y012117D01*
X024965Y012883D01*
X024883Y012965D01*
X024117Y012965D01*
X024035Y012863D02*
X023965Y012863D01*
X023965Y012705D02*
X024035Y012705D01*
X024035Y012546D02*
X023965Y012546D01*
X023965Y012388D02*
X024035Y012388D01*
X024035Y012229D02*
X023965Y012229D01*
X023919Y012071D02*
X024081Y012071D01*
X024117Y011965D02*
X024035Y011883D01*
X024035Y011117D01*
X024117Y011035D01*
X024883Y011035D01*
X024965Y011117D01*
X024965Y011883D01*
X024883Y011965D01*
X024117Y011965D01*
X024064Y011912D02*
X023936Y011912D01*
X023965Y011754D02*
X024035Y011754D01*
X024035Y011595D02*
X023965Y011595D01*
X023965Y011437D02*
X024035Y011437D01*
X024035Y011278D02*
X023965Y011278D01*
X023965Y011120D02*
X024035Y011120D01*
X024117Y010965D02*
X024035Y010883D01*
X024035Y010117D01*
X024117Y010035D01*
X024883Y010035D01*
X024965Y010117D01*
X024965Y010883D01*
X024883Y010965D01*
X024117Y010965D01*
X024113Y010961D02*
X023887Y010961D01*
X023965Y010803D02*
X024035Y010803D01*
X024035Y010644D02*
X023965Y010644D01*
X023965Y010486D02*
X024035Y010486D01*
X024035Y010327D02*
X023965Y010327D01*
X023965Y010169D02*
X024035Y010169D01*
X024117Y009965D02*
X024035Y009883D01*
X024035Y009117D01*
X024117Y009035D01*
X024883Y009035D01*
X024965Y009117D01*
X024965Y009883D01*
X024883Y009965D01*
X024117Y009965D01*
X024035Y009852D02*
X023965Y009852D01*
X023965Y009693D02*
X024035Y009693D01*
X024035Y009535D02*
X023965Y009535D01*
X023965Y009376D02*
X024035Y009376D01*
X024035Y009218D02*
X023965Y009218D01*
X023907Y009059D02*
X024093Y009059D01*
X024117Y008965D02*
X024035Y008883D01*
X024035Y008117D01*
X024117Y008035D01*
X024883Y008035D01*
X024965Y008117D01*
X024965Y008883D01*
X024883Y008965D01*
X024117Y008965D01*
X024053Y008901D02*
X023947Y008901D01*
X023965Y008742D02*
X024035Y008742D01*
X024035Y008584D02*
X023965Y008584D01*
X023965Y008425D02*
X024035Y008425D01*
X024035Y008267D02*
X023965Y008267D01*
X023956Y008108D02*
X024044Y008108D01*
X024117Y007965D02*
X024035Y007883D01*
X024035Y007117D01*
X024117Y007035D01*
X024883Y007035D01*
X024965Y007117D01*
X024965Y007883D01*
X024883Y007965D01*
X024117Y007965D01*
X024102Y007950D02*
X023898Y007950D01*
X023965Y007791D02*
X024035Y007791D01*
X024035Y007633D02*
X023965Y007633D01*
X023965Y007474D02*
X024035Y007474D01*
X024035Y007316D02*
X023965Y007316D01*
X023965Y007157D02*
X024035Y007157D01*
X024117Y006965D02*
X024035Y006883D01*
X024035Y006117D01*
X024117Y006035D01*
X024883Y006035D01*
X024965Y006117D01*
X024965Y006883D01*
X024883Y006965D01*
X024117Y006965D01*
X024035Y006840D02*
X023965Y006840D01*
X023965Y006682D02*
X024035Y006682D01*
X024035Y006523D02*
X023965Y006523D01*
X023965Y006365D02*
X024035Y006365D01*
X024035Y006206D02*
X023965Y006206D01*
X023895Y006048D02*
X024105Y006048D01*
X023690Y005579D02*
X023579Y005690D01*
X014921Y005690D01*
X014421Y005190D01*
X014310Y005079D01*
X014310Y004329D01*
X014171Y004190D01*
X012426Y004190D01*
X012397Y004220D01*
X012302Y004259D01*
X012198Y004259D01*
X012103Y004220D01*
X012030Y004147D01*
X011991Y004052D01*
X011991Y003948D01*
X012030Y003853D01*
X012103Y003780D01*
X012177Y003750D01*
X012103Y003720D01*
X012030Y003647D01*
X011991Y003552D01*
X011991Y003448D01*
X012030Y003353D01*
X012103Y003280D01*
X012177Y003250D01*
X012103Y003220D01*
X012030Y003147D01*
X011991Y003052D01*
X011991Y002948D01*
X012030Y002853D01*
X012103Y002780D01*
X012198Y002741D01*
X012302Y002741D01*
X012397Y002780D01*
X012426Y002810D01*
X014829Y002810D01*
X014940Y002921D01*
X015042Y003023D01*
X015068Y002961D01*
X015160Y002869D01*
X015160Y002682D01*
X015212Y002557D01*
X015462Y002307D01*
X015557Y002212D01*
X015682Y002160D01*
X018109Y002160D01*
X018160Y002109D01*
X018160Y001825D01*
X018030Y001695D01*
X018030Y001305D01*
X018305Y001030D01*
X018695Y001030D01*
X018970Y001305D01*
X018970Y001695D01*
X018840Y001825D01*
X018840Y002318D01*
X018788Y002443D01*
X018693Y002538D01*
X018531Y002700D01*
X018543Y002700D01*
X018629Y002714D01*
X018711Y002740D01*
X018788Y002780D01*
X018858Y002830D01*
X018920Y002892D01*
X018970Y002962D01*
X019010Y003039D01*
X019021Y003074D01*
X019068Y002961D01*
X019211Y002818D01*
X019399Y002740D01*
X019601Y002740D01*
X019789Y002818D01*
X019932Y002961D01*
X020000Y003124D01*
X020068Y002961D01*
X020211Y002818D01*
X020399Y002740D01*
X020601Y002740D01*
X020789Y002818D01*
X020932Y002961D01*
X021000Y003124D01*
X021068Y002961D01*
X021211Y002818D01*
X021399Y002740D01*
X021601Y002740D01*
X021789Y002818D01*
X021932Y002961D01*
X022000Y003124D01*
X022068Y002961D01*
X022211Y002818D01*
X022399Y002740D01*
X022601Y002740D01*
X022789Y002818D01*
X022932Y002961D01*
X023000Y003124D01*
X023068Y002961D01*
X023211Y002818D01*
X023399Y002740D01*
X023601Y002740D01*
X023789Y002818D01*
X023932Y002961D01*
X024000Y003124D01*
X024068Y002961D01*
X024211Y002818D01*
X024399Y002740D01*
X024601Y002740D01*
X024789Y002818D01*
X024932Y002961D01*
X025010Y003149D01*
X025010Y003351D01*
X024932Y003539D01*
X024789Y003682D01*
X024601Y003760D01*
X024399Y003760D01*
X024211Y003682D01*
X024068Y003539D01*
X024000Y003376D01*
X023932Y003539D01*
X023789Y003682D01*
X023601Y003760D01*
X023399Y003760D01*
X023211Y003682D01*
X023068Y003539D01*
X023000Y003376D01*
X022932Y003539D01*
X022789Y003682D01*
X022601Y003760D01*
X022399Y003760D01*
X022211Y003682D01*
X022068Y003539D01*
X022000Y003376D01*
X021932Y003539D01*
X021789Y003682D01*
X021601Y003760D01*
X021399Y003760D01*
X021211Y003682D01*
X021068Y003539D01*
X021000Y003376D01*
X020932Y003539D01*
X020789Y003682D01*
X020601Y003760D01*
X020399Y003760D01*
X020211Y003682D01*
X020068Y003539D01*
X020000Y003376D01*
X019932Y003539D01*
X019789Y003682D01*
X019601Y003760D01*
X019399Y003760D01*
X019211Y003682D01*
X019068Y003539D01*
X019021Y003426D01*
X019010Y003461D01*
X018970Y003538D01*
X018920Y003608D01*
X018858Y003670D01*
X019199Y003670D01*
X019056Y003512D02*
X018984Y003512D01*
X018858Y003670D02*
X018788Y003720D01*
X018711Y003760D01*
X018629Y003786D01*
X018543Y003800D01*
X018520Y003800D01*
X018520Y003270D01*
X018480Y003270D01*
X018480Y003800D01*
X018457Y003800D01*
X018371Y003786D01*
X018289Y003760D01*
X018212Y003720D01*
X018142Y003670D01*
X017801Y003670D01*
X017789Y003682D02*
X017601Y003760D01*
X017399Y003760D01*
X017211Y003682D01*
X017068Y003539D01*
X017000Y003376D01*
X016932Y003539D01*
X016789Y003682D01*
X016601Y003760D01*
X016399Y003760D01*
X016211Y003682D01*
X016068Y003539D01*
X016000Y003376D01*
X015932Y003539D01*
X015789Y003682D01*
X015601Y003760D01*
X015399Y003760D01*
X015211Y003682D01*
X015190Y003661D01*
X015190Y004089D01*
X015211Y004068D01*
X015399Y003990D01*
X015601Y003990D01*
X015789Y004068D01*
X015932Y004211D01*
X016000Y004374D01*
X016068Y004211D01*
X016211Y004068D01*
X016399Y003990D01*
X016601Y003990D01*
X016789Y004068D01*
X016932Y004211D01*
X017000Y004374D01*
X017068Y004211D01*
X017211Y004068D01*
X017399Y003990D01*
X017601Y003990D01*
X017789Y004068D01*
X017932Y004211D01*
X017979Y004324D01*
X017990Y004289D01*
X018030Y004212D01*
X018080Y004142D01*
X018142Y004080D01*
X018212Y004030D01*
X018289Y003990D01*
X018371Y003964D01*
X018457Y003950D01*
X018480Y003950D01*
X018480Y004480D01*
X018520Y004480D01*
X018520Y003950D01*
X018543Y003950D01*
X018629Y003964D01*
X018711Y003990D01*
X018788Y004030D01*
X018858Y004080D01*
X018920Y004142D01*
X018970Y004212D01*
X019010Y004289D01*
X019021Y004324D01*
X019068Y004211D01*
X019211Y004068D01*
X019399Y003990D01*
X019601Y003990D01*
X019789Y004068D01*
X019932Y004211D01*
X020000Y004374D01*
X020068Y004211D01*
X020211Y004068D01*
X020399Y003990D01*
X020601Y003990D01*
X020789Y004068D01*
X020932Y004211D01*
X021000Y004374D01*
X021068Y004211D01*
X021211Y004068D01*
X021399Y003990D01*
X021601Y003990D01*
X021789Y004068D01*
X021932Y004211D01*
X022000Y004374D01*
X022068Y004211D01*
X022211Y004068D01*
X022399Y003990D01*
X022601Y003990D01*
X022789Y004068D01*
X022932Y004211D01*
X023000Y004374D01*
X023068Y004211D01*
X023211Y004068D01*
X023399Y003990D01*
X023601Y003990D01*
X023789Y004068D01*
X023932Y004211D01*
X024000Y004374D01*
X024068Y004211D01*
X024211Y004068D01*
X024399Y003990D01*
X024601Y003990D01*
X024789Y004068D01*
X024932Y004211D01*
X025010Y004399D01*
X025010Y004601D01*
X024932Y004789D01*
X024789Y004932D01*
X024601Y005010D01*
X024399Y005010D01*
X024300Y004969D01*
X023690Y005579D01*
X023697Y005572D02*
X026060Y005572D01*
X026060Y005414D02*
X023855Y005414D01*
X024014Y005255D02*
X026060Y005255D01*
X026060Y005097D02*
X024172Y005097D01*
X024775Y004938D02*
X026060Y004938D01*
X026060Y004780D02*
X024936Y004780D01*
X025002Y004621D02*
X026060Y004621D01*
X026060Y004463D02*
X025010Y004463D01*
X024971Y004304D02*
X026060Y004304D01*
X026060Y004146D02*
X024867Y004146D01*
X024133Y004146D02*
X023867Y004146D01*
X023971Y004304D02*
X024029Y004304D01*
X024199Y003670D02*
X023801Y003670D01*
X023944Y003512D02*
X024056Y003512D01*
X024037Y003036D02*
X023963Y003036D01*
X023849Y002878D02*
X024151Y002878D01*
X024849Y002878D02*
X026060Y002878D01*
X026060Y003036D02*
X024963Y003036D01*
X025010Y003195D02*
X026060Y003195D01*
X026060Y003353D02*
X025009Y003353D01*
X024944Y003512D02*
X026060Y003512D01*
X026060Y003670D02*
X024801Y003670D01*
X026060Y003829D02*
X015190Y003829D01*
X015190Y003987D02*
X018299Y003987D01*
X018480Y003987D02*
X018520Y003987D01*
X018520Y004146D02*
X018480Y004146D01*
X018480Y004304D02*
X018520Y004304D01*
X018520Y004463D02*
X018480Y004463D01*
X018078Y004146D02*
X017867Y004146D01*
X017971Y004304D02*
X017985Y004304D01*
X017789Y003682D02*
X017932Y003539D01*
X017979Y003426D01*
X017990Y003461D01*
X018030Y003538D01*
X018080Y003608D01*
X018142Y003670D01*
X018016Y003512D02*
X017944Y003512D01*
X018480Y003512D02*
X018520Y003512D01*
X018520Y003670D02*
X018480Y003670D01*
X018480Y003353D02*
X018520Y003353D01*
X019008Y003036D02*
X019037Y003036D01*
X019151Y002878D02*
X018905Y002878D01*
X018646Y002719D02*
X026060Y002719D01*
X026060Y002561D02*
X018670Y002561D01*
X018805Y002402D02*
X026060Y002402D01*
X025975Y002244D02*
X018840Y002244D01*
X018840Y002085D02*
X020816Y002085D01*
X021037Y001768D02*
X021103Y001768D01*
X021030Y001610D02*
X020970Y001610D01*
X020970Y001451D02*
X021030Y001451D01*
X021043Y001293D02*
X020957Y001293D01*
X020799Y001134D02*
X021201Y001134D01*
X021799Y001134D02*
X022201Y001134D01*
X022043Y001293D02*
X021957Y001293D01*
X021970Y001451D02*
X022030Y001451D01*
X022030Y001610D02*
X021970Y001610D01*
X021897Y001768D02*
X022103Y001768D01*
X022897Y001768D02*
X023103Y001768D01*
X023030Y001610D02*
X022970Y001610D01*
X022970Y001451D02*
X023030Y001451D01*
X023043Y001293D02*
X022957Y001293D01*
X022799Y001134D02*
X023201Y001134D01*
X023799Y001134D02*
X024201Y001134D01*
X024043Y001293D02*
X023957Y001293D01*
X023970Y001451D02*
X024030Y001451D01*
X024030Y001610D02*
X023970Y001610D01*
X023897Y001768D02*
X024103Y001768D01*
X024897Y001768D02*
X025103Y001768D01*
X025030Y001610D02*
X024970Y001610D01*
X024970Y001451D02*
X025030Y001451D01*
X025043Y001293D02*
X024957Y001293D01*
X024799Y001134D02*
X025201Y001134D01*
X025799Y001134D02*
X026290Y001134D01*
X026290Y000976D02*
X007710Y000976D01*
X007710Y001134D02*
X011201Y001134D01*
X011305Y001030D02*
X011030Y001305D01*
X011030Y001695D01*
X011305Y001970D01*
X011695Y001970D01*
X011970Y001695D01*
X011970Y001305D01*
X011695Y001030D01*
X011305Y001030D01*
X011043Y001293D02*
X007710Y001293D01*
X007710Y001451D02*
X011030Y001451D01*
X011030Y001610D02*
X007710Y001610D01*
X007710Y001768D02*
X011103Y001768D01*
X011262Y001927D02*
X007710Y001927D01*
X007710Y002085D02*
X018160Y002085D01*
X018160Y001927D02*
X017795Y001927D01*
X017711Y002010D02*
X017518Y002010D01*
X017518Y001518D01*
X017482Y001518D01*
X017482Y002010D01*
X017289Y002010D01*
X017000Y001721D01*
X016711Y002010D01*
X016518Y002010D01*
X016518Y001518D01*
X016482Y001518D01*
X016482Y002010D01*
X016289Y002010D01*
X015990Y001711D01*
X015990Y001518D01*
X016482Y001518D01*
X016482Y001482D01*
X016518Y001482D01*
X016518Y000990D01*
X016711Y000990D01*
X017000Y001279D01*
X017289Y000990D01*
X017482Y000990D01*
X017482Y001482D01*
X017518Y001482D01*
X017518Y001518D01*
X018010Y001518D01*
X018010Y001711D01*
X017711Y002010D01*
X017518Y001927D02*
X017482Y001927D01*
X017482Y001768D02*
X017518Y001768D01*
X017518Y001610D02*
X017482Y001610D01*
X017482Y001518D02*
X017482Y001482D01*
X016518Y001482D01*
X016518Y001518D01*
X017010Y001518D01*
X017482Y001518D01*
X017518Y001482D02*
X018010Y001482D01*
X018010Y001289D01*
X017711Y000990D01*
X017518Y000990D01*
X017518Y001482D01*
X017518Y001451D02*
X017482Y001451D01*
X017482Y001293D02*
X017518Y001293D01*
X017518Y001134D02*
X017482Y001134D01*
X017855Y001134D02*
X018201Y001134D01*
X018043Y001293D02*
X018010Y001293D01*
X018010Y001451D02*
X018030Y001451D01*
X018030Y001610D02*
X018010Y001610D01*
X017953Y001768D02*
X018103Y001768D01*
X018840Y001927D02*
X020262Y001927D01*
X020103Y001768D02*
X018897Y001768D01*
X018970Y001610D02*
X020030Y001610D01*
X020030Y001451D02*
X018970Y001451D01*
X018957Y001293D02*
X020043Y001293D01*
X020201Y001134D02*
X018799Y001134D01*
X017205Y001927D02*
X016795Y001927D01*
X016953Y001768D02*
X017047Y001768D01*
X016518Y001768D02*
X016482Y001768D01*
X016482Y001610D02*
X016518Y001610D01*
X016482Y001482D02*
X015990Y001482D01*
X015990Y001289D01*
X016289Y000990D01*
X016482Y000990D01*
X016482Y001482D01*
X016482Y001451D02*
X016518Y001451D01*
X016518Y001293D02*
X016482Y001293D01*
X016482Y001134D02*
X016518Y001134D01*
X016855Y001134D02*
X017145Y001134D01*
X016145Y001134D02*
X015799Y001134D01*
X015695Y001030D02*
X015970Y001305D01*
X015970Y001695D01*
X015695Y001970D01*
X015305Y001970D01*
X015030Y001695D01*
X015030Y001305D01*
X015305Y001030D01*
X015695Y001030D01*
X015957Y001293D02*
X015990Y001293D01*
X015990Y001451D02*
X015970Y001451D01*
X015970Y001610D02*
X015990Y001610D01*
X016047Y001768D02*
X015897Y001768D01*
X015738Y001927D02*
X016205Y001927D01*
X016482Y001927D02*
X016518Y001927D01*
X015526Y002244D02*
X007710Y002244D01*
X007710Y002402D02*
X015367Y002402D01*
X015210Y002561D02*
X007710Y002561D01*
X007710Y002719D02*
X015160Y002719D01*
X015151Y002878D02*
X014896Y002878D01*
X015190Y003670D02*
X015199Y003670D01*
X015801Y003670D02*
X016199Y003670D01*
X016056Y003512D02*
X015944Y003512D01*
X015867Y004146D02*
X016133Y004146D01*
X016029Y004304D02*
X015971Y004304D01*
X016867Y004146D02*
X017133Y004146D01*
X017029Y004304D02*
X016971Y004304D01*
X016801Y003670D02*
X017199Y003670D01*
X017056Y003512D02*
X016944Y003512D01*
X018701Y003987D02*
X026060Y003987D01*
X026060Y005731D02*
X007710Y005731D01*
X007710Y005889D02*
X026060Y005889D01*
X026060Y006048D02*
X024895Y006048D01*
X024965Y006206D02*
X026060Y006206D01*
X026060Y006365D02*
X024965Y006365D01*
X024965Y006523D02*
X026060Y006523D01*
X026060Y006682D02*
X024965Y006682D01*
X024965Y006840D02*
X026060Y006840D01*
X026060Y006999D02*
X007710Y006999D01*
X007710Y007157D02*
X009035Y007157D01*
X009035Y007117D02*
X009117Y007035D01*
X009883Y007035D01*
X009965Y007117D01*
X009965Y007883D01*
X009883Y007965D01*
X009117Y007965D01*
X009035Y007883D01*
X009035Y007117D01*
X009117Y006965D02*
X009035Y006883D01*
X009035Y006117D01*
X009117Y006035D01*
X009883Y006035D01*
X009965Y006117D01*
X009965Y006883D01*
X009883Y006965D01*
X009117Y006965D01*
X009035Y006840D02*
X007710Y006840D01*
X007710Y006682D02*
X009035Y006682D01*
X009035Y006523D02*
X007710Y006523D01*
X007710Y006365D02*
X009035Y006365D01*
X009035Y006206D02*
X007710Y006206D01*
X007710Y006048D02*
X009105Y006048D01*
X009895Y006048D02*
X010105Y006048D01*
X010117Y006035D02*
X010883Y006035D01*
X010965Y006117D01*
X010965Y006883D01*
X010883Y006965D01*
X010117Y006965D01*
X010035Y006883D01*
X010035Y006117D01*
X010117Y006035D01*
X010035Y006206D02*
X009965Y006206D01*
X009965Y006365D02*
X010035Y006365D01*
X010035Y006523D02*
X009965Y006523D01*
X009965Y006682D02*
X010035Y006682D01*
X010035Y006840D02*
X009965Y006840D01*
X010117Y007035D02*
X010883Y007035D01*
X010965Y007117D01*
X010965Y007883D01*
X010883Y007965D01*
X010117Y007965D01*
X010035Y007883D01*
X010035Y007117D01*
X010117Y007035D01*
X010035Y007157D02*
X009965Y007157D01*
X009965Y007316D02*
X010035Y007316D01*
X010035Y007474D02*
X009965Y007474D01*
X009965Y007633D02*
X010035Y007633D01*
X010035Y007791D02*
X009965Y007791D01*
X009898Y007950D02*
X010102Y007950D01*
X010117Y008035D02*
X010883Y008035D01*
X010965Y008117D01*
X010965Y008883D01*
X010883Y008965D01*
X010117Y008965D01*
X010035Y008883D01*
X010035Y008117D01*
X010117Y008035D01*
X010044Y008108D02*
X009956Y008108D01*
X009965Y008117D02*
X009883Y008035D01*
X009117Y008035D01*
X009035Y008117D01*
X009035Y008883D01*
X009117Y008965D01*
X009883Y008965D01*
X009965Y008883D01*
X009965Y008117D01*
X009965Y008267D02*
X010035Y008267D01*
X010035Y008425D02*
X009965Y008425D01*
X009965Y008584D02*
X010035Y008584D01*
X010035Y008742D02*
X009965Y008742D01*
X009947Y008901D02*
X010053Y008901D01*
X010117Y009035D02*
X010883Y009035D01*
X010965Y009117D01*
X010965Y009883D01*
X010883Y009965D01*
X010117Y009965D01*
X010035Y009883D01*
X010035Y009117D01*
X010117Y009035D01*
X010093Y009059D02*
X009907Y009059D01*
X009883Y009035D02*
X009965Y009117D01*
X009965Y009883D01*
X009883Y009965D01*
X009117Y009965D01*
X009035Y009883D01*
X009035Y009117D01*
X009117Y009035D01*
X009883Y009035D01*
X009965Y009218D02*
X010035Y009218D01*
X010035Y009376D02*
X009965Y009376D01*
X009965Y009535D02*
X010035Y009535D01*
X010035Y009693D02*
X009965Y009693D01*
X009965Y009852D02*
X010035Y009852D01*
X010117Y010035D02*
X010883Y010035D01*
X010965Y010117D01*
X010965Y010883D01*
X010883Y010965D01*
X010117Y010965D01*
X010035Y010883D01*
X010035Y010117D01*
X010117Y010035D01*
X010035Y010169D02*
X009965Y010169D01*
X009965Y010117D02*
X009883Y010035D01*
X009117Y010035D01*
X009035Y010117D01*
X009035Y010883D01*
X009117Y010965D01*
X009883Y010965D01*
X009965Y010883D01*
X009965Y010117D01*
X009965Y010327D02*
X010035Y010327D01*
X010035Y010486D02*
X009965Y010486D01*
X009965Y010644D02*
X010035Y010644D01*
X010035Y010803D02*
X009965Y010803D01*
X009887Y010961D02*
X010113Y010961D01*
X010117Y011035D02*
X010883Y011035D01*
X010965Y011117D01*
X010965Y011883D01*
X010883Y011965D01*
X010117Y011965D01*
X010035Y011883D01*
X010035Y011117D01*
X010117Y011035D01*
X010035Y011120D02*
X009965Y011120D01*
X009965Y011117D02*
X009883Y011035D01*
X009117Y011035D01*
X009035Y011117D01*
X009035Y011883D01*
X009117Y011965D01*
X009883Y011965D01*
X009965Y011883D01*
X009965Y011117D01*
X009965Y011278D02*
X010035Y011278D01*
X010035Y011437D02*
X009965Y011437D01*
X009965Y011595D02*
X010035Y011595D01*
X010035Y011754D02*
X009965Y011754D01*
X009936Y011912D02*
X010064Y011912D01*
X010117Y012035D02*
X010883Y012035D01*
X010965Y012117D01*
X010965Y012883D01*
X010883Y012965D01*
X010117Y012965D01*
X010035Y012883D01*
X010035Y012117D01*
X010117Y012035D01*
X010081Y012071D02*
X009919Y012071D01*
X009883Y012035D02*
X009965Y012117D01*
X009965Y012883D01*
X009883Y012965D01*
X009117Y012965D01*
X009035Y012883D01*
X009035Y012117D01*
X009117Y012035D01*
X009883Y012035D01*
X009965Y012229D02*
X010035Y012229D01*
X010035Y012388D02*
X009965Y012388D01*
X009965Y012546D02*
X010035Y012546D01*
X010035Y012705D02*
X009965Y012705D01*
X009965Y012863D02*
X010035Y012863D01*
X010117Y013035D02*
X010883Y013035D01*
X010965Y013117D01*
X010965Y013883D01*
X010883Y013965D01*
X010117Y013965D01*
X010035Y013883D01*
X010035Y013117D01*
X010117Y013035D01*
X010035Y013180D02*
X009965Y013180D01*
X009965Y013117D02*
X009883Y013035D01*
X009117Y013035D01*
X009035Y013117D01*
X009035Y013883D01*
X009117Y013965D01*
X009883Y013965D01*
X009965Y013883D01*
X009965Y013117D01*
X009965Y013339D02*
X010035Y013339D01*
X010035Y013497D02*
X009965Y013497D01*
X009965Y013656D02*
X010035Y013656D01*
X010035Y013814D02*
X009965Y013814D01*
X009883Y014035D02*
X009965Y014117D01*
X009965Y014883D01*
X009883Y014965D01*
X009117Y014965D01*
X009035Y014883D01*
X009035Y014117D01*
X009117Y014035D01*
X009883Y014035D01*
X009965Y014131D02*
X010035Y014131D01*
X010035Y014117D02*
X010117Y014035D01*
X010883Y014035D01*
X010965Y014117D01*
X010965Y014883D01*
X010883Y014965D01*
X010117Y014965D01*
X010035Y014883D01*
X010035Y014117D01*
X010035Y014290D02*
X009965Y014290D01*
X009965Y014448D02*
X010035Y014448D01*
X010035Y014607D02*
X009965Y014607D01*
X009965Y014765D02*
X010035Y014765D01*
X010076Y014924D02*
X009924Y014924D01*
X009076Y014924D02*
X007710Y014924D01*
X007710Y015082D02*
X026060Y015082D01*
X026060Y014924D02*
X024924Y014924D01*
X024965Y014765D02*
X026060Y014765D01*
X026060Y014607D02*
X024965Y014607D01*
X024965Y014448D02*
X026060Y014448D01*
X026060Y014290D02*
X024965Y014290D01*
X024965Y014131D02*
X026060Y014131D01*
X026060Y013973D02*
X007710Y013973D01*
X007710Y014131D02*
X009035Y014131D01*
X009035Y014290D02*
X007710Y014290D01*
X007710Y014448D02*
X009035Y014448D01*
X009035Y014607D02*
X007710Y014607D01*
X007710Y014765D02*
X009035Y014765D01*
X009035Y013814D02*
X007710Y013814D01*
X007710Y013656D02*
X009035Y013656D01*
X009035Y013497D02*
X007710Y013497D01*
X007710Y013339D02*
X009035Y013339D01*
X009035Y013180D02*
X007710Y013180D01*
X007710Y013022D02*
X026060Y013022D01*
X026060Y013180D02*
X024965Y013180D01*
X024965Y013339D02*
X026060Y013339D01*
X026060Y013497D02*
X024965Y013497D01*
X024965Y013656D02*
X026060Y013656D01*
X026060Y013814D02*
X024965Y013814D01*
X024965Y012863D02*
X026060Y012863D01*
X026060Y012705D02*
X024965Y012705D01*
X024965Y012546D02*
X026060Y012546D01*
X026060Y012388D02*
X024965Y012388D01*
X024965Y012229D02*
X026060Y012229D01*
X026060Y012071D02*
X024919Y012071D01*
X024936Y011912D02*
X026060Y011912D01*
X026060Y011754D02*
X024965Y011754D01*
X024965Y011595D02*
X026060Y011595D01*
X026060Y011437D02*
X024965Y011437D01*
X024965Y011278D02*
X026060Y011278D01*
X026060Y011120D02*
X024965Y011120D01*
X024887Y010961D02*
X026060Y010961D01*
X026060Y010803D02*
X024965Y010803D01*
X024965Y010644D02*
X026060Y010644D01*
X026060Y010486D02*
X024965Y010486D01*
X024965Y010327D02*
X026060Y010327D01*
X026060Y010169D02*
X024965Y010169D01*
X024965Y009852D02*
X026060Y009852D01*
X026060Y010010D02*
X007710Y010010D01*
X007710Y009852D02*
X009035Y009852D01*
X009035Y009693D02*
X007710Y009693D01*
X007710Y009535D02*
X009035Y009535D01*
X009035Y009376D02*
X007710Y009376D01*
X007710Y009218D02*
X009035Y009218D01*
X009093Y009059D02*
X007710Y009059D01*
X007710Y008901D02*
X009053Y008901D01*
X009035Y008742D02*
X007710Y008742D01*
X007710Y008584D02*
X009035Y008584D01*
X009035Y008425D02*
X007710Y008425D01*
X007710Y008267D02*
X009035Y008267D01*
X009044Y008108D02*
X007710Y008108D01*
X007710Y007950D02*
X009102Y007950D01*
X009035Y007791D02*
X007710Y007791D01*
X007710Y007633D02*
X009035Y007633D01*
X009035Y007474D02*
X007710Y007474D01*
X007710Y007316D02*
X009035Y007316D01*
X010965Y007316D02*
X011035Y007316D01*
X011035Y007474D02*
X010965Y007474D01*
X010965Y007633D02*
X011035Y007633D01*
X011035Y007791D02*
X010965Y007791D01*
X010898Y007950D02*
X011102Y007950D01*
X011044Y008108D02*
X010956Y008108D01*
X010965Y008267D02*
X011035Y008267D01*
X011035Y008425D02*
X010965Y008425D01*
X010965Y008584D02*
X011035Y008584D01*
X011035Y008742D02*
X010965Y008742D01*
X010947Y008901D02*
X011053Y008901D01*
X011093Y009059D02*
X010907Y009059D01*
X010965Y009218D02*
X011035Y009218D01*
X011035Y009376D02*
X010965Y009376D01*
X010965Y009535D02*
X011035Y009535D01*
X011035Y009693D02*
X010965Y009693D01*
X010965Y009852D02*
X011035Y009852D01*
X011035Y010169D02*
X010965Y010169D01*
X010965Y010327D02*
X011035Y010327D01*
X011035Y010486D02*
X010965Y010486D01*
X010965Y010644D02*
X011035Y010644D01*
X011035Y010803D02*
X010965Y010803D01*
X010887Y010961D02*
X011113Y010961D01*
X011035Y011120D02*
X010965Y011120D01*
X010965Y011278D02*
X011035Y011278D01*
X011035Y011437D02*
X010965Y011437D01*
X010965Y011595D02*
X011035Y011595D01*
X011035Y011754D02*
X010965Y011754D01*
X010936Y011912D02*
X011064Y011912D01*
X011081Y012071D02*
X010919Y012071D01*
X010965Y012229D02*
X011035Y012229D01*
X011035Y012388D02*
X010965Y012388D01*
X010965Y012546D02*
X011035Y012546D01*
X011035Y012705D02*
X010965Y012705D01*
X010965Y012863D02*
X011035Y012863D01*
X011035Y013180D02*
X010965Y013180D01*
X010965Y013339D02*
X011035Y013339D01*
X011035Y013497D02*
X010965Y013497D01*
X010965Y013656D02*
X011035Y013656D01*
X011035Y013814D02*
X010965Y013814D01*
X010965Y014131D02*
X011035Y014131D01*
X011035Y014290D02*
X010965Y014290D01*
X010965Y014448D02*
X011035Y014448D01*
X011035Y014607D02*
X010965Y014607D01*
X010965Y014765D02*
X011035Y014765D01*
X011076Y014924D02*
X010924Y014924D01*
X009035Y012863D02*
X007710Y012863D01*
X007710Y012705D02*
X009035Y012705D01*
X009035Y012546D02*
X007710Y012546D01*
X007710Y012388D02*
X009035Y012388D01*
X009035Y012229D02*
X007710Y012229D01*
X007710Y012071D02*
X009081Y012071D01*
X009064Y011912D02*
X007710Y011912D01*
X007710Y011754D02*
X009035Y011754D01*
X009035Y011595D02*
X007710Y011595D01*
X007710Y011437D02*
X009035Y011437D01*
X009035Y011278D02*
X007710Y011278D01*
X007710Y011120D02*
X009035Y011120D01*
X009113Y010961D02*
X007710Y010961D01*
X007710Y010803D02*
X009035Y010803D01*
X009035Y010644D02*
X007710Y010644D01*
X007710Y010486D02*
X009035Y010486D01*
X009035Y010327D02*
X007710Y010327D01*
X007710Y010169D02*
X009035Y010169D01*
X010965Y007157D02*
X011035Y007157D01*
X011035Y006840D02*
X010965Y006840D01*
X010965Y006682D02*
X011035Y006682D01*
X011035Y006523D02*
X010965Y006523D01*
X010965Y006365D02*
X011035Y006365D01*
X011035Y006206D02*
X010965Y006206D01*
X010895Y006048D02*
X011105Y006048D01*
X012030Y004146D02*
X007710Y004146D01*
X007710Y004304D02*
X014285Y004304D01*
X014310Y004463D02*
X007710Y004463D01*
X007710Y004621D02*
X014310Y004621D01*
X014310Y004780D02*
X007710Y004780D01*
X007710Y004938D02*
X014310Y004938D01*
X014328Y005097D02*
X007710Y005097D01*
X007710Y005255D02*
X014486Y005255D01*
X014645Y005414D02*
X007710Y005414D01*
X007710Y005572D02*
X014803Y005572D01*
X011991Y003987D02*
X010647Y003987D01*
X010645Y003989D02*
X010637Y004013D01*
X010609Y004027D01*
X010607Y004031D01*
X010600Y004034D01*
X010581Y004053D01*
X010556Y004053D01*
X010555Y004054D01*
X010554Y004057D01*
X010525Y004069D01*
X010510Y004076D01*
X010508Y004076D01*
X010505Y004077D01*
X010459Y004100D01*
X010452Y004098D01*
X010446Y004100D01*
X010398Y004080D01*
X010395Y004079D01*
X010391Y004081D01*
X010357Y004066D01*
X010349Y004063D01*
X010348Y004062D01*
X010346Y004061D01*
X010298Y004048D01*
X010298Y004046D01*
X010261Y004031D01*
X010216Y004019D01*
X010215Y004018D01*
X010193Y004018D01*
X010178Y004003D01*
X010157Y003997D01*
X010138Y003963D01*
X010111Y003936D01*
X010111Y003914D01*
X010100Y003895D01*
X010111Y003858D01*
X010111Y003614D01*
X010100Y003577D01*
X010111Y003558D01*
X010111Y003536D01*
X010138Y003509D01*
X010157Y003476D01*
X010178Y003470D01*
X010193Y003454D01*
X010228Y003454D01*
X010240Y003450D01*
X010243Y003444D01*
X010279Y003434D01*
X010298Y003426D01*
X010298Y003425D01*
X010338Y003413D01*
X010343Y003412D01*
X010346Y003411D01*
X010348Y003410D01*
X010349Y003409D01*
X010357Y003406D01*
X010391Y003392D01*
X010395Y003394D01*
X010398Y003393D01*
X010446Y003372D01*
X010452Y003375D01*
X010459Y003372D01*
X010505Y003396D01*
X010554Y003415D01*
X010581Y003415D01*
X010598Y003433D01*
X010622Y003441D01*
X010638Y003472D01*
X010663Y003497D01*
X010663Y003522D01*
X010674Y003544D01*
X010663Y003578D01*
X010663Y003880D01*
X010674Y003903D01*
X010663Y003936D01*
X010663Y003971D01*
X010645Y003989D01*
X010663Y003829D02*
X012055Y003829D01*
X012054Y003670D02*
X010663Y003670D01*
X010663Y003512D02*
X011991Y003512D01*
X012031Y003353D02*
X007710Y003353D01*
X007710Y003195D02*
X012078Y003195D01*
X011991Y003036D02*
X007710Y003036D01*
X007710Y002878D02*
X012020Y002878D01*
X012305Y001970D02*
X012030Y001695D01*
X012030Y001305D01*
X012305Y001030D01*
X012695Y001030D01*
X012970Y001305D01*
X012970Y001695D01*
X012695Y001970D01*
X012305Y001970D01*
X012262Y001927D02*
X011738Y001927D01*
X011897Y001768D02*
X012103Y001768D01*
X012030Y001610D02*
X011970Y001610D01*
X011970Y001451D02*
X012030Y001451D01*
X012043Y001293D02*
X011957Y001293D01*
X011799Y001134D02*
X012201Y001134D01*
X012799Y001134D02*
X013201Y001134D01*
X013305Y001030D02*
X013030Y001305D01*
X013030Y001695D01*
X013305Y001970D01*
X013695Y001970D01*
X013970Y001695D01*
X013970Y001305D01*
X013695Y001030D01*
X013305Y001030D01*
X013043Y001293D02*
X012957Y001293D01*
X012970Y001451D02*
X013030Y001451D01*
X013030Y001610D02*
X012970Y001610D01*
X012897Y001768D02*
X013103Y001768D01*
X013262Y001927D02*
X012738Y001927D01*
X013738Y001927D02*
X014262Y001927D01*
X014305Y001970D02*
X014030Y001695D01*
X014030Y001305D01*
X014305Y001030D01*
X014695Y001030D01*
X014970Y001305D01*
X014970Y001695D01*
X014695Y001970D01*
X014305Y001970D01*
X014103Y001768D02*
X013897Y001768D01*
X013970Y001610D02*
X014030Y001610D01*
X014030Y001451D02*
X013970Y001451D01*
X013957Y001293D02*
X014043Y001293D01*
X014201Y001134D02*
X013799Y001134D01*
X014799Y001134D02*
X015201Y001134D01*
X015043Y001293D02*
X014957Y001293D01*
X014970Y001451D02*
X015030Y001451D01*
X015030Y001610D02*
X014970Y001610D01*
X014897Y001768D02*
X015103Y001768D01*
X015262Y001927D02*
X014738Y001927D01*
X018922Y004146D02*
X019133Y004146D01*
X019029Y004304D02*
X019015Y004304D01*
X019867Y004146D02*
X020133Y004146D01*
X020029Y004304D02*
X019971Y004304D01*
X019801Y003670D02*
X020199Y003670D01*
X020056Y003512D02*
X019944Y003512D01*
X019963Y003036D02*
X020037Y003036D01*
X020151Y002878D02*
X019849Y002878D01*
X020849Y002878D02*
X021151Y002878D01*
X021037Y003036D02*
X020963Y003036D01*
X020944Y003512D02*
X021056Y003512D01*
X021199Y003670D02*
X020801Y003670D01*
X020867Y004146D02*
X021133Y004146D01*
X021029Y004304D02*
X020971Y004304D01*
X021867Y004146D02*
X022133Y004146D01*
X022029Y004304D02*
X021971Y004304D01*
X021801Y003670D02*
X022199Y003670D01*
X022056Y003512D02*
X021944Y003512D01*
X021963Y003036D02*
X022037Y003036D01*
X022151Y002878D02*
X021849Y002878D01*
X022849Y002878D02*
X023151Y002878D01*
X023037Y003036D02*
X022963Y003036D01*
X022944Y003512D02*
X023056Y003512D01*
X023199Y003670D02*
X022801Y003670D01*
X022867Y004146D02*
X023133Y004146D01*
X023029Y004304D02*
X022971Y004304D01*
X025897Y001768D02*
X026471Y001768D01*
X026313Y001610D02*
X025970Y001610D01*
X025970Y001451D02*
X026290Y001451D01*
X026290Y001293D02*
X025957Y001293D01*
X026290Y000817D02*
X007710Y000817D01*
X010343Y003412D02*
X010343Y003412D01*
X010136Y003512D02*
X007710Y003512D01*
X007710Y003670D02*
X010111Y003670D01*
X010111Y003829D02*
X007710Y003829D01*
X007710Y003987D02*
X010151Y003987D01*
X007710Y015241D02*
X026060Y015241D01*
X026060Y015399D02*
X007710Y015399D01*
X007710Y015558D02*
X026060Y015558D01*
X026060Y015716D02*
X007710Y015716D01*
X024907Y009059D02*
X026060Y009059D01*
X026060Y008901D02*
X024947Y008901D01*
X024965Y008742D02*
X026060Y008742D01*
X026060Y008584D02*
X024965Y008584D01*
X024965Y008425D02*
X026060Y008425D01*
X026060Y008267D02*
X024965Y008267D01*
X024956Y008108D02*
X026060Y008108D01*
X026060Y007950D02*
X024898Y007950D01*
X024965Y007791D02*
X026060Y007791D01*
X026060Y007633D02*
X024965Y007633D01*
X024965Y007474D02*
X026060Y007474D01*
X026060Y007316D02*
X024965Y007316D01*
X024965Y007157D02*
X026060Y007157D01*
X026060Y009218D02*
X024965Y009218D01*
X024965Y009376D02*
X026060Y009376D01*
X026060Y009535D02*
X024965Y009535D01*
X024965Y009693D02*
X026060Y009693D01*
D22*
X024500Y009500D03*
X024500Y008500D03*
X023500Y008500D03*
X022500Y008500D03*
X022500Y009500D03*
X023500Y009500D03*
X023500Y010500D03*
X022500Y010500D03*
X021500Y010500D03*
X020500Y010500D03*
X019500Y010500D03*
X018500Y010500D03*
X017500Y010500D03*
X016500Y010500D03*
X015500Y010500D03*
X014500Y010500D03*
X013500Y010500D03*
X012500Y010500D03*
X011500Y010500D03*
X010500Y010500D03*
X009500Y010500D03*
X009500Y009500D03*
X010500Y009500D03*
X010500Y008500D03*
X009500Y008500D03*
X009500Y007500D03*
X010500Y007500D03*
X011500Y007500D03*
X012500Y007500D03*
X013500Y007500D03*
X014500Y007500D03*
X015500Y007500D03*
X016500Y007500D03*
X017500Y007500D03*
X018500Y007500D03*
X019500Y007500D03*
X020500Y007500D03*
X021500Y007500D03*
X022500Y007500D03*
X023500Y007500D03*
X024500Y007500D03*
X024500Y006500D03*
X023500Y006500D03*
X022500Y006500D03*
X021500Y006500D03*
X020500Y006500D03*
X019500Y006500D03*
X018500Y006500D03*
X017500Y006500D03*
X016500Y006500D03*
X015500Y006500D03*
X014500Y006500D03*
X013500Y006500D03*
X012500Y006500D03*
X011500Y006500D03*
X010500Y006500D03*
X009500Y006500D03*
X011500Y008500D03*
X011500Y009500D03*
X012500Y009500D03*
X013500Y009500D03*
X013500Y008500D03*
X012500Y008500D03*
X014500Y008500D03*
X015500Y008500D03*
X015500Y009500D03*
X014500Y009500D03*
X016500Y009500D03*
X016500Y008500D03*
X017500Y008500D03*
X018500Y008500D03*
X018500Y009500D03*
X017500Y009500D03*
X019500Y009500D03*
X019500Y008500D03*
X020500Y008500D03*
X021500Y008500D03*
X021500Y009500D03*
X020500Y009500D03*
X020500Y011500D03*
X021500Y011500D03*
X021500Y012500D03*
X020500Y012500D03*
X019500Y012500D03*
X019500Y011500D03*
X018500Y011500D03*
X017500Y011500D03*
X017500Y012500D03*
X018500Y012500D03*
X018500Y013500D03*
X017500Y013500D03*
X017500Y014500D03*
X018500Y014500D03*
X019500Y014500D03*
X019500Y013500D03*
X020500Y013500D03*
X021500Y013500D03*
X021500Y014500D03*
X020500Y014500D03*
X022500Y014500D03*
X023500Y014500D03*
X023500Y013500D03*
X022500Y013500D03*
X022500Y012500D03*
X023500Y012500D03*
X023500Y011500D03*
X022500Y011500D03*
X024500Y011500D03*
X024500Y012500D03*
X024500Y013500D03*
X024500Y014500D03*
X024500Y010500D03*
X016500Y011500D03*
X016500Y012500D03*
X015500Y012500D03*
X014500Y012500D03*
X014500Y011500D03*
X015500Y011500D03*
X013500Y011500D03*
X012500Y011500D03*
X012500Y012500D03*
X013500Y012500D03*
X013500Y013500D03*
X012500Y013500D03*
X012500Y014500D03*
X013500Y014500D03*
X014500Y014500D03*
X015500Y014500D03*
X015500Y013500D03*
X014500Y013500D03*
X016500Y013500D03*
X016500Y014500D03*
X011500Y014500D03*
X011500Y013500D03*
X010500Y013500D03*
X009500Y013500D03*
X009500Y014500D03*
X010500Y014500D03*
X010500Y012500D03*
X009500Y012500D03*
X009500Y011500D03*
X010500Y011500D03*
X011500Y011500D03*
X011500Y012500D03*
M02*
