G75*
G70*
%OFA0B0*%
%FSLAX24Y24*%
%IPPOS*%
%LPD*%
%AMOC8*
5,1,8,0,0,1.08239X$1,22.5*
%
%ADD10C,0.0060*%
%ADD11R,0.0870X0.0240*%
%ADD12R,0.0460X0.0630*%
%ADD13OC8,0.0660*%
%ADD14C,0.0560*%
%ADD15OC8,0.0560*%
%ADD16C,0.0740*%
%ADD17C,0.0400*%
%ADD18C,0.0100*%
%ADD19C,0.0238*%
%ADD20C,0.0160*%
%ADD21R,0.0650X0.0650*%
D10*
X007500Y000500D02*
X026500Y000500D01*
X026500Y001500D01*
X027500Y002500D01*
X027500Y015500D01*
X026500Y016500D01*
X026500Y021000D01*
X026000Y021500D01*
X007500Y021500D01*
X007500Y000500D01*
D11*
X009470Y003000D03*
X009470Y003500D03*
X009470Y004000D03*
X009470Y004500D03*
X011530Y004500D03*
X011530Y004000D03*
X011530Y003500D03*
X011530Y003000D03*
D12*
X010800Y002250D03*
X010200Y002250D03*
D13*
X011500Y001500D03*
X012500Y001500D03*
X013500Y001500D03*
X014500Y001500D03*
X015500Y001500D03*
X016500Y001500D03*
X017500Y001500D03*
X018500Y001500D03*
X020500Y001500D03*
X021500Y001500D03*
X022500Y001500D03*
X023500Y001500D03*
X024500Y001500D03*
X025500Y001500D03*
X025500Y020500D03*
X024500Y020500D03*
X023500Y020500D03*
X022500Y020500D03*
X021500Y020500D03*
X020500Y020500D03*
X019500Y020500D03*
X018500Y020500D03*
X016900Y020500D03*
X015900Y020500D03*
X014900Y020500D03*
X013900Y020500D03*
X012900Y020500D03*
X011900Y020500D03*
X010900Y020500D03*
X009900Y020500D03*
X008900Y020500D03*
X007900Y020500D03*
D14*
X024500Y018750D03*
D15*
X023500Y018750D03*
X022500Y018750D03*
X021500Y018750D03*
X020500Y018750D03*
X019500Y018750D03*
X018500Y018750D03*
X017500Y018750D03*
X016500Y018750D03*
X015500Y018750D03*
X014500Y018750D03*
X013500Y018750D03*
X012500Y018750D03*
X011500Y018750D03*
X010500Y018750D03*
X009500Y018750D03*
X009500Y017750D03*
X010500Y017750D03*
X011500Y017750D03*
X012500Y017750D03*
X013500Y017750D03*
X014500Y017750D03*
X015500Y017750D03*
X016500Y017750D03*
X017500Y017750D03*
X018500Y017750D03*
X019500Y017750D03*
X020500Y017750D03*
X021500Y017750D03*
X022500Y017750D03*
X023500Y017750D03*
X024500Y017750D03*
D16*
X022500Y016500D03*
X021500Y016500D03*
X020500Y016500D03*
X019500Y016500D03*
X018500Y016500D03*
X017500Y016500D03*
X016500Y016500D03*
X015500Y016500D03*
X014500Y016500D03*
X013500Y016500D03*
X012500Y016500D03*
X011500Y016500D03*
X015500Y004500D03*
X016500Y004500D03*
X017500Y004500D03*
X018500Y004500D03*
X019500Y004500D03*
X020500Y004500D03*
X021500Y004500D03*
X022500Y004500D03*
X023500Y004500D03*
X024500Y004500D03*
X024500Y003250D03*
X023500Y003250D03*
X022500Y003250D03*
X021500Y003250D03*
X020500Y003250D03*
X019500Y003250D03*
X018500Y003250D03*
X017500Y003250D03*
X016500Y003250D03*
X015500Y003250D03*
D17*
X015500Y004500D01*
X015000Y005250D02*
X014500Y004750D01*
X014500Y002250D01*
X014500Y002000D01*
X014500Y001500D01*
X015500Y001500D02*
X016500Y002500D01*
X016500Y003250D01*
X016500Y004500D01*
X017000Y005250D02*
X017500Y004750D01*
X017500Y004500D01*
X017500Y003250D01*
X018500Y003250D02*
X018500Y002500D01*
X017500Y001500D01*
X016500Y001500D01*
X018500Y003250D02*
X018500Y004500D01*
X017000Y005250D02*
X015000Y005250D01*
D18*
X015000Y005750D02*
X013500Y004250D01*
X009500Y004250D01*
X009470Y004220D01*
X009470Y004000D01*
X009500Y004250D02*
X008250Y004250D01*
X008000Y004500D01*
X008000Y020400D01*
X007900Y020500D01*
X008900Y020500D02*
X008900Y006100D01*
X009250Y005750D01*
X009500Y005750D01*
X009470Y005720D01*
X009470Y004500D01*
X009470Y003500D02*
X009000Y003500D01*
X008750Y003250D01*
X008750Y002500D01*
X009000Y002250D01*
X010200Y002250D01*
X010750Y002300D02*
X010750Y002750D01*
X010500Y003000D01*
X009470Y003000D01*
X010750Y002300D02*
X010800Y002250D01*
X014500Y002250D01*
X014500Y002000D02*
X012750Y002000D01*
X012500Y001750D01*
X012500Y001500D01*
X013500Y001500D02*
X013500Y001250D01*
X013750Y001000D01*
X019250Y001000D01*
X019500Y001250D01*
X019500Y003250D01*
X020500Y004500D02*
X020500Y004750D01*
X019750Y005500D01*
X019500Y005750D01*
X015000Y005750D01*
X014750Y006000D02*
X020000Y006000D01*
X021500Y004500D01*
X022750Y002750D02*
X021500Y001500D01*
X022500Y001500D02*
X023500Y002500D01*
X025250Y002500D01*
X025500Y002750D01*
X025500Y016750D01*
X025250Y017000D01*
X024000Y017000D01*
X023500Y017500D01*
X023500Y017750D01*
X024000Y017500D02*
X024250Y017250D01*
X025500Y017250D01*
X025750Y017000D01*
X025750Y002500D01*
X025500Y002250D01*
X024750Y002250D01*
X024500Y002000D01*
X024000Y002000D01*
X023500Y001500D01*
X024500Y001500D02*
X025000Y002000D01*
X025750Y002000D01*
X026000Y002250D01*
X026000Y017500D01*
X025750Y017750D01*
X024500Y017750D01*
X024000Y017500D02*
X024000Y018250D01*
X023500Y018750D01*
X023000Y018250D02*
X023000Y017250D01*
X023500Y016750D01*
X025000Y016750D01*
X025250Y016500D01*
X025250Y003000D01*
X025000Y002750D01*
X022750Y002750D01*
X025500Y001500D02*
X026250Y002250D01*
X026250Y018500D01*
X026000Y018750D01*
X024500Y018750D01*
X025250Y019250D02*
X025500Y019500D01*
X025500Y020500D01*
X025250Y019250D02*
X022000Y019250D01*
X021500Y018750D01*
X021250Y019500D02*
X023250Y019500D01*
X023500Y019750D01*
X023500Y020500D01*
X021500Y020500D02*
X021500Y020000D01*
X021250Y019750D01*
X020750Y019250D01*
X017000Y019250D01*
X016500Y018750D01*
X016250Y019500D02*
X019250Y019500D01*
X019500Y019750D01*
X019500Y020500D01*
X020500Y018750D02*
X021250Y019500D01*
X022500Y018750D02*
X023000Y018250D01*
X021500Y016500D02*
X021000Y017000D01*
X020000Y017000D01*
X019500Y017500D01*
X019500Y017750D01*
X018500Y017750D02*
X018500Y017500D01*
X019500Y016500D01*
X017500Y016500D02*
X017500Y017750D01*
X015500Y017000D02*
X015500Y016500D01*
X015500Y017000D02*
X015250Y017250D01*
X011750Y017250D01*
X011500Y017500D01*
X011500Y017750D01*
X010750Y017000D02*
X013250Y017000D01*
X013500Y016750D01*
X013500Y016500D01*
X011500Y016500D02*
X009750Y016500D01*
X009500Y016750D01*
X009500Y017750D01*
X010500Y017750D02*
X010500Y017250D01*
X010750Y017000D01*
X012500Y018750D02*
X012500Y019250D01*
X012900Y019650D01*
X012900Y020500D01*
X014000Y019250D02*
X013500Y018750D01*
X014000Y019250D02*
X014500Y019250D01*
X014900Y019650D01*
X014900Y020500D01*
X015500Y019750D02*
X016750Y019750D01*
X016900Y019900D01*
X016900Y020500D01*
X016250Y019500D02*
X015500Y018750D01*
X014500Y018750D02*
X015500Y019750D01*
X014750Y006000D02*
X014500Y005750D01*
X009500Y005750D01*
X010750Y004500D02*
X011530Y004500D01*
X011530Y004000D02*
X012250Y004000D01*
X012250Y003500D02*
X011530Y003500D01*
X011530Y003000D02*
X012250Y003000D01*
D19*
X012250Y003000D03*
X012250Y003500D03*
X012250Y004000D03*
X010750Y004500D03*
D20*
X019500Y004500D02*
X019500Y003250D01*
X020500Y003250D02*
X020500Y004500D01*
X021500Y004500D02*
X021500Y003250D01*
X022500Y003250D02*
X022500Y004500D01*
X023500Y004500D02*
X023500Y003250D01*
X024500Y003250D02*
X024500Y004500D01*
D21*
X024500Y006500D03*
X023500Y006500D03*
X022500Y006500D03*
X021500Y006500D03*
X020500Y006500D03*
X019500Y006500D03*
X018500Y006500D03*
X017500Y006500D03*
X016500Y006500D03*
X015500Y006500D03*
X014500Y006500D03*
X013500Y006500D03*
X012500Y006500D03*
X011500Y006500D03*
X010500Y006500D03*
X009500Y006500D03*
X009500Y007500D03*
X010500Y007500D03*
X011500Y007500D03*
X012500Y007500D03*
X013500Y007500D03*
X014500Y007500D03*
X015500Y007500D03*
X016500Y007500D03*
X017500Y007500D03*
X018500Y007500D03*
X019500Y007500D03*
X020500Y007500D03*
X021500Y007500D03*
X022500Y007500D03*
X023500Y007500D03*
X024500Y007500D03*
X024500Y008500D03*
X024500Y009500D03*
X023500Y009500D03*
X022500Y009500D03*
X022500Y008500D03*
X023500Y008500D03*
X021500Y008500D03*
X020500Y008500D03*
X020500Y009500D03*
X021500Y009500D03*
X021500Y010500D03*
X020500Y010500D03*
X019500Y010500D03*
X018500Y010500D03*
X017500Y010500D03*
X016500Y010500D03*
X015500Y010500D03*
X014500Y010500D03*
X013500Y010500D03*
X012500Y010500D03*
X011500Y010500D03*
X010500Y010500D03*
X009500Y010500D03*
X009500Y009500D03*
X010500Y009500D03*
X010500Y008500D03*
X009500Y008500D03*
X011500Y008500D03*
X011500Y009500D03*
X012500Y009500D03*
X013500Y009500D03*
X013500Y008500D03*
X012500Y008500D03*
X014500Y008500D03*
X015500Y008500D03*
X015500Y009500D03*
X014500Y009500D03*
X016500Y009500D03*
X016500Y008500D03*
X017500Y008500D03*
X018500Y008500D03*
X018500Y009500D03*
X017500Y009500D03*
X019500Y009500D03*
X019500Y008500D03*
X022500Y010500D03*
X023500Y010500D03*
X024500Y010500D03*
X024500Y011500D03*
X024500Y012500D03*
X023500Y012500D03*
X022500Y012500D03*
X022500Y011500D03*
X023500Y011500D03*
X021500Y011500D03*
X020500Y011500D03*
X020500Y012500D03*
X021500Y012500D03*
X021500Y013500D03*
X020500Y013500D03*
X020500Y014500D03*
X021500Y014500D03*
X022500Y014500D03*
X023500Y014500D03*
X023500Y013500D03*
X022500Y013500D03*
X024500Y013500D03*
X024500Y014500D03*
X019500Y014500D03*
X019500Y013500D03*
X018500Y013500D03*
X017500Y013500D03*
X017500Y014500D03*
X018500Y014500D03*
X016500Y014500D03*
X016500Y013500D03*
X015500Y013500D03*
X014500Y013500D03*
X014500Y014500D03*
X015500Y014500D03*
X013500Y014500D03*
X012500Y014500D03*
X012500Y013500D03*
X013500Y013500D03*
X013500Y012500D03*
X012500Y012500D03*
X012500Y011500D03*
X013500Y011500D03*
X014500Y011500D03*
X015500Y011500D03*
X015500Y012500D03*
X014500Y012500D03*
X016500Y012500D03*
X016500Y011500D03*
X017500Y011500D03*
X018500Y011500D03*
X018500Y012500D03*
X017500Y012500D03*
X019500Y012500D03*
X019500Y011500D03*
X011500Y011500D03*
X011500Y012500D03*
X010500Y012500D03*
X009500Y012500D03*
X009500Y011500D03*
X010500Y011500D03*
X010500Y013500D03*
X009500Y013500D03*
X009500Y014500D03*
X010500Y014500D03*
X011500Y014500D03*
X011500Y013500D03*
M02*
