G75*
G70*
%OFA0B0*%
%FSLAX24Y24*%
%IPPOS*%
%LPD*%
%AMOC8*
5,1,8,0,0,1.08239X$1,22.5*
%
%ADD10C,0.0060*%
%ADD11OC8,0.0700*%
%ADD12C,0.0600*%
%ADD13OC8,0.0600*%
%ADD14C,0.0780*%
%ADD15C,0.0000*%
%ADD16C,0.0001*%
D10*
X007500Y000500D02*
X026500Y000500D01*
X026500Y001500D01*
X027500Y002500D01*
X027500Y015500D01*
X026500Y016500D01*
X026500Y021000D01*
X026000Y021500D01*
X007500Y021500D01*
X007500Y000500D01*
D11*
X011500Y001500D03*
X012500Y001500D03*
X013500Y001500D03*
X014500Y001500D03*
X015500Y001500D03*
X016500Y001500D03*
X017500Y001500D03*
X018500Y001500D03*
X020500Y001500D03*
X021500Y001500D03*
X022500Y001500D03*
X023500Y001500D03*
X024500Y001500D03*
X025500Y001500D03*
X025500Y020500D03*
X024500Y020500D03*
X023500Y020500D03*
X022500Y020500D03*
X021500Y020500D03*
X020500Y020500D03*
X019500Y020500D03*
X018500Y020500D03*
X016900Y020500D03*
X015900Y020500D03*
X014900Y020500D03*
X013900Y020500D03*
X012900Y020500D03*
X011900Y020500D03*
X010900Y020500D03*
X009900Y020500D03*
X008900Y020500D03*
X007900Y020500D03*
D12*
X024500Y018750D03*
D13*
X023500Y018750D03*
X022500Y018750D03*
X021500Y018750D03*
X020500Y018750D03*
X019500Y018750D03*
X018500Y018750D03*
X017500Y018750D03*
X016500Y018750D03*
X015500Y018750D03*
X014500Y018750D03*
X013500Y018750D03*
X012500Y018750D03*
X011500Y018750D03*
X010500Y018750D03*
X009500Y018750D03*
X009500Y017750D03*
X010500Y017750D03*
X011500Y017750D03*
X012500Y017750D03*
X013500Y017750D03*
X014500Y017750D03*
X015500Y017750D03*
X016500Y017750D03*
X017500Y017750D03*
X018500Y017750D03*
X019500Y017750D03*
X020500Y017750D03*
X021500Y017750D03*
X022500Y017750D03*
X023500Y017750D03*
X024500Y017750D03*
D14*
X022500Y016500D03*
X021500Y016500D03*
X020500Y016500D03*
X019500Y016500D03*
X018500Y016500D03*
X017500Y016500D03*
X016500Y016500D03*
X015500Y016500D03*
X014500Y016500D03*
X013500Y016500D03*
X012500Y016500D03*
X011500Y016500D03*
X015500Y004500D03*
X016500Y004500D03*
X017500Y004500D03*
X018500Y004500D03*
X019500Y004500D03*
X020500Y004500D03*
X021500Y004500D03*
X022500Y004500D03*
X023500Y004500D03*
X024500Y004500D03*
X024500Y003250D03*
X023500Y003250D03*
X022500Y003250D03*
X021500Y003250D03*
X020500Y003250D03*
X019500Y003250D03*
X018500Y003250D03*
X017500Y003250D03*
X016500Y003250D03*
X015500Y003250D03*
D15*
X010523Y003555D02*
X010499Y003547D01*
X010471Y003535D01*
X010448Y003524D01*
X010420Y003535D01*
X010393Y003543D01*
X010365Y003555D01*
X010338Y003563D01*
X010306Y003575D01*
X010279Y003587D01*
X010251Y003594D01*
X010251Y003846D01*
X010251Y003878D01*
X010279Y003886D01*
X010306Y003898D01*
X010338Y003906D01*
X010365Y003917D01*
X010393Y003929D01*
X010420Y003937D01*
X010448Y003949D01*
X010471Y003937D01*
X010499Y003925D01*
X010523Y003913D01*
X010523Y003555D01*
D16*
X010522Y003555D02*
X010365Y003555D01*
X010368Y003554D02*
X010519Y003554D01*
X010516Y003553D02*
X010370Y003553D01*
X010372Y003552D02*
X010513Y003552D01*
X010510Y003551D02*
X010375Y003551D01*
X010377Y003550D02*
X010507Y003550D01*
X010504Y003549D02*
X010379Y003549D01*
X010382Y003548D02*
X010501Y003548D01*
X010498Y003547D02*
X010384Y003547D01*
X010386Y003546D02*
X010496Y003546D01*
X010494Y003545D02*
X010389Y003545D01*
X010391Y003544D02*
X010491Y003544D01*
X010489Y003543D02*
X010394Y003543D01*
X010397Y003542D02*
X010487Y003542D01*
X010484Y003541D02*
X010401Y003541D01*
X010404Y003540D02*
X010482Y003540D01*
X010480Y003539D02*
X010408Y003539D01*
X010411Y003538D02*
X010477Y003538D01*
X010475Y003537D02*
X010415Y003537D01*
X010418Y003536D02*
X010473Y003536D01*
X010471Y003535D02*
X010421Y003535D01*
X010424Y003534D02*
X010469Y003534D01*
X010467Y003533D02*
X010426Y003533D01*
X010428Y003532D02*
X010465Y003532D01*
X010463Y003531D02*
X010431Y003531D01*
X010433Y003530D02*
X010461Y003530D01*
X010459Y003529D02*
X010435Y003529D01*
X010438Y003528D02*
X010457Y003528D01*
X010455Y003527D02*
X010440Y003527D01*
X010442Y003526D02*
X010453Y003526D01*
X010451Y003525D02*
X010445Y003525D01*
X010447Y003524D02*
X010449Y003524D01*
X010523Y003556D02*
X010362Y003556D01*
X010359Y003557D02*
X010523Y003557D01*
X010523Y003558D02*
X010355Y003558D01*
X010352Y003559D02*
X010523Y003559D01*
X010523Y003560D02*
X010348Y003560D01*
X010345Y003561D02*
X010523Y003561D01*
X010523Y003562D02*
X010341Y003562D01*
X010338Y003563D02*
X010523Y003563D01*
X010523Y003564D02*
X010335Y003564D01*
X010332Y003565D02*
X010523Y003565D01*
X010523Y003566D02*
X010330Y003566D01*
X010327Y003567D02*
X010523Y003567D01*
X010523Y003568D02*
X010324Y003568D01*
X010322Y003569D02*
X010523Y003569D01*
X010523Y003570D02*
X010319Y003570D01*
X010316Y003571D02*
X010523Y003571D01*
X010523Y003572D02*
X010314Y003572D01*
X010311Y003573D02*
X010523Y003573D01*
X010523Y003574D02*
X010308Y003574D01*
X010306Y003575D02*
X010523Y003575D01*
X010523Y003576D02*
X010303Y003576D01*
X010301Y003577D02*
X010523Y003577D01*
X010523Y003578D02*
X010299Y003578D01*
X010296Y003579D02*
X010523Y003579D01*
X010523Y003580D02*
X010294Y003580D01*
X010292Y003581D02*
X010523Y003581D01*
X010523Y003582D02*
X010289Y003582D01*
X010287Y003583D02*
X010523Y003583D01*
X010523Y003584D02*
X010285Y003584D01*
X010282Y003585D02*
X010523Y003585D01*
X010523Y003586D02*
X010280Y003586D01*
X010277Y003587D02*
X010523Y003587D01*
X010523Y003588D02*
X010274Y003588D01*
X010270Y003589D02*
X010523Y003589D01*
X010523Y003590D02*
X010267Y003590D01*
X010263Y003591D02*
X010523Y003591D01*
X010523Y003592D02*
X010260Y003592D01*
X010256Y003593D02*
X010523Y003593D01*
X010523Y003594D02*
X010253Y003594D01*
X010251Y003595D02*
X010523Y003595D01*
X010523Y003596D02*
X010251Y003596D01*
X010251Y003597D02*
X010523Y003597D01*
X010523Y003598D02*
X010251Y003598D01*
X010251Y003599D02*
X010523Y003599D01*
X010523Y003600D02*
X010251Y003600D01*
X010251Y003601D02*
X010523Y003601D01*
X010523Y003602D02*
X010251Y003602D01*
X010251Y003603D02*
X010523Y003603D01*
X010523Y003604D02*
X010251Y003604D01*
X010251Y003605D02*
X010523Y003605D01*
X010523Y003606D02*
X010251Y003606D01*
X010251Y003607D02*
X010523Y003607D01*
X010523Y003608D02*
X010251Y003608D01*
X010251Y003609D02*
X010523Y003609D01*
X010523Y003610D02*
X010251Y003610D01*
X010251Y003611D02*
X010523Y003611D01*
X010523Y003612D02*
X010251Y003612D01*
X010251Y003613D02*
X010523Y003613D01*
X010523Y003614D02*
X010251Y003614D01*
X010251Y003615D02*
X010523Y003615D01*
X010523Y003616D02*
X010251Y003616D01*
X010251Y003617D02*
X010523Y003617D01*
X010523Y003618D02*
X010251Y003618D01*
X010251Y003619D02*
X010523Y003619D01*
X010523Y003620D02*
X010251Y003620D01*
X010251Y003621D02*
X010523Y003621D01*
X010523Y003622D02*
X010251Y003622D01*
X010251Y003623D02*
X010523Y003623D01*
X010523Y003624D02*
X010251Y003624D01*
X010251Y003625D02*
X010523Y003625D01*
X010523Y003626D02*
X010251Y003626D01*
X010251Y003627D02*
X010523Y003627D01*
X010523Y003628D02*
X010251Y003628D01*
X010251Y003629D02*
X010523Y003629D01*
X010523Y003630D02*
X010251Y003630D01*
X010251Y003631D02*
X010523Y003631D01*
X010523Y003632D02*
X010251Y003632D01*
X010251Y003633D02*
X010523Y003633D01*
X010523Y003634D02*
X010251Y003634D01*
X010251Y003635D02*
X010523Y003635D01*
X010523Y003636D02*
X010251Y003636D01*
X010251Y003637D02*
X010523Y003637D01*
X010523Y003638D02*
X010251Y003638D01*
X010251Y003639D02*
X010523Y003639D01*
X010523Y003640D02*
X010251Y003640D01*
X010251Y003641D02*
X010523Y003641D01*
X010523Y003642D02*
X010251Y003642D01*
X010251Y003643D02*
X010523Y003643D01*
X010523Y003644D02*
X010251Y003644D01*
X010251Y003645D02*
X010523Y003645D01*
X010523Y003646D02*
X010251Y003646D01*
X010251Y003647D02*
X010523Y003647D01*
X010523Y003648D02*
X010251Y003648D01*
X010251Y003649D02*
X010523Y003649D01*
X010523Y003650D02*
X010251Y003650D01*
X010251Y003651D02*
X010523Y003651D01*
X010523Y003652D02*
X010251Y003652D01*
X010251Y003653D02*
X010523Y003653D01*
X010523Y003654D02*
X010251Y003654D01*
X010251Y003655D02*
X010523Y003655D01*
X010523Y003656D02*
X010251Y003656D01*
X010251Y003657D02*
X010523Y003657D01*
X010523Y003658D02*
X010251Y003658D01*
X010251Y003659D02*
X010523Y003659D01*
X010523Y003660D02*
X010251Y003660D01*
X010251Y003661D02*
X010523Y003661D01*
X010523Y003662D02*
X010251Y003662D01*
X010251Y003663D02*
X010523Y003663D01*
X010523Y003664D02*
X010251Y003664D01*
X010251Y003665D02*
X010523Y003665D01*
X010523Y003666D02*
X010251Y003666D01*
X010251Y003667D02*
X010523Y003667D01*
X010523Y003668D02*
X010251Y003668D01*
X010251Y003669D02*
X010523Y003669D01*
X010523Y003670D02*
X010251Y003670D01*
X010251Y003671D02*
X010523Y003671D01*
X010523Y003672D02*
X010251Y003672D01*
X010251Y003673D02*
X010523Y003673D01*
X010523Y003674D02*
X010251Y003674D01*
X010251Y003675D02*
X010523Y003675D01*
X010523Y003676D02*
X010251Y003676D01*
X010251Y003677D02*
X010523Y003677D01*
X010523Y003678D02*
X010251Y003678D01*
X010251Y003679D02*
X010523Y003679D01*
X010523Y003680D02*
X010251Y003680D01*
X010251Y003681D02*
X010523Y003681D01*
X010523Y003682D02*
X010251Y003682D01*
X010251Y003683D02*
X010523Y003683D01*
X010523Y003684D02*
X010251Y003684D01*
X010251Y003685D02*
X010523Y003685D01*
X010523Y003686D02*
X010251Y003686D01*
X010251Y003687D02*
X010523Y003687D01*
X010523Y003688D02*
X010251Y003688D01*
X010251Y003689D02*
X010523Y003689D01*
X010523Y003690D02*
X010251Y003690D01*
X010251Y003691D02*
X010523Y003691D01*
X010523Y003692D02*
X010251Y003692D01*
X010251Y003693D02*
X010523Y003693D01*
X010523Y003694D02*
X010251Y003694D01*
X010251Y003695D02*
X010523Y003695D01*
X010523Y003696D02*
X010251Y003696D01*
X010251Y003697D02*
X010523Y003697D01*
X010523Y003698D02*
X010251Y003698D01*
X010251Y003699D02*
X010523Y003699D01*
X010523Y003700D02*
X010251Y003700D01*
X010251Y003701D02*
X010523Y003701D01*
X010523Y003702D02*
X010251Y003702D01*
X010251Y003703D02*
X010523Y003703D01*
X010523Y003704D02*
X010251Y003704D01*
X010251Y003705D02*
X010523Y003705D01*
X010523Y003706D02*
X010251Y003706D01*
X010251Y003707D02*
X010523Y003707D01*
X010523Y003708D02*
X010251Y003708D01*
X010251Y003709D02*
X010523Y003709D01*
X010523Y003710D02*
X010251Y003710D01*
X010251Y003711D02*
X010523Y003711D01*
X010523Y003712D02*
X010251Y003712D01*
X010251Y003713D02*
X010523Y003713D01*
X010523Y003714D02*
X010251Y003714D01*
X010251Y003715D02*
X010523Y003715D01*
X010523Y003716D02*
X010251Y003716D01*
X010251Y003717D02*
X010523Y003717D01*
X010523Y003718D02*
X010251Y003718D01*
X010251Y003719D02*
X010523Y003719D01*
X010523Y003720D02*
X010251Y003720D01*
X010251Y003721D02*
X010523Y003721D01*
X010523Y003722D02*
X010251Y003722D01*
X010251Y003723D02*
X010523Y003723D01*
X010523Y003724D02*
X010251Y003724D01*
X010251Y003725D02*
X010523Y003725D01*
X010523Y003726D02*
X010251Y003726D01*
X010251Y003727D02*
X010523Y003727D01*
X010523Y003728D02*
X010251Y003728D01*
X010251Y003729D02*
X010523Y003729D01*
X010523Y003730D02*
X010251Y003730D01*
X010251Y003731D02*
X010523Y003731D01*
X010523Y003732D02*
X010251Y003732D01*
X010251Y003733D02*
X010523Y003733D01*
X010523Y003734D02*
X010251Y003734D01*
X010251Y003735D02*
X010523Y003735D01*
X010523Y003736D02*
X010251Y003736D01*
X010251Y003737D02*
X010523Y003737D01*
X010523Y003738D02*
X010251Y003738D01*
X010251Y003739D02*
X010523Y003739D01*
X010523Y003740D02*
X010251Y003740D01*
X010251Y003741D02*
X010523Y003741D01*
X010523Y003742D02*
X010251Y003742D01*
X010251Y003743D02*
X010523Y003743D01*
X010523Y003744D02*
X010251Y003744D01*
X010251Y003745D02*
X010523Y003745D01*
X010523Y003746D02*
X010251Y003746D01*
X010251Y003747D02*
X010523Y003747D01*
X010523Y003748D02*
X010251Y003748D01*
X010251Y003749D02*
X010523Y003749D01*
X010523Y003750D02*
X010251Y003750D01*
X010251Y003751D02*
X010523Y003751D01*
X010523Y003752D02*
X010251Y003752D01*
X010251Y003753D02*
X010523Y003753D01*
X010523Y003754D02*
X010251Y003754D01*
X010251Y003755D02*
X010523Y003755D01*
X010523Y003756D02*
X010251Y003756D01*
X010251Y003757D02*
X010523Y003757D01*
X010523Y003758D02*
X010251Y003758D01*
X010251Y003759D02*
X010523Y003759D01*
X010523Y003760D02*
X010251Y003760D01*
X010251Y003761D02*
X010523Y003761D01*
X010523Y003762D02*
X010251Y003762D01*
X010251Y003763D02*
X010523Y003763D01*
X010523Y003764D02*
X010251Y003764D01*
X010251Y003765D02*
X010523Y003765D01*
X010523Y003766D02*
X010251Y003766D01*
X010251Y003767D02*
X010523Y003767D01*
X010523Y003768D02*
X010251Y003768D01*
X010251Y003769D02*
X010523Y003769D01*
X010523Y003770D02*
X010251Y003770D01*
X010251Y003771D02*
X010523Y003771D01*
X010523Y003772D02*
X010251Y003772D01*
X010251Y003773D02*
X010523Y003773D01*
X010523Y003774D02*
X010251Y003774D01*
X010251Y003775D02*
X010523Y003775D01*
X010523Y003776D02*
X010251Y003776D01*
X010251Y003777D02*
X010523Y003777D01*
X010523Y003778D02*
X010251Y003778D01*
X010251Y003779D02*
X010523Y003779D01*
X010523Y003780D02*
X010251Y003780D01*
X010251Y003781D02*
X010523Y003781D01*
X010523Y003782D02*
X010251Y003782D01*
X010251Y003783D02*
X010523Y003783D01*
X010523Y003784D02*
X010251Y003784D01*
X010251Y003785D02*
X010523Y003785D01*
X010523Y003786D02*
X010251Y003786D01*
X010251Y003787D02*
X010523Y003787D01*
X010523Y003788D02*
X010251Y003788D01*
X010251Y003789D02*
X010523Y003789D01*
X010523Y003790D02*
X010251Y003790D01*
X010251Y003791D02*
X010523Y003791D01*
X010523Y003792D02*
X010251Y003792D01*
X010251Y003793D02*
X010523Y003793D01*
X010523Y003794D02*
X010251Y003794D01*
X010251Y003795D02*
X010523Y003795D01*
X010523Y003796D02*
X010251Y003796D01*
X010251Y003797D02*
X010523Y003797D01*
X010523Y003798D02*
X010251Y003798D01*
X010251Y003799D02*
X010523Y003799D01*
X010523Y003800D02*
X010251Y003800D01*
X010251Y003801D02*
X010523Y003801D01*
X010523Y003802D02*
X010251Y003802D01*
X010251Y003803D02*
X010523Y003803D01*
X010523Y003804D02*
X010251Y003804D01*
X010251Y003805D02*
X010523Y003805D01*
X010523Y003806D02*
X010251Y003806D01*
X010251Y003807D02*
X010523Y003807D01*
X010523Y003808D02*
X010251Y003808D01*
X010251Y003809D02*
X010523Y003809D01*
X010523Y003810D02*
X010251Y003810D01*
X010251Y003811D02*
X010523Y003811D01*
X010523Y003812D02*
X010251Y003812D01*
X010251Y003813D02*
X010523Y003813D01*
X010523Y003814D02*
X010251Y003814D01*
X010251Y003815D02*
X010523Y003815D01*
X010523Y003816D02*
X010251Y003816D01*
X010251Y003817D02*
X010523Y003817D01*
X010523Y003818D02*
X010251Y003818D01*
X010251Y003819D02*
X010523Y003819D01*
X010523Y003820D02*
X010251Y003820D01*
X010251Y003821D02*
X010523Y003821D01*
X010523Y003822D02*
X010251Y003822D01*
X010251Y003823D02*
X010523Y003823D01*
X010523Y003824D02*
X010251Y003824D01*
X010251Y003825D02*
X010523Y003825D01*
X010523Y003826D02*
X010251Y003826D01*
X010251Y003827D02*
X010523Y003827D01*
X010523Y003828D02*
X010251Y003828D01*
X010251Y003829D02*
X010523Y003829D01*
X010523Y003830D02*
X010251Y003830D01*
X010251Y003831D02*
X010523Y003831D01*
X010523Y003832D02*
X010251Y003832D01*
X010251Y003833D02*
X010523Y003833D01*
X010523Y003834D02*
X010251Y003834D01*
X010251Y003835D02*
X010523Y003835D01*
X010523Y003836D02*
X010251Y003836D01*
X010251Y003837D02*
X010523Y003837D01*
X010523Y003838D02*
X010251Y003838D01*
X010251Y003839D02*
X010523Y003839D01*
X010523Y003840D02*
X010251Y003840D01*
X010251Y003841D02*
X010523Y003841D01*
X010523Y003842D02*
X010251Y003842D01*
X010251Y003843D02*
X010523Y003843D01*
X010523Y003844D02*
X010251Y003844D01*
X010251Y003845D02*
X010523Y003845D01*
X010523Y003846D02*
X010251Y003846D01*
X010251Y003847D02*
X010523Y003847D01*
X010523Y003848D02*
X010251Y003848D01*
X010251Y003849D02*
X010523Y003849D01*
X010523Y003850D02*
X010251Y003850D01*
X010251Y003851D02*
X010523Y003851D01*
X010523Y003852D02*
X010251Y003852D01*
X010251Y003853D02*
X010523Y003853D01*
X010523Y003854D02*
X010251Y003854D01*
X010251Y003855D02*
X010523Y003855D01*
X010523Y003856D02*
X010251Y003856D01*
X010251Y003857D02*
X010523Y003857D01*
X010523Y003858D02*
X010251Y003858D01*
X010251Y003859D02*
X010523Y003859D01*
X010523Y003860D02*
X010251Y003860D01*
X010251Y003861D02*
X010523Y003861D01*
X010523Y003862D02*
X010251Y003862D01*
X010251Y003863D02*
X010523Y003863D01*
X010523Y003864D02*
X010251Y003864D01*
X010251Y003865D02*
X010523Y003865D01*
X010523Y003866D02*
X010251Y003866D01*
X010251Y003867D02*
X010523Y003867D01*
X010523Y003868D02*
X010251Y003868D01*
X010251Y003869D02*
X010523Y003869D01*
X010523Y003870D02*
X010251Y003870D01*
X010251Y003871D02*
X010523Y003871D01*
X010523Y003872D02*
X010251Y003872D01*
X010251Y003873D02*
X010523Y003873D01*
X010523Y003874D02*
X010251Y003874D01*
X010251Y003875D02*
X010523Y003875D01*
X010523Y003876D02*
X010251Y003876D01*
X010251Y003877D02*
X010523Y003877D01*
X010523Y003878D02*
X010251Y003878D01*
X010253Y003879D02*
X010523Y003879D01*
X010523Y003880D02*
X010257Y003880D01*
X010260Y003881D02*
X010523Y003881D01*
X010523Y003882D02*
X010264Y003882D01*
X010267Y003883D02*
X010523Y003883D01*
X010523Y003884D02*
X010271Y003884D01*
X010274Y003885D02*
X010523Y003885D01*
X010523Y003886D02*
X010278Y003886D01*
X010280Y003887D02*
X010523Y003887D01*
X010523Y003888D02*
X010283Y003888D01*
X010285Y003889D02*
X010523Y003889D01*
X010523Y003890D02*
X010287Y003890D01*
X010290Y003891D02*
X010523Y003891D01*
X010523Y003892D02*
X010292Y003892D01*
X010294Y003893D02*
X010523Y003893D01*
X010523Y003894D02*
X010297Y003894D01*
X010299Y003895D02*
X010523Y003895D01*
X010523Y003896D02*
X010301Y003896D01*
X010304Y003897D02*
X010523Y003897D01*
X010523Y003898D02*
X010306Y003898D01*
X010310Y003899D02*
X010523Y003899D01*
X010523Y003900D02*
X010314Y003900D01*
X010318Y003901D02*
X010523Y003901D01*
X010523Y003902D02*
X010322Y003902D01*
X010326Y003903D02*
X010523Y003903D01*
X010523Y003904D02*
X010330Y003904D01*
X010334Y003905D02*
X010523Y003905D01*
X010523Y003906D02*
X010338Y003906D01*
X010340Y003907D02*
X010523Y003907D01*
X010523Y003908D02*
X010343Y003908D01*
X010345Y003909D02*
X010523Y003909D01*
X010523Y003910D02*
X010347Y003910D01*
X010350Y003911D02*
X010523Y003911D01*
X010523Y003912D02*
X010352Y003912D01*
X010354Y003913D02*
X010523Y003913D01*
X010522Y003914D02*
X010357Y003914D01*
X010359Y003915D02*
X010520Y003915D01*
X010518Y003916D02*
X010361Y003916D01*
X010364Y003917D02*
X010516Y003917D01*
X010514Y003918D02*
X010366Y003918D01*
X010368Y003919D02*
X010512Y003919D01*
X010510Y003920D02*
X010371Y003920D01*
X010373Y003921D02*
X010508Y003921D01*
X010506Y003922D02*
X010375Y003922D01*
X010378Y003923D02*
X010504Y003923D01*
X010502Y003924D02*
X010380Y003924D01*
X010382Y003925D02*
X010500Y003925D01*
X010498Y003926D02*
X010385Y003926D01*
X010387Y003927D02*
X010496Y003927D01*
X010493Y003928D02*
X010389Y003928D01*
X010392Y003929D02*
X010491Y003929D01*
X010489Y003930D02*
X010394Y003930D01*
X010398Y003931D02*
X010486Y003931D01*
X010484Y003932D02*
X010401Y003932D01*
X010405Y003933D02*
X010482Y003933D01*
X010479Y003934D02*
X010408Y003934D01*
X010412Y003935D02*
X010477Y003935D01*
X010475Y003936D02*
X010415Y003936D01*
X010419Y003937D02*
X010472Y003937D01*
X010470Y003938D02*
X010422Y003938D01*
X010424Y003939D02*
X010468Y003939D01*
X010466Y003940D02*
X010426Y003940D01*
X010429Y003941D02*
X010464Y003941D01*
X010462Y003942D02*
X010431Y003942D01*
X010433Y003943D02*
X010460Y003943D01*
X010458Y003944D02*
X010436Y003944D01*
X010438Y003945D02*
X010456Y003945D01*
X010454Y003946D02*
X010440Y003946D01*
X010443Y003947D02*
X010452Y003947D01*
X010450Y003948D02*
X010445Y003948D01*
X010447Y003949D02*
X010448Y003949D01*
M02*
