%
M48
M72
T01C0.0118
T02C0.0150
T03C0.0236
T04C0.0520
T05C0.1260
%
T01
X13668Y2250
X14668Y2250
X15668Y2250
X16668Y2250
X17668Y2250
X18668Y2250
X20168Y2875
X21418Y3500
X21918Y3500
X21168Y1625
X17168Y4750
X16793Y6250
X18918Y6750
X19668Y6000
X14918Y7500
X14543Y7875
X17918Y10375
X14793Y11125
X16793Y12750
X13668Y15250
X13043Y15250
X12043Y16250
X12668Y16875
X11043Y16250
X10043Y16250
X9043Y16250
X8043Y16250
X7043Y16250
X7043Y18375
X8043Y18375
X9043Y18375
X10043Y18375
X11043Y18375
X12043Y18375
X13043Y18375
X15043Y18375
X16043Y18375
X17043Y18375
X18043Y18375
X19043Y18375
X20043Y18375
X21043Y18375
X22293Y17375
X21043Y16250
X20043Y16250
X19043Y16250
X18043Y16250
X17043Y16250
X16043Y16250
X15043Y16250
X20918Y15000
T02
X13918Y13875
X13418Y13500
X12918Y13125
X12418Y12750
X11918Y12375
X11418Y12000
X10918Y11625
X11418Y11250
X10918Y10875
X11418Y10500
X11918Y10875
X12418Y11250
X11918Y11625
X12418Y12000
X12918Y11625
X13418Y11250
X12918Y10875
X13418Y10500
X12918Y10125
X12418Y10500
X11918Y10125
X11918Y8875
X11418Y8500
X11918Y8125
X11418Y7750
X10918Y7375
X11418Y7000
X10918Y6625
X11418Y6250
X11918Y5875
X11418Y5500
X10918Y5125
X11418Y4750
X10918Y4375
X11418Y4000
X11918Y3625
X12418Y4000
X11918Y4375
X12418Y4750
X11918Y5125
X12418Y5500
X12918Y5125
X13418Y4750
X12918Y4375
X13418Y4000
X12918Y3625
X13918Y3625
X13918Y4375
X13918Y5125
X13418Y5500
X12918Y5875
X13418Y6250
X12918Y6625
X12418Y6250
X11918Y6625
X12418Y7000
X11918Y7375
X12418Y7750
X12918Y7375
X13418Y7000
X13918Y6625
X13918Y5875
X13918Y7375
X13418Y7750
X12918Y8125
X12418Y8500
X12918Y8875
X13418Y8500
X13918Y8125
X13918Y8875
X13918Y10125
X13918Y10875
X13918Y11625
X13418Y12000
X12918Y12375
X13418Y12750
X13918Y12375
X13918Y13125
X12918Y13875
X12418Y13500
X11918Y13875
X11418Y13500
X11918Y13125
X11418Y12750
X10918Y12375
X10918Y13125
X10918Y13875
X11418Y14250
X11918Y14625
X12418Y14250
X12918Y14625
X13418Y14250
X10918Y5875
T03
X5918Y8000
X12668Y2250
T04
X8293Y5260
X8293Y7240
X8293Y11760
X8293Y13740
X22168Y10490
X22168Y8510
T05
X23528Y2075
X23528Y18217
M30
