G75*
G70*
%OFA0B0*%
%FSLAX24Y24*%
%IPPOS*%
%LPD*%
%AMOC8*
5,1,8,0,0,1.08239X$1,22.5*
%
%ADD10C,0.0070*%
%ADD11C,0.0060*%
%ADD12C,0.0040*%
%ADD13C,0.0000*%
D10*
X012068Y001758D02*
X012331Y001758D01*
X012068Y001758D02*
X012068Y002742D01*
X013331Y002742D01*
X013918Y002742D02*
X015296Y002742D01*
X015918Y002742D02*
X017296Y002742D01*
X017918Y002742D02*
X019296Y002742D01*
X019918Y002742D02*
X021296Y002742D01*
X021894Y002742D02*
X022146Y002742D01*
X022146Y001758D01*
X020894Y001758D01*
X020296Y001742D02*
X018918Y001742D01*
X018296Y001742D02*
X016918Y001742D01*
X016296Y001742D02*
X014918Y001742D01*
X014296Y001742D02*
X012918Y001742D01*
D11*
X012857Y016250D02*
X012357Y016250D01*
X012107Y016500D01*
X011857Y016250D01*
X011357Y016250D01*
X011107Y016500D01*
X011107Y018000D01*
X010857Y018250D01*
X010357Y018250D01*
X010107Y018000D01*
X010107Y016500D01*
X009857Y016250D01*
X009357Y016250D01*
X009107Y016500D01*
X009107Y018000D01*
X008857Y018250D01*
X008357Y018250D01*
X008107Y018000D01*
X008107Y016500D01*
X008357Y016250D01*
X008857Y016250D01*
X009107Y016500D01*
X008107Y016500D02*
X007857Y016250D01*
X007357Y016250D01*
X007107Y016500D01*
X006857Y016250D01*
X006357Y016250D01*
X006107Y016500D01*
X006107Y018000D01*
X006357Y018250D01*
X006857Y018250D01*
X007107Y018000D01*
X007107Y016500D01*
X007107Y018000D02*
X007357Y018250D01*
X007857Y018250D01*
X008107Y018000D01*
X009107Y018000D02*
X009357Y018250D01*
X009857Y018250D01*
X010107Y018000D01*
X011107Y018000D02*
X011357Y018250D01*
X011857Y018250D01*
X012107Y018000D01*
X012107Y016500D01*
X012857Y016250D02*
X013107Y016500D01*
X013107Y018000D01*
X012857Y018250D01*
X012357Y018250D01*
X012107Y018000D01*
X013107Y018000D02*
X013357Y018250D01*
X013857Y018250D01*
X014107Y018000D01*
X014107Y016500D01*
X014357Y016250D01*
X014857Y016250D01*
X015107Y016500D01*
X015107Y018000D01*
X014857Y018250D01*
X014357Y018250D01*
X014107Y018000D01*
X015107Y018000D02*
X015357Y018250D01*
X015857Y018250D01*
X016107Y018000D01*
X016107Y016500D01*
X015857Y016250D01*
X015357Y016250D01*
X015107Y016500D01*
X014107Y016500D02*
X013857Y016250D01*
X013357Y016250D01*
X013107Y016500D01*
X011107Y016500D02*
X010857Y016250D01*
X010357Y016250D01*
X010107Y016500D01*
X016107Y016500D02*
X016357Y016250D01*
X016857Y016250D01*
X017107Y016500D01*
X017107Y018000D01*
X016857Y018250D01*
X016357Y018250D01*
X016107Y018000D01*
X017107Y018000D02*
X017357Y018250D01*
X017857Y018250D01*
X018107Y018000D01*
X018107Y016500D01*
X017857Y016250D01*
X017357Y016250D01*
X017107Y016500D01*
X018107Y016500D02*
X018357Y016250D01*
X018857Y016250D01*
X019107Y016500D01*
X019107Y018000D01*
X018857Y018250D01*
X018357Y018250D01*
X018107Y018000D01*
X019107Y018000D02*
X019357Y018250D01*
X019857Y018250D01*
X020107Y018000D01*
X020107Y016500D01*
X019857Y016250D01*
X019357Y016250D01*
X019107Y016500D01*
X020107Y016500D02*
X020357Y016250D01*
X020857Y016250D01*
X021107Y016500D01*
X021107Y018000D01*
X020857Y018250D01*
X020357Y018250D01*
X020107Y018000D01*
X021107Y018000D02*
X021357Y018250D01*
X021857Y018250D01*
X022107Y018000D01*
X022107Y016500D01*
X021857Y016250D01*
X021357Y016250D01*
X021107Y016500D01*
D12*
X021176Y001374D02*
X021100Y001297D01*
X021100Y001221D01*
X021176Y001144D01*
X021330Y001144D01*
X021406Y001221D01*
X021406Y001297D01*
X021330Y001374D01*
X021176Y001374D01*
X021100Y001297D01*
X021100Y001221D01*
X021176Y001144D01*
X021100Y001067D01*
X021100Y000990D01*
X021176Y000914D01*
X021330Y000914D01*
X021406Y000990D01*
X021406Y001067D01*
X021330Y001144D01*
X021176Y001144D01*
X021100Y001067D01*
X021100Y000990D01*
X021176Y000914D01*
X021330Y000914D01*
X021406Y000990D01*
X021406Y001067D01*
X021330Y001144D01*
X021406Y001221D01*
X021406Y001297D01*
X021330Y001374D01*
X021176Y001374D01*
X020946Y001297D02*
X020869Y001374D01*
X020716Y001374D01*
X020639Y001297D01*
X020946Y000990D01*
X020869Y000914D01*
X020716Y000914D01*
X020639Y000990D01*
X020639Y001297D01*
X020946Y000990D01*
X020946Y001297D01*
X020869Y001374D01*
X020716Y001374D01*
X020639Y001297D01*
X020639Y000990D01*
X020716Y000914D01*
X020869Y000914D01*
X020946Y000990D01*
X020946Y001297D01*
X020486Y001144D02*
X020179Y001144D01*
X020486Y001144D01*
X020255Y001374D01*
X020255Y000914D01*
X020255Y001374D01*
X020486Y001144D01*
X020025Y001221D02*
X019949Y001144D01*
X019718Y001144D01*
X019949Y001144D01*
X020025Y001221D01*
X020025Y001297D01*
X019949Y001374D01*
X019795Y001374D01*
X019718Y001297D01*
X019718Y000990D01*
X019795Y000914D01*
X019949Y000914D01*
X020025Y000990D01*
X019949Y000914D01*
X019795Y000914D01*
X019718Y000990D01*
X019718Y001297D01*
X019795Y001374D01*
X019949Y001374D01*
X020025Y001297D01*
X020025Y001221D01*
X019565Y000837D02*
X019258Y000837D01*
X019565Y000837D01*
X019104Y001221D02*
X018951Y000914D01*
X018798Y001221D01*
X018951Y000914D01*
X019104Y001221D01*
X018644Y001221D02*
X018491Y001374D01*
X018491Y000914D01*
X018491Y001374D01*
X018644Y001221D01*
X018644Y000914D02*
X018337Y000914D01*
X018644Y000914D01*
X021560Y001144D02*
X021637Y001067D01*
X021867Y001067D01*
X021637Y001067D01*
X021560Y001144D01*
X021560Y001297D01*
X021637Y001374D01*
X021867Y001374D01*
X021867Y000914D01*
X021867Y001374D01*
X021637Y001374D01*
X021560Y001297D01*
X021560Y001144D01*
X022020Y001297D02*
X022020Y000990D01*
X022097Y000914D01*
X022327Y000914D01*
X022327Y001374D01*
X022097Y001374D01*
X022020Y001297D01*
X022097Y001374D01*
X022327Y001374D01*
X022327Y000914D01*
X022097Y000914D01*
X022020Y000990D01*
X022020Y001297D01*
D13*
X005418Y002075D02*
X005418Y018217D01*
X005420Y018294D01*
X005426Y018371D01*
X005435Y018448D01*
X005448Y018524D01*
X005465Y018600D01*
X005486Y018674D01*
X005510Y018748D01*
X005538Y018820D01*
X005569Y018890D01*
X005604Y018959D01*
X005642Y019027D01*
X005683Y019092D01*
X005728Y019155D01*
X005776Y019216D01*
X005826Y019275D01*
X005879Y019331D01*
X005935Y019384D01*
X005994Y019434D01*
X006055Y019482D01*
X006118Y019527D01*
X006183Y019568D01*
X006251Y019606D01*
X006320Y019641D01*
X006390Y019672D01*
X006462Y019700D01*
X006536Y019724D01*
X006610Y019745D01*
X006686Y019762D01*
X006762Y019775D01*
X006839Y019784D01*
X006916Y019790D01*
X006993Y019792D01*
X006993Y019791D02*
X023528Y019791D01*
X022898Y018217D02*
X022900Y018267D01*
X022906Y018317D01*
X022916Y018366D01*
X022930Y018414D01*
X022947Y018461D01*
X022968Y018506D01*
X022993Y018550D01*
X023021Y018591D01*
X023053Y018630D01*
X023087Y018667D01*
X023124Y018701D01*
X023164Y018731D01*
X023206Y018758D01*
X023250Y018782D01*
X023296Y018803D01*
X023343Y018819D01*
X023391Y018832D01*
X023441Y018841D01*
X023490Y018846D01*
X023541Y018847D01*
X023591Y018844D01*
X023640Y018837D01*
X023689Y018826D01*
X023737Y018811D01*
X023783Y018793D01*
X023828Y018771D01*
X023871Y018745D01*
X023912Y018716D01*
X023951Y018684D01*
X023987Y018649D01*
X024019Y018611D01*
X024049Y018571D01*
X024076Y018528D01*
X024099Y018484D01*
X024118Y018438D01*
X024134Y018390D01*
X024146Y018341D01*
X024154Y018292D01*
X024158Y018242D01*
X024158Y018192D01*
X024154Y018142D01*
X024146Y018093D01*
X024134Y018044D01*
X024118Y017996D01*
X024099Y017950D01*
X024076Y017906D01*
X024049Y017863D01*
X024019Y017823D01*
X023987Y017785D01*
X023951Y017750D01*
X023912Y017718D01*
X023871Y017689D01*
X023828Y017663D01*
X023783Y017641D01*
X023737Y017623D01*
X023689Y017608D01*
X023640Y017597D01*
X023591Y017590D01*
X023541Y017587D01*
X023490Y017588D01*
X023441Y017593D01*
X023391Y017602D01*
X023343Y017615D01*
X023296Y017631D01*
X023250Y017652D01*
X023206Y017676D01*
X023164Y017703D01*
X023124Y017733D01*
X023087Y017767D01*
X023053Y017804D01*
X023021Y017843D01*
X022993Y017884D01*
X022968Y017928D01*
X022947Y017973D01*
X022930Y018020D01*
X022916Y018068D01*
X022906Y018117D01*
X022900Y018167D01*
X022898Y018217D01*
X025103Y018217D02*
X025103Y002075D01*
X022898Y002075D02*
X022900Y002125D01*
X022906Y002175D01*
X022916Y002224D01*
X022930Y002272D01*
X022947Y002319D01*
X022968Y002364D01*
X022993Y002408D01*
X023021Y002449D01*
X023053Y002488D01*
X023087Y002525D01*
X023124Y002559D01*
X023164Y002589D01*
X023206Y002616D01*
X023250Y002640D01*
X023296Y002661D01*
X023343Y002677D01*
X023391Y002690D01*
X023441Y002699D01*
X023490Y002704D01*
X023541Y002705D01*
X023591Y002702D01*
X023640Y002695D01*
X023689Y002684D01*
X023737Y002669D01*
X023783Y002651D01*
X023828Y002629D01*
X023871Y002603D01*
X023912Y002574D01*
X023951Y002542D01*
X023987Y002507D01*
X024019Y002469D01*
X024049Y002429D01*
X024076Y002386D01*
X024099Y002342D01*
X024118Y002296D01*
X024134Y002248D01*
X024146Y002199D01*
X024154Y002150D01*
X024158Y002100D01*
X024158Y002050D01*
X024154Y002000D01*
X024146Y001951D01*
X024134Y001902D01*
X024118Y001854D01*
X024099Y001808D01*
X024076Y001764D01*
X024049Y001721D01*
X024019Y001681D01*
X023987Y001643D01*
X023951Y001608D01*
X023912Y001576D01*
X023871Y001547D01*
X023828Y001521D01*
X023783Y001499D01*
X023737Y001481D01*
X023689Y001466D01*
X023640Y001455D01*
X023591Y001448D01*
X023541Y001445D01*
X023490Y001446D01*
X023441Y001451D01*
X023391Y001460D01*
X023343Y001473D01*
X023296Y001489D01*
X023250Y001510D01*
X023206Y001534D01*
X023164Y001561D01*
X023124Y001591D01*
X023087Y001625D01*
X023053Y001662D01*
X023021Y001701D01*
X022993Y001742D01*
X022968Y001786D01*
X022947Y001831D01*
X022930Y001878D01*
X022916Y001926D01*
X022906Y001975D01*
X022900Y002025D01*
X022898Y002075D01*
X023528Y000500D02*
X023605Y000502D01*
X023682Y000508D01*
X023759Y000517D01*
X023835Y000530D01*
X023911Y000547D01*
X023985Y000568D01*
X024059Y000592D01*
X024131Y000620D01*
X024201Y000651D01*
X024270Y000686D01*
X024338Y000724D01*
X024403Y000765D01*
X024466Y000810D01*
X024527Y000858D01*
X024586Y000908D01*
X024642Y000961D01*
X024695Y001017D01*
X024745Y001076D01*
X024793Y001137D01*
X024838Y001200D01*
X024879Y001265D01*
X024917Y001333D01*
X024952Y001402D01*
X024983Y001472D01*
X025011Y001544D01*
X025035Y001618D01*
X025056Y001692D01*
X025073Y001768D01*
X025086Y001844D01*
X025095Y001921D01*
X025101Y001998D01*
X025103Y002075D01*
X023528Y000500D02*
X006993Y000500D01*
X006916Y000502D01*
X006839Y000508D01*
X006762Y000517D01*
X006686Y000530D01*
X006610Y000547D01*
X006536Y000568D01*
X006462Y000592D01*
X006390Y000620D01*
X006320Y000651D01*
X006251Y000686D01*
X006183Y000724D01*
X006118Y000765D01*
X006055Y000810D01*
X005994Y000858D01*
X005935Y000908D01*
X005879Y000961D01*
X005826Y001017D01*
X005776Y001076D01*
X005728Y001137D01*
X005683Y001200D01*
X005642Y001265D01*
X005604Y001333D01*
X005569Y001402D01*
X005538Y001472D01*
X005510Y001544D01*
X005486Y001618D01*
X005465Y001692D01*
X005448Y001768D01*
X005435Y001844D01*
X005426Y001921D01*
X005420Y001998D01*
X005418Y002075D01*
M02*
