G75*
G70*
%OFA0B0*%
%FSLAX24Y24*%
%IPPOS*%
%LPD*%
%AMOC8*
5,1,8,0,0,1.08239X$1,22.5*
%
%ADD10R,0.0394X0.0787*%
%ADD11R,0.0500X0.1000*%
%ADD12C,0.0000*%
%ADD13C,0.0780*%
%ADD14C,0.0238*%
%ADD15C,0.0100*%
%ADD16C,0.0160*%
%ADD17C,0.0270*%
%ADD18C,0.0600*%
%ADD19C,0.0600*%
D10*
X012607Y001600D03*
X014607Y001600D03*
X013607Y002900D03*
X015607Y002900D03*
X017607Y002900D03*
X016607Y001600D03*
X018607Y001600D03*
X020607Y001600D03*
X019607Y002900D03*
X021607Y002900D03*
D11*
X021607Y016175D03*
X020607Y016175D03*
X019607Y016175D03*
X018607Y016175D03*
X017607Y016175D03*
X016607Y016175D03*
X015607Y016175D03*
X014607Y016175D03*
X013607Y016175D03*
X012607Y016175D03*
X011607Y016175D03*
X010607Y016175D03*
X009607Y016175D03*
X008607Y016175D03*
X007607Y016175D03*
X006607Y016175D03*
X006607Y018325D03*
X007607Y018325D03*
X008607Y018325D03*
X009607Y018325D03*
X010607Y018325D03*
X011607Y018325D03*
X012607Y018325D03*
X013607Y018325D03*
X014607Y018325D03*
X015607Y018325D03*
X016607Y018325D03*
X017607Y018325D03*
X018607Y018325D03*
X019607Y018325D03*
X020607Y018325D03*
X021607Y018325D03*
D12*
X005418Y018217D02*
X005418Y002075D01*
X005420Y001998D01*
X005426Y001921D01*
X005435Y001844D01*
X005448Y001768D01*
X005465Y001692D01*
X005486Y001618D01*
X005510Y001544D01*
X005538Y001472D01*
X005569Y001402D01*
X005604Y001333D01*
X005642Y001265D01*
X005683Y001200D01*
X005728Y001137D01*
X005776Y001076D01*
X005826Y001017D01*
X005879Y000961D01*
X005935Y000908D01*
X005994Y000858D01*
X006055Y000810D01*
X006118Y000765D01*
X006183Y000724D01*
X006251Y000686D01*
X006320Y000651D01*
X006390Y000620D01*
X006462Y000592D01*
X006536Y000568D01*
X006610Y000547D01*
X006686Y000530D01*
X006762Y000517D01*
X006839Y000508D01*
X006916Y000502D01*
X006993Y000500D01*
X023528Y000500D01*
X022898Y002075D02*
X022900Y002125D01*
X022906Y002175D01*
X022916Y002224D01*
X022930Y002272D01*
X022947Y002319D01*
X022968Y002364D01*
X022993Y002408D01*
X023021Y002449D01*
X023053Y002488D01*
X023087Y002525D01*
X023124Y002559D01*
X023164Y002589D01*
X023206Y002616D01*
X023250Y002640D01*
X023296Y002661D01*
X023343Y002677D01*
X023391Y002690D01*
X023441Y002699D01*
X023490Y002704D01*
X023541Y002705D01*
X023591Y002702D01*
X023640Y002695D01*
X023689Y002684D01*
X023737Y002669D01*
X023783Y002651D01*
X023828Y002629D01*
X023871Y002603D01*
X023912Y002574D01*
X023951Y002542D01*
X023987Y002507D01*
X024019Y002469D01*
X024049Y002429D01*
X024076Y002386D01*
X024099Y002342D01*
X024118Y002296D01*
X024134Y002248D01*
X024146Y002199D01*
X024154Y002150D01*
X024158Y002100D01*
X024158Y002050D01*
X024154Y002000D01*
X024146Y001951D01*
X024134Y001902D01*
X024118Y001854D01*
X024099Y001808D01*
X024076Y001764D01*
X024049Y001721D01*
X024019Y001681D01*
X023987Y001643D01*
X023951Y001608D01*
X023912Y001576D01*
X023871Y001547D01*
X023828Y001521D01*
X023783Y001499D01*
X023737Y001481D01*
X023689Y001466D01*
X023640Y001455D01*
X023591Y001448D01*
X023541Y001445D01*
X023490Y001446D01*
X023441Y001451D01*
X023391Y001460D01*
X023343Y001473D01*
X023296Y001489D01*
X023250Y001510D01*
X023206Y001534D01*
X023164Y001561D01*
X023124Y001591D01*
X023087Y001625D01*
X023053Y001662D01*
X023021Y001701D01*
X022993Y001742D01*
X022968Y001786D01*
X022947Y001831D01*
X022930Y001878D01*
X022916Y001926D01*
X022906Y001975D01*
X022900Y002025D01*
X022898Y002075D01*
X023528Y000500D02*
X023605Y000502D01*
X023682Y000508D01*
X023759Y000517D01*
X023835Y000530D01*
X023911Y000547D01*
X023985Y000568D01*
X024059Y000592D01*
X024131Y000620D01*
X024201Y000651D01*
X024270Y000686D01*
X024338Y000724D01*
X024403Y000765D01*
X024466Y000810D01*
X024527Y000858D01*
X024586Y000908D01*
X024642Y000961D01*
X024695Y001017D01*
X024745Y001076D01*
X024793Y001137D01*
X024838Y001200D01*
X024879Y001265D01*
X024917Y001333D01*
X024952Y001402D01*
X024983Y001472D01*
X025011Y001544D01*
X025035Y001618D01*
X025056Y001692D01*
X025073Y001768D01*
X025086Y001844D01*
X025095Y001921D01*
X025101Y001998D01*
X025103Y002075D01*
X025103Y018217D01*
X022898Y018217D02*
X022900Y018267D01*
X022906Y018317D01*
X022916Y018366D01*
X022930Y018414D01*
X022947Y018461D01*
X022968Y018506D01*
X022993Y018550D01*
X023021Y018591D01*
X023053Y018630D01*
X023087Y018667D01*
X023124Y018701D01*
X023164Y018731D01*
X023206Y018758D01*
X023250Y018782D01*
X023296Y018803D01*
X023343Y018819D01*
X023391Y018832D01*
X023441Y018841D01*
X023490Y018846D01*
X023541Y018847D01*
X023591Y018844D01*
X023640Y018837D01*
X023689Y018826D01*
X023737Y018811D01*
X023783Y018793D01*
X023828Y018771D01*
X023871Y018745D01*
X023912Y018716D01*
X023951Y018684D01*
X023987Y018649D01*
X024019Y018611D01*
X024049Y018571D01*
X024076Y018528D01*
X024099Y018484D01*
X024118Y018438D01*
X024134Y018390D01*
X024146Y018341D01*
X024154Y018292D01*
X024158Y018242D01*
X024158Y018192D01*
X024154Y018142D01*
X024146Y018093D01*
X024134Y018044D01*
X024118Y017996D01*
X024099Y017950D01*
X024076Y017906D01*
X024049Y017863D01*
X024019Y017823D01*
X023987Y017785D01*
X023951Y017750D01*
X023912Y017718D01*
X023871Y017689D01*
X023828Y017663D01*
X023783Y017641D01*
X023737Y017623D01*
X023689Y017608D01*
X023640Y017597D01*
X023591Y017590D01*
X023541Y017587D01*
X023490Y017588D01*
X023441Y017593D01*
X023391Y017602D01*
X023343Y017615D01*
X023296Y017631D01*
X023250Y017652D01*
X023206Y017676D01*
X023164Y017703D01*
X023124Y017733D01*
X023087Y017767D01*
X023053Y017804D01*
X023021Y017843D01*
X022993Y017884D01*
X022968Y017928D01*
X022947Y017973D01*
X022930Y018020D01*
X022916Y018068D01*
X022906Y018117D01*
X022900Y018167D01*
X022898Y018217D01*
X023528Y019791D02*
X006993Y019791D01*
X006993Y019792D02*
X006916Y019790D01*
X006839Y019784D01*
X006762Y019775D01*
X006686Y019762D01*
X006610Y019745D01*
X006536Y019724D01*
X006462Y019700D01*
X006390Y019672D01*
X006320Y019641D01*
X006251Y019606D01*
X006183Y019568D01*
X006118Y019527D01*
X006055Y019482D01*
X005994Y019434D01*
X005935Y019384D01*
X005879Y019331D01*
X005826Y019275D01*
X005776Y019216D01*
X005728Y019155D01*
X005683Y019092D01*
X005642Y019027D01*
X005604Y018959D01*
X005569Y018890D01*
X005538Y018820D01*
X005510Y018748D01*
X005486Y018674D01*
X005465Y018600D01*
X005448Y018524D01*
X005435Y018448D01*
X005426Y018371D01*
X005420Y018294D01*
X005418Y018217D01*
D13*
X007903Y013740D02*
X008683Y013740D01*
X008683Y011760D02*
X007903Y011760D01*
X007903Y007240D02*
X008683Y007240D01*
X008683Y005260D02*
X007903Y005260D01*
X021778Y008510D02*
X022558Y008510D01*
X022558Y010490D02*
X021778Y010490D01*
D14*
X017918Y010375D03*
X014793Y011125D03*
X016793Y012750D03*
X013668Y015250D03*
X013043Y015250D03*
X012043Y016250D03*
X012668Y016875D03*
X011043Y016250D03*
X010043Y016250D03*
X009043Y016250D03*
X008043Y016250D03*
X007043Y016250D03*
X007043Y018375D03*
X008043Y018375D03*
X009043Y018375D03*
X010043Y018375D03*
X011043Y018375D03*
X012043Y018375D03*
X013043Y018375D03*
X015043Y018375D03*
X016043Y018375D03*
X017043Y018375D03*
X018043Y018375D03*
X019043Y018375D03*
X020043Y018375D03*
X021043Y018375D03*
X022293Y017375D03*
X021043Y016250D03*
X020043Y016250D03*
X019043Y016250D03*
X018043Y016250D03*
X017043Y016250D03*
X016043Y016250D03*
X015043Y016250D03*
X020918Y015000D03*
X014543Y007875D03*
X014918Y007500D03*
X016793Y006250D03*
X017168Y004750D03*
X019668Y006000D03*
X018918Y006750D03*
X021418Y003500D03*
X021918Y003500D03*
X020168Y002875D03*
X018668Y002250D03*
X017668Y002250D03*
X016668Y002250D03*
X015668Y002250D03*
X014668Y002250D03*
X013668Y002250D03*
X021168Y001625D03*
D15*
X021144Y001600D01*
X020607Y001600D01*
X021793Y001000D02*
X015793Y001000D01*
X015668Y001125D01*
X015668Y002250D01*
X016793Y003375D01*
X016793Y006000D01*
X016793Y006250D01*
X017168Y004750D02*
X017168Y003750D01*
X016793Y003375D01*
X017607Y002900D02*
X017607Y002311D01*
X017668Y002250D01*
X018668Y002250D02*
X018668Y001661D01*
X018607Y001600D01*
X019632Y002875D02*
X019607Y002900D01*
X019632Y002875D02*
X020168Y002875D01*
X021418Y003500D02*
X021607Y003311D01*
X021607Y002900D01*
X021918Y003500D02*
X021918Y001125D01*
X021793Y001000D01*
X016607Y001600D02*
X016607Y002189D01*
X016668Y002250D01*
X015668Y002250D02*
X015607Y002311D01*
X015607Y002900D01*
X015607Y002311D01*
X015668Y002250D01*
X014668Y002250D02*
X014607Y002189D01*
X014607Y001600D01*
X013668Y002250D02*
X013668Y002839D01*
X013607Y002900D01*
X018918Y006750D02*
X019668Y006000D01*
X014918Y007500D02*
X014543Y007875D01*
X014793Y011125D02*
X021533Y011125D01*
X022168Y010490D01*
X019908Y012750D01*
X016793Y012750D01*
X013668Y015250D02*
X013607Y015311D01*
X013607Y016175D01*
X013043Y017000D02*
X013043Y015250D01*
X013043Y017000D02*
X013718Y017675D01*
X013718Y018325D01*
X013607Y018325D01*
X020918Y015000D02*
X021607Y015689D01*
X021607Y016175D01*
X022293Y017375D02*
X021607Y018061D01*
X021607Y018325D01*
X022168Y010490D02*
X022053Y010375D01*
X021553Y010375D01*
D16*
X017918Y010375D01*
X011043Y010375D01*
X011762Y011392D02*
X011863Y011350D01*
X011973Y011350D01*
X012074Y011392D01*
X012151Y011469D01*
X012193Y011570D01*
X012193Y011680D01*
X012151Y011781D01*
X012074Y011858D01*
X011973Y011900D01*
X011863Y011900D01*
X011762Y011858D01*
X011685Y011781D01*
X011643Y011680D01*
X011643Y011570D01*
X011685Y011469D01*
X011762Y011392D01*
X011718Y011437D02*
X009109Y011437D01*
X009132Y011460D02*
X009213Y011655D01*
X009213Y011865D01*
X009132Y012060D01*
X008983Y012209D01*
X008789Y012290D01*
X007798Y012290D01*
X007603Y012209D01*
X007454Y012060D01*
X007373Y011865D01*
X007373Y011655D01*
X007454Y011460D01*
X007603Y011311D01*
X007798Y011230D01*
X008789Y011230D01*
X008983Y011311D01*
X009132Y011460D01*
X009188Y011595D02*
X011643Y011595D01*
X011674Y011754D02*
X009213Y011754D01*
X009194Y011912D02*
X024923Y011912D01*
X024923Y011754D02*
X013163Y011754D01*
X013151Y011781D02*
X013074Y011858D01*
X012973Y011900D01*
X012863Y011900D01*
X012762Y011858D01*
X012685Y011781D01*
X012643Y011680D01*
X012643Y011570D01*
X012685Y011469D01*
X012762Y011392D01*
X012863Y011350D01*
X012973Y011350D01*
X013074Y011392D01*
X013151Y011469D01*
X013193Y011570D01*
X013193Y011680D01*
X013151Y011781D01*
X013193Y011595D02*
X024923Y011595D01*
X024923Y011437D02*
X013119Y011437D01*
X012718Y011437D02*
X012119Y011437D01*
X012193Y011595D02*
X012643Y011595D01*
X012674Y011754D02*
X012163Y011754D01*
X011973Y012100D02*
X011863Y012100D01*
X011762Y012142D01*
X011685Y012219D01*
X011643Y012320D01*
X011643Y012430D01*
X011685Y012531D01*
X011762Y012608D01*
X011863Y012650D01*
X011973Y012650D01*
X012074Y012608D01*
X012151Y012531D01*
X012193Y012430D01*
X012193Y012320D01*
X012151Y012219D01*
X012074Y012142D01*
X011973Y012100D01*
X012155Y012229D02*
X012681Y012229D01*
X012685Y012219D02*
X012762Y012142D01*
X012863Y012100D01*
X012973Y012100D01*
X013074Y012142D01*
X013151Y012219D01*
X013193Y012320D01*
X013193Y012430D01*
X013151Y012531D01*
X013074Y012608D01*
X012973Y012650D01*
X012863Y012650D01*
X012762Y012608D01*
X012685Y012531D01*
X012643Y012430D01*
X012643Y012320D01*
X012685Y012219D01*
X012643Y012388D02*
X012193Y012388D01*
X012136Y012546D02*
X012700Y012546D01*
X012832Y012863D02*
X012004Y012863D01*
X011973Y012850D02*
X012074Y012892D01*
X012151Y012969D01*
X012193Y013070D01*
X012193Y013180D01*
X012643Y013180D01*
X012643Y013070D01*
X012685Y012969D01*
X012762Y012892D01*
X012863Y012850D01*
X012973Y012850D01*
X013074Y012892D01*
X013151Y012969D01*
X013193Y013070D01*
X013193Y013180D01*
X024923Y013180D01*
X024923Y013022D02*
X013173Y013022D01*
X013193Y013180D02*
X013151Y013281D01*
X013074Y013358D01*
X012973Y013400D01*
X012863Y013400D01*
X012762Y013358D01*
X012685Y013281D01*
X012643Y013180D01*
X012663Y013022D02*
X012173Y013022D01*
X012193Y013180D02*
X012151Y013281D01*
X012074Y013358D01*
X011973Y013400D01*
X011863Y013400D01*
X011762Y013358D01*
X011685Y013281D01*
X011643Y013180D01*
X006720Y013180D01*
X006840Y013300D02*
X007594Y013300D01*
X007603Y013291D01*
X007798Y013210D01*
X008789Y013210D01*
X008983Y013291D01*
X009132Y013440D01*
X009213Y013635D01*
X009213Y013845D01*
X009132Y014040D01*
X008983Y014189D01*
X008789Y014270D01*
X007798Y014270D01*
X007603Y014189D01*
X007594Y014180D01*
X006571Y014180D01*
X006409Y014113D01*
X005669Y013373D01*
X005598Y013302D01*
X005598Y018217D01*
X005610Y018399D01*
X005704Y018750D01*
X005886Y019066D01*
X005886Y019066D01*
X006144Y019323D01*
X006459Y019505D01*
X006811Y019599D01*
X006993Y019611D01*
X022267Y019611D01*
X022267Y018246D01*
X022265Y018244D01*
X022267Y018214D01*
X022267Y018183D01*
X022270Y018181D01*
X022278Y018069D01*
X022274Y018064D01*
X022280Y018037D01*
X022282Y018010D01*
X022287Y018005D01*
X022311Y017893D01*
X022309Y017887D01*
X022318Y017861D01*
X022324Y017834D01*
X022329Y017831D01*
X022370Y017723D01*
X022368Y017717D01*
X022381Y017693D01*
X022391Y017667D01*
X022397Y017664D01*
X022433Y017597D01*
X022345Y017634D01*
X022303Y017634D01*
X021997Y017940D01*
X021997Y018883D01*
X021915Y018965D01*
X021299Y018965D01*
X021217Y018883D01*
X021217Y018567D01*
X021190Y018595D01*
X021095Y018634D01*
X020997Y018634D01*
X020997Y018883D01*
X020915Y018965D01*
X020299Y018965D01*
X020217Y018883D01*
X020217Y018567D01*
X020190Y018595D01*
X020095Y018634D01*
X019997Y018634D01*
X019997Y018883D01*
X019915Y018965D01*
X019299Y018965D01*
X019217Y018883D01*
X019217Y018567D01*
X019190Y018595D01*
X019095Y018634D01*
X018997Y018634D01*
X018997Y018883D01*
X018915Y018965D01*
X018299Y018965D01*
X018217Y018883D01*
X018217Y018567D01*
X018190Y018595D01*
X018095Y018634D01*
X017997Y018634D01*
X017997Y018883D01*
X017915Y018965D01*
X017299Y018965D01*
X017217Y018883D01*
X017217Y018567D01*
X017190Y018595D01*
X017095Y018634D01*
X016997Y018634D01*
X016997Y018883D01*
X016915Y018965D01*
X016299Y018965D01*
X016217Y018883D01*
X016217Y018567D01*
X016190Y018595D01*
X016095Y018634D01*
X015997Y018634D01*
X015997Y018883D01*
X015915Y018965D01*
X015299Y018965D01*
X015217Y018883D01*
X015217Y018567D01*
X015190Y018595D01*
X015095Y018634D01*
X014997Y018634D01*
X014997Y018883D01*
X014915Y018965D01*
X014299Y018965D01*
X014217Y018883D01*
X014217Y017767D01*
X014299Y017685D01*
X014915Y017685D01*
X014997Y017767D01*
X014997Y018105D01*
X015084Y018105D01*
X015096Y018116D01*
X015190Y018155D01*
X015217Y018183D01*
X015217Y017767D01*
X015299Y017685D01*
X015915Y017685D01*
X015997Y017767D01*
X015997Y018105D01*
X016084Y018105D01*
X016096Y018116D01*
X016190Y018155D01*
X016217Y018183D01*
X016217Y017767D01*
X016299Y017685D01*
X016915Y017685D01*
X016997Y017767D01*
X016997Y018105D01*
X017084Y018105D01*
X017096Y018116D01*
X017190Y018155D01*
X017217Y018183D01*
X017217Y017767D01*
X017299Y017685D01*
X017915Y017685D01*
X017997Y017767D01*
X017997Y018105D01*
X018084Y018105D01*
X018096Y018116D01*
X018190Y018155D01*
X018217Y018183D01*
X018217Y017767D01*
X018299Y017685D01*
X018915Y017685D01*
X018997Y017767D01*
X018997Y018105D01*
X019084Y018105D01*
X019096Y018116D01*
X019190Y018155D01*
X019217Y018183D01*
X019217Y017767D01*
X019299Y017685D01*
X019915Y017685D01*
X019997Y017767D01*
X019997Y018105D01*
X020084Y018105D01*
X020096Y018116D01*
X020190Y018155D01*
X020217Y018183D01*
X020217Y017767D01*
X020299Y017685D01*
X020915Y017685D01*
X020997Y017767D01*
X020997Y018105D01*
X021084Y018105D01*
X021096Y018116D01*
X021190Y018155D01*
X021217Y018183D01*
X021217Y017767D01*
X021299Y017685D01*
X021715Y017685D01*
X022034Y017365D01*
X022034Y017323D01*
X022073Y017228D01*
X022146Y017155D01*
X022242Y017116D01*
X022345Y017116D01*
X022440Y017155D01*
X022513Y017228D01*
X022552Y017323D01*
X022552Y017421D01*
X022556Y017416D01*
X022556Y017410D01*
X022575Y017391D01*
X022592Y017369D01*
X022598Y017368D01*
X022679Y017286D01*
X022680Y017280D01*
X022702Y017263D01*
X022722Y017244D01*
X022728Y017244D01*
X022821Y017175D01*
X022822Y017169D01*
X022846Y017155D01*
X022868Y017139D01*
X022875Y017140D01*
X022976Y017085D01*
X022979Y017079D01*
X023004Y017069D01*
X023028Y017056D01*
X023035Y017058D01*
X023143Y017018D01*
X023146Y017012D01*
X023173Y017006D01*
X023199Y016997D01*
X023205Y016999D01*
X023317Y016975D01*
X023321Y016970D01*
X023349Y016968D01*
X023376Y016962D01*
X023381Y016966D01*
X023493Y016958D01*
X023495Y016955D01*
X023525Y016955D01*
X023556Y016953D01*
X023558Y016955D01*
X024923Y016955D01*
X024923Y003336D01*
X023558Y003336D01*
X023556Y003338D01*
X023525Y003336D01*
X023495Y003336D01*
X023493Y003334D01*
X023381Y003326D01*
X023376Y003329D01*
X023349Y003323D01*
X023321Y003321D01*
X023317Y003316D01*
X023205Y003292D01*
X023199Y003295D01*
X023173Y003285D01*
X023146Y003279D01*
X023143Y003274D01*
X023035Y003233D01*
X023028Y003235D01*
X023004Y003222D01*
X022979Y003213D01*
X022976Y003207D01*
X022875Y003151D01*
X022868Y003152D01*
X022846Y003136D01*
X022822Y003123D01*
X022821Y003116D01*
X022728Y003047D01*
X022722Y003047D01*
X022702Y003028D01*
X022680Y003012D01*
X022679Y003005D01*
X022598Y002924D01*
X022592Y002923D01*
X022575Y002901D01*
X022556Y002881D01*
X022556Y002875D01*
X022487Y002783D01*
X022480Y002781D01*
X022467Y002757D01*
X022451Y002735D01*
X022452Y002728D01*
X022397Y002627D01*
X022391Y002624D01*
X022381Y002599D01*
X022368Y002575D01*
X022370Y002568D01*
X022329Y002460D01*
X022324Y002457D01*
X022318Y002430D01*
X022309Y002404D01*
X022311Y002399D01*
X022287Y002286D01*
X022282Y002282D01*
X022280Y002254D01*
X022274Y002228D01*
X022278Y002222D01*
X022270Y002110D01*
X022267Y002108D01*
X022267Y002078D01*
X022265Y002047D01*
X022267Y002045D01*
X022267Y000680D01*
X006993Y000680D01*
X006811Y000692D01*
X006459Y000786D01*
X006144Y000968D01*
X005886Y001226D01*
X005704Y001541D01*
X005610Y001893D01*
X005598Y002075D01*
X005598Y007448D01*
X006045Y007001D01*
X006169Y006877D01*
X006331Y006810D01*
X007584Y006810D01*
X007603Y006791D01*
X007798Y006710D01*
X008789Y006710D01*
X008983Y006791D01*
X009132Y006940D01*
X009213Y007135D01*
X009213Y007345D01*
X009132Y007540D01*
X008983Y007689D01*
X008789Y007770D01*
X007798Y007770D01*
X007605Y007690D01*
X006600Y007690D01*
X006358Y007932D01*
X006358Y009060D01*
X021236Y009060D01*
X021407Y008889D01*
X021329Y008810D01*
X021248Y008615D01*
X021248Y008405D01*
X021329Y008210D01*
X021478Y008061D01*
X021673Y007980D01*
X022664Y007980D01*
X022858Y008061D01*
X023007Y008210D01*
X023088Y008405D01*
X023088Y008615D01*
X023007Y008810D01*
X022858Y008959D01*
X022664Y009040D01*
X022500Y009040D01*
X021667Y009873D01*
X021506Y009940D01*
X006358Y009940D01*
X006358Y012818D01*
X006840Y013300D01*
X006562Y013022D02*
X011663Y013022D01*
X011643Y013070D02*
X011685Y012969D01*
X011762Y012892D01*
X011863Y012850D01*
X011973Y012850D01*
X011832Y012863D02*
X006403Y012863D01*
X006358Y012705D02*
X024923Y012705D01*
X024923Y012863D02*
X013004Y012863D01*
X013136Y012546D02*
X024923Y012546D01*
X024923Y012388D02*
X013193Y012388D01*
X013155Y012229D02*
X024923Y012229D01*
X024923Y012071D02*
X009122Y012071D01*
X008936Y012229D02*
X011681Y012229D01*
X011643Y012388D02*
X006358Y012388D01*
X006358Y012546D02*
X011700Y012546D01*
X011643Y013070D02*
X011643Y013180D01*
X011743Y013339D02*
X009031Y013339D01*
X009156Y013497D02*
X024923Y013497D01*
X024923Y013339D02*
X013093Y013339D01*
X012973Y013600D02*
X012863Y013600D01*
X012762Y013642D01*
X012685Y013719D01*
X012643Y013820D01*
X012643Y013930D01*
X012685Y014031D01*
X012762Y014108D01*
X012863Y014150D01*
X012973Y014150D01*
X013074Y014108D01*
X013151Y014031D01*
X013193Y013930D01*
X013193Y013820D01*
X013151Y013719D01*
X013074Y013642D01*
X012973Y013600D01*
X013088Y013656D02*
X024923Y013656D01*
X024923Y013814D02*
X013191Y013814D01*
X013175Y013973D02*
X024923Y013973D01*
X024923Y014131D02*
X013019Y014131D01*
X012818Y014131D02*
X012019Y014131D01*
X011973Y014150D02*
X011863Y014150D01*
X011762Y014108D01*
X011685Y014031D01*
X011643Y013930D01*
X011643Y013820D01*
X011685Y013719D01*
X011762Y013642D01*
X011863Y013600D01*
X011973Y013600D01*
X012074Y013642D01*
X012151Y013719D01*
X012193Y013820D01*
X012193Y013930D01*
X012151Y014031D01*
X012074Y014108D01*
X011973Y014150D01*
X011818Y014131D02*
X009042Y014131D01*
X009160Y013973D02*
X011661Y013973D01*
X011646Y013814D02*
X009213Y013814D01*
X009213Y013656D02*
X011749Y013656D01*
X012088Y013656D02*
X012749Y013656D01*
X012646Y013814D02*
X012191Y013814D01*
X012175Y013973D02*
X012661Y013973D01*
X012743Y013339D02*
X012093Y013339D01*
X012896Y015030D02*
X012823Y015103D01*
X012784Y015198D01*
X012784Y015302D01*
X012823Y015397D01*
X012853Y015426D01*
X012853Y015535D01*
X012299Y015535D01*
X012217Y015617D01*
X012217Y016058D01*
X012190Y016030D01*
X012096Y015991D01*
X012059Y015955D01*
X011997Y015955D01*
X011997Y015617D01*
X011915Y015535D01*
X011299Y015535D01*
X011217Y015617D01*
X011217Y016058D01*
X011190Y016030D01*
X011096Y015991D01*
X011059Y015955D01*
X010997Y015955D01*
X010997Y015617D01*
X010915Y015535D01*
X010299Y015535D01*
X010217Y015617D01*
X010217Y016058D01*
X010190Y016030D01*
X010096Y015991D01*
X010059Y015955D01*
X009997Y015955D01*
X009997Y015617D01*
X009915Y015535D01*
X009299Y015535D01*
X009217Y015617D01*
X009217Y016058D01*
X009190Y016030D01*
X009096Y015991D01*
X009059Y015955D01*
X008997Y015955D01*
X008997Y015617D01*
X008915Y015535D01*
X008299Y015535D01*
X008217Y015617D01*
X008217Y016058D01*
X008190Y016030D01*
X008096Y015991D01*
X008059Y015955D01*
X007997Y015955D01*
X007997Y015617D01*
X007915Y015535D01*
X007299Y015535D01*
X007217Y015617D01*
X007217Y016058D01*
X007190Y016030D01*
X007096Y015991D01*
X007059Y015955D01*
X006997Y015955D01*
X006997Y015617D01*
X006915Y015535D01*
X006299Y015535D01*
X006217Y015617D01*
X006217Y016733D01*
X006299Y016815D01*
X006915Y016815D01*
X006997Y016733D01*
X006997Y016509D01*
X007095Y016509D01*
X007190Y016470D01*
X007217Y016442D01*
X007217Y016733D01*
X007299Y016815D01*
X007915Y016815D01*
X007997Y016733D01*
X007997Y016509D01*
X008095Y016509D01*
X008190Y016470D01*
X008217Y016442D01*
X008217Y016733D01*
X008299Y016815D01*
X008915Y016815D01*
X008997Y016733D01*
X008997Y016509D01*
X009095Y016509D01*
X009190Y016470D01*
X009217Y016442D01*
X009217Y016733D01*
X009299Y016815D01*
X009915Y016815D01*
X009997Y016733D01*
X009997Y016509D01*
X010095Y016509D01*
X010190Y016470D01*
X010217Y016442D01*
X010217Y016733D01*
X010299Y016815D01*
X010915Y016815D01*
X010997Y016733D01*
X010997Y016509D01*
X011095Y016509D01*
X011190Y016470D01*
X011217Y016442D01*
X011217Y016733D01*
X011299Y016815D01*
X011915Y016815D01*
X011997Y016733D01*
X011997Y016509D01*
X012095Y016509D01*
X012190Y016470D01*
X012217Y016442D01*
X012217Y016733D01*
X012299Y016815D01*
X012387Y016815D01*
X012387Y016905D01*
X012409Y016927D01*
X012448Y017022D01*
X012521Y017095D01*
X012617Y017134D01*
X012720Y017134D01*
X012815Y017095D01*
X012853Y017056D01*
X012853Y017079D01*
X012964Y017190D01*
X013459Y017685D01*
X013299Y017685D01*
X013217Y017767D01*
X013217Y018183D01*
X013190Y018155D01*
X013096Y018116D01*
X013084Y018105D01*
X012997Y018105D01*
X012997Y017767D01*
X012915Y017685D01*
X012299Y017685D01*
X012217Y017767D01*
X012217Y018183D01*
X012190Y018155D01*
X012096Y018116D01*
X012084Y018105D01*
X011997Y018105D01*
X011997Y017767D01*
X011915Y017685D01*
X011299Y017685D01*
X011217Y017767D01*
X011217Y018183D01*
X011190Y018155D01*
X011096Y018116D01*
X011084Y018105D01*
X010997Y018105D01*
X010997Y017767D01*
X010915Y017685D01*
X010299Y017685D01*
X010217Y017767D01*
X010217Y018183D01*
X010190Y018155D01*
X010096Y018116D01*
X010084Y018105D01*
X009997Y018105D01*
X009997Y017767D01*
X009915Y017685D01*
X009299Y017685D01*
X009217Y017767D01*
X009217Y018183D01*
X009190Y018155D01*
X009096Y018116D01*
X009084Y018105D01*
X008997Y018105D01*
X008997Y017767D01*
X008915Y017685D01*
X008299Y017685D01*
X008217Y017767D01*
X008217Y018183D01*
X008190Y018155D01*
X008096Y018116D01*
X008084Y018105D01*
X007997Y018105D01*
X007997Y017767D01*
X007915Y017685D01*
X007299Y017685D01*
X007217Y017767D01*
X007217Y018183D01*
X007190Y018155D01*
X007096Y018116D01*
X007084Y018105D01*
X006997Y018105D01*
X006997Y017767D01*
X006915Y017685D01*
X006299Y017685D01*
X006217Y017767D01*
X006217Y018883D01*
X006299Y018965D01*
X006915Y018965D01*
X006997Y018883D01*
X006997Y018634D01*
X007095Y018634D01*
X007190Y018595D01*
X007217Y018567D01*
X007217Y018883D01*
X007299Y018965D01*
X007915Y018965D01*
X007997Y018883D01*
X007997Y018634D01*
X008095Y018634D01*
X008190Y018595D01*
X008217Y018567D01*
X008217Y018883D01*
X008299Y018965D01*
X008915Y018965D01*
X008997Y018883D01*
X008997Y018634D01*
X009095Y018634D01*
X009190Y018595D01*
X009217Y018567D01*
X009217Y018883D01*
X009299Y018965D01*
X009915Y018965D01*
X009997Y018883D01*
X009997Y018634D01*
X010095Y018634D01*
X010190Y018595D01*
X010217Y018567D01*
X010217Y018883D01*
X010299Y018965D01*
X010915Y018965D01*
X010997Y018883D01*
X010997Y018634D01*
X011095Y018634D01*
X011190Y018595D01*
X011217Y018567D01*
X011217Y018883D01*
X011299Y018965D01*
X011915Y018965D01*
X011997Y018883D01*
X011997Y018634D01*
X012095Y018634D01*
X012190Y018595D01*
X012217Y018567D01*
X012217Y018883D01*
X012299Y018965D01*
X012915Y018965D01*
X012997Y018883D01*
X012997Y018634D01*
X013095Y018634D01*
X013190Y018595D01*
X013217Y018567D01*
X013217Y018883D01*
X013299Y018965D01*
X013915Y018965D01*
X013997Y018883D01*
X013997Y017767D01*
X013915Y017685D01*
X013908Y017685D01*
X013908Y017596D01*
X013233Y016921D01*
X013233Y016749D01*
X013299Y016815D01*
X013915Y016815D01*
X013997Y016733D01*
X013997Y015617D01*
X013915Y015535D01*
X013797Y015535D01*
X013797Y015477D01*
X013815Y015470D01*
X013888Y015397D01*
X013927Y015302D01*
X013927Y015198D01*
X013888Y015103D01*
X013815Y015030D01*
X013720Y014991D01*
X013617Y014991D01*
X013521Y015030D01*
X013448Y015103D01*
X013409Y015198D01*
X013409Y015302D01*
X013417Y015321D01*
X013417Y015535D01*
X013299Y015535D01*
X013233Y015601D01*
X013233Y015426D01*
X013263Y015397D01*
X013302Y015302D01*
X013302Y015198D01*
X013263Y015103D01*
X013190Y015030D01*
X013095Y014991D01*
X012992Y014991D01*
X012896Y015030D01*
X012845Y015082D02*
X005598Y015082D01*
X005598Y014924D02*
X020669Y014924D01*
X020659Y014948D02*
X020698Y014853D01*
X020771Y014780D01*
X020867Y014741D01*
X020970Y014741D01*
X021065Y014780D01*
X021138Y014853D01*
X021177Y014948D01*
X021177Y014990D01*
X021722Y015535D01*
X021915Y015535D01*
X021997Y015617D01*
X021997Y016733D01*
X021915Y016815D01*
X021299Y016815D01*
X021217Y016733D01*
X021217Y016442D01*
X021190Y016470D01*
X021095Y016509D01*
X020997Y016509D01*
X020997Y016733D01*
X020915Y016815D01*
X020299Y016815D01*
X020217Y016733D01*
X020217Y016442D01*
X020190Y016470D01*
X020095Y016509D01*
X019997Y016509D01*
X019997Y016733D01*
X019915Y016815D01*
X019299Y016815D01*
X019217Y016733D01*
X019217Y016442D01*
X019190Y016470D01*
X019095Y016509D01*
X018997Y016509D01*
X018997Y016733D01*
X018915Y016815D01*
X018299Y016815D01*
X018217Y016733D01*
X018217Y016442D01*
X018190Y016470D01*
X018095Y016509D01*
X017997Y016509D01*
X017997Y016733D01*
X017915Y016815D01*
X017299Y016815D01*
X017217Y016733D01*
X017217Y016442D01*
X017190Y016470D01*
X017095Y016509D01*
X016997Y016509D01*
X016997Y016733D01*
X016915Y016815D01*
X016299Y016815D01*
X016217Y016733D01*
X016217Y016442D01*
X016190Y016470D01*
X016095Y016509D01*
X015997Y016509D01*
X015997Y016733D01*
X015915Y016815D01*
X015299Y016815D01*
X015217Y016733D01*
X015217Y016442D01*
X015190Y016470D01*
X015095Y016509D01*
X014997Y016509D01*
X014997Y016733D01*
X014915Y016815D01*
X014299Y016815D01*
X014217Y016733D01*
X014217Y015617D01*
X014299Y015535D01*
X014915Y015535D01*
X014997Y015617D01*
X014997Y015955D01*
X015059Y015955D01*
X015096Y015991D01*
X015190Y016030D01*
X015217Y016058D01*
X015217Y015617D01*
X015299Y015535D01*
X015915Y015535D01*
X015997Y015617D01*
X015997Y015955D01*
X016059Y015955D01*
X016096Y015991D01*
X016190Y016030D01*
X016217Y016058D01*
X016217Y015617D01*
X016299Y015535D01*
X016915Y015535D01*
X016997Y015617D01*
X016997Y015955D01*
X017059Y015955D01*
X017096Y015991D01*
X017190Y016030D01*
X017217Y016058D01*
X017217Y015617D01*
X017299Y015535D01*
X017915Y015535D01*
X017997Y015617D01*
X017997Y015955D01*
X018059Y015955D01*
X018096Y015991D01*
X018190Y016030D01*
X018217Y016058D01*
X018217Y015617D01*
X018299Y015535D01*
X018915Y015535D01*
X018997Y015617D01*
X018997Y015955D01*
X019059Y015955D01*
X019096Y015991D01*
X019190Y016030D01*
X019217Y016058D01*
X019217Y015617D01*
X019299Y015535D01*
X019915Y015535D01*
X019997Y015617D01*
X019997Y015955D01*
X020059Y015955D01*
X020096Y015991D01*
X020190Y016030D01*
X020217Y016058D01*
X020217Y015617D01*
X020299Y015535D01*
X020915Y015535D01*
X020997Y015617D01*
X020997Y015955D01*
X021059Y015955D01*
X021096Y015991D01*
X021190Y016030D01*
X021217Y016058D01*
X021217Y015617D01*
X021242Y015592D01*
X020908Y015259D01*
X020867Y015259D01*
X020771Y015220D01*
X020698Y015147D01*
X020659Y015052D01*
X020659Y014948D01*
X020672Y015082D02*
X013866Y015082D01*
X013927Y015241D02*
X020822Y015241D01*
X021048Y015399D02*
X013885Y015399D01*
X013937Y015558D02*
X014277Y015558D01*
X014217Y015716D02*
X013997Y015716D01*
X013997Y015875D02*
X014217Y015875D01*
X014217Y016033D02*
X013997Y016033D01*
X013997Y016192D02*
X014217Y016192D01*
X014217Y016350D02*
X013997Y016350D01*
X013997Y016509D02*
X014217Y016509D01*
X014217Y016667D02*
X013997Y016667D01*
X013454Y017143D02*
X022177Y017143D01*
X022043Y017301D02*
X013613Y017301D01*
X013771Y017460D02*
X021940Y017460D01*
X021781Y017618D02*
X013908Y017618D01*
X013997Y017777D02*
X014217Y017777D01*
X014217Y017935D02*
X013997Y017935D01*
X013997Y018094D02*
X014217Y018094D01*
X014217Y018252D02*
X013997Y018252D01*
X013997Y018411D02*
X014217Y018411D01*
X014217Y018569D02*
X013997Y018569D01*
X013997Y018728D02*
X014217Y018728D01*
X014220Y018886D02*
X013994Y018886D01*
X013220Y018886D02*
X012994Y018886D01*
X012997Y018728D02*
X013217Y018728D01*
X013215Y018569D02*
X013217Y018569D01*
X013043Y018375D02*
X012993Y018325D01*
X012607Y018325D01*
X012997Y018094D02*
X013217Y018094D01*
X013217Y017935D02*
X012997Y017935D01*
X012997Y017777D02*
X013217Y017777D01*
X013392Y017618D02*
X005598Y017618D01*
X005598Y017460D02*
X013234Y017460D01*
X013075Y017301D02*
X005598Y017301D01*
X005598Y017143D02*
X012917Y017143D01*
X012668Y016875D02*
X012607Y016814D01*
X012607Y016175D01*
X012217Y016033D02*
X012192Y016033D01*
X012217Y015875D02*
X011997Y015875D01*
X011997Y015716D02*
X012217Y015716D01*
X012277Y015558D02*
X011937Y015558D01*
X011277Y015558D02*
X010937Y015558D01*
X010997Y015716D02*
X011217Y015716D01*
X011217Y015875D02*
X010997Y015875D01*
X011192Y016033D02*
X011217Y016033D01*
X011043Y016250D02*
X010968Y016175D01*
X010607Y016175D01*
X010217Y016033D02*
X010192Y016033D01*
X010217Y015875D02*
X009997Y015875D01*
X009997Y015716D02*
X010217Y015716D01*
X010277Y015558D02*
X009937Y015558D01*
X009968Y016175D02*
X009607Y016175D01*
X009968Y016175D02*
X010043Y016250D01*
X010096Y016509D02*
X010217Y016509D01*
X010217Y016667D02*
X009997Y016667D01*
X009217Y016667D02*
X008997Y016667D01*
X009096Y016509D02*
X009217Y016509D01*
X009043Y016250D02*
X008968Y016175D01*
X008607Y016175D01*
X008217Y016033D02*
X008192Y016033D01*
X008217Y015875D02*
X007997Y015875D01*
X007997Y015716D02*
X008217Y015716D01*
X008277Y015558D02*
X007937Y015558D01*
X007277Y015558D02*
X006937Y015558D01*
X006997Y015716D02*
X007217Y015716D01*
X007217Y015875D02*
X006997Y015875D01*
X007192Y016033D02*
X007217Y016033D01*
X007043Y016250D02*
X006968Y016175D01*
X006607Y016175D01*
X007096Y016509D02*
X007217Y016509D01*
X007217Y016667D02*
X006997Y016667D01*
X007607Y016175D02*
X007968Y016175D01*
X008043Y016250D01*
X008096Y016509D02*
X008217Y016509D01*
X008217Y016667D02*
X007997Y016667D01*
X008997Y015875D02*
X009217Y015875D01*
X009217Y016033D02*
X009192Y016033D01*
X009217Y015716D02*
X008997Y015716D01*
X008937Y015558D02*
X009277Y015558D01*
X010997Y016667D02*
X011217Y016667D01*
X011217Y016509D02*
X011096Y016509D01*
X011607Y016175D02*
X011968Y016175D01*
X012043Y016250D01*
X012096Y016509D02*
X012217Y016509D01*
X012217Y016667D02*
X011997Y016667D01*
X012387Y016826D02*
X005598Y016826D01*
X005598Y016984D02*
X012433Y016984D01*
X013233Y016826D02*
X024923Y016826D01*
X024923Y016667D02*
X021997Y016667D01*
X021997Y016509D02*
X024923Y016509D01*
X024923Y016350D02*
X021997Y016350D01*
X021997Y016192D02*
X024923Y016192D01*
X024923Y016033D02*
X021997Y016033D01*
X021997Y015875D02*
X024923Y015875D01*
X024923Y015716D02*
X021997Y015716D01*
X021937Y015558D02*
X024923Y015558D01*
X024923Y015399D02*
X021586Y015399D01*
X021427Y015241D02*
X024923Y015241D01*
X024923Y015082D02*
X021269Y015082D01*
X021167Y014924D02*
X024923Y014924D01*
X024923Y014765D02*
X021028Y014765D01*
X020808Y014765D02*
X005598Y014765D01*
X005598Y014607D02*
X024923Y014607D01*
X024923Y014448D02*
X005598Y014448D01*
X005598Y014290D02*
X024923Y014290D01*
X021207Y015558D02*
X020937Y015558D01*
X020997Y015716D02*
X021217Y015716D01*
X021217Y015875D02*
X020997Y015875D01*
X021192Y016033D02*
X021217Y016033D01*
X021043Y016250D02*
X020968Y016175D01*
X020607Y016175D01*
X020217Y016033D02*
X020192Y016033D01*
X020217Y015875D02*
X019997Y015875D01*
X019997Y015716D02*
X020217Y015716D01*
X020277Y015558D02*
X019937Y015558D01*
X019277Y015558D02*
X018937Y015558D01*
X018997Y015716D02*
X019217Y015716D01*
X019217Y015875D02*
X018997Y015875D01*
X019192Y016033D02*
X019217Y016033D01*
X019043Y016250D02*
X018968Y016175D01*
X018607Y016175D01*
X019096Y016509D02*
X019217Y016509D01*
X019217Y016667D02*
X018997Y016667D01*
X019607Y016175D02*
X019968Y016175D01*
X020043Y016250D01*
X020096Y016509D02*
X020217Y016509D01*
X020217Y016667D02*
X019997Y016667D01*
X020997Y016667D02*
X021217Y016667D01*
X021217Y016509D02*
X021096Y016509D01*
X022409Y017143D02*
X022864Y017143D01*
X022665Y017301D02*
X022543Y017301D01*
X022422Y017618D02*
X022383Y017618D01*
X022350Y017777D02*
X022160Y017777D01*
X022302Y017935D02*
X022002Y017935D01*
X021997Y018094D02*
X022276Y018094D01*
X022267Y018252D02*
X021997Y018252D01*
X021997Y018411D02*
X022267Y018411D01*
X022267Y018569D02*
X021997Y018569D01*
X021997Y018728D02*
X022267Y018728D01*
X022267Y018886D02*
X021994Y018886D01*
X022267Y019045D02*
X005874Y019045D01*
X005783Y018886D02*
X006220Y018886D01*
X006217Y018728D02*
X005698Y018728D01*
X005656Y018569D02*
X006217Y018569D01*
X006217Y018411D02*
X005613Y018411D01*
X005600Y018252D02*
X006217Y018252D01*
X006217Y018094D02*
X005598Y018094D01*
X005598Y017935D02*
X006217Y017935D01*
X006217Y017777D02*
X005598Y017777D01*
X006607Y018325D02*
X006993Y018325D01*
X007043Y018375D01*
X007215Y018569D02*
X007217Y018569D01*
X007217Y018728D02*
X006997Y018728D01*
X006994Y018886D02*
X007220Y018886D01*
X007994Y018886D02*
X008220Y018886D01*
X008217Y018728D02*
X007997Y018728D01*
X008215Y018569D02*
X008217Y018569D01*
X008043Y018375D02*
X007993Y018325D01*
X007607Y018325D01*
X007217Y018094D02*
X006997Y018094D01*
X006997Y017935D02*
X007217Y017935D01*
X007217Y017777D02*
X006997Y017777D01*
X007997Y017777D02*
X008217Y017777D01*
X008217Y017935D02*
X007997Y017935D01*
X007997Y018094D02*
X008217Y018094D01*
X008607Y018325D02*
X008993Y018325D01*
X009043Y018375D01*
X009215Y018569D02*
X009217Y018569D01*
X009217Y018728D02*
X008997Y018728D01*
X008994Y018886D02*
X009220Y018886D01*
X009607Y018325D02*
X009993Y018325D01*
X010043Y018375D01*
X010215Y018569D02*
X010217Y018569D01*
X010217Y018728D02*
X009997Y018728D01*
X009994Y018886D02*
X010220Y018886D01*
X010994Y018886D02*
X011220Y018886D01*
X011217Y018728D02*
X010997Y018728D01*
X011215Y018569D02*
X011217Y018569D01*
X011043Y018375D02*
X010993Y018325D01*
X010607Y018325D01*
X010217Y018094D02*
X009997Y018094D01*
X009997Y017935D02*
X010217Y017935D01*
X010217Y017777D02*
X009997Y017777D01*
X009217Y017777D02*
X008997Y017777D01*
X008997Y017935D02*
X009217Y017935D01*
X009217Y018094D02*
X008997Y018094D01*
X010997Y018094D02*
X011217Y018094D01*
X011217Y017935D02*
X010997Y017935D01*
X010997Y017777D02*
X011217Y017777D01*
X011607Y018325D02*
X011993Y018325D01*
X012043Y018375D01*
X012215Y018569D02*
X012217Y018569D01*
X012217Y018728D02*
X011997Y018728D01*
X011994Y018886D02*
X012220Y018886D01*
X012217Y018094D02*
X011997Y018094D01*
X011997Y017935D02*
X012217Y017935D01*
X012217Y017777D02*
X011997Y017777D01*
X013296Y016984D02*
X023275Y016984D01*
X021217Y017777D02*
X020997Y017777D01*
X020997Y017935D02*
X021217Y017935D01*
X021217Y018094D02*
X020997Y018094D01*
X020993Y018325D02*
X021043Y018375D01*
X020993Y018325D02*
X020607Y018325D01*
X020217Y018094D02*
X019997Y018094D01*
X019997Y017935D02*
X020217Y017935D01*
X020217Y017777D02*
X019997Y017777D01*
X019993Y018325D02*
X019607Y018325D01*
X019993Y018325D02*
X020043Y018375D01*
X020215Y018569D02*
X020217Y018569D01*
X020217Y018728D02*
X019997Y018728D01*
X019994Y018886D02*
X020220Y018886D01*
X020994Y018886D02*
X021220Y018886D01*
X021217Y018728D02*
X020997Y018728D01*
X021215Y018569D02*
X021217Y018569D01*
X022267Y019203D02*
X006024Y019203D01*
X006210Y019362D02*
X022267Y019362D01*
X022267Y019520D02*
X006515Y019520D01*
X006217Y016667D02*
X005598Y016667D01*
X005598Y016509D02*
X006217Y016509D01*
X006217Y016350D02*
X005598Y016350D01*
X005598Y016192D02*
X006217Y016192D01*
X006217Y016033D02*
X005598Y016033D01*
X005598Y015875D02*
X006217Y015875D01*
X006217Y015716D02*
X005598Y015716D01*
X005598Y015558D02*
X006277Y015558D01*
X005598Y015399D02*
X012826Y015399D01*
X012784Y015241D02*
X005598Y015241D01*
X005598Y014131D02*
X006452Y014131D01*
X006268Y013973D02*
X005598Y013973D01*
X005598Y013814D02*
X006110Y013814D01*
X005951Y013656D02*
X005598Y013656D01*
X005598Y013497D02*
X005793Y013497D01*
X005634Y013339D02*
X005598Y013339D01*
X006358Y012229D02*
X007650Y012229D01*
X007464Y012071D02*
X006358Y012071D01*
X006358Y011912D02*
X007392Y011912D01*
X007373Y011754D02*
X006358Y011754D01*
X006358Y011595D02*
X007398Y011595D01*
X007477Y011437D02*
X006358Y011437D01*
X006358Y011278D02*
X007682Y011278D01*
X008904Y011278D02*
X024923Y011278D01*
X024923Y011120D02*
X006358Y011120D01*
X006358Y010961D02*
X021457Y010961D01*
X021479Y010978D02*
X021407Y010925D01*
X021343Y010861D01*
X021291Y010789D01*
X021250Y010709D01*
X021222Y010623D01*
X021209Y010540D01*
X022118Y010540D01*
X022118Y010440D01*
X021209Y010440D01*
X021222Y010357D01*
X021250Y010271D01*
X021291Y010191D01*
X021343Y010119D01*
X021407Y010055D01*
X021479Y010002D01*
X021559Y009962D01*
X021645Y009934D01*
X021733Y009920D01*
X022118Y009920D01*
X022118Y010440D01*
X022218Y010440D01*
X022218Y009920D01*
X022603Y009920D01*
X022692Y009934D01*
X022777Y009962D01*
X022857Y010002D01*
X022929Y010055D01*
X022993Y010119D01*
X023046Y010191D01*
X023086Y010271D01*
X023114Y010357D01*
X023127Y010440D01*
X022218Y010440D01*
X022218Y010540D01*
X022118Y010540D01*
X022118Y011060D01*
X021733Y011060D01*
X021645Y011046D01*
X021559Y011018D01*
X021479Y010978D01*
X021301Y010803D02*
X006358Y010803D01*
X006358Y010644D02*
X021229Y010644D01*
X021232Y010327D02*
X006358Y010327D01*
X006358Y010169D02*
X021307Y010169D01*
X021469Y010010D02*
X006358Y010010D01*
X006358Y010486D02*
X022118Y010486D01*
X022218Y010486D02*
X024923Y010486D01*
X024923Y010644D02*
X023107Y010644D01*
X023114Y010623D02*
X023086Y010709D01*
X023046Y010789D01*
X022993Y010861D01*
X022929Y010925D01*
X022857Y010978D01*
X022777Y011018D01*
X022692Y011046D01*
X022603Y011060D01*
X022218Y011060D01*
X022218Y010540D01*
X023127Y010540D01*
X023114Y010623D01*
X023036Y010803D02*
X024923Y010803D01*
X024923Y010961D02*
X022880Y010961D01*
X022218Y010961D02*
X022118Y010961D01*
X022118Y010803D02*
X022218Y010803D01*
X022218Y010644D02*
X022118Y010644D01*
X022118Y010327D02*
X022218Y010327D01*
X022218Y010169D02*
X022118Y010169D01*
X022118Y010010D02*
X022218Y010010D01*
X021847Y009693D02*
X024923Y009693D01*
X024923Y009535D02*
X022006Y009535D01*
X022164Y009376D02*
X024923Y009376D01*
X024923Y009218D02*
X022323Y009218D01*
X022481Y009059D02*
X024923Y009059D01*
X024923Y008901D02*
X022917Y008901D01*
X023036Y008742D02*
X024923Y008742D01*
X024923Y008584D02*
X023088Y008584D01*
X023088Y008425D02*
X024923Y008425D01*
X024923Y008267D02*
X023031Y008267D01*
X022906Y008108D02*
X024923Y008108D01*
X024923Y007950D02*
X014793Y007950D01*
X014802Y007927D02*
X014802Y007885D01*
X014928Y007759D01*
X014970Y007759D01*
X015065Y007720D01*
X015138Y007647D01*
X015177Y007552D01*
X015177Y007448D01*
X015138Y007353D01*
X015065Y007280D01*
X014970Y007241D01*
X014867Y007241D01*
X014771Y007280D01*
X014698Y007353D01*
X014659Y007448D01*
X014659Y007490D01*
X014533Y007616D01*
X014492Y007616D01*
X014396Y007655D01*
X014323Y007728D01*
X014284Y007823D01*
X014284Y007927D01*
X014323Y008022D01*
X014396Y008095D01*
X014492Y008134D01*
X014595Y008134D01*
X014690Y008095D01*
X014763Y008022D01*
X014802Y007927D01*
X014896Y007791D02*
X024923Y007791D01*
X024923Y007633D02*
X015144Y007633D01*
X015177Y007474D02*
X024923Y007474D01*
X024923Y007316D02*
X015100Y007316D01*
X014736Y007316D02*
X013191Y007316D01*
X013193Y007320D02*
X013151Y007219D01*
X013074Y007142D01*
X012973Y007100D01*
X012863Y007100D01*
X012762Y007142D01*
X012685Y007219D01*
X012643Y007320D01*
X012643Y007430D01*
X012685Y007531D01*
X012762Y007608D01*
X012863Y007650D01*
X012973Y007650D01*
X013074Y007608D01*
X013151Y007531D01*
X013193Y007430D01*
X013193Y007320D01*
X013175Y007474D02*
X014659Y007474D01*
X014452Y007633D02*
X013015Y007633D01*
X012821Y007633D02*
X012015Y007633D01*
X011973Y007650D02*
X011863Y007650D01*
X011762Y007608D01*
X011685Y007531D01*
X011643Y007430D01*
X011643Y007320D01*
X011685Y007219D01*
X011762Y007142D01*
X011863Y007100D01*
X011973Y007100D01*
X012074Y007142D01*
X012151Y007219D01*
X012193Y007320D01*
X012193Y007430D01*
X012151Y007531D01*
X012074Y007608D01*
X011973Y007650D01*
X011821Y007633D02*
X009040Y007633D01*
X009160Y007474D02*
X011661Y007474D01*
X011645Y007316D02*
X009213Y007316D01*
X009213Y007157D02*
X011747Y007157D01*
X011863Y006900D02*
X011762Y006858D01*
X011685Y006781D01*
X011643Y006680D01*
X011643Y006570D01*
X011685Y006469D01*
X011762Y006392D01*
X011863Y006350D01*
X011973Y006350D01*
X012074Y006392D01*
X012151Y006469D01*
X012193Y006570D01*
X012193Y006680D01*
X012151Y006781D01*
X012074Y006858D01*
X011973Y006900D01*
X011863Y006900D01*
X011744Y006840D02*
X009033Y006840D01*
X009157Y006999D02*
X018841Y006999D01*
X018867Y007009D02*
X018771Y006970D01*
X018698Y006897D01*
X018659Y006802D01*
X018659Y006698D01*
X018698Y006603D01*
X018771Y006530D01*
X018867Y006491D01*
X018908Y006491D01*
X019409Y005990D01*
X019409Y005948D01*
X019448Y005853D01*
X019521Y005780D01*
X019617Y005741D01*
X019720Y005741D01*
X019815Y005780D01*
X019888Y005853D01*
X019927Y005948D01*
X019927Y006052D01*
X019888Y006147D01*
X019815Y006220D01*
X019720Y006259D01*
X019678Y006259D01*
X019177Y006760D01*
X019177Y006802D01*
X019138Y006897D01*
X019065Y006970D01*
X018970Y007009D01*
X018867Y007009D01*
X018995Y006999D02*
X024923Y006999D01*
X024923Y007157D02*
X013089Y007157D01*
X012973Y006900D02*
X012863Y006900D01*
X012762Y006858D01*
X012685Y006781D01*
X012643Y006680D01*
X012643Y006570D01*
X012685Y006469D01*
X012762Y006392D01*
X012863Y006350D01*
X012973Y006350D01*
X013074Y006392D01*
X013151Y006469D01*
X013193Y006570D01*
X013193Y006680D01*
X013151Y006781D01*
X013074Y006858D01*
X012973Y006900D01*
X013092Y006840D02*
X018675Y006840D01*
X018666Y006682D02*
X013192Y006682D01*
X013174Y006523D02*
X018789Y006523D01*
X019035Y006365D02*
X013008Y006365D01*
X012828Y006365D02*
X012008Y006365D01*
X011828Y006365D02*
X005598Y006365D01*
X005598Y006523D02*
X011663Y006523D01*
X011644Y006682D02*
X005598Y006682D01*
X005598Y006840D02*
X006258Y006840D01*
X006047Y006999D02*
X005598Y006999D01*
X005598Y007157D02*
X005889Y007157D01*
X005730Y007316D02*
X005598Y007316D01*
X006358Y007950D02*
X014294Y007950D01*
X014297Y007791D02*
X006499Y007791D01*
X006358Y008108D02*
X014429Y008108D01*
X014658Y008108D02*
X021431Y008108D01*
X021305Y008267D02*
X006358Y008267D01*
X006358Y008425D02*
X021248Y008425D01*
X021248Y008584D02*
X006358Y008584D01*
X006358Y008742D02*
X021301Y008742D01*
X021395Y008901D02*
X006358Y008901D01*
X006358Y009059D02*
X021237Y009059D01*
X021689Y009852D02*
X024923Y009852D01*
X024923Y010010D02*
X022867Y010010D01*
X023029Y010169D02*
X024923Y010169D01*
X024923Y010327D02*
X023104Y010327D01*
X024923Y006840D02*
X019161Y006840D01*
X019255Y006682D02*
X024923Y006682D01*
X024923Y006523D02*
X019414Y006523D01*
X019572Y006365D02*
X024923Y006365D01*
X024923Y006206D02*
X019828Y006206D01*
X019927Y006048D02*
X024923Y006048D01*
X024923Y005889D02*
X019903Y005889D01*
X019434Y005889D02*
X013193Y005889D01*
X013193Y005930D02*
X013151Y006031D01*
X013074Y006108D01*
X012973Y006150D01*
X012863Y006150D01*
X012762Y006108D01*
X012685Y006031D01*
X012643Y005930D01*
X012643Y005820D01*
X012685Y005719D01*
X012762Y005642D01*
X012863Y005600D01*
X012973Y005600D01*
X013074Y005642D01*
X013151Y005719D01*
X013193Y005820D01*
X013193Y005930D01*
X013135Y006048D02*
X019352Y006048D01*
X019193Y006206D02*
X005598Y006206D01*
X005598Y006048D02*
X011702Y006048D01*
X011685Y006031D02*
X011643Y005930D01*
X011643Y005820D01*
X011685Y005719D01*
X011762Y005642D01*
X011863Y005600D01*
X011973Y005600D01*
X012074Y005642D01*
X012151Y005719D01*
X012193Y005820D01*
X012193Y005930D01*
X012151Y006031D01*
X012074Y006108D01*
X011973Y006150D01*
X011863Y006150D01*
X011762Y006108D01*
X011685Y006031D01*
X011643Y005889D02*
X005598Y005889D01*
X005598Y005731D02*
X007654Y005731D01*
X007603Y005709D02*
X007454Y005560D01*
X007373Y005365D01*
X007373Y005155D01*
X007454Y004960D01*
X007603Y004811D01*
X007798Y004730D01*
X008789Y004730D01*
X008983Y004811D01*
X009132Y004960D01*
X009213Y005155D01*
X009213Y005365D01*
X009132Y005560D01*
X008983Y005709D01*
X008789Y005790D01*
X007798Y005790D01*
X007603Y005709D01*
X007466Y005572D02*
X005598Y005572D01*
X005598Y005414D02*
X007393Y005414D01*
X007373Y005255D02*
X005598Y005255D01*
X005598Y005097D02*
X007397Y005097D01*
X007476Y004938D02*
X005598Y004938D01*
X005598Y004780D02*
X007678Y004780D01*
X008908Y004780D02*
X024923Y004780D01*
X024923Y004938D02*
X013120Y004938D01*
X013151Y004969D02*
X013193Y005070D01*
X013193Y005180D01*
X013151Y005281D01*
X013074Y005358D01*
X012973Y005400D01*
X012863Y005400D01*
X012762Y005358D01*
X012685Y005281D01*
X012643Y005180D01*
X012643Y005070D01*
X012685Y004969D01*
X012762Y004892D01*
X012863Y004850D01*
X012973Y004850D01*
X013074Y004892D01*
X013151Y004969D01*
X013193Y005097D02*
X024923Y005097D01*
X024923Y005255D02*
X013162Y005255D01*
X012674Y005255D02*
X012162Y005255D01*
X012151Y005281D02*
X012074Y005358D01*
X011973Y005400D01*
X011863Y005400D01*
X011762Y005358D01*
X011685Y005281D01*
X011643Y005180D01*
X011643Y005070D01*
X011685Y004969D01*
X011762Y004892D01*
X011863Y004850D01*
X011973Y004850D01*
X012074Y004892D01*
X012151Y004969D01*
X012193Y005070D01*
X012193Y005180D01*
X012151Y005281D01*
X012193Y005097D02*
X012643Y005097D01*
X012716Y004938D02*
X012120Y004938D01*
X011716Y004938D02*
X009111Y004938D01*
X009189Y005097D02*
X011643Y005097D01*
X011674Y005255D02*
X009213Y005255D01*
X009193Y005414D02*
X024923Y005414D01*
X024923Y005572D02*
X009121Y005572D01*
X008932Y005731D02*
X011680Y005731D01*
X012156Y005731D02*
X012680Y005731D01*
X012643Y005889D02*
X012193Y005889D01*
X012135Y006048D02*
X012702Y006048D01*
X013156Y005731D02*
X024923Y005731D01*
X024923Y004621D02*
X005598Y004621D01*
X005598Y004463D02*
X024923Y004463D01*
X024923Y004304D02*
X005598Y004304D01*
X005598Y004146D02*
X024923Y004146D01*
X024923Y003987D02*
X005598Y003987D01*
X005598Y003829D02*
X024923Y003829D01*
X024923Y003670D02*
X021614Y003670D01*
X021638Y003647D02*
X021565Y003720D01*
X021470Y003759D01*
X021367Y003759D01*
X021271Y003720D01*
X021198Y003647D01*
X021159Y003552D01*
X021159Y003448D01*
X021198Y003353D01*
X021270Y003282D01*
X021270Y002448D01*
X021352Y002366D01*
X021862Y002366D01*
X021944Y002448D01*
X021944Y003351D01*
X021862Y003433D01*
X021754Y003433D01*
X021677Y003510D01*
X021677Y003552D01*
X021638Y003647D01*
X021677Y003512D02*
X024923Y003512D01*
X024923Y003353D02*
X021942Y003353D01*
X021944Y003195D02*
X022954Y003195D01*
X022710Y003036D02*
X021944Y003036D01*
X021944Y002878D02*
X022556Y002878D01*
X022447Y002719D02*
X021944Y002719D01*
X021944Y002561D02*
X022367Y002561D01*
X022310Y002402D02*
X021898Y002402D01*
X022278Y002244D02*
X018927Y002244D01*
X018927Y002198D02*
X018927Y002302D01*
X018888Y002397D01*
X018815Y002470D01*
X018720Y002509D01*
X018617Y002509D01*
X018521Y002470D01*
X018448Y002397D01*
X018409Y002302D01*
X018409Y002198D01*
X018436Y002134D01*
X018352Y002134D01*
X018270Y002052D01*
X018270Y001149D01*
X018352Y001067D01*
X018862Y001067D01*
X018944Y001149D01*
X018944Y002052D01*
X018889Y002107D01*
X018927Y002198D01*
X018911Y002085D02*
X020303Y002085D01*
X020270Y002052D02*
X020270Y001149D01*
X020352Y001067D01*
X020862Y001067D01*
X020944Y001149D01*
X020944Y001410D01*
X021016Y001410D01*
X021021Y001405D01*
X021117Y001366D01*
X021220Y001366D01*
X021315Y001405D01*
X021388Y001478D01*
X021427Y001573D01*
X021427Y001677D01*
X021388Y001772D01*
X021315Y001845D01*
X021220Y001884D01*
X021117Y001884D01*
X021021Y001845D01*
X020967Y001790D01*
X020944Y001790D01*
X020944Y002052D01*
X020862Y002134D01*
X020352Y002134D01*
X020270Y002052D01*
X020270Y001927D02*
X018944Y001927D01*
X018944Y001768D02*
X020270Y001768D01*
X020270Y001610D02*
X018944Y001610D01*
X018944Y001451D02*
X020270Y001451D01*
X020270Y001293D02*
X018944Y001293D01*
X018929Y001134D02*
X020285Y001134D01*
X020929Y001134D02*
X022267Y001134D01*
X022267Y000976D02*
X006137Y000976D01*
X005978Y001134D02*
X012285Y001134D01*
X012270Y001149D02*
X012352Y001067D01*
X012862Y001067D01*
X012944Y001149D01*
X012944Y001315D01*
X012980Y001351D01*
X013047Y001513D01*
X013047Y002015D01*
X013108Y002162D01*
X013108Y002338D01*
X013041Y002499D01*
X012917Y002623D01*
X012756Y002690D01*
X012581Y002690D01*
X012419Y002623D01*
X012295Y002499D01*
X012234Y002438D01*
X012167Y002276D01*
X012167Y001513D01*
X012234Y001351D01*
X012270Y001315D01*
X012270Y001149D01*
X012270Y001293D02*
X005848Y001293D01*
X005756Y001451D02*
X012193Y001451D01*
X012167Y001610D02*
X005686Y001610D01*
X005643Y001768D02*
X012167Y001768D01*
X012167Y001927D02*
X005608Y001927D01*
X005598Y002085D02*
X012167Y002085D01*
X012167Y002244D02*
X005598Y002244D01*
X005598Y002402D02*
X012219Y002402D01*
X012356Y002561D02*
X005598Y002561D01*
X005598Y002719D02*
X013270Y002719D01*
X013270Y002561D02*
X012980Y002561D01*
X013081Y002402D02*
X013316Y002402D01*
X013352Y002366D02*
X013270Y002448D01*
X013270Y003351D01*
X013352Y003433D01*
X013862Y003433D01*
X013944Y003351D01*
X013944Y002448D01*
X013889Y002393D01*
X013927Y002302D01*
X013927Y002198D01*
X013888Y002103D01*
X013815Y002030D01*
X013720Y001991D01*
X013617Y001991D01*
X013521Y002030D01*
X013448Y002103D01*
X013409Y002198D01*
X013409Y002302D01*
X013436Y002366D01*
X013352Y002366D01*
X013409Y002244D02*
X013108Y002244D01*
X013076Y002085D02*
X013467Y002085D01*
X013047Y001927D02*
X014270Y001927D01*
X014270Y002052D02*
X014270Y001149D01*
X014352Y001067D01*
X014862Y001067D01*
X014944Y001149D01*
X014944Y002052D01*
X014889Y002107D01*
X014927Y002198D01*
X014927Y002302D01*
X014888Y002397D01*
X014815Y002470D01*
X014720Y002509D01*
X014617Y002509D01*
X014521Y002470D01*
X014448Y002397D01*
X014409Y002302D01*
X014409Y002198D01*
X014417Y002179D01*
X014417Y002134D01*
X014352Y002134D01*
X014270Y002052D01*
X014303Y002085D02*
X013869Y002085D01*
X013927Y002244D02*
X014409Y002244D01*
X014454Y002402D02*
X013898Y002402D01*
X013944Y002561D02*
X015230Y002561D01*
X015230Y002482D02*
X015243Y002436D01*
X015266Y002395D01*
X015300Y002362D01*
X015341Y002338D01*
X015387Y002326D01*
X015589Y002326D01*
X015589Y002881D01*
X015626Y002881D01*
X015626Y002918D01*
X015984Y002918D01*
X015984Y003317D01*
X015972Y003363D01*
X015948Y003404D01*
X015914Y003437D01*
X015873Y003461D01*
X015828Y003473D01*
X015626Y003473D01*
X015626Y002918D01*
X015589Y002918D01*
X015589Y003473D01*
X015387Y003473D01*
X015341Y003461D01*
X015300Y003437D01*
X015266Y003404D01*
X015243Y003363D01*
X015230Y003317D01*
X015230Y002918D01*
X015589Y002918D01*
X015589Y002881D01*
X015230Y002881D01*
X015230Y002482D01*
X015262Y002402D02*
X014882Y002402D01*
X014927Y002244D02*
X016409Y002244D01*
X016409Y002198D02*
X016409Y002302D01*
X016448Y002397D01*
X016521Y002470D01*
X016617Y002509D01*
X016720Y002509D01*
X016815Y002470D01*
X016888Y002397D01*
X016927Y002302D01*
X016927Y002198D01*
X016889Y002107D01*
X016944Y002052D01*
X016944Y001149D01*
X016862Y001067D01*
X016352Y001067D01*
X016270Y001149D01*
X016270Y002052D01*
X016352Y002134D01*
X016417Y002134D01*
X016417Y002179D01*
X016409Y002198D01*
X016303Y002085D02*
X014911Y002085D01*
X014944Y001927D02*
X016270Y001927D01*
X016270Y001768D02*
X014944Y001768D01*
X014944Y001610D02*
X016270Y001610D01*
X016270Y001451D02*
X014944Y001451D01*
X014944Y001293D02*
X016270Y001293D01*
X016285Y001134D02*
X014929Y001134D01*
X014285Y001134D02*
X012929Y001134D01*
X012944Y001293D02*
X014270Y001293D01*
X014270Y001451D02*
X013021Y001451D01*
X013047Y001610D02*
X014270Y001610D01*
X014270Y001768D02*
X013047Y001768D01*
X013944Y002719D02*
X015230Y002719D01*
X015230Y002878D02*
X013944Y002878D01*
X013944Y003036D02*
X015230Y003036D01*
X015230Y003195D02*
X013944Y003195D01*
X013942Y003353D02*
X015240Y003353D01*
X015589Y003353D02*
X015626Y003353D01*
X015626Y003195D02*
X015589Y003195D01*
X015589Y003036D02*
X015626Y003036D01*
X015626Y002881D02*
X015984Y002881D01*
X015984Y002482D01*
X015972Y002436D01*
X015948Y002395D01*
X015914Y002362D01*
X015873Y002338D01*
X015828Y002326D01*
X015626Y002326D01*
X015626Y002881D01*
X015626Y002878D02*
X015589Y002878D01*
X015589Y002719D02*
X015626Y002719D01*
X015626Y002561D02*
X015589Y002561D01*
X015589Y002402D02*
X015626Y002402D01*
X015952Y002402D02*
X016454Y002402D01*
X015984Y002561D02*
X017270Y002561D01*
X017270Y002448D02*
X017352Y002366D01*
X017417Y002366D01*
X017417Y002321D01*
X017409Y002302D01*
X017409Y002198D01*
X017448Y002103D01*
X017521Y002030D01*
X017617Y001991D01*
X017720Y001991D01*
X017815Y002030D01*
X017888Y002103D01*
X017927Y002198D01*
X017927Y002302D01*
X017889Y002393D01*
X017944Y002448D01*
X017944Y003351D01*
X017862Y003433D01*
X017352Y003433D01*
X017270Y003351D01*
X017270Y002448D01*
X017316Y002402D02*
X016882Y002402D01*
X016927Y002244D02*
X017409Y002244D01*
X017467Y002085D02*
X016911Y002085D01*
X016944Y001927D02*
X018270Y001927D01*
X018270Y001768D02*
X016944Y001768D01*
X016944Y001610D02*
X018270Y001610D01*
X018270Y001451D02*
X016944Y001451D01*
X016944Y001293D02*
X018270Y001293D01*
X018285Y001134D02*
X016929Y001134D01*
X017869Y002085D02*
X018303Y002085D01*
X018409Y002244D02*
X017927Y002244D01*
X017898Y002402D02*
X018454Y002402D01*
X018882Y002402D02*
X019316Y002402D01*
X019352Y002366D02*
X019862Y002366D01*
X019944Y002448D01*
X019944Y002685D01*
X019992Y002685D01*
X020021Y002655D01*
X020117Y002616D01*
X020220Y002616D01*
X020315Y002655D01*
X020388Y002728D01*
X020427Y002823D01*
X020427Y002927D01*
X020388Y003022D01*
X020315Y003095D01*
X020220Y003134D01*
X020117Y003134D01*
X020021Y003095D01*
X019992Y003065D01*
X019944Y003065D01*
X019944Y003351D01*
X019862Y003433D01*
X019352Y003433D01*
X019270Y003351D01*
X019270Y002448D01*
X019352Y002366D01*
X019270Y002561D02*
X017944Y002561D01*
X017944Y002719D02*
X019270Y002719D01*
X019270Y002878D02*
X017944Y002878D01*
X017944Y003036D02*
X019270Y003036D01*
X019270Y003195D02*
X017944Y003195D01*
X017942Y003353D02*
X019272Y003353D01*
X019942Y003353D02*
X021199Y003353D01*
X021159Y003512D02*
X005598Y003512D01*
X005598Y003670D02*
X021222Y003670D01*
X021270Y003195D02*
X019944Y003195D01*
X020373Y003036D02*
X021270Y003036D01*
X021270Y002878D02*
X020427Y002878D01*
X020378Y002719D02*
X021270Y002719D01*
X021270Y002561D02*
X019944Y002561D01*
X019898Y002402D02*
X021316Y002402D01*
X020911Y002085D02*
X022267Y002085D01*
X022267Y001927D02*
X020944Y001927D01*
X021389Y001768D02*
X022267Y001768D01*
X022267Y001610D02*
X021427Y001610D01*
X021360Y001451D02*
X022267Y001451D01*
X022267Y001293D02*
X020944Y001293D01*
X022267Y000817D02*
X006406Y000817D01*
X005598Y002878D02*
X013270Y002878D01*
X013270Y003036D02*
X005598Y003036D01*
X005598Y003195D02*
X013270Y003195D01*
X013272Y003353D02*
X005598Y003353D01*
X012174Y006523D02*
X012663Y006523D01*
X012644Y006682D02*
X012192Y006682D01*
X012092Y006840D02*
X012744Y006840D01*
X012747Y007157D02*
X012089Y007157D01*
X012191Y007316D02*
X012645Y007316D01*
X012661Y007474D02*
X012175Y007474D01*
X012418Y008500D02*
X011418Y008500D01*
X011043Y008500D01*
X012418Y008500D02*
X013418Y008500D01*
X014293Y008500D01*
X016793Y006000D01*
X017272Y003353D02*
X015974Y003353D01*
X015984Y003195D02*
X017270Y003195D01*
X017270Y003036D02*
X015984Y003036D01*
X015984Y002878D02*
X017270Y002878D01*
X017270Y002719D02*
X015984Y002719D01*
X013470Y015082D02*
X013241Y015082D01*
X013302Y015241D02*
X013409Y015241D01*
X013417Y015399D02*
X013260Y015399D01*
X013277Y015558D02*
X013233Y015558D01*
X014607Y016175D02*
X014968Y016175D01*
X015043Y016250D01*
X015192Y016033D02*
X015217Y016033D01*
X015217Y015875D02*
X014997Y015875D01*
X014997Y015716D02*
X015217Y015716D01*
X015277Y015558D02*
X014937Y015558D01*
X015607Y016175D02*
X015968Y016175D01*
X016043Y016250D01*
X016192Y016033D02*
X016217Y016033D01*
X016217Y015875D02*
X015997Y015875D01*
X015997Y015716D02*
X016217Y015716D01*
X016277Y015558D02*
X015937Y015558D01*
X016607Y016175D02*
X016968Y016175D01*
X017043Y016250D01*
X017192Y016033D02*
X017217Y016033D01*
X017217Y015875D02*
X016997Y015875D01*
X016997Y015716D02*
X017217Y015716D01*
X017277Y015558D02*
X016937Y015558D01*
X017607Y016175D02*
X017968Y016175D01*
X018043Y016250D01*
X018192Y016033D02*
X018217Y016033D01*
X018217Y015875D02*
X017997Y015875D01*
X017997Y015716D02*
X018217Y015716D01*
X018277Y015558D02*
X017937Y015558D01*
X018096Y016509D02*
X018217Y016509D01*
X018217Y016667D02*
X017997Y016667D01*
X017217Y016667D02*
X016997Y016667D01*
X017096Y016509D02*
X017217Y016509D01*
X016217Y016509D02*
X016096Y016509D01*
X015997Y016667D02*
X016217Y016667D01*
X015217Y016667D02*
X014997Y016667D01*
X015096Y016509D02*
X015217Y016509D01*
X015217Y017777D02*
X014997Y017777D01*
X014997Y017935D02*
X015217Y017935D01*
X015217Y018094D02*
X014997Y018094D01*
X014993Y018325D02*
X015043Y018375D01*
X014993Y018325D02*
X014607Y018325D01*
X014997Y018728D02*
X015217Y018728D01*
X015220Y018886D02*
X014994Y018886D01*
X015215Y018569D02*
X015217Y018569D01*
X015607Y018325D02*
X015993Y018325D01*
X016043Y018375D01*
X016215Y018569D02*
X016217Y018569D01*
X016217Y018728D02*
X015997Y018728D01*
X015994Y018886D02*
X016220Y018886D01*
X016994Y018886D02*
X017220Y018886D01*
X017217Y018728D02*
X016997Y018728D01*
X017215Y018569D02*
X017217Y018569D01*
X017043Y018375D02*
X016993Y018325D01*
X016607Y018325D01*
X016217Y018094D02*
X015997Y018094D01*
X015997Y017935D02*
X016217Y017935D01*
X016217Y017777D02*
X015997Y017777D01*
X016997Y017777D02*
X017217Y017777D01*
X017217Y017935D02*
X016997Y017935D01*
X016997Y018094D02*
X017217Y018094D01*
X017607Y018325D02*
X017993Y018325D01*
X018043Y018375D01*
X018215Y018569D02*
X018217Y018569D01*
X018217Y018728D02*
X017997Y018728D01*
X017994Y018886D02*
X018220Y018886D01*
X018607Y018325D02*
X018993Y018325D01*
X019043Y018375D01*
X019215Y018569D02*
X019217Y018569D01*
X019217Y018728D02*
X018997Y018728D01*
X018994Y018886D02*
X019220Y018886D01*
X019217Y018094D02*
X018997Y018094D01*
X018997Y017935D02*
X019217Y017935D01*
X019217Y017777D02*
X018997Y017777D01*
X018217Y017777D02*
X017997Y017777D01*
X017997Y017935D02*
X018217Y017935D01*
X018217Y018094D02*
X017997Y018094D01*
D17*
X012918Y014625D03*
X012418Y014250D03*
X011918Y013875D03*
X011418Y013500D03*
X011918Y013125D03*
X011418Y012750D03*
X010918Y012375D03*
X011418Y012000D03*
X010918Y011625D03*
X011418Y011250D03*
X010918Y010875D03*
X011418Y010500D03*
X011918Y010875D03*
X012418Y011250D03*
X011918Y011625D03*
X012418Y012000D03*
X011918Y012375D03*
X012418Y012750D03*
X012918Y012375D03*
X013418Y012000D03*
X012918Y011625D03*
X013418Y011250D03*
X012918Y010875D03*
X013418Y010500D03*
X012918Y010125D03*
X012418Y010500D03*
X011918Y010125D03*
X011918Y008875D03*
X011418Y008500D03*
X011918Y008125D03*
X011418Y007750D03*
X010918Y007375D03*
X011418Y007000D03*
X010918Y006625D03*
X011418Y006250D03*
X011918Y005875D03*
X011418Y005500D03*
X010918Y005125D03*
X011418Y004750D03*
X010918Y004375D03*
X011418Y004000D03*
X011918Y003625D03*
X012418Y004000D03*
X011918Y004375D03*
X012418Y004750D03*
X011918Y005125D03*
X012418Y005500D03*
X012918Y005125D03*
X013418Y004750D03*
X012918Y004375D03*
X013418Y004000D03*
X012918Y003625D03*
X013918Y003625D03*
X013918Y004375D03*
X013918Y005125D03*
X013418Y005500D03*
X012918Y005875D03*
X013418Y006250D03*
X012918Y006625D03*
X012418Y006250D03*
X011918Y006625D03*
X012418Y007000D03*
X011918Y007375D03*
X012418Y007750D03*
X012918Y007375D03*
X013418Y007000D03*
X013918Y006625D03*
X013918Y005875D03*
X013918Y007375D03*
X013418Y007750D03*
X012918Y008125D03*
X012418Y008500D03*
X012918Y008875D03*
X013418Y008500D03*
X013918Y008125D03*
X013918Y008875D03*
X013918Y010125D03*
X013918Y010875D03*
X013918Y011625D03*
X013918Y012375D03*
X013418Y012750D03*
X012918Y013125D03*
X013418Y013500D03*
X012918Y013875D03*
X012418Y013500D03*
X011418Y014250D03*
X010918Y013875D03*
X010918Y013125D03*
X011918Y014625D03*
X013418Y014250D03*
X013918Y013875D03*
X013918Y013125D03*
X010918Y005875D03*
D18*
X008293Y007240D02*
X008283Y007250D01*
X006418Y007250D01*
X005918Y007750D01*
X005918Y008000D01*
X005918Y009000D01*
X005918Y008000D01*
X005918Y009000D02*
X005918Y009500D01*
X005918Y013000D01*
X006658Y013740D01*
X008293Y013740D01*
X005918Y009500D02*
X021418Y009500D01*
X022168Y008750D01*
X022168Y008510D01*
X012668Y002250D02*
X012607Y002189D01*
X012607Y001600D01*
D19*
X012668Y002250D03*
X005918Y008000D03*
M02*
