G75*
G70*
%OFA0B0*%
%FSLAX24Y24*%
%IPPOS*%
%LPD*%
%AMOC8*
5,1,8,0,0,1.08239X$1,22.5*
%
%ADD10R,0.0540X0.1040*%
%ADD11R,0.0434X0.0827*%
%ADD12C,0.0000*%
%ADD13C,0.1300*%
%ADD14R,0.0430X0.0312*%
%ADD15R,0.0280X0.0910*%
%ADD16R,0.0670X0.0500*%
%ADD17R,0.0720X0.0060*%
%ADD18C,0.0900*%
%ADD19C,0.0512*%
%ADD20R,0.0276X0.0906*%
%ADD21R,0.0355X0.0512*%
%ADD22R,0.0840X0.0840*%
%ADD23C,0.0840*%
%ADD24R,0.0512X0.0827*%
%ADD25R,0.0591X0.0434*%
%ADD26R,0.0800X0.0800*%
%ADD27C,0.0800*%
D10*
X006607Y016175D03*
X007607Y016175D03*
X008607Y016175D03*
X009607Y016175D03*
X010607Y016175D03*
X011607Y016175D03*
X012607Y016175D03*
X013607Y016175D03*
X014607Y016175D03*
X015607Y016175D03*
X016607Y016175D03*
X017607Y016175D03*
X018607Y016175D03*
X019607Y016175D03*
X020607Y016175D03*
X021607Y016175D03*
X021607Y018325D03*
X020607Y018325D03*
X019607Y018325D03*
X018607Y018325D03*
X017607Y018325D03*
X016607Y018325D03*
X015607Y018325D03*
X014607Y018325D03*
X013607Y018325D03*
X012607Y018325D03*
X011607Y018325D03*
X010607Y018325D03*
X009607Y018325D03*
X008607Y018325D03*
X007607Y018325D03*
X006607Y018325D03*
D11*
X012607Y002900D03*
X014607Y002900D03*
X013607Y001600D03*
X015607Y001600D03*
X017607Y001600D03*
X016607Y002900D03*
X018607Y002900D03*
X020607Y002900D03*
X019607Y001600D03*
X021607Y001600D03*
D12*
X005418Y002075D02*
X005418Y018217D01*
X005420Y018294D01*
X005426Y018371D01*
X005435Y018448D01*
X005448Y018524D01*
X005465Y018600D01*
X005486Y018674D01*
X005510Y018748D01*
X005538Y018820D01*
X005569Y018890D01*
X005604Y018959D01*
X005642Y019027D01*
X005683Y019092D01*
X005728Y019155D01*
X005776Y019216D01*
X005826Y019275D01*
X005879Y019331D01*
X005935Y019384D01*
X005994Y019434D01*
X006055Y019482D01*
X006118Y019527D01*
X006183Y019568D01*
X006251Y019606D01*
X006320Y019641D01*
X006390Y019672D01*
X006462Y019700D01*
X006536Y019724D01*
X006610Y019745D01*
X006686Y019762D01*
X006762Y019775D01*
X006839Y019784D01*
X006916Y019790D01*
X006993Y019792D01*
X006993Y019791D02*
X023528Y019791D01*
X022898Y018217D02*
X022900Y018267D01*
X022906Y018317D01*
X022916Y018366D01*
X022930Y018414D01*
X022947Y018461D01*
X022968Y018506D01*
X022993Y018550D01*
X023021Y018591D01*
X023053Y018630D01*
X023087Y018667D01*
X023124Y018701D01*
X023164Y018731D01*
X023206Y018758D01*
X023250Y018782D01*
X023296Y018803D01*
X023343Y018819D01*
X023391Y018832D01*
X023441Y018841D01*
X023490Y018846D01*
X023541Y018847D01*
X023591Y018844D01*
X023640Y018837D01*
X023689Y018826D01*
X023737Y018811D01*
X023783Y018793D01*
X023828Y018771D01*
X023871Y018745D01*
X023912Y018716D01*
X023951Y018684D01*
X023987Y018649D01*
X024019Y018611D01*
X024049Y018571D01*
X024076Y018528D01*
X024099Y018484D01*
X024118Y018438D01*
X024134Y018390D01*
X024146Y018341D01*
X024154Y018292D01*
X024158Y018242D01*
X024158Y018192D01*
X024154Y018142D01*
X024146Y018093D01*
X024134Y018044D01*
X024118Y017996D01*
X024099Y017950D01*
X024076Y017906D01*
X024049Y017863D01*
X024019Y017823D01*
X023987Y017785D01*
X023951Y017750D01*
X023912Y017718D01*
X023871Y017689D01*
X023828Y017663D01*
X023783Y017641D01*
X023737Y017623D01*
X023689Y017608D01*
X023640Y017597D01*
X023591Y017590D01*
X023541Y017587D01*
X023490Y017588D01*
X023441Y017593D01*
X023391Y017602D01*
X023343Y017615D01*
X023296Y017631D01*
X023250Y017652D01*
X023206Y017676D01*
X023164Y017703D01*
X023124Y017733D01*
X023087Y017767D01*
X023053Y017804D01*
X023021Y017843D01*
X022993Y017884D01*
X022968Y017928D01*
X022947Y017973D01*
X022930Y018020D01*
X022916Y018068D01*
X022906Y018117D01*
X022900Y018167D01*
X022898Y018217D01*
X025103Y018217D02*
X025103Y002075D01*
X022898Y002075D02*
X022900Y002125D01*
X022906Y002175D01*
X022916Y002224D01*
X022930Y002272D01*
X022947Y002319D01*
X022968Y002364D01*
X022993Y002408D01*
X023021Y002449D01*
X023053Y002488D01*
X023087Y002525D01*
X023124Y002559D01*
X023164Y002589D01*
X023206Y002616D01*
X023250Y002640D01*
X023296Y002661D01*
X023343Y002677D01*
X023391Y002690D01*
X023441Y002699D01*
X023490Y002704D01*
X023541Y002705D01*
X023591Y002702D01*
X023640Y002695D01*
X023689Y002684D01*
X023737Y002669D01*
X023783Y002651D01*
X023828Y002629D01*
X023871Y002603D01*
X023912Y002574D01*
X023951Y002542D01*
X023987Y002507D01*
X024019Y002469D01*
X024049Y002429D01*
X024076Y002386D01*
X024099Y002342D01*
X024118Y002296D01*
X024134Y002248D01*
X024146Y002199D01*
X024154Y002150D01*
X024158Y002100D01*
X024158Y002050D01*
X024154Y002000D01*
X024146Y001951D01*
X024134Y001902D01*
X024118Y001854D01*
X024099Y001808D01*
X024076Y001764D01*
X024049Y001721D01*
X024019Y001681D01*
X023987Y001643D01*
X023951Y001608D01*
X023912Y001576D01*
X023871Y001547D01*
X023828Y001521D01*
X023783Y001499D01*
X023737Y001481D01*
X023689Y001466D01*
X023640Y001455D01*
X023591Y001448D01*
X023541Y001445D01*
X023490Y001446D01*
X023441Y001451D01*
X023391Y001460D01*
X023343Y001473D01*
X023296Y001489D01*
X023250Y001510D01*
X023206Y001534D01*
X023164Y001561D01*
X023124Y001591D01*
X023087Y001625D01*
X023053Y001662D01*
X023021Y001701D01*
X022993Y001742D01*
X022968Y001786D01*
X022947Y001831D01*
X022930Y001878D01*
X022916Y001926D01*
X022906Y001975D01*
X022900Y002025D01*
X022898Y002075D01*
X023528Y000500D02*
X023605Y000502D01*
X023682Y000508D01*
X023759Y000517D01*
X023835Y000530D01*
X023911Y000547D01*
X023985Y000568D01*
X024059Y000592D01*
X024131Y000620D01*
X024201Y000651D01*
X024270Y000686D01*
X024338Y000724D01*
X024403Y000765D01*
X024466Y000810D01*
X024527Y000858D01*
X024586Y000908D01*
X024642Y000961D01*
X024695Y001017D01*
X024745Y001076D01*
X024793Y001137D01*
X024838Y001200D01*
X024879Y001265D01*
X024917Y001333D01*
X024952Y001402D01*
X024983Y001472D01*
X025011Y001544D01*
X025035Y001618D01*
X025056Y001692D01*
X025073Y001768D01*
X025086Y001844D01*
X025095Y001921D01*
X025101Y001998D01*
X025103Y002075D01*
X023528Y000500D02*
X006993Y000500D01*
X006916Y000502D01*
X006839Y000508D01*
X006762Y000517D01*
X006686Y000530D01*
X006610Y000547D01*
X006536Y000568D01*
X006462Y000592D01*
X006390Y000620D01*
X006320Y000651D01*
X006251Y000686D01*
X006183Y000724D01*
X006118Y000765D01*
X006055Y000810D01*
X005994Y000858D01*
X005935Y000908D01*
X005879Y000961D01*
X005826Y001017D01*
X005776Y001076D01*
X005728Y001137D01*
X005683Y001200D01*
X005642Y001265D01*
X005604Y001333D01*
X005569Y001402D01*
X005538Y001472D01*
X005510Y001544D01*
X005486Y001618D01*
X005465Y001692D01*
X005448Y001768D01*
X005435Y001844D01*
X005426Y001921D01*
X005420Y001998D01*
X005418Y002075D01*
X020887Y005281D02*
X020889Y005311D01*
X020895Y005341D01*
X020904Y005370D01*
X020917Y005397D01*
X020934Y005422D01*
X020953Y005445D01*
X020976Y005466D01*
X021001Y005483D01*
X021027Y005497D01*
X021056Y005507D01*
X021085Y005514D01*
X021115Y005517D01*
X021146Y005516D01*
X021176Y005511D01*
X021205Y005502D01*
X021232Y005490D01*
X021258Y005475D01*
X021282Y005456D01*
X021303Y005434D01*
X021321Y005410D01*
X021336Y005383D01*
X021347Y005355D01*
X021355Y005326D01*
X021359Y005296D01*
X021359Y005266D01*
X021355Y005236D01*
X021347Y005207D01*
X021336Y005179D01*
X021321Y005152D01*
X021303Y005128D01*
X021282Y005106D01*
X021258Y005087D01*
X021232Y005072D01*
X021205Y005060D01*
X021176Y005051D01*
X021146Y005046D01*
X021115Y005045D01*
X021085Y005048D01*
X021056Y005055D01*
X021027Y005065D01*
X021001Y005079D01*
X020976Y005096D01*
X020953Y005117D01*
X020934Y005140D01*
X020917Y005165D01*
X020904Y005192D01*
X020895Y005221D01*
X020889Y005251D01*
X020887Y005281D01*
X021871Y005281D02*
X021873Y005311D01*
X021879Y005341D01*
X021888Y005370D01*
X021901Y005397D01*
X021918Y005422D01*
X021937Y005445D01*
X021960Y005466D01*
X021985Y005483D01*
X022011Y005497D01*
X022040Y005507D01*
X022069Y005514D01*
X022099Y005517D01*
X022130Y005516D01*
X022160Y005511D01*
X022189Y005502D01*
X022216Y005490D01*
X022242Y005475D01*
X022266Y005456D01*
X022287Y005434D01*
X022305Y005410D01*
X022320Y005383D01*
X022331Y005355D01*
X022339Y005326D01*
X022343Y005296D01*
X022343Y005266D01*
X022339Y005236D01*
X022331Y005207D01*
X022320Y005179D01*
X022305Y005152D01*
X022287Y005128D01*
X022266Y005106D01*
X022242Y005087D01*
X022216Y005072D01*
X022189Y005060D01*
X022160Y005051D01*
X022130Y005046D01*
X022099Y005045D01*
X022069Y005048D01*
X022040Y005055D01*
X022011Y005065D01*
X021985Y005079D01*
X021960Y005096D01*
X021937Y005117D01*
X021918Y005140D01*
X021901Y005165D01*
X021888Y005192D01*
X021879Y005221D01*
X021873Y005251D01*
X021871Y005281D01*
X023840Y007250D02*
X023842Y007280D01*
X023848Y007310D01*
X023857Y007339D01*
X023870Y007366D01*
X023887Y007391D01*
X023906Y007414D01*
X023929Y007435D01*
X023954Y007452D01*
X023980Y007466D01*
X024009Y007476D01*
X024038Y007483D01*
X024068Y007486D01*
X024099Y007485D01*
X024129Y007480D01*
X024158Y007471D01*
X024185Y007459D01*
X024211Y007444D01*
X024235Y007425D01*
X024256Y007403D01*
X024274Y007379D01*
X024289Y007352D01*
X024300Y007324D01*
X024308Y007295D01*
X024312Y007265D01*
X024312Y007235D01*
X024308Y007205D01*
X024300Y007176D01*
X024289Y007148D01*
X024274Y007121D01*
X024256Y007097D01*
X024235Y007075D01*
X024211Y007056D01*
X024185Y007041D01*
X024158Y007029D01*
X024129Y007020D01*
X024099Y007015D01*
X024068Y007014D01*
X024038Y007017D01*
X024009Y007024D01*
X023980Y007034D01*
X023954Y007048D01*
X023929Y007065D01*
X023906Y007086D01*
X023887Y007109D01*
X023870Y007134D01*
X023857Y007161D01*
X023848Y007190D01*
X023842Y007220D01*
X023840Y007250D01*
X021871Y009219D02*
X021873Y009249D01*
X021879Y009279D01*
X021888Y009308D01*
X021901Y009335D01*
X021918Y009360D01*
X021937Y009383D01*
X021960Y009404D01*
X021985Y009421D01*
X022011Y009435D01*
X022040Y009445D01*
X022069Y009452D01*
X022099Y009455D01*
X022130Y009454D01*
X022160Y009449D01*
X022189Y009440D01*
X022216Y009428D01*
X022242Y009413D01*
X022266Y009394D01*
X022287Y009372D01*
X022305Y009348D01*
X022320Y009321D01*
X022331Y009293D01*
X022339Y009264D01*
X022343Y009234D01*
X022343Y009204D01*
X022339Y009174D01*
X022331Y009145D01*
X022320Y009117D01*
X022305Y009090D01*
X022287Y009066D01*
X022266Y009044D01*
X022242Y009025D01*
X022216Y009010D01*
X022189Y008998D01*
X022160Y008989D01*
X022130Y008984D01*
X022099Y008983D01*
X022069Y008986D01*
X022040Y008993D01*
X022011Y009003D01*
X021985Y009017D01*
X021960Y009034D01*
X021937Y009055D01*
X021918Y009078D01*
X021901Y009103D01*
X021888Y009130D01*
X021879Y009159D01*
X021873Y009189D01*
X021871Y009219D01*
X020887Y009219D02*
X020889Y009249D01*
X020895Y009279D01*
X020904Y009308D01*
X020917Y009335D01*
X020934Y009360D01*
X020953Y009383D01*
X020976Y009404D01*
X021001Y009421D01*
X021027Y009435D01*
X021056Y009445D01*
X021085Y009452D01*
X021115Y009455D01*
X021146Y009454D01*
X021176Y009449D01*
X021205Y009440D01*
X021232Y009428D01*
X021258Y009413D01*
X021282Y009394D01*
X021303Y009372D01*
X021321Y009348D01*
X021336Y009321D01*
X021347Y009293D01*
X021355Y009264D01*
X021359Y009234D01*
X021359Y009204D01*
X021355Y009174D01*
X021347Y009145D01*
X021336Y009117D01*
X021321Y009090D01*
X021303Y009066D01*
X021282Y009044D01*
X021258Y009025D01*
X021232Y009010D01*
X021205Y008998D01*
X021176Y008989D01*
X021146Y008984D01*
X021115Y008983D01*
X021085Y008986D01*
X021056Y008993D01*
X021027Y009003D01*
X021001Y009017D01*
X020976Y009034D01*
X020953Y009055D01*
X020934Y009078D01*
X020917Y009103D01*
X020904Y009130D01*
X020895Y009159D01*
X020889Y009189D01*
X020887Y009219D01*
X020887Y011031D02*
X020889Y011061D01*
X020895Y011091D01*
X020904Y011120D01*
X020917Y011147D01*
X020934Y011172D01*
X020953Y011195D01*
X020976Y011216D01*
X021001Y011233D01*
X021027Y011247D01*
X021056Y011257D01*
X021085Y011264D01*
X021115Y011267D01*
X021146Y011266D01*
X021176Y011261D01*
X021205Y011252D01*
X021232Y011240D01*
X021258Y011225D01*
X021282Y011206D01*
X021303Y011184D01*
X021321Y011160D01*
X021336Y011133D01*
X021347Y011105D01*
X021355Y011076D01*
X021359Y011046D01*
X021359Y011016D01*
X021355Y010986D01*
X021347Y010957D01*
X021336Y010929D01*
X021321Y010902D01*
X021303Y010878D01*
X021282Y010856D01*
X021258Y010837D01*
X021232Y010822D01*
X021205Y010810D01*
X021176Y010801D01*
X021146Y010796D01*
X021115Y010795D01*
X021085Y010798D01*
X021056Y010805D01*
X021027Y010815D01*
X021001Y010829D01*
X020976Y010846D01*
X020953Y010867D01*
X020934Y010890D01*
X020917Y010915D01*
X020904Y010942D01*
X020895Y010971D01*
X020889Y011001D01*
X020887Y011031D01*
X021871Y011031D02*
X021873Y011061D01*
X021879Y011091D01*
X021888Y011120D01*
X021901Y011147D01*
X021918Y011172D01*
X021937Y011195D01*
X021960Y011216D01*
X021985Y011233D01*
X022011Y011247D01*
X022040Y011257D01*
X022069Y011264D01*
X022099Y011267D01*
X022130Y011266D01*
X022160Y011261D01*
X022189Y011252D01*
X022216Y011240D01*
X022242Y011225D01*
X022266Y011206D01*
X022287Y011184D01*
X022305Y011160D01*
X022320Y011133D01*
X022331Y011105D01*
X022339Y011076D01*
X022343Y011046D01*
X022343Y011016D01*
X022339Y010986D01*
X022331Y010957D01*
X022320Y010929D01*
X022305Y010902D01*
X022287Y010878D01*
X022266Y010856D01*
X022242Y010837D01*
X022216Y010822D01*
X022189Y010810D01*
X022160Y010801D01*
X022130Y010796D01*
X022099Y010795D01*
X022069Y010798D01*
X022040Y010805D01*
X022011Y010815D01*
X021985Y010829D01*
X021960Y010846D01*
X021937Y010867D01*
X021918Y010890D01*
X021901Y010915D01*
X021888Y010942D01*
X021879Y010971D01*
X021873Y011001D01*
X021871Y011031D01*
X023840Y013000D02*
X023842Y013030D01*
X023848Y013060D01*
X023857Y013089D01*
X023870Y013116D01*
X023887Y013141D01*
X023906Y013164D01*
X023929Y013185D01*
X023954Y013202D01*
X023980Y013216D01*
X024009Y013226D01*
X024038Y013233D01*
X024068Y013236D01*
X024099Y013235D01*
X024129Y013230D01*
X024158Y013221D01*
X024185Y013209D01*
X024211Y013194D01*
X024235Y013175D01*
X024256Y013153D01*
X024274Y013129D01*
X024289Y013102D01*
X024300Y013074D01*
X024308Y013045D01*
X024312Y013015D01*
X024312Y012985D01*
X024308Y012955D01*
X024300Y012926D01*
X024289Y012898D01*
X024274Y012871D01*
X024256Y012847D01*
X024235Y012825D01*
X024211Y012806D01*
X024185Y012791D01*
X024158Y012779D01*
X024129Y012770D01*
X024099Y012765D01*
X024068Y012764D01*
X024038Y012767D01*
X024009Y012774D01*
X023980Y012784D01*
X023954Y012798D01*
X023929Y012815D01*
X023906Y012836D01*
X023887Y012859D01*
X023870Y012884D01*
X023857Y012911D01*
X023848Y012940D01*
X023842Y012970D01*
X023840Y013000D01*
X021871Y014969D02*
X021873Y014999D01*
X021879Y015029D01*
X021888Y015058D01*
X021901Y015085D01*
X021918Y015110D01*
X021937Y015133D01*
X021960Y015154D01*
X021985Y015171D01*
X022011Y015185D01*
X022040Y015195D01*
X022069Y015202D01*
X022099Y015205D01*
X022130Y015204D01*
X022160Y015199D01*
X022189Y015190D01*
X022216Y015178D01*
X022242Y015163D01*
X022266Y015144D01*
X022287Y015122D01*
X022305Y015098D01*
X022320Y015071D01*
X022331Y015043D01*
X022339Y015014D01*
X022343Y014984D01*
X022343Y014954D01*
X022339Y014924D01*
X022331Y014895D01*
X022320Y014867D01*
X022305Y014840D01*
X022287Y014816D01*
X022266Y014794D01*
X022242Y014775D01*
X022216Y014760D01*
X022189Y014748D01*
X022160Y014739D01*
X022130Y014734D01*
X022099Y014733D01*
X022069Y014736D01*
X022040Y014743D01*
X022011Y014753D01*
X021985Y014767D01*
X021960Y014784D01*
X021937Y014805D01*
X021918Y014828D01*
X021901Y014853D01*
X021888Y014880D01*
X021879Y014909D01*
X021873Y014939D01*
X021871Y014969D01*
X020887Y014969D02*
X020889Y014999D01*
X020895Y015029D01*
X020904Y015058D01*
X020917Y015085D01*
X020934Y015110D01*
X020953Y015133D01*
X020976Y015154D01*
X021001Y015171D01*
X021027Y015185D01*
X021056Y015195D01*
X021085Y015202D01*
X021115Y015205D01*
X021146Y015204D01*
X021176Y015199D01*
X021205Y015190D01*
X021232Y015178D01*
X021258Y015163D01*
X021282Y015144D01*
X021303Y015122D01*
X021321Y015098D01*
X021336Y015071D01*
X021347Y015043D01*
X021355Y015014D01*
X021359Y014984D01*
X021359Y014954D01*
X021355Y014924D01*
X021347Y014895D01*
X021336Y014867D01*
X021321Y014840D01*
X021303Y014816D01*
X021282Y014794D01*
X021258Y014775D01*
X021232Y014760D01*
X021205Y014748D01*
X021176Y014739D01*
X021146Y014734D01*
X021115Y014733D01*
X021085Y014736D01*
X021056Y014743D01*
X021027Y014753D01*
X021001Y014767D01*
X020976Y014784D01*
X020953Y014805D01*
X020934Y014828D01*
X020917Y014853D01*
X020904Y014880D01*
X020895Y014909D01*
X020889Y014939D01*
X020887Y014969D01*
D13*
X023528Y018217D03*
X023528Y002075D03*
D14*
X016744Y004876D03*
X016744Y005624D03*
X015724Y005624D03*
X015724Y005250D03*
X015724Y004876D03*
D15*
X017482Y004220D03*
X017982Y004220D03*
X018482Y004220D03*
X018982Y004220D03*
X018982Y006280D03*
X018482Y006280D03*
X017982Y006280D03*
X017482Y006280D03*
D16*
X019732Y005550D03*
X019732Y004950D03*
D17*
X019732Y005250D03*
D18*
X022107Y007250D03*
X024076Y006266D03*
X024076Y005281D03*
X024076Y008234D03*
X024076Y009219D03*
X024076Y011031D03*
X024076Y012016D03*
X022107Y013000D03*
X024076Y013984D03*
X024076Y014969D03*
D19*
X022107Y014969D03*
X021123Y014969D03*
X024076Y013000D03*
X022107Y011031D03*
X021123Y011031D03*
X021123Y009219D03*
X022107Y009219D03*
X024076Y007250D03*
X022107Y005281D03*
X021123Y005281D03*
D20*
X011107Y005101D03*
X010607Y005101D03*
X010107Y005101D03*
X009607Y005101D03*
X009607Y007149D03*
X010107Y007149D03*
X010607Y007149D03*
X011107Y007149D03*
D21*
X011832Y007125D03*
X012541Y007125D03*
X010166Y008000D03*
X009457Y008000D03*
X009457Y008750D03*
X010166Y008750D03*
X015957Y006500D03*
X016666Y006500D03*
D22*
X009607Y002000D03*
D23*
X010985Y002000D03*
D24*
X017852Y008250D03*
X019112Y008250D03*
X019112Y009500D03*
X017852Y009500D03*
X017852Y010750D03*
X019112Y010750D03*
X019112Y012000D03*
X017852Y012000D03*
D25*
X016995Y012000D03*
X016129Y011626D03*
X016129Y011124D03*
X016995Y010750D03*
X016129Y010376D03*
X016129Y012374D03*
D26*
X006062Y002375D03*
D27*
X007062Y002375D03*
X008062Y002375D03*
M02*
