G75*
G70*
%OFA0B0*%
%FSLAX24Y24*%
%IPPOS*%
%LPD*%
%AMOC8*
5,1,8,0,0,1.08239X$1,22.5*
%
%ADD10C,0.0060*%
%ADD11C,0.0040*%
%ADD12C,0.0050*%
%ADD13C,0.0070*%
%ADD14C,0.0000*%
%ADD15C,0.0004*%
%ADD16C,0.0030*%
%ADD17C,0.0030*%
%ADD18C,0.0080*%
%ADD19C,0.0160*%
%ADD20C,0.0059*%
D10*
X009694Y007764D02*
X009930Y007764D01*
X009930Y008236D02*
X009694Y008236D01*
X009694Y008514D02*
X009930Y008514D01*
X009930Y008986D02*
X009694Y008986D01*
X012069Y007361D02*
X012305Y007361D01*
X012305Y006889D02*
X012069Y006889D01*
X016194Y006736D02*
X016430Y006736D01*
X016430Y006264D02*
X016194Y006264D01*
X017302Y005960D02*
X017302Y004540D01*
X019162Y004540D02*
X019162Y005960D01*
X019332Y005800D02*
X019332Y004700D01*
X019334Y004683D01*
X019338Y004666D01*
X019345Y004650D01*
X019355Y004636D01*
X019368Y004623D01*
X019382Y004613D01*
X019398Y004606D01*
X019415Y004602D01*
X019432Y004600D01*
X020032Y004600D01*
X020049Y004602D01*
X020066Y004606D01*
X020082Y004613D01*
X020096Y004623D01*
X020109Y004636D01*
X020119Y004650D01*
X020126Y004666D01*
X020130Y004683D01*
X020132Y004700D01*
X020132Y005800D01*
X020130Y005817D01*
X020126Y005834D01*
X020119Y005850D01*
X020109Y005864D01*
X020096Y005877D01*
X020082Y005887D01*
X020066Y005894D01*
X020049Y005898D01*
X020032Y005900D01*
X019432Y005900D01*
X019415Y005898D01*
X019398Y005894D01*
X019382Y005887D01*
X019368Y005877D01*
X019355Y005864D01*
X019345Y005850D01*
X019338Y005834D01*
X019334Y005817D01*
X019332Y005800D01*
X017072Y007315D02*
X017072Y007535D01*
X017072Y007315D02*
X016752Y007315D01*
X017072Y008215D02*
X017072Y008435D01*
X016752Y008435D01*
X016752Y008565D02*
X017072Y008565D01*
X017072Y008785D01*
X017072Y009465D02*
X017072Y009685D01*
X016752Y009685D01*
X016857Y016250D02*
X016357Y016250D01*
X016107Y016500D01*
X016107Y018000D01*
X016357Y018250D01*
X016857Y018250D01*
X017107Y018000D01*
X017107Y016500D01*
X017357Y016250D01*
X017857Y016250D01*
X018107Y016500D01*
X018107Y018000D01*
X018357Y018250D01*
X018857Y018250D01*
X019107Y018000D01*
X019107Y016500D01*
X018857Y016250D01*
X018357Y016250D01*
X018107Y016500D01*
X017107Y016500D02*
X016857Y016250D01*
X016107Y016500D02*
X015857Y016250D01*
X015357Y016250D01*
X015107Y016500D01*
X015107Y018000D01*
X015357Y018250D01*
X015857Y018250D01*
X016107Y018000D01*
X015107Y018000D02*
X014857Y018250D01*
X014357Y018250D01*
X014107Y018000D01*
X014107Y016500D01*
X013857Y016250D01*
X013357Y016250D01*
X013107Y016500D01*
X013107Y018000D01*
X013357Y018250D01*
X013857Y018250D01*
X014107Y018000D01*
X013107Y018000D02*
X012857Y018250D01*
X012357Y018250D01*
X012107Y018000D01*
X012107Y016500D01*
X012357Y016250D01*
X012857Y016250D01*
X013107Y016500D01*
X012107Y016500D02*
X011857Y016250D01*
X011357Y016250D01*
X011107Y016500D01*
X011107Y018000D01*
X011357Y018250D01*
X011857Y018250D01*
X012107Y018000D01*
X011107Y018000D02*
X010857Y018250D01*
X010357Y018250D01*
X010107Y018000D01*
X010107Y016500D01*
X010357Y016250D01*
X010857Y016250D01*
X011107Y016500D01*
X010107Y016500D02*
X009857Y016250D01*
X009357Y016250D01*
X009107Y016500D01*
X009107Y018000D01*
X009357Y018250D01*
X009857Y018250D01*
X010107Y018000D01*
X009107Y018000D02*
X008857Y018250D01*
X008357Y018250D01*
X008107Y018000D01*
X008107Y016500D01*
X008357Y016250D01*
X008857Y016250D01*
X009107Y016500D01*
X008107Y016500D02*
X007857Y016250D01*
X007357Y016250D01*
X007107Y016500D01*
X007107Y018000D01*
X007357Y018250D01*
X007857Y018250D01*
X008107Y018000D01*
X007107Y018000D02*
X006857Y018250D01*
X006357Y018250D01*
X006107Y018000D01*
X006107Y016500D01*
X006357Y016250D01*
X006857Y016250D01*
X007107Y016500D01*
X008896Y019030D02*
X009323Y019030D01*
X009541Y019137D02*
X009648Y019030D01*
X009861Y019030D01*
X009968Y019137D01*
X009968Y019350D01*
X009861Y019457D01*
X009648Y019457D01*
X009541Y019350D01*
X009541Y019137D01*
X008896Y019030D02*
X008896Y019671D01*
X010185Y019671D02*
X010185Y019030D01*
X010185Y019244D02*
X010506Y019457D01*
X010723Y019457D02*
X010829Y019457D01*
X010829Y019030D01*
X010723Y019030D02*
X010936Y019030D01*
X010506Y019030D02*
X010185Y019244D01*
X010829Y019671D02*
X010829Y019777D01*
X011797Y019564D02*
X011797Y019457D01*
X011904Y019350D01*
X012117Y019350D01*
X012224Y019244D01*
X012224Y019137D01*
X012117Y019030D01*
X011904Y019030D01*
X011797Y019137D01*
X011797Y019564D02*
X011904Y019671D01*
X012117Y019671D01*
X012224Y019564D01*
X012441Y019350D02*
X012441Y019137D01*
X012548Y019030D01*
X012762Y019030D01*
X012868Y019137D01*
X012868Y019350D01*
X012762Y019457D01*
X012548Y019457D01*
X012441Y019350D01*
X013086Y019457D02*
X013086Y019137D01*
X013193Y019030D01*
X013513Y019030D01*
X013513Y019457D01*
X013730Y019457D02*
X014051Y019457D01*
X014157Y019350D01*
X014157Y019030D01*
X014375Y019137D02*
X014375Y019350D01*
X014482Y019457D01*
X014802Y019457D01*
X014802Y019671D02*
X014802Y019030D01*
X014482Y019030D01*
X014375Y019137D01*
X015020Y019030D02*
X015340Y019030D01*
X015447Y019137D01*
X015447Y019350D01*
X015340Y019457D01*
X015020Y019457D01*
X015020Y018816D01*
X015664Y019030D02*
X015878Y019030D01*
X015771Y019030D02*
X015771Y019671D01*
X015664Y019671D01*
X016201Y019457D02*
X016414Y019457D01*
X016521Y019350D01*
X016521Y019030D01*
X016201Y019030D01*
X016094Y019137D01*
X016201Y019244D01*
X016521Y019244D01*
X016738Y019030D02*
X016738Y019457D01*
X017059Y019457D01*
X017165Y019350D01*
X017165Y019030D01*
X017383Y019030D02*
X017383Y019671D01*
X017703Y019457D02*
X017383Y019244D01*
X017703Y019030D01*
X018565Y019457D02*
X018778Y019030D01*
X018992Y019457D01*
X019209Y019564D02*
X019316Y019671D01*
X019529Y019671D01*
X019636Y019564D01*
X019209Y019137D01*
X019316Y019030D01*
X019529Y019030D01*
X019636Y019137D01*
X019636Y019564D01*
X019209Y019564D02*
X019209Y019137D01*
X019854Y019137D02*
X019960Y019137D01*
X019960Y019030D01*
X019854Y019030D01*
X019854Y019137D01*
X020176Y019030D02*
X020603Y019030D01*
X020389Y019030D02*
X020389Y019671D01*
X020176Y019457D01*
X020820Y019137D02*
X020927Y019137D01*
X020927Y019030D01*
X020820Y019030D01*
X020820Y019137D01*
X021143Y019030D02*
X021570Y019457D01*
X021570Y019564D01*
X021463Y019671D01*
X021250Y019671D01*
X021143Y019564D01*
X021143Y019030D02*
X021570Y019030D01*
X021357Y018250D02*
X021857Y018250D01*
X022107Y018000D01*
X022107Y016500D01*
X021857Y016250D01*
X021357Y016250D01*
X021107Y016500D01*
X021107Y018000D01*
X021357Y018250D01*
X021107Y018000D02*
X020857Y018250D01*
X020357Y018250D01*
X020107Y018000D01*
X020107Y016500D01*
X019857Y016250D01*
X019357Y016250D01*
X019107Y016500D01*
X020107Y016500D02*
X020357Y016250D01*
X020857Y016250D01*
X021107Y016500D01*
X020107Y018000D02*
X019857Y018250D01*
X019357Y018250D01*
X019107Y018000D01*
X018107Y018000D02*
X017857Y018250D01*
X017357Y018250D01*
X017107Y018000D01*
X015107Y016500D02*
X014857Y016250D01*
X014357Y016250D01*
X014107Y016500D01*
X013730Y019030D02*
X013730Y019457D01*
D11*
X021144Y010355D02*
X021144Y009895D01*
X021451Y009895D01*
X021604Y009895D02*
X021758Y009895D01*
X021681Y009895D02*
X021681Y010202D01*
X021604Y010202D01*
X021681Y010355D02*
X021681Y010432D01*
X021911Y010202D02*
X022141Y010202D01*
X022218Y010125D01*
X022218Y009895D01*
X022371Y009972D02*
X022371Y010125D01*
X022448Y010202D01*
X022602Y010202D01*
X022678Y010125D01*
X022678Y010048D01*
X022371Y010048D01*
X022371Y009972D02*
X022448Y009895D01*
X022602Y009895D01*
X021911Y009895D02*
X021911Y010202D01*
X023292Y010279D02*
X023292Y009972D01*
X023369Y009895D01*
X023522Y009895D01*
X023599Y009972D01*
X023599Y010279D01*
X023522Y010355D01*
X023369Y010355D01*
X023292Y010279D01*
X023753Y010202D02*
X023753Y009972D01*
X023829Y009895D01*
X024060Y009895D01*
X024060Y010202D01*
X024213Y010202D02*
X024366Y010202D01*
X024290Y010279D02*
X024290Y009972D01*
X024366Y009895D01*
X021911Y004682D02*
X021911Y004605D01*
X021911Y004452D02*
X021911Y004145D01*
X021834Y004145D02*
X021988Y004145D01*
X022141Y004145D02*
X022141Y004452D01*
X022371Y004452D01*
X022448Y004375D01*
X022448Y004145D01*
X022602Y004222D02*
X022602Y004375D01*
X022678Y004452D01*
X022832Y004452D01*
X022909Y004375D01*
X022909Y004298D01*
X022602Y004298D01*
X022602Y004222D02*
X022678Y004145D01*
X022832Y004145D01*
X023522Y004145D02*
X023676Y004145D01*
X023599Y004145D02*
X023599Y004605D01*
X023522Y004605D02*
X023676Y004605D01*
X023829Y004452D02*
X024060Y004452D01*
X024136Y004375D01*
X024136Y004145D01*
X023829Y004145D02*
X023829Y004452D01*
X021911Y004452D02*
X021834Y004452D01*
X021374Y004605D02*
X021374Y004145D01*
X021681Y004145D01*
X011713Y004452D02*
X011636Y004452D01*
X011483Y004298D01*
X011483Y004145D02*
X011483Y004452D01*
X011329Y004375D02*
X011329Y004298D01*
X011022Y004298D01*
X011022Y004222D02*
X011022Y004375D01*
X011099Y004452D01*
X011253Y004452D01*
X011329Y004375D01*
X011253Y004145D02*
X011099Y004145D01*
X011022Y004222D01*
X010869Y004145D02*
X010639Y004298D01*
X010869Y004452D01*
X010639Y004605D02*
X010639Y004145D01*
X010485Y004145D02*
X010255Y004145D01*
X010178Y004222D01*
X010255Y004298D01*
X010485Y004298D01*
X010485Y004375D02*
X010485Y004145D01*
X010485Y004375D02*
X010409Y004452D01*
X010255Y004452D01*
X010025Y004375D02*
X010025Y004298D01*
X009718Y004298D01*
X009718Y004222D02*
X009718Y004375D01*
X009795Y004452D01*
X009948Y004452D01*
X010025Y004375D01*
X009948Y004145D02*
X009795Y004145D01*
X009718Y004222D01*
X009564Y004222D02*
X009564Y004375D01*
X009488Y004452D01*
X009258Y004452D01*
X009258Y003992D01*
X009258Y004145D02*
X009488Y004145D01*
X009564Y004222D01*
X009104Y004222D02*
X009104Y004298D01*
X009027Y004375D01*
X008874Y004375D01*
X008797Y004452D01*
X008797Y004529D01*
X008874Y004605D01*
X009027Y004605D01*
X009104Y004529D01*
X009104Y004222D02*
X009027Y004145D01*
X008874Y004145D01*
X008797Y004222D01*
D12*
X009283Y003830D02*
X009690Y003830D01*
X010783Y003705D02*
X011190Y003705D01*
X010986Y003502D02*
X010986Y003909D01*
X008562Y002875D02*
X005562Y002875D01*
X005562Y001875D01*
X006062Y001875D01*
X008062Y001875D02*
X008562Y001875D01*
X008562Y002875D01*
X007518Y003775D02*
X007314Y003979D01*
X007416Y003979D02*
X007111Y003979D01*
X007111Y003775D02*
X007111Y004386D01*
X007416Y004386D01*
X007518Y004284D01*
X007518Y004080D01*
X007416Y003979D01*
X006909Y003775D02*
X006705Y003775D01*
X006807Y003775D02*
X006807Y004386D01*
X006705Y004386D02*
X006909Y004386D01*
X015917Y004691D02*
X016547Y004691D01*
X016547Y005809D02*
X015917Y005809D01*
D13*
X016296Y002742D02*
X014918Y002742D01*
X014296Y002742D02*
X012918Y002742D01*
X012320Y002742D02*
X012068Y002742D01*
X012068Y001758D01*
X013320Y001758D01*
X013918Y001742D02*
X015296Y001742D01*
X015918Y001742D02*
X017296Y001742D01*
X017918Y001742D02*
X019296Y001742D01*
X019918Y001742D02*
X021296Y001742D01*
X021883Y001758D02*
X022146Y001758D01*
X022146Y002742D01*
X020883Y002742D01*
X020296Y002742D02*
X018918Y002742D01*
X018296Y002742D02*
X016918Y002742D01*
D14*
X005418Y002075D02*
X005418Y018217D01*
X005420Y018294D01*
X005426Y018371D01*
X005435Y018448D01*
X005448Y018524D01*
X005465Y018600D01*
X005486Y018674D01*
X005510Y018748D01*
X005538Y018820D01*
X005569Y018890D01*
X005604Y018959D01*
X005642Y019027D01*
X005683Y019092D01*
X005728Y019155D01*
X005776Y019216D01*
X005826Y019275D01*
X005879Y019331D01*
X005935Y019384D01*
X005994Y019434D01*
X006055Y019482D01*
X006118Y019527D01*
X006183Y019568D01*
X006251Y019606D01*
X006320Y019641D01*
X006390Y019672D01*
X006462Y019700D01*
X006536Y019724D01*
X006610Y019745D01*
X006686Y019762D01*
X006762Y019775D01*
X006839Y019784D01*
X006916Y019790D01*
X006993Y019792D01*
X006993Y019791D02*
X023528Y019791D01*
X022898Y018217D02*
X022900Y018267D01*
X022906Y018317D01*
X022916Y018366D01*
X022930Y018414D01*
X022947Y018461D01*
X022968Y018506D01*
X022993Y018550D01*
X023021Y018591D01*
X023053Y018630D01*
X023087Y018667D01*
X023124Y018701D01*
X023164Y018731D01*
X023206Y018758D01*
X023250Y018782D01*
X023296Y018803D01*
X023343Y018819D01*
X023391Y018832D01*
X023441Y018841D01*
X023490Y018846D01*
X023541Y018847D01*
X023591Y018844D01*
X023640Y018837D01*
X023689Y018826D01*
X023737Y018811D01*
X023783Y018793D01*
X023828Y018771D01*
X023871Y018745D01*
X023912Y018716D01*
X023951Y018684D01*
X023987Y018649D01*
X024019Y018611D01*
X024049Y018571D01*
X024076Y018528D01*
X024099Y018484D01*
X024118Y018438D01*
X024134Y018390D01*
X024146Y018341D01*
X024154Y018292D01*
X024158Y018242D01*
X024158Y018192D01*
X024154Y018142D01*
X024146Y018093D01*
X024134Y018044D01*
X024118Y017996D01*
X024099Y017950D01*
X024076Y017906D01*
X024049Y017863D01*
X024019Y017823D01*
X023987Y017785D01*
X023951Y017750D01*
X023912Y017718D01*
X023871Y017689D01*
X023828Y017663D01*
X023783Y017641D01*
X023737Y017623D01*
X023689Y017608D01*
X023640Y017597D01*
X023591Y017590D01*
X023541Y017587D01*
X023490Y017588D01*
X023441Y017593D01*
X023391Y017602D01*
X023343Y017615D01*
X023296Y017631D01*
X023250Y017652D01*
X023206Y017676D01*
X023164Y017703D01*
X023124Y017733D01*
X023087Y017767D01*
X023053Y017804D01*
X023021Y017843D01*
X022993Y017884D01*
X022968Y017928D01*
X022947Y017973D01*
X022930Y018020D01*
X022916Y018068D01*
X022906Y018117D01*
X022900Y018167D01*
X022898Y018217D01*
X025103Y018217D02*
X025103Y002075D01*
X022898Y002075D02*
X022900Y002125D01*
X022906Y002175D01*
X022916Y002224D01*
X022930Y002272D01*
X022947Y002319D01*
X022968Y002364D01*
X022993Y002408D01*
X023021Y002449D01*
X023053Y002488D01*
X023087Y002525D01*
X023124Y002559D01*
X023164Y002589D01*
X023206Y002616D01*
X023250Y002640D01*
X023296Y002661D01*
X023343Y002677D01*
X023391Y002690D01*
X023441Y002699D01*
X023490Y002704D01*
X023541Y002705D01*
X023591Y002702D01*
X023640Y002695D01*
X023689Y002684D01*
X023737Y002669D01*
X023783Y002651D01*
X023828Y002629D01*
X023871Y002603D01*
X023912Y002574D01*
X023951Y002542D01*
X023987Y002507D01*
X024019Y002469D01*
X024049Y002429D01*
X024076Y002386D01*
X024099Y002342D01*
X024118Y002296D01*
X024134Y002248D01*
X024146Y002199D01*
X024154Y002150D01*
X024158Y002100D01*
X024158Y002050D01*
X024154Y002000D01*
X024146Y001951D01*
X024134Y001902D01*
X024118Y001854D01*
X024099Y001808D01*
X024076Y001764D01*
X024049Y001721D01*
X024019Y001681D01*
X023987Y001643D01*
X023951Y001608D01*
X023912Y001576D01*
X023871Y001547D01*
X023828Y001521D01*
X023783Y001499D01*
X023737Y001481D01*
X023689Y001466D01*
X023640Y001455D01*
X023591Y001448D01*
X023541Y001445D01*
X023490Y001446D01*
X023441Y001451D01*
X023391Y001460D01*
X023343Y001473D01*
X023296Y001489D01*
X023250Y001510D01*
X023206Y001534D01*
X023164Y001561D01*
X023124Y001591D01*
X023087Y001625D01*
X023053Y001662D01*
X023021Y001701D01*
X022993Y001742D01*
X022968Y001786D01*
X022947Y001831D01*
X022930Y001878D01*
X022916Y001926D01*
X022906Y001975D01*
X022900Y002025D01*
X022898Y002075D01*
X023528Y000500D02*
X023605Y000502D01*
X023682Y000508D01*
X023759Y000517D01*
X023835Y000530D01*
X023911Y000547D01*
X023985Y000568D01*
X024059Y000592D01*
X024131Y000620D01*
X024201Y000651D01*
X024270Y000686D01*
X024338Y000724D01*
X024403Y000765D01*
X024466Y000810D01*
X024527Y000858D01*
X024586Y000908D01*
X024642Y000961D01*
X024695Y001017D01*
X024745Y001076D01*
X024793Y001137D01*
X024838Y001200D01*
X024879Y001265D01*
X024917Y001333D01*
X024952Y001402D01*
X024983Y001472D01*
X025011Y001544D01*
X025035Y001618D01*
X025056Y001692D01*
X025073Y001768D01*
X025086Y001844D01*
X025095Y001921D01*
X025101Y001998D01*
X025103Y002075D01*
X023528Y000500D02*
X006993Y000500D01*
X006916Y000502D01*
X006839Y000508D01*
X006762Y000517D01*
X006686Y000530D01*
X006610Y000547D01*
X006536Y000568D01*
X006462Y000592D01*
X006390Y000620D01*
X006320Y000651D01*
X006251Y000686D01*
X006183Y000724D01*
X006118Y000765D01*
X006055Y000810D01*
X005994Y000858D01*
X005935Y000908D01*
X005879Y000961D01*
X005826Y001017D01*
X005776Y001076D01*
X005728Y001137D01*
X005683Y001200D01*
X005642Y001265D01*
X005604Y001333D01*
X005569Y001402D01*
X005538Y001472D01*
X005510Y001544D01*
X005486Y001618D01*
X005465Y001692D01*
X005448Y001768D01*
X005435Y001844D01*
X005426Y001921D01*
X005420Y001998D01*
X005418Y002075D01*
X021187Y007250D02*
X021189Y007280D01*
X021195Y007310D01*
X021204Y007339D01*
X021217Y007366D01*
X021234Y007391D01*
X021253Y007414D01*
X021276Y007435D01*
X021301Y007452D01*
X021327Y007466D01*
X021356Y007476D01*
X021385Y007483D01*
X021415Y007486D01*
X021446Y007485D01*
X021476Y007480D01*
X021505Y007471D01*
X021532Y007459D01*
X021558Y007444D01*
X021582Y007425D01*
X021603Y007403D01*
X021621Y007379D01*
X021636Y007352D01*
X021647Y007324D01*
X021655Y007295D01*
X021659Y007265D01*
X021659Y007235D01*
X021655Y007205D01*
X021647Y007176D01*
X021636Y007148D01*
X021621Y007121D01*
X021603Y007097D01*
X021582Y007075D01*
X021558Y007056D01*
X021532Y007041D01*
X021505Y007029D01*
X021476Y007020D01*
X021446Y007015D01*
X021415Y007014D01*
X021385Y007017D01*
X021356Y007024D01*
X021327Y007034D01*
X021301Y007048D01*
X021276Y007065D01*
X021253Y007086D01*
X021234Y007109D01*
X021217Y007134D01*
X021204Y007161D01*
X021195Y007190D01*
X021189Y007220D01*
X021187Y007250D01*
X023156Y005281D02*
X023158Y005311D01*
X023164Y005341D01*
X023173Y005370D01*
X023186Y005397D01*
X023203Y005422D01*
X023222Y005445D01*
X023245Y005466D01*
X023270Y005483D01*
X023296Y005497D01*
X023325Y005507D01*
X023354Y005514D01*
X023384Y005517D01*
X023415Y005516D01*
X023445Y005511D01*
X023474Y005502D01*
X023501Y005490D01*
X023527Y005475D01*
X023551Y005456D01*
X023572Y005434D01*
X023590Y005410D01*
X023605Y005383D01*
X023616Y005355D01*
X023624Y005326D01*
X023628Y005296D01*
X023628Y005266D01*
X023624Y005236D01*
X023616Y005207D01*
X023605Y005179D01*
X023590Y005152D01*
X023572Y005128D01*
X023551Y005106D01*
X023527Y005087D01*
X023501Y005072D01*
X023474Y005060D01*
X023445Y005051D01*
X023415Y005046D01*
X023384Y005045D01*
X023354Y005048D01*
X023325Y005055D01*
X023296Y005065D01*
X023270Y005079D01*
X023245Y005096D01*
X023222Y005117D01*
X023203Y005140D01*
X023186Y005165D01*
X023173Y005192D01*
X023164Y005221D01*
X023158Y005251D01*
X023156Y005281D01*
X024140Y005281D02*
X024142Y005311D01*
X024148Y005341D01*
X024157Y005370D01*
X024170Y005397D01*
X024187Y005422D01*
X024206Y005445D01*
X024229Y005466D01*
X024254Y005483D01*
X024280Y005497D01*
X024309Y005507D01*
X024338Y005514D01*
X024368Y005517D01*
X024399Y005516D01*
X024429Y005511D01*
X024458Y005502D01*
X024485Y005490D01*
X024511Y005475D01*
X024535Y005456D01*
X024556Y005434D01*
X024574Y005410D01*
X024589Y005383D01*
X024600Y005355D01*
X024608Y005326D01*
X024612Y005296D01*
X024612Y005266D01*
X024608Y005236D01*
X024600Y005207D01*
X024589Y005179D01*
X024574Y005152D01*
X024556Y005128D01*
X024535Y005106D01*
X024511Y005087D01*
X024485Y005072D01*
X024458Y005060D01*
X024429Y005051D01*
X024399Y005046D01*
X024368Y005045D01*
X024338Y005048D01*
X024309Y005055D01*
X024280Y005065D01*
X024254Y005079D01*
X024229Y005096D01*
X024206Y005117D01*
X024187Y005140D01*
X024170Y005165D01*
X024157Y005192D01*
X024148Y005221D01*
X024142Y005251D01*
X024140Y005281D01*
X024140Y009219D02*
X024142Y009249D01*
X024148Y009279D01*
X024157Y009308D01*
X024170Y009335D01*
X024187Y009360D01*
X024206Y009383D01*
X024229Y009404D01*
X024254Y009421D01*
X024280Y009435D01*
X024309Y009445D01*
X024338Y009452D01*
X024368Y009455D01*
X024399Y009454D01*
X024429Y009449D01*
X024458Y009440D01*
X024485Y009428D01*
X024511Y009413D01*
X024535Y009394D01*
X024556Y009372D01*
X024574Y009348D01*
X024589Y009321D01*
X024600Y009293D01*
X024608Y009264D01*
X024612Y009234D01*
X024612Y009204D01*
X024608Y009174D01*
X024600Y009145D01*
X024589Y009117D01*
X024574Y009090D01*
X024556Y009066D01*
X024535Y009044D01*
X024511Y009025D01*
X024485Y009010D01*
X024458Y008998D01*
X024429Y008989D01*
X024399Y008984D01*
X024368Y008983D01*
X024338Y008986D01*
X024309Y008993D01*
X024280Y009003D01*
X024254Y009017D01*
X024229Y009034D01*
X024206Y009055D01*
X024187Y009078D01*
X024170Y009103D01*
X024157Y009130D01*
X024148Y009159D01*
X024142Y009189D01*
X024140Y009219D01*
X023156Y009219D02*
X023158Y009249D01*
X023164Y009279D01*
X023173Y009308D01*
X023186Y009335D01*
X023203Y009360D01*
X023222Y009383D01*
X023245Y009404D01*
X023270Y009421D01*
X023296Y009435D01*
X023325Y009445D01*
X023354Y009452D01*
X023384Y009455D01*
X023415Y009454D01*
X023445Y009449D01*
X023474Y009440D01*
X023501Y009428D01*
X023527Y009413D01*
X023551Y009394D01*
X023572Y009372D01*
X023590Y009348D01*
X023605Y009321D01*
X023616Y009293D01*
X023624Y009264D01*
X023628Y009234D01*
X023628Y009204D01*
X023624Y009174D01*
X023616Y009145D01*
X023605Y009117D01*
X023590Y009090D01*
X023572Y009066D01*
X023551Y009044D01*
X023527Y009025D01*
X023501Y009010D01*
X023474Y008998D01*
X023445Y008989D01*
X023415Y008984D01*
X023384Y008983D01*
X023354Y008986D01*
X023325Y008993D01*
X023296Y009003D01*
X023270Y009017D01*
X023245Y009034D01*
X023222Y009055D01*
X023203Y009078D01*
X023186Y009103D01*
X023173Y009130D01*
X023164Y009159D01*
X023158Y009189D01*
X023156Y009219D01*
X023156Y011031D02*
X023158Y011061D01*
X023164Y011091D01*
X023173Y011120D01*
X023186Y011147D01*
X023203Y011172D01*
X023222Y011195D01*
X023245Y011216D01*
X023270Y011233D01*
X023296Y011247D01*
X023325Y011257D01*
X023354Y011264D01*
X023384Y011267D01*
X023415Y011266D01*
X023445Y011261D01*
X023474Y011252D01*
X023501Y011240D01*
X023527Y011225D01*
X023551Y011206D01*
X023572Y011184D01*
X023590Y011160D01*
X023605Y011133D01*
X023616Y011105D01*
X023624Y011076D01*
X023628Y011046D01*
X023628Y011016D01*
X023624Y010986D01*
X023616Y010957D01*
X023605Y010929D01*
X023590Y010902D01*
X023572Y010878D01*
X023551Y010856D01*
X023527Y010837D01*
X023501Y010822D01*
X023474Y010810D01*
X023445Y010801D01*
X023415Y010796D01*
X023384Y010795D01*
X023354Y010798D01*
X023325Y010805D01*
X023296Y010815D01*
X023270Y010829D01*
X023245Y010846D01*
X023222Y010867D01*
X023203Y010890D01*
X023186Y010915D01*
X023173Y010942D01*
X023164Y010971D01*
X023158Y011001D01*
X023156Y011031D01*
X024140Y011031D02*
X024142Y011061D01*
X024148Y011091D01*
X024157Y011120D01*
X024170Y011147D01*
X024187Y011172D01*
X024206Y011195D01*
X024229Y011216D01*
X024254Y011233D01*
X024280Y011247D01*
X024309Y011257D01*
X024338Y011264D01*
X024368Y011267D01*
X024399Y011266D01*
X024429Y011261D01*
X024458Y011252D01*
X024485Y011240D01*
X024511Y011225D01*
X024535Y011206D01*
X024556Y011184D01*
X024574Y011160D01*
X024589Y011133D01*
X024600Y011105D01*
X024608Y011076D01*
X024612Y011046D01*
X024612Y011016D01*
X024608Y010986D01*
X024600Y010957D01*
X024589Y010929D01*
X024574Y010902D01*
X024556Y010878D01*
X024535Y010856D01*
X024511Y010837D01*
X024485Y010822D01*
X024458Y010810D01*
X024429Y010801D01*
X024399Y010796D01*
X024368Y010795D01*
X024338Y010798D01*
X024309Y010805D01*
X024280Y010815D01*
X024254Y010829D01*
X024229Y010846D01*
X024206Y010867D01*
X024187Y010890D01*
X024170Y010915D01*
X024157Y010942D01*
X024148Y010971D01*
X024142Y011001D01*
X024140Y011031D01*
X021187Y013000D02*
X021189Y013030D01*
X021195Y013060D01*
X021204Y013089D01*
X021217Y013116D01*
X021234Y013141D01*
X021253Y013164D01*
X021276Y013185D01*
X021301Y013202D01*
X021327Y013216D01*
X021356Y013226D01*
X021385Y013233D01*
X021415Y013236D01*
X021446Y013235D01*
X021476Y013230D01*
X021505Y013221D01*
X021532Y013209D01*
X021558Y013194D01*
X021582Y013175D01*
X021603Y013153D01*
X021621Y013129D01*
X021636Y013102D01*
X021647Y013074D01*
X021655Y013045D01*
X021659Y013015D01*
X021659Y012985D01*
X021655Y012955D01*
X021647Y012926D01*
X021636Y012898D01*
X021621Y012871D01*
X021603Y012847D01*
X021582Y012825D01*
X021558Y012806D01*
X021532Y012791D01*
X021505Y012779D01*
X021476Y012770D01*
X021446Y012765D01*
X021415Y012764D01*
X021385Y012767D01*
X021356Y012774D01*
X021327Y012784D01*
X021301Y012798D01*
X021276Y012815D01*
X021253Y012836D01*
X021234Y012859D01*
X021217Y012884D01*
X021204Y012911D01*
X021195Y012940D01*
X021189Y012970D01*
X021187Y013000D01*
X023156Y014969D02*
X023158Y014999D01*
X023164Y015029D01*
X023173Y015058D01*
X023186Y015085D01*
X023203Y015110D01*
X023222Y015133D01*
X023245Y015154D01*
X023270Y015171D01*
X023296Y015185D01*
X023325Y015195D01*
X023354Y015202D01*
X023384Y015205D01*
X023415Y015204D01*
X023445Y015199D01*
X023474Y015190D01*
X023501Y015178D01*
X023527Y015163D01*
X023551Y015144D01*
X023572Y015122D01*
X023590Y015098D01*
X023605Y015071D01*
X023616Y015043D01*
X023624Y015014D01*
X023628Y014984D01*
X023628Y014954D01*
X023624Y014924D01*
X023616Y014895D01*
X023605Y014867D01*
X023590Y014840D01*
X023572Y014816D01*
X023551Y014794D01*
X023527Y014775D01*
X023501Y014760D01*
X023474Y014748D01*
X023445Y014739D01*
X023415Y014734D01*
X023384Y014733D01*
X023354Y014736D01*
X023325Y014743D01*
X023296Y014753D01*
X023270Y014767D01*
X023245Y014784D01*
X023222Y014805D01*
X023203Y014828D01*
X023186Y014853D01*
X023173Y014880D01*
X023164Y014909D01*
X023158Y014939D01*
X023156Y014969D01*
X024140Y014969D02*
X024142Y014999D01*
X024148Y015029D01*
X024157Y015058D01*
X024170Y015085D01*
X024187Y015110D01*
X024206Y015133D01*
X024229Y015154D01*
X024254Y015171D01*
X024280Y015185D01*
X024309Y015195D01*
X024338Y015202D01*
X024368Y015205D01*
X024399Y015204D01*
X024429Y015199D01*
X024458Y015190D01*
X024485Y015178D01*
X024511Y015163D01*
X024535Y015144D01*
X024556Y015122D01*
X024574Y015098D01*
X024589Y015071D01*
X024600Y015043D01*
X024608Y015014D01*
X024612Y014984D01*
X024612Y014954D01*
X024608Y014924D01*
X024600Y014895D01*
X024589Y014867D01*
X024574Y014840D01*
X024556Y014816D01*
X024535Y014794D01*
X024511Y014775D01*
X024485Y014760D01*
X024458Y014748D01*
X024429Y014739D01*
X024399Y014734D01*
X024368Y014733D01*
X024338Y014736D01*
X024309Y014743D01*
X024280Y014753D01*
X024254Y014767D01*
X024229Y014784D01*
X024206Y014805D01*
X024187Y014828D01*
X024170Y014853D01*
X024157Y014880D01*
X024148Y014909D01*
X024142Y014939D01*
X024140Y014969D01*
D15*
X015724Y005250D02*
X015720Y005250D01*
D16*
X015972Y005750D02*
X016488Y005750D01*
X016488Y004746D01*
X015972Y004746D01*
X015972Y005750D01*
D17*
X016122Y005317D02*
X016412Y005317D01*
X016412Y005220D02*
X016412Y005414D01*
X016219Y005220D02*
X016122Y005317D01*
X016170Y005119D02*
X016122Y005071D01*
X016122Y004974D01*
X016170Y004926D01*
X016364Y004926D01*
X016412Y004974D01*
X016412Y005071D01*
X016364Y005119D01*
X016412Y004826D02*
X016412Y004729D01*
X016412Y004778D02*
X016122Y004778D01*
X016122Y004826D02*
X016122Y004729D01*
X017628Y005281D02*
X018015Y005281D01*
X017967Y005233D02*
X017967Y005330D01*
X017919Y005378D01*
X017870Y005378D01*
X017822Y005330D01*
X017822Y005233D01*
X017774Y005185D01*
X017725Y005185D01*
X017677Y005233D01*
X017677Y005330D01*
X017725Y005378D01*
X017725Y005479D02*
X017677Y005528D01*
X017677Y005624D01*
X017725Y005673D01*
X017774Y005673D01*
X017967Y005479D01*
X017967Y005673D01*
X017967Y005233D02*
X017919Y005185D01*
X017919Y005083D02*
X017677Y005083D01*
X017677Y004890D02*
X017919Y004890D01*
X017967Y004938D01*
X017967Y005035D01*
X017919Y005083D01*
X016467Y006840D02*
X016370Y006840D01*
X016321Y006888D01*
X016220Y006888D02*
X016172Y006840D01*
X016075Y006840D01*
X016027Y006888D01*
X016027Y007082D01*
X016075Y007130D01*
X016172Y007130D01*
X016220Y007082D01*
X016321Y007082D02*
X016321Y007033D01*
X016370Y006985D01*
X016515Y006985D01*
X016515Y006888D02*
X016515Y007082D01*
X016467Y007130D01*
X016370Y007130D01*
X016321Y007082D01*
X016515Y006888D02*
X016467Y006840D01*
X015892Y007765D02*
X015795Y007765D01*
X015746Y007813D01*
X015746Y007910D01*
X015892Y007910D01*
X015940Y007862D01*
X015940Y007813D01*
X015892Y007765D01*
X015746Y007910D02*
X015843Y008007D01*
X015940Y008055D01*
X015645Y008007D02*
X015645Y007813D01*
X015597Y007765D01*
X015452Y007765D01*
X015452Y008055D01*
X015597Y008055D01*
X015645Y008007D01*
X015597Y009140D02*
X015452Y009140D01*
X015452Y009430D01*
X015597Y009430D01*
X015645Y009382D01*
X015645Y009188D01*
X015597Y009140D01*
X015746Y009188D02*
X015795Y009140D01*
X015892Y009140D01*
X015940Y009188D01*
X015940Y009285D01*
X015892Y009333D01*
X015843Y009333D01*
X015746Y009285D01*
X015746Y009430D01*
X015940Y009430D01*
X018223Y009365D02*
X018223Y009172D01*
X018271Y009123D01*
X018368Y009123D01*
X018416Y009172D01*
X018517Y009123D02*
X018711Y009123D01*
X018614Y009123D02*
X018614Y009413D01*
X018517Y009317D01*
X018416Y009365D02*
X018368Y009413D01*
X018271Y009413D01*
X018223Y009365D01*
X018271Y008038D02*
X018223Y007990D01*
X018223Y007797D01*
X018271Y007748D01*
X018368Y007748D01*
X018416Y007797D01*
X018517Y007797D02*
X018566Y007748D01*
X018663Y007748D01*
X018711Y007797D01*
X018711Y007845D01*
X018663Y007893D01*
X018614Y007893D01*
X018663Y007893D02*
X018711Y007942D01*
X018711Y007990D01*
X018663Y008038D01*
X018566Y008038D01*
X018517Y007990D01*
X018416Y007990D02*
X018368Y008038D01*
X018271Y008038D01*
X020612Y005314D02*
X020612Y005120D01*
X020612Y005217D02*
X020322Y005217D01*
X020419Y005120D01*
X020322Y005019D02*
X020322Y004922D01*
X020322Y004971D02*
X020564Y004971D01*
X020612Y004922D01*
X020612Y004874D01*
X020564Y004826D01*
X020564Y004725D02*
X020612Y004676D01*
X020612Y004579D01*
X020564Y004531D01*
X020467Y004579D02*
X020467Y004676D01*
X020515Y004725D01*
X020564Y004725D01*
X020467Y004579D02*
X020419Y004531D01*
X020370Y004531D01*
X020322Y004579D01*
X020322Y004676D01*
X020370Y004725D01*
X023317Y005993D02*
X023366Y005945D01*
X023462Y005945D01*
X023511Y005993D01*
X023511Y006235D01*
X023612Y006138D02*
X023709Y006235D01*
X023709Y005945D01*
X023805Y005945D02*
X023612Y005945D01*
X023317Y005993D02*
X023317Y006235D01*
X023414Y011647D02*
X023414Y012034D01*
X023462Y011985D02*
X023511Y011937D01*
X023462Y011985D02*
X023366Y011985D01*
X023317Y011937D01*
X023317Y011888D01*
X023366Y011840D01*
X023462Y011840D01*
X023511Y011792D01*
X023511Y011743D01*
X023462Y011695D01*
X023366Y011695D01*
X023317Y011743D01*
X023216Y011743D02*
X023216Y011985D01*
X023023Y011985D02*
X023023Y011743D01*
X023071Y011695D01*
X023168Y011695D01*
X023216Y011743D01*
X023612Y011743D02*
X023660Y011695D01*
X023757Y011695D01*
X023805Y011743D01*
X023805Y011792D01*
X023757Y011840D01*
X023709Y011840D01*
X023757Y011840D02*
X023805Y011888D01*
X023805Y011937D01*
X023757Y011985D01*
X023660Y011985D01*
X023612Y011937D01*
X018670Y012385D02*
X018670Y012434D01*
X018622Y012482D01*
X018477Y012482D01*
X018477Y012385D01*
X018525Y012337D01*
X018622Y012337D01*
X018670Y012385D01*
X018574Y012579D02*
X018477Y012482D01*
X018574Y012579D02*
X018670Y012627D01*
X018376Y012579D02*
X018327Y012627D01*
X018230Y012627D01*
X018182Y012579D01*
X018182Y012385D01*
X018230Y012337D01*
X018327Y012337D01*
X018376Y012385D01*
X018327Y013587D02*
X018230Y013587D01*
X018182Y013635D01*
X018182Y013829D01*
X018230Y013877D01*
X018327Y013877D01*
X018376Y013829D01*
X018477Y013877D02*
X018670Y013877D01*
X018670Y013829D01*
X018477Y013635D01*
X018477Y013587D01*
X018376Y013635D02*
X018327Y013587D01*
X009015Y008832D02*
X009015Y008783D01*
X008967Y008735D01*
X009015Y008687D01*
X009015Y008638D01*
X008967Y008590D01*
X008870Y008590D01*
X008821Y008638D01*
X008720Y008590D02*
X008624Y008687D01*
X008672Y008687D02*
X008527Y008687D01*
X008527Y008590D02*
X008527Y008880D01*
X008672Y008880D01*
X008720Y008832D01*
X008720Y008735D01*
X008672Y008687D01*
X008821Y008832D02*
X008870Y008880D01*
X008967Y008880D01*
X009015Y008832D01*
X008967Y008735D02*
X008918Y008735D01*
X008821Y008130D02*
X008821Y007985D01*
X008918Y008033D01*
X008967Y008033D01*
X009015Y007985D01*
X009015Y007888D01*
X008967Y007840D01*
X008870Y007840D01*
X008821Y007888D01*
X008720Y007888D02*
X008672Y007840D01*
X008575Y007840D01*
X008527Y007888D01*
X008527Y008082D01*
X008575Y008130D01*
X008672Y008130D01*
X008720Y008082D01*
X008821Y008130D02*
X009015Y008130D01*
X009952Y006101D02*
X009952Y005859D01*
X010000Y005810D01*
X010097Y005810D01*
X010145Y005859D01*
X010145Y006101D01*
X010246Y006052D02*
X010295Y006101D01*
X010392Y006101D01*
X010440Y006052D01*
X010392Y005955D02*
X010295Y005955D01*
X010246Y006004D01*
X010246Y006052D01*
X010343Y006149D02*
X010343Y005762D01*
X010295Y005810D02*
X010392Y005810D01*
X010440Y005859D01*
X010440Y005907D01*
X010392Y005955D01*
X010541Y005955D02*
X010686Y006101D01*
X010686Y005810D01*
X010735Y005955D02*
X010541Y005955D01*
X010295Y005810D02*
X010246Y005859D01*
X012902Y007013D02*
X012950Y006965D01*
X013047Y006965D01*
X013095Y007013D01*
X013196Y007013D02*
X013196Y007062D01*
X013245Y007110D01*
X013342Y007110D01*
X013390Y007062D01*
X013390Y007013D01*
X013342Y006965D01*
X013245Y006965D01*
X013196Y007013D01*
X013245Y007110D02*
X013196Y007158D01*
X013196Y007207D01*
X013245Y007255D01*
X013342Y007255D01*
X013390Y007207D01*
X013390Y007158D01*
X013342Y007110D01*
X013095Y007207D02*
X013047Y007255D01*
X012950Y007255D01*
X012902Y007207D01*
X012902Y007013D01*
X007580Y003400D02*
X007386Y003400D01*
X007386Y003255D01*
X007483Y003303D01*
X007531Y003303D01*
X007580Y003255D01*
X007580Y003158D01*
X007531Y003110D01*
X007434Y003110D01*
X007386Y003158D01*
X007285Y003158D02*
X007285Y003207D01*
X007237Y003255D01*
X007140Y003255D01*
X007091Y003303D01*
X007091Y003352D01*
X007140Y003400D01*
X007237Y003400D01*
X007285Y003352D01*
X007188Y003449D02*
X007188Y003062D01*
X007140Y003110D02*
X007237Y003110D01*
X007285Y003158D01*
X007140Y003110D02*
X007091Y003158D01*
X006990Y003158D02*
X006990Y003400D01*
X006797Y003400D02*
X006797Y003158D01*
X006845Y003110D01*
X006942Y003110D01*
X006990Y003158D01*
X009997Y002688D02*
X010045Y002640D01*
X010094Y002640D01*
X010142Y002688D01*
X010142Y002930D01*
X010094Y002930D02*
X010191Y002930D01*
X010292Y002930D02*
X010437Y002930D01*
X010485Y002882D01*
X010485Y002785D01*
X010437Y002737D01*
X010292Y002737D01*
X010292Y002640D02*
X010292Y002930D01*
X010586Y002833D02*
X010683Y002930D01*
X010683Y002640D01*
X010586Y002640D02*
X010780Y002640D01*
D18*
X011674Y003339D02*
X011674Y000898D01*
X008918Y000898D01*
X008918Y003339D01*
X011674Y003339D01*
X011674Y000898D02*
X011674Y000583D01*
X008918Y000583D01*
X008918Y000898D01*
X017465Y004860D02*
X017467Y004875D01*
X017473Y004888D01*
X017482Y004900D01*
X017493Y004909D01*
X017507Y004915D01*
X017522Y004917D01*
X017537Y004915D01*
X017550Y004909D01*
X017562Y004900D01*
X017571Y004889D01*
X017577Y004875D01*
X017579Y004860D01*
X017577Y004845D01*
X017571Y004832D01*
X017562Y004820D01*
X017551Y004811D01*
X017537Y004805D01*
X017522Y004803D01*
X017507Y004805D01*
X017494Y004811D01*
X017482Y004820D01*
X017473Y004831D01*
X017467Y004845D01*
X017465Y004860D01*
X020439Y004888D02*
X020832Y004888D01*
X020439Y004888D02*
X020439Y009612D01*
X020832Y009612D01*
X022014Y009612D02*
X024769Y009612D01*
X024769Y004888D01*
X022014Y004888D01*
X019112Y007363D02*
X017852Y007363D01*
X017852Y008387D02*
X019112Y008387D01*
X019112Y008613D02*
X017852Y008613D01*
X017852Y009637D02*
X019112Y009637D01*
X020439Y010638D02*
X020832Y010638D01*
X020439Y010638D02*
X020439Y015362D01*
X020832Y015362D01*
X022014Y015362D02*
X024769Y015362D01*
X024769Y010638D01*
X022014Y010638D01*
X019112Y011863D02*
X017852Y011863D01*
X017852Y012887D02*
X019112Y012887D01*
X019112Y013113D02*
X017852Y013113D01*
X017852Y014137D02*
X019112Y014137D01*
D19*
X008062Y001875D02*
X008023Y001820D01*
X007981Y001767D01*
X007936Y001717D01*
X007888Y001669D01*
X007838Y001624D01*
X007785Y001582D01*
X007730Y001543D01*
X007673Y001507D01*
X007614Y001474D01*
X007553Y001445D01*
X007491Y001419D01*
X007427Y001397D01*
X007363Y001378D01*
X007297Y001363D01*
X007230Y001352D01*
X007163Y001344D01*
X007096Y001340D01*
X007028Y001340D01*
X006961Y001344D01*
X006894Y001352D01*
X006827Y001363D01*
X006761Y001378D01*
X006697Y001397D01*
X006633Y001419D01*
X006571Y001445D01*
X006510Y001474D01*
X006451Y001507D01*
X006394Y001543D01*
X006339Y001582D01*
X006286Y001624D01*
X006236Y001669D01*
X006188Y001717D01*
X006143Y001767D01*
X006101Y001820D01*
X006062Y001875D01*
X008062Y001875D01*
D20*
X007918Y009224D02*
X008087Y009394D01*
X007886Y009641D01*
X007937Y009741D01*
X007971Y009848D01*
X008289Y009880D01*
X008289Y010120D01*
X007971Y010152D01*
X007937Y010259D01*
X007886Y010359D01*
X008087Y010606D01*
X007918Y010776D01*
X007670Y010574D01*
X007571Y010625D01*
X007464Y010659D01*
X007432Y010977D01*
X007192Y010977D01*
X007160Y010659D01*
X007053Y010625D01*
X006953Y010574D01*
X006706Y010776D01*
X006536Y010606D01*
X006738Y010359D01*
X006687Y010259D01*
X006652Y010152D01*
X006335Y010120D01*
X006335Y009880D01*
X006652Y009848D01*
X006687Y009741D01*
X006738Y009641D01*
X006536Y009394D01*
X006706Y009224D01*
X006953Y009426D01*
X007053Y009375D01*
X007194Y009716D01*
X007141Y009744D01*
X007094Y009782D01*
X007056Y009829D01*
X007028Y009882D01*
X007010Y009940D01*
X007004Y010000D01*
X007011Y010063D01*
X007030Y010123D01*
X007061Y010178D01*
X007103Y010225D01*
X007153Y010263D01*
X007210Y010290D01*
X007272Y010305D01*
X007335Y010307D01*
X007397Y010296D01*
X007456Y010272D01*
X007508Y010237D01*
X007552Y010192D01*
X007586Y010139D01*
X007609Y010080D01*
X007619Y010017D01*
X007616Y009954D01*
X007600Y009893D01*
X007572Y009836D01*
X007533Y009787D01*
X007485Y009746D01*
X007430Y009716D01*
X007571Y009375D01*
X007670Y009426D01*
X007918Y009224D01*
X007942Y009248D02*
X007888Y009248D01*
X007818Y009306D02*
X007999Y009306D01*
X008057Y009364D02*
X007747Y009364D01*
X007677Y009421D02*
X008065Y009421D01*
X008018Y009479D02*
X007528Y009479D01*
X007504Y009536D02*
X007971Y009536D01*
X007925Y009594D02*
X007480Y009594D01*
X007456Y009651D02*
X007891Y009651D01*
X007920Y009709D02*
X007432Y009709D01*
X007509Y009766D02*
X007945Y009766D01*
X007964Y009824D02*
X007563Y009824D01*
X007595Y009882D02*
X008289Y009882D01*
X008289Y009939D02*
X007612Y009939D01*
X007618Y009997D02*
X008289Y009997D01*
X008289Y010054D02*
X007613Y010054D01*
X007597Y010112D02*
X008289Y010112D01*
X007966Y010169D02*
X007567Y010169D01*
X007518Y010227D02*
X007947Y010227D01*
X007924Y010284D02*
X007425Y010284D01*
X007198Y010284D02*
X006700Y010284D01*
X006676Y010227D02*
X007104Y010227D01*
X007056Y010169D02*
X006658Y010169D01*
X006729Y010342D02*
X007894Y010342D01*
X007919Y010400D02*
X006705Y010400D01*
X006658Y010457D02*
X007966Y010457D01*
X008013Y010515D02*
X006611Y010515D01*
X006564Y010572D02*
X008060Y010572D01*
X008064Y010630D02*
X007739Y010630D01*
X007810Y010687D02*
X008006Y010687D01*
X007949Y010745D02*
X007880Y010745D01*
X007556Y010630D02*
X007067Y010630D01*
X007162Y010687D02*
X007461Y010687D01*
X007455Y010745D02*
X007168Y010745D01*
X007174Y010802D02*
X007449Y010802D01*
X007444Y010860D02*
X007180Y010860D01*
X007186Y010918D02*
X007438Y010918D01*
X007432Y010975D02*
X007192Y010975D01*
X006885Y010630D02*
X006560Y010630D01*
X006618Y010687D02*
X006814Y010687D01*
X006744Y010745D02*
X006675Y010745D01*
X006335Y010112D02*
X007026Y010112D01*
X007010Y010054D02*
X006335Y010054D01*
X006335Y009997D02*
X007005Y009997D01*
X007010Y009939D02*
X006335Y009939D01*
X006335Y009882D02*
X007028Y009882D01*
X007060Y009824D02*
X006660Y009824D01*
X006679Y009766D02*
X007114Y009766D01*
X007191Y009709D02*
X006703Y009709D01*
X006733Y009651D02*
X007167Y009651D01*
X007144Y009594D02*
X006699Y009594D01*
X006652Y009536D02*
X007120Y009536D01*
X007096Y009479D02*
X006605Y009479D01*
X006558Y009421D02*
X006947Y009421D01*
X006963Y009421D02*
X007072Y009421D01*
X006876Y009364D02*
X006567Y009364D01*
X006624Y009306D02*
X006806Y009306D01*
X006735Y009248D02*
X006682Y009248D01*
X007552Y009421D02*
X007661Y009421D01*
M02*
