G75*
G70*
%OFA0B0*%
%FSLAX24Y24*%
%IPPOS*%
%LPD*%
%AMOC8*
5,1,8,0,0,1.08239X$1,22.5*
%
%ADD10R,0.0540X0.1040*%
%ADD11R,0.0434X0.0827*%
%ADD12C,0.0000*%
%ADD13C,0.1300*%
%ADD14R,0.0430X0.0312*%
%ADD15R,0.0280X0.0910*%
%ADD16R,0.0670X0.0500*%
%ADD17R,0.0720X0.0060*%
%ADD18C,0.0900*%
%ADD19C,0.0512*%
%ADD20R,0.0276X0.0906*%
%ADD21R,0.0355X0.0512*%
%ADD22R,0.0840X0.0840*%
%ADD23C,0.0840*%
%ADD24R,0.0512X0.0827*%
%ADD25R,0.0591X0.0434*%
%ADD26R,0.0800X0.0800*%
%ADD27C,0.0800*%
D10*
X006607Y016175D03*
X007607Y016175D03*
X008607Y016175D03*
X009607Y016175D03*
X010607Y016175D03*
X011607Y016175D03*
X012607Y016175D03*
X013607Y016175D03*
X014607Y016175D03*
X015607Y016175D03*
X016607Y016175D03*
X017607Y016175D03*
X018607Y016175D03*
X019607Y016175D03*
X020607Y016175D03*
X021607Y016175D03*
X021607Y018325D03*
X020607Y018325D03*
X019607Y018325D03*
X018607Y018325D03*
X017607Y018325D03*
X016607Y018325D03*
X015607Y018325D03*
X014607Y018325D03*
X013607Y018325D03*
X012607Y018325D03*
X011607Y018325D03*
X010607Y018325D03*
X009607Y018325D03*
X008607Y018325D03*
X007607Y018325D03*
X006607Y018325D03*
D11*
X012607Y002900D03*
X014607Y002900D03*
X013607Y001600D03*
X015607Y001600D03*
X017607Y001600D03*
X016607Y002900D03*
X018607Y002900D03*
X020607Y002900D03*
X019607Y001600D03*
X021607Y001600D03*
D12*
X005418Y002075D02*
X005418Y018217D01*
X005420Y018294D01*
X005426Y018371D01*
X005435Y018448D01*
X005448Y018524D01*
X005465Y018600D01*
X005486Y018674D01*
X005510Y018748D01*
X005538Y018820D01*
X005569Y018890D01*
X005604Y018959D01*
X005642Y019027D01*
X005683Y019092D01*
X005728Y019155D01*
X005776Y019216D01*
X005826Y019275D01*
X005879Y019331D01*
X005935Y019384D01*
X005994Y019434D01*
X006055Y019482D01*
X006118Y019527D01*
X006183Y019568D01*
X006251Y019606D01*
X006320Y019641D01*
X006390Y019672D01*
X006462Y019700D01*
X006536Y019724D01*
X006610Y019745D01*
X006686Y019762D01*
X006762Y019775D01*
X006839Y019784D01*
X006916Y019790D01*
X006993Y019792D01*
X006993Y019791D02*
X023528Y019791D01*
X022898Y018217D02*
X022900Y018267D01*
X022906Y018317D01*
X022916Y018366D01*
X022930Y018414D01*
X022947Y018461D01*
X022968Y018506D01*
X022993Y018550D01*
X023021Y018591D01*
X023053Y018630D01*
X023087Y018667D01*
X023124Y018701D01*
X023164Y018731D01*
X023206Y018758D01*
X023250Y018782D01*
X023296Y018803D01*
X023343Y018819D01*
X023391Y018832D01*
X023441Y018841D01*
X023490Y018846D01*
X023541Y018847D01*
X023591Y018844D01*
X023640Y018837D01*
X023689Y018826D01*
X023737Y018811D01*
X023783Y018793D01*
X023828Y018771D01*
X023871Y018745D01*
X023912Y018716D01*
X023951Y018684D01*
X023987Y018649D01*
X024019Y018611D01*
X024049Y018571D01*
X024076Y018528D01*
X024099Y018484D01*
X024118Y018438D01*
X024134Y018390D01*
X024146Y018341D01*
X024154Y018292D01*
X024158Y018242D01*
X024158Y018192D01*
X024154Y018142D01*
X024146Y018093D01*
X024134Y018044D01*
X024118Y017996D01*
X024099Y017950D01*
X024076Y017906D01*
X024049Y017863D01*
X024019Y017823D01*
X023987Y017785D01*
X023951Y017750D01*
X023912Y017718D01*
X023871Y017689D01*
X023828Y017663D01*
X023783Y017641D01*
X023737Y017623D01*
X023689Y017608D01*
X023640Y017597D01*
X023591Y017590D01*
X023541Y017587D01*
X023490Y017588D01*
X023441Y017593D01*
X023391Y017602D01*
X023343Y017615D01*
X023296Y017631D01*
X023250Y017652D01*
X023206Y017676D01*
X023164Y017703D01*
X023124Y017733D01*
X023087Y017767D01*
X023053Y017804D01*
X023021Y017843D01*
X022993Y017884D01*
X022968Y017928D01*
X022947Y017973D01*
X022930Y018020D01*
X022916Y018068D01*
X022906Y018117D01*
X022900Y018167D01*
X022898Y018217D01*
X025103Y018217D02*
X025103Y002075D01*
X022898Y002075D02*
X022900Y002125D01*
X022906Y002175D01*
X022916Y002224D01*
X022930Y002272D01*
X022947Y002319D01*
X022968Y002364D01*
X022993Y002408D01*
X023021Y002449D01*
X023053Y002488D01*
X023087Y002525D01*
X023124Y002559D01*
X023164Y002589D01*
X023206Y002616D01*
X023250Y002640D01*
X023296Y002661D01*
X023343Y002677D01*
X023391Y002690D01*
X023441Y002699D01*
X023490Y002704D01*
X023541Y002705D01*
X023591Y002702D01*
X023640Y002695D01*
X023689Y002684D01*
X023737Y002669D01*
X023783Y002651D01*
X023828Y002629D01*
X023871Y002603D01*
X023912Y002574D01*
X023951Y002542D01*
X023987Y002507D01*
X024019Y002469D01*
X024049Y002429D01*
X024076Y002386D01*
X024099Y002342D01*
X024118Y002296D01*
X024134Y002248D01*
X024146Y002199D01*
X024154Y002150D01*
X024158Y002100D01*
X024158Y002050D01*
X024154Y002000D01*
X024146Y001951D01*
X024134Y001902D01*
X024118Y001854D01*
X024099Y001808D01*
X024076Y001764D01*
X024049Y001721D01*
X024019Y001681D01*
X023987Y001643D01*
X023951Y001608D01*
X023912Y001576D01*
X023871Y001547D01*
X023828Y001521D01*
X023783Y001499D01*
X023737Y001481D01*
X023689Y001466D01*
X023640Y001455D01*
X023591Y001448D01*
X023541Y001445D01*
X023490Y001446D01*
X023441Y001451D01*
X023391Y001460D01*
X023343Y001473D01*
X023296Y001489D01*
X023250Y001510D01*
X023206Y001534D01*
X023164Y001561D01*
X023124Y001591D01*
X023087Y001625D01*
X023053Y001662D01*
X023021Y001701D01*
X022993Y001742D01*
X022968Y001786D01*
X022947Y001831D01*
X022930Y001878D01*
X022916Y001926D01*
X022906Y001975D01*
X022900Y002025D01*
X022898Y002075D01*
X023528Y000500D02*
X023605Y000502D01*
X023682Y000508D01*
X023759Y000517D01*
X023835Y000530D01*
X023911Y000547D01*
X023985Y000568D01*
X024059Y000592D01*
X024131Y000620D01*
X024201Y000651D01*
X024270Y000686D01*
X024338Y000724D01*
X024403Y000765D01*
X024466Y000810D01*
X024527Y000858D01*
X024586Y000908D01*
X024642Y000961D01*
X024695Y001017D01*
X024745Y001076D01*
X024793Y001137D01*
X024838Y001200D01*
X024879Y001265D01*
X024917Y001333D01*
X024952Y001402D01*
X024983Y001472D01*
X025011Y001544D01*
X025035Y001618D01*
X025056Y001692D01*
X025073Y001768D01*
X025086Y001844D01*
X025095Y001921D01*
X025101Y001998D01*
X025103Y002075D01*
X023528Y000500D02*
X006993Y000500D01*
X006916Y000502D01*
X006839Y000508D01*
X006762Y000517D01*
X006686Y000530D01*
X006610Y000547D01*
X006536Y000568D01*
X006462Y000592D01*
X006390Y000620D01*
X006320Y000651D01*
X006251Y000686D01*
X006183Y000724D01*
X006118Y000765D01*
X006055Y000810D01*
X005994Y000858D01*
X005935Y000908D01*
X005879Y000961D01*
X005826Y001017D01*
X005776Y001076D01*
X005728Y001137D01*
X005683Y001200D01*
X005642Y001265D01*
X005604Y001333D01*
X005569Y001402D01*
X005538Y001472D01*
X005510Y001544D01*
X005486Y001618D01*
X005465Y001692D01*
X005448Y001768D01*
X005435Y001844D01*
X005426Y001921D01*
X005420Y001998D01*
X005418Y002075D01*
X021187Y007250D02*
X021189Y007280D01*
X021195Y007310D01*
X021204Y007339D01*
X021217Y007366D01*
X021234Y007391D01*
X021253Y007414D01*
X021276Y007435D01*
X021301Y007452D01*
X021327Y007466D01*
X021356Y007476D01*
X021385Y007483D01*
X021415Y007486D01*
X021446Y007485D01*
X021476Y007480D01*
X021505Y007471D01*
X021532Y007459D01*
X021558Y007444D01*
X021582Y007425D01*
X021603Y007403D01*
X021621Y007379D01*
X021636Y007352D01*
X021647Y007324D01*
X021655Y007295D01*
X021659Y007265D01*
X021659Y007235D01*
X021655Y007205D01*
X021647Y007176D01*
X021636Y007148D01*
X021621Y007121D01*
X021603Y007097D01*
X021582Y007075D01*
X021558Y007056D01*
X021532Y007041D01*
X021505Y007029D01*
X021476Y007020D01*
X021446Y007015D01*
X021415Y007014D01*
X021385Y007017D01*
X021356Y007024D01*
X021327Y007034D01*
X021301Y007048D01*
X021276Y007065D01*
X021253Y007086D01*
X021234Y007109D01*
X021217Y007134D01*
X021204Y007161D01*
X021195Y007190D01*
X021189Y007220D01*
X021187Y007250D01*
X023156Y005281D02*
X023158Y005311D01*
X023164Y005341D01*
X023173Y005370D01*
X023186Y005397D01*
X023203Y005422D01*
X023222Y005445D01*
X023245Y005466D01*
X023270Y005483D01*
X023296Y005497D01*
X023325Y005507D01*
X023354Y005514D01*
X023384Y005517D01*
X023415Y005516D01*
X023445Y005511D01*
X023474Y005502D01*
X023501Y005490D01*
X023527Y005475D01*
X023551Y005456D01*
X023572Y005434D01*
X023590Y005410D01*
X023605Y005383D01*
X023616Y005355D01*
X023624Y005326D01*
X023628Y005296D01*
X023628Y005266D01*
X023624Y005236D01*
X023616Y005207D01*
X023605Y005179D01*
X023590Y005152D01*
X023572Y005128D01*
X023551Y005106D01*
X023527Y005087D01*
X023501Y005072D01*
X023474Y005060D01*
X023445Y005051D01*
X023415Y005046D01*
X023384Y005045D01*
X023354Y005048D01*
X023325Y005055D01*
X023296Y005065D01*
X023270Y005079D01*
X023245Y005096D01*
X023222Y005117D01*
X023203Y005140D01*
X023186Y005165D01*
X023173Y005192D01*
X023164Y005221D01*
X023158Y005251D01*
X023156Y005281D01*
X024140Y005281D02*
X024142Y005311D01*
X024148Y005341D01*
X024157Y005370D01*
X024170Y005397D01*
X024187Y005422D01*
X024206Y005445D01*
X024229Y005466D01*
X024254Y005483D01*
X024280Y005497D01*
X024309Y005507D01*
X024338Y005514D01*
X024368Y005517D01*
X024399Y005516D01*
X024429Y005511D01*
X024458Y005502D01*
X024485Y005490D01*
X024511Y005475D01*
X024535Y005456D01*
X024556Y005434D01*
X024574Y005410D01*
X024589Y005383D01*
X024600Y005355D01*
X024608Y005326D01*
X024612Y005296D01*
X024612Y005266D01*
X024608Y005236D01*
X024600Y005207D01*
X024589Y005179D01*
X024574Y005152D01*
X024556Y005128D01*
X024535Y005106D01*
X024511Y005087D01*
X024485Y005072D01*
X024458Y005060D01*
X024429Y005051D01*
X024399Y005046D01*
X024368Y005045D01*
X024338Y005048D01*
X024309Y005055D01*
X024280Y005065D01*
X024254Y005079D01*
X024229Y005096D01*
X024206Y005117D01*
X024187Y005140D01*
X024170Y005165D01*
X024157Y005192D01*
X024148Y005221D01*
X024142Y005251D01*
X024140Y005281D01*
X024140Y009219D02*
X024142Y009249D01*
X024148Y009279D01*
X024157Y009308D01*
X024170Y009335D01*
X024187Y009360D01*
X024206Y009383D01*
X024229Y009404D01*
X024254Y009421D01*
X024280Y009435D01*
X024309Y009445D01*
X024338Y009452D01*
X024368Y009455D01*
X024399Y009454D01*
X024429Y009449D01*
X024458Y009440D01*
X024485Y009428D01*
X024511Y009413D01*
X024535Y009394D01*
X024556Y009372D01*
X024574Y009348D01*
X024589Y009321D01*
X024600Y009293D01*
X024608Y009264D01*
X024612Y009234D01*
X024612Y009204D01*
X024608Y009174D01*
X024600Y009145D01*
X024589Y009117D01*
X024574Y009090D01*
X024556Y009066D01*
X024535Y009044D01*
X024511Y009025D01*
X024485Y009010D01*
X024458Y008998D01*
X024429Y008989D01*
X024399Y008984D01*
X024368Y008983D01*
X024338Y008986D01*
X024309Y008993D01*
X024280Y009003D01*
X024254Y009017D01*
X024229Y009034D01*
X024206Y009055D01*
X024187Y009078D01*
X024170Y009103D01*
X024157Y009130D01*
X024148Y009159D01*
X024142Y009189D01*
X024140Y009219D01*
X023156Y009219D02*
X023158Y009249D01*
X023164Y009279D01*
X023173Y009308D01*
X023186Y009335D01*
X023203Y009360D01*
X023222Y009383D01*
X023245Y009404D01*
X023270Y009421D01*
X023296Y009435D01*
X023325Y009445D01*
X023354Y009452D01*
X023384Y009455D01*
X023415Y009454D01*
X023445Y009449D01*
X023474Y009440D01*
X023501Y009428D01*
X023527Y009413D01*
X023551Y009394D01*
X023572Y009372D01*
X023590Y009348D01*
X023605Y009321D01*
X023616Y009293D01*
X023624Y009264D01*
X023628Y009234D01*
X023628Y009204D01*
X023624Y009174D01*
X023616Y009145D01*
X023605Y009117D01*
X023590Y009090D01*
X023572Y009066D01*
X023551Y009044D01*
X023527Y009025D01*
X023501Y009010D01*
X023474Y008998D01*
X023445Y008989D01*
X023415Y008984D01*
X023384Y008983D01*
X023354Y008986D01*
X023325Y008993D01*
X023296Y009003D01*
X023270Y009017D01*
X023245Y009034D01*
X023222Y009055D01*
X023203Y009078D01*
X023186Y009103D01*
X023173Y009130D01*
X023164Y009159D01*
X023158Y009189D01*
X023156Y009219D01*
X023156Y011031D02*
X023158Y011061D01*
X023164Y011091D01*
X023173Y011120D01*
X023186Y011147D01*
X023203Y011172D01*
X023222Y011195D01*
X023245Y011216D01*
X023270Y011233D01*
X023296Y011247D01*
X023325Y011257D01*
X023354Y011264D01*
X023384Y011267D01*
X023415Y011266D01*
X023445Y011261D01*
X023474Y011252D01*
X023501Y011240D01*
X023527Y011225D01*
X023551Y011206D01*
X023572Y011184D01*
X023590Y011160D01*
X023605Y011133D01*
X023616Y011105D01*
X023624Y011076D01*
X023628Y011046D01*
X023628Y011016D01*
X023624Y010986D01*
X023616Y010957D01*
X023605Y010929D01*
X023590Y010902D01*
X023572Y010878D01*
X023551Y010856D01*
X023527Y010837D01*
X023501Y010822D01*
X023474Y010810D01*
X023445Y010801D01*
X023415Y010796D01*
X023384Y010795D01*
X023354Y010798D01*
X023325Y010805D01*
X023296Y010815D01*
X023270Y010829D01*
X023245Y010846D01*
X023222Y010867D01*
X023203Y010890D01*
X023186Y010915D01*
X023173Y010942D01*
X023164Y010971D01*
X023158Y011001D01*
X023156Y011031D01*
X024140Y011031D02*
X024142Y011061D01*
X024148Y011091D01*
X024157Y011120D01*
X024170Y011147D01*
X024187Y011172D01*
X024206Y011195D01*
X024229Y011216D01*
X024254Y011233D01*
X024280Y011247D01*
X024309Y011257D01*
X024338Y011264D01*
X024368Y011267D01*
X024399Y011266D01*
X024429Y011261D01*
X024458Y011252D01*
X024485Y011240D01*
X024511Y011225D01*
X024535Y011206D01*
X024556Y011184D01*
X024574Y011160D01*
X024589Y011133D01*
X024600Y011105D01*
X024608Y011076D01*
X024612Y011046D01*
X024612Y011016D01*
X024608Y010986D01*
X024600Y010957D01*
X024589Y010929D01*
X024574Y010902D01*
X024556Y010878D01*
X024535Y010856D01*
X024511Y010837D01*
X024485Y010822D01*
X024458Y010810D01*
X024429Y010801D01*
X024399Y010796D01*
X024368Y010795D01*
X024338Y010798D01*
X024309Y010805D01*
X024280Y010815D01*
X024254Y010829D01*
X024229Y010846D01*
X024206Y010867D01*
X024187Y010890D01*
X024170Y010915D01*
X024157Y010942D01*
X024148Y010971D01*
X024142Y011001D01*
X024140Y011031D01*
X021187Y013000D02*
X021189Y013030D01*
X021195Y013060D01*
X021204Y013089D01*
X021217Y013116D01*
X021234Y013141D01*
X021253Y013164D01*
X021276Y013185D01*
X021301Y013202D01*
X021327Y013216D01*
X021356Y013226D01*
X021385Y013233D01*
X021415Y013236D01*
X021446Y013235D01*
X021476Y013230D01*
X021505Y013221D01*
X021532Y013209D01*
X021558Y013194D01*
X021582Y013175D01*
X021603Y013153D01*
X021621Y013129D01*
X021636Y013102D01*
X021647Y013074D01*
X021655Y013045D01*
X021659Y013015D01*
X021659Y012985D01*
X021655Y012955D01*
X021647Y012926D01*
X021636Y012898D01*
X021621Y012871D01*
X021603Y012847D01*
X021582Y012825D01*
X021558Y012806D01*
X021532Y012791D01*
X021505Y012779D01*
X021476Y012770D01*
X021446Y012765D01*
X021415Y012764D01*
X021385Y012767D01*
X021356Y012774D01*
X021327Y012784D01*
X021301Y012798D01*
X021276Y012815D01*
X021253Y012836D01*
X021234Y012859D01*
X021217Y012884D01*
X021204Y012911D01*
X021195Y012940D01*
X021189Y012970D01*
X021187Y013000D01*
X023156Y014969D02*
X023158Y014999D01*
X023164Y015029D01*
X023173Y015058D01*
X023186Y015085D01*
X023203Y015110D01*
X023222Y015133D01*
X023245Y015154D01*
X023270Y015171D01*
X023296Y015185D01*
X023325Y015195D01*
X023354Y015202D01*
X023384Y015205D01*
X023415Y015204D01*
X023445Y015199D01*
X023474Y015190D01*
X023501Y015178D01*
X023527Y015163D01*
X023551Y015144D01*
X023572Y015122D01*
X023590Y015098D01*
X023605Y015071D01*
X023616Y015043D01*
X023624Y015014D01*
X023628Y014984D01*
X023628Y014954D01*
X023624Y014924D01*
X023616Y014895D01*
X023605Y014867D01*
X023590Y014840D01*
X023572Y014816D01*
X023551Y014794D01*
X023527Y014775D01*
X023501Y014760D01*
X023474Y014748D01*
X023445Y014739D01*
X023415Y014734D01*
X023384Y014733D01*
X023354Y014736D01*
X023325Y014743D01*
X023296Y014753D01*
X023270Y014767D01*
X023245Y014784D01*
X023222Y014805D01*
X023203Y014828D01*
X023186Y014853D01*
X023173Y014880D01*
X023164Y014909D01*
X023158Y014939D01*
X023156Y014969D01*
X024140Y014969D02*
X024142Y014999D01*
X024148Y015029D01*
X024157Y015058D01*
X024170Y015085D01*
X024187Y015110D01*
X024206Y015133D01*
X024229Y015154D01*
X024254Y015171D01*
X024280Y015185D01*
X024309Y015195D01*
X024338Y015202D01*
X024368Y015205D01*
X024399Y015204D01*
X024429Y015199D01*
X024458Y015190D01*
X024485Y015178D01*
X024511Y015163D01*
X024535Y015144D01*
X024556Y015122D01*
X024574Y015098D01*
X024589Y015071D01*
X024600Y015043D01*
X024608Y015014D01*
X024612Y014984D01*
X024612Y014954D01*
X024608Y014924D01*
X024600Y014895D01*
X024589Y014867D01*
X024574Y014840D01*
X024556Y014816D01*
X024535Y014794D01*
X024511Y014775D01*
X024485Y014760D01*
X024458Y014748D01*
X024429Y014739D01*
X024399Y014734D01*
X024368Y014733D01*
X024338Y014736D01*
X024309Y014743D01*
X024280Y014753D01*
X024254Y014767D01*
X024229Y014784D01*
X024206Y014805D01*
X024187Y014828D01*
X024170Y014853D01*
X024157Y014880D01*
X024148Y014909D01*
X024142Y014939D01*
X024140Y014969D01*
D13*
X023528Y018217D03*
X023528Y002075D03*
D14*
X016744Y004876D03*
X016744Y005624D03*
X015724Y005624D03*
X015724Y005250D03*
X015724Y004876D03*
D15*
X017482Y004220D03*
X017982Y004220D03*
X018482Y004220D03*
X018982Y004220D03*
X018982Y006280D03*
X018482Y006280D03*
X017982Y006280D03*
X017482Y006280D03*
D16*
X019732Y005550D03*
X019732Y004950D03*
D17*
X019732Y005250D03*
D18*
X021423Y005281D03*
X021423Y006266D03*
X023392Y007250D03*
X021423Y008234D03*
X021423Y009219D03*
X021423Y011031D03*
X021423Y012016D03*
X023392Y013000D03*
X021423Y013984D03*
X021423Y014969D03*
D19*
X023392Y014969D03*
X024376Y014969D03*
X021423Y013000D03*
X023392Y011031D03*
X024376Y011031D03*
X024376Y009219D03*
X023392Y009219D03*
X021423Y007250D03*
X023392Y005281D03*
X024376Y005281D03*
D20*
X011107Y005101D03*
X010607Y005101D03*
X010107Y005101D03*
X009607Y005101D03*
X009607Y007149D03*
X010107Y007149D03*
X010607Y007149D03*
X011107Y007149D03*
D21*
X011832Y007125D03*
X012541Y007125D03*
X010166Y008000D03*
X009457Y008000D03*
X009457Y008750D03*
X010166Y008750D03*
X015957Y006500D03*
X016666Y006500D03*
D22*
X009607Y002000D03*
D23*
X010985Y002000D03*
D24*
X017852Y007875D03*
X019112Y007875D03*
X019112Y009125D03*
X017852Y009125D03*
X017852Y012375D03*
X019112Y012375D03*
X019112Y013625D03*
X017852Y013625D03*
D25*
X016379Y009499D03*
X017245Y009125D03*
X016379Y008751D03*
X016379Y008249D03*
X016379Y007501D03*
X017245Y007875D03*
D26*
X006062Y002375D03*
D27*
X007062Y002375D03*
X008062Y002375D03*
M02*
