%
M48
M72
T01C0.0118
T02C0.0400
T03C0.0472
T04C0.0512
T05C0.1260
%
T01
X10187Y6500
X12562Y6500
X15732Y4500
X17982Y3625
X18482Y3625
X18607Y2250
X17607Y2250
X16607Y2250
X15607Y2250
X14607Y2250
X13607Y2250
X12607Y2250
X18357Y5625
X16937Y6500
X16937Y7375
X17312Y8250
X17312Y9500
X17812Y14500
X18562Y14500
X20062Y15500
X20562Y16875
X19562Y16875
X18437Y17625
X18062Y18000
X17562Y17375
X17062Y18000
X16562Y17375
X16062Y18000
X15562Y17375
X15062Y18000
X13562Y17250
X13062Y16500
X12562Y16875
X12107Y16500
X11607Y16875
X11107Y16500
X10607Y16875
X10107Y16500
X9607Y16875
X9107Y16500
X8607Y16875
X8107Y16500
X7607Y16875
X6607Y16875
X20062Y18000
X21062Y18000
X21562Y16875
X20107Y4250
X20107Y3000
X21107Y1500
T02
X6062Y2375
X7062Y2375
X8062Y2375
T03
X9607Y2000
X10985Y2000
X21423Y7250
X23392Y5281
X24376Y5281
X24376Y9219
X23392Y9219
X23392Y11031
X24376Y11031
X21423Y13000
X23392Y14969
X24376Y14969
T04
X23392Y13000
X21423Y12016
X21423Y11031
X21423Y9219
X21423Y8234
X23392Y7250
X21423Y6266
X21423Y5281
X21423Y13984
X21423Y14969
T05
X23528Y18217
X23528Y2075
M30
