G75*
G70*
%OFA0B0*%
%FSLAX24Y24*%
%IPPOS*%
%LPD*%
%AMOC8*
5,1,8,0,0,1.08239X$1,22.5*
%
%ADD10C,0.0000*%
%ADD11C,0.0040*%
%ADD12C,0.0080*%
%ADD13C,0.0030*%
%ADD14C,0.0050*%
%ADD15C,0.0060*%
%ADD16C,0.0240*%
%ADD17C,0.0059*%
D10*
X001775Y000200D02*
X014373Y000200D01*
X013743Y001775D02*
X013745Y001825D01*
X013751Y001875D01*
X013761Y001924D01*
X013775Y001972D01*
X013792Y002019D01*
X013813Y002064D01*
X013838Y002108D01*
X013866Y002149D01*
X013898Y002188D01*
X013932Y002225D01*
X013969Y002259D01*
X014009Y002289D01*
X014051Y002316D01*
X014095Y002340D01*
X014141Y002361D01*
X014188Y002377D01*
X014236Y002390D01*
X014286Y002399D01*
X014335Y002404D01*
X014386Y002405D01*
X014436Y002402D01*
X014485Y002395D01*
X014534Y002384D01*
X014582Y002369D01*
X014628Y002351D01*
X014673Y002329D01*
X014716Y002303D01*
X014757Y002274D01*
X014796Y002242D01*
X014832Y002207D01*
X014864Y002169D01*
X014894Y002129D01*
X014921Y002086D01*
X014944Y002042D01*
X014963Y001996D01*
X014979Y001948D01*
X014991Y001899D01*
X014999Y001850D01*
X015003Y001800D01*
X015003Y001750D01*
X014999Y001700D01*
X014991Y001651D01*
X014979Y001602D01*
X014963Y001554D01*
X014944Y001508D01*
X014921Y001464D01*
X014894Y001421D01*
X014864Y001381D01*
X014832Y001343D01*
X014796Y001308D01*
X014757Y001276D01*
X014716Y001247D01*
X014673Y001221D01*
X014628Y001199D01*
X014582Y001181D01*
X014534Y001166D01*
X014485Y001155D01*
X014436Y001148D01*
X014386Y001145D01*
X014335Y001146D01*
X014286Y001151D01*
X014236Y001160D01*
X014188Y001173D01*
X014141Y001189D01*
X014095Y001210D01*
X014051Y001234D01*
X014009Y001261D01*
X013969Y001291D01*
X013932Y001325D01*
X013898Y001362D01*
X013866Y001401D01*
X013838Y001442D01*
X013813Y001486D01*
X013792Y001531D01*
X013775Y001578D01*
X013761Y001626D01*
X013751Y001675D01*
X013745Y001725D01*
X013743Y001775D01*
X014373Y000200D02*
X014450Y000202D01*
X014527Y000208D01*
X014604Y000217D01*
X014680Y000230D01*
X014756Y000247D01*
X014830Y000268D01*
X014904Y000292D01*
X014976Y000320D01*
X015046Y000351D01*
X015115Y000386D01*
X015183Y000424D01*
X015248Y000465D01*
X015311Y000510D01*
X015372Y000558D01*
X015431Y000608D01*
X015487Y000661D01*
X015540Y000717D01*
X015590Y000776D01*
X015638Y000837D01*
X015683Y000900D01*
X015724Y000965D01*
X015762Y001033D01*
X015797Y001102D01*
X015828Y001172D01*
X015856Y001244D01*
X015880Y001318D01*
X015901Y001392D01*
X015918Y001468D01*
X015931Y001544D01*
X015940Y001621D01*
X015946Y001698D01*
X015948Y001775D01*
X015948Y008468D01*
X013743Y008468D02*
X013745Y008518D01*
X013751Y008568D01*
X013761Y008617D01*
X013775Y008665D01*
X013792Y008712D01*
X013813Y008757D01*
X013838Y008801D01*
X013866Y008842D01*
X013898Y008881D01*
X013932Y008918D01*
X013969Y008952D01*
X014009Y008982D01*
X014051Y009009D01*
X014095Y009033D01*
X014141Y009054D01*
X014188Y009070D01*
X014236Y009083D01*
X014286Y009092D01*
X014335Y009097D01*
X014386Y009098D01*
X014436Y009095D01*
X014485Y009088D01*
X014534Y009077D01*
X014582Y009062D01*
X014628Y009044D01*
X014673Y009022D01*
X014716Y008996D01*
X014757Y008967D01*
X014796Y008935D01*
X014832Y008900D01*
X014864Y008862D01*
X014894Y008822D01*
X014921Y008779D01*
X014944Y008735D01*
X014963Y008689D01*
X014979Y008641D01*
X014991Y008592D01*
X014999Y008543D01*
X015003Y008493D01*
X015003Y008443D01*
X014999Y008393D01*
X014991Y008344D01*
X014979Y008295D01*
X014963Y008247D01*
X014944Y008201D01*
X014921Y008157D01*
X014894Y008114D01*
X014864Y008074D01*
X014832Y008036D01*
X014796Y008001D01*
X014757Y007969D01*
X014716Y007940D01*
X014673Y007914D01*
X014628Y007892D01*
X014582Y007874D01*
X014534Y007859D01*
X014485Y007848D01*
X014436Y007841D01*
X014386Y007838D01*
X014335Y007839D01*
X014286Y007844D01*
X014236Y007853D01*
X014188Y007866D01*
X014141Y007882D01*
X014095Y007903D01*
X014051Y007927D01*
X014009Y007954D01*
X013969Y007984D01*
X013932Y008018D01*
X013898Y008055D01*
X013866Y008094D01*
X013838Y008135D01*
X013813Y008179D01*
X013792Y008224D01*
X013775Y008271D01*
X013761Y008319D01*
X013751Y008368D01*
X013745Y008418D01*
X013743Y008468D01*
X014373Y010043D02*
X014450Y010041D01*
X014527Y010035D01*
X014604Y010026D01*
X014680Y010013D01*
X014756Y009996D01*
X014830Y009975D01*
X014904Y009951D01*
X014976Y009923D01*
X015046Y009892D01*
X015115Y009857D01*
X015183Y009819D01*
X015248Y009778D01*
X015311Y009733D01*
X015372Y009685D01*
X015431Y009635D01*
X015487Y009582D01*
X015540Y009526D01*
X015590Y009467D01*
X015638Y009406D01*
X015683Y009343D01*
X015724Y009278D01*
X015762Y009210D01*
X015797Y009141D01*
X015828Y009071D01*
X015856Y008999D01*
X015880Y008925D01*
X015901Y008851D01*
X015918Y008775D01*
X015931Y008699D01*
X015940Y008622D01*
X015946Y008545D01*
X015948Y008468D01*
X014373Y010043D02*
X001775Y010043D01*
X001145Y008468D02*
X001147Y008518D01*
X001153Y008568D01*
X001163Y008617D01*
X001177Y008665D01*
X001194Y008712D01*
X001215Y008757D01*
X001240Y008801D01*
X001268Y008842D01*
X001300Y008881D01*
X001334Y008918D01*
X001371Y008952D01*
X001411Y008982D01*
X001453Y009009D01*
X001497Y009033D01*
X001543Y009054D01*
X001590Y009070D01*
X001638Y009083D01*
X001688Y009092D01*
X001737Y009097D01*
X001788Y009098D01*
X001838Y009095D01*
X001887Y009088D01*
X001936Y009077D01*
X001984Y009062D01*
X002030Y009044D01*
X002075Y009022D01*
X002118Y008996D01*
X002159Y008967D01*
X002198Y008935D01*
X002234Y008900D01*
X002266Y008862D01*
X002296Y008822D01*
X002323Y008779D01*
X002346Y008735D01*
X002365Y008689D01*
X002381Y008641D01*
X002393Y008592D01*
X002401Y008543D01*
X002405Y008493D01*
X002405Y008443D01*
X002401Y008393D01*
X002393Y008344D01*
X002381Y008295D01*
X002365Y008247D01*
X002346Y008201D01*
X002323Y008157D01*
X002296Y008114D01*
X002266Y008074D01*
X002234Y008036D01*
X002198Y008001D01*
X002159Y007969D01*
X002118Y007940D01*
X002075Y007914D01*
X002030Y007892D01*
X001984Y007874D01*
X001936Y007859D01*
X001887Y007848D01*
X001838Y007841D01*
X001788Y007838D01*
X001737Y007839D01*
X001688Y007844D01*
X001638Y007853D01*
X001590Y007866D01*
X001543Y007882D01*
X001497Y007903D01*
X001453Y007927D01*
X001411Y007954D01*
X001371Y007984D01*
X001334Y008018D01*
X001300Y008055D01*
X001268Y008094D01*
X001240Y008135D01*
X001215Y008179D01*
X001194Y008224D01*
X001177Y008271D01*
X001163Y008319D01*
X001153Y008368D01*
X001147Y008418D01*
X001145Y008468D01*
X000200Y008468D02*
X000202Y008545D01*
X000208Y008622D01*
X000217Y008699D01*
X000230Y008775D01*
X000247Y008851D01*
X000268Y008925D01*
X000292Y008999D01*
X000320Y009071D01*
X000351Y009141D01*
X000386Y009210D01*
X000424Y009278D01*
X000465Y009343D01*
X000510Y009406D01*
X000558Y009467D01*
X000608Y009526D01*
X000661Y009582D01*
X000717Y009635D01*
X000776Y009685D01*
X000837Y009733D01*
X000900Y009778D01*
X000965Y009819D01*
X001033Y009857D01*
X001102Y009892D01*
X001172Y009923D01*
X001244Y009951D01*
X001318Y009975D01*
X001392Y009996D01*
X001468Y010013D01*
X001544Y010026D01*
X001621Y010035D01*
X001698Y010041D01*
X001775Y010043D01*
X000200Y008468D02*
X000200Y001775D01*
X001145Y001775D02*
X001147Y001825D01*
X001153Y001875D01*
X001163Y001924D01*
X001177Y001972D01*
X001194Y002019D01*
X001215Y002064D01*
X001240Y002108D01*
X001268Y002149D01*
X001300Y002188D01*
X001334Y002225D01*
X001371Y002259D01*
X001411Y002289D01*
X001453Y002316D01*
X001497Y002340D01*
X001543Y002361D01*
X001590Y002377D01*
X001638Y002390D01*
X001688Y002399D01*
X001737Y002404D01*
X001788Y002405D01*
X001838Y002402D01*
X001887Y002395D01*
X001936Y002384D01*
X001984Y002369D01*
X002030Y002351D01*
X002075Y002329D01*
X002118Y002303D01*
X002159Y002274D01*
X002198Y002242D01*
X002234Y002207D01*
X002266Y002169D01*
X002296Y002129D01*
X002323Y002086D01*
X002346Y002042D01*
X002365Y001996D01*
X002381Y001948D01*
X002393Y001899D01*
X002401Y001850D01*
X002405Y001800D01*
X002405Y001750D01*
X002401Y001700D01*
X002393Y001651D01*
X002381Y001602D01*
X002365Y001554D01*
X002346Y001508D01*
X002323Y001464D01*
X002296Y001421D01*
X002266Y001381D01*
X002234Y001343D01*
X002198Y001308D01*
X002159Y001276D01*
X002118Y001247D01*
X002075Y001221D01*
X002030Y001199D01*
X001984Y001181D01*
X001936Y001166D01*
X001887Y001155D01*
X001838Y001148D01*
X001788Y001145D01*
X001737Y001146D01*
X001688Y001151D01*
X001638Y001160D01*
X001590Y001173D01*
X001543Y001189D01*
X001497Y001210D01*
X001453Y001234D01*
X001411Y001261D01*
X001371Y001291D01*
X001334Y001325D01*
X001300Y001362D01*
X001268Y001401D01*
X001240Y001442D01*
X001215Y001486D01*
X001194Y001531D01*
X001177Y001578D01*
X001163Y001626D01*
X001153Y001675D01*
X001147Y001725D01*
X001145Y001775D01*
X000200Y001775D02*
X000202Y001698D01*
X000208Y001621D01*
X000217Y001544D01*
X000230Y001468D01*
X000247Y001392D01*
X000268Y001318D01*
X000292Y001244D01*
X000320Y001172D01*
X000351Y001102D01*
X000386Y001033D01*
X000424Y000965D01*
X000465Y000900D01*
X000510Y000837D01*
X000558Y000776D01*
X000608Y000717D01*
X000661Y000661D01*
X000717Y000608D01*
X000776Y000558D01*
X000837Y000510D01*
X000900Y000465D01*
X000965Y000424D01*
X001033Y000386D01*
X001102Y000351D01*
X001172Y000320D01*
X001244Y000292D01*
X001318Y000268D01*
X001392Y000247D01*
X001468Y000230D01*
X001544Y000217D01*
X001621Y000208D01*
X001698Y000202D01*
X001775Y000200D01*
D11*
X007408Y009102D02*
X007495Y009102D01*
X007582Y009188D01*
X007582Y009622D01*
X007321Y009622D01*
X007235Y009535D01*
X007235Y009362D01*
X007321Y009275D01*
X007582Y009275D01*
X007750Y009275D02*
X007750Y009622D01*
X007750Y009449D02*
X007924Y009622D01*
X008010Y009622D01*
X008267Y009622D02*
X008440Y009622D01*
X008527Y009535D01*
X008527Y009275D01*
X008267Y009275D01*
X008180Y009362D01*
X008267Y009449D01*
X008527Y009449D01*
X008696Y009622D02*
X008782Y009622D01*
X008869Y009535D01*
X008956Y009622D01*
X009043Y009535D01*
X009043Y009275D01*
X009211Y009275D02*
X009211Y009622D01*
X009298Y009622D01*
X009385Y009535D01*
X009471Y009622D01*
X009558Y009535D01*
X009558Y009275D01*
X009385Y009275D02*
X009385Y009535D01*
X009727Y009535D02*
X009727Y009362D01*
X009814Y009275D01*
X009987Y009275D01*
X010243Y009275D02*
X010243Y009622D01*
X010243Y009449D02*
X010416Y009622D01*
X010503Y009622D01*
X010074Y009535D02*
X010074Y009449D01*
X009727Y009449D01*
X009727Y009535D02*
X009814Y009622D01*
X009987Y009622D01*
X010074Y009535D01*
X011188Y009622D02*
X011361Y009275D01*
X011535Y009622D01*
X011703Y009709D02*
X011790Y009796D01*
X011964Y009796D01*
X012050Y009709D01*
X011703Y009362D01*
X011790Y009275D01*
X011964Y009275D01*
X012050Y009362D01*
X012050Y009709D01*
X011703Y009709D02*
X011703Y009362D01*
X012219Y009362D02*
X012219Y009275D01*
X012306Y009275D01*
X012306Y009362D01*
X012219Y009362D01*
X012477Y009275D02*
X012824Y009622D01*
X012824Y009709D01*
X012737Y009796D01*
X012564Y009796D01*
X012477Y009709D01*
X012477Y009275D02*
X012824Y009275D01*
X008869Y009275D02*
X008869Y009535D01*
X008696Y009622D02*
X008696Y009275D01*
X007066Y009362D02*
X006979Y009275D01*
X006806Y009275D01*
X006719Y009362D01*
X006719Y009535D01*
X006806Y009622D01*
X006979Y009622D01*
X007066Y009535D01*
X007066Y009362D01*
X006549Y009622D02*
X006463Y009622D01*
X006289Y009449D01*
X006289Y009622D02*
X006289Y009275D01*
X006034Y009449D02*
X005774Y009449D01*
X005774Y009275D02*
X005774Y009796D01*
X006034Y009796D01*
X006121Y009709D01*
X006121Y009535D01*
X006034Y009449D01*
X005089Y009362D02*
X005003Y009275D01*
X004829Y009275D01*
X004742Y009362D01*
X004742Y009709D01*
X004829Y009796D01*
X005003Y009796D01*
X005089Y009709D01*
X004574Y009535D02*
X004574Y009362D01*
X004487Y009275D01*
X004313Y009275D01*
X004227Y009362D01*
X004227Y009535D01*
X004313Y009622D01*
X004487Y009622D01*
X004574Y009535D01*
X004058Y009449D02*
X004058Y009362D01*
X003971Y009275D01*
X003798Y009275D01*
X003711Y009362D01*
X003798Y009535D02*
X003971Y009535D01*
X004058Y009449D01*
X004058Y009709D02*
X003971Y009796D01*
X003798Y009796D01*
X003711Y009709D01*
X003711Y009622D01*
X003798Y009535D01*
X003542Y009535D02*
X003542Y009709D01*
X003456Y009796D01*
X003195Y009796D01*
X003195Y009275D01*
X003195Y009449D02*
X003456Y009449D01*
X003542Y009535D01*
D12*
X007645Y008584D02*
X008275Y008584D01*
X008275Y008190D02*
X008275Y007836D01*
X008275Y007442D02*
X007645Y007442D01*
X005988Y006574D02*
X005988Y003661D01*
X013240Y003661D01*
X013240Y006574D01*
X005988Y006574D01*
X012394Y005954D02*
X012396Y005989D01*
X012402Y006024D01*
X012412Y006058D01*
X012425Y006091D01*
X012442Y006122D01*
X012463Y006150D01*
X012486Y006177D01*
X012513Y006200D01*
X012541Y006221D01*
X012572Y006238D01*
X012605Y006251D01*
X012639Y006261D01*
X012674Y006267D01*
X012709Y006269D01*
X012744Y006267D01*
X012779Y006261D01*
X012813Y006251D01*
X012846Y006238D01*
X012877Y006221D01*
X012905Y006200D01*
X012932Y006177D01*
X012955Y006150D01*
X012976Y006122D01*
X012993Y006091D01*
X013006Y006058D01*
X013016Y006024D01*
X013022Y005989D01*
X013024Y005954D01*
X013022Y005919D01*
X013016Y005884D01*
X013006Y005850D01*
X012993Y005817D01*
X012976Y005786D01*
X012955Y005758D01*
X012932Y005731D01*
X012905Y005708D01*
X012877Y005687D01*
X012846Y005670D01*
X012813Y005657D01*
X012779Y005647D01*
X012744Y005641D01*
X012709Y005639D01*
X012674Y005641D01*
X012639Y005647D01*
X012605Y005657D01*
X012572Y005670D01*
X012541Y005687D01*
X012513Y005708D01*
X012486Y005731D01*
X012463Y005758D01*
X012442Y005786D01*
X012425Y005817D01*
X012412Y005850D01*
X012402Y005884D01*
X012396Y005919D01*
X012394Y005954D01*
X014216Y005983D02*
X014767Y005983D01*
X014767Y004251D01*
X014216Y004251D01*
X014216Y003779D01*
X014846Y003779D01*
X015909Y003779D02*
X015909Y006456D01*
X014846Y006456D02*
X014216Y006456D01*
X014216Y005983D01*
X011919Y002098D02*
X011289Y002098D01*
X011289Y000956D02*
X011919Y000956D01*
D13*
X011696Y001264D02*
X011454Y001264D01*
X011696Y001264D02*
X011744Y001313D01*
X011744Y001409D01*
X011696Y001458D01*
X011454Y001458D01*
X011502Y001559D02*
X011454Y001607D01*
X011454Y001704D01*
X011502Y001752D01*
X011551Y001752D01*
X011744Y001559D01*
X011744Y001752D01*
X012619Y001891D02*
X012668Y001842D01*
X012764Y001842D01*
X012813Y001891D01*
X012914Y001987D02*
X013107Y001987D01*
X013059Y001842D02*
X013059Y002132D01*
X012914Y001987D01*
X012813Y002084D02*
X012764Y002132D01*
X012668Y002132D01*
X012619Y002084D01*
X012619Y001891D01*
X013949Y003010D02*
X013949Y003155D01*
X013998Y003204D01*
X014094Y003204D01*
X014143Y003155D01*
X014143Y003010D01*
X014239Y003010D02*
X013949Y003010D01*
X014143Y003107D02*
X014239Y003204D01*
X014094Y003305D02*
X014094Y003498D01*
X013949Y003450D02*
X014094Y003305D01*
X014239Y003450D02*
X013949Y003450D01*
X012597Y005010D02*
X012473Y005010D01*
X012411Y005072D01*
X012411Y005318D01*
X012473Y005380D01*
X012597Y005380D01*
X012658Y005318D01*
X012658Y005072D02*
X012597Y005010D01*
X012290Y005010D02*
X012043Y005380D01*
X011922Y005380D02*
X011922Y005133D01*
X011798Y005010D01*
X011675Y005133D01*
X011675Y005380D01*
X011553Y005318D02*
X011553Y005195D01*
X011492Y005133D01*
X011306Y005133D01*
X011185Y005133D02*
X011185Y005072D01*
X011123Y005010D01*
X011000Y005010D01*
X010938Y005072D01*
X010938Y005195D01*
X011123Y005195D01*
X011185Y005133D01*
X011062Y005318D02*
X010938Y005195D01*
X010817Y005195D02*
X010817Y005072D01*
X010755Y005010D01*
X010632Y005010D01*
X010570Y005072D01*
X010570Y005195D02*
X010693Y005257D01*
X010755Y005257D01*
X010817Y005195D01*
X011062Y005318D02*
X011185Y005380D01*
X011306Y005380D02*
X011492Y005380D01*
X011553Y005318D01*
X011306Y005380D02*
X011306Y005010D01*
X010817Y005380D02*
X010570Y005380D01*
X010570Y005195D01*
X010448Y005195D02*
X010202Y005195D01*
X010080Y005195D02*
X009833Y005195D01*
X009833Y005257D02*
X009957Y005380D01*
X010080Y005257D01*
X010080Y005010D01*
X009833Y005010D02*
X009833Y005257D01*
X009712Y005257D02*
X009650Y005195D01*
X009712Y005133D01*
X009712Y005072D01*
X009650Y005010D01*
X009527Y005010D01*
X009465Y005072D01*
X009343Y005010D02*
X009097Y005010D01*
X009220Y005010D02*
X009220Y005380D01*
X009097Y005257D01*
X008975Y005318D02*
X008728Y005072D01*
X008790Y005010D01*
X008913Y005010D01*
X008975Y005072D01*
X008975Y005318D01*
X008913Y005380D01*
X008790Y005380D01*
X008728Y005318D01*
X008728Y005072D01*
X008607Y005072D02*
X008545Y005010D01*
X008422Y005010D01*
X008360Y005072D01*
X008360Y005133D01*
X008422Y005195D01*
X008545Y005195D01*
X008607Y005133D01*
X008607Y005072D01*
X008545Y005195D02*
X008607Y005257D01*
X008607Y005318D01*
X008545Y005380D01*
X008422Y005380D01*
X008360Y005318D01*
X008360Y005257D01*
X008422Y005195D01*
X008239Y005133D02*
X008239Y005072D01*
X008177Y005010D01*
X008053Y005010D01*
X007992Y005072D01*
X007992Y005195D01*
X008177Y005195D01*
X008239Y005133D01*
X008115Y005318D02*
X007992Y005195D01*
X007870Y005072D02*
X007808Y005010D01*
X007685Y005010D01*
X007623Y005072D01*
X007623Y005318D01*
X007685Y005380D01*
X007808Y005380D01*
X007870Y005318D01*
X008115Y005318D02*
X008239Y005380D01*
X007502Y005380D02*
X007502Y005318D01*
X007255Y005072D01*
X007255Y005010D01*
X007010Y005010D02*
X007010Y005195D01*
X007134Y005318D01*
X007134Y005380D01*
X007255Y005380D02*
X007502Y005380D01*
X007010Y005195D02*
X006887Y005318D01*
X006887Y005380D01*
X006765Y005318D02*
X006704Y005380D01*
X006580Y005380D01*
X006518Y005318D01*
X006518Y005072D01*
X006580Y005010D01*
X006704Y005010D01*
X006765Y005072D01*
X005326Y005010D02*
X005326Y004913D01*
X005278Y004865D01*
X005084Y004865D01*
X005036Y004913D01*
X005036Y005010D01*
X005084Y005058D01*
X005036Y005159D02*
X005181Y005159D01*
X005133Y005256D01*
X005133Y005304D01*
X005181Y005353D01*
X005278Y005353D01*
X005326Y005304D01*
X005326Y005208D01*
X005278Y005159D01*
X005278Y005058D02*
X005326Y005010D01*
X005036Y005159D02*
X005036Y005353D01*
X002744Y006463D02*
X002550Y006463D01*
X002647Y006463D02*
X002647Y006753D01*
X002550Y006657D01*
X002449Y006753D02*
X002449Y006463D01*
X002256Y006753D01*
X002256Y006463D01*
X002155Y006511D02*
X002106Y006463D01*
X002009Y006463D01*
X001961Y006511D01*
X001961Y006705D01*
X002009Y006753D01*
X002106Y006753D01*
X002155Y006705D01*
X005393Y007447D02*
X005393Y007738D01*
X005538Y007738D01*
X005587Y007689D01*
X005587Y007593D01*
X005538Y007544D01*
X005393Y007544D01*
X005490Y007544D02*
X005587Y007447D01*
X005688Y007447D02*
X005881Y007447D01*
X005785Y007447D02*
X005785Y007738D01*
X005688Y007641D01*
X005688Y008304D02*
X005881Y008497D01*
X005881Y008546D01*
X005833Y008594D01*
X005736Y008594D01*
X005688Y008546D01*
X005587Y008546D02*
X005587Y008449D01*
X005538Y008401D01*
X005393Y008401D01*
X005490Y008401D02*
X005587Y008304D01*
X005688Y008304D02*
X005881Y008304D01*
X005587Y008546D02*
X005538Y008594D01*
X005393Y008594D01*
X005393Y008304D01*
X009130Y008529D02*
X009178Y008481D01*
X009275Y008481D01*
X009323Y008529D01*
X009424Y008481D02*
X009618Y008481D01*
X009521Y008481D02*
X009521Y008771D01*
X009424Y008674D01*
X009323Y008723D02*
X009275Y008771D01*
X009178Y008771D01*
X009130Y008723D01*
X009130Y008529D01*
X010822Y008553D02*
X010871Y008505D01*
X010968Y008505D01*
X011016Y008553D01*
X011117Y008505D02*
X011311Y008698D01*
X011311Y008746D01*
X011262Y008795D01*
X011166Y008795D01*
X011117Y008746D01*
X011016Y008746D02*
X010968Y008795D01*
X010871Y008795D01*
X010822Y008746D01*
X010822Y008553D01*
X011117Y008505D02*
X011311Y008505D01*
X015059Y007288D02*
X015059Y007046D01*
X015108Y006997D01*
X015205Y006997D01*
X015253Y007046D01*
X015253Y007288D01*
X015354Y007239D02*
X015402Y007288D01*
X015499Y007288D01*
X015548Y007239D01*
X015649Y007239D02*
X015697Y007288D01*
X015794Y007288D01*
X015842Y007239D01*
X015842Y007191D01*
X015794Y007142D01*
X015842Y007094D01*
X015842Y007046D01*
X015794Y006997D01*
X015697Y006997D01*
X015649Y007046D01*
X015548Y007046D02*
X015548Y007094D01*
X015499Y007142D01*
X015402Y007142D01*
X015354Y007191D01*
X015354Y007239D01*
X015451Y007336D02*
X015451Y006949D01*
X015499Y006997D02*
X015402Y006997D01*
X015354Y007046D01*
X015499Y006997D02*
X015548Y007046D01*
X015745Y007142D02*
X015794Y007142D01*
X012290Y005380D02*
X012043Y005010D01*
X010033Y004127D02*
X009840Y004127D01*
X009937Y004127D02*
X009937Y004418D01*
X009840Y004321D01*
X009739Y004369D02*
X009690Y004418D01*
X009594Y004418D01*
X009545Y004369D01*
X009545Y004176D01*
X009594Y004127D01*
X009690Y004127D01*
X009739Y004176D01*
X009446Y004127D02*
X009349Y004127D01*
X009397Y004127D02*
X009397Y004418D01*
X009349Y004418D02*
X009446Y004418D01*
X009588Y005195D02*
X009650Y005195D01*
X009712Y005257D02*
X009712Y005318D01*
X009650Y005380D01*
X009527Y005380D01*
X009465Y005318D01*
X010117Y002157D02*
X010069Y002109D01*
X010069Y001915D01*
X010117Y001867D01*
X010214Y001867D01*
X010262Y001915D01*
X010363Y001915D02*
X010412Y001867D01*
X010508Y001867D01*
X010557Y001915D01*
X010557Y001964D01*
X010508Y002012D01*
X010460Y002012D01*
X010508Y002012D02*
X010557Y002060D01*
X010557Y002109D01*
X010508Y002157D01*
X010412Y002157D01*
X010363Y002109D01*
X010262Y002109D02*
X010214Y002157D01*
X010117Y002157D01*
X004425Y001921D02*
X004425Y001728D01*
X004328Y001626D02*
X004231Y001626D01*
X004231Y001530D01*
X004134Y001626D02*
X004086Y001578D01*
X004086Y001481D01*
X004134Y001433D01*
X004328Y001433D01*
X004376Y001481D01*
X004376Y001578D01*
X004328Y001626D01*
X004086Y001332D02*
X004086Y001138D01*
X004086Y001235D02*
X004376Y001235D01*
X003670Y001002D02*
X003525Y000857D01*
X003718Y000857D01*
X003670Y000712D02*
X003670Y001002D01*
X003424Y000953D02*
X003424Y000857D01*
X003375Y000808D01*
X003230Y000808D01*
X003230Y000712D02*
X003230Y001002D01*
X003375Y001002D01*
X003424Y000953D01*
X003129Y001002D02*
X003032Y001002D01*
X003080Y001002D02*
X003080Y000760D01*
X003032Y000712D01*
X002984Y000712D01*
X002935Y000760D01*
X004086Y002022D02*
X004086Y002167D01*
X004134Y002216D01*
X004231Y002216D01*
X004280Y002167D01*
X004280Y002022D01*
X004376Y002022D02*
X004086Y002022D01*
X004086Y002317D02*
X004376Y002317D01*
X004280Y002414D01*
X004376Y002510D01*
X004086Y002510D01*
X004086Y002611D02*
X004086Y002757D01*
X004134Y002805D01*
X004231Y002805D01*
X004280Y002757D01*
X004280Y002611D01*
X004376Y002611D02*
X004086Y002611D01*
X004280Y002708D02*
X004376Y002805D01*
D14*
X009846Y007552D02*
X009846Y008182D01*
X010318Y008182D01*
X010318Y007946D01*
X010161Y007789D01*
X010161Y007552D01*
X010633Y007552D01*
X010633Y008182D01*
X010318Y008182D01*
X010161Y007552D02*
X009846Y007552D01*
D15*
X009637Y007796D02*
X009637Y008033D01*
X009165Y008033D02*
X009165Y007796D01*
X008132Y007781D02*
X008132Y007868D01*
X008088Y007911D01*
X007872Y007911D01*
X007958Y008033D02*
X007872Y008119D01*
X008132Y008119D01*
X008132Y008033D02*
X008132Y008206D01*
X008132Y007781D02*
X008088Y007738D01*
X007872Y007738D01*
X006584Y007816D02*
X006348Y007816D01*
X006348Y008200D02*
X006584Y008200D01*
X006584Y008672D02*
X006348Y008672D01*
X006348Y007344D02*
X006584Y007344D01*
X005838Y005296D02*
X005838Y005060D01*
X005365Y005060D02*
X005365Y005296D01*
X003838Y003084D02*
X003038Y003084D01*
X002938Y002984D01*
X002938Y002184D01*
X003038Y002084D01*
X002938Y001984D01*
X002938Y001184D01*
X003038Y001084D01*
X003838Y001084D01*
X003938Y001184D01*
X003938Y001984D01*
X003838Y002084D01*
X003938Y002184D01*
X003938Y002984D01*
X003838Y003084D01*
X010235Y001763D02*
X010472Y001763D01*
X010472Y001291D02*
X010235Y001291D01*
X012860Y001291D02*
X013097Y001291D01*
X013097Y001763D02*
X012860Y001763D01*
X013373Y003167D02*
X013373Y003403D01*
X013846Y003403D02*
X013846Y003167D01*
X011314Y007796D02*
X011314Y008033D01*
X010842Y008033D02*
X010842Y007796D01*
D16*
X003950Y006617D02*
X003950Y003617D01*
X000450Y003617D02*
X000450Y004617D01*
X000450Y005617D02*
X000450Y006617D01*
D17*
X012212Y008396D02*
X012403Y008376D01*
X012423Y008312D01*
X012454Y008253D01*
X012333Y008104D01*
X012435Y008002D01*
X012583Y008123D01*
X012643Y008093D01*
X012728Y008297D01*
X012690Y008318D01*
X012658Y008348D01*
X012634Y008384D01*
X012619Y008425D01*
X012614Y008468D01*
X012619Y008512D01*
X012635Y008553D01*
X012660Y008589D01*
X012693Y008619D01*
X012732Y008640D01*
X012774Y008651D01*
X012818Y008651D01*
X012862Y008641D01*
X012901Y008621D01*
X012934Y008592D01*
X012960Y008556D01*
X012977Y008515D01*
X012983Y008472D01*
X012979Y008428D01*
X012964Y008386D01*
X012940Y008349D01*
X012908Y008319D01*
X012869Y008297D01*
X012954Y008093D01*
X013014Y008123D01*
X013162Y008002D01*
X013264Y008104D01*
X013143Y008253D01*
X013174Y008312D01*
X013194Y008376D01*
X013385Y008396D01*
X013385Y008540D01*
X013194Y008559D01*
X013174Y008623D01*
X013143Y008683D01*
X013264Y008831D01*
X013162Y008933D01*
X013014Y008812D01*
X012954Y008843D01*
X012890Y008863D01*
X012870Y009054D01*
X012726Y009054D01*
X012707Y008863D01*
X012643Y008843D01*
X012583Y008812D01*
X012435Y008933D01*
X012333Y008831D01*
X012454Y008683D01*
X012423Y008623D01*
X012403Y008559D01*
X012212Y008540D01*
X012212Y008396D01*
X012212Y008430D02*
X012618Y008430D01*
X012616Y008488D02*
X012212Y008488D01*
X012270Y008546D02*
X012632Y008546D01*
X012675Y008603D02*
X012417Y008603D01*
X012443Y008661D02*
X013154Y008661D01*
X013172Y008718D02*
X012425Y008718D01*
X012378Y008776D02*
X013218Y008776D01*
X013262Y008833D02*
X013040Y008833D01*
X012972Y008833D02*
X012625Y008833D01*
X012557Y008833D02*
X012335Y008833D01*
X012393Y008891D02*
X012487Y008891D01*
X012710Y008891D02*
X012887Y008891D01*
X012881Y008948D02*
X012716Y008948D01*
X012722Y009006D02*
X012875Y009006D01*
X013110Y008891D02*
X013204Y008891D01*
X013180Y008603D02*
X012922Y008603D01*
X012965Y008546D02*
X013327Y008546D01*
X013385Y008488D02*
X012981Y008488D01*
X012979Y008430D02*
X013385Y008430D01*
X013193Y008373D02*
X012955Y008373D01*
X012901Y008315D02*
X013174Y008315D01*
X013145Y008258D02*
X012885Y008258D01*
X012909Y008200D02*
X013185Y008200D01*
X013232Y008143D02*
X012933Y008143D01*
X013061Y008085D02*
X013245Y008085D01*
X013187Y008028D02*
X013131Y008028D01*
X012688Y008200D02*
X012411Y008200D01*
X012451Y008258D02*
X012711Y008258D01*
X012695Y008315D02*
X012422Y008315D01*
X012404Y008373D02*
X012641Y008373D01*
X012664Y008143D02*
X012364Y008143D01*
X012352Y008085D02*
X012536Y008085D01*
X012466Y008028D02*
X012410Y008028D01*
M02*
