G75*
G70*
%OFA0B0*%
%FSLAX24Y24*%
%IPPOS*%
%LPD*%
%AMOC8*
5,1,8,0,0,1.08239X$1,22.5*
%
%ADD10C,0.0000*%
%ADD11C,0.1300*%
%ADD12R,0.0178X0.0512*%
%ADD13R,0.0335X0.0316*%
%ADD14R,0.0512X0.0355*%
%ADD15R,0.0355X0.0512*%
%ADD16C,0.0600*%
%ADD17R,0.0434X0.0237*%
%ADD18R,0.1140X0.0330*%
%ADD19R,0.0512X0.0257*%
%ADD20R,0.0591X0.0178*%
%ADD21C,0.0808*%
%ADD22C,0.0660*%
%ADD23R,0.0631X0.0631*%
D10*
X001775Y000200D02*
X014373Y000200D01*
X013743Y001775D02*
X013745Y001825D01*
X013751Y001875D01*
X013761Y001924D01*
X013775Y001972D01*
X013792Y002019D01*
X013813Y002064D01*
X013838Y002108D01*
X013866Y002149D01*
X013898Y002188D01*
X013932Y002225D01*
X013969Y002259D01*
X014009Y002289D01*
X014051Y002316D01*
X014095Y002340D01*
X014141Y002361D01*
X014188Y002377D01*
X014236Y002390D01*
X014286Y002399D01*
X014335Y002404D01*
X014386Y002405D01*
X014436Y002402D01*
X014485Y002395D01*
X014534Y002384D01*
X014582Y002369D01*
X014628Y002351D01*
X014673Y002329D01*
X014716Y002303D01*
X014757Y002274D01*
X014796Y002242D01*
X014832Y002207D01*
X014864Y002169D01*
X014894Y002129D01*
X014921Y002086D01*
X014944Y002042D01*
X014963Y001996D01*
X014979Y001948D01*
X014991Y001899D01*
X014999Y001850D01*
X015003Y001800D01*
X015003Y001750D01*
X014999Y001700D01*
X014991Y001651D01*
X014979Y001602D01*
X014963Y001554D01*
X014944Y001508D01*
X014921Y001464D01*
X014894Y001421D01*
X014864Y001381D01*
X014832Y001343D01*
X014796Y001308D01*
X014757Y001276D01*
X014716Y001247D01*
X014673Y001221D01*
X014628Y001199D01*
X014582Y001181D01*
X014534Y001166D01*
X014485Y001155D01*
X014436Y001148D01*
X014386Y001145D01*
X014335Y001146D01*
X014286Y001151D01*
X014236Y001160D01*
X014188Y001173D01*
X014141Y001189D01*
X014095Y001210D01*
X014051Y001234D01*
X014009Y001261D01*
X013969Y001291D01*
X013932Y001325D01*
X013898Y001362D01*
X013866Y001401D01*
X013838Y001442D01*
X013813Y001486D01*
X013792Y001531D01*
X013775Y001578D01*
X013761Y001626D01*
X013751Y001675D01*
X013745Y001725D01*
X013743Y001775D01*
X014373Y000200D02*
X014450Y000202D01*
X014527Y000208D01*
X014604Y000217D01*
X014680Y000230D01*
X014756Y000247D01*
X014830Y000268D01*
X014904Y000292D01*
X014976Y000320D01*
X015046Y000351D01*
X015115Y000386D01*
X015183Y000424D01*
X015248Y000465D01*
X015311Y000510D01*
X015372Y000558D01*
X015431Y000608D01*
X015487Y000661D01*
X015540Y000717D01*
X015590Y000776D01*
X015638Y000837D01*
X015683Y000900D01*
X015724Y000965D01*
X015762Y001033D01*
X015797Y001102D01*
X015828Y001172D01*
X015856Y001244D01*
X015880Y001318D01*
X015901Y001392D01*
X015918Y001468D01*
X015931Y001544D01*
X015940Y001621D01*
X015946Y001698D01*
X015948Y001775D01*
X015948Y008468D01*
X013743Y008468D02*
X013745Y008518D01*
X013751Y008568D01*
X013761Y008617D01*
X013775Y008665D01*
X013792Y008712D01*
X013813Y008757D01*
X013838Y008801D01*
X013866Y008842D01*
X013898Y008881D01*
X013932Y008918D01*
X013969Y008952D01*
X014009Y008982D01*
X014051Y009009D01*
X014095Y009033D01*
X014141Y009054D01*
X014188Y009070D01*
X014236Y009083D01*
X014286Y009092D01*
X014335Y009097D01*
X014386Y009098D01*
X014436Y009095D01*
X014485Y009088D01*
X014534Y009077D01*
X014582Y009062D01*
X014628Y009044D01*
X014673Y009022D01*
X014716Y008996D01*
X014757Y008967D01*
X014796Y008935D01*
X014832Y008900D01*
X014864Y008862D01*
X014894Y008822D01*
X014921Y008779D01*
X014944Y008735D01*
X014963Y008689D01*
X014979Y008641D01*
X014991Y008592D01*
X014999Y008543D01*
X015003Y008493D01*
X015003Y008443D01*
X014999Y008393D01*
X014991Y008344D01*
X014979Y008295D01*
X014963Y008247D01*
X014944Y008201D01*
X014921Y008157D01*
X014894Y008114D01*
X014864Y008074D01*
X014832Y008036D01*
X014796Y008001D01*
X014757Y007969D01*
X014716Y007940D01*
X014673Y007914D01*
X014628Y007892D01*
X014582Y007874D01*
X014534Y007859D01*
X014485Y007848D01*
X014436Y007841D01*
X014386Y007838D01*
X014335Y007839D01*
X014286Y007844D01*
X014236Y007853D01*
X014188Y007866D01*
X014141Y007882D01*
X014095Y007903D01*
X014051Y007927D01*
X014009Y007954D01*
X013969Y007984D01*
X013932Y008018D01*
X013898Y008055D01*
X013866Y008094D01*
X013838Y008135D01*
X013813Y008179D01*
X013792Y008224D01*
X013775Y008271D01*
X013761Y008319D01*
X013751Y008368D01*
X013745Y008418D01*
X013743Y008468D01*
X014373Y010043D02*
X014450Y010041D01*
X014527Y010035D01*
X014604Y010026D01*
X014680Y010013D01*
X014756Y009996D01*
X014830Y009975D01*
X014904Y009951D01*
X014976Y009923D01*
X015046Y009892D01*
X015115Y009857D01*
X015183Y009819D01*
X015248Y009778D01*
X015311Y009733D01*
X015372Y009685D01*
X015431Y009635D01*
X015487Y009582D01*
X015540Y009526D01*
X015590Y009467D01*
X015638Y009406D01*
X015683Y009343D01*
X015724Y009278D01*
X015762Y009210D01*
X015797Y009141D01*
X015828Y009071D01*
X015856Y008999D01*
X015880Y008925D01*
X015901Y008851D01*
X015918Y008775D01*
X015931Y008699D01*
X015940Y008622D01*
X015946Y008545D01*
X015948Y008468D01*
X014373Y010043D02*
X001775Y010043D01*
X001145Y008468D02*
X001147Y008518D01*
X001153Y008568D01*
X001163Y008617D01*
X001177Y008665D01*
X001194Y008712D01*
X001215Y008757D01*
X001240Y008801D01*
X001268Y008842D01*
X001300Y008881D01*
X001334Y008918D01*
X001371Y008952D01*
X001411Y008982D01*
X001453Y009009D01*
X001497Y009033D01*
X001543Y009054D01*
X001590Y009070D01*
X001638Y009083D01*
X001688Y009092D01*
X001737Y009097D01*
X001788Y009098D01*
X001838Y009095D01*
X001887Y009088D01*
X001936Y009077D01*
X001984Y009062D01*
X002030Y009044D01*
X002075Y009022D01*
X002118Y008996D01*
X002159Y008967D01*
X002198Y008935D01*
X002234Y008900D01*
X002266Y008862D01*
X002296Y008822D01*
X002323Y008779D01*
X002346Y008735D01*
X002365Y008689D01*
X002381Y008641D01*
X002393Y008592D01*
X002401Y008543D01*
X002405Y008493D01*
X002405Y008443D01*
X002401Y008393D01*
X002393Y008344D01*
X002381Y008295D01*
X002365Y008247D01*
X002346Y008201D01*
X002323Y008157D01*
X002296Y008114D01*
X002266Y008074D01*
X002234Y008036D01*
X002198Y008001D01*
X002159Y007969D01*
X002118Y007940D01*
X002075Y007914D01*
X002030Y007892D01*
X001984Y007874D01*
X001936Y007859D01*
X001887Y007848D01*
X001838Y007841D01*
X001788Y007838D01*
X001737Y007839D01*
X001688Y007844D01*
X001638Y007853D01*
X001590Y007866D01*
X001543Y007882D01*
X001497Y007903D01*
X001453Y007927D01*
X001411Y007954D01*
X001371Y007984D01*
X001334Y008018D01*
X001300Y008055D01*
X001268Y008094D01*
X001240Y008135D01*
X001215Y008179D01*
X001194Y008224D01*
X001177Y008271D01*
X001163Y008319D01*
X001153Y008368D01*
X001147Y008418D01*
X001145Y008468D01*
X000200Y008468D02*
X000202Y008545D01*
X000208Y008622D01*
X000217Y008699D01*
X000230Y008775D01*
X000247Y008851D01*
X000268Y008925D01*
X000292Y008999D01*
X000320Y009071D01*
X000351Y009141D01*
X000386Y009210D01*
X000424Y009278D01*
X000465Y009343D01*
X000510Y009406D01*
X000558Y009467D01*
X000608Y009526D01*
X000661Y009582D01*
X000717Y009635D01*
X000776Y009685D01*
X000837Y009733D01*
X000900Y009778D01*
X000965Y009819D01*
X001033Y009857D01*
X001102Y009892D01*
X001172Y009923D01*
X001244Y009951D01*
X001318Y009975D01*
X001392Y009996D01*
X001468Y010013D01*
X001544Y010026D01*
X001621Y010035D01*
X001698Y010041D01*
X001775Y010043D01*
X000200Y008468D02*
X000200Y001775D01*
X001145Y001775D02*
X001147Y001825D01*
X001153Y001875D01*
X001163Y001924D01*
X001177Y001972D01*
X001194Y002019D01*
X001215Y002064D01*
X001240Y002108D01*
X001268Y002149D01*
X001300Y002188D01*
X001334Y002225D01*
X001371Y002259D01*
X001411Y002289D01*
X001453Y002316D01*
X001497Y002340D01*
X001543Y002361D01*
X001590Y002377D01*
X001638Y002390D01*
X001688Y002399D01*
X001737Y002404D01*
X001788Y002405D01*
X001838Y002402D01*
X001887Y002395D01*
X001936Y002384D01*
X001984Y002369D01*
X002030Y002351D01*
X002075Y002329D01*
X002118Y002303D01*
X002159Y002274D01*
X002198Y002242D01*
X002234Y002207D01*
X002266Y002169D01*
X002296Y002129D01*
X002323Y002086D01*
X002346Y002042D01*
X002365Y001996D01*
X002381Y001948D01*
X002393Y001899D01*
X002401Y001850D01*
X002405Y001800D01*
X002405Y001750D01*
X002401Y001700D01*
X002393Y001651D01*
X002381Y001602D01*
X002365Y001554D01*
X002346Y001508D01*
X002323Y001464D01*
X002296Y001421D01*
X002266Y001381D01*
X002234Y001343D01*
X002198Y001308D01*
X002159Y001276D01*
X002118Y001247D01*
X002075Y001221D01*
X002030Y001199D01*
X001984Y001181D01*
X001936Y001166D01*
X001887Y001155D01*
X001838Y001148D01*
X001788Y001145D01*
X001737Y001146D01*
X001688Y001151D01*
X001638Y001160D01*
X001590Y001173D01*
X001543Y001189D01*
X001497Y001210D01*
X001453Y001234D01*
X001411Y001261D01*
X001371Y001291D01*
X001334Y001325D01*
X001300Y001362D01*
X001268Y001401D01*
X001240Y001442D01*
X001215Y001486D01*
X001194Y001531D01*
X001177Y001578D01*
X001163Y001626D01*
X001153Y001675D01*
X001147Y001725D01*
X001145Y001775D01*
X000200Y001775D02*
X000202Y001698D01*
X000208Y001621D01*
X000217Y001544D01*
X000230Y001468D01*
X000247Y001392D01*
X000268Y001318D01*
X000292Y001244D01*
X000320Y001172D01*
X000351Y001102D01*
X000386Y001033D01*
X000424Y000965D01*
X000465Y000900D01*
X000510Y000837D01*
X000558Y000776D01*
X000608Y000717D01*
X000661Y000661D01*
X000717Y000608D01*
X000776Y000558D01*
X000837Y000510D01*
X000900Y000465D01*
X000965Y000424D01*
X001033Y000386D01*
X001102Y000351D01*
X001172Y000320D01*
X001244Y000292D01*
X001318Y000268D01*
X001392Y000247D01*
X001468Y000230D01*
X001544Y000217D01*
X001621Y000208D01*
X001698Y000202D01*
X001775Y000200D01*
D11*
X001775Y001775D03*
X001775Y008468D03*
X014373Y008468D03*
X014373Y001775D03*
D12*
X012989Y003228D03*
X012739Y003228D03*
X012489Y003228D03*
X012239Y003228D03*
X011989Y003228D03*
X011739Y003228D03*
X011489Y003228D03*
X011239Y003228D03*
X010989Y003228D03*
X010739Y003228D03*
X010489Y003228D03*
X010239Y003228D03*
X009989Y003228D03*
X009739Y003228D03*
X009489Y003228D03*
X009239Y003228D03*
X008989Y003228D03*
X008739Y003228D03*
X008489Y003228D03*
X008239Y003228D03*
X007989Y003228D03*
X007739Y003228D03*
X007489Y003228D03*
X007239Y003228D03*
X006989Y003228D03*
X006739Y003228D03*
X006489Y003228D03*
X006239Y003228D03*
X006239Y007007D03*
X006489Y007007D03*
X006739Y007007D03*
X006989Y007007D03*
X007239Y007007D03*
X007489Y007007D03*
X007739Y007007D03*
X007989Y007007D03*
X008239Y007007D03*
X008489Y007007D03*
X008739Y007007D03*
X008989Y007007D03*
X009239Y007007D03*
X009489Y007007D03*
X009739Y007007D03*
X009989Y007007D03*
X010239Y007007D03*
X010489Y007007D03*
X010739Y007007D03*
X010989Y007007D03*
X011239Y007007D03*
X011489Y007007D03*
X011739Y007007D03*
X011989Y007007D03*
X012239Y007007D03*
X012489Y007007D03*
X012739Y007007D03*
X012989Y007007D03*
D13*
X010505Y007670D03*
X009974Y007670D03*
X009974Y008064D03*
X010505Y008064D03*
D14*
X011078Y008269D03*
X011078Y007560D03*
X009401Y007560D03*
X009401Y008269D03*
X005602Y005533D03*
X005602Y004824D03*
X013609Y003639D03*
X013609Y002930D03*
D15*
X013333Y001527D03*
X012624Y001527D03*
X010708Y001527D03*
X009999Y001527D03*
X006820Y007580D03*
X006111Y007580D03*
X006111Y008436D03*
X006820Y008436D03*
D16*
X003718Y002584D02*
X003158Y002584D01*
X003158Y001584D02*
X003718Y001584D01*
D17*
X011131Y001901D03*
X012076Y001901D03*
X012076Y001527D03*
X012076Y001153D03*
X011131Y001153D03*
D18*
X002950Y004117D03*
X002950Y004617D03*
X002950Y005117D03*
X002950Y005617D03*
X002950Y006117D03*
X001450Y006117D03*
X001450Y005617D03*
X001450Y005117D03*
X001450Y004617D03*
X001450Y004117D03*
D19*
X007448Y007639D03*
X007448Y008013D03*
X007448Y008387D03*
X008472Y008387D03*
X008472Y007639D03*
D20*
X014294Y005629D03*
X014294Y005373D03*
X014294Y005117D03*
X014294Y004861D03*
X014294Y004606D03*
D21*
X015338Y003739D03*
X015338Y006495D03*
D22*
X014275Y006102D03*
X014275Y004133D03*
D23*
X015338Y004724D03*
X015338Y005511D03*
M02*
