%
M48
M72
T01C0.0118
T02C0.0360
T03C0.0413
T04C0.0512
T05C0.1260
%
T01
X5613Y2169
X7188Y3645
X7779Y3645
X6007Y4826
X5613Y5220
X5318Y6499
X6499Y6499
X7976Y6598
X8507Y6598
X8999Y6598
X10043Y6598
X11420Y6598
X12208Y6598
X11420Y7582
X9058Y7582
X7090Y7976
X8861Y5515
X9747Y5515
X11027Y3645
X11617Y1539
X13881Y5712
X1480Y3743
T02
X3438Y2584
X3438Y1584
T03
X14275Y4133
X14275Y6102
T04
X15338Y6495
X15338Y3739
T05
X1775Y1775
X1775Y8468
X14373Y8468
X14373Y1775
M30
