%
M48
M72
T01C0.0118
T02C0.0276
T03C0.0354
T04C0.1260
%
T01
X18418Y2750
X19168Y2250
X19668Y2500
X19918Y2000
X21168Y2000
X21668Y2000
X21418Y1500
X23418Y2500
X24418Y2250
X23668Y2000
X25418Y2250
X26418Y2250
X27418Y2250
X28418Y2250
X29418Y2250
X30418Y2250
X30918Y2250
X31918Y3000
X33168Y3500
X30918Y4250
X32918Y1750
X21918Y2750
X20918Y15500
X22918Y15500
X21918Y17000
X20918Y17500
X19918Y17000
X18918Y17500
X19918Y19000
X21918Y19000
X23918Y19000
X22918Y17500
X23918Y17000
X26918Y17500
X27918Y17000
X28918Y17500
X29918Y17000
X30918Y17500
X31918Y17000
X30918Y15500
X28918Y15500
X26918Y15500
X27918Y19000
X29918Y19000
X31918Y19000
X18918Y15500
T02
X34418Y15625
X35418Y15625
X35418Y16625
X34418Y16625
T03
X33418Y14750
X32418Y14750
X31418Y14750
X30418Y14750
X30418Y13750
X29418Y13750
X28418Y13750
X27418Y13750
X26418Y13750
X25418Y13750
X24418Y13750
X23418Y13750
X22418Y13750
X21418Y13750
X20418Y13750
X19418Y13750
X18418Y13750
X17418Y13750
X16418Y13750
X15418Y13750
X14418Y13750
X13418Y13750
X12418Y13750
X11418Y13750
X10418Y13750
X9418Y13750
X8418Y13750
X7418Y13750
X6418Y13750
X6418Y12750
X7418Y12750
X8418Y12750
X9418Y12750
X10418Y12750
X11418Y12750
X12418Y12750
X13418Y12750
X14418Y12750
X15418Y12750
X16418Y12750
X17418Y12750
X18418Y12750
X19418Y12750
X20418Y12750
X21418Y12750
X22418Y12750
X23418Y12750
X24418Y12750
X25418Y12750
X26418Y12750
X27418Y12750
X28418Y12750
X29418Y12750
X30418Y12750
X31418Y12750
X32418Y12750
X33418Y12750
X34418Y12750
X35418Y12750
X35418Y11750
X34418Y11750
X33418Y11750
X32418Y11750
X31418Y11750
X30418Y11750
X29418Y11750
X28418Y11750
X27418Y11750
X26418Y11750
X25418Y11750
X24418Y11750
X23418Y11750
X22418Y11750
X21418Y11750
X20418Y11750
X19418Y11750
X18418Y11750
X17418Y11750
X16418Y11750
X15418Y11750
X14418Y11750
X13418Y11750
X12418Y11750
X11418Y11750
X10418Y11750
X9418Y11750
X8418Y11750
X7418Y11750
X6418Y11750
X6418Y10750
X7418Y10750
X8418Y10750
X9418Y10750
X10418Y10750
X11418Y10750
X12418Y10750
X13418Y10750
X14418Y10750
X15418Y10750
X16418Y10750
X17418Y10750
X18418Y10750
X19418Y10750
X20418Y10750
X21418Y10750
X22418Y10750
X23418Y10750
X24418Y10750
X25418Y10750
X26418Y10750
X27418Y10750
X28418Y10750
X29418Y10750
X30418Y10750
X31418Y10750
X32418Y10750
X33418Y10750
X34418Y10750
X35418Y10750
X33418Y9750
X32418Y9750
X31418Y9750
X30418Y9750
X29418Y9750
X28418Y9750
X27418Y9750
X26418Y9750
X25418Y9750
X24418Y9750
X23418Y9750
X22418Y9750
X21418Y9750
X20418Y9750
X19418Y9750
X18418Y9750
X17418Y9750
X16418Y9750
X15418Y9750
X14418Y9750
X13418Y9750
X12418Y9750
X11418Y9750
X10418Y9750
X9418Y9750
X8418Y9750
X7418Y9750
X6418Y9750
X6418Y8750
X7418Y8750
X8418Y8750
X9418Y8750
X10418Y8750
X11418Y8750
X12418Y8750
X13418Y8750
X14418Y8750
X15418Y8750
X16418Y8750
X17418Y8750
X18418Y8750
X19418Y8750
X20418Y8750
X21418Y8750
X22418Y8750
X23418Y8750
X24418Y8750
X25418Y8750
X26418Y8750
X27418Y8750
X28418Y8750
X29418Y8750
X30418Y8750
X31418Y8750
X32418Y8750
X33418Y8750
X33418Y7750
X34418Y7750
X35418Y7750
X35418Y6750
X34418Y6750
X33418Y6750
X32418Y6750
X31418Y6750
X30418Y6750
X29418Y6750
X28418Y6750
X27418Y6750
X26418Y6750
X25418Y6750
X24418Y6750
X23418Y6750
X22418Y6750
X21418Y6750
X20418Y6750
X19418Y6750
X18418Y6750
X17418Y6750
X16418Y6750
X15418Y6750
X14418Y6750
X13418Y6750
X12418Y6750
X11418Y6750
X10418Y6750
X9418Y6750
X8418Y6750
X7418Y6750
X6418Y6750
X6418Y5750
X7418Y5750
X8418Y5750
X9418Y5750
X10418Y5750
X11418Y5750
X12418Y5750
X13418Y5750
X14418Y5750
X15418Y5750
X16418Y5750
X17418Y5750
X18418Y5750
X19418Y5750
X20418Y5750
X21418Y5750
X22418Y5750
X23418Y5750
X24418Y5750
X25418Y5750
X26418Y5750
X27418Y5750
X28418Y5750
X29418Y5750
X30418Y5750
X31418Y5750
X32418Y5750
X33418Y5750
X34418Y5750
X35418Y5750
X33418Y4750
X32418Y4750
X31418Y4750
X30418Y4750
X29418Y4750
X28418Y4750
X27418Y4750
X26418Y4750
X25418Y4750
X24418Y4750
X24418Y7750
X23418Y7750
X22418Y7750
X21418Y7750
X20418Y7750
X19418Y7750
X18418Y7750
X17418Y7750
X16418Y7750
X15418Y7750
X14418Y7750
X13418Y7750
X12418Y7750
X11418Y7750
X10418Y7750
X9418Y7750
X8418Y7750
X7418Y7750
X6418Y7750
X6418Y4750
X7418Y4750
X8418Y4750
X9418Y4750
X10418Y4750
X11418Y4750
X12418Y4750
X13418Y4750
X14418Y4750
X15418Y4750
X16418Y4750
X17418Y4750
X17418Y3750
X16418Y3750
X15418Y3750
X14418Y3750
X13418Y3750
X12418Y3750
X11418Y3750
X10418Y3750
X9418Y3750
X8418Y3750
X7418Y3750
X6418Y3750
X8418Y2750
X9418Y2750
X10418Y2750
X11418Y2750
X12418Y2750
X13418Y2750
X14418Y2750
X15418Y2750
X16418Y2750
X17418Y2750
X17418Y1750
X16418Y1750
X15418Y1750
X14418Y1750
X13418Y1750
X12418Y1750
X11418Y1750
X10418Y1750
X9418Y1750
X8418Y1750
X25418Y7750
X26418Y7750
X27418Y7750
X28418Y7750
X29418Y7750
X30418Y7750
X31418Y7750
X32418Y7750
X32418Y13750
X31418Y13750
X33418Y13750
X34418Y13750
X35418Y13750
X25418Y14750
X24418Y14750
X23418Y14750
X22418Y14750
X17418Y14750
X16418Y14750
X15418Y14750
X14418Y14750
X13418Y14750
X12418Y14750
X11418Y14750
X10418Y14750
X9418Y14750
X8418Y14750
X7418Y14750
X6418Y14750
X6418Y15750
X7418Y15750
X8418Y15750
X9418Y15750
X10418Y15750
X11418Y15750
X12418Y15750
X13418Y15750
X14418Y15750
X15418Y15750
X16418Y15750
X17418Y15750
X17418Y16750
X16418Y16750
X15418Y16750
X14418Y16750
X13418Y16750
X12418Y16750
X11418Y16750
X10418Y16750
X9418Y16750
X8418Y16750
X7418Y16750
X6418Y16750
X8418Y17750
X9418Y17750
X10418Y17750
X11418Y17750
X12418Y17750
X13418Y17750
X14418Y17750
X15418Y17750
X16418Y17750
X17418Y17750
X17418Y18750
X16418Y18750
X15418Y18750
X14418Y18750
X13418Y18750
X12418Y18750
X11418Y18750
X10418Y18750
X9418Y18750
X8418Y18750
T04
X6993Y2075
X35339Y2075
X35339Y18217
X6993Y18217
M30
