G75*
G70*
%OFA0B0*%
%FSLAX24Y24*%
%IPPOS*%
%LPD*%
%AMOC8*
5,1,8,0,0,1.08239X$1,22.5*
%
%ADD10R,0.0500X0.1000*%
%ADD11R,0.0394X0.0787*%
%ADD12C,0.0000*%
%ADD13R,0.0272X0.0390*%
%ADD14R,0.0870X0.0240*%
%ADD15R,0.0460X0.0630*%
%ADD16R,0.0660X0.0660*%
%ADD17C,0.0660*%
%ADD18C,0.0650*%
%ADD19C,0.0238*%
%ADD20C,0.0200*%
%ADD21C,0.0100*%
D10*
X018418Y016175D03*
X019418Y016175D03*
X020418Y016175D03*
X021418Y016175D03*
X022418Y016175D03*
X023418Y016175D03*
X024418Y016175D03*
X025418Y016175D03*
X026418Y016175D03*
X027418Y016175D03*
X028418Y016175D03*
X029418Y016175D03*
X030418Y016175D03*
X031418Y016175D03*
X032418Y016175D03*
X033418Y016175D03*
X033418Y018325D03*
X032418Y018325D03*
X031418Y018325D03*
X030418Y018325D03*
X029418Y018325D03*
X028418Y018325D03*
X027418Y018325D03*
X026418Y018325D03*
X025418Y018325D03*
X024418Y018325D03*
X023418Y018325D03*
X022418Y018325D03*
X021418Y018325D03*
X020418Y018325D03*
X019418Y018325D03*
X018418Y018325D03*
D11*
X024418Y002900D03*
X026418Y002900D03*
X028418Y002900D03*
X030418Y002900D03*
X032418Y002900D03*
X031418Y001600D03*
X029418Y001600D03*
X027418Y001600D03*
X025418Y001600D03*
X033418Y001600D03*
D12*
X005418Y002075D02*
X005418Y018217D01*
X006363Y018217D02*
X006365Y018267D01*
X006371Y018317D01*
X006381Y018366D01*
X006395Y018414D01*
X006412Y018461D01*
X006433Y018506D01*
X006458Y018550D01*
X006486Y018591D01*
X006518Y018630D01*
X006552Y018667D01*
X006589Y018701D01*
X006629Y018731D01*
X006671Y018758D01*
X006715Y018782D01*
X006761Y018803D01*
X006808Y018819D01*
X006856Y018832D01*
X006906Y018841D01*
X006955Y018846D01*
X007006Y018847D01*
X007056Y018844D01*
X007105Y018837D01*
X007154Y018826D01*
X007202Y018811D01*
X007248Y018793D01*
X007293Y018771D01*
X007336Y018745D01*
X007377Y018716D01*
X007416Y018684D01*
X007452Y018649D01*
X007484Y018611D01*
X007514Y018571D01*
X007541Y018528D01*
X007564Y018484D01*
X007583Y018438D01*
X007599Y018390D01*
X007611Y018341D01*
X007619Y018292D01*
X007623Y018242D01*
X007623Y018192D01*
X007619Y018142D01*
X007611Y018093D01*
X007599Y018044D01*
X007583Y017996D01*
X007564Y017950D01*
X007541Y017906D01*
X007514Y017863D01*
X007484Y017823D01*
X007452Y017785D01*
X007416Y017750D01*
X007377Y017718D01*
X007336Y017689D01*
X007293Y017663D01*
X007248Y017641D01*
X007202Y017623D01*
X007154Y017608D01*
X007105Y017597D01*
X007056Y017590D01*
X007006Y017587D01*
X006955Y017588D01*
X006906Y017593D01*
X006856Y017602D01*
X006808Y017615D01*
X006761Y017631D01*
X006715Y017652D01*
X006671Y017676D01*
X006629Y017703D01*
X006589Y017733D01*
X006552Y017767D01*
X006518Y017804D01*
X006486Y017843D01*
X006458Y017884D01*
X006433Y017928D01*
X006412Y017973D01*
X006395Y018020D01*
X006381Y018068D01*
X006371Y018117D01*
X006365Y018167D01*
X006363Y018217D01*
X005418Y018217D02*
X005420Y018294D01*
X005426Y018371D01*
X005435Y018448D01*
X005448Y018524D01*
X005465Y018600D01*
X005486Y018674D01*
X005510Y018748D01*
X005538Y018820D01*
X005569Y018890D01*
X005604Y018959D01*
X005642Y019027D01*
X005683Y019092D01*
X005728Y019155D01*
X005776Y019216D01*
X005826Y019275D01*
X005879Y019331D01*
X005935Y019384D01*
X005994Y019434D01*
X006055Y019482D01*
X006118Y019527D01*
X006183Y019568D01*
X006251Y019606D01*
X006320Y019641D01*
X006390Y019672D01*
X006462Y019700D01*
X006536Y019724D01*
X006610Y019745D01*
X006686Y019762D01*
X006762Y019775D01*
X006839Y019784D01*
X006916Y019790D01*
X006993Y019792D01*
X006993Y019791D02*
X035339Y019791D01*
X034709Y018217D02*
X034711Y018267D01*
X034717Y018317D01*
X034727Y018366D01*
X034741Y018414D01*
X034758Y018461D01*
X034779Y018506D01*
X034804Y018550D01*
X034832Y018591D01*
X034864Y018630D01*
X034898Y018667D01*
X034935Y018701D01*
X034975Y018731D01*
X035017Y018758D01*
X035061Y018782D01*
X035107Y018803D01*
X035154Y018819D01*
X035202Y018832D01*
X035252Y018841D01*
X035301Y018846D01*
X035352Y018847D01*
X035402Y018844D01*
X035451Y018837D01*
X035500Y018826D01*
X035548Y018811D01*
X035594Y018793D01*
X035639Y018771D01*
X035682Y018745D01*
X035723Y018716D01*
X035762Y018684D01*
X035798Y018649D01*
X035830Y018611D01*
X035860Y018571D01*
X035887Y018528D01*
X035910Y018484D01*
X035929Y018438D01*
X035945Y018390D01*
X035957Y018341D01*
X035965Y018292D01*
X035969Y018242D01*
X035969Y018192D01*
X035965Y018142D01*
X035957Y018093D01*
X035945Y018044D01*
X035929Y017996D01*
X035910Y017950D01*
X035887Y017906D01*
X035860Y017863D01*
X035830Y017823D01*
X035798Y017785D01*
X035762Y017750D01*
X035723Y017718D01*
X035682Y017689D01*
X035639Y017663D01*
X035594Y017641D01*
X035548Y017623D01*
X035500Y017608D01*
X035451Y017597D01*
X035402Y017590D01*
X035352Y017587D01*
X035301Y017588D01*
X035252Y017593D01*
X035202Y017602D01*
X035154Y017615D01*
X035107Y017631D01*
X035061Y017652D01*
X035017Y017676D01*
X034975Y017703D01*
X034935Y017733D01*
X034898Y017767D01*
X034864Y017804D01*
X034832Y017843D01*
X034804Y017884D01*
X034779Y017928D01*
X034758Y017973D01*
X034741Y018020D01*
X034727Y018068D01*
X034717Y018117D01*
X034711Y018167D01*
X034709Y018217D01*
X035339Y019792D02*
X035416Y019790D01*
X035493Y019784D01*
X035570Y019775D01*
X035646Y019762D01*
X035722Y019745D01*
X035796Y019724D01*
X035870Y019700D01*
X035942Y019672D01*
X036012Y019641D01*
X036081Y019606D01*
X036149Y019568D01*
X036214Y019527D01*
X036277Y019482D01*
X036338Y019434D01*
X036397Y019384D01*
X036453Y019331D01*
X036506Y019275D01*
X036556Y019216D01*
X036604Y019155D01*
X036649Y019092D01*
X036690Y019027D01*
X036728Y018959D01*
X036763Y018890D01*
X036794Y018820D01*
X036822Y018748D01*
X036846Y018674D01*
X036867Y018600D01*
X036884Y018524D01*
X036897Y018448D01*
X036906Y018371D01*
X036912Y018294D01*
X036914Y018217D01*
X036914Y002075D01*
X034709Y002075D02*
X034711Y002125D01*
X034717Y002175D01*
X034727Y002224D01*
X034741Y002272D01*
X034758Y002319D01*
X034779Y002364D01*
X034804Y002408D01*
X034832Y002449D01*
X034864Y002488D01*
X034898Y002525D01*
X034935Y002559D01*
X034975Y002589D01*
X035017Y002616D01*
X035061Y002640D01*
X035107Y002661D01*
X035154Y002677D01*
X035202Y002690D01*
X035252Y002699D01*
X035301Y002704D01*
X035352Y002705D01*
X035402Y002702D01*
X035451Y002695D01*
X035500Y002684D01*
X035548Y002669D01*
X035594Y002651D01*
X035639Y002629D01*
X035682Y002603D01*
X035723Y002574D01*
X035762Y002542D01*
X035798Y002507D01*
X035830Y002469D01*
X035860Y002429D01*
X035887Y002386D01*
X035910Y002342D01*
X035929Y002296D01*
X035945Y002248D01*
X035957Y002199D01*
X035965Y002150D01*
X035969Y002100D01*
X035969Y002050D01*
X035965Y002000D01*
X035957Y001951D01*
X035945Y001902D01*
X035929Y001854D01*
X035910Y001808D01*
X035887Y001764D01*
X035860Y001721D01*
X035830Y001681D01*
X035798Y001643D01*
X035762Y001608D01*
X035723Y001576D01*
X035682Y001547D01*
X035639Y001521D01*
X035594Y001499D01*
X035548Y001481D01*
X035500Y001466D01*
X035451Y001455D01*
X035402Y001448D01*
X035352Y001445D01*
X035301Y001446D01*
X035252Y001451D01*
X035202Y001460D01*
X035154Y001473D01*
X035107Y001489D01*
X035061Y001510D01*
X035017Y001534D01*
X034975Y001561D01*
X034935Y001591D01*
X034898Y001625D01*
X034864Y001662D01*
X034832Y001701D01*
X034804Y001742D01*
X034779Y001786D01*
X034758Y001831D01*
X034741Y001878D01*
X034727Y001926D01*
X034717Y001975D01*
X034711Y002025D01*
X034709Y002075D01*
X035339Y000500D02*
X035416Y000502D01*
X035493Y000508D01*
X035570Y000517D01*
X035646Y000530D01*
X035722Y000547D01*
X035796Y000568D01*
X035870Y000592D01*
X035942Y000620D01*
X036012Y000651D01*
X036081Y000686D01*
X036149Y000724D01*
X036214Y000765D01*
X036277Y000810D01*
X036338Y000858D01*
X036397Y000908D01*
X036453Y000961D01*
X036506Y001017D01*
X036556Y001076D01*
X036604Y001137D01*
X036649Y001200D01*
X036690Y001265D01*
X036728Y001333D01*
X036763Y001402D01*
X036794Y001472D01*
X036822Y001544D01*
X036846Y001618D01*
X036867Y001692D01*
X036884Y001768D01*
X036897Y001844D01*
X036906Y001921D01*
X036912Y001998D01*
X036914Y002075D01*
X035339Y000500D02*
X006993Y000500D01*
X006363Y002075D02*
X006365Y002125D01*
X006371Y002175D01*
X006381Y002224D01*
X006395Y002272D01*
X006412Y002319D01*
X006433Y002364D01*
X006458Y002408D01*
X006486Y002449D01*
X006518Y002488D01*
X006552Y002525D01*
X006589Y002559D01*
X006629Y002589D01*
X006671Y002616D01*
X006715Y002640D01*
X006761Y002661D01*
X006808Y002677D01*
X006856Y002690D01*
X006906Y002699D01*
X006955Y002704D01*
X007006Y002705D01*
X007056Y002702D01*
X007105Y002695D01*
X007154Y002684D01*
X007202Y002669D01*
X007248Y002651D01*
X007293Y002629D01*
X007336Y002603D01*
X007377Y002574D01*
X007416Y002542D01*
X007452Y002507D01*
X007484Y002469D01*
X007514Y002429D01*
X007541Y002386D01*
X007564Y002342D01*
X007583Y002296D01*
X007599Y002248D01*
X007611Y002199D01*
X007619Y002150D01*
X007623Y002100D01*
X007623Y002050D01*
X007619Y002000D01*
X007611Y001951D01*
X007599Y001902D01*
X007583Y001854D01*
X007564Y001808D01*
X007541Y001764D01*
X007514Y001721D01*
X007484Y001681D01*
X007452Y001643D01*
X007416Y001608D01*
X007377Y001576D01*
X007336Y001547D01*
X007293Y001521D01*
X007248Y001499D01*
X007202Y001481D01*
X007154Y001466D01*
X007105Y001455D01*
X007056Y001448D01*
X007006Y001445D01*
X006955Y001446D01*
X006906Y001451D01*
X006856Y001460D01*
X006808Y001473D01*
X006761Y001489D01*
X006715Y001510D01*
X006671Y001534D01*
X006629Y001561D01*
X006589Y001591D01*
X006552Y001625D01*
X006518Y001662D01*
X006486Y001701D01*
X006458Y001742D01*
X006433Y001786D01*
X006412Y001831D01*
X006395Y001878D01*
X006381Y001926D01*
X006371Y001975D01*
X006365Y002025D01*
X006363Y002075D01*
X005418Y002075D02*
X005420Y001998D01*
X005426Y001921D01*
X005435Y001844D01*
X005448Y001768D01*
X005465Y001692D01*
X005486Y001618D01*
X005510Y001544D01*
X005538Y001472D01*
X005569Y001402D01*
X005604Y001333D01*
X005642Y001265D01*
X005683Y001200D01*
X005728Y001137D01*
X005776Y001076D01*
X005826Y001017D01*
X005879Y000961D01*
X005935Y000908D01*
X005994Y000858D01*
X006055Y000810D01*
X006118Y000765D01*
X006183Y000724D01*
X006251Y000686D01*
X006320Y000651D01*
X006390Y000620D01*
X006462Y000592D01*
X006536Y000568D01*
X006610Y000547D01*
X006686Y000530D01*
X006762Y000517D01*
X006839Y000508D01*
X006916Y000502D01*
X006993Y000500D01*
D13*
X018794Y001738D03*
X019542Y001738D03*
X019542Y002758D03*
X019168Y002758D03*
X018794Y002758D03*
D14*
X020638Y003000D03*
X020638Y002500D03*
X020638Y002000D03*
X020638Y001500D03*
X022698Y001500D03*
X022698Y002000D03*
X022698Y002500D03*
X022698Y003000D03*
D15*
X021968Y003750D03*
X021368Y003750D03*
D16*
X021418Y005750D03*
X022418Y005750D03*
X023418Y005750D03*
X024418Y005750D03*
X025418Y005750D03*
X026418Y005750D03*
X027418Y005750D03*
X028418Y005750D03*
X029418Y005750D03*
X030418Y005750D03*
X031418Y005750D03*
X032418Y005750D03*
X033418Y005750D03*
X034418Y005750D03*
X035418Y005750D03*
X035418Y006750D03*
X034418Y006750D03*
X033418Y006750D03*
X032418Y006750D03*
X031418Y006750D03*
X030418Y006750D03*
X029418Y006750D03*
X028418Y006750D03*
X027418Y006750D03*
X026418Y006750D03*
X025418Y006750D03*
X024418Y006750D03*
X023418Y006750D03*
X022418Y006750D03*
X021418Y006750D03*
X020418Y006750D03*
X019418Y006750D03*
X018418Y006750D03*
X017418Y006750D03*
X016418Y006750D03*
X015418Y006750D03*
X014418Y006750D03*
X013418Y006750D03*
X012418Y006750D03*
X011418Y006750D03*
X010418Y006750D03*
X009418Y006750D03*
X008418Y006750D03*
X007418Y006750D03*
X006418Y006750D03*
X006418Y005750D03*
X007418Y005750D03*
X008418Y005750D03*
X009418Y005750D03*
X010418Y005750D03*
X011418Y005750D03*
X012418Y005750D03*
X013418Y005750D03*
X014418Y005750D03*
X015418Y005750D03*
X016418Y005750D03*
X017418Y005750D03*
X018418Y005750D03*
X019418Y005750D03*
X020418Y005750D03*
X017418Y004750D03*
X016418Y004750D03*
X015418Y004750D03*
X014418Y004750D03*
X013418Y004750D03*
X012418Y004750D03*
X011418Y004750D03*
X010418Y004750D03*
X009418Y004750D03*
X008418Y004750D03*
X007418Y004750D03*
X006418Y004750D03*
X006418Y003750D03*
X007418Y003750D03*
X008418Y003750D03*
X009418Y003750D03*
X010418Y003750D03*
X011418Y003750D03*
X012418Y003750D03*
X013418Y003750D03*
X014418Y003750D03*
X015418Y003750D03*
X016418Y003750D03*
X017418Y003750D03*
X017418Y002750D03*
X016418Y002750D03*
X015418Y002750D03*
X014418Y002750D03*
X013418Y002750D03*
X012418Y002750D03*
X011418Y002750D03*
X010418Y002750D03*
X009418Y002750D03*
X008418Y002750D03*
X008418Y001750D03*
X009418Y001750D03*
X010418Y001750D03*
X011418Y001750D03*
X012418Y001750D03*
X013418Y001750D03*
X014418Y001750D03*
X015418Y001750D03*
X016418Y001750D03*
X017418Y001750D03*
X017418Y007750D03*
X016418Y007750D03*
X015418Y007750D03*
X014418Y007750D03*
X013418Y007750D03*
X012418Y007750D03*
X011418Y007750D03*
X010418Y007750D03*
X009418Y007750D03*
X008418Y007750D03*
X007418Y007750D03*
X006418Y007750D03*
X006418Y008750D03*
X007418Y008750D03*
X008418Y008750D03*
X009418Y008750D03*
X010418Y008750D03*
X011418Y008750D03*
X012418Y008750D03*
X013418Y008750D03*
X014418Y008750D03*
X015418Y008750D03*
X016418Y008750D03*
X017418Y008750D03*
X018418Y008750D03*
X019418Y008750D03*
X020418Y008750D03*
X021418Y008750D03*
X022418Y008750D03*
X023418Y008750D03*
X024418Y008750D03*
X025418Y008750D03*
X026418Y008750D03*
X027418Y008750D03*
X028418Y008750D03*
X029418Y008750D03*
X030418Y008750D03*
X031418Y008750D03*
X032418Y008750D03*
X033418Y008750D03*
X033418Y007750D03*
X034418Y007750D03*
X035418Y007750D03*
X032418Y007750D03*
X031418Y007750D03*
X030418Y007750D03*
X029418Y007750D03*
X028418Y007750D03*
X027418Y007750D03*
X026418Y007750D03*
X025418Y007750D03*
X024418Y007750D03*
X023418Y007750D03*
X022418Y007750D03*
X021418Y007750D03*
X020418Y007750D03*
X019418Y007750D03*
X018418Y007750D03*
X018418Y009750D03*
X019418Y009750D03*
X020418Y009750D03*
X021418Y009750D03*
X022418Y009750D03*
X023418Y009750D03*
X024418Y009750D03*
X025418Y009750D03*
X026418Y009750D03*
X027418Y009750D03*
X028418Y009750D03*
X029418Y009750D03*
X030418Y009750D03*
X031418Y009750D03*
X032418Y009750D03*
X033418Y009750D03*
X033418Y010750D03*
X034418Y010750D03*
X035418Y010750D03*
X035418Y011750D03*
X034418Y011750D03*
X033418Y011750D03*
X032418Y011750D03*
X031418Y011750D03*
X030418Y011750D03*
X029418Y011750D03*
X028418Y011750D03*
X027418Y011750D03*
X026418Y011750D03*
X025418Y011750D03*
X024418Y011750D03*
X023418Y011750D03*
X022418Y011750D03*
X021418Y011750D03*
X020418Y011750D03*
X019418Y011750D03*
X018418Y011750D03*
X017418Y011750D03*
X016418Y011750D03*
X015418Y011750D03*
X014418Y011750D03*
X013418Y011750D03*
X012418Y011750D03*
X011418Y011750D03*
X010418Y011750D03*
X009418Y011750D03*
X008418Y011750D03*
X007418Y011750D03*
X006418Y011750D03*
X006418Y010750D03*
X007418Y010750D03*
X008418Y010750D03*
X009418Y010750D03*
X010418Y010750D03*
X011418Y010750D03*
X012418Y010750D03*
X013418Y010750D03*
X014418Y010750D03*
X015418Y010750D03*
X016418Y010750D03*
X017418Y010750D03*
X018418Y010750D03*
X019418Y010750D03*
X020418Y010750D03*
X021418Y010750D03*
X022418Y010750D03*
X023418Y010750D03*
X024418Y010750D03*
X025418Y010750D03*
X026418Y010750D03*
X027418Y010750D03*
X028418Y010750D03*
X029418Y010750D03*
X030418Y010750D03*
X031418Y010750D03*
X032418Y010750D03*
X032418Y012750D03*
X031418Y012750D03*
X030418Y012750D03*
X029418Y012750D03*
X028418Y012750D03*
X027418Y012750D03*
X026418Y012750D03*
X025418Y012750D03*
X024418Y012750D03*
X023418Y012750D03*
X022418Y012750D03*
X021418Y012750D03*
X020418Y012750D03*
X019418Y012750D03*
X018418Y012750D03*
X017418Y012750D03*
X016418Y012750D03*
X015418Y012750D03*
X014418Y012750D03*
X013418Y012750D03*
X012418Y012750D03*
X011418Y012750D03*
X010418Y012750D03*
X009418Y012750D03*
X008418Y012750D03*
X007418Y012750D03*
X006418Y012750D03*
X006418Y013750D03*
X007418Y013750D03*
X008418Y013750D03*
X009418Y013750D03*
X010418Y013750D03*
X011418Y013750D03*
X012418Y013750D03*
X013418Y013750D03*
X014418Y013750D03*
X015418Y013750D03*
X016418Y013750D03*
X017418Y013750D03*
X018418Y013750D03*
X019418Y013750D03*
X020418Y013750D03*
X021418Y013750D03*
X022418Y013750D03*
X023418Y013750D03*
X024418Y013750D03*
X025418Y013750D03*
X026418Y013750D03*
X027418Y013750D03*
X028418Y013750D03*
X029418Y013750D03*
X030418Y013750D03*
X031418Y013750D03*
X032418Y013750D03*
X033418Y013750D03*
X034418Y013750D03*
X035418Y013750D03*
X035418Y012750D03*
X034418Y012750D03*
X033418Y012750D03*
X017418Y014750D03*
X016418Y014750D03*
X015418Y014750D03*
X014418Y014750D03*
X013418Y014750D03*
X012418Y014750D03*
X011418Y014750D03*
X010418Y014750D03*
X009418Y014750D03*
X008418Y014750D03*
X007418Y014750D03*
X006418Y014750D03*
X006418Y015750D03*
X007418Y015750D03*
X008418Y015750D03*
X009418Y015750D03*
X010418Y015750D03*
X011418Y015750D03*
X012418Y015750D03*
X013418Y015750D03*
X014418Y015750D03*
X015418Y015750D03*
X016418Y015750D03*
X017418Y015750D03*
X017418Y016750D03*
X016418Y016750D03*
X015418Y016750D03*
X014418Y016750D03*
X013418Y016750D03*
X012418Y016750D03*
X011418Y016750D03*
X010418Y016750D03*
X009418Y016750D03*
X008418Y016750D03*
X007418Y016750D03*
X006418Y016750D03*
X008418Y017750D03*
X009418Y017750D03*
X010418Y017750D03*
X011418Y017750D03*
X012418Y017750D03*
X013418Y017750D03*
X014418Y017750D03*
X015418Y017750D03*
X016418Y017750D03*
X017418Y017750D03*
X017418Y018750D03*
X016418Y018750D03*
X015418Y018750D03*
X014418Y018750D03*
X013418Y018750D03*
X012418Y018750D03*
X011418Y018750D03*
X010418Y018750D03*
X009418Y018750D03*
X008418Y018750D03*
X008418Y009750D03*
X009418Y009750D03*
X010418Y009750D03*
X011418Y009750D03*
X012418Y009750D03*
X013418Y009750D03*
X014418Y009750D03*
X015418Y009750D03*
X016418Y009750D03*
X017418Y009750D03*
X007418Y009750D03*
X006418Y009750D03*
D17*
X022418Y014750D03*
X023418Y014750D03*
X024418Y014750D03*
X025418Y014750D03*
X030418Y014750D03*
X031418Y014750D03*
X032418Y014750D03*
X033418Y014750D03*
X033418Y004750D03*
X032418Y004750D03*
X031418Y004750D03*
X030418Y004750D03*
X029418Y004750D03*
X028418Y004750D03*
X027418Y004750D03*
X026418Y004750D03*
X025418Y004750D03*
X024418Y004750D03*
D18*
X034418Y015625D03*
X035418Y015625D03*
X035418Y016625D03*
X034418Y016625D03*
D19*
X031918Y017000D03*
X030918Y017500D03*
X029918Y017000D03*
X028918Y017500D03*
X027918Y017000D03*
X026918Y017500D03*
X027918Y019000D03*
X029918Y019000D03*
X031918Y019000D03*
X030918Y015500D03*
X028918Y015500D03*
X026918Y015500D03*
X023918Y017000D03*
X022918Y017500D03*
X021918Y017000D03*
X020918Y017500D03*
X019918Y017000D03*
X018918Y017500D03*
X019918Y019000D03*
X021918Y019000D03*
X023918Y019000D03*
X022918Y015500D03*
X020918Y015500D03*
X018918Y015500D03*
X030918Y004250D03*
X033168Y003500D03*
X031918Y003000D03*
X030918Y002250D03*
X030418Y002250D03*
X029418Y002250D03*
X028418Y002250D03*
X027418Y002250D03*
X026418Y002250D03*
X025418Y002250D03*
X024418Y002250D03*
X023668Y002000D03*
X023418Y002500D03*
X021918Y002750D03*
X021668Y002000D03*
X021168Y002000D03*
X021418Y001500D03*
X019918Y002000D03*
X019168Y002250D03*
X019668Y002500D03*
X018418Y002750D03*
X032918Y001750D03*
D20*
X032918Y001600D01*
X033418Y001600D01*
X032418Y002900D02*
X031918Y002900D01*
X031918Y003000D01*
X030418Y002900D02*
X030418Y002250D01*
X029418Y002250D02*
X029418Y001600D01*
X028418Y002250D02*
X028418Y002900D01*
X027418Y002250D02*
X027418Y001600D01*
X026418Y002250D02*
X026418Y002900D01*
X025418Y002250D02*
X025418Y001600D01*
X024418Y002250D02*
X024418Y002900D01*
X025418Y004750D02*
X024918Y005250D01*
X024918Y010000D01*
X024918Y010250D01*
X025168Y010250D01*
X034918Y010250D01*
X035418Y010750D01*
X036043Y010000D02*
X034418Y008375D01*
X034418Y007750D01*
X034418Y008375D02*
X034418Y009000D01*
X033668Y009750D01*
X033418Y009750D01*
X036043Y010000D02*
X036043Y016125D01*
X035543Y016625D01*
X035418Y016625D01*
X034418Y016625D01*
X033418Y016500D02*
X032918Y017000D01*
X031918Y017000D01*
X031418Y016500D02*
X030918Y017000D01*
X029918Y017000D01*
X029418Y016500D02*
X028918Y017000D01*
X027918Y017000D01*
X027918Y017500D02*
X026918Y017500D01*
X027918Y017500D02*
X028418Y018000D01*
X028418Y018325D01*
X028918Y019000D02*
X029418Y018500D01*
X029418Y018325D01*
X029918Y017500D02*
X030418Y018000D01*
X030418Y018325D01*
X030918Y019000D02*
X029918Y019000D01*
X028918Y019000D02*
X027918Y019000D01*
X025418Y018500D02*
X025418Y018325D01*
X025418Y018500D02*
X024918Y019000D01*
X023918Y019000D01*
X023418Y018500D02*
X022918Y019000D01*
X021918Y019000D01*
X021418Y018500D02*
X020918Y019000D01*
X019918Y019000D01*
X020418Y018325D02*
X020418Y018000D01*
X019918Y017500D01*
X018918Y017500D01*
X019918Y017000D02*
X020918Y017000D01*
X021418Y016500D01*
X021418Y016175D01*
X021918Y015500D02*
X022418Y016000D01*
X022418Y016175D01*
X021918Y015500D02*
X020918Y015500D01*
X020418Y016000D02*
X019918Y015500D01*
X018918Y015500D01*
X020418Y016000D02*
X020418Y016175D01*
X021918Y017000D02*
X022918Y017000D01*
X023418Y016500D01*
X023418Y016175D01*
X023918Y015500D02*
X024418Y016000D01*
X024418Y016175D01*
X024918Y017000D02*
X025418Y016500D01*
X025418Y016175D01*
X023918Y015500D02*
X022918Y015500D01*
X023918Y017000D02*
X024918Y017000D01*
X023918Y017500D02*
X022918Y017500D01*
X022418Y018000D02*
X021918Y017500D01*
X020918Y017500D01*
X022418Y018000D02*
X022418Y018325D01*
X021418Y018325D02*
X021418Y018500D01*
X023418Y018500D02*
X023418Y018325D01*
X023918Y017500D02*
X024418Y018000D01*
X024418Y018325D01*
X028418Y016175D02*
X028418Y016000D01*
X027918Y015500D01*
X026918Y015500D01*
X028918Y015500D02*
X029918Y015500D01*
X030418Y016000D01*
X030418Y016175D01*
X029418Y016175D02*
X029418Y016500D01*
X029918Y017500D02*
X028918Y017500D01*
X030918Y017500D02*
X031918Y017500D01*
X032418Y018000D01*
X032418Y018325D01*
X031418Y018325D02*
X031418Y018500D01*
X030918Y019000D01*
X031918Y019000D02*
X032918Y019000D01*
X033418Y018500D01*
X033418Y018325D01*
X033418Y016500D02*
X033418Y016175D01*
X032418Y016175D02*
X032418Y016000D01*
X031918Y015500D01*
X030918Y015500D01*
X031418Y016175D02*
X031418Y016500D01*
X027418Y009750D02*
X026918Y009250D01*
X026918Y005250D01*
X027418Y004750D01*
D21*
X024168Y004000D02*
X023418Y003250D01*
X023418Y002750D01*
X023168Y002500D01*
X022698Y002500D01*
X023418Y002500D01*
X023668Y002250D02*
X023418Y002000D01*
X022698Y002000D01*
X023668Y002000D01*
X023918Y001750D02*
X023668Y001500D01*
X022698Y001500D01*
X022168Y001000D02*
X021918Y001250D01*
X021918Y002750D01*
X021918Y003000D01*
X022698Y003000D01*
X021918Y003000D02*
X021918Y002750D01*
X021918Y003000D02*
X021918Y003700D01*
X021968Y003750D01*
X021918Y003800D01*
X021918Y004000D01*
X021418Y003700D02*
X021368Y003750D01*
X021418Y003700D02*
X021418Y003500D01*
X021668Y003250D01*
X021668Y002000D01*
X021668Y001750D02*
X021668Y001000D01*
X021918Y000750D01*
X022168Y000750D01*
X029168Y000750D01*
X029418Y001000D01*
X029418Y001600D01*
X030918Y002250D02*
X031418Y001750D01*
X031418Y001600D01*
X032918Y001750D02*
X032918Y003250D01*
X032418Y003750D01*
X024168Y003750D01*
X023668Y003250D01*
X023668Y002250D01*
X023918Y001750D02*
X023918Y003250D01*
X024168Y003500D01*
X031668Y003500D01*
X031918Y003250D01*
X031918Y003000D01*
X032668Y004000D02*
X033168Y003500D01*
X032668Y004000D02*
X024168Y004000D01*
X021168Y004250D02*
X020918Y004000D01*
X020918Y003500D01*
X020668Y003250D01*
X018418Y003250D01*
X018168Y003000D01*
X018168Y002000D01*
X018430Y001738D01*
X018794Y001738D01*
X019542Y001738D02*
X019930Y001738D01*
X020168Y001500D01*
X020638Y001500D01*
X021418Y001500D01*
X021418Y001750D02*
X021668Y001750D01*
X021418Y001750D02*
X021418Y002250D01*
X021168Y002500D01*
X020638Y002500D01*
X020638Y003000D02*
X020168Y003000D01*
X019918Y002750D01*
X019918Y002000D01*
X020638Y002000D02*
X021168Y002000D01*
X019668Y002500D02*
X019542Y002626D01*
X019542Y002758D01*
X019168Y002758D02*
X019168Y002250D01*
X018794Y002758D02*
X018794Y002876D01*
X018544Y002876D01*
X018418Y002750D01*
X021168Y004250D02*
X030918Y004250D01*
X027418Y001600D02*
X027418Y001250D01*
X027168Y001000D01*
X022168Y001000D01*
M02*
