%
M48
M72
T01C0.0118
T02C0.0320
T03C0.0360
T04C0.0413
T05C0.0512
T06C0.1102
T07C0.1260
%
T01
X23585Y20637
X25635Y21320
X27135Y21570
X27885Y21320
X27885Y19820
X30555Y21517
X31055Y22017
X29585Y22987
X27885Y23820
X30055Y26017
X29078Y27594
X31685Y24957
X35585Y26457
X35825Y26217
X36185Y25857
X35585Y26937
X35585Y27417
X35585Y27897
X36845Y29157
X37085Y28917
X37325Y28677
X37565Y28437
X37805Y28197
X38165Y27837
X39238Y29094
X39883Y30041
X39338Y30818
X39638Y31178
X40996Y30897
X42638Y32078
X44548Y32069
X44596Y31677
X43756Y29937
X44356Y28377
X43427Y26498
X41176Y27777
X40876Y27897
X40756Y28917
X41018Y29138
X39698Y26798
X39256Y26397
X38956Y26397
X41055Y24267
X40205Y22817
X41585Y22397
X41645Y21917
X43305Y21277
X43745Y21657
X43445Y22157
X43745Y23177
X44305Y20767
X39305Y21517
X38305Y21517
X31305Y20637
X23635Y25570
X24065Y29277
X24995Y31017
X24555Y32267
X22805Y32767
X21785Y31137
X24555Y34517
X25505Y35457
X29285Y33537
X29705Y33717
X30545Y33717
X31480Y32249
X30094Y35697
X36916Y32397
X37178Y32198
X37988Y31509
X36938Y30398
X38583Y32950
X39698Y33218
X43396Y33957
X43936Y34197
T02
X43805Y20767
X42805Y20767
X41805Y20767
X40805Y20767
X39805Y20767
X38805Y20767
X44805Y20767
X45805Y20767
X46805Y20767
X47805Y20767
T03
X47805Y35267
X47805Y36267
X46805Y36267
X46805Y35267
X45805Y35267
X44805Y35267
X44805Y36267
X45805Y36267
X43805Y36267
X43805Y35267
X42805Y35267
X42805Y36267
X41805Y36267
X41805Y35267
X40805Y35267
X40805Y36267
X39805Y36267
X39805Y35267
X38805Y35267
X37805Y35267
X37805Y36267
X38805Y36267
X36805Y36267
X36805Y35267
X35805Y35267
X35805Y36267
X34805Y36267
X34805Y35267
X33805Y35267
X32805Y35267
X32805Y36267
X33805Y36267
T04
X49672Y29682
X49672Y27713
T05
X50735Y27319
X50735Y30075
T06
X48322Y25580
X49661Y23691
T07
X21380Y20592
X21380Y36734
X47200Y23691
X49726Y20592
X49726Y36734
M30
