G75*
G70*
%OFA0B0*%
%FSLAX24Y24*%
%IPPOS*%
%LPD*%
%AMOC8*
5,1,8,0,0,1.08239X$1,22.5*
%
%ADD10C,0.0000*%
%ADD11R,0.0433X0.0394*%
%ADD12R,0.0413X0.0425*%
%ADD13R,0.0425X0.0413*%
%ADD14R,0.1100X0.0290*%
%ADD15R,0.0272X0.0394*%
%ADD16R,0.1063X0.0630*%
%ADD17R,0.0512X0.0591*%
%ADD18R,0.0579X0.0500*%
%ADD19R,0.2362X0.0787*%
%ADD20R,0.0709X0.0630*%
%ADD21R,0.0866X0.0236*%
%ADD22R,0.0394X0.0433*%
%ADD23R,0.0315X0.0354*%
%ADD24R,0.0394X0.0709*%
%ADD25C,0.1660*%
%ADD26C,0.1502*%
%ADD27R,0.0295X0.0276*%
%ADD28C,0.0560*%
%ADD29OC8,0.0560*%
%ADD30R,0.0709X0.0551*%
%ADD31R,0.0551X0.0748*%
%ADD32R,0.0315X0.0591*%
%ADD33R,0.0600X0.0300*%
%ADD34R,0.0472X0.0472*%
%ADD35C,0.0520*%
%ADD36R,0.0197X0.0394*%
%ADD37R,0.0870X0.0240*%
%ADD38R,0.0460X0.0630*%
%ADD39R,0.1000X0.1000*%
%ADD40R,0.0551X0.0138*%
%ADD41C,0.0768*%
%ADD42C,0.0620*%
%ADD43R,0.0591X0.0591*%
%ADD44R,0.0354X0.0118*%
%ADD45R,0.0118X0.0354*%
%ADD46C,0.0197*%
%ADD47C,0.0250*%
%ADD48C,0.0238*%
%ADD49C,0.0138*%
%ADD50C,0.0098*%
%ADD51C,0.0118*%
%ADD52C,0.0126*%
%ADD53C,0.0060*%
D10*
X005612Y019785D02*
X033958Y019785D01*
X033328Y021360D02*
X033330Y021410D01*
X033336Y021460D01*
X033346Y021509D01*
X033360Y021557D01*
X033377Y021604D01*
X033398Y021649D01*
X033423Y021693D01*
X033451Y021734D01*
X033483Y021773D01*
X033517Y021810D01*
X033554Y021844D01*
X033594Y021874D01*
X033636Y021901D01*
X033680Y021925D01*
X033726Y021946D01*
X033773Y021962D01*
X033821Y021975D01*
X033871Y021984D01*
X033920Y021989D01*
X033971Y021990D01*
X034021Y021987D01*
X034070Y021980D01*
X034119Y021969D01*
X034167Y021954D01*
X034213Y021936D01*
X034258Y021914D01*
X034301Y021888D01*
X034342Y021859D01*
X034381Y021827D01*
X034417Y021792D01*
X034449Y021754D01*
X034479Y021714D01*
X034506Y021671D01*
X034529Y021627D01*
X034548Y021581D01*
X034564Y021533D01*
X034576Y021484D01*
X034584Y021435D01*
X034588Y021385D01*
X034588Y021335D01*
X034584Y021285D01*
X034576Y021236D01*
X034564Y021187D01*
X034548Y021139D01*
X034529Y021093D01*
X034506Y021049D01*
X034479Y021006D01*
X034449Y020966D01*
X034417Y020928D01*
X034381Y020893D01*
X034342Y020861D01*
X034301Y020832D01*
X034258Y020806D01*
X034213Y020784D01*
X034167Y020766D01*
X034119Y020751D01*
X034070Y020740D01*
X034021Y020733D01*
X033971Y020730D01*
X033920Y020731D01*
X033871Y020736D01*
X033821Y020745D01*
X033773Y020758D01*
X033726Y020774D01*
X033680Y020795D01*
X033636Y020819D01*
X033594Y020846D01*
X033554Y020876D01*
X033517Y020910D01*
X033483Y020947D01*
X033451Y020986D01*
X033423Y021027D01*
X033398Y021071D01*
X033377Y021116D01*
X033360Y021163D01*
X033346Y021211D01*
X033336Y021260D01*
X033330Y021310D01*
X033328Y021360D01*
X033958Y019785D02*
X034035Y019787D01*
X034112Y019793D01*
X034189Y019802D01*
X034265Y019815D01*
X034341Y019832D01*
X034415Y019853D01*
X034489Y019877D01*
X034561Y019905D01*
X034631Y019936D01*
X034700Y019971D01*
X034768Y020009D01*
X034833Y020050D01*
X034896Y020095D01*
X034957Y020143D01*
X035016Y020193D01*
X035072Y020246D01*
X035125Y020302D01*
X035175Y020361D01*
X035223Y020422D01*
X035268Y020485D01*
X035309Y020550D01*
X035347Y020618D01*
X035382Y020687D01*
X035413Y020757D01*
X035441Y020829D01*
X035465Y020903D01*
X035486Y020977D01*
X035503Y021053D01*
X035516Y021129D01*
X035525Y021206D01*
X035531Y021283D01*
X035533Y021360D01*
X035533Y022639D01*
X035534Y022656D01*
X035539Y022673D01*
X035546Y022688D01*
X035556Y022702D01*
X035568Y022714D01*
X035582Y022724D01*
X035597Y022731D01*
X035614Y022736D01*
X035631Y022737D01*
X035631Y022738D02*
X036222Y022738D01*
X036222Y022737D02*
X036239Y022736D01*
X036256Y022731D01*
X036271Y022724D01*
X036285Y022714D01*
X036297Y022702D01*
X036307Y022688D01*
X036314Y022673D01*
X036319Y022656D01*
X036320Y022639D01*
X036320Y022147D01*
X036322Y022108D01*
X036328Y022070D01*
X036337Y022033D01*
X036350Y021996D01*
X036367Y021961D01*
X036386Y021928D01*
X036409Y021897D01*
X036435Y021868D01*
X036464Y021842D01*
X036495Y021819D01*
X036528Y021800D01*
X036563Y021783D01*
X036600Y021770D01*
X036637Y021761D01*
X036675Y021755D01*
X036714Y021753D01*
X036714Y021754D02*
X038289Y021754D01*
X038289Y021753D02*
X038328Y021755D01*
X038366Y021761D01*
X038403Y021770D01*
X038440Y021783D01*
X038475Y021800D01*
X038508Y021819D01*
X038539Y021842D01*
X038568Y021868D01*
X038594Y021897D01*
X038617Y021928D01*
X038636Y021961D01*
X038653Y021996D01*
X038666Y022033D01*
X038675Y022070D01*
X038681Y022108D01*
X038683Y022147D01*
X038683Y036714D01*
X038681Y036753D01*
X038675Y036791D01*
X038666Y036828D01*
X038653Y036865D01*
X038636Y036900D01*
X038617Y036933D01*
X038594Y036964D01*
X038568Y036993D01*
X038539Y037019D01*
X038508Y037042D01*
X038475Y037061D01*
X038440Y037078D01*
X038403Y037091D01*
X038366Y037100D01*
X038328Y037106D01*
X038289Y037108D01*
X036714Y037108D01*
X036675Y037106D01*
X036637Y037100D01*
X036600Y037091D01*
X036563Y037078D01*
X036528Y037061D01*
X036495Y037042D01*
X036464Y037019D01*
X036435Y036993D01*
X036409Y036964D01*
X036386Y036933D01*
X036367Y036900D01*
X036350Y036865D01*
X036337Y036828D01*
X036328Y036791D01*
X036322Y036753D01*
X036320Y036714D01*
X036320Y036616D01*
X036319Y036599D01*
X036314Y036582D01*
X036307Y036567D01*
X036297Y036553D01*
X036285Y036541D01*
X036271Y036531D01*
X036256Y036524D01*
X036239Y036519D01*
X036222Y036518D01*
X036222Y036517D02*
X035631Y036517D01*
X035631Y036518D02*
X035614Y036519D01*
X035597Y036524D01*
X035582Y036531D01*
X035568Y036541D01*
X035556Y036553D01*
X035546Y036567D01*
X035539Y036582D01*
X035534Y036599D01*
X035533Y036616D01*
X035533Y037502D01*
X035376Y036320D02*
X035378Y036345D01*
X035384Y036369D01*
X035393Y036391D01*
X035406Y036412D01*
X035422Y036431D01*
X035441Y036447D01*
X035462Y036460D01*
X035484Y036469D01*
X035508Y036475D01*
X035533Y036477D01*
X035558Y036475D01*
X035582Y036469D01*
X035604Y036460D01*
X035625Y036447D01*
X035644Y036431D01*
X035660Y036412D01*
X035673Y036391D01*
X035682Y036369D01*
X035688Y036345D01*
X035690Y036320D01*
X035688Y036295D01*
X035682Y036271D01*
X035673Y036249D01*
X035660Y036228D01*
X035644Y036209D01*
X035625Y036193D01*
X035604Y036180D01*
X035582Y036171D01*
X035558Y036165D01*
X035533Y036163D01*
X035508Y036165D01*
X035484Y036171D01*
X035462Y036180D01*
X035441Y036193D01*
X035422Y036209D01*
X035406Y036228D01*
X035393Y036249D01*
X035384Y036271D01*
X035378Y036295D01*
X035376Y036320D01*
X035376Y035927D02*
X035378Y035952D01*
X035384Y035976D01*
X035393Y035998D01*
X035406Y036019D01*
X035422Y036038D01*
X035441Y036054D01*
X035462Y036067D01*
X035484Y036076D01*
X035508Y036082D01*
X035533Y036084D01*
X035558Y036082D01*
X035582Y036076D01*
X035604Y036067D01*
X035625Y036054D01*
X035644Y036038D01*
X035660Y036019D01*
X035673Y035998D01*
X035682Y035976D01*
X035688Y035952D01*
X035690Y035927D01*
X035688Y035902D01*
X035682Y035878D01*
X035673Y035856D01*
X035660Y035835D01*
X035644Y035816D01*
X035625Y035800D01*
X035604Y035787D01*
X035582Y035778D01*
X035558Y035772D01*
X035533Y035770D01*
X035508Y035772D01*
X035484Y035778D01*
X035462Y035787D01*
X035441Y035800D01*
X035422Y035816D01*
X035406Y035835D01*
X035393Y035856D01*
X035384Y035878D01*
X035378Y035902D01*
X035376Y035927D01*
X035376Y035533D02*
X035378Y035558D01*
X035384Y035582D01*
X035393Y035604D01*
X035406Y035625D01*
X035422Y035644D01*
X035441Y035660D01*
X035462Y035673D01*
X035484Y035682D01*
X035508Y035688D01*
X035533Y035690D01*
X035558Y035688D01*
X035582Y035682D01*
X035604Y035673D01*
X035625Y035660D01*
X035644Y035644D01*
X035660Y035625D01*
X035673Y035604D01*
X035682Y035582D01*
X035688Y035558D01*
X035690Y035533D01*
X035688Y035508D01*
X035682Y035484D01*
X035673Y035462D01*
X035660Y035441D01*
X035644Y035422D01*
X035625Y035406D01*
X035604Y035393D01*
X035582Y035384D01*
X035558Y035378D01*
X035533Y035376D01*
X035508Y035378D01*
X035484Y035384D01*
X035462Y035393D01*
X035441Y035406D01*
X035422Y035422D01*
X035406Y035441D01*
X035393Y035462D01*
X035384Y035484D01*
X035378Y035508D01*
X035376Y035533D01*
X035376Y035139D02*
X035378Y035164D01*
X035384Y035188D01*
X035393Y035210D01*
X035406Y035231D01*
X035422Y035250D01*
X035441Y035266D01*
X035462Y035279D01*
X035484Y035288D01*
X035508Y035294D01*
X035533Y035296D01*
X035558Y035294D01*
X035582Y035288D01*
X035604Y035279D01*
X035625Y035266D01*
X035644Y035250D01*
X035660Y035231D01*
X035673Y035210D01*
X035682Y035188D01*
X035688Y035164D01*
X035690Y035139D01*
X035688Y035114D01*
X035682Y035090D01*
X035673Y035068D01*
X035660Y035047D01*
X035644Y035028D01*
X035625Y035012D01*
X035604Y034999D01*
X035582Y034990D01*
X035558Y034984D01*
X035533Y034982D01*
X035508Y034984D01*
X035484Y034990D01*
X035462Y034999D01*
X035441Y035012D01*
X035422Y035028D01*
X035406Y035047D01*
X035393Y035068D01*
X035384Y035090D01*
X035378Y035114D01*
X035376Y035139D01*
X035376Y034746D02*
X035378Y034771D01*
X035384Y034795D01*
X035393Y034817D01*
X035406Y034838D01*
X035422Y034857D01*
X035441Y034873D01*
X035462Y034886D01*
X035484Y034895D01*
X035508Y034901D01*
X035533Y034903D01*
X035558Y034901D01*
X035582Y034895D01*
X035604Y034886D01*
X035625Y034873D01*
X035644Y034857D01*
X035660Y034838D01*
X035673Y034817D01*
X035682Y034795D01*
X035688Y034771D01*
X035690Y034746D01*
X035688Y034721D01*
X035682Y034697D01*
X035673Y034675D01*
X035660Y034654D01*
X035644Y034635D01*
X035625Y034619D01*
X035604Y034606D01*
X035582Y034597D01*
X035558Y034591D01*
X035533Y034589D01*
X035508Y034591D01*
X035484Y034597D01*
X035462Y034606D01*
X035441Y034619D01*
X035422Y034635D01*
X035406Y034654D01*
X035393Y034675D01*
X035384Y034697D01*
X035378Y034721D01*
X035376Y034746D01*
X035631Y034549D02*
X036222Y034549D01*
X036222Y034548D02*
X036239Y034547D01*
X036256Y034542D01*
X036271Y034535D01*
X036285Y034525D01*
X036297Y034513D01*
X036307Y034499D01*
X036314Y034484D01*
X036319Y034467D01*
X036320Y034450D01*
X036320Y024805D01*
X036319Y024788D01*
X036314Y024771D01*
X036307Y024756D01*
X036297Y024742D01*
X036285Y024730D01*
X036271Y024720D01*
X036256Y024713D01*
X036239Y024708D01*
X036222Y024707D01*
X036222Y024706D02*
X035631Y024706D01*
X035631Y024707D02*
X035614Y024708D01*
X035597Y024713D01*
X035582Y024720D01*
X035568Y024730D01*
X035556Y024742D01*
X035546Y024756D01*
X035539Y024771D01*
X035534Y024788D01*
X035533Y024805D01*
X035533Y034450D01*
X035534Y034467D01*
X035539Y034484D01*
X035546Y034499D01*
X035556Y034513D01*
X035568Y034525D01*
X035582Y034535D01*
X035597Y034542D01*
X035614Y034547D01*
X035631Y034548D01*
X037010Y035533D02*
X037012Y035577D01*
X037018Y035621D01*
X037028Y035664D01*
X037041Y035706D01*
X037059Y035746D01*
X037080Y035785D01*
X037104Y035822D01*
X037131Y035857D01*
X037162Y035889D01*
X037195Y035918D01*
X037231Y035944D01*
X037269Y035966D01*
X037309Y035985D01*
X037350Y036001D01*
X037393Y036013D01*
X037436Y036021D01*
X037480Y036025D01*
X037524Y036025D01*
X037568Y036021D01*
X037611Y036013D01*
X037654Y036001D01*
X037695Y035985D01*
X037735Y035966D01*
X037773Y035944D01*
X037809Y035918D01*
X037842Y035889D01*
X037873Y035857D01*
X037900Y035822D01*
X037924Y035785D01*
X037945Y035746D01*
X037963Y035706D01*
X037976Y035664D01*
X037986Y035621D01*
X037992Y035577D01*
X037994Y035533D01*
X037992Y035489D01*
X037986Y035445D01*
X037976Y035402D01*
X037963Y035360D01*
X037945Y035320D01*
X037924Y035281D01*
X037900Y035244D01*
X037873Y035209D01*
X037842Y035177D01*
X037809Y035148D01*
X037773Y035122D01*
X037735Y035100D01*
X037695Y035081D01*
X037654Y035065D01*
X037611Y035053D01*
X037568Y035045D01*
X037524Y035041D01*
X037480Y035041D01*
X037436Y035045D01*
X037393Y035053D01*
X037350Y035065D01*
X037309Y035081D01*
X037269Y035100D01*
X037231Y035122D01*
X037195Y035148D01*
X037162Y035177D01*
X037131Y035209D01*
X037104Y035244D01*
X037080Y035281D01*
X037059Y035320D01*
X037041Y035360D01*
X037028Y035402D01*
X037018Y035445D01*
X037012Y035489D01*
X037010Y035533D01*
X036320Y031202D02*
X036320Y027659D01*
X035376Y024509D02*
X035378Y024534D01*
X035384Y024558D01*
X035393Y024580D01*
X035406Y024601D01*
X035422Y024620D01*
X035441Y024636D01*
X035462Y024649D01*
X035484Y024658D01*
X035508Y024664D01*
X035533Y024666D01*
X035558Y024664D01*
X035582Y024658D01*
X035604Y024649D01*
X035625Y024636D01*
X035644Y024620D01*
X035660Y024601D01*
X035673Y024580D01*
X035682Y024558D01*
X035688Y024534D01*
X035690Y024509D01*
X035688Y024484D01*
X035682Y024460D01*
X035673Y024438D01*
X035660Y024417D01*
X035644Y024398D01*
X035625Y024382D01*
X035604Y024369D01*
X035582Y024360D01*
X035558Y024354D01*
X035533Y024352D01*
X035508Y024354D01*
X035484Y024360D01*
X035462Y024369D01*
X035441Y024382D01*
X035422Y024398D01*
X035406Y024417D01*
X035393Y024438D01*
X035384Y024460D01*
X035378Y024484D01*
X035376Y024509D01*
X035376Y024116D02*
X035378Y024141D01*
X035384Y024165D01*
X035393Y024187D01*
X035406Y024208D01*
X035422Y024227D01*
X035441Y024243D01*
X035462Y024256D01*
X035484Y024265D01*
X035508Y024271D01*
X035533Y024273D01*
X035558Y024271D01*
X035582Y024265D01*
X035604Y024256D01*
X035625Y024243D01*
X035644Y024227D01*
X035660Y024208D01*
X035673Y024187D01*
X035682Y024165D01*
X035688Y024141D01*
X035690Y024116D01*
X035688Y024091D01*
X035682Y024067D01*
X035673Y024045D01*
X035660Y024024D01*
X035644Y024005D01*
X035625Y023989D01*
X035604Y023976D01*
X035582Y023967D01*
X035558Y023961D01*
X035533Y023959D01*
X035508Y023961D01*
X035484Y023967D01*
X035462Y023976D01*
X035441Y023989D01*
X035422Y024005D01*
X035406Y024024D01*
X035393Y024045D01*
X035384Y024067D01*
X035378Y024091D01*
X035376Y024116D01*
X035376Y023722D02*
X035378Y023747D01*
X035384Y023771D01*
X035393Y023793D01*
X035406Y023814D01*
X035422Y023833D01*
X035441Y023849D01*
X035462Y023862D01*
X035484Y023871D01*
X035508Y023877D01*
X035533Y023879D01*
X035558Y023877D01*
X035582Y023871D01*
X035604Y023862D01*
X035625Y023849D01*
X035644Y023833D01*
X035660Y023814D01*
X035673Y023793D01*
X035682Y023771D01*
X035688Y023747D01*
X035690Y023722D01*
X035688Y023697D01*
X035682Y023673D01*
X035673Y023651D01*
X035660Y023630D01*
X035644Y023611D01*
X035625Y023595D01*
X035604Y023582D01*
X035582Y023573D01*
X035558Y023567D01*
X035533Y023565D01*
X035508Y023567D01*
X035484Y023573D01*
X035462Y023582D01*
X035441Y023595D01*
X035422Y023611D01*
X035406Y023630D01*
X035393Y023651D01*
X035384Y023673D01*
X035378Y023697D01*
X035376Y023722D01*
X035376Y023328D02*
X035378Y023353D01*
X035384Y023377D01*
X035393Y023399D01*
X035406Y023420D01*
X035422Y023439D01*
X035441Y023455D01*
X035462Y023468D01*
X035484Y023477D01*
X035508Y023483D01*
X035533Y023485D01*
X035558Y023483D01*
X035582Y023477D01*
X035604Y023468D01*
X035625Y023455D01*
X035644Y023439D01*
X035660Y023420D01*
X035673Y023399D01*
X035682Y023377D01*
X035688Y023353D01*
X035690Y023328D01*
X035688Y023303D01*
X035682Y023279D01*
X035673Y023257D01*
X035660Y023236D01*
X035644Y023217D01*
X035625Y023201D01*
X035604Y023188D01*
X035582Y023179D01*
X035558Y023173D01*
X035533Y023171D01*
X035508Y023173D01*
X035484Y023179D01*
X035462Y023188D01*
X035441Y023201D01*
X035422Y023217D01*
X035406Y023236D01*
X035393Y023257D01*
X035384Y023279D01*
X035378Y023303D01*
X035376Y023328D01*
X035376Y022935D02*
X035378Y022960D01*
X035384Y022984D01*
X035393Y023006D01*
X035406Y023027D01*
X035422Y023046D01*
X035441Y023062D01*
X035462Y023075D01*
X035484Y023084D01*
X035508Y023090D01*
X035533Y023092D01*
X035558Y023090D01*
X035582Y023084D01*
X035604Y023075D01*
X035625Y023062D01*
X035644Y023046D01*
X035660Y023027D01*
X035673Y023006D01*
X035682Y022984D01*
X035688Y022960D01*
X035690Y022935D01*
X035688Y022910D01*
X035682Y022886D01*
X035673Y022864D01*
X035660Y022843D01*
X035644Y022824D01*
X035625Y022808D01*
X035604Y022795D01*
X035582Y022786D01*
X035558Y022780D01*
X035533Y022778D01*
X035508Y022780D01*
X035484Y022786D01*
X035462Y022795D01*
X035441Y022808D01*
X035422Y022824D01*
X035406Y022843D01*
X035393Y022864D01*
X035384Y022886D01*
X035378Y022910D01*
X035376Y022935D01*
X037010Y023722D02*
X037012Y023766D01*
X037018Y023810D01*
X037028Y023853D01*
X037041Y023895D01*
X037059Y023935D01*
X037080Y023974D01*
X037104Y024011D01*
X037131Y024046D01*
X037162Y024078D01*
X037195Y024107D01*
X037231Y024133D01*
X037269Y024155D01*
X037309Y024174D01*
X037350Y024190D01*
X037393Y024202D01*
X037436Y024210D01*
X037480Y024214D01*
X037524Y024214D01*
X037568Y024210D01*
X037611Y024202D01*
X037654Y024190D01*
X037695Y024174D01*
X037735Y024155D01*
X037773Y024133D01*
X037809Y024107D01*
X037842Y024078D01*
X037873Y024046D01*
X037900Y024011D01*
X037924Y023974D01*
X037945Y023935D01*
X037963Y023895D01*
X037976Y023853D01*
X037986Y023810D01*
X037992Y023766D01*
X037994Y023722D01*
X037992Y023678D01*
X037986Y023634D01*
X037976Y023591D01*
X037963Y023549D01*
X037945Y023509D01*
X037924Y023470D01*
X037900Y023433D01*
X037873Y023398D01*
X037842Y023366D01*
X037809Y023337D01*
X037773Y023311D01*
X037735Y023289D01*
X037695Y023270D01*
X037654Y023254D01*
X037611Y023242D01*
X037568Y023234D01*
X037524Y023230D01*
X037480Y023230D01*
X037436Y023234D01*
X037393Y023242D01*
X037350Y023254D01*
X037309Y023270D01*
X037269Y023289D01*
X037231Y023311D01*
X037195Y023337D01*
X037162Y023366D01*
X037131Y023398D01*
X037104Y023433D01*
X037080Y023470D01*
X037059Y023509D01*
X037041Y023549D01*
X037028Y023591D01*
X037018Y023634D01*
X037012Y023678D01*
X037010Y023722D01*
X033328Y037502D02*
X033330Y037552D01*
X033336Y037602D01*
X033346Y037651D01*
X033360Y037699D01*
X033377Y037746D01*
X033398Y037791D01*
X033423Y037835D01*
X033451Y037876D01*
X033483Y037915D01*
X033517Y037952D01*
X033554Y037986D01*
X033594Y038016D01*
X033636Y038043D01*
X033680Y038067D01*
X033726Y038088D01*
X033773Y038104D01*
X033821Y038117D01*
X033871Y038126D01*
X033920Y038131D01*
X033971Y038132D01*
X034021Y038129D01*
X034070Y038122D01*
X034119Y038111D01*
X034167Y038096D01*
X034213Y038078D01*
X034258Y038056D01*
X034301Y038030D01*
X034342Y038001D01*
X034381Y037969D01*
X034417Y037934D01*
X034449Y037896D01*
X034479Y037856D01*
X034506Y037813D01*
X034529Y037769D01*
X034548Y037723D01*
X034564Y037675D01*
X034576Y037626D01*
X034584Y037577D01*
X034588Y037527D01*
X034588Y037477D01*
X034584Y037427D01*
X034576Y037378D01*
X034564Y037329D01*
X034548Y037281D01*
X034529Y037235D01*
X034506Y037191D01*
X034479Y037148D01*
X034449Y037108D01*
X034417Y037070D01*
X034381Y037035D01*
X034342Y037003D01*
X034301Y036974D01*
X034258Y036948D01*
X034213Y036926D01*
X034167Y036908D01*
X034119Y036893D01*
X034070Y036882D01*
X034021Y036875D01*
X033971Y036872D01*
X033920Y036873D01*
X033871Y036878D01*
X033821Y036887D01*
X033773Y036900D01*
X033726Y036916D01*
X033680Y036937D01*
X033636Y036961D01*
X033594Y036988D01*
X033554Y037018D01*
X033517Y037052D01*
X033483Y037089D01*
X033451Y037128D01*
X033423Y037169D01*
X033398Y037213D01*
X033377Y037258D01*
X033360Y037305D01*
X033346Y037353D01*
X033336Y037402D01*
X033330Y037452D01*
X033328Y037502D01*
X033958Y039077D02*
X034035Y039075D01*
X034112Y039069D01*
X034189Y039060D01*
X034265Y039047D01*
X034341Y039030D01*
X034415Y039009D01*
X034489Y038985D01*
X034561Y038957D01*
X034631Y038926D01*
X034700Y038891D01*
X034768Y038853D01*
X034833Y038812D01*
X034896Y038767D01*
X034957Y038719D01*
X035016Y038669D01*
X035072Y038616D01*
X035125Y038560D01*
X035175Y038501D01*
X035223Y038440D01*
X035268Y038377D01*
X035309Y038312D01*
X035347Y038244D01*
X035382Y038175D01*
X035413Y038105D01*
X035441Y038033D01*
X035465Y037959D01*
X035486Y037885D01*
X035503Y037809D01*
X035516Y037733D01*
X035525Y037656D01*
X035531Y037579D01*
X035533Y037502D01*
X033958Y039076D02*
X005612Y039076D01*
X004982Y037502D02*
X004984Y037552D01*
X004990Y037602D01*
X005000Y037651D01*
X005014Y037699D01*
X005031Y037746D01*
X005052Y037791D01*
X005077Y037835D01*
X005105Y037876D01*
X005137Y037915D01*
X005171Y037952D01*
X005208Y037986D01*
X005248Y038016D01*
X005290Y038043D01*
X005334Y038067D01*
X005380Y038088D01*
X005427Y038104D01*
X005475Y038117D01*
X005525Y038126D01*
X005574Y038131D01*
X005625Y038132D01*
X005675Y038129D01*
X005724Y038122D01*
X005773Y038111D01*
X005821Y038096D01*
X005867Y038078D01*
X005912Y038056D01*
X005955Y038030D01*
X005996Y038001D01*
X006035Y037969D01*
X006071Y037934D01*
X006103Y037896D01*
X006133Y037856D01*
X006160Y037813D01*
X006183Y037769D01*
X006202Y037723D01*
X006218Y037675D01*
X006230Y037626D01*
X006238Y037577D01*
X006242Y037527D01*
X006242Y037477D01*
X006238Y037427D01*
X006230Y037378D01*
X006218Y037329D01*
X006202Y037281D01*
X006183Y037235D01*
X006160Y037191D01*
X006133Y037148D01*
X006103Y037108D01*
X006071Y037070D01*
X006035Y037035D01*
X005996Y037003D01*
X005955Y036974D01*
X005912Y036948D01*
X005867Y036926D01*
X005821Y036908D01*
X005773Y036893D01*
X005724Y036882D01*
X005675Y036875D01*
X005625Y036872D01*
X005574Y036873D01*
X005525Y036878D01*
X005475Y036887D01*
X005427Y036900D01*
X005380Y036916D01*
X005334Y036937D01*
X005290Y036961D01*
X005248Y036988D01*
X005208Y037018D01*
X005171Y037052D01*
X005137Y037089D01*
X005105Y037128D01*
X005077Y037169D01*
X005052Y037213D01*
X005031Y037258D01*
X005014Y037305D01*
X005000Y037353D01*
X004990Y037402D01*
X004984Y037452D01*
X004982Y037502D01*
X004037Y037502D02*
X004039Y037579D01*
X004045Y037656D01*
X004054Y037733D01*
X004067Y037809D01*
X004084Y037885D01*
X004105Y037959D01*
X004129Y038033D01*
X004157Y038105D01*
X004188Y038175D01*
X004223Y038244D01*
X004261Y038312D01*
X004302Y038377D01*
X004347Y038440D01*
X004395Y038501D01*
X004445Y038560D01*
X004498Y038616D01*
X004554Y038669D01*
X004613Y038719D01*
X004674Y038767D01*
X004737Y038812D01*
X004802Y038853D01*
X004870Y038891D01*
X004939Y038926D01*
X005009Y038957D01*
X005081Y038985D01*
X005155Y039009D01*
X005229Y039030D01*
X005305Y039047D01*
X005381Y039060D01*
X005458Y039069D01*
X005535Y039075D01*
X005612Y039077D01*
X004037Y037502D02*
X004037Y036616D01*
X004036Y036599D01*
X004031Y036582D01*
X004024Y036567D01*
X004014Y036553D01*
X004002Y036541D01*
X003988Y036531D01*
X003973Y036524D01*
X003956Y036519D01*
X003939Y036518D01*
X003939Y036517D02*
X003348Y036517D01*
X003348Y036518D02*
X003331Y036519D01*
X003314Y036524D01*
X003299Y036531D01*
X003285Y036541D01*
X003273Y036553D01*
X003263Y036567D01*
X003256Y036582D01*
X003251Y036599D01*
X003250Y036616D01*
X003250Y036714D01*
X003248Y036753D01*
X003242Y036791D01*
X003233Y036828D01*
X003220Y036865D01*
X003203Y036900D01*
X003184Y036933D01*
X003161Y036964D01*
X003135Y036993D01*
X003106Y037019D01*
X003075Y037042D01*
X003042Y037061D01*
X003007Y037078D01*
X002970Y037091D01*
X002933Y037100D01*
X002895Y037106D01*
X002856Y037108D01*
X001281Y037108D01*
X001242Y037106D01*
X001204Y037100D01*
X001167Y037091D01*
X001130Y037078D01*
X001095Y037061D01*
X001062Y037042D01*
X001031Y037019D01*
X001002Y036993D01*
X000976Y036964D01*
X000953Y036933D01*
X000934Y036900D01*
X000917Y036865D01*
X000904Y036828D01*
X000895Y036791D01*
X000889Y036753D01*
X000887Y036714D01*
X000887Y022147D01*
X000889Y022108D01*
X000895Y022070D01*
X000904Y022033D01*
X000917Y021996D01*
X000934Y021961D01*
X000953Y021928D01*
X000976Y021897D01*
X001002Y021868D01*
X001031Y021842D01*
X001062Y021819D01*
X001095Y021800D01*
X001130Y021783D01*
X001167Y021770D01*
X001204Y021761D01*
X001242Y021755D01*
X001281Y021753D01*
X001281Y021754D02*
X002856Y021754D01*
X002856Y021753D02*
X002895Y021755D01*
X002933Y021761D01*
X002970Y021770D01*
X003007Y021783D01*
X003042Y021800D01*
X003075Y021819D01*
X003106Y021842D01*
X003135Y021868D01*
X003161Y021897D01*
X003184Y021928D01*
X003203Y021961D01*
X003220Y021996D01*
X003233Y022033D01*
X003242Y022070D01*
X003248Y022108D01*
X003250Y022147D01*
X003250Y022639D01*
X003251Y022656D01*
X003256Y022673D01*
X003263Y022688D01*
X003273Y022702D01*
X003285Y022714D01*
X003299Y022724D01*
X003314Y022731D01*
X003331Y022736D01*
X003348Y022737D01*
X003348Y022738D02*
X003939Y022738D01*
X003939Y022737D02*
X003956Y022736D01*
X003973Y022731D01*
X003988Y022724D01*
X004002Y022714D01*
X004014Y022702D01*
X004024Y022688D01*
X004031Y022673D01*
X004036Y022656D01*
X004037Y022639D01*
X004037Y021360D01*
X003880Y022935D02*
X003882Y022960D01*
X003888Y022984D01*
X003897Y023006D01*
X003910Y023027D01*
X003926Y023046D01*
X003945Y023062D01*
X003966Y023075D01*
X003988Y023084D01*
X004012Y023090D01*
X004037Y023092D01*
X004062Y023090D01*
X004086Y023084D01*
X004108Y023075D01*
X004129Y023062D01*
X004148Y023046D01*
X004164Y023027D01*
X004177Y023006D01*
X004186Y022984D01*
X004192Y022960D01*
X004194Y022935D01*
X004192Y022910D01*
X004186Y022886D01*
X004177Y022864D01*
X004164Y022843D01*
X004148Y022824D01*
X004129Y022808D01*
X004108Y022795D01*
X004086Y022786D01*
X004062Y022780D01*
X004037Y022778D01*
X004012Y022780D01*
X003988Y022786D01*
X003966Y022795D01*
X003945Y022808D01*
X003926Y022824D01*
X003910Y022843D01*
X003897Y022864D01*
X003888Y022886D01*
X003882Y022910D01*
X003880Y022935D01*
X003880Y023328D02*
X003882Y023353D01*
X003888Y023377D01*
X003897Y023399D01*
X003910Y023420D01*
X003926Y023439D01*
X003945Y023455D01*
X003966Y023468D01*
X003988Y023477D01*
X004012Y023483D01*
X004037Y023485D01*
X004062Y023483D01*
X004086Y023477D01*
X004108Y023468D01*
X004129Y023455D01*
X004148Y023439D01*
X004164Y023420D01*
X004177Y023399D01*
X004186Y023377D01*
X004192Y023353D01*
X004194Y023328D01*
X004192Y023303D01*
X004186Y023279D01*
X004177Y023257D01*
X004164Y023236D01*
X004148Y023217D01*
X004129Y023201D01*
X004108Y023188D01*
X004086Y023179D01*
X004062Y023173D01*
X004037Y023171D01*
X004012Y023173D01*
X003988Y023179D01*
X003966Y023188D01*
X003945Y023201D01*
X003926Y023217D01*
X003910Y023236D01*
X003897Y023257D01*
X003888Y023279D01*
X003882Y023303D01*
X003880Y023328D01*
X003880Y023722D02*
X003882Y023747D01*
X003888Y023771D01*
X003897Y023793D01*
X003910Y023814D01*
X003926Y023833D01*
X003945Y023849D01*
X003966Y023862D01*
X003988Y023871D01*
X004012Y023877D01*
X004037Y023879D01*
X004062Y023877D01*
X004086Y023871D01*
X004108Y023862D01*
X004129Y023849D01*
X004148Y023833D01*
X004164Y023814D01*
X004177Y023793D01*
X004186Y023771D01*
X004192Y023747D01*
X004194Y023722D01*
X004192Y023697D01*
X004186Y023673D01*
X004177Y023651D01*
X004164Y023630D01*
X004148Y023611D01*
X004129Y023595D01*
X004108Y023582D01*
X004086Y023573D01*
X004062Y023567D01*
X004037Y023565D01*
X004012Y023567D01*
X003988Y023573D01*
X003966Y023582D01*
X003945Y023595D01*
X003926Y023611D01*
X003910Y023630D01*
X003897Y023651D01*
X003888Y023673D01*
X003882Y023697D01*
X003880Y023722D01*
X003880Y024116D02*
X003882Y024141D01*
X003888Y024165D01*
X003897Y024187D01*
X003910Y024208D01*
X003926Y024227D01*
X003945Y024243D01*
X003966Y024256D01*
X003988Y024265D01*
X004012Y024271D01*
X004037Y024273D01*
X004062Y024271D01*
X004086Y024265D01*
X004108Y024256D01*
X004129Y024243D01*
X004148Y024227D01*
X004164Y024208D01*
X004177Y024187D01*
X004186Y024165D01*
X004192Y024141D01*
X004194Y024116D01*
X004192Y024091D01*
X004186Y024067D01*
X004177Y024045D01*
X004164Y024024D01*
X004148Y024005D01*
X004129Y023989D01*
X004108Y023976D01*
X004086Y023967D01*
X004062Y023961D01*
X004037Y023959D01*
X004012Y023961D01*
X003988Y023967D01*
X003966Y023976D01*
X003945Y023989D01*
X003926Y024005D01*
X003910Y024024D01*
X003897Y024045D01*
X003888Y024067D01*
X003882Y024091D01*
X003880Y024116D01*
X003880Y024509D02*
X003882Y024534D01*
X003888Y024558D01*
X003897Y024580D01*
X003910Y024601D01*
X003926Y024620D01*
X003945Y024636D01*
X003966Y024649D01*
X003988Y024658D01*
X004012Y024664D01*
X004037Y024666D01*
X004062Y024664D01*
X004086Y024658D01*
X004108Y024649D01*
X004129Y024636D01*
X004148Y024620D01*
X004164Y024601D01*
X004177Y024580D01*
X004186Y024558D01*
X004192Y024534D01*
X004194Y024509D01*
X004192Y024484D01*
X004186Y024460D01*
X004177Y024438D01*
X004164Y024417D01*
X004148Y024398D01*
X004129Y024382D01*
X004108Y024369D01*
X004086Y024360D01*
X004062Y024354D01*
X004037Y024352D01*
X004012Y024354D01*
X003988Y024360D01*
X003966Y024369D01*
X003945Y024382D01*
X003926Y024398D01*
X003910Y024417D01*
X003897Y024438D01*
X003888Y024460D01*
X003882Y024484D01*
X003880Y024509D01*
X003939Y024706D02*
X003348Y024706D01*
X003348Y024707D02*
X003331Y024708D01*
X003314Y024713D01*
X003299Y024720D01*
X003285Y024730D01*
X003273Y024742D01*
X003263Y024756D01*
X003256Y024771D01*
X003251Y024788D01*
X003250Y024805D01*
X003250Y034450D01*
X003251Y034467D01*
X003256Y034484D01*
X003263Y034499D01*
X003273Y034513D01*
X003285Y034525D01*
X003299Y034535D01*
X003314Y034542D01*
X003331Y034547D01*
X003348Y034548D01*
X003348Y034549D02*
X003939Y034549D01*
X003939Y034548D02*
X003956Y034547D01*
X003973Y034542D01*
X003988Y034535D01*
X004002Y034525D01*
X004014Y034513D01*
X004024Y034499D01*
X004031Y034484D01*
X004036Y034467D01*
X004037Y034450D01*
X004037Y024805D01*
X004036Y024788D01*
X004031Y024771D01*
X004024Y024756D01*
X004014Y024742D01*
X004002Y024730D01*
X003988Y024720D01*
X003973Y024713D01*
X003956Y024708D01*
X003939Y024707D01*
X001577Y023722D02*
X001579Y023766D01*
X001585Y023810D01*
X001595Y023853D01*
X001608Y023895D01*
X001626Y023935D01*
X001647Y023974D01*
X001671Y024011D01*
X001698Y024046D01*
X001729Y024078D01*
X001762Y024107D01*
X001798Y024133D01*
X001836Y024155D01*
X001876Y024174D01*
X001917Y024190D01*
X001960Y024202D01*
X002003Y024210D01*
X002047Y024214D01*
X002091Y024214D01*
X002135Y024210D01*
X002178Y024202D01*
X002221Y024190D01*
X002262Y024174D01*
X002302Y024155D01*
X002340Y024133D01*
X002376Y024107D01*
X002409Y024078D01*
X002440Y024046D01*
X002467Y024011D01*
X002491Y023974D01*
X002512Y023935D01*
X002530Y023895D01*
X002543Y023853D01*
X002553Y023810D01*
X002559Y023766D01*
X002561Y023722D01*
X002559Y023678D01*
X002553Y023634D01*
X002543Y023591D01*
X002530Y023549D01*
X002512Y023509D01*
X002491Y023470D01*
X002467Y023433D01*
X002440Y023398D01*
X002409Y023366D01*
X002376Y023337D01*
X002340Y023311D01*
X002302Y023289D01*
X002262Y023270D01*
X002221Y023254D01*
X002178Y023242D01*
X002135Y023234D01*
X002091Y023230D01*
X002047Y023230D01*
X002003Y023234D01*
X001960Y023242D01*
X001917Y023254D01*
X001876Y023270D01*
X001836Y023289D01*
X001798Y023311D01*
X001762Y023337D01*
X001729Y023366D01*
X001698Y023398D01*
X001671Y023433D01*
X001647Y023470D01*
X001626Y023509D01*
X001608Y023549D01*
X001595Y023591D01*
X001585Y023634D01*
X001579Y023678D01*
X001577Y023722D01*
X004982Y021360D02*
X004984Y021410D01*
X004990Y021460D01*
X005000Y021509D01*
X005014Y021557D01*
X005031Y021604D01*
X005052Y021649D01*
X005077Y021693D01*
X005105Y021734D01*
X005137Y021773D01*
X005171Y021810D01*
X005208Y021844D01*
X005248Y021874D01*
X005290Y021901D01*
X005334Y021925D01*
X005380Y021946D01*
X005427Y021962D01*
X005475Y021975D01*
X005525Y021984D01*
X005574Y021989D01*
X005625Y021990D01*
X005675Y021987D01*
X005724Y021980D01*
X005773Y021969D01*
X005821Y021954D01*
X005867Y021936D01*
X005912Y021914D01*
X005955Y021888D01*
X005996Y021859D01*
X006035Y021827D01*
X006071Y021792D01*
X006103Y021754D01*
X006133Y021714D01*
X006160Y021671D01*
X006183Y021627D01*
X006202Y021581D01*
X006218Y021533D01*
X006230Y021484D01*
X006238Y021435D01*
X006242Y021385D01*
X006242Y021335D01*
X006238Y021285D01*
X006230Y021236D01*
X006218Y021187D01*
X006202Y021139D01*
X006183Y021093D01*
X006160Y021049D01*
X006133Y021006D01*
X006103Y020966D01*
X006071Y020928D01*
X006035Y020893D01*
X005996Y020861D01*
X005955Y020832D01*
X005912Y020806D01*
X005867Y020784D01*
X005821Y020766D01*
X005773Y020751D01*
X005724Y020740D01*
X005675Y020733D01*
X005625Y020730D01*
X005574Y020731D01*
X005525Y020736D01*
X005475Y020745D01*
X005427Y020758D01*
X005380Y020774D01*
X005334Y020795D01*
X005290Y020819D01*
X005248Y020846D01*
X005208Y020876D01*
X005171Y020910D01*
X005137Y020947D01*
X005105Y020986D01*
X005077Y021027D01*
X005052Y021071D01*
X005031Y021116D01*
X005014Y021163D01*
X005000Y021211D01*
X004990Y021260D01*
X004984Y021310D01*
X004982Y021360D01*
X004037Y021360D02*
X004039Y021283D01*
X004045Y021206D01*
X004054Y021129D01*
X004067Y021053D01*
X004084Y020977D01*
X004105Y020903D01*
X004129Y020829D01*
X004157Y020757D01*
X004188Y020687D01*
X004223Y020618D01*
X004261Y020550D01*
X004302Y020485D01*
X004347Y020422D01*
X004395Y020361D01*
X004445Y020302D01*
X004498Y020246D01*
X004554Y020193D01*
X004613Y020143D01*
X004674Y020095D01*
X004737Y020050D01*
X004802Y020009D01*
X004870Y019971D01*
X004939Y019936D01*
X005009Y019905D01*
X005081Y019877D01*
X005155Y019853D01*
X005229Y019832D01*
X005305Y019815D01*
X005381Y019802D01*
X005458Y019793D01*
X005535Y019787D01*
X005612Y019785D01*
X003880Y034746D02*
X003882Y034771D01*
X003888Y034795D01*
X003897Y034817D01*
X003910Y034838D01*
X003926Y034857D01*
X003945Y034873D01*
X003966Y034886D01*
X003988Y034895D01*
X004012Y034901D01*
X004037Y034903D01*
X004062Y034901D01*
X004086Y034895D01*
X004108Y034886D01*
X004129Y034873D01*
X004148Y034857D01*
X004164Y034838D01*
X004177Y034817D01*
X004186Y034795D01*
X004192Y034771D01*
X004194Y034746D01*
X004192Y034721D01*
X004186Y034697D01*
X004177Y034675D01*
X004164Y034654D01*
X004148Y034635D01*
X004129Y034619D01*
X004108Y034606D01*
X004086Y034597D01*
X004062Y034591D01*
X004037Y034589D01*
X004012Y034591D01*
X003988Y034597D01*
X003966Y034606D01*
X003945Y034619D01*
X003926Y034635D01*
X003910Y034654D01*
X003897Y034675D01*
X003888Y034697D01*
X003882Y034721D01*
X003880Y034746D01*
X003880Y035139D02*
X003882Y035164D01*
X003888Y035188D01*
X003897Y035210D01*
X003910Y035231D01*
X003926Y035250D01*
X003945Y035266D01*
X003966Y035279D01*
X003988Y035288D01*
X004012Y035294D01*
X004037Y035296D01*
X004062Y035294D01*
X004086Y035288D01*
X004108Y035279D01*
X004129Y035266D01*
X004148Y035250D01*
X004164Y035231D01*
X004177Y035210D01*
X004186Y035188D01*
X004192Y035164D01*
X004194Y035139D01*
X004192Y035114D01*
X004186Y035090D01*
X004177Y035068D01*
X004164Y035047D01*
X004148Y035028D01*
X004129Y035012D01*
X004108Y034999D01*
X004086Y034990D01*
X004062Y034984D01*
X004037Y034982D01*
X004012Y034984D01*
X003988Y034990D01*
X003966Y034999D01*
X003945Y035012D01*
X003926Y035028D01*
X003910Y035047D01*
X003897Y035068D01*
X003888Y035090D01*
X003882Y035114D01*
X003880Y035139D01*
X003880Y035533D02*
X003882Y035558D01*
X003888Y035582D01*
X003897Y035604D01*
X003910Y035625D01*
X003926Y035644D01*
X003945Y035660D01*
X003966Y035673D01*
X003988Y035682D01*
X004012Y035688D01*
X004037Y035690D01*
X004062Y035688D01*
X004086Y035682D01*
X004108Y035673D01*
X004129Y035660D01*
X004148Y035644D01*
X004164Y035625D01*
X004177Y035604D01*
X004186Y035582D01*
X004192Y035558D01*
X004194Y035533D01*
X004192Y035508D01*
X004186Y035484D01*
X004177Y035462D01*
X004164Y035441D01*
X004148Y035422D01*
X004129Y035406D01*
X004108Y035393D01*
X004086Y035384D01*
X004062Y035378D01*
X004037Y035376D01*
X004012Y035378D01*
X003988Y035384D01*
X003966Y035393D01*
X003945Y035406D01*
X003926Y035422D01*
X003910Y035441D01*
X003897Y035462D01*
X003888Y035484D01*
X003882Y035508D01*
X003880Y035533D01*
X003880Y035927D02*
X003882Y035952D01*
X003888Y035976D01*
X003897Y035998D01*
X003910Y036019D01*
X003926Y036038D01*
X003945Y036054D01*
X003966Y036067D01*
X003988Y036076D01*
X004012Y036082D01*
X004037Y036084D01*
X004062Y036082D01*
X004086Y036076D01*
X004108Y036067D01*
X004129Y036054D01*
X004148Y036038D01*
X004164Y036019D01*
X004177Y035998D01*
X004186Y035976D01*
X004192Y035952D01*
X004194Y035927D01*
X004192Y035902D01*
X004186Y035878D01*
X004177Y035856D01*
X004164Y035835D01*
X004148Y035816D01*
X004129Y035800D01*
X004108Y035787D01*
X004086Y035778D01*
X004062Y035772D01*
X004037Y035770D01*
X004012Y035772D01*
X003988Y035778D01*
X003966Y035787D01*
X003945Y035800D01*
X003926Y035816D01*
X003910Y035835D01*
X003897Y035856D01*
X003888Y035878D01*
X003882Y035902D01*
X003880Y035927D01*
X003880Y036320D02*
X003882Y036345D01*
X003888Y036369D01*
X003897Y036391D01*
X003910Y036412D01*
X003926Y036431D01*
X003945Y036447D01*
X003966Y036460D01*
X003988Y036469D01*
X004012Y036475D01*
X004037Y036477D01*
X004062Y036475D01*
X004086Y036469D01*
X004108Y036460D01*
X004129Y036447D01*
X004148Y036431D01*
X004164Y036412D01*
X004177Y036391D01*
X004186Y036369D01*
X004192Y036345D01*
X004194Y036320D01*
X004192Y036295D01*
X004186Y036271D01*
X004177Y036249D01*
X004164Y036228D01*
X004148Y036209D01*
X004129Y036193D01*
X004108Y036180D01*
X004086Y036171D01*
X004062Y036165D01*
X004037Y036163D01*
X004012Y036165D01*
X003988Y036171D01*
X003966Y036180D01*
X003945Y036193D01*
X003926Y036209D01*
X003910Y036228D01*
X003897Y036249D01*
X003888Y036271D01*
X003882Y036295D01*
X003880Y036320D01*
X001577Y035533D02*
X001579Y035577D01*
X001585Y035621D01*
X001595Y035664D01*
X001608Y035706D01*
X001626Y035746D01*
X001647Y035785D01*
X001671Y035822D01*
X001698Y035857D01*
X001729Y035889D01*
X001762Y035918D01*
X001798Y035944D01*
X001836Y035966D01*
X001876Y035985D01*
X001917Y036001D01*
X001960Y036013D01*
X002003Y036021D01*
X002047Y036025D01*
X002091Y036025D01*
X002135Y036021D01*
X002178Y036013D01*
X002221Y036001D01*
X002262Y035985D01*
X002302Y035966D01*
X002340Y035944D01*
X002376Y035918D01*
X002409Y035889D01*
X002440Y035857D01*
X002467Y035822D01*
X002491Y035785D01*
X002512Y035746D01*
X002530Y035706D01*
X002543Y035664D01*
X002553Y035621D01*
X002559Y035577D01*
X002561Y035533D01*
X002559Y035489D01*
X002553Y035445D01*
X002543Y035402D01*
X002530Y035360D01*
X002512Y035320D01*
X002491Y035281D01*
X002467Y035244D01*
X002440Y035209D01*
X002409Y035177D01*
X002376Y035148D01*
X002340Y035122D01*
X002302Y035100D01*
X002262Y035081D01*
X002221Y035065D01*
X002178Y035053D01*
X002135Y035045D01*
X002091Y035041D01*
X002047Y035041D01*
X002003Y035045D01*
X001960Y035053D01*
X001917Y035065D01*
X001876Y035081D01*
X001836Y035100D01*
X001798Y035122D01*
X001762Y035148D01*
X001729Y035177D01*
X001698Y035209D01*
X001671Y035244D01*
X001647Y035281D01*
X001626Y035320D01*
X001608Y035360D01*
X001595Y035402D01*
X001585Y035445D01*
X001579Y035489D01*
X001577Y035533D01*
D11*
X007458Y034257D03*
X007458Y033587D03*
X008414Y033548D03*
X008414Y034217D03*
X013669Y024196D03*
X014339Y024196D03*
X015212Y024173D03*
X015881Y024173D03*
X011517Y021946D03*
X011308Y022458D03*
X011308Y023128D03*
X010693Y021946D03*
X010693Y021277D03*
X011517Y021277D03*
G36*
X026090Y025589D02*
X025785Y025894D01*
X026064Y026173D01*
X026369Y025868D01*
X026090Y025589D01*
G37*
G36*
X026563Y025116D02*
X026258Y025421D01*
X026537Y025700D01*
X026842Y025395D01*
X026563Y025116D01*
G37*
G36*
X026964Y025931D02*
X026659Y026236D01*
X026938Y026515D01*
X027243Y026210D01*
X026964Y025931D01*
G37*
G36*
X026491Y026404D02*
X026186Y026709D01*
X026465Y026988D01*
X026770Y026683D01*
X026491Y026404D01*
G37*
D12*
G36*
X027172Y026887D02*
X026881Y027178D01*
X027180Y027477D01*
X027471Y027186D01*
X027172Y026887D01*
G37*
G36*
X027660Y026399D02*
X027369Y026690D01*
X027668Y026989D01*
X027959Y026698D01*
X027660Y026399D01*
G37*
G36*
X028130Y026822D02*
X027839Y027113D01*
X028138Y027412D01*
X028429Y027121D01*
X028130Y026822D01*
G37*
G36*
X028947Y026752D02*
X028656Y027043D01*
X028955Y027342D01*
X029246Y027051D01*
X028947Y026752D01*
G37*
G36*
X029434Y026265D02*
X029143Y026556D01*
X029442Y026855D01*
X029733Y026564D01*
X029434Y026265D01*
G37*
G36*
X029941Y026776D02*
X029650Y027067D01*
X029949Y027366D01*
X030240Y027075D01*
X029941Y026776D01*
G37*
G36*
X029454Y027263D02*
X029163Y027554D01*
X029462Y027853D01*
X029753Y027562D01*
X029454Y027263D01*
G37*
G36*
X027642Y027309D02*
X027351Y027600D01*
X027650Y027899D01*
X027941Y027608D01*
X027642Y027309D01*
G37*
X028539Y030199D03*
X029228Y030199D03*
G36*
X028066Y032947D02*
X027775Y032656D01*
X027476Y032955D01*
X027767Y033246D01*
X028066Y032947D01*
G37*
G36*
X027919Y033333D02*
X028210Y033624D01*
X028509Y033325D01*
X028218Y033034D01*
X027919Y033333D01*
G37*
G36*
X027094Y033410D02*
X027385Y033701D01*
X027684Y033402D01*
X027393Y033111D01*
X027094Y033410D01*
G37*
G36*
X027579Y032460D02*
X027288Y032169D01*
X026989Y032468D01*
X027280Y032759D01*
X027579Y032460D01*
G37*
G36*
X027581Y033897D02*
X027872Y034188D01*
X028171Y033889D01*
X027880Y033598D01*
X027581Y033897D01*
G37*
G36*
X028406Y033820D02*
X028697Y034111D01*
X028996Y033812D01*
X028705Y033521D01*
X028406Y033820D01*
G37*
G36*
X021761Y033724D02*
X021470Y034015D01*
X021769Y034314D01*
X022060Y034023D01*
X021761Y033724D01*
G37*
G36*
X021242Y033370D02*
X020951Y033661D01*
X021250Y033960D01*
X021541Y033669D01*
X021242Y033370D01*
G37*
G36*
X021729Y032883D02*
X021438Y033174D01*
X021737Y033473D01*
X022028Y033182D01*
X021729Y032883D01*
G37*
G36*
X021274Y034211D02*
X020983Y034502D01*
X021282Y034801D01*
X021573Y034510D01*
X021274Y034211D01*
G37*
X020189Y030220D03*
X019500Y030220D03*
D13*
X024377Y034317D03*
X024377Y035006D03*
X024325Y026008D03*
X024325Y025319D03*
X009227Y033525D03*
X009227Y034214D03*
X008448Y030553D03*
X008448Y029864D03*
D14*
X007530Y029803D03*
X007530Y030303D03*
X007530Y030803D03*
X007530Y031303D03*
X007530Y031803D03*
X006030Y031803D03*
X006030Y031303D03*
X006030Y030803D03*
X006030Y030303D03*
X006030Y029803D03*
D15*
X009868Y023612D03*
X010242Y023612D03*
X010616Y023612D03*
X010616Y022588D03*
X010242Y022588D03*
X009868Y022588D03*
D16*
X008868Y022639D03*
X008868Y021537D03*
D17*
X011521Y023830D03*
X012191Y023830D03*
D18*
X011805Y024495D03*
X011805Y026188D03*
X007464Y023292D03*
X007464Y021599D03*
D19*
X009868Y024492D03*
X009868Y026185D03*
D20*
X008037Y026159D03*
X008037Y025057D03*
D21*
X013846Y023309D03*
X013846Y022809D03*
X013846Y022309D03*
X013846Y021809D03*
X015893Y021809D03*
X015893Y022309D03*
X015893Y022809D03*
X015893Y023309D03*
D22*
X015765Y020992D03*
X015096Y020992D03*
X014478Y021018D03*
X013809Y021018D03*
X013978Y026242D03*
X013978Y026911D03*
X018223Y021868D03*
X018892Y021868D03*
X018892Y021021D03*
X018223Y021021D03*
D23*
X015825Y024612D03*
X015451Y025439D03*
X016199Y025439D03*
D24*
X026356Y024105D03*
X027458Y024105D03*
D25*
X031433Y024458D03*
D26*
X032555Y026348D03*
X033893Y024458D03*
D27*
G36*
X029218Y027859D02*
X029011Y027652D01*
X028816Y027847D01*
X029023Y028054D01*
X029218Y027859D01*
G37*
G36*
X028939Y028138D02*
X028732Y027931D01*
X028537Y028126D01*
X028744Y028333D01*
X028939Y028138D01*
G37*
G36*
X028842Y027484D02*
X028635Y027277D01*
X028440Y027472D01*
X028647Y027679D01*
X028842Y027484D01*
G37*
G36*
X028563Y027762D02*
X028356Y027555D01*
X028161Y027750D01*
X028368Y027957D01*
X028563Y027762D01*
G37*
D28*
X032037Y036035D03*
D29*
X032037Y037035D03*
X031037Y037035D03*
X031037Y036035D03*
X030037Y036035D03*
X030037Y037035D03*
X029037Y037035D03*
X029037Y036035D03*
X028037Y036035D03*
X028037Y037035D03*
X027037Y037035D03*
X027037Y036035D03*
X026037Y036035D03*
X026037Y037035D03*
X025037Y037035D03*
X025037Y036035D03*
X024037Y036035D03*
X024037Y037035D03*
X023037Y037035D03*
X023037Y036035D03*
X022037Y036035D03*
X022037Y037035D03*
X021037Y037035D03*
X021037Y036035D03*
X020037Y036035D03*
X020037Y037035D03*
X019037Y037035D03*
X019037Y036035D03*
X018037Y036035D03*
X018037Y037035D03*
X017037Y037035D03*
X017037Y036035D03*
D30*
X014882Y032933D03*
X012638Y032933D03*
D31*
X015512Y038110D03*
X010334Y038503D03*
D32*
X012169Y036988D03*
X012602Y036830D03*
X013035Y036988D03*
X013468Y037066D03*
X013901Y036988D03*
X014334Y037066D03*
X014768Y036988D03*
X015201Y036988D03*
D33*
X009452Y037143D03*
X009452Y035643D03*
X007452Y035643D03*
X007452Y037143D03*
D34*
X008072Y037887D03*
X008899Y037887D03*
D35*
X023037Y021795D02*
X023037Y021275D01*
X024037Y021275D02*
X024037Y021795D01*
X025037Y021795D02*
X025037Y021275D01*
X026037Y021275D02*
X026037Y021795D01*
X027037Y021795D02*
X027037Y021275D01*
X028037Y021275D02*
X028037Y021795D01*
X029037Y021795D02*
X029037Y021275D01*
X030037Y021275D02*
X030037Y021795D01*
X031037Y021795D02*
X031037Y021275D01*
X032037Y021275D02*
X032037Y021795D01*
D36*
X014387Y024824D03*
X014387Y025769D03*
X014013Y025769D03*
X013639Y025769D03*
X013639Y024824D03*
D37*
X019764Y022370D03*
X019764Y021870D03*
X019764Y021370D03*
X019764Y020870D03*
X021824Y020870D03*
X021824Y021370D03*
X021824Y021870D03*
X021824Y022370D03*
D38*
X021102Y023112D03*
X020502Y023112D03*
D39*
X026003Y023002D03*
X027853Y023002D03*
D40*
X033924Y028953D03*
X033924Y029209D03*
X033924Y029465D03*
X033924Y029721D03*
X033924Y029977D03*
D41*
X034967Y030843D03*
X034967Y028087D03*
D42*
X033904Y028481D03*
X033904Y030449D03*
D43*
X034967Y029859D03*
X034967Y029071D03*
D44*
G36*
X028424Y030838D02*
X028175Y030589D01*
X028092Y030672D01*
X028341Y030921D01*
X028424Y030838D01*
G37*
G36*
X028285Y030977D02*
X028036Y030728D01*
X027953Y030811D01*
X028202Y031060D01*
X028285Y030977D01*
G37*
G36*
X028145Y031116D02*
X027896Y030867D01*
X027813Y030950D01*
X028062Y031199D01*
X028145Y031116D01*
G37*
G36*
X028006Y031256D02*
X027757Y031007D01*
X027674Y031090D01*
X027923Y031339D01*
X028006Y031256D01*
G37*
G36*
X027867Y031395D02*
X027618Y031146D01*
X027535Y031229D01*
X027784Y031478D01*
X027867Y031395D01*
G37*
G36*
X027728Y031534D02*
X027479Y031285D01*
X027396Y031368D01*
X027645Y031617D01*
X027728Y031534D01*
G37*
G36*
X027589Y031673D02*
X027340Y031424D01*
X027257Y031507D01*
X027506Y031756D01*
X027589Y031673D01*
G37*
G36*
X027449Y031812D02*
X027200Y031563D01*
X027117Y031646D01*
X027366Y031895D01*
X027449Y031812D01*
G37*
G36*
X027310Y031952D02*
X027061Y031703D01*
X026978Y031786D01*
X027227Y032035D01*
X027310Y031952D01*
G37*
G36*
X027171Y032091D02*
X026922Y031842D01*
X026839Y031925D01*
X027088Y032174D01*
X027171Y032091D01*
G37*
G36*
X027032Y032230D02*
X026783Y031981D01*
X026700Y032064D01*
X026949Y032313D01*
X027032Y032230D01*
G37*
G36*
X026893Y032369D02*
X026644Y032120D01*
X026561Y032203D01*
X026810Y032452D01*
X026893Y032369D01*
G37*
G36*
X026753Y032508D02*
X026504Y032259D01*
X026421Y032342D01*
X026670Y032591D01*
X026753Y032508D01*
G37*
G36*
X026614Y032648D02*
X026365Y032399D01*
X026282Y032482D01*
X026531Y032731D01*
X026614Y032648D01*
G37*
G36*
X026475Y032787D02*
X026226Y032538D01*
X026143Y032621D01*
X026392Y032870D01*
X026475Y032787D01*
G37*
G36*
X026336Y032926D02*
X026087Y032677D01*
X026004Y032760D01*
X026253Y033009D01*
X026336Y032926D01*
G37*
G36*
X026197Y033065D02*
X025948Y032816D01*
X025865Y032899D01*
X026114Y033148D01*
X026197Y033065D01*
G37*
G36*
X026057Y033204D02*
X025808Y032955D01*
X025725Y033038D01*
X025974Y033287D01*
X026057Y033204D01*
G37*
G36*
X025918Y033344D02*
X025669Y033095D01*
X025586Y033178D01*
X025835Y033427D01*
X025918Y033344D01*
G37*
G36*
X025779Y033483D02*
X025530Y033234D01*
X025447Y033317D01*
X025696Y033566D01*
X025779Y033483D01*
G37*
G36*
X025640Y033622D02*
X025391Y033373D01*
X025308Y033456D01*
X025557Y033705D01*
X025640Y033622D01*
G37*
G36*
X025501Y033761D02*
X025252Y033512D01*
X025169Y033595D01*
X025418Y033844D01*
X025501Y033761D01*
G37*
G36*
X025361Y033900D02*
X025112Y033651D01*
X025029Y033734D01*
X025278Y033983D01*
X025361Y033900D01*
G37*
G36*
X025222Y034039D02*
X024973Y033790D01*
X024890Y033873D01*
X025139Y034122D01*
X025222Y034039D01*
G37*
G36*
X025083Y034179D02*
X024834Y033930D01*
X024751Y034013D01*
X025000Y034262D01*
X025083Y034179D01*
G37*
G36*
X021158Y029140D02*
X020909Y028891D01*
X020826Y028974D01*
X021075Y029223D01*
X021158Y029140D01*
G37*
G36*
X021297Y029001D02*
X021048Y028752D01*
X020965Y028835D01*
X021214Y029084D01*
X021297Y029001D01*
G37*
G36*
X021436Y028861D02*
X021187Y028612D01*
X021104Y028695D01*
X021353Y028944D01*
X021436Y028861D01*
G37*
G36*
X021575Y028722D02*
X021326Y028473D01*
X021243Y028556D01*
X021492Y028805D01*
X021575Y028722D01*
G37*
G36*
X021715Y028583D02*
X021466Y028334D01*
X021383Y028417D01*
X021632Y028666D01*
X021715Y028583D01*
G37*
G36*
X021854Y028444D02*
X021605Y028195D01*
X021522Y028278D01*
X021771Y028527D01*
X021854Y028444D01*
G37*
G36*
X021993Y028305D02*
X021744Y028056D01*
X021661Y028139D01*
X021910Y028388D01*
X021993Y028305D01*
G37*
G36*
X022132Y028165D02*
X021883Y027916D01*
X021800Y027999D01*
X022049Y028248D01*
X022132Y028165D01*
G37*
G36*
X022271Y028026D02*
X022022Y027777D01*
X021939Y027860D01*
X022188Y028109D01*
X022271Y028026D01*
G37*
G36*
X022411Y027887D02*
X022162Y027638D01*
X022079Y027721D01*
X022328Y027970D01*
X022411Y027887D01*
G37*
G36*
X022550Y027748D02*
X022301Y027499D01*
X022218Y027582D01*
X022467Y027831D01*
X022550Y027748D01*
G37*
G36*
X022689Y027609D02*
X022440Y027360D01*
X022357Y027443D01*
X022606Y027692D01*
X022689Y027609D01*
G37*
G36*
X022828Y027470D02*
X022579Y027221D01*
X022496Y027304D01*
X022745Y027553D01*
X022828Y027470D01*
G37*
G36*
X022967Y027330D02*
X022718Y027081D01*
X022635Y027164D01*
X022884Y027413D01*
X022967Y027330D01*
G37*
G36*
X023107Y027191D02*
X022858Y026942D01*
X022775Y027025D01*
X023024Y027274D01*
X023107Y027191D01*
G37*
G36*
X023246Y027052D02*
X022997Y026803D01*
X022914Y026886D01*
X023163Y027135D01*
X023246Y027052D01*
G37*
G36*
X023385Y026913D02*
X023136Y026664D01*
X023053Y026747D01*
X023302Y026996D01*
X023385Y026913D01*
G37*
G36*
X023524Y026774D02*
X023275Y026525D01*
X023192Y026608D01*
X023441Y026857D01*
X023524Y026774D01*
G37*
G36*
X023663Y026634D02*
X023414Y026385D01*
X023331Y026468D01*
X023580Y026717D01*
X023663Y026634D01*
G37*
G36*
X023802Y026495D02*
X023553Y026246D01*
X023470Y026329D01*
X023719Y026578D01*
X023802Y026495D01*
G37*
G36*
X023942Y026356D02*
X023693Y026107D01*
X023610Y026190D01*
X023859Y026439D01*
X023942Y026356D01*
G37*
G36*
X021019Y029279D02*
X020770Y029030D01*
X020687Y029113D01*
X020936Y029362D01*
X021019Y029279D01*
G37*
G36*
X020879Y029418D02*
X020630Y029169D01*
X020547Y029252D01*
X020796Y029501D01*
X020879Y029418D01*
G37*
G36*
X020740Y029557D02*
X020491Y029308D01*
X020408Y029391D01*
X020657Y029640D01*
X020740Y029557D01*
G37*
G36*
X020601Y029697D02*
X020352Y029448D01*
X020269Y029531D01*
X020518Y029780D01*
X020601Y029697D01*
G37*
D45*
G36*
X020601Y030672D02*
X020518Y030589D01*
X020269Y030838D01*
X020352Y030921D01*
X020601Y030672D01*
G37*
G36*
X020740Y030811D02*
X020657Y030728D01*
X020408Y030977D01*
X020491Y031060D01*
X020740Y030811D01*
G37*
G36*
X020879Y030950D02*
X020796Y030867D01*
X020547Y031116D01*
X020630Y031199D01*
X020879Y030950D01*
G37*
G36*
X021019Y031090D02*
X020936Y031007D01*
X020687Y031256D01*
X020770Y031339D01*
X021019Y031090D01*
G37*
G36*
X021158Y031229D02*
X021075Y031146D01*
X020826Y031395D01*
X020909Y031478D01*
X021158Y031229D01*
G37*
G36*
X021297Y031368D02*
X021214Y031285D01*
X020965Y031534D01*
X021048Y031617D01*
X021297Y031368D01*
G37*
G36*
X021436Y031507D02*
X021353Y031424D01*
X021104Y031673D01*
X021187Y031756D01*
X021436Y031507D01*
G37*
G36*
X021575Y031646D02*
X021492Y031563D01*
X021243Y031812D01*
X021326Y031895D01*
X021575Y031646D01*
G37*
G36*
X021715Y031786D02*
X021632Y031703D01*
X021383Y031952D01*
X021466Y032035D01*
X021715Y031786D01*
G37*
G36*
X021854Y031925D02*
X021771Y031842D01*
X021522Y032091D01*
X021605Y032174D01*
X021854Y031925D01*
G37*
G36*
X021993Y032064D02*
X021910Y031981D01*
X021661Y032230D01*
X021744Y032313D01*
X021993Y032064D01*
G37*
G36*
X022132Y032203D02*
X022049Y032120D01*
X021800Y032369D01*
X021883Y032452D01*
X022132Y032203D01*
G37*
G36*
X022271Y032342D02*
X022188Y032259D01*
X021939Y032508D01*
X022022Y032591D01*
X022271Y032342D01*
G37*
G36*
X022411Y032482D02*
X022328Y032399D01*
X022079Y032648D01*
X022162Y032731D01*
X022411Y032482D01*
G37*
G36*
X022550Y032621D02*
X022467Y032538D01*
X022218Y032787D01*
X022301Y032870D01*
X022550Y032621D01*
G37*
G36*
X022689Y032760D02*
X022606Y032677D01*
X022357Y032926D01*
X022440Y033009D01*
X022689Y032760D01*
G37*
G36*
X022828Y032899D02*
X022745Y032816D01*
X022496Y033065D01*
X022579Y033148D01*
X022828Y032899D01*
G37*
G36*
X022967Y033038D02*
X022884Y032955D01*
X022635Y033204D01*
X022718Y033287D01*
X022967Y033038D01*
G37*
G36*
X023107Y033178D02*
X023024Y033095D01*
X022775Y033344D01*
X022858Y033427D01*
X023107Y033178D01*
G37*
G36*
X023246Y033317D02*
X023163Y033234D01*
X022914Y033483D01*
X022997Y033566D01*
X023246Y033317D01*
G37*
G36*
X023385Y033456D02*
X023302Y033373D01*
X023053Y033622D01*
X023136Y033705D01*
X023385Y033456D01*
G37*
G36*
X023524Y033595D02*
X023441Y033512D01*
X023192Y033761D01*
X023275Y033844D01*
X023524Y033595D01*
G37*
G36*
X023663Y033734D02*
X023580Y033651D01*
X023331Y033900D01*
X023414Y033983D01*
X023663Y033734D01*
G37*
G36*
X023802Y033873D02*
X023719Y033790D01*
X023470Y034039D01*
X023553Y034122D01*
X023802Y033873D01*
G37*
G36*
X023942Y034013D02*
X023859Y033930D01*
X023610Y034179D01*
X023693Y034262D01*
X023942Y034013D01*
G37*
G36*
X027728Y028835D02*
X027645Y028752D01*
X027396Y029001D01*
X027479Y029084D01*
X027728Y028835D01*
G37*
G36*
X027867Y028974D02*
X027784Y028891D01*
X027535Y029140D01*
X027618Y029223D01*
X027867Y028974D01*
G37*
G36*
X028006Y029113D02*
X027923Y029030D01*
X027674Y029279D01*
X027757Y029362D01*
X028006Y029113D01*
G37*
G36*
X028145Y029252D02*
X028062Y029169D01*
X027813Y029418D01*
X027896Y029501D01*
X028145Y029252D01*
G37*
G36*
X028285Y029391D02*
X028202Y029308D01*
X027953Y029557D01*
X028036Y029640D01*
X028285Y029391D01*
G37*
G36*
X028424Y029531D02*
X028341Y029448D01*
X028092Y029697D01*
X028175Y029780D01*
X028424Y029531D01*
G37*
G36*
X027589Y028695D02*
X027506Y028612D01*
X027257Y028861D01*
X027340Y028944D01*
X027589Y028695D01*
G37*
G36*
X027449Y028556D02*
X027366Y028473D01*
X027117Y028722D01*
X027200Y028805D01*
X027449Y028556D01*
G37*
G36*
X027310Y028417D02*
X027227Y028334D01*
X026978Y028583D01*
X027061Y028666D01*
X027310Y028417D01*
G37*
G36*
X027171Y028278D02*
X027088Y028195D01*
X026839Y028444D01*
X026922Y028527D01*
X027171Y028278D01*
G37*
G36*
X027032Y028139D02*
X026949Y028056D01*
X026700Y028305D01*
X026783Y028388D01*
X027032Y028139D01*
G37*
G36*
X026893Y027999D02*
X026810Y027916D01*
X026561Y028165D01*
X026644Y028248D01*
X026893Y027999D01*
G37*
G36*
X026753Y027860D02*
X026670Y027777D01*
X026421Y028026D01*
X026504Y028109D01*
X026753Y027860D01*
G37*
G36*
X026614Y027721D02*
X026531Y027638D01*
X026282Y027887D01*
X026365Y027970D01*
X026614Y027721D01*
G37*
G36*
X026475Y027582D02*
X026392Y027499D01*
X026143Y027748D01*
X026226Y027831D01*
X026475Y027582D01*
G37*
G36*
X026336Y027443D02*
X026253Y027360D01*
X026004Y027609D01*
X026087Y027692D01*
X026336Y027443D01*
G37*
G36*
X026197Y027304D02*
X026114Y027221D01*
X025865Y027470D01*
X025948Y027553D01*
X026197Y027304D01*
G37*
G36*
X026057Y027164D02*
X025974Y027081D01*
X025725Y027330D01*
X025808Y027413D01*
X026057Y027164D01*
G37*
G36*
X025918Y027025D02*
X025835Y026942D01*
X025586Y027191D01*
X025669Y027274D01*
X025918Y027025D01*
G37*
G36*
X025779Y026886D02*
X025696Y026803D01*
X025447Y027052D01*
X025530Y027135D01*
X025779Y026886D01*
G37*
G36*
X025640Y026747D02*
X025557Y026664D01*
X025308Y026913D01*
X025391Y026996D01*
X025640Y026747D01*
G37*
G36*
X025501Y026608D02*
X025418Y026525D01*
X025169Y026774D01*
X025252Y026857D01*
X025501Y026608D01*
G37*
G36*
X025361Y026468D02*
X025278Y026385D01*
X025029Y026634D01*
X025112Y026717D01*
X025361Y026468D01*
G37*
G36*
X025222Y026329D02*
X025139Y026246D01*
X024890Y026495D01*
X024973Y026578D01*
X025222Y026329D01*
G37*
G36*
X025083Y026190D02*
X025000Y026107D01*
X024751Y026356D01*
X024834Y026439D01*
X025083Y026190D01*
G37*
D46*
X027579Y026779D02*
X027579Y026784D01*
X027601Y026762D02*
X027620Y026781D01*
X027802Y026599D02*
X028224Y027022D01*
X028276Y027022D01*
X028505Y026792D01*
X028538Y026792D01*
X028731Y026599D01*
X028843Y026599D01*
X028869Y026573D01*
X029438Y026573D01*
X029448Y026573D01*
X029884Y027009D01*
X029945Y027071D01*
X029438Y026573D02*
X029438Y026560D01*
X028224Y027022D02*
X028134Y027113D01*
X028134Y027117D01*
X027458Y024105D02*
X028819Y024105D01*
X033660Y028946D01*
X034391Y028184D02*
X034391Y029883D01*
X034328Y029946D01*
X034391Y028184D02*
X032555Y026348D01*
X027771Y032951D02*
X027771Y032951D01*
X028043Y033222D01*
X028107Y033222D01*
X028214Y033329D01*
X028214Y033329D01*
X027953Y033816D02*
X027876Y033893D01*
X027953Y033816D02*
X028701Y033816D01*
X027771Y032951D02*
X027496Y033226D01*
X027532Y033263D01*
X027389Y033406D01*
X020071Y022370D02*
X020376Y022065D01*
X020376Y021870D01*
X020376Y021389D01*
X020357Y021370D01*
X020376Y021351D01*
X020376Y020870D01*
X019764Y020870D01*
X019764Y021370D02*
X020357Y021370D01*
X020376Y021870D02*
X019764Y021870D01*
X020376Y021870D01*
X020071Y022370D02*
X019764Y022370D01*
X019764Y022370D01*
X016331Y021015D02*
X016308Y020992D01*
X015765Y020992D01*
X013846Y022809D02*
X013513Y022809D01*
X011308Y022458D02*
X011017Y022754D01*
X010514Y023256D01*
X010242Y023256D01*
X010242Y023612D01*
X010242Y023256D02*
X010098Y023113D01*
X009341Y023113D01*
X008868Y022639D01*
X008668Y023292D02*
X007464Y023292D01*
X008668Y023292D02*
X009868Y024492D01*
X009868Y023612D01*
X010242Y022588D02*
X010242Y022116D01*
X009663Y021537D01*
X008868Y021537D01*
X008159Y021537D01*
X008097Y021599D01*
X007464Y021599D01*
X010461Y026185D02*
X010863Y026185D01*
D47*
X010729Y026084D02*
X010713Y026068D01*
X010336Y026068D01*
X010457Y026188D01*
X011805Y026188D01*
X012698Y025295D01*
X012698Y024903D01*
X012698Y022147D01*
X011828Y021277D01*
X011517Y021277D01*
X011517Y021946D02*
X010693Y021946D01*
X010616Y022024D01*
X010616Y022588D01*
X009868Y022588D02*
X009844Y022565D01*
X009844Y022246D01*
X008884Y022138D02*
X008868Y022154D01*
X008868Y022639D01*
X008868Y021537D02*
X008151Y021537D01*
X007974Y021360D01*
X007464Y021599D02*
X006793Y022270D01*
X006793Y024116D01*
X007734Y025057D01*
X008037Y025057D01*
X008037Y026159D02*
X008037Y026541D01*
X008761Y027265D01*
X009549Y027265D01*
X013584Y027265D01*
X013584Y025887D01*
X013639Y025833D01*
X013639Y025769D01*
X013978Y025804D02*
X013978Y026242D01*
X013978Y026261D01*
X014013Y026296D01*
X014013Y026297D01*
X013978Y025804D02*
X014013Y025769D01*
X014013Y025557D01*
X014273Y025297D01*
X014667Y025297D01*
X014765Y025198D01*
X014765Y024563D01*
X014667Y024464D01*
X014398Y024196D01*
X014339Y024196D01*
X013929Y024559D02*
X013664Y024824D01*
X013639Y024824D01*
X014387Y024824D01*
X014387Y025769D02*
X014387Y027151D01*
X014322Y027216D01*
X015454Y026084D01*
X015454Y025442D01*
X015451Y025439D01*
X015204Y025192D01*
X015212Y025184D01*
X015212Y024173D01*
X015212Y023570D01*
X015454Y023328D01*
X015874Y023328D01*
X015893Y023309D01*
X016340Y024116D02*
X016283Y024173D01*
X015881Y024173D01*
X015830Y024608D02*
X015825Y024612D01*
X015830Y024608D02*
X016439Y024608D01*
X016923Y024123D01*
X016923Y024105D01*
X026356Y024105D01*
X026003Y023002D02*
X024183Y023002D01*
X022935Y021754D01*
X022935Y021637D01*
X023037Y021535D01*
X021824Y022370D02*
X021824Y023258D01*
X021754Y023328D01*
X020502Y023112D02*
X020198Y023112D01*
X019982Y023328D01*
X018998Y023328D01*
X018223Y022553D01*
X018223Y021868D01*
X018223Y021021D01*
X018223Y020601D01*
X018475Y020348D01*
X029574Y020348D01*
X030037Y020811D01*
X030037Y021535D01*
X029976Y023002D02*
X031433Y024458D01*
X029976Y023002D02*
X027853Y023002D01*
X027973Y026427D02*
X027802Y026599D01*
X027791Y026610D01*
X027620Y026781D01*
X027601Y026762D02*
X027601Y026757D01*
X027664Y026694D01*
X027601Y026762D02*
X027583Y026779D01*
X027579Y026779D01*
X026058Y028152D02*
X024325Y026418D01*
X024325Y026343D01*
X023741Y025572D02*
X023908Y025404D01*
X023908Y025319D01*
X024325Y025319D01*
X026048Y028162D02*
X026064Y028178D01*
X026064Y028522D01*
X027741Y030199D01*
X028205Y030199D01*
X029228Y030199D02*
X029588Y030559D01*
X029588Y030597D01*
X029588Y030597D01*
X026064Y028522D02*
X024134Y030452D01*
X022569Y032017D01*
X021733Y033178D02*
X022027Y033473D01*
X022027Y033701D01*
X022055Y033728D01*
X021790Y033994D01*
X021765Y034019D01*
X022060Y034313D01*
X021943Y034429D01*
X021943Y034503D01*
X021278Y034506D02*
X020984Y034211D01*
X020984Y033984D01*
X020956Y033956D01*
X021246Y033665D01*
X020954Y033373D01*
X020972Y033355D01*
X020972Y033391D01*
X019748Y034616D01*
X020954Y033373D02*
X020938Y033357D01*
X020984Y034211D02*
X020984Y034211D01*
X022027Y033473D02*
X022027Y033473D01*
X023319Y035088D02*
X023310Y035098D01*
X023319Y035088D02*
X023879Y035088D01*
X023961Y035006D01*
X024377Y035006D01*
X024476Y035006D01*
X024879Y034603D01*
X020087Y031109D02*
X018179Y033016D01*
X018179Y033053D01*
X017596Y032459D02*
X017577Y032459D01*
X013468Y036567D01*
X013468Y037066D01*
X014334Y037066D02*
X014334Y038110D01*
X015512Y038110D01*
X014334Y038110D02*
X013941Y038503D01*
X010334Y038503D01*
X009855Y038503D01*
X009339Y037987D01*
X009339Y037887D01*
X008899Y037887D01*
X008899Y037447D01*
X008949Y037397D01*
X008949Y035643D01*
X009452Y035643D01*
X008949Y035643D02*
X008949Y035121D01*
X008812Y034984D01*
X007530Y031803D02*
X007530Y031303D01*
X007530Y030803D01*
X007530Y030303D01*
X008448Y030303D01*
X008586Y030303D01*
X008586Y030907D01*
X008448Y030553D02*
X008448Y030303D01*
X008448Y029864D02*
X008448Y029803D01*
X009921Y029803D01*
X009921Y029832D01*
X008448Y029803D02*
X007530Y029803D01*
X009921Y026893D02*
X009921Y026238D01*
X009868Y026185D01*
X009985Y026068D01*
X010336Y026068D01*
X010461Y026185D02*
X009868Y026185D01*
X009155Y026185D01*
X009885Y024509D02*
X009868Y024492D01*
X009885Y024509D02*
X010730Y024509D01*
X011409Y023830D01*
X011521Y023830D01*
X012191Y023830D02*
X012191Y023344D01*
X012206Y023328D01*
X012191Y023830D02*
X012191Y024110D01*
X011805Y024495D01*
X013191Y023717D02*
X013191Y023033D01*
X013415Y022809D01*
X013513Y022809D01*
X013846Y021809D02*
X013809Y021771D01*
X013809Y021018D01*
X013770Y021018D01*
X013486Y020733D01*
X013191Y023717D02*
X013669Y024196D01*
X013639Y024226D01*
X013639Y024824D01*
X013978Y026911D02*
X013978Y027167D01*
X013880Y027265D01*
X014273Y027265D01*
X014322Y027216D01*
X013880Y027265D02*
X013584Y027265D01*
X010693Y021277D02*
X010693Y021090D01*
X010336Y020733D01*
X019153Y022677D02*
X019456Y022677D01*
X019764Y022370D01*
X019501Y029744D02*
X019500Y029745D01*
X019500Y030220D01*
D48*
X019501Y029744D03*
X020157Y029341D03*
X020464Y029046D03*
X020779Y028731D03*
X021291Y028227D03*
X021973Y028658D03*
X022065Y027405D03*
X021359Y026660D03*
X020549Y027461D03*
X019083Y026974D03*
X018437Y027076D03*
X019178Y028354D03*
X020205Y025602D03*
X019982Y023328D03*
X019153Y022677D03*
X021754Y023328D03*
X023741Y025572D03*
X026480Y028475D03*
X027105Y027677D03*
X027973Y026427D03*
X029588Y030597D03*
X026253Y032187D03*
X025855Y032551D03*
X024879Y034603D03*
X024398Y033898D03*
X024081Y033870D03*
X023768Y032823D03*
X023402Y032917D03*
X022569Y032017D03*
X023583Y031527D03*
X021943Y034503D03*
X023310Y035098D03*
X020972Y033355D03*
X019748Y034616D03*
X018179Y033053D03*
X017596Y032459D03*
X015057Y029909D03*
X014667Y024464D03*
X013929Y024559D03*
X012206Y023328D03*
X013486Y020733D03*
X016331Y021015D03*
X016340Y024116D03*
X010336Y020733D03*
X009844Y022246D03*
X008884Y022138D03*
X007974Y021360D03*
X009921Y026893D03*
X009921Y029832D03*
X008586Y030907D03*
X008812Y034984D03*
D49*
X033660Y028946D02*
X033916Y028946D01*
X033924Y028953D01*
X033924Y029977D02*
X034297Y029977D01*
X034328Y029946D01*
D50*
X032432Y031634D02*
X029272Y028474D01*
X027727Y028474D01*
X027423Y028778D01*
X027423Y028778D01*
X027423Y028778D01*
X027283Y028639D02*
X027283Y028639D01*
X027283Y028639D01*
X027144Y028500D02*
X027144Y028500D01*
X027232Y028413D01*
X027226Y027925D02*
X027228Y027924D01*
X027327Y027924D01*
X027646Y027604D01*
X027646Y027604D01*
X027646Y027604D01*
X027226Y027925D02*
X027002Y027925D01*
X026982Y027905D01*
X026981Y027905D01*
X026942Y027867D01*
X026727Y028082D01*
X026727Y028082D01*
X026511Y028298D01*
X026511Y028444D01*
X026480Y028475D01*
X026727Y028082D02*
X026727Y028082D01*
X026587Y027943D02*
X026587Y027943D01*
X026587Y027943D01*
X026854Y027677D01*
X027105Y027677D01*
X026940Y027418D02*
X027176Y027182D01*
X027176Y027182D01*
X027176Y027182D01*
X026940Y027418D02*
X026940Y027418D01*
X026834Y027418D01*
X026664Y027588D01*
X026448Y027804D01*
X026448Y027804D01*
X026448Y027804D01*
X026232Y028020D01*
X026219Y028033D01*
X026177Y028033D01*
X026058Y028152D01*
X026048Y028162D01*
X026309Y027665D02*
X026309Y027665D01*
X026309Y027665D01*
X026396Y027578D01*
X026170Y027526D02*
X026170Y027526D01*
X026170Y027526D01*
X026390Y026784D02*
X026478Y026696D01*
X026478Y026696D01*
X026182Y025986D02*
X026077Y025881D01*
X026077Y025881D01*
X026550Y025408D02*
X026550Y025408D01*
X026550Y025408D01*
X026710Y024984D02*
X021433Y024984D01*
X020280Y026137D01*
X019920Y026137D01*
X019083Y026974D01*
X019186Y027221D02*
X018708Y027221D01*
X018573Y027357D01*
X018459Y027357D01*
X017243Y028573D01*
X005586Y028573D01*
X004795Y029364D01*
X004795Y031544D01*
X007179Y033928D01*
X007779Y033928D01*
X008069Y034217D01*
X008414Y034217D01*
X008758Y034217D01*
X008762Y034214D01*
X009227Y034214D01*
X009227Y034549D01*
X009880Y035202D01*
X009880Y037143D01*
X009452Y037143D01*
X008072Y037887D02*
X008072Y035196D01*
X007458Y034581D01*
X007458Y034257D01*
X007458Y033587D02*
X007458Y033262D01*
X007609Y033111D01*
X008327Y033111D01*
X011802Y029636D01*
X017705Y029636D01*
X018921Y028420D01*
X019112Y028420D01*
X019178Y028354D01*
X018940Y028243D02*
X019075Y028107D01*
X019330Y028107D01*
X019425Y028202D01*
X019458Y028202D01*
X020447Y027214D01*
X020806Y027214D01*
X021359Y026660D01*
X021262Y026408D02*
X022519Y026408D01*
X023080Y026969D01*
X023080Y026969D01*
X023080Y026969D01*
X023219Y026830D02*
X023219Y026830D01*
X022606Y026217D01*
X021202Y026217D01*
X020560Y026859D01*
X020300Y026859D01*
X019406Y027753D01*
X018928Y027753D01*
X018793Y027888D01*
X018693Y027888D01*
X017477Y029104D01*
X005825Y029104D01*
X005352Y029577D01*
X005352Y030303D01*
X006030Y030303D01*
X006030Y030803D02*
X005352Y030803D01*
X005160Y030611D01*
X005160Y029517D01*
X005749Y028927D01*
X017404Y028927D01*
X018620Y027711D01*
X018720Y027711D01*
X018855Y027576D01*
X019333Y027576D01*
X020226Y026682D01*
X020487Y026682D01*
X021129Y026040D01*
X022986Y026040D01*
X023497Y026551D01*
X023497Y026551D01*
X023497Y026551D01*
X023636Y026412D02*
X023636Y026412D01*
X023081Y025857D01*
X021061Y025857D01*
X020413Y026505D01*
X020153Y026505D01*
X019259Y027399D01*
X018782Y027399D01*
X018646Y027534D01*
X018546Y027534D01*
X017331Y028750D01*
X005668Y028750D01*
X004976Y029442D01*
X004976Y030927D01*
X005352Y031303D01*
X006030Y031303D01*
X006030Y031803D02*
X006708Y031803D01*
X006708Y029746D01*
X006996Y029459D01*
X017624Y029459D01*
X018840Y028243D01*
X018940Y028243D01*
X018867Y028066D02*
X019002Y027930D01*
X019479Y027930D01*
X020373Y027036D01*
X020633Y027036D01*
X021262Y026408D01*
X021743Y026626D02*
X022458Y026626D01*
X022941Y027108D01*
X022941Y027108D01*
X022941Y027108D01*
X022801Y027247D02*
X022801Y027247D01*
X022801Y027247D01*
X022357Y026803D01*
X021816Y026803D01*
X019956Y028663D01*
X019956Y028677D01*
X019500Y029133D01*
X019242Y029133D01*
X018483Y029893D01*
X018483Y030418D01*
X013035Y035865D01*
X013035Y036988D01*
X012602Y036830D02*
X012602Y036047D01*
X017059Y031591D01*
X017059Y031066D01*
X019169Y028956D01*
X019427Y028956D01*
X019779Y028604D01*
X019779Y028589D01*
X021743Y026626D01*
X021890Y026980D02*
X020134Y028736D01*
X020134Y028751D01*
X019574Y029310D01*
X019316Y029310D01*
X018660Y029966D01*
X018660Y031806D01*
X013901Y036564D01*
X013901Y036988D01*
X014768Y036988D02*
X014768Y036564D01*
X014768Y035992D01*
X018837Y031923D01*
X018837Y030042D01*
X019392Y029488D01*
X019647Y029488D01*
X020311Y028824D01*
X020311Y028810D01*
X021963Y027157D01*
X022168Y027157D01*
X022523Y027513D01*
X022523Y027526D01*
X022523Y027526D01*
X022523Y027526D01*
X022384Y027665D02*
X022384Y027665D01*
X022384Y027665D01*
X022123Y027405D01*
X022065Y027405D01*
X022245Y027804D02*
X022245Y027804D01*
X022245Y027804D01*
X022460Y028020D01*
X022381Y028099D01*
X022362Y028099D01*
X022312Y028150D01*
X022181Y028019D01*
X022105Y027943D01*
X022181Y028019D01*
X022312Y028150D02*
X022321Y028159D01*
X022182Y028298D01*
X021966Y028082D01*
X021966Y028082D01*
X021966Y028082D01*
X022182Y028298D02*
X021973Y028507D01*
X021973Y028577D01*
X021904Y028577D01*
X021688Y028361D01*
X021688Y028361D01*
X021688Y028361D01*
X021549Y028500D02*
X021549Y028500D01*
X021291Y028242D01*
X021291Y028227D01*
X021549Y028500D02*
X021549Y028500D01*
X021973Y028577D02*
X021973Y028658D01*
X020992Y029057D02*
X020992Y029057D01*
X020776Y028841D01*
X020779Y028838D01*
X020779Y028731D01*
X020637Y028980D02*
X020604Y029013D01*
X020497Y029013D01*
X020464Y029046D01*
X020637Y028980D02*
X020853Y029196D01*
X020853Y029196D01*
X020853Y029196D01*
X020992Y029057D02*
X020992Y029057D01*
X020435Y029614D02*
X020435Y029614D01*
X020435Y029614D01*
X020219Y029398D01*
X020219Y029398D01*
X020214Y029398D01*
X020157Y029341D01*
X019353Y028779D02*
X019602Y028530D01*
X019602Y028408D01*
X020549Y027461D01*
X020352Y026315D02*
X020092Y026315D01*
X019186Y027221D01*
X018867Y028066D02*
X018767Y028066D01*
X017551Y029281D01*
X006551Y029281D01*
X006030Y029803D01*
X008254Y027151D02*
X011911Y027151D01*
X011911Y027054D02*
X008157Y027054D01*
X008060Y026958D02*
X011911Y026958D01*
X011911Y026861D02*
X007963Y026861D01*
X007866Y026764D02*
X011911Y026764D01*
X011911Y026667D02*
X011170Y026667D01*
X011168Y026670D02*
X011140Y026698D01*
X011106Y026717D01*
X011068Y026728D01*
X009917Y026728D01*
X009917Y026234D01*
X009819Y026234D01*
X009819Y026728D01*
X008667Y026728D01*
X008629Y026717D01*
X008595Y026698D01*
X008567Y026670D01*
X008548Y026636D01*
X008537Y026598D01*
X008537Y026505D01*
X008530Y026532D01*
X008511Y026566D01*
X008483Y026593D01*
X008449Y026613D01*
X008411Y026623D01*
X008086Y026623D01*
X008086Y026208D01*
X008541Y026208D01*
X008541Y026234D01*
X009818Y026234D01*
X009818Y026135D01*
X008537Y026135D01*
X008537Y026110D01*
X008086Y026110D01*
X008086Y026208D01*
X007988Y026208D01*
X007988Y026623D01*
X007726Y026623D01*
X008761Y027659D01*
X011517Y027659D01*
X011911Y027265D01*
X011911Y026588D01*
X011854Y026588D01*
X011854Y026238D01*
X011756Y026238D01*
X011756Y026588D01*
X011496Y026588D01*
X011458Y026577D01*
X011424Y026558D01*
X011396Y026530D01*
X011376Y026496D01*
X011366Y026458D01*
X011366Y026238D01*
X011756Y026238D01*
X011756Y026139D01*
X011854Y026139D01*
X011854Y025789D01*
X011911Y025789D01*
X011198Y025789D01*
X011198Y026135D01*
X009917Y026135D01*
X009917Y026234D01*
X011198Y026234D01*
X011198Y026598D01*
X011188Y026636D01*
X011168Y026670D01*
X011198Y026570D02*
X011445Y026570D01*
X011370Y026473D02*
X011198Y026473D01*
X011198Y026376D02*
X011366Y026376D01*
X011366Y026279D02*
X011198Y026279D01*
X011198Y026085D02*
X011366Y026085D01*
X011366Y026139D02*
X011366Y025919D01*
X011376Y025881D01*
X011396Y025847D01*
X011424Y025819D01*
X011458Y025799D01*
X011496Y025789D01*
X011756Y025789D01*
X011756Y026139D01*
X011366Y026139D01*
X011366Y025988D02*
X011198Y025988D01*
X011198Y025891D02*
X011373Y025891D01*
X011476Y025794D02*
X011198Y025794D01*
X011756Y025794D02*
X011854Y025794D01*
X011911Y025789D02*
X011911Y025789D01*
X011854Y025891D02*
X011756Y025891D01*
X011756Y025988D02*
X011854Y025988D01*
X011854Y026085D02*
X011756Y026085D01*
X011756Y026182D02*
X009917Y026182D01*
X009917Y026279D02*
X009819Y026279D01*
X009818Y026182D02*
X008086Y026182D01*
X008086Y026279D02*
X007988Y026279D01*
X007988Y026376D02*
X008086Y026376D01*
X008086Y026473D02*
X007988Y026473D01*
X007988Y026570D02*
X008086Y026570D01*
X007769Y026667D02*
X008565Y026667D01*
X008537Y026570D02*
X008507Y026570D01*
X008351Y027248D02*
X011911Y027248D01*
X011831Y027345D02*
X008448Y027345D01*
X008545Y027442D02*
X011734Y027442D01*
X011637Y027539D02*
X008641Y027539D01*
X008738Y027636D02*
X011540Y027636D01*
X011756Y026570D02*
X011854Y026570D01*
X011854Y026473D02*
X011756Y026473D01*
X011756Y026376D02*
X011854Y026376D01*
X011854Y026279D02*
X011756Y026279D01*
X011911Y024903D02*
X011198Y024903D01*
X011198Y024541D01*
X009917Y024541D01*
X009917Y024443D01*
X011198Y024443D01*
X011198Y024259D01*
X011208Y024265D01*
X011246Y024275D01*
X011406Y024275D01*
X011406Y024791D01*
X011470Y024855D01*
X011959Y024855D01*
X011911Y024903D01*
X011441Y024825D02*
X011198Y024825D01*
X011198Y024728D02*
X011406Y024728D01*
X011406Y024631D02*
X011198Y024631D01*
X011198Y024437D02*
X011406Y024437D01*
X011406Y024341D02*
X011198Y024341D01*
X011406Y024534D02*
X009917Y024534D01*
X009917Y024443D02*
X009917Y023958D01*
X009886Y023958D01*
X009886Y023631D01*
X009849Y023631D01*
X009849Y023958D01*
X009819Y023958D01*
X009819Y024443D01*
X009917Y024443D01*
X009917Y024437D02*
X009819Y024437D01*
X009818Y024443D02*
X008537Y024443D01*
X008537Y024078D01*
X008548Y024040D01*
X008567Y024006D01*
X008595Y023979D01*
X008629Y023959D01*
X008667Y023949D01*
X009678Y023949D01*
X009674Y023948D01*
X009640Y023928D01*
X009612Y023900D01*
X009593Y023866D01*
X009583Y023828D01*
X009583Y023631D01*
X009849Y023631D01*
X009849Y023593D01*
X009583Y023593D01*
X009583Y023395D01*
X009593Y023357D01*
X009610Y023328D01*
X007513Y023328D01*
X007513Y023341D01*
X007903Y023341D01*
X007903Y023562D01*
X007892Y023600D01*
X007873Y023634D01*
X007845Y023662D01*
X007811Y023681D01*
X007773Y023691D01*
X007513Y023691D01*
X007513Y023341D01*
X007415Y023341D01*
X007415Y023691D01*
X007187Y023691D01*
X007187Y024178D01*
X007641Y024633D01*
X008437Y024633D01*
X008501Y024696D01*
X008501Y024903D01*
X008537Y024903D01*
X008537Y024541D01*
X009818Y024541D01*
X009818Y024443D01*
X009818Y024534D02*
X007543Y024534D01*
X007446Y024437D02*
X008537Y024437D01*
X008537Y024341D02*
X007349Y024341D01*
X007252Y024244D02*
X008537Y024244D01*
X008537Y024147D02*
X007187Y024147D01*
X007187Y024050D02*
X008545Y024050D01*
X008652Y023953D02*
X007187Y023953D01*
X007187Y023856D02*
X009590Y023856D01*
X009583Y023759D02*
X007187Y023759D01*
X007415Y023662D02*
X007513Y023662D01*
X007513Y023565D02*
X007415Y023565D01*
X007415Y023468D02*
X007513Y023468D01*
X007513Y023371D02*
X007415Y023371D01*
X007903Y023371D02*
X009589Y023371D01*
X009583Y023468D02*
X007903Y023468D01*
X007902Y023565D02*
X009583Y023565D01*
X009583Y023662D02*
X007844Y023662D01*
X007863Y023084D02*
X008263Y023084D01*
X008245Y023074D01*
X008217Y023046D01*
X008197Y023012D01*
X008187Y022974D01*
X008187Y022689D01*
X008818Y022689D01*
X008819Y022689D02*
X008819Y023104D01*
X008773Y023104D01*
X008840Y023170D01*
X010982Y023170D01*
X010982Y022885D01*
X011046Y022821D01*
X011569Y022821D01*
X011633Y022885D01*
X011633Y023170D01*
X012033Y023170D01*
X012109Y023094D01*
X012303Y023094D01*
X012305Y023096D01*
X012305Y022085D01*
X011791Y021571D01*
X011778Y021583D01*
X011255Y021583D01*
X011191Y021519D01*
X011191Y021360D01*
X011019Y021360D01*
X011019Y021519D01*
X010955Y021583D01*
X010432Y021583D01*
X010368Y021519D01*
X010368Y021360D01*
X009779Y021360D01*
X010328Y021909D01*
X010368Y021948D01*
X010368Y021704D01*
X010432Y021640D01*
X010955Y021640D01*
X011019Y021704D01*
X011019Y021712D01*
X011191Y021712D01*
X011191Y021704D01*
X011255Y021640D01*
X011778Y021640D01*
X011842Y021704D01*
X011842Y022189D01*
X011778Y022253D01*
X011673Y022253D01*
X011673Y022409D01*
X011357Y022409D01*
X011357Y022507D01*
X011673Y022507D01*
X011673Y022675D01*
X011663Y022713D01*
X011644Y022747D01*
X011616Y022775D01*
X011582Y022794D01*
X011544Y022804D01*
X011357Y022804D01*
X011357Y022507D01*
X011259Y022507D01*
X011258Y022507D02*
X011258Y022409D01*
X010942Y022409D01*
X010942Y022253D01*
X010850Y022253D01*
X010850Y022335D01*
X010861Y022346D01*
X010861Y022830D01*
X010797Y022894D01*
X010435Y022894D01*
X010429Y022888D01*
X010423Y022894D01*
X010061Y022894D01*
X010055Y022888D01*
X010049Y022894D01*
X009687Y022894D01*
X009623Y022830D01*
X009623Y022674D01*
X009610Y022662D01*
X009610Y022149D01*
X009747Y022011D01*
X009843Y022011D01*
X009577Y021745D01*
X009508Y021745D01*
X009508Y021897D01*
X009444Y021961D01*
X008291Y021961D01*
X008227Y021897D01*
X008227Y021771D01*
X008218Y021771D01*
X008183Y021807D01*
X007863Y021807D01*
X007863Y021894D01*
X007799Y021958D01*
X007436Y021958D01*
X007187Y022208D01*
X007187Y022933D01*
X007799Y022933D01*
X007863Y022997D01*
X007863Y023084D01*
X007863Y023081D02*
X008256Y023081D01*
X008190Y022984D02*
X007849Y022984D01*
X008187Y022887D02*
X007187Y022887D01*
X007187Y022790D02*
X008187Y022790D01*
X008187Y022693D02*
X007187Y022693D01*
X007187Y022596D02*
X008818Y022596D01*
X008818Y022590D02*
X008187Y022590D01*
X008187Y022305D01*
X007187Y022305D01*
X007187Y022208D02*
X008241Y022208D01*
X008245Y022205D02*
X008279Y022185D01*
X008317Y022175D01*
X008819Y022175D01*
X008819Y022590D01*
X008917Y022590D01*
X008917Y022175D01*
X009419Y022175D01*
X009457Y022185D01*
X009491Y022205D01*
X009519Y022233D01*
X009538Y022267D01*
X009548Y022305D01*
X009610Y022305D01*
X009548Y022305D02*
X009548Y022590D01*
X008917Y022590D01*
X008917Y022689D01*
X008819Y022689D01*
X008818Y022689D02*
X008818Y022590D01*
X008819Y022499D02*
X008917Y022499D01*
X008917Y022596D02*
X009610Y022596D01*
X009610Y022499D02*
X009548Y022499D01*
X009548Y022402D02*
X009610Y022402D01*
X009610Y022208D02*
X009494Y022208D01*
X009647Y022111D02*
X007283Y022111D01*
X007380Y022014D02*
X009744Y022014D01*
X009749Y021917D02*
X009488Y021917D01*
X009508Y021820D02*
X009652Y021820D01*
X009949Y021530D02*
X010378Y021530D01*
X010368Y021433D02*
X009852Y021433D01*
X010046Y021627D02*
X011847Y021627D01*
X011842Y021724D02*
X011944Y021724D01*
X012040Y021820D02*
X011842Y021820D01*
X011842Y021917D02*
X012137Y021917D01*
X012234Y022014D02*
X011842Y022014D01*
X011842Y022111D02*
X012305Y022111D01*
X012305Y022208D02*
X011823Y022208D01*
X011673Y022305D02*
X012305Y022305D01*
X012305Y022402D02*
X011673Y022402D01*
X011673Y022596D02*
X012305Y022596D01*
X012305Y022693D02*
X011669Y022693D01*
X011590Y022790D02*
X012305Y022790D01*
X012305Y022887D02*
X011633Y022887D01*
X011633Y022984D02*
X012305Y022984D01*
X012305Y023081D02*
X011633Y023081D01*
X011308Y023128D02*
X010963Y023423D01*
X010963Y023528D01*
X010880Y023612D01*
X010616Y023612D01*
X010861Y023770D02*
X010861Y023854D01*
X010797Y023918D01*
X010435Y023918D01*
X010429Y023912D01*
X010423Y023918D01*
X010105Y023918D01*
X010095Y023928D01*
X010061Y023948D01*
X010057Y023949D01*
X011068Y023949D01*
X011106Y023959D01*
X011116Y023965D01*
X011116Y023880D01*
X011472Y023880D01*
X011472Y023781D01*
X011116Y023781D01*
X011116Y023599D01*
X011038Y023677D01*
X010945Y023770D01*
X010861Y023770D01*
X010859Y023856D02*
X011472Y023856D01*
X011116Y023953D02*
X011083Y023953D01*
X011116Y023759D02*
X010956Y023759D01*
X011053Y023662D02*
X011116Y023662D01*
X010982Y023081D02*
X009479Y023081D01*
X009491Y023074D02*
X009457Y023093D01*
X009419Y023104D01*
X008917Y023104D01*
X008917Y022689D01*
X009548Y022689D01*
X009548Y022974D01*
X009538Y023012D01*
X009519Y023046D01*
X009491Y023074D01*
X009546Y022984D02*
X010982Y022984D01*
X010982Y022887D02*
X010804Y022887D01*
X010861Y022790D02*
X011026Y022790D01*
X011034Y022794D02*
X011000Y022775D01*
X010972Y022747D01*
X010952Y022713D01*
X010942Y022675D01*
X010942Y022507D01*
X011258Y022507D01*
X011259Y022507D02*
X011259Y022804D01*
X011072Y022804D01*
X011034Y022794D01*
X010947Y022693D02*
X010861Y022693D01*
X010861Y022596D02*
X010942Y022596D01*
X010861Y022499D02*
X011258Y022499D01*
X011259Y022596D02*
X011357Y022596D01*
X011357Y022693D02*
X011259Y022693D01*
X011259Y022790D02*
X011357Y022790D01*
X011357Y022499D02*
X012305Y022499D01*
X011201Y021530D02*
X011009Y021530D01*
X011019Y021433D02*
X011191Y021433D01*
X010942Y022305D02*
X010850Y022305D01*
X010861Y022402D02*
X010942Y022402D01*
X010368Y021917D02*
X010337Y021917D01*
X010368Y021820D02*
X010240Y021820D01*
X010143Y021724D02*
X010368Y021724D01*
X009623Y022693D02*
X009548Y022693D01*
X009548Y022790D02*
X009623Y022790D01*
X009679Y022887D02*
X009548Y022887D01*
X008917Y022887D02*
X008819Y022887D01*
X008819Y022984D02*
X008917Y022984D01*
X008917Y023081D02*
X008819Y023081D01*
X008819Y022790D02*
X008917Y022790D01*
X008917Y022693D02*
X008819Y022693D01*
X008819Y022402D02*
X008917Y022402D01*
X008917Y022305D02*
X008819Y022305D01*
X008819Y022208D02*
X008917Y022208D01*
X008245Y022205D02*
X008217Y022233D01*
X008197Y022267D01*
X008187Y022305D01*
X008187Y022402D02*
X007187Y022402D01*
X007187Y022499D02*
X008187Y022499D01*
X008247Y021917D02*
X007840Y021917D01*
X007863Y021820D02*
X008227Y021820D01*
X009849Y023662D02*
X009886Y023662D01*
X009886Y023759D02*
X009849Y023759D01*
X009849Y023856D02*
X009886Y023856D01*
X009886Y023953D02*
X009849Y023953D01*
X009819Y024050D02*
X009917Y024050D01*
X009917Y024147D02*
X009819Y024147D01*
X009819Y024244D02*
X009917Y024244D01*
X009917Y024341D02*
X009819Y024341D01*
X008537Y024631D02*
X007640Y024631D01*
X008501Y024728D02*
X008537Y024728D01*
X008537Y024825D02*
X008501Y024825D01*
X009819Y026376D02*
X009917Y026376D01*
X009917Y026473D02*
X009819Y026473D01*
X009819Y026570D02*
X009917Y026570D01*
X009917Y026667D02*
X009819Y026667D01*
X012053Y029909D02*
X008414Y033548D01*
X009227Y033525D02*
X009227Y033190D01*
X012064Y030354D01*
X017261Y030354D01*
X019013Y028602D01*
X019280Y028602D01*
X019425Y028457D01*
X019425Y028202D01*
X019353Y028779D02*
X019086Y028779D01*
X015364Y032501D01*
X015364Y032933D01*
X014882Y032933D01*
X012638Y032933D01*
X012053Y029909D02*
X015057Y029909D01*
X016089Y025439D02*
X015553Y024903D01*
X015553Y023722D01*
X015651Y023624D01*
X016340Y023624D01*
X016439Y023525D01*
X016439Y022812D01*
X016436Y022809D01*
X016439Y022812D01*
X016436Y022809D02*
X015893Y022809D01*
X015893Y022309D02*
X016454Y022309D01*
X016454Y022790D01*
X016436Y022809D01*
X015893Y021809D02*
X015553Y021809D01*
X015257Y022104D01*
X015257Y022246D01*
X014194Y023309D01*
X013846Y023309D01*
X013846Y022309D02*
X014309Y022309D01*
X014765Y021852D01*
X014765Y021018D01*
X015071Y021018D01*
X015096Y020992D01*
X014765Y021018D02*
X014478Y021018D01*
X016089Y025439D02*
X016199Y025439D01*
X018437Y027076D02*
X019554Y025960D01*
X020206Y025960D01*
X021402Y024764D01*
X026679Y024764D01*
X026944Y024499D01*
X026944Y022456D01*
X027865Y021535D01*
X028037Y021535D01*
X028037Y020887D01*
X022869Y020887D01*
X022387Y021370D01*
X021824Y021370D01*
X021261Y021370D01*
X021261Y021618D01*
X020027Y022852D01*
X019672Y022852D01*
X019591Y022933D01*
X019023Y022933D01*
X018892Y022801D01*
X018892Y021868D01*
X018892Y021021D02*
X018892Y020676D01*
X018946Y020622D01*
X021013Y020622D01*
X021261Y020870D01*
X021824Y020870D01*
X022387Y020870D01*
X022560Y020697D01*
X028847Y020697D01*
X029037Y020887D01*
X029037Y021535D01*
X029037Y022183D01*
X027472Y022183D01*
X027122Y022534D01*
X027122Y024573D01*
X026710Y024984D01*
X026606Y024587D02*
X021220Y024587D01*
X020205Y025602D01*
X020352Y026315D02*
X020988Y025679D01*
X023182Y025679D01*
X023776Y026273D01*
X023776Y026273D01*
X023776Y026273D01*
X024325Y026343D02*
X024555Y026343D01*
X024701Y026489D01*
X024917Y026273D01*
X024917Y026273D01*
X024917Y026273D01*
X024325Y026343D02*
X024325Y026008D01*
X023219Y026830D02*
X023219Y026830D01*
X022662Y027387D02*
X022662Y027387D01*
X022662Y027387D01*
X022256Y026980D01*
X021890Y026980D01*
X020523Y030220D02*
X020523Y030412D01*
X020651Y030539D01*
X020477Y030713D01*
X020435Y030755D01*
X020435Y030755D01*
X020477Y030713D01*
X020523Y030220D02*
X020189Y030220D01*
X020875Y031768D02*
X021092Y031768D01*
X021270Y031590D01*
X021270Y031590D01*
X021270Y031590D01*
X021409Y031729D02*
X021193Y031946D01*
X020970Y031946D01*
X017445Y035471D01*
X017445Y036219D01*
X017037Y036627D01*
X017037Y037035D01*
X017037Y036035D02*
X017037Y035606D01*
X020875Y031768D01*
X021051Y032128D02*
X021289Y032128D01*
X021549Y031869D01*
X021549Y031869D01*
X021549Y031869D01*
X021688Y032008D02*
X021688Y032008D01*
X021688Y032008D01*
X021390Y032305D01*
X021128Y032305D01*
X018445Y034988D01*
X018445Y036219D01*
X018037Y036627D01*
X018037Y037035D01*
X018037Y036035D02*
X018037Y035142D01*
X021051Y032128D01*
X021202Y032482D02*
X021491Y032482D01*
X021827Y032147D01*
X021827Y032147D01*
X021966Y032286D02*
X021966Y032286D01*
X021966Y032286D01*
X021593Y032660D01*
X021277Y032660D01*
X019445Y034492D01*
X019445Y036219D01*
X019037Y036627D01*
X019037Y037035D01*
X019037Y036035D02*
X019037Y034647D01*
X021202Y032482D01*
X021747Y033164D02*
X021733Y033178D01*
X021733Y033178D01*
X021733Y033178D01*
X021733Y033178D01*
X021747Y033164D01*
X021733Y033178D02*
X021733Y033178D01*
X021970Y032942D01*
X021970Y032839D01*
X022029Y032780D01*
X022245Y032565D01*
X022245Y032565D01*
X022245Y032565D01*
X022384Y032704D02*
X022384Y032704D01*
X022384Y032704D01*
X022654Y032434D01*
X023583Y031527D01*
X022569Y032017D02*
X022514Y032017D01*
X022105Y032425D01*
X022105Y032425D01*
X022105Y032425D01*
X022523Y032843D02*
X022523Y032843D01*
X022523Y032843D01*
X022260Y033106D01*
X022260Y033325D01*
X022321Y033385D01*
X022321Y034484D01*
X022003Y034802D01*
X021467Y034802D01*
X021324Y034945D01*
X021275Y034945D01*
X020445Y035775D01*
X020445Y036035D01*
X020037Y036035D01*
X020037Y036627D02*
X020037Y037035D01*
X020037Y036627D02*
X020139Y036627D01*
X020627Y036139D01*
X020627Y035860D01*
X021315Y035172D01*
X021347Y035172D01*
X021540Y034979D01*
X022076Y034979D01*
X022498Y034558D01*
X022498Y033250D01*
X022446Y033198D01*
X022662Y032982D01*
X022662Y032982D01*
X022662Y032982D01*
X022801Y033121D02*
X023237Y032685D01*
X023629Y032685D01*
X023768Y032823D01*
X023741Y033177D02*
X024398Y033834D01*
X024398Y033898D01*
X024701Y033880D02*
X024841Y034020D01*
X024917Y034096D01*
X024718Y034295D01*
X024718Y034317D01*
X024377Y034317D01*
X024081Y033870D02*
X023589Y033377D01*
X023381Y033377D01*
X023261Y033497D01*
X023219Y033539D01*
X023219Y033539D01*
X023261Y033497D01*
X023358Y033678D02*
X023358Y033678D01*
X023358Y033678D01*
X022704Y034332D01*
X022704Y034602D01*
X022150Y035156D01*
X021916Y035156D01*
X021037Y036035D01*
X021445Y036045D02*
X022156Y035334D01*
X022223Y035334D01*
X022881Y034676D01*
X022881Y034433D01*
X023497Y033817D01*
X023497Y033817D01*
X023497Y033817D01*
X023636Y033956D02*
X023636Y033956D01*
X023636Y033956D01*
X023421Y034172D01*
X023059Y034534D01*
X023059Y034749D01*
X022885Y034922D01*
X022885Y034947D01*
X022037Y035795D01*
X022037Y036035D01*
X022445Y036219D02*
X022037Y036627D01*
X022037Y037035D01*
X022445Y036219D02*
X022445Y035638D01*
X023063Y035020D01*
X023063Y034996D01*
X023217Y034841D01*
X023242Y034841D01*
X023560Y034523D01*
X023560Y034311D01*
X023776Y034096D01*
X023776Y034096D01*
X023776Y034096D01*
X023741Y033177D02*
X023302Y033177D01*
X023080Y033400D01*
X023080Y033400D01*
X023080Y033400D01*
X022941Y033261D02*
X022941Y033261D01*
X022941Y033261D01*
X023284Y032917D01*
X023402Y032917D01*
X024716Y033616D02*
X025080Y033253D01*
X025080Y032970D01*
X025866Y032184D01*
X026113Y032431D01*
X026113Y032508D01*
X026309Y032704D01*
X026430Y032825D01*
X026525Y032920D01*
X026525Y033024D01*
X027635Y034134D01*
X027876Y033893D01*
X027953Y033816D01*
X028701Y033816D01*
X028701Y033816D01*
X028214Y033329D02*
X028214Y033329D01*
X027771Y032951D02*
X027771Y032951D01*
X027389Y033406D02*
X027389Y033406D01*
X027389Y033406D01*
X027152Y033170D01*
X027152Y033170D01*
X027053Y033170D01*
X026448Y032565D01*
X026373Y032489D01*
X026448Y032565D01*
X026448Y032565D01*
X026373Y032489D02*
X026292Y032409D01*
X026292Y032227D01*
X026253Y032187D01*
X025866Y032184D02*
X024134Y030452D01*
X025855Y032551D02*
X025878Y032551D01*
X026170Y032843D01*
X026170Y032843D01*
X026170Y032843D01*
X026309Y032704D02*
X026309Y032704D01*
X026430Y032825D01*
X026803Y032641D02*
X026980Y032641D01*
X027043Y032705D01*
X027284Y032464D01*
X027284Y032464D01*
X026803Y032641D02*
X026587Y032425D01*
X026587Y032425D01*
X026587Y032425D01*
X025752Y033261D02*
X025752Y033261D01*
X025752Y033261D01*
X027427Y034936D01*
X027427Y036237D01*
X027037Y036627D01*
X027037Y037035D01*
X027037Y036035D02*
X027037Y034824D01*
X025734Y033521D01*
X025613Y033400D01*
X025613Y033400D01*
X025734Y033521D01*
X025474Y033539D02*
X025781Y033846D01*
X025781Y035055D01*
X025622Y035215D01*
X025622Y036046D01*
X025041Y036627D01*
X024853Y036627D01*
X024445Y037035D01*
X024037Y037035D01*
X024037Y036035D02*
X024456Y036035D01*
X025589Y034902D01*
X025589Y033932D01*
X025335Y033678D01*
X025335Y033678D01*
X025335Y033678D01*
X025474Y033539D02*
X025474Y033539D01*
X025474Y033539D01*
X025195Y033817D02*
X025317Y033938D01*
X025195Y033817D01*
X025195Y033817D01*
X025317Y033938D02*
X025411Y034033D01*
X025411Y034829D01*
X024664Y035576D01*
X023907Y035576D01*
X023445Y036038D01*
X023445Y036219D01*
X023037Y036627D01*
X023037Y037035D01*
X023037Y036035D02*
X023679Y035393D01*
X024597Y035393D01*
X025221Y034768D01*
X025221Y034121D01*
X025056Y033956D01*
X025056Y033956D01*
X025056Y033956D01*
X024917Y034096D02*
X024917Y034096D01*
X024841Y034020D01*
X024701Y033880D02*
X024716Y033865D01*
X024716Y033616D01*
X021790Y033994D02*
X021765Y034019D01*
X021765Y034019D01*
X021246Y033665D02*
X021246Y033665D01*
X021246Y033665D01*
X021278Y034506D02*
X021278Y034506D01*
X021278Y034506D01*
X021445Y036045D02*
X021445Y036219D01*
X021037Y036627D01*
X021037Y037035D01*
X021409Y031729D02*
X021409Y031729D01*
X021409Y031729D01*
X026606Y024587D02*
X026702Y024491D01*
X026702Y021870D01*
X027037Y021535D01*
X026951Y026223D02*
X026951Y026223D01*
X026951Y026223D01*
X027664Y026694D02*
X027706Y026694D01*
X027791Y026610D01*
X028134Y027113D02*
X028134Y027117D01*
X028134Y027117D01*
X028362Y027756D02*
X028362Y027756D01*
X028362Y027756D01*
X028835Y027672D02*
X029017Y027853D01*
X029017Y027853D01*
X029458Y027558D02*
X029458Y027558D01*
X029458Y027558D01*
X029945Y027071D02*
X029884Y027009D01*
X029945Y027071D02*
X029945Y027071D01*
X029438Y026560D02*
X029438Y026560D01*
X029438Y026560D01*
X028951Y027047D02*
X028951Y027047D01*
X028951Y027047D01*
X029195Y028633D02*
X027847Y028633D01*
X027562Y028918D01*
X027562Y028918D01*
X027562Y028918D01*
X027701Y029057D02*
X027965Y028793D01*
X029123Y028793D01*
X031434Y031104D01*
X031434Y036230D01*
X031037Y036627D01*
X031037Y037035D01*
X031037Y036035D02*
X031037Y030945D01*
X029043Y028952D01*
X028084Y028952D01*
X027840Y029196D01*
X027840Y029196D01*
X027840Y029196D01*
X027701Y029057D02*
X027701Y029057D01*
X027701Y029057D01*
X027979Y029335D02*
X027979Y029335D01*
X028203Y029112D01*
X028963Y029112D01*
X030426Y030576D01*
X030426Y036238D01*
X030037Y036627D01*
X030037Y037035D01*
X030037Y036035D02*
X030037Y030422D01*
X029349Y029734D01*
X028822Y029734D01*
X028421Y029334D01*
X028383Y029334D01*
X028321Y029272D01*
X028119Y029474D01*
X028119Y029474D01*
X028119Y029474D01*
X028258Y029614D02*
X028258Y029614D01*
X028148Y029723D01*
X028042Y029829D01*
X028205Y029992D01*
X028205Y030199D01*
X028539Y030199D01*
X028148Y029723D02*
X028258Y029614D01*
X027979Y029335D02*
X027979Y029335D01*
X029195Y028633D02*
X032037Y031475D01*
X032037Y036035D01*
X032432Y036232D02*
X032037Y036627D01*
X032037Y037035D01*
X032432Y036232D02*
X032432Y031634D01*
X029605Y032102D02*
X028258Y030755D01*
X028258Y030755D01*
X028258Y030755D01*
X028119Y030894D02*
X028119Y030894D01*
X029426Y032202D01*
X029426Y035646D01*
X029037Y036035D01*
X028624Y036142D02*
X028624Y035877D01*
X029268Y035233D01*
X029268Y032879D01*
X027701Y031312D01*
X027701Y031312D01*
X027701Y031312D01*
X027562Y031451D02*
X027683Y031572D01*
X027562Y031451D01*
X027562Y031451D01*
X027683Y031572D02*
X029107Y032996D01*
X029107Y035091D01*
X028445Y035754D01*
X028445Y036035D01*
X028037Y036035D01*
X028037Y036627D02*
X028139Y036627D01*
X028624Y036142D01*
X029037Y036627D02*
X029605Y036059D01*
X029605Y032102D01*
X028119Y030894D02*
X028119Y030894D01*
X028037Y036627D02*
X028037Y037035D01*
X029037Y037035D02*
X029037Y036627D01*
X021102Y023112D02*
X021102Y022028D01*
X021261Y021870D01*
X021824Y021870D01*
D51*
X020435Y030755D02*
X020087Y031103D01*
X020087Y031109D01*
D52*
X026550Y025408D02*
X026790Y025647D01*
X029462Y025647D01*
X033024Y029209D01*
X033924Y029209D01*
X033924Y029465D02*
X032867Y029465D01*
X029372Y025970D01*
X027205Y025970D01*
X026951Y026223D01*
D53*
X026879Y026626D02*
X026879Y026740D01*
X026511Y027108D01*
X026511Y027463D01*
X026309Y027665D01*
X026170Y027526D02*
X026372Y027324D01*
X026372Y027324D01*
X026372Y027051D01*
X026248Y026926D01*
X026390Y026784D01*
X026478Y026696D01*
X026879Y026626D02*
X026351Y026097D01*
X026293Y026097D01*
X026182Y025986D01*
X026077Y025881D01*
X027506Y028138D02*
X027232Y028413D01*
X027144Y028500D01*
X027283Y028639D02*
X027592Y028331D01*
X028145Y028331D01*
X028779Y027697D01*
X028811Y027697D01*
X028835Y027672D01*
X029017Y027853D01*
X029191Y027679D01*
X029337Y027679D01*
X029458Y027558D01*
X028951Y027047D02*
X028735Y027047D01*
X028349Y027433D01*
X028349Y027433D01*
X028194Y027588D01*
X028362Y027756D01*
X027980Y028138D01*
X027506Y028138D01*
M02*
