G75*
G70*
%OFA0B0*%
%FSLAX24Y24*%
%IPPOS*%
%LPD*%
%AMOC8*
5,1,8,0,0,1.08239X$1,22.5*
%
%ADD10C,0.0000*%
%ADD11C,0.1300*%
%ADD12C,0.1024*%
%ADD13C,0.0355*%
%ADD14R,0.0473X0.0434*%
%ADD15R,0.0453X0.0465*%
%ADD16R,0.0465X0.0453*%
%ADD17R,0.1140X0.0330*%
%ADD18R,0.0312X0.0434*%
%ADD19R,0.1103X0.0670*%
%ADD20R,0.0552X0.0631*%
%ADD21R,0.0619X0.0540*%
%ADD22R,0.2402X0.0827*%
%ADD23R,0.0749X0.0670*%
%ADD24R,0.0906X0.0276*%
%ADD25R,0.0434X0.0473*%
%ADD26R,0.0355X0.0394*%
%ADD27R,0.0434X0.0749*%
%ADD28C,0.1700*%
%ADD29C,0.1542*%
%ADD30R,0.0335X0.0316*%
%ADD31C,0.0600*%
%ADD32OC8,0.0600*%
%ADD33R,0.0749X0.0591*%
%ADD34R,0.0591X0.0788*%
%ADD35R,0.0355X0.0631*%
%ADD36R,0.0640X0.0340*%
%ADD37R,0.0512X0.0512*%
%ADD38C,0.0560*%
%ADD39R,0.0237X0.0434*%
%ADD40R,0.0910X0.0280*%
%ADD41R,0.0500X0.0670*%
%ADD42R,0.0060X0.0720*%
%ADD43R,0.1040X0.1040*%
%ADD44R,0.0591X0.0178*%
%ADD45C,0.0808*%
%ADD46C,0.0660*%
%ADD47R,0.0631X0.0631*%
%ADD48R,0.0394X0.0158*%
%ADD49R,0.0158X0.0394*%
D10*
X005612Y019785D02*
X033958Y019785D01*
X033328Y021360D02*
X033330Y021410D01*
X033336Y021460D01*
X033346Y021509D01*
X033360Y021557D01*
X033377Y021604D01*
X033398Y021649D01*
X033423Y021693D01*
X033451Y021734D01*
X033483Y021773D01*
X033517Y021810D01*
X033554Y021844D01*
X033594Y021874D01*
X033636Y021901D01*
X033680Y021925D01*
X033726Y021946D01*
X033773Y021962D01*
X033821Y021975D01*
X033871Y021984D01*
X033920Y021989D01*
X033971Y021990D01*
X034021Y021987D01*
X034070Y021980D01*
X034119Y021969D01*
X034167Y021954D01*
X034213Y021936D01*
X034258Y021914D01*
X034301Y021888D01*
X034342Y021859D01*
X034381Y021827D01*
X034417Y021792D01*
X034449Y021754D01*
X034479Y021714D01*
X034506Y021671D01*
X034529Y021627D01*
X034548Y021581D01*
X034564Y021533D01*
X034576Y021484D01*
X034584Y021435D01*
X034588Y021385D01*
X034588Y021335D01*
X034584Y021285D01*
X034576Y021236D01*
X034564Y021187D01*
X034548Y021139D01*
X034529Y021093D01*
X034506Y021049D01*
X034479Y021006D01*
X034449Y020966D01*
X034417Y020928D01*
X034381Y020893D01*
X034342Y020861D01*
X034301Y020832D01*
X034258Y020806D01*
X034213Y020784D01*
X034167Y020766D01*
X034119Y020751D01*
X034070Y020740D01*
X034021Y020733D01*
X033971Y020730D01*
X033920Y020731D01*
X033871Y020736D01*
X033821Y020745D01*
X033773Y020758D01*
X033726Y020774D01*
X033680Y020795D01*
X033636Y020819D01*
X033594Y020846D01*
X033554Y020876D01*
X033517Y020910D01*
X033483Y020947D01*
X033451Y020986D01*
X033423Y021027D01*
X033398Y021071D01*
X033377Y021116D01*
X033360Y021163D01*
X033346Y021211D01*
X033336Y021260D01*
X033330Y021310D01*
X033328Y021360D01*
X033958Y019785D02*
X034035Y019787D01*
X034112Y019793D01*
X034189Y019802D01*
X034265Y019815D01*
X034341Y019832D01*
X034415Y019853D01*
X034489Y019877D01*
X034561Y019905D01*
X034631Y019936D01*
X034700Y019971D01*
X034768Y020009D01*
X034833Y020050D01*
X034896Y020095D01*
X034957Y020143D01*
X035016Y020193D01*
X035072Y020246D01*
X035125Y020302D01*
X035175Y020361D01*
X035223Y020422D01*
X035268Y020485D01*
X035309Y020550D01*
X035347Y020618D01*
X035382Y020687D01*
X035413Y020757D01*
X035441Y020829D01*
X035465Y020903D01*
X035486Y020977D01*
X035503Y021053D01*
X035516Y021129D01*
X035525Y021206D01*
X035531Y021283D01*
X035533Y021360D01*
X035533Y022639D01*
X035534Y022656D01*
X035539Y022673D01*
X035546Y022688D01*
X035556Y022702D01*
X035568Y022714D01*
X035582Y022724D01*
X035597Y022731D01*
X035614Y022736D01*
X035631Y022737D01*
X035631Y022738D02*
X036222Y022738D01*
X036222Y022737D02*
X036239Y022736D01*
X036256Y022731D01*
X036271Y022724D01*
X036285Y022714D01*
X036297Y022702D01*
X036307Y022688D01*
X036314Y022673D01*
X036319Y022656D01*
X036320Y022639D01*
X036320Y022147D01*
X036322Y022108D01*
X036328Y022070D01*
X036337Y022033D01*
X036350Y021996D01*
X036367Y021961D01*
X036386Y021928D01*
X036409Y021897D01*
X036435Y021868D01*
X036464Y021842D01*
X036495Y021819D01*
X036528Y021800D01*
X036563Y021783D01*
X036600Y021770D01*
X036637Y021761D01*
X036675Y021755D01*
X036714Y021753D01*
X036714Y021754D02*
X038289Y021754D01*
X038289Y021753D02*
X038328Y021755D01*
X038366Y021761D01*
X038403Y021770D01*
X038440Y021783D01*
X038475Y021800D01*
X038508Y021819D01*
X038539Y021842D01*
X038568Y021868D01*
X038594Y021897D01*
X038617Y021928D01*
X038636Y021961D01*
X038653Y021996D01*
X038666Y022033D01*
X038675Y022070D01*
X038681Y022108D01*
X038683Y022147D01*
X038683Y036714D01*
X038681Y036753D01*
X038675Y036791D01*
X038666Y036828D01*
X038653Y036865D01*
X038636Y036900D01*
X038617Y036933D01*
X038594Y036964D01*
X038568Y036993D01*
X038539Y037019D01*
X038508Y037042D01*
X038475Y037061D01*
X038440Y037078D01*
X038403Y037091D01*
X038366Y037100D01*
X038328Y037106D01*
X038289Y037108D01*
X036714Y037108D01*
X036675Y037106D01*
X036637Y037100D01*
X036600Y037091D01*
X036563Y037078D01*
X036528Y037061D01*
X036495Y037042D01*
X036464Y037019D01*
X036435Y036993D01*
X036409Y036964D01*
X036386Y036933D01*
X036367Y036900D01*
X036350Y036865D01*
X036337Y036828D01*
X036328Y036791D01*
X036322Y036753D01*
X036320Y036714D01*
X036320Y036616D01*
X036319Y036599D01*
X036314Y036582D01*
X036307Y036567D01*
X036297Y036553D01*
X036285Y036541D01*
X036271Y036531D01*
X036256Y036524D01*
X036239Y036519D01*
X036222Y036518D01*
X036222Y036517D02*
X035631Y036517D01*
X035631Y036518D02*
X035614Y036519D01*
X035597Y036524D01*
X035582Y036531D01*
X035568Y036541D01*
X035556Y036553D01*
X035546Y036567D01*
X035539Y036582D01*
X035534Y036599D01*
X035533Y036616D01*
X035533Y037502D01*
X035376Y036320D02*
X035378Y036345D01*
X035384Y036369D01*
X035393Y036391D01*
X035406Y036412D01*
X035422Y036431D01*
X035441Y036447D01*
X035462Y036460D01*
X035484Y036469D01*
X035508Y036475D01*
X035533Y036477D01*
X035558Y036475D01*
X035582Y036469D01*
X035604Y036460D01*
X035625Y036447D01*
X035644Y036431D01*
X035660Y036412D01*
X035673Y036391D01*
X035682Y036369D01*
X035688Y036345D01*
X035690Y036320D01*
X035688Y036295D01*
X035682Y036271D01*
X035673Y036249D01*
X035660Y036228D01*
X035644Y036209D01*
X035625Y036193D01*
X035604Y036180D01*
X035582Y036171D01*
X035558Y036165D01*
X035533Y036163D01*
X035508Y036165D01*
X035484Y036171D01*
X035462Y036180D01*
X035441Y036193D01*
X035422Y036209D01*
X035406Y036228D01*
X035393Y036249D01*
X035384Y036271D01*
X035378Y036295D01*
X035376Y036320D01*
X035376Y035927D02*
X035378Y035952D01*
X035384Y035976D01*
X035393Y035998D01*
X035406Y036019D01*
X035422Y036038D01*
X035441Y036054D01*
X035462Y036067D01*
X035484Y036076D01*
X035508Y036082D01*
X035533Y036084D01*
X035558Y036082D01*
X035582Y036076D01*
X035604Y036067D01*
X035625Y036054D01*
X035644Y036038D01*
X035660Y036019D01*
X035673Y035998D01*
X035682Y035976D01*
X035688Y035952D01*
X035690Y035927D01*
X035688Y035902D01*
X035682Y035878D01*
X035673Y035856D01*
X035660Y035835D01*
X035644Y035816D01*
X035625Y035800D01*
X035604Y035787D01*
X035582Y035778D01*
X035558Y035772D01*
X035533Y035770D01*
X035508Y035772D01*
X035484Y035778D01*
X035462Y035787D01*
X035441Y035800D01*
X035422Y035816D01*
X035406Y035835D01*
X035393Y035856D01*
X035384Y035878D01*
X035378Y035902D01*
X035376Y035927D01*
X035376Y035533D02*
X035378Y035558D01*
X035384Y035582D01*
X035393Y035604D01*
X035406Y035625D01*
X035422Y035644D01*
X035441Y035660D01*
X035462Y035673D01*
X035484Y035682D01*
X035508Y035688D01*
X035533Y035690D01*
X035558Y035688D01*
X035582Y035682D01*
X035604Y035673D01*
X035625Y035660D01*
X035644Y035644D01*
X035660Y035625D01*
X035673Y035604D01*
X035682Y035582D01*
X035688Y035558D01*
X035690Y035533D01*
X035688Y035508D01*
X035682Y035484D01*
X035673Y035462D01*
X035660Y035441D01*
X035644Y035422D01*
X035625Y035406D01*
X035604Y035393D01*
X035582Y035384D01*
X035558Y035378D01*
X035533Y035376D01*
X035508Y035378D01*
X035484Y035384D01*
X035462Y035393D01*
X035441Y035406D01*
X035422Y035422D01*
X035406Y035441D01*
X035393Y035462D01*
X035384Y035484D01*
X035378Y035508D01*
X035376Y035533D01*
X035376Y035139D02*
X035378Y035164D01*
X035384Y035188D01*
X035393Y035210D01*
X035406Y035231D01*
X035422Y035250D01*
X035441Y035266D01*
X035462Y035279D01*
X035484Y035288D01*
X035508Y035294D01*
X035533Y035296D01*
X035558Y035294D01*
X035582Y035288D01*
X035604Y035279D01*
X035625Y035266D01*
X035644Y035250D01*
X035660Y035231D01*
X035673Y035210D01*
X035682Y035188D01*
X035688Y035164D01*
X035690Y035139D01*
X035688Y035114D01*
X035682Y035090D01*
X035673Y035068D01*
X035660Y035047D01*
X035644Y035028D01*
X035625Y035012D01*
X035604Y034999D01*
X035582Y034990D01*
X035558Y034984D01*
X035533Y034982D01*
X035508Y034984D01*
X035484Y034990D01*
X035462Y034999D01*
X035441Y035012D01*
X035422Y035028D01*
X035406Y035047D01*
X035393Y035068D01*
X035384Y035090D01*
X035378Y035114D01*
X035376Y035139D01*
X035376Y034746D02*
X035378Y034771D01*
X035384Y034795D01*
X035393Y034817D01*
X035406Y034838D01*
X035422Y034857D01*
X035441Y034873D01*
X035462Y034886D01*
X035484Y034895D01*
X035508Y034901D01*
X035533Y034903D01*
X035558Y034901D01*
X035582Y034895D01*
X035604Y034886D01*
X035625Y034873D01*
X035644Y034857D01*
X035660Y034838D01*
X035673Y034817D01*
X035682Y034795D01*
X035688Y034771D01*
X035690Y034746D01*
X035688Y034721D01*
X035682Y034697D01*
X035673Y034675D01*
X035660Y034654D01*
X035644Y034635D01*
X035625Y034619D01*
X035604Y034606D01*
X035582Y034597D01*
X035558Y034591D01*
X035533Y034589D01*
X035508Y034591D01*
X035484Y034597D01*
X035462Y034606D01*
X035441Y034619D01*
X035422Y034635D01*
X035406Y034654D01*
X035393Y034675D01*
X035384Y034697D01*
X035378Y034721D01*
X035376Y034746D01*
X035631Y034549D02*
X036222Y034549D01*
X036222Y034548D02*
X036239Y034547D01*
X036256Y034542D01*
X036271Y034535D01*
X036285Y034525D01*
X036297Y034513D01*
X036307Y034499D01*
X036314Y034484D01*
X036319Y034467D01*
X036320Y034450D01*
X036320Y024805D01*
X036319Y024788D01*
X036314Y024771D01*
X036307Y024756D01*
X036297Y024742D01*
X036285Y024730D01*
X036271Y024720D01*
X036256Y024713D01*
X036239Y024708D01*
X036222Y024707D01*
X036222Y024706D02*
X035631Y024706D01*
X035631Y024707D02*
X035614Y024708D01*
X035597Y024713D01*
X035582Y024720D01*
X035568Y024730D01*
X035556Y024742D01*
X035546Y024756D01*
X035539Y024771D01*
X035534Y024788D01*
X035533Y024805D01*
X035533Y034450D01*
X035534Y034467D01*
X035539Y034484D01*
X035546Y034499D01*
X035556Y034513D01*
X035568Y034525D01*
X035582Y034535D01*
X035597Y034542D01*
X035614Y034547D01*
X035631Y034548D01*
X037010Y035533D02*
X037012Y035577D01*
X037018Y035621D01*
X037028Y035664D01*
X037041Y035706D01*
X037059Y035746D01*
X037080Y035785D01*
X037104Y035822D01*
X037131Y035857D01*
X037162Y035889D01*
X037195Y035918D01*
X037231Y035944D01*
X037269Y035966D01*
X037309Y035985D01*
X037350Y036001D01*
X037393Y036013D01*
X037436Y036021D01*
X037480Y036025D01*
X037524Y036025D01*
X037568Y036021D01*
X037611Y036013D01*
X037654Y036001D01*
X037695Y035985D01*
X037735Y035966D01*
X037773Y035944D01*
X037809Y035918D01*
X037842Y035889D01*
X037873Y035857D01*
X037900Y035822D01*
X037924Y035785D01*
X037945Y035746D01*
X037963Y035706D01*
X037976Y035664D01*
X037986Y035621D01*
X037992Y035577D01*
X037994Y035533D01*
X037992Y035489D01*
X037986Y035445D01*
X037976Y035402D01*
X037963Y035360D01*
X037945Y035320D01*
X037924Y035281D01*
X037900Y035244D01*
X037873Y035209D01*
X037842Y035177D01*
X037809Y035148D01*
X037773Y035122D01*
X037735Y035100D01*
X037695Y035081D01*
X037654Y035065D01*
X037611Y035053D01*
X037568Y035045D01*
X037524Y035041D01*
X037480Y035041D01*
X037436Y035045D01*
X037393Y035053D01*
X037350Y035065D01*
X037309Y035081D01*
X037269Y035100D01*
X037231Y035122D01*
X037195Y035148D01*
X037162Y035177D01*
X037131Y035209D01*
X037104Y035244D01*
X037080Y035281D01*
X037059Y035320D01*
X037041Y035360D01*
X037028Y035402D01*
X037018Y035445D01*
X037012Y035489D01*
X037010Y035533D01*
X036320Y031202D02*
X036320Y027659D01*
X035376Y024509D02*
X035378Y024534D01*
X035384Y024558D01*
X035393Y024580D01*
X035406Y024601D01*
X035422Y024620D01*
X035441Y024636D01*
X035462Y024649D01*
X035484Y024658D01*
X035508Y024664D01*
X035533Y024666D01*
X035558Y024664D01*
X035582Y024658D01*
X035604Y024649D01*
X035625Y024636D01*
X035644Y024620D01*
X035660Y024601D01*
X035673Y024580D01*
X035682Y024558D01*
X035688Y024534D01*
X035690Y024509D01*
X035688Y024484D01*
X035682Y024460D01*
X035673Y024438D01*
X035660Y024417D01*
X035644Y024398D01*
X035625Y024382D01*
X035604Y024369D01*
X035582Y024360D01*
X035558Y024354D01*
X035533Y024352D01*
X035508Y024354D01*
X035484Y024360D01*
X035462Y024369D01*
X035441Y024382D01*
X035422Y024398D01*
X035406Y024417D01*
X035393Y024438D01*
X035384Y024460D01*
X035378Y024484D01*
X035376Y024509D01*
X035376Y024116D02*
X035378Y024141D01*
X035384Y024165D01*
X035393Y024187D01*
X035406Y024208D01*
X035422Y024227D01*
X035441Y024243D01*
X035462Y024256D01*
X035484Y024265D01*
X035508Y024271D01*
X035533Y024273D01*
X035558Y024271D01*
X035582Y024265D01*
X035604Y024256D01*
X035625Y024243D01*
X035644Y024227D01*
X035660Y024208D01*
X035673Y024187D01*
X035682Y024165D01*
X035688Y024141D01*
X035690Y024116D01*
X035688Y024091D01*
X035682Y024067D01*
X035673Y024045D01*
X035660Y024024D01*
X035644Y024005D01*
X035625Y023989D01*
X035604Y023976D01*
X035582Y023967D01*
X035558Y023961D01*
X035533Y023959D01*
X035508Y023961D01*
X035484Y023967D01*
X035462Y023976D01*
X035441Y023989D01*
X035422Y024005D01*
X035406Y024024D01*
X035393Y024045D01*
X035384Y024067D01*
X035378Y024091D01*
X035376Y024116D01*
X035376Y023722D02*
X035378Y023747D01*
X035384Y023771D01*
X035393Y023793D01*
X035406Y023814D01*
X035422Y023833D01*
X035441Y023849D01*
X035462Y023862D01*
X035484Y023871D01*
X035508Y023877D01*
X035533Y023879D01*
X035558Y023877D01*
X035582Y023871D01*
X035604Y023862D01*
X035625Y023849D01*
X035644Y023833D01*
X035660Y023814D01*
X035673Y023793D01*
X035682Y023771D01*
X035688Y023747D01*
X035690Y023722D01*
X035688Y023697D01*
X035682Y023673D01*
X035673Y023651D01*
X035660Y023630D01*
X035644Y023611D01*
X035625Y023595D01*
X035604Y023582D01*
X035582Y023573D01*
X035558Y023567D01*
X035533Y023565D01*
X035508Y023567D01*
X035484Y023573D01*
X035462Y023582D01*
X035441Y023595D01*
X035422Y023611D01*
X035406Y023630D01*
X035393Y023651D01*
X035384Y023673D01*
X035378Y023697D01*
X035376Y023722D01*
X035376Y023328D02*
X035378Y023353D01*
X035384Y023377D01*
X035393Y023399D01*
X035406Y023420D01*
X035422Y023439D01*
X035441Y023455D01*
X035462Y023468D01*
X035484Y023477D01*
X035508Y023483D01*
X035533Y023485D01*
X035558Y023483D01*
X035582Y023477D01*
X035604Y023468D01*
X035625Y023455D01*
X035644Y023439D01*
X035660Y023420D01*
X035673Y023399D01*
X035682Y023377D01*
X035688Y023353D01*
X035690Y023328D01*
X035688Y023303D01*
X035682Y023279D01*
X035673Y023257D01*
X035660Y023236D01*
X035644Y023217D01*
X035625Y023201D01*
X035604Y023188D01*
X035582Y023179D01*
X035558Y023173D01*
X035533Y023171D01*
X035508Y023173D01*
X035484Y023179D01*
X035462Y023188D01*
X035441Y023201D01*
X035422Y023217D01*
X035406Y023236D01*
X035393Y023257D01*
X035384Y023279D01*
X035378Y023303D01*
X035376Y023328D01*
X035376Y022935D02*
X035378Y022960D01*
X035384Y022984D01*
X035393Y023006D01*
X035406Y023027D01*
X035422Y023046D01*
X035441Y023062D01*
X035462Y023075D01*
X035484Y023084D01*
X035508Y023090D01*
X035533Y023092D01*
X035558Y023090D01*
X035582Y023084D01*
X035604Y023075D01*
X035625Y023062D01*
X035644Y023046D01*
X035660Y023027D01*
X035673Y023006D01*
X035682Y022984D01*
X035688Y022960D01*
X035690Y022935D01*
X035688Y022910D01*
X035682Y022886D01*
X035673Y022864D01*
X035660Y022843D01*
X035644Y022824D01*
X035625Y022808D01*
X035604Y022795D01*
X035582Y022786D01*
X035558Y022780D01*
X035533Y022778D01*
X035508Y022780D01*
X035484Y022786D01*
X035462Y022795D01*
X035441Y022808D01*
X035422Y022824D01*
X035406Y022843D01*
X035393Y022864D01*
X035384Y022886D01*
X035378Y022910D01*
X035376Y022935D01*
X037010Y023722D02*
X037012Y023766D01*
X037018Y023810D01*
X037028Y023853D01*
X037041Y023895D01*
X037059Y023935D01*
X037080Y023974D01*
X037104Y024011D01*
X037131Y024046D01*
X037162Y024078D01*
X037195Y024107D01*
X037231Y024133D01*
X037269Y024155D01*
X037309Y024174D01*
X037350Y024190D01*
X037393Y024202D01*
X037436Y024210D01*
X037480Y024214D01*
X037524Y024214D01*
X037568Y024210D01*
X037611Y024202D01*
X037654Y024190D01*
X037695Y024174D01*
X037735Y024155D01*
X037773Y024133D01*
X037809Y024107D01*
X037842Y024078D01*
X037873Y024046D01*
X037900Y024011D01*
X037924Y023974D01*
X037945Y023935D01*
X037963Y023895D01*
X037976Y023853D01*
X037986Y023810D01*
X037992Y023766D01*
X037994Y023722D01*
X037992Y023678D01*
X037986Y023634D01*
X037976Y023591D01*
X037963Y023549D01*
X037945Y023509D01*
X037924Y023470D01*
X037900Y023433D01*
X037873Y023398D01*
X037842Y023366D01*
X037809Y023337D01*
X037773Y023311D01*
X037735Y023289D01*
X037695Y023270D01*
X037654Y023254D01*
X037611Y023242D01*
X037568Y023234D01*
X037524Y023230D01*
X037480Y023230D01*
X037436Y023234D01*
X037393Y023242D01*
X037350Y023254D01*
X037309Y023270D01*
X037269Y023289D01*
X037231Y023311D01*
X037195Y023337D01*
X037162Y023366D01*
X037131Y023398D01*
X037104Y023433D01*
X037080Y023470D01*
X037059Y023509D01*
X037041Y023549D01*
X037028Y023591D01*
X037018Y023634D01*
X037012Y023678D01*
X037010Y023722D01*
X033328Y037502D02*
X033330Y037552D01*
X033336Y037602D01*
X033346Y037651D01*
X033360Y037699D01*
X033377Y037746D01*
X033398Y037791D01*
X033423Y037835D01*
X033451Y037876D01*
X033483Y037915D01*
X033517Y037952D01*
X033554Y037986D01*
X033594Y038016D01*
X033636Y038043D01*
X033680Y038067D01*
X033726Y038088D01*
X033773Y038104D01*
X033821Y038117D01*
X033871Y038126D01*
X033920Y038131D01*
X033971Y038132D01*
X034021Y038129D01*
X034070Y038122D01*
X034119Y038111D01*
X034167Y038096D01*
X034213Y038078D01*
X034258Y038056D01*
X034301Y038030D01*
X034342Y038001D01*
X034381Y037969D01*
X034417Y037934D01*
X034449Y037896D01*
X034479Y037856D01*
X034506Y037813D01*
X034529Y037769D01*
X034548Y037723D01*
X034564Y037675D01*
X034576Y037626D01*
X034584Y037577D01*
X034588Y037527D01*
X034588Y037477D01*
X034584Y037427D01*
X034576Y037378D01*
X034564Y037329D01*
X034548Y037281D01*
X034529Y037235D01*
X034506Y037191D01*
X034479Y037148D01*
X034449Y037108D01*
X034417Y037070D01*
X034381Y037035D01*
X034342Y037003D01*
X034301Y036974D01*
X034258Y036948D01*
X034213Y036926D01*
X034167Y036908D01*
X034119Y036893D01*
X034070Y036882D01*
X034021Y036875D01*
X033971Y036872D01*
X033920Y036873D01*
X033871Y036878D01*
X033821Y036887D01*
X033773Y036900D01*
X033726Y036916D01*
X033680Y036937D01*
X033636Y036961D01*
X033594Y036988D01*
X033554Y037018D01*
X033517Y037052D01*
X033483Y037089D01*
X033451Y037128D01*
X033423Y037169D01*
X033398Y037213D01*
X033377Y037258D01*
X033360Y037305D01*
X033346Y037353D01*
X033336Y037402D01*
X033330Y037452D01*
X033328Y037502D01*
X033958Y039077D02*
X034035Y039075D01*
X034112Y039069D01*
X034189Y039060D01*
X034265Y039047D01*
X034341Y039030D01*
X034415Y039009D01*
X034489Y038985D01*
X034561Y038957D01*
X034631Y038926D01*
X034700Y038891D01*
X034768Y038853D01*
X034833Y038812D01*
X034896Y038767D01*
X034957Y038719D01*
X035016Y038669D01*
X035072Y038616D01*
X035125Y038560D01*
X035175Y038501D01*
X035223Y038440D01*
X035268Y038377D01*
X035309Y038312D01*
X035347Y038244D01*
X035382Y038175D01*
X035413Y038105D01*
X035441Y038033D01*
X035465Y037959D01*
X035486Y037885D01*
X035503Y037809D01*
X035516Y037733D01*
X035525Y037656D01*
X035531Y037579D01*
X035533Y037502D01*
X033958Y039076D02*
X005612Y039076D01*
X004982Y037502D02*
X004984Y037552D01*
X004990Y037602D01*
X005000Y037651D01*
X005014Y037699D01*
X005031Y037746D01*
X005052Y037791D01*
X005077Y037835D01*
X005105Y037876D01*
X005137Y037915D01*
X005171Y037952D01*
X005208Y037986D01*
X005248Y038016D01*
X005290Y038043D01*
X005334Y038067D01*
X005380Y038088D01*
X005427Y038104D01*
X005475Y038117D01*
X005525Y038126D01*
X005574Y038131D01*
X005625Y038132D01*
X005675Y038129D01*
X005724Y038122D01*
X005773Y038111D01*
X005821Y038096D01*
X005867Y038078D01*
X005912Y038056D01*
X005955Y038030D01*
X005996Y038001D01*
X006035Y037969D01*
X006071Y037934D01*
X006103Y037896D01*
X006133Y037856D01*
X006160Y037813D01*
X006183Y037769D01*
X006202Y037723D01*
X006218Y037675D01*
X006230Y037626D01*
X006238Y037577D01*
X006242Y037527D01*
X006242Y037477D01*
X006238Y037427D01*
X006230Y037378D01*
X006218Y037329D01*
X006202Y037281D01*
X006183Y037235D01*
X006160Y037191D01*
X006133Y037148D01*
X006103Y037108D01*
X006071Y037070D01*
X006035Y037035D01*
X005996Y037003D01*
X005955Y036974D01*
X005912Y036948D01*
X005867Y036926D01*
X005821Y036908D01*
X005773Y036893D01*
X005724Y036882D01*
X005675Y036875D01*
X005625Y036872D01*
X005574Y036873D01*
X005525Y036878D01*
X005475Y036887D01*
X005427Y036900D01*
X005380Y036916D01*
X005334Y036937D01*
X005290Y036961D01*
X005248Y036988D01*
X005208Y037018D01*
X005171Y037052D01*
X005137Y037089D01*
X005105Y037128D01*
X005077Y037169D01*
X005052Y037213D01*
X005031Y037258D01*
X005014Y037305D01*
X005000Y037353D01*
X004990Y037402D01*
X004984Y037452D01*
X004982Y037502D01*
X004037Y037502D02*
X004039Y037579D01*
X004045Y037656D01*
X004054Y037733D01*
X004067Y037809D01*
X004084Y037885D01*
X004105Y037959D01*
X004129Y038033D01*
X004157Y038105D01*
X004188Y038175D01*
X004223Y038244D01*
X004261Y038312D01*
X004302Y038377D01*
X004347Y038440D01*
X004395Y038501D01*
X004445Y038560D01*
X004498Y038616D01*
X004554Y038669D01*
X004613Y038719D01*
X004674Y038767D01*
X004737Y038812D01*
X004802Y038853D01*
X004870Y038891D01*
X004939Y038926D01*
X005009Y038957D01*
X005081Y038985D01*
X005155Y039009D01*
X005229Y039030D01*
X005305Y039047D01*
X005381Y039060D01*
X005458Y039069D01*
X005535Y039075D01*
X005612Y039077D01*
X004037Y037502D02*
X004037Y036616D01*
X004036Y036599D01*
X004031Y036582D01*
X004024Y036567D01*
X004014Y036553D01*
X004002Y036541D01*
X003988Y036531D01*
X003973Y036524D01*
X003956Y036519D01*
X003939Y036518D01*
X003939Y036517D02*
X003348Y036517D01*
X003348Y036518D02*
X003331Y036519D01*
X003314Y036524D01*
X003299Y036531D01*
X003285Y036541D01*
X003273Y036553D01*
X003263Y036567D01*
X003256Y036582D01*
X003251Y036599D01*
X003250Y036616D01*
X003250Y036714D01*
X003248Y036753D01*
X003242Y036791D01*
X003233Y036828D01*
X003220Y036865D01*
X003203Y036900D01*
X003184Y036933D01*
X003161Y036964D01*
X003135Y036993D01*
X003106Y037019D01*
X003075Y037042D01*
X003042Y037061D01*
X003007Y037078D01*
X002970Y037091D01*
X002933Y037100D01*
X002895Y037106D01*
X002856Y037108D01*
X001281Y037108D01*
X001242Y037106D01*
X001204Y037100D01*
X001167Y037091D01*
X001130Y037078D01*
X001095Y037061D01*
X001062Y037042D01*
X001031Y037019D01*
X001002Y036993D01*
X000976Y036964D01*
X000953Y036933D01*
X000934Y036900D01*
X000917Y036865D01*
X000904Y036828D01*
X000895Y036791D01*
X000889Y036753D01*
X000887Y036714D01*
X000887Y022147D01*
X000889Y022108D01*
X000895Y022070D01*
X000904Y022033D01*
X000917Y021996D01*
X000934Y021961D01*
X000953Y021928D01*
X000976Y021897D01*
X001002Y021868D01*
X001031Y021842D01*
X001062Y021819D01*
X001095Y021800D01*
X001130Y021783D01*
X001167Y021770D01*
X001204Y021761D01*
X001242Y021755D01*
X001281Y021753D01*
X001281Y021754D02*
X002856Y021754D01*
X002856Y021753D02*
X002895Y021755D01*
X002933Y021761D01*
X002970Y021770D01*
X003007Y021783D01*
X003042Y021800D01*
X003075Y021819D01*
X003106Y021842D01*
X003135Y021868D01*
X003161Y021897D01*
X003184Y021928D01*
X003203Y021961D01*
X003220Y021996D01*
X003233Y022033D01*
X003242Y022070D01*
X003248Y022108D01*
X003250Y022147D01*
X003250Y022639D01*
X003251Y022656D01*
X003256Y022673D01*
X003263Y022688D01*
X003273Y022702D01*
X003285Y022714D01*
X003299Y022724D01*
X003314Y022731D01*
X003331Y022736D01*
X003348Y022737D01*
X003348Y022738D02*
X003939Y022738D01*
X003939Y022737D02*
X003956Y022736D01*
X003973Y022731D01*
X003988Y022724D01*
X004002Y022714D01*
X004014Y022702D01*
X004024Y022688D01*
X004031Y022673D01*
X004036Y022656D01*
X004037Y022639D01*
X004037Y021360D01*
X003880Y022935D02*
X003882Y022960D01*
X003888Y022984D01*
X003897Y023006D01*
X003910Y023027D01*
X003926Y023046D01*
X003945Y023062D01*
X003966Y023075D01*
X003988Y023084D01*
X004012Y023090D01*
X004037Y023092D01*
X004062Y023090D01*
X004086Y023084D01*
X004108Y023075D01*
X004129Y023062D01*
X004148Y023046D01*
X004164Y023027D01*
X004177Y023006D01*
X004186Y022984D01*
X004192Y022960D01*
X004194Y022935D01*
X004192Y022910D01*
X004186Y022886D01*
X004177Y022864D01*
X004164Y022843D01*
X004148Y022824D01*
X004129Y022808D01*
X004108Y022795D01*
X004086Y022786D01*
X004062Y022780D01*
X004037Y022778D01*
X004012Y022780D01*
X003988Y022786D01*
X003966Y022795D01*
X003945Y022808D01*
X003926Y022824D01*
X003910Y022843D01*
X003897Y022864D01*
X003888Y022886D01*
X003882Y022910D01*
X003880Y022935D01*
X003880Y023328D02*
X003882Y023353D01*
X003888Y023377D01*
X003897Y023399D01*
X003910Y023420D01*
X003926Y023439D01*
X003945Y023455D01*
X003966Y023468D01*
X003988Y023477D01*
X004012Y023483D01*
X004037Y023485D01*
X004062Y023483D01*
X004086Y023477D01*
X004108Y023468D01*
X004129Y023455D01*
X004148Y023439D01*
X004164Y023420D01*
X004177Y023399D01*
X004186Y023377D01*
X004192Y023353D01*
X004194Y023328D01*
X004192Y023303D01*
X004186Y023279D01*
X004177Y023257D01*
X004164Y023236D01*
X004148Y023217D01*
X004129Y023201D01*
X004108Y023188D01*
X004086Y023179D01*
X004062Y023173D01*
X004037Y023171D01*
X004012Y023173D01*
X003988Y023179D01*
X003966Y023188D01*
X003945Y023201D01*
X003926Y023217D01*
X003910Y023236D01*
X003897Y023257D01*
X003888Y023279D01*
X003882Y023303D01*
X003880Y023328D01*
X003880Y023722D02*
X003882Y023747D01*
X003888Y023771D01*
X003897Y023793D01*
X003910Y023814D01*
X003926Y023833D01*
X003945Y023849D01*
X003966Y023862D01*
X003988Y023871D01*
X004012Y023877D01*
X004037Y023879D01*
X004062Y023877D01*
X004086Y023871D01*
X004108Y023862D01*
X004129Y023849D01*
X004148Y023833D01*
X004164Y023814D01*
X004177Y023793D01*
X004186Y023771D01*
X004192Y023747D01*
X004194Y023722D01*
X004192Y023697D01*
X004186Y023673D01*
X004177Y023651D01*
X004164Y023630D01*
X004148Y023611D01*
X004129Y023595D01*
X004108Y023582D01*
X004086Y023573D01*
X004062Y023567D01*
X004037Y023565D01*
X004012Y023567D01*
X003988Y023573D01*
X003966Y023582D01*
X003945Y023595D01*
X003926Y023611D01*
X003910Y023630D01*
X003897Y023651D01*
X003888Y023673D01*
X003882Y023697D01*
X003880Y023722D01*
X003880Y024116D02*
X003882Y024141D01*
X003888Y024165D01*
X003897Y024187D01*
X003910Y024208D01*
X003926Y024227D01*
X003945Y024243D01*
X003966Y024256D01*
X003988Y024265D01*
X004012Y024271D01*
X004037Y024273D01*
X004062Y024271D01*
X004086Y024265D01*
X004108Y024256D01*
X004129Y024243D01*
X004148Y024227D01*
X004164Y024208D01*
X004177Y024187D01*
X004186Y024165D01*
X004192Y024141D01*
X004194Y024116D01*
X004192Y024091D01*
X004186Y024067D01*
X004177Y024045D01*
X004164Y024024D01*
X004148Y024005D01*
X004129Y023989D01*
X004108Y023976D01*
X004086Y023967D01*
X004062Y023961D01*
X004037Y023959D01*
X004012Y023961D01*
X003988Y023967D01*
X003966Y023976D01*
X003945Y023989D01*
X003926Y024005D01*
X003910Y024024D01*
X003897Y024045D01*
X003888Y024067D01*
X003882Y024091D01*
X003880Y024116D01*
X003880Y024509D02*
X003882Y024534D01*
X003888Y024558D01*
X003897Y024580D01*
X003910Y024601D01*
X003926Y024620D01*
X003945Y024636D01*
X003966Y024649D01*
X003988Y024658D01*
X004012Y024664D01*
X004037Y024666D01*
X004062Y024664D01*
X004086Y024658D01*
X004108Y024649D01*
X004129Y024636D01*
X004148Y024620D01*
X004164Y024601D01*
X004177Y024580D01*
X004186Y024558D01*
X004192Y024534D01*
X004194Y024509D01*
X004192Y024484D01*
X004186Y024460D01*
X004177Y024438D01*
X004164Y024417D01*
X004148Y024398D01*
X004129Y024382D01*
X004108Y024369D01*
X004086Y024360D01*
X004062Y024354D01*
X004037Y024352D01*
X004012Y024354D01*
X003988Y024360D01*
X003966Y024369D01*
X003945Y024382D01*
X003926Y024398D01*
X003910Y024417D01*
X003897Y024438D01*
X003888Y024460D01*
X003882Y024484D01*
X003880Y024509D01*
X003939Y024706D02*
X003348Y024706D01*
X003348Y024707D02*
X003331Y024708D01*
X003314Y024713D01*
X003299Y024720D01*
X003285Y024730D01*
X003273Y024742D01*
X003263Y024756D01*
X003256Y024771D01*
X003251Y024788D01*
X003250Y024805D01*
X003250Y034450D01*
X003251Y034467D01*
X003256Y034484D01*
X003263Y034499D01*
X003273Y034513D01*
X003285Y034525D01*
X003299Y034535D01*
X003314Y034542D01*
X003331Y034547D01*
X003348Y034548D01*
X003348Y034549D02*
X003939Y034549D01*
X003939Y034548D02*
X003956Y034547D01*
X003973Y034542D01*
X003988Y034535D01*
X004002Y034525D01*
X004014Y034513D01*
X004024Y034499D01*
X004031Y034484D01*
X004036Y034467D01*
X004037Y034450D01*
X004037Y024805D01*
X004036Y024788D01*
X004031Y024771D01*
X004024Y024756D01*
X004014Y024742D01*
X004002Y024730D01*
X003988Y024720D01*
X003973Y024713D01*
X003956Y024708D01*
X003939Y024707D01*
X001577Y023722D02*
X001579Y023766D01*
X001585Y023810D01*
X001595Y023853D01*
X001608Y023895D01*
X001626Y023935D01*
X001647Y023974D01*
X001671Y024011D01*
X001698Y024046D01*
X001729Y024078D01*
X001762Y024107D01*
X001798Y024133D01*
X001836Y024155D01*
X001876Y024174D01*
X001917Y024190D01*
X001960Y024202D01*
X002003Y024210D01*
X002047Y024214D01*
X002091Y024214D01*
X002135Y024210D01*
X002178Y024202D01*
X002221Y024190D01*
X002262Y024174D01*
X002302Y024155D01*
X002340Y024133D01*
X002376Y024107D01*
X002409Y024078D01*
X002440Y024046D01*
X002467Y024011D01*
X002491Y023974D01*
X002512Y023935D01*
X002530Y023895D01*
X002543Y023853D01*
X002553Y023810D01*
X002559Y023766D01*
X002561Y023722D01*
X002559Y023678D01*
X002553Y023634D01*
X002543Y023591D01*
X002530Y023549D01*
X002512Y023509D01*
X002491Y023470D01*
X002467Y023433D01*
X002440Y023398D01*
X002409Y023366D01*
X002376Y023337D01*
X002340Y023311D01*
X002302Y023289D01*
X002262Y023270D01*
X002221Y023254D01*
X002178Y023242D01*
X002135Y023234D01*
X002091Y023230D01*
X002047Y023230D01*
X002003Y023234D01*
X001960Y023242D01*
X001917Y023254D01*
X001876Y023270D01*
X001836Y023289D01*
X001798Y023311D01*
X001762Y023337D01*
X001729Y023366D01*
X001698Y023398D01*
X001671Y023433D01*
X001647Y023470D01*
X001626Y023509D01*
X001608Y023549D01*
X001595Y023591D01*
X001585Y023634D01*
X001579Y023678D01*
X001577Y023722D01*
X004982Y021360D02*
X004984Y021410D01*
X004990Y021460D01*
X005000Y021509D01*
X005014Y021557D01*
X005031Y021604D01*
X005052Y021649D01*
X005077Y021693D01*
X005105Y021734D01*
X005137Y021773D01*
X005171Y021810D01*
X005208Y021844D01*
X005248Y021874D01*
X005290Y021901D01*
X005334Y021925D01*
X005380Y021946D01*
X005427Y021962D01*
X005475Y021975D01*
X005525Y021984D01*
X005574Y021989D01*
X005625Y021990D01*
X005675Y021987D01*
X005724Y021980D01*
X005773Y021969D01*
X005821Y021954D01*
X005867Y021936D01*
X005912Y021914D01*
X005955Y021888D01*
X005996Y021859D01*
X006035Y021827D01*
X006071Y021792D01*
X006103Y021754D01*
X006133Y021714D01*
X006160Y021671D01*
X006183Y021627D01*
X006202Y021581D01*
X006218Y021533D01*
X006230Y021484D01*
X006238Y021435D01*
X006242Y021385D01*
X006242Y021335D01*
X006238Y021285D01*
X006230Y021236D01*
X006218Y021187D01*
X006202Y021139D01*
X006183Y021093D01*
X006160Y021049D01*
X006133Y021006D01*
X006103Y020966D01*
X006071Y020928D01*
X006035Y020893D01*
X005996Y020861D01*
X005955Y020832D01*
X005912Y020806D01*
X005867Y020784D01*
X005821Y020766D01*
X005773Y020751D01*
X005724Y020740D01*
X005675Y020733D01*
X005625Y020730D01*
X005574Y020731D01*
X005525Y020736D01*
X005475Y020745D01*
X005427Y020758D01*
X005380Y020774D01*
X005334Y020795D01*
X005290Y020819D01*
X005248Y020846D01*
X005208Y020876D01*
X005171Y020910D01*
X005137Y020947D01*
X005105Y020986D01*
X005077Y021027D01*
X005052Y021071D01*
X005031Y021116D01*
X005014Y021163D01*
X005000Y021211D01*
X004990Y021260D01*
X004984Y021310D01*
X004982Y021360D01*
X004037Y021360D02*
X004039Y021283D01*
X004045Y021206D01*
X004054Y021129D01*
X004067Y021053D01*
X004084Y020977D01*
X004105Y020903D01*
X004129Y020829D01*
X004157Y020757D01*
X004188Y020687D01*
X004223Y020618D01*
X004261Y020550D01*
X004302Y020485D01*
X004347Y020422D01*
X004395Y020361D01*
X004445Y020302D01*
X004498Y020246D01*
X004554Y020193D01*
X004613Y020143D01*
X004674Y020095D01*
X004737Y020050D01*
X004802Y020009D01*
X004870Y019971D01*
X004939Y019936D01*
X005009Y019905D01*
X005081Y019877D01*
X005155Y019853D01*
X005229Y019832D01*
X005305Y019815D01*
X005381Y019802D01*
X005458Y019793D01*
X005535Y019787D01*
X005612Y019785D01*
X003880Y034746D02*
X003882Y034771D01*
X003888Y034795D01*
X003897Y034817D01*
X003910Y034838D01*
X003926Y034857D01*
X003945Y034873D01*
X003966Y034886D01*
X003988Y034895D01*
X004012Y034901D01*
X004037Y034903D01*
X004062Y034901D01*
X004086Y034895D01*
X004108Y034886D01*
X004129Y034873D01*
X004148Y034857D01*
X004164Y034838D01*
X004177Y034817D01*
X004186Y034795D01*
X004192Y034771D01*
X004194Y034746D01*
X004192Y034721D01*
X004186Y034697D01*
X004177Y034675D01*
X004164Y034654D01*
X004148Y034635D01*
X004129Y034619D01*
X004108Y034606D01*
X004086Y034597D01*
X004062Y034591D01*
X004037Y034589D01*
X004012Y034591D01*
X003988Y034597D01*
X003966Y034606D01*
X003945Y034619D01*
X003926Y034635D01*
X003910Y034654D01*
X003897Y034675D01*
X003888Y034697D01*
X003882Y034721D01*
X003880Y034746D01*
X003880Y035139D02*
X003882Y035164D01*
X003888Y035188D01*
X003897Y035210D01*
X003910Y035231D01*
X003926Y035250D01*
X003945Y035266D01*
X003966Y035279D01*
X003988Y035288D01*
X004012Y035294D01*
X004037Y035296D01*
X004062Y035294D01*
X004086Y035288D01*
X004108Y035279D01*
X004129Y035266D01*
X004148Y035250D01*
X004164Y035231D01*
X004177Y035210D01*
X004186Y035188D01*
X004192Y035164D01*
X004194Y035139D01*
X004192Y035114D01*
X004186Y035090D01*
X004177Y035068D01*
X004164Y035047D01*
X004148Y035028D01*
X004129Y035012D01*
X004108Y034999D01*
X004086Y034990D01*
X004062Y034984D01*
X004037Y034982D01*
X004012Y034984D01*
X003988Y034990D01*
X003966Y034999D01*
X003945Y035012D01*
X003926Y035028D01*
X003910Y035047D01*
X003897Y035068D01*
X003888Y035090D01*
X003882Y035114D01*
X003880Y035139D01*
X003880Y035533D02*
X003882Y035558D01*
X003888Y035582D01*
X003897Y035604D01*
X003910Y035625D01*
X003926Y035644D01*
X003945Y035660D01*
X003966Y035673D01*
X003988Y035682D01*
X004012Y035688D01*
X004037Y035690D01*
X004062Y035688D01*
X004086Y035682D01*
X004108Y035673D01*
X004129Y035660D01*
X004148Y035644D01*
X004164Y035625D01*
X004177Y035604D01*
X004186Y035582D01*
X004192Y035558D01*
X004194Y035533D01*
X004192Y035508D01*
X004186Y035484D01*
X004177Y035462D01*
X004164Y035441D01*
X004148Y035422D01*
X004129Y035406D01*
X004108Y035393D01*
X004086Y035384D01*
X004062Y035378D01*
X004037Y035376D01*
X004012Y035378D01*
X003988Y035384D01*
X003966Y035393D01*
X003945Y035406D01*
X003926Y035422D01*
X003910Y035441D01*
X003897Y035462D01*
X003888Y035484D01*
X003882Y035508D01*
X003880Y035533D01*
X003880Y035927D02*
X003882Y035952D01*
X003888Y035976D01*
X003897Y035998D01*
X003910Y036019D01*
X003926Y036038D01*
X003945Y036054D01*
X003966Y036067D01*
X003988Y036076D01*
X004012Y036082D01*
X004037Y036084D01*
X004062Y036082D01*
X004086Y036076D01*
X004108Y036067D01*
X004129Y036054D01*
X004148Y036038D01*
X004164Y036019D01*
X004177Y035998D01*
X004186Y035976D01*
X004192Y035952D01*
X004194Y035927D01*
X004192Y035902D01*
X004186Y035878D01*
X004177Y035856D01*
X004164Y035835D01*
X004148Y035816D01*
X004129Y035800D01*
X004108Y035787D01*
X004086Y035778D01*
X004062Y035772D01*
X004037Y035770D01*
X004012Y035772D01*
X003988Y035778D01*
X003966Y035787D01*
X003945Y035800D01*
X003926Y035816D01*
X003910Y035835D01*
X003897Y035856D01*
X003888Y035878D01*
X003882Y035902D01*
X003880Y035927D01*
X003880Y036320D02*
X003882Y036345D01*
X003888Y036369D01*
X003897Y036391D01*
X003910Y036412D01*
X003926Y036431D01*
X003945Y036447D01*
X003966Y036460D01*
X003988Y036469D01*
X004012Y036475D01*
X004037Y036477D01*
X004062Y036475D01*
X004086Y036469D01*
X004108Y036460D01*
X004129Y036447D01*
X004148Y036431D01*
X004164Y036412D01*
X004177Y036391D01*
X004186Y036369D01*
X004192Y036345D01*
X004194Y036320D01*
X004192Y036295D01*
X004186Y036271D01*
X004177Y036249D01*
X004164Y036228D01*
X004148Y036209D01*
X004129Y036193D01*
X004108Y036180D01*
X004086Y036171D01*
X004062Y036165D01*
X004037Y036163D01*
X004012Y036165D01*
X003988Y036171D01*
X003966Y036180D01*
X003945Y036193D01*
X003926Y036209D01*
X003910Y036228D01*
X003897Y036249D01*
X003888Y036271D01*
X003882Y036295D01*
X003880Y036320D01*
X001577Y035533D02*
X001579Y035577D01*
X001585Y035621D01*
X001595Y035664D01*
X001608Y035706D01*
X001626Y035746D01*
X001647Y035785D01*
X001671Y035822D01*
X001698Y035857D01*
X001729Y035889D01*
X001762Y035918D01*
X001798Y035944D01*
X001836Y035966D01*
X001876Y035985D01*
X001917Y036001D01*
X001960Y036013D01*
X002003Y036021D01*
X002047Y036025D01*
X002091Y036025D01*
X002135Y036021D01*
X002178Y036013D01*
X002221Y036001D01*
X002262Y035985D01*
X002302Y035966D01*
X002340Y035944D01*
X002376Y035918D01*
X002409Y035889D01*
X002440Y035857D01*
X002467Y035822D01*
X002491Y035785D01*
X002512Y035746D01*
X002530Y035706D01*
X002543Y035664D01*
X002553Y035621D01*
X002559Y035577D01*
X002561Y035533D01*
X002559Y035489D01*
X002553Y035445D01*
X002543Y035402D01*
X002530Y035360D01*
X002512Y035320D01*
X002491Y035281D01*
X002467Y035244D01*
X002440Y035209D01*
X002409Y035177D01*
X002376Y035148D01*
X002340Y035122D01*
X002302Y035100D01*
X002262Y035081D01*
X002221Y035065D01*
X002178Y035053D01*
X002135Y035045D01*
X002091Y035041D01*
X002047Y035041D01*
X002003Y035045D01*
X001960Y035053D01*
X001917Y035065D01*
X001876Y035081D01*
X001836Y035100D01*
X001798Y035122D01*
X001762Y035148D01*
X001729Y035177D01*
X001698Y035209D01*
X001671Y035244D01*
X001647Y035281D01*
X001626Y035320D01*
X001608Y035360D01*
X001595Y035402D01*
X001585Y035445D01*
X001579Y035489D01*
X001577Y035533D01*
D11*
X005612Y037502D03*
X005612Y021360D03*
X033958Y021360D03*
X033958Y037502D03*
D12*
X037502Y035533D03*
X037502Y023722D03*
X002069Y023722D03*
X002069Y035533D03*
D13*
X004037Y035533D03*
X004037Y035139D03*
X004037Y034746D03*
X004037Y035927D03*
X004037Y036320D03*
X004037Y024509D03*
X004037Y024116D03*
X004037Y023722D03*
X004037Y023328D03*
X004037Y022935D03*
X035533Y022935D03*
X035533Y023328D03*
X035533Y023722D03*
X035533Y024116D03*
X035533Y024509D03*
X035533Y034746D03*
X035533Y035139D03*
X035533Y035533D03*
X035533Y035927D03*
X035533Y036320D03*
D14*
G36*
X026964Y025903D02*
X026631Y026236D01*
X026938Y026543D01*
X027271Y026210D01*
X026964Y025903D01*
G37*
G36*
X026563Y025088D02*
X026230Y025421D01*
X026537Y025728D01*
X026870Y025395D01*
X026563Y025088D01*
G37*
G36*
X026090Y025561D02*
X025757Y025894D01*
X026064Y026201D01*
X026397Y025868D01*
X026090Y025561D01*
G37*
G36*
X026491Y026376D02*
X026158Y026709D01*
X026465Y027016D01*
X026798Y026683D01*
X026491Y026376D01*
G37*
X015881Y024173D03*
X015212Y024173D03*
X014339Y024196D03*
X013669Y024196D03*
X011517Y021946D03*
X011308Y022458D03*
X011308Y023128D03*
X010693Y021946D03*
X010693Y021277D03*
X011517Y021277D03*
X008414Y033548D03*
X008414Y034217D03*
X007458Y034257D03*
X007458Y033587D03*
D15*
X019500Y030220D03*
X020189Y030220D03*
G36*
X021729Y032855D02*
X021410Y033174D01*
X021737Y033501D01*
X022056Y033182D01*
X021729Y032855D01*
G37*
G36*
X021242Y033342D02*
X020923Y033661D01*
X021250Y033988D01*
X021569Y033669D01*
X021242Y033342D01*
G37*
G36*
X021761Y033696D02*
X021442Y034015D01*
X021769Y034342D01*
X022088Y034023D01*
X021761Y033696D01*
G37*
G36*
X021274Y034183D02*
X020955Y034502D01*
X021282Y034829D01*
X021601Y034510D01*
X021274Y034183D01*
G37*
G36*
X027607Y032460D02*
X027288Y032141D01*
X026961Y032468D01*
X027280Y032787D01*
X027607Y032460D01*
G37*
G36*
X028094Y032947D02*
X027775Y032628D01*
X027448Y032955D01*
X027767Y033274D01*
X028094Y032947D01*
G37*
G36*
X027891Y033333D02*
X028210Y033652D01*
X028537Y033325D01*
X028218Y033006D01*
X027891Y033333D01*
G37*
G36*
X027066Y033410D02*
X027385Y033729D01*
X027712Y033402D01*
X027393Y033083D01*
X027066Y033410D01*
G37*
G36*
X027553Y033897D02*
X027872Y034216D01*
X028199Y033889D01*
X027880Y033570D01*
X027553Y033897D01*
G37*
G36*
X028378Y033820D02*
X028697Y034139D01*
X029024Y033812D01*
X028705Y033493D01*
X028378Y033820D01*
G37*
X028539Y030199D03*
X029228Y030199D03*
G36*
X029454Y027235D02*
X029135Y027554D01*
X029462Y027881D01*
X029781Y027562D01*
X029454Y027235D01*
G37*
G36*
X029941Y026748D02*
X029622Y027067D01*
X029949Y027394D01*
X030268Y027075D01*
X029941Y026748D01*
G37*
G36*
X029434Y026237D02*
X029115Y026556D01*
X029442Y026883D01*
X029761Y026564D01*
X029434Y026237D01*
G37*
G36*
X028947Y026724D02*
X028628Y027043D01*
X028955Y027370D01*
X029274Y027051D01*
X028947Y026724D01*
G37*
G36*
X028130Y026794D02*
X027811Y027113D01*
X028138Y027440D01*
X028457Y027121D01*
X028130Y026794D01*
G37*
G36*
X027660Y026371D02*
X027341Y026690D01*
X027668Y027017D01*
X027987Y026698D01*
X027660Y026371D01*
G37*
G36*
X027172Y026859D02*
X026853Y027178D01*
X027180Y027505D01*
X027499Y027186D01*
X027172Y026859D01*
G37*
G36*
X027642Y027281D02*
X027323Y027600D01*
X027650Y027927D01*
X027969Y027608D01*
X027642Y027281D01*
G37*
D16*
X024325Y026008D03*
X024325Y025319D03*
X024377Y034317D03*
X024377Y035006D03*
X009227Y034214D03*
X009227Y033525D03*
X008448Y030553D03*
X008448Y029864D03*
D17*
X007530Y029803D03*
X007530Y030303D03*
X007530Y030803D03*
X007530Y031303D03*
X007530Y031803D03*
X006030Y031803D03*
X006030Y031303D03*
X006030Y030803D03*
X006030Y030303D03*
X006030Y029803D03*
D18*
X009868Y023612D03*
X010242Y023612D03*
X010616Y023612D03*
X010616Y022588D03*
X010242Y022588D03*
X009868Y022588D03*
D19*
X008868Y022639D03*
X008868Y021537D03*
D20*
X011521Y023830D03*
X012191Y023830D03*
D21*
X011805Y024495D03*
X011805Y026188D03*
X007464Y023292D03*
X007464Y021599D03*
D22*
X009868Y024492D03*
X009868Y026185D03*
D23*
X008037Y026159D03*
X008037Y025057D03*
D24*
X013846Y023309D03*
X013846Y022809D03*
X013846Y022309D03*
X013846Y021809D03*
X015893Y021809D03*
X015893Y022309D03*
X015893Y022809D03*
X015893Y023309D03*
D25*
X015765Y020992D03*
X015096Y020992D03*
X014478Y021018D03*
X013809Y021018D03*
X013978Y026242D03*
X013978Y026911D03*
X018223Y021868D03*
X018892Y021868D03*
X018892Y021021D03*
X018223Y021021D03*
D26*
X015825Y024612D03*
X015451Y025439D03*
X016199Y025439D03*
D27*
X026356Y024105D03*
X027458Y024105D03*
D28*
X031433Y024458D03*
D29*
X032555Y026348D03*
X033893Y024458D03*
D30*
G36*
X029246Y027859D02*
X029011Y027624D01*
X028788Y027847D01*
X029023Y028082D01*
X029246Y027859D01*
G37*
G36*
X028967Y028138D02*
X028732Y027903D01*
X028509Y028126D01*
X028744Y028361D01*
X028967Y028138D01*
G37*
G36*
X028870Y027484D02*
X028635Y027249D01*
X028412Y027472D01*
X028647Y027707D01*
X028870Y027484D01*
G37*
G36*
X028591Y027762D02*
X028356Y027527D01*
X028133Y027750D01*
X028368Y027985D01*
X028591Y027762D01*
G37*
D31*
X032037Y036035D03*
D32*
X032037Y037035D03*
X031037Y037035D03*
X031037Y036035D03*
X030037Y036035D03*
X030037Y037035D03*
X029037Y037035D03*
X029037Y036035D03*
X028037Y036035D03*
X028037Y037035D03*
X027037Y037035D03*
X027037Y036035D03*
X026037Y036035D03*
X026037Y037035D03*
X025037Y037035D03*
X025037Y036035D03*
X024037Y036035D03*
X024037Y037035D03*
X023037Y037035D03*
X023037Y036035D03*
X022037Y036035D03*
X022037Y037035D03*
X021037Y037035D03*
X021037Y036035D03*
X020037Y036035D03*
X020037Y037035D03*
X019037Y037035D03*
X019037Y036035D03*
X018037Y036035D03*
X018037Y037035D03*
X017037Y037035D03*
X017037Y036035D03*
D33*
X014882Y032933D03*
X012638Y032933D03*
D34*
X015512Y038110D03*
X010334Y038503D03*
D35*
X012169Y036988D03*
X012602Y036830D03*
X013035Y036988D03*
X013468Y037066D03*
X013901Y036988D03*
X014334Y037066D03*
X014768Y036988D03*
X015201Y036988D03*
D36*
X009452Y037143D03*
X009452Y035643D03*
X007452Y035643D03*
X007452Y037143D03*
D37*
X008072Y037887D03*
X008899Y037887D03*
D38*
X023037Y021795D02*
X023037Y021275D01*
X024037Y021275D02*
X024037Y021795D01*
X025037Y021795D02*
X025037Y021275D01*
X026037Y021275D02*
X026037Y021795D01*
X027037Y021795D02*
X027037Y021275D01*
X028037Y021275D02*
X028037Y021795D01*
X029037Y021795D02*
X029037Y021275D01*
X030037Y021275D02*
X030037Y021795D01*
X031037Y021795D02*
X031037Y021275D01*
X032037Y021275D02*
X032037Y021795D01*
D39*
X014387Y024824D03*
X014387Y025769D03*
X014013Y025769D03*
X013639Y025769D03*
X013639Y024824D03*
D40*
X019764Y022370D03*
X019764Y021870D03*
X019764Y021370D03*
X019764Y020870D03*
X021824Y020870D03*
X021824Y021370D03*
X021824Y021870D03*
X021824Y022370D03*
D41*
X021102Y023112D03*
X020502Y023112D03*
D42*
X020802Y023112D03*
D43*
X026003Y023002D03*
X027853Y023002D03*
D44*
X033924Y028953D03*
X033924Y029209D03*
X033924Y029465D03*
X033924Y029721D03*
X033924Y029977D03*
D45*
X034967Y030843D03*
X034967Y028087D03*
D46*
X033904Y028481D03*
X033904Y030449D03*
D47*
X034967Y029859D03*
X034967Y029071D03*
D48*
G36*
X028453Y030838D02*
X028175Y030560D01*
X028063Y030672D01*
X028341Y030950D01*
X028453Y030838D01*
G37*
G36*
X028314Y030977D02*
X028036Y030699D01*
X027924Y030811D01*
X028202Y031089D01*
X028314Y030977D01*
G37*
G36*
X028174Y031116D02*
X027896Y030838D01*
X027784Y030950D01*
X028062Y031228D01*
X028174Y031116D01*
G37*
G36*
X028035Y031256D02*
X027757Y030978D01*
X027645Y031090D01*
X027923Y031368D01*
X028035Y031256D01*
G37*
G36*
X027896Y031395D02*
X027618Y031117D01*
X027506Y031229D01*
X027784Y031507D01*
X027896Y031395D01*
G37*
G36*
X027757Y031534D02*
X027479Y031256D01*
X027367Y031368D01*
X027645Y031646D01*
X027757Y031534D01*
G37*
G36*
X027618Y031673D02*
X027340Y031395D01*
X027228Y031507D01*
X027506Y031785D01*
X027618Y031673D01*
G37*
G36*
X027478Y031812D02*
X027200Y031534D01*
X027088Y031646D01*
X027366Y031924D01*
X027478Y031812D01*
G37*
G36*
X027339Y031952D02*
X027061Y031674D01*
X026949Y031786D01*
X027227Y032064D01*
X027339Y031952D01*
G37*
G36*
X027200Y032091D02*
X026922Y031813D01*
X026810Y031925D01*
X027088Y032203D01*
X027200Y032091D01*
G37*
G36*
X027061Y032230D02*
X026783Y031952D01*
X026671Y032064D01*
X026949Y032342D01*
X027061Y032230D01*
G37*
G36*
X026922Y032369D02*
X026644Y032091D01*
X026532Y032203D01*
X026810Y032481D01*
X026922Y032369D01*
G37*
G36*
X026782Y032508D02*
X026504Y032230D01*
X026392Y032342D01*
X026670Y032620D01*
X026782Y032508D01*
G37*
G36*
X026643Y032648D02*
X026365Y032370D01*
X026253Y032482D01*
X026531Y032760D01*
X026643Y032648D01*
G37*
G36*
X026504Y032787D02*
X026226Y032509D01*
X026114Y032621D01*
X026392Y032899D01*
X026504Y032787D01*
G37*
G36*
X026365Y032926D02*
X026087Y032648D01*
X025975Y032760D01*
X026253Y033038D01*
X026365Y032926D01*
G37*
G36*
X026226Y033065D02*
X025948Y032787D01*
X025836Y032899D01*
X026114Y033177D01*
X026226Y033065D01*
G37*
G36*
X026086Y033204D02*
X025808Y032926D01*
X025696Y033038D01*
X025974Y033316D01*
X026086Y033204D01*
G37*
G36*
X025947Y033344D02*
X025669Y033066D01*
X025557Y033178D01*
X025835Y033456D01*
X025947Y033344D01*
G37*
G36*
X025808Y033483D02*
X025530Y033205D01*
X025418Y033317D01*
X025696Y033595D01*
X025808Y033483D01*
G37*
G36*
X025669Y033622D02*
X025391Y033344D01*
X025279Y033456D01*
X025557Y033734D01*
X025669Y033622D01*
G37*
G36*
X025530Y033761D02*
X025252Y033483D01*
X025140Y033595D01*
X025418Y033873D01*
X025530Y033761D01*
G37*
G36*
X025390Y033900D02*
X025112Y033622D01*
X025000Y033734D01*
X025278Y034012D01*
X025390Y033900D01*
G37*
G36*
X025251Y034039D02*
X024973Y033761D01*
X024861Y033873D01*
X025139Y034151D01*
X025251Y034039D01*
G37*
G36*
X025112Y034179D02*
X024834Y033901D01*
X024722Y034013D01*
X025000Y034291D01*
X025112Y034179D01*
G37*
G36*
X021187Y029140D02*
X020909Y028862D01*
X020797Y028974D01*
X021075Y029252D01*
X021187Y029140D01*
G37*
G36*
X021326Y029001D02*
X021048Y028723D01*
X020936Y028835D01*
X021214Y029113D01*
X021326Y029001D01*
G37*
G36*
X021465Y028861D02*
X021187Y028583D01*
X021075Y028695D01*
X021353Y028973D01*
X021465Y028861D01*
G37*
G36*
X021604Y028722D02*
X021326Y028444D01*
X021214Y028556D01*
X021492Y028834D01*
X021604Y028722D01*
G37*
G36*
X021744Y028583D02*
X021466Y028305D01*
X021354Y028417D01*
X021632Y028695D01*
X021744Y028583D01*
G37*
G36*
X021883Y028444D02*
X021605Y028166D01*
X021493Y028278D01*
X021771Y028556D01*
X021883Y028444D01*
G37*
G36*
X022022Y028305D02*
X021744Y028027D01*
X021632Y028139D01*
X021910Y028417D01*
X022022Y028305D01*
G37*
G36*
X022161Y028165D02*
X021883Y027887D01*
X021771Y027999D01*
X022049Y028277D01*
X022161Y028165D01*
G37*
G36*
X022300Y028026D02*
X022022Y027748D01*
X021910Y027860D01*
X022188Y028138D01*
X022300Y028026D01*
G37*
G36*
X022440Y027887D02*
X022162Y027609D01*
X022050Y027721D01*
X022328Y027999D01*
X022440Y027887D01*
G37*
G36*
X022579Y027748D02*
X022301Y027470D01*
X022189Y027582D01*
X022467Y027860D01*
X022579Y027748D01*
G37*
G36*
X022718Y027609D02*
X022440Y027331D01*
X022328Y027443D01*
X022606Y027721D01*
X022718Y027609D01*
G37*
G36*
X022857Y027470D02*
X022579Y027192D01*
X022467Y027304D01*
X022745Y027582D01*
X022857Y027470D01*
G37*
G36*
X022996Y027330D02*
X022718Y027052D01*
X022606Y027164D01*
X022884Y027442D01*
X022996Y027330D01*
G37*
G36*
X023136Y027191D02*
X022858Y026913D01*
X022746Y027025D01*
X023024Y027303D01*
X023136Y027191D01*
G37*
G36*
X023275Y027052D02*
X022997Y026774D01*
X022885Y026886D01*
X023163Y027164D01*
X023275Y027052D01*
G37*
G36*
X023414Y026913D02*
X023136Y026635D01*
X023024Y026747D01*
X023302Y027025D01*
X023414Y026913D01*
G37*
G36*
X023553Y026774D02*
X023275Y026496D01*
X023163Y026608D01*
X023441Y026886D01*
X023553Y026774D01*
G37*
G36*
X023692Y026634D02*
X023414Y026356D01*
X023302Y026468D01*
X023580Y026746D01*
X023692Y026634D01*
G37*
G36*
X023831Y026495D02*
X023553Y026217D01*
X023441Y026329D01*
X023719Y026607D01*
X023831Y026495D01*
G37*
G36*
X023971Y026356D02*
X023693Y026078D01*
X023581Y026190D01*
X023859Y026468D01*
X023971Y026356D01*
G37*
G36*
X021048Y029279D02*
X020770Y029001D01*
X020658Y029113D01*
X020936Y029391D01*
X021048Y029279D01*
G37*
G36*
X020908Y029418D02*
X020630Y029140D01*
X020518Y029252D01*
X020796Y029530D01*
X020908Y029418D01*
G37*
G36*
X020769Y029557D02*
X020491Y029279D01*
X020379Y029391D01*
X020657Y029669D01*
X020769Y029557D01*
G37*
G36*
X020630Y029697D02*
X020352Y029419D01*
X020240Y029531D01*
X020518Y029809D01*
X020630Y029697D01*
G37*
D49*
G36*
X020630Y030672D02*
X020518Y030560D01*
X020240Y030838D01*
X020352Y030950D01*
X020630Y030672D01*
G37*
G36*
X020769Y030811D02*
X020657Y030699D01*
X020379Y030977D01*
X020491Y031089D01*
X020769Y030811D01*
G37*
G36*
X020908Y030950D02*
X020796Y030838D01*
X020518Y031116D01*
X020630Y031228D01*
X020908Y030950D01*
G37*
G36*
X021048Y031090D02*
X020936Y030978D01*
X020658Y031256D01*
X020770Y031368D01*
X021048Y031090D01*
G37*
G36*
X021187Y031229D02*
X021075Y031117D01*
X020797Y031395D01*
X020909Y031507D01*
X021187Y031229D01*
G37*
G36*
X021326Y031368D02*
X021214Y031256D01*
X020936Y031534D01*
X021048Y031646D01*
X021326Y031368D01*
G37*
G36*
X021465Y031507D02*
X021353Y031395D01*
X021075Y031673D01*
X021187Y031785D01*
X021465Y031507D01*
G37*
G36*
X021604Y031646D02*
X021492Y031534D01*
X021214Y031812D01*
X021326Y031924D01*
X021604Y031646D01*
G37*
G36*
X021744Y031786D02*
X021632Y031674D01*
X021354Y031952D01*
X021466Y032064D01*
X021744Y031786D01*
G37*
G36*
X021883Y031925D02*
X021771Y031813D01*
X021493Y032091D01*
X021605Y032203D01*
X021883Y031925D01*
G37*
G36*
X022022Y032064D02*
X021910Y031952D01*
X021632Y032230D01*
X021744Y032342D01*
X022022Y032064D01*
G37*
G36*
X022161Y032203D02*
X022049Y032091D01*
X021771Y032369D01*
X021883Y032481D01*
X022161Y032203D01*
G37*
G36*
X022300Y032342D02*
X022188Y032230D01*
X021910Y032508D01*
X022022Y032620D01*
X022300Y032342D01*
G37*
G36*
X022440Y032482D02*
X022328Y032370D01*
X022050Y032648D01*
X022162Y032760D01*
X022440Y032482D01*
G37*
G36*
X022579Y032621D02*
X022467Y032509D01*
X022189Y032787D01*
X022301Y032899D01*
X022579Y032621D01*
G37*
G36*
X022718Y032760D02*
X022606Y032648D01*
X022328Y032926D01*
X022440Y033038D01*
X022718Y032760D01*
G37*
G36*
X022857Y032899D02*
X022745Y032787D01*
X022467Y033065D01*
X022579Y033177D01*
X022857Y032899D01*
G37*
G36*
X022996Y033038D02*
X022884Y032926D01*
X022606Y033204D01*
X022718Y033316D01*
X022996Y033038D01*
G37*
G36*
X023136Y033178D02*
X023024Y033066D01*
X022746Y033344D01*
X022858Y033456D01*
X023136Y033178D01*
G37*
G36*
X023275Y033317D02*
X023163Y033205D01*
X022885Y033483D01*
X022997Y033595D01*
X023275Y033317D01*
G37*
G36*
X023414Y033456D02*
X023302Y033344D01*
X023024Y033622D01*
X023136Y033734D01*
X023414Y033456D01*
G37*
G36*
X023553Y033595D02*
X023441Y033483D01*
X023163Y033761D01*
X023275Y033873D01*
X023553Y033595D01*
G37*
G36*
X023692Y033734D02*
X023580Y033622D01*
X023302Y033900D01*
X023414Y034012D01*
X023692Y033734D01*
G37*
G36*
X023831Y033873D02*
X023719Y033761D01*
X023441Y034039D01*
X023553Y034151D01*
X023831Y033873D01*
G37*
G36*
X023971Y034013D02*
X023859Y033901D01*
X023581Y034179D01*
X023693Y034291D01*
X023971Y034013D01*
G37*
G36*
X027757Y028835D02*
X027645Y028723D01*
X027367Y029001D01*
X027479Y029113D01*
X027757Y028835D01*
G37*
G36*
X027896Y028974D02*
X027784Y028862D01*
X027506Y029140D01*
X027618Y029252D01*
X027896Y028974D01*
G37*
G36*
X028035Y029113D02*
X027923Y029001D01*
X027645Y029279D01*
X027757Y029391D01*
X028035Y029113D01*
G37*
G36*
X028174Y029252D02*
X028062Y029140D01*
X027784Y029418D01*
X027896Y029530D01*
X028174Y029252D01*
G37*
G36*
X028314Y029391D02*
X028202Y029279D01*
X027924Y029557D01*
X028036Y029669D01*
X028314Y029391D01*
G37*
G36*
X028453Y029531D02*
X028341Y029419D01*
X028063Y029697D01*
X028175Y029809D01*
X028453Y029531D01*
G37*
G36*
X027618Y028695D02*
X027506Y028583D01*
X027228Y028861D01*
X027340Y028973D01*
X027618Y028695D01*
G37*
G36*
X027478Y028556D02*
X027366Y028444D01*
X027088Y028722D01*
X027200Y028834D01*
X027478Y028556D01*
G37*
G36*
X027339Y028417D02*
X027227Y028305D01*
X026949Y028583D01*
X027061Y028695D01*
X027339Y028417D01*
G37*
G36*
X027200Y028278D02*
X027088Y028166D01*
X026810Y028444D01*
X026922Y028556D01*
X027200Y028278D01*
G37*
G36*
X027061Y028139D02*
X026949Y028027D01*
X026671Y028305D01*
X026783Y028417D01*
X027061Y028139D01*
G37*
G36*
X026922Y027999D02*
X026810Y027887D01*
X026532Y028165D01*
X026644Y028277D01*
X026922Y027999D01*
G37*
G36*
X026782Y027860D02*
X026670Y027748D01*
X026392Y028026D01*
X026504Y028138D01*
X026782Y027860D01*
G37*
G36*
X026643Y027721D02*
X026531Y027609D01*
X026253Y027887D01*
X026365Y027999D01*
X026643Y027721D01*
G37*
G36*
X026504Y027582D02*
X026392Y027470D01*
X026114Y027748D01*
X026226Y027860D01*
X026504Y027582D01*
G37*
G36*
X026365Y027443D02*
X026253Y027331D01*
X025975Y027609D01*
X026087Y027721D01*
X026365Y027443D01*
G37*
G36*
X026226Y027304D02*
X026114Y027192D01*
X025836Y027470D01*
X025948Y027582D01*
X026226Y027304D01*
G37*
G36*
X026086Y027164D02*
X025974Y027052D01*
X025696Y027330D01*
X025808Y027442D01*
X026086Y027164D01*
G37*
G36*
X025947Y027025D02*
X025835Y026913D01*
X025557Y027191D01*
X025669Y027303D01*
X025947Y027025D01*
G37*
G36*
X025808Y026886D02*
X025696Y026774D01*
X025418Y027052D01*
X025530Y027164D01*
X025808Y026886D01*
G37*
G36*
X025669Y026747D02*
X025557Y026635D01*
X025279Y026913D01*
X025391Y027025D01*
X025669Y026747D01*
G37*
G36*
X025530Y026608D02*
X025418Y026496D01*
X025140Y026774D01*
X025252Y026886D01*
X025530Y026608D01*
G37*
G36*
X025390Y026468D02*
X025278Y026356D01*
X025000Y026634D01*
X025112Y026746D01*
X025390Y026468D01*
G37*
G36*
X025251Y026329D02*
X025139Y026217D01*
X024861Y026495D01*
X024973Y026607D01*
X025251Y026329D01*
G37*
G36*
X025112Y026190D02*
X025000Y026078D01*
X024722Y026356D01*
X024834Y026468D01*
X025112Y026190D01*
G37*
M02*
