%
M48
M72
T01C0.0118
T02C0.0315
T03C0.0320
T04C0.0360
T05C0.0413
T06C0.0512
T07C0.0984
T08C0.1102
T09C0.1260
%
T01
X10336Y20733
X9844Y22246
X8884Y22138
X7974Y21360
X9921Y26893
X9921Y29832
X8586Y30907
X8812Y34984
X15057Y29909
X17596Y32459
X18179Y33053
X19748Y34616
X20972Y33355
X21943Y34503
X23310Y35098
X24081Y33870
X24398Y33898
X24879Y34603
X23768Y32823
X23402Y32917
X22569Y32017
X23583Y31527
X21973Y28658
X21291Y28227
X20779Y28731
X20464Y29046
X20157Y29341
X19501Y29744
X19178Y28354
X18437Y27076
X19083Y26974
X20549Y27461
X21359Y26660
X22065Y27405
X23741Y25572
X21754Y23328
X19982Y23328
X19153Y22677
X20205Y25602
X16340Y24116
X14667Y24464
X13929Y24559
X12206Y23328
X13486Y20733
X16331Y21015
X25855Y32551
X26253Y32187
X26480Y28475
X27105Y27677
X27973Y26427
X29588Y30597
T02
X35533Y34746
X35533Y35139
X35533Y35533
X35533Y35927
X35533Y36320
X35533Y24509
X35533Y24116
X35533Y23722
X35533Y23328
X35533Y22935
X4037Y22935
X4037Y23328
X4037Y23722
X4037Y24116
X4037Y24509
X4037Y34746
X4037Y35139
X4037Y35533
X4037Y35927
X4037Y36320
T03
X23037Y21535
X24037Y21535
X25037Y21535
X26037Y21535
X27037Y21535
X28037Y21535
X29037Y21535
X30037Y21535
X31037Y21535
X32037Y21535
T04
X32037Y36035
X32037Y37035
X31037Y37035
X31037Y36035
X30037Y36035
X30037Y37035
X29037Y37035
X29037Y36035
X28037Y36035
X28037Y37035
X27037Y37035
X27037Y36035
X26037Y36035
X26037Y37035
X25037Y37035
X25037Y36035
X24037Y36035
X24037Y37035
X23037Y37035
X23037Y36035
X22037Y36035
X22037Y37035
X21037Y37035
X21037Y36035
X20037Y36035
X20037Y37035
X19037Y37035
X19037Y36035
X18037Y36035
X18037Y37035
X17037Y37035
X17037Y36035
T05
X33904Y30449
X33904Y28481
T06
X34967Y28087
X34967Y30843
T07
X37502Y35533
X37502Y23722
X2069Y23722
X2069Y35533
T08
X32555Y26348
X33893Y24458
T09
X33958Y21360
X31433Y24458
X33958Y37502
X5612Y37502
X5612Y21360
M30
