G75*
G70*
%OFA0B0*%
%FSLAX24Y24*%
%IPPOS*%
%LPD*%
%AMOC8*
5,1,8,0,0,1.08239X$1,22.5*
%
%ADD10C,0.0000*%
%ADD11R,0.0434X0.0473*%
%ADD12R,0.0453X0.0465*%
%ADD13C,0.0012*%
%ADD14R,0.1752X0.1752*%
%ADD15R,0.0465X0.0453*%
%ADD16R,0.1140X0.0330*%
%ADD17R,0.0312X0.0434*%
%ADD18R,0.1103X0.0670*%
%ADD19R,0.0473X0.0434*%
%ADD20R,0.0631X0.0552*%
%ADD21R,0.0619X0.0540*%
%ADD22R,0.2402X0.0827*%
%ADD23R,0.0670X0.0749*%
%ADD24R,0.0906X0.0276*%
%ADD25R,0.0355X0.0394*%
%ADD26R,0.0434X0.0749*%
%ADD27C,0.1700*%
%ADD28C,0.1542*%
%ADD29R,0.0316X0.0335*%
%ADD30C,0.0600*%
%ADD31OC8,0.0600*%
%ADD32R,0.0749X0.0591*%
%ADD33R,0.0591X0.0788*%
%ADD34R,0.0355X0.0631*%
%ADD35R,0.0640X0.0340*%
%ADD36R,0.0512X0.0512*%
%ADD37C,0.0560*%
%ADD38R,0.0237X0.0434*%
%ADD39R,0.0910X0.0280*%
%ADD40R,0.0500X0.0670*%
%ADD41R,0.0060X0.0720*%
%ADD42C,0.1300*%
%ADD43R,0.1040X0.1040*%
%ADD44R,0.0591X0.0178*%
%ADD45C,0.0808*%
%ADD46C,0.0660*%
%ADD47R,0.0631X0.0631*%
D10*
X020305Y019017D02*
X048336Y019017D01*
X049726Y019017D02*
X021380Y019017D01*
X020750Y020592D02*
X020752Y020642D01*
X020758Y020692D01*
X020768Y020741D01*
X020782Y020789D01*
X020799Y020836D01*
X020820Y020881D01*
X020845Y020925D01*
X020873Y020966D01*
X020905Y021005D01*
X020939Y021042D01*
X020976Y021076D01*
X021016Y021106D01*
X021058Y021133D01*
X021102Y021157D01*
X021148Y021178D01*
X021195Y021194D01*
X021243Y021207D01*
X021293Y021216D01*
X021342Y021221D01*
X021393Y021222D01*
X021443Y021219D01*
X021492Y021212D01*
X021541Y021201D01*
X021589Y021186D01*
X021635Y021168D01*
X021680Y021146D01*
X021723Y021120D01*
X021764Y021091D01*
X021803Y021059D01*
X021839Y021024D01*
X021871Y020986D01*
X021901Y020946D01*
X021928Y020903D01*
X021951Y020859D01*
X021970Y020813D01*
X021986Y020765D01*
X021998Y020716D01*
X022006Y020667D01*
X022010Y020617D01*
X022010Y020567D01*
X022006Y020517D01*
X021998Y020468D01*
X021986Y020419D01*
X021970Y020371D01*
X021951Y020325D01*
X021928Y020281D01*
X021901Y020238D01*
X021871Y020198D01*
X021839Y020160D01*
X021803Y020125D01*
X021764Y020093D01*
X021723Y020064D01*
X021680Y020038D01*
X021635Y020016D01*
X021589Y019998D01*
X021541Y019983D01*
X021492Y019972D01*
X021443Y019965D01*
X021393Y019962D01*
X021342Y019963D01*
X021293Y019968D01*
X021243Y019977D01*
X021195Y019990D01*
X021148Y020006D01*
X021102Y020027D01*
X021058Y020051D01*
X021016Y020078D01*
X020976Y020108D01*
X020939Y020142D01*
X020905Y020179D01*
X020873Y020218D01*
X020845Y020259D01*
X020820Y020303D01*
X020799Y020348D01*
X020782Y020395D01*
X020768Y020443D01*
X020758Y020492D01*
X020752Y020542D01*
X020750Y020592D01*
X019805Y020592D02*
X019807Y020515D01*
X019813Y020438D01*
X019822Y020361D01*
X019835Y020285D01*
X019852Y020209D01*
X019873Y020135D01*
X019897Y020061D01*
X019925Y019989D01*
X019956Y019919D01*
X019991Y019850D01*
X020029Y019782D01*
X020070Y019717D01*
X020115Y019654D01*
X020163Y019593D01*
X020213Y019534D01*
X020266Y019478D01*
X020322Y019425D01*
X020381Y019375D01*
X020442Y019327D01*
X020505Y019282D01*
X020570Y019241D01*
X020638Y019203D01*
X020707Y019168D01*
X020777Y019137D01*
X020849Y019109D01*
X020923Y019085D01*
X020997Y019064D01*
X021073Y019047D01*
X021149Y019034D01*
X021226Y019025D01*
X021303Y019019D01*
X021380Y019017D01*
X019805Y020592D02*
X019805Y036734D01*
X020750Y036734D02*
X020752Y036784D01*
X020758Y036834D01*
X020768Y036883D01*
X020782Y036931D01*
X020799Y036978D01*
X020820Y037023D01*
X020845Y037067D01*
X020873Y037108D01*
X020905Y037147D01*
X020939Y037184D01*
X020976Y037218D01*
X021016Y037248D01*
X021058Y037275D01*
X021102Y037299D01*
X021148Y037320D01*
X021195Y037336D01*
X021243Y037349D01*
X021293Y037358D01*
X021342Y037363D01*
X021393Y037364D01*
X021443Y037361D01*
X021492Y037354D01*
X021541Y037343D01*
X021589Y037328D01*
X021635Y037310D01*
X021680Y037288D01*
X021723Y037262D01*
X021764Y037233D01*
X021803Y037201D01*
X021839Y037166D01*
X021871Y037128D01*
X021901Y037088D01*
X021928Y037045D01*
X021951Y037001D01*
X021970Y036955D01*
X021986Y036907D01*
X021998Y036858D01*
X022006Y036809D01*
X022010Y036759D01*
X022010Y036709D01*
X022006Y036659D01*
X021998Y036610D01*
X021986Y036561D01*
X021970Y036513D01*
X021951Y036467D01*
X021928Y036423D01*
X021901Y036380D01*
X021871Y036340D01*
X021839Y036302D01*
X021803Y036267D01*
X021764Y036235D01*
X021723Y036206D01*
X021680Y036180D01*
X021635Y036158D01*
X021589Y036140D01*
X021541Y036125D01*
X021492Y036114D01*
X021443Y036107D01*
X021393Y036104D01*
X021342Y036105D01*
X021293Y036110D01*
X021243Y036119D01*
X021195Y036132D01*
X021148Y036148D01*
X021102Y036169D01*
X021058Y036193D01*
X021016Y036220D01*
X020976Y036250D01*
X020939Y036284D01*
X020905Y036321D01*
X020873Y036360D01*
X020845Y036401D01*
X020820Y036445D01*
X020799Y036490D01*
X020782Y036537D01*
X020768Y036585D01*
X020758Y036634D01*
X020752Y036684D01*
X020750Y036734D01*
X019805Y036734D02*
X019807Y036811D01*
X019813Y036888D01*
X019822Y036965D01*
X019835Y037041D01*
X019852Y037117D01*
X019873Y037191D01*
X019897Y037265D01*
X019925Y037337D01*
X019956Y037407D01*
X019991Y037476D01*
X020029Y037544D01*
X020070Y037609D01*
X020115Y037672D01*
X020163Y037733D01*
X020213Y037792D01*
X020266Y037848D01*
X020322Y037901D01*
X020381Y037951D01*
X020442Y037999D01*
X020505Y038044D01*
X020570Y038085D01*
X020638Y038123D01*
X020707Y038158D01*
X020777Y038189D01*
X020849Y038217D01*
X020923Y038241D01*
X020997Y038262D01*
X021073Y038279D01*
X021149Y038292D01*
X021226Y038301D01*
X021303Y038307D01*
X021380Y038309D01*
X049726Y038309D01*
X049096Y036734D02*
X049098Y036784D01*
X049104Y036834D01*
X049114Y036883D01*
X049128Y036931D01*
X049145Y036978D01*
X049166Y037023D01*
X049191Y037067D01*
X049219Y037108D01*
X049251Y037147D01*
X049285Y037184D01*
X049322Y037218D01*
X049362Y037248D01*
X049404Y037275D01*
X049448Y037299D01*
X049494Y037320D01*
X049541Y037336D01*
X049589Y037349D01*
X049639Y037358D01*
X049688Y037363D01*
X049739Y037364D01*
X049789Y037361D01*
X049838Y037354D01*
X049887Y037343D01*
X049935Y037328D01*
X049981Y037310D01*
X050026Y037288D01*
X050069Y037262D01*
X050110Y037233D01*
X050149Y037201D01*
X050185Y037166D01*
X050217Y037128D01*
X050247Y037088D01*
X050274Y037045D01*
X050297Y037001D01*
X050316Y036955D01*
X050332Y036907D01*
X050344Y036858D01*
X050352Y036809D01*
X050356Y036759D01*
X050356Y036709D01*
X050352Y036659D01*
X050344Y036610D01*
X050332Y036561D01*
X050316Y036513D01*
X050297Y036467D01*
X050274Y036423D01*
X050247Y036380D01*
X050217Y036340D01*
X050185Y036302D01*
X050149Y036267D01*
X050110Y036235D01*
X050069Y036206D01*
X050026Y036180D01*
X049981Y036158D01*
X049935Y036140D01*
X049887Y036125D01*
X049838Y036114D01*
X049789Y036107D01*
X049739Y036104D01*
X049688Y036105D01*
X049639Y036110D01*
X049589Y036119D01*
X049541Y036132D01*
X049494Y036148D01*
X049448Y036169D01*
X049404Y036193D01*
X049362Y036220D01*
X049322Y036250D01*
X049285Y036284D01*
X049251Y036321D01*
X049219Y036360D01*
X049191Y036401D01*
X049166Y036445D01*
X049145Y036490D01*
X049128Y036537D01*
X049114Y036585D01*
X049104Y036634D01*
X049098Y036684D01*
X049096Y036734D01*
X049726Y038309D02*
X049803Y038307D01*
X049880Y038301D01*
X049957Y038292D01*
X050033Y038279D01*
X050109Y038262D01*
X050183Y038241D01*
X050257Y038217D01*
X050329Y038189D01*
X050399Y038158D01*
X050468Y038123D01*
X050536Y038085D01*
X050601Y038044D01*
X050664Y037999D01*
X050725Y037951D01*
X050784Y037901D01*
X050840Y037848D01*
X050893Y037792D01*
X050943Y037733D01*
X050991Y037672D01*
X051036Y037609D01*
X051077Y037544D01*
X051115Y037476D01*
X051150Y037407D01*
X051181Y037337D01*
X051209Y037265D01*
X051233Y037191D01*
X051254Y037117D01*
X051271Y037041D01*
X051284Y036965D01*
X051293Y036888D01*
X051299Y036811D01*
X051301Y036734D01*
X051301Y020592D01*
X049096Y020592D02*
X049098Y020642D01*
X049104Y020692D01*
X049114Y020741D01*
X049128Y020789D01*
X049145Y020836D01*
X049166Y020881D01*
X049191Y020925D01*
X049219Y020966D01*
X049251Y021005D01*
X049285Y021042D01*
X049322Y021076D01*
X049362Y021106D01*
X049404Y021133D01*
X049448Y021157D01*
X049494Y021178D01*
X049541Y021194D01*
X049589Y021207D01*
X049639Y021216D01*
X049688Y021221D01*
X049739Y021222D01*
X049789Y021219D01*
X049838Y021212D01*
X049887Y021201D01*
X049935Y021186D01*
X049981Y021168D01*
X050026Y021146D01*
X050069Y021120D01*
X050110Y021091D01*
X050149Y021059D01*
X050185Y021024D01*
X050217Y020986D01*
X050247Y020946D01*
X050274Y020903D01*
X050297Y020859D01*
X050316Y020813D01*
X050332Y020765D01*
X050344Y020716D01*
X050352Y020667D01*
X050356Y020617D01*
X050356Y020567D01*
X050352Y020517D01*
X050344Y020468D01*
X050332Y020419D01*
X050316Y020371D01*
X050297Y020325D01*
X050274Y020281D01*
X050247Y020238D01*
X050217Y020198D01*
X050185Y020160D01*
X050149Y020125D01*
X050110Y020093D01*
X050069Y020064D01*
X050026Y020038D01*
X049981Y020016D01*
X049935Y019998D01*
X049887Y019983D01*
X049838Y019972D01*
X049789Y019965D01*
X049739Y019962D01*
X049688Y019963D01*
X049639Y019968D01*
X049589Y019977D01*
X049541Y019990D01*
X049494Y020006D01*
X049448Y020027D01*
X049404Y020051D01*
X049362Y020078D01*
X049322Y020108D01*
X049285Y020142D01*
X049251Y020179D01*
X049219Y020218D01*
X049191Y020259D01*
X049166Y020303D01*
X049145Y020348D01*
X049128Y020395D01*
X049114Y020443D01*
X049104Y020492D01*
X049098Y020542D01*
X049096Y020592D01*
X049726Y019017D02*
X049803Y019019D01*
X049880Y019025D01*
X049957Y019034D01*
X050033Y019047D01*
X050109Y019064D01*
X050183Y019085D01*
X050257Y019109D01*
X050329Y019137D01*
X050399Y019168D01*
X050468Y019203D01*
X050536Y019241D01*
X050601Y019282D01*
X050664Y019327D01*
X050725Y019375D01*
X050784Y019425D01*
X050840Y019478D01*
X050893Y019534D01*
X050943Y019593D01*
X050991Y019654D01*
X051036Y019717D01*
X051077Y019782D01*
X051115Y019850D01*
X051150Y019919D01*
X051181Y019989D01*
X051209Y020061D01*
X051233Y020135D01*
X051254Y020209D01*
X051271Y020285D01*
X051284Y020361D01*
X051293Y020438D01*
X051299Y020515D01*
X051301Y020592D01*
D11*
X041353Y021828D03*
X040683Y021828D03*
X040683Y022675D03*
X041353Y022675D03*
X041875Y025835D03*
X041875Y026504D03*
X041058Y026323D03*
X041058Y026992D03*
X031533Y020225D03*
X030864Y020225D03*
X030246Y020250D03*
X029576Y020250D03*
X027970Y024270D03*
X027301Y024270D03*
X027301Y025120D03*
X027970Y025120D03*
D12*
X023683Y031421D03*
X022994Y031421D03*
X036947Y029992D03*
X037636Y029992D03*
G36*
X037677Y031908D02*
X037358Y032227D01*
X037685Y032554D01*
X038004Y032235D01*
X037677Y031908D01*
G37*
G36*
X038137Y032944D02*
X038456Y032625D01*
X038129Y032298D01*
X037810Y032617D01*
X038137Y032944D01*
G37*
G36*
X037709Y032748D02*
X037390Y033067D01*
X037717Y033394D01*
X038036Y033075D01*
X037709Y032748D01*
G37*
G36*
X037190Y032395D02*
X036871Y032714D01*
X037198Y033041D01*
X037517Y032722D01*
X037190Y032395D01*
G37*
G36*
X037222Y033235D02*
X036903Y033554D01*
X037230Y033881D01*
X037549Y033562D01*
X037222Y033235D01*
G37*
G36*
X038625Y032456D02*
X038944Y032137D01*
X038617Y031810D01*
X038298Y032129D01*
X038625Y032456D01*
G37*
G36*
X042533Y032402D02*
X042852Y032721D01*
X043179Y032394D01*
X042860Y032075D01*
X042533Y032402D01*
G37*
G36*
X043682Y031999D02*
X043363Y031680D01*
X043036Y032007D01*
X043355Y032326D01*
X043682Y031999D01*
G37*
G36*
X043479Y032385D02*
X043798Y032704D01*
X044125Y032377D01*
X043806Y032058D01*
X043479Y032385D01*
G37*
G36*
X043021Y032890D02*
X043340Y033209D01*
X043667Y032882D01*
X043348Y032563D01*
X043021Y032890D01*
G37*
G36*
X043966Y032873D02*
X044285Y033192D01*
X044612Y032865D01*
X044293Y032546D01*
X043966Y032873D01*
G37*
G36*
X043195Y031512D02*
X042876Y031193D01*
X042549Y031520D01*
X042868Y031839D01*
X043195Y031512D01*
G37*
X043376Y029971D03*
X042687Y029971D03*
X043233Y028665D03*
X043253Y028145D03*
G36*
X042881Y027242D02*
X042562Y027561D01*
X042889Y027888D01*
X043208Y027569D01*
X042881Y027242D01*
G37*
G36*
X043368Y026755D02*
X043049Y027074D01*
X043376Y027401D01*
X043695Y027082D01*
X043368Y026755D01*
G37*
G36*
X042862Y026233D02*
X042543Y026552D01*
X042870Y026879D01*
X043189Y026560D01*
X042862Y026233D01*
G37*
G36*
X042375Y026721D02*
X042056Y027040D01*
X042383Y027367D01*
X042702Y027048D01*
X042375Y026721D01*
G37*
X043942Y028145D03*
X043922Y028665D03*
D13*
X042080Y029931D02*
X042005Y029856D01*
X042080Y029931D02*
X042265Y029746D01*
X042190Y029671D01*
X042005Y029856D01*
X042179Y029682D02*
X042201Y029682D01*
X042212Y029693D02*
X042168Y029693D01*
X042157Y029704D02*
X042223Y029704D01*
X042234Y029715D02*
X042146Y029715D01*
X042135Y029726D02*
X042245Y029726D01*
X042256Y029737D02*
X042124Y029737D01*
X042113Y029748D02*
X042263Y029748D01*
X042252Y029759D02*
X042102Y029759D01*
X042091Y029770D02*
X042241Y029770D01*
X042230Y029781D02*
X042080Y029781D01*
X042069Y029792D02*
X042219Y029792D01*
X042208Y029803D02*
X042058Y029803D01*
X042047Y029814D02*
X042197Y029814D01*
X042186Y029825D02*
X042036Y029825D01*
X042025Y029836D02*
X042175Y029836D01*
X042164Y029847D02*
X042014Y029847D01*
X042007Y029858D02*
X042153Y029858D01*
X042142Y029869D02*
X042018Y029869D01*
X042029Y029880D02*
X042131Y029880D01*
X042120Y029891D02*
X042040Y029891D01*
X042051Y029902D02*
X042109Y029902D01*
X042098Y029913D02*
X042062Y029913D01*
X042073Y029924D02*
X042087Y029924D01*
X041968Y029819D02*
X041893Y029744D01*
X041968Y029819D02*
X042153Y029634D01*
X042078Y029559D01*
X041893Y029744D01*
X042067Y029570D02*
X042089Y029570D01*
X042100Y029581D02*
X042056Y029581D01*
X042045Y029592D02*
X042111Y029592D01*
X042122Y029603D02*
X042034Y029603D01*
X042023Y029614D02*
X042133Y029614D01*
X042144Y029625D02*
X042012Y029625D01*
X042001Y029636D02*
X042151Y029636D01*
X042140Y029647D02*
X041990Y029647D01*
X041979Y029658D02*
X042129Y029658D01*
X042118Y029669D02*
X041968Y029669D01*
X041957Y029680D02*
X042107Y029680D01*
X042096Y029691D02*
X041946Y029691D01*
X041935Y029702D02*
X042085Y029702D01*
X042074Y029713D02*
X041924Y029713D01*
X041913Y029724D02*
X042063Y029724D01*
X042052Y029735D02*
X041902Y029735D01*
X041895Y029746D02*
X042041Y029746D01*
X042030Y029757D02*
X041906Y029757D01*
X041917Y029768D02*
X042019Y029768D01*
X042008Y029779D02*
X041928Y029779D01*
X041939Y029790D02*
X041997Y029790D01*
X041986Y029801D02*
X041950Y029801D01*
X041961Y029812D02*
X041975Y029812D01*
X041857Y029708D02*
X041782Y029633D01*
X041857Y029708D02*
X042042Y029523D01*
X041967Y029448D01*
X041782Y029633D01*
X041956Y029459D02*
X041978Y029459D01*
X041989Y029470D02*
X041945Y029470D01*
X041934Y029481D02*
X042000Y029481D01*
X042011Y029492D02*
X041923Y029492D01*
X041912Y029503D02*
X042022Y029503D01*
X042033Y029514D02*
X041901Y029514D01*
X041890Y029525D02*
X042040Y029525D01*
X042029Y029536D02*
X041879Y029536D01*
X041868Y029547D02*
X042018Y029547D01*
X042007Y029558D02*
X041857Y029558D01*
X041846Y029569D02*
X041996Y029569D01*
X041985Y029580D02*
X041835Y029580D01*
X041824Y029591D02*
X041974Y029591D01*
X041963Y029602D02*
X041813Y029602D01*
X041802Y029613D02*
X041952Y029613D01*
X041941Y029624D02*
X041791Y029624D01*
X041784Y029635D02*
X041930Y029635D01*
X041919Y029646D02*
X041795Y029646D01*
X041806Y029657D02*
X041908Y029657D01*
X041897Y029668D02*
X041817Y029668D01*
X041828Y029679D02*
X041886Y029679D01*
X041875Y029690D02*
X041839Y029690D01*
X041850Y029701D02*
X041864Y029701D01*
X041746Y029596D02*
X041671Y029521D01*
X041746Y029596D02*
X041931Y029411D01*
X041856Y029336D01*
X041671Y029521D01*
X041845Y029347D02*
X041867Y029347D01*
X041878Y029358D02*
X041834Y029358D01*
X041823Y029369D02*
X041889Y029369D01*
X041900Y029380D02*
X041812Y029380D01*
X041801Y029391D02*
X041911Y029391D01*
X041922Y029402D02*
X041790Y029402D01*
X041779Y029413D02*
X041929Y029413D01*
X041918Y029424D02*
X041768Y029424D01*
X041757Y029435D02*
X041907Y029435D01*
X041896Y029446D02*
X041746Y029446D01*
X041735Y029457D02*
X041885Y029457D01*
X041874Y029468D02*
X041724Y029468D01*
X041713Y029479D02*
X041863Y029479D01*
X041852Y029490D02*
X041702Y029490D01*
X041691Y029501D02*
X041841Y029501D01*
X041830Y029512D02*
X041680Y029512D01*
X041673Y029523D02*
X041819Y029523D01*
X041808Y029534D02*
X041684Y029534D01*
X041695Y029545D02*
X041797Y029545D01*
X041786Y029556D02*
X041706Y029556D01*
X041717Y029567D02*
X041775Y029567D01*
X041764Y029578D02*
X041728Y029578D01*
X041739Y029589D02*
X041753Y029589D01*
X041634Y029485D02*
X041559Y029410D01*
X041634Y029485D02*
X041819Y029300D01*
X041744Y029225D01*
X041559Y029410D01*
X041733Y029236D02*
X041755Y029236D01*
X041766Y029247D02*
X041722Y029247D01*
X041711Y029258D02*
X041777Y029258D01*
X041788Y029269D02*
X041700Y029269D01*
X041689Y029280D02*
X041799Y029280D01*
X041810Y029291D02*
X041678Y029291D01*
X041667Y029302D02*
X041817Y029302D01*
X041806Y029313D02*
X041656Y029313D01*
X041645Y029324D02*
X041795Y029324D01*
X041784Y029335D02*
X041634Y029335D01*
X041623Y029346D02*
X041773Y029346D01*
X041762Y029357D02*
X041612Y029357D01*
X041601Y029368D02*
X041751Y029368D01*
X041740Y029379D02*
X041590Y029379D01*
X041579Y029390D02*
X041729Y029390D01*
X041718Y029401D02*
X041568Y029401D01*
X041561Y029412D02*
X041707Y029412D01*
X041696Y029423D02*
X041572Y029423D01*
X041583Y029434D02*
X041685Y029434D01*
X041674Y029445D02*
X041594Y029445D01*
X041605Y029456D02*
X041663Y029456D01*
X041652Y029467D02*
X041616Y029467D01*
X041627Y029478D02*
X041641Y029478D01*
X041523Y029374D02*
X041448Y029299D01*
X041523Y029374D02*
X041708Y029189D01*
X041633Y029114D01*
X041448Y029299D01*
X041622Y029125D02*
X041644Y029125D01*
X041655Y029136D02*
X041611Y029136D01*
X041600Y029147D02*
X041666Y029147D01*
X041677Y029158D02*
X041589Y029158D01*
X041578Y029169D02*
X041688Y029169D01*
X041699Y029180D02*
X041567Y029180D01*
X041556Y029191D02*
X041706Y029191D01*
X041695Y029202D02*
X041545Y029202D01*
X041534Y029213D02*
X041684Y029213D01*
X041673Y029224D02*
X041523Y029224D01*
X041512Y029235D02*
X041662Y029235D01*
X041651Y029246D02*
X041501Y029246D01*
X041490Y029257D02*
X041640Y029257D01*
X041629Y029268D02*
X041479Y029268D01*
X041468Y029279D02*
X041618Y029279D01*
X041607Y029290D02*
X041457Y029290D01*
X041450Y029301D02*
X041596Y029301D01*
X041585Y029312D02*
X041461Y029312D01*
X041472Y029323D02*
X041574Y029323D01*
X041563Y029334D02*
X041483Y029334D01*
X041494Y029345D02*
X041552Y029345D01*
X041541Y029356D02*
X041505Y029356D01*
X041516Y029367D02*
X041530Y029367D01*
X041412Y029262D02*
X041337Y029187D01*
X041412Y029262D02*
X041597Y029077D01*
X041522Y029002D01*
X041337Y029187D01*
X041511Y029013D02*
X041533Y029013D01*
X041544Y029024D02*
X041500Y029024D01*
X041489Y029035D02*
X041555Y029035D01*
X041566Y029046D02*
X041478Y029046D01*
X041467Y029057D02*
X041577Y029057D01*
X041588Y029068D02*
X041456Y029068D01*
X041445Y029079D02*
X041595Y029079D01*
X041584Y029090D02*
X041434Y029090D01*
X041423Y029101D02*
X041573Y029101D01*
X041562Y029112D02*
X041412Y029112D01*
X041401Y029123D02*
X041551Y029123D01*
X041540Y029134D02*
X041390Y029134D01*
X041379Y029145D02*
X041529Y029145D01*
X041518Y029156D02*
X041368Y029156D01*
X041357Y029167D02*
X041507Y029167D01*
X041496Y029178D02*
X041346Y029178D01*
X041339Y029189D02*
X041485Y029189D01*
X041474Y029200D02*
X041350Y029200D01*
X041361Y029211D02*
X041463Y029211D01*
X041452Y029222D02*
X041372Y029222D01*
X041383Y029233D02*
X041441Y029233D01*
X041430Y029244D02*
X041394Y029244D01*
X041405Y029255D02*
X041419Y029255D01*
X041300Y029151D02*
X041225Y029076D01*
X041300Y029151D02*
X041485Y028966D01*
X041410Y028891D01*
X041225Y029076D01*
X041399Y028902D02*
X041421Y028902D01*
X041432Y028913D02*
X041388Y028913D01*
X041377Y028924D02*
X041443Y028924D01*
X041454Y028935D02*
X041366Y028935D01*
X041355Y028946D02*
X041465Y028946D01*
X041476Y028957D02*
X041344Y028957D01*
X041333Y028968D02*
X041483Y028968D01*
X041472Y028979D02*
X041322Y028979D01*
X041311Y028990D02*
X041461Y028990D01*
X041450Y029001D02*
X041300Y029001D01*
X041289Y029012D02*
X041439Y029012D01*
X041428Y029023D02*
X041278Y029023D01*
X041267Y029034D02*
X041417Y029034D01*
X041406Y029045D02*
X041256Y029045D01*
X041245Y029056D02*
X041395Y029056D01*
X041384Y029067D02*
X041234Y029067D01*
X041227Y029078D02*
X041373Y029078D01*
X041362Y029089D02*
X041238Y029089D01*
X041249Y029100D02*
X041351Y029100D01*
X041340Y029111D02*
X041260Y029111D01*
X041271Y029122D02*
X041329Y029122D01*
X041318Y029133D02*
X041282Y029133D01*
X041293Y029144D02*
X041307Y029144D01*
X041189Y029040D02*
X041114Y028965D01*
X041189Y029040D02*
X041374Y028855D01*
X041299Y028780D01*
X041114Y028965D01*
X041288Y028791D02*
X041310Y028791D01*
X041321Y028802D02*
X041277Y028802D01*
X041266Y028813D02*
X041332Y028813D01*
X041343Y028824D02*
X041255Y028824D01*
X041244Y028835D02*
X041354Y028835D01*
X041365Y028846D02*
X041233Y028846D01*
X041222Y028857D02*
X041372Y028857D01*
X041361Y028868D02*
X041211Y028868D01*
X041200Y028879D02*
X041350Y028879D01*
X041339Y028890D02*
X041189Y028890D01*
X041178Y028901D02*
X041328Y028901D01*
X041317Y028912D02*
X041167Y028912D01*
X041156Y028923D02*
X041306Y028923D01*
X041295Y028934D02*
X041145Y028934D01*
X041134Y028945D02*
X041284Y028945D01*
X041273Y028956D02*
X041123Y028956D01*
X041116Y028967D02*
X041262Y028967D01*
X041251Y028978D02*
X041127Y028978D01*
X041138Y028989D02*
X041240Y028989D01*
X041229Y029000D02*
X041149Y029000D01*
X041160Y029011D02*
X041218Y029011D01*
X041207Y029022D02*
X041171Y029022D01*
X041182Y029033D02*
X041196Y029033D01*
X041077Y028928D02*
X041002Y028853D01*
X041077Y028928D02*
X041262Y028743D01*
X041187Y028668D01*
X041002Y028853D01*
X041176Y028679D02*
X041198Y028679D01*
X041209Y028690D02*
X041165Y028690D01*
X041154Y028701D02*
X041220Y028701D01*
X041231Y028712D02*
X041143Y028712D01*
X041132Y028723D02*
X041242Y028723D01*
X041253Y028734D02*
X041121Y028734D01*
X041110Y028745D02*
X041260Y028745D01*
X041249Y028756D02*
X041099Y028756D01*
X041088Y028767D02*
X041238Y028767D01*
X041227Y028778D02*
X041077Y028778D01*
X041066Y028789D02*
X041216Y028789D01*
X041205Y028800D02*
X041055Y028800D01*
X041044Y028811D02*
X041194Y028811D01*
X041183Y028822D02*
X041033Y028822D01*
X041022Y028833D02*
X041172Y028833D01*
X041161Y028844D02*
X041011Y028844D01*
X041004Y028855D02*
X041150Y028855D01*
X041139Y028866D02*
X041015Y028866D01*
X041026Y028877D02*
X041128Y028877D01*
X041117Y028888D02*
X041037Y028888D01*
X041048Y028899D02*
X041106Y028899D01*
X041095Y028910D02*
X041059Y028910D01*
X041070Y028921D02*
X041084Y028921D01*
X040966Y028817D02*
X040891Y028742D01*
X040966Y028817D02*
X041151Y028632D01*
X041076Y028557D01*
X040891Y028742D01*
X041065Y028568D02*
X041087Y028568D01*
X041098Y028579D02*
X041054Y028579D01*
X041043Y028590D02*
X041109Y028590D01*
X041120Y028601D02*
X041032Y028601D01*
X041021Y028612D02*
X041131Y028612D01*
X041142Y028623D02*
X041010Y028623D01*
X040999Y028634D02*
X041149Y028634D01*
X041138Y028645D02*
X040988Y028645D01*
X040977Y028656D02*
X041127Y028656D01*
X041116Y028667D02*
X040966Y028667D01*
X040955Y028678D02*
X041105Y028678D01*
X041094Y028689D02*
X040944Y028689D01*
X040933Y028700D02*
X041083Y028700D01*
X041072Y028711D02*
X040922Y028711D01*
X040911Y028722D02*
X041061Y028722D01*
X041050Y028733D02*
X040900Y028733D01*
X040893Y028744D02*
X041039Y028744D01*
X041028Y028755D02*
X040904Y028755D01*
X040915Y028766D02*
X041017Y028766D01*
X041006Y028777D02*
X040926Y028777D01*
X040937Y028788D02*
X040995Y028788D01*
X040984Y028799D02*
X040948Y028799D01*
X040959Y028810D02*
X040973Y028810D01*
X040855Y028706D02*
X040780Y028631D01*
X040855Y028706D02*
X041040Y028521D01*
X040965Y028446D01*
X040780Y028631D01*
X040954Y028457D02*
X040976Y028457D01*
X040987Y028468D02*
X040943Y028468D01*
X040932Y028479D02*
X040998Y028479D01*
X041009Y028490D02*
X040921Y028490D01*
X040910Y028501D02*
X041020Y028501D01*
X041031Y028512D02*
X040899Y028512D01*
X040888Y028523D02*
X041038Y028523D01*
X041027Y028534D02*
X040877Y028534D01*
X040866Y028545D02*
X041016Y028545D01*
X041005Y028556D02*
X040855Y028556D01*
X040844Y028567D02*
X040994Y028567D01*
X040983Y028578D02*
X040833Y028578D01*
X040822Y028589D02*
X040972Y028589D01*
X040961Y028600D02*
X040811Y028600D01*
X040800Y028611D02*
X040950Y028611D01*
X040939Y028622D02*
X040789Y028622D01*
X040782Y028633D02*
X040928Y028633D01*
X040917Y028644D02*
X040793Y028644D01*
X040804Y028655D02*
X040906Y028655D01*
X040895Y028666D02*
X040815Y028666D01*
X040826Y028677D02*
X040884Y028677D01*
X040873Y028688D02*
X040837Y028688D01*
X040848Y028699D02*
X040862Y028699D01*
X040743Y028594D02*
X040668Y028519D01*
X040743Y028594D02*
X040928Y028409D01*
X040853Y028334D01*
X040668Y028519D01*
X040842Y028345D02*
X040864Y028345D01*
X040875Y028356D02*
X040831Y028356D01*
X040820Y028367D02*
X040886Y028367D01*
X040897Y028378D02*
X040809Y028378D01*
X040798Y028389D02*
X040908Y028389D01*
X040919Y028400D02*
X040787Y028400D01*
X040776Y028411D02*
X040926Y028411D01*
X040915Y028422D02*
X040765Y028422D01*
X040754Y028433D02*
X040904Y028433D01*
X040893Y028444D02*
X040743Y028444D01*
X040732Y028455D02*
X040882Y028455D01*
X040871Y028466D02*
X040721Y028466D01*
X040710Y028477D02*
X040860Y028477D01*
X040849Y028488D02*
X040699Y028488D01*
X040688Y028499D02*
X040838Y028499D01*
X040827Y028510D02*
X040677Y028510D01*
X040670Y028521D02*
X040816Y028521D01*
X040805Y028532D02*
X040681Y028532D01*
X040692Y028543D02*
X040794Y028543D01*
X040783Y028554D02*
X040703Y028554D01*
X040714Y028565D02*
X040772Y028565D01*
X040761Y028576D02*
X040725Y028576D01*
X040736Y028587D02*
X040750Y028587D01*
X040632Y028483D02*
X040557Y028408D01*
X040632Y028483D02*
X040817Y028298D01*
X040742Y028223D01*
X040557Y028408D01*
X040731Y028234D02*
X040753Y028234D01*
X040764Y028245D02*
X040720Y028245D01*
X040709Y028256D02*
X040775Y028256D01*
X040786Y028267D02*
X040698Y028267D01*
X040687Y028278D02*
X040797Y028278D01*
X040808Y028289D02*
X040676Y028289D01*
X040665Y028300D02*
X040815Y028300D01*
X040804Y028311D02*
X040654Y028311D01*
X040643Y028322D02*
X040793Y028322D01*
X040782Y028333D02*
X040632Y028333D01*
X040621Y028344D02*
X040771Y028344D01*
X040760Y028355D02*
X040610Y028355D01*
X040599Y028366D02*
X040749Y028366D01*
X040738Y028377D02*
X040588Y028377D01*
X040577Y028388D02*
X040727Y028388D01*
X040716Y028399D02*
X040566Y028399D01*
X040559Y028410D02*
X040705Y028410D01*
X040694Y028421D02*
X040570Y028421D01*
X040581Y028432D02*
X040683Y028432D01*
X040672Y028443D02*
X040592Y028443D01*
X040603Y028454D02*
X040661Y028454D01*
X040650Y028465D02*
X040614Y028465D01*
X040625Y028476D02*
X040639Y028476D01*
X040521Y028372D02*
X040446Y028297D01*
X040521Y028372D02*
X040706Y028187D01*
X040631Y028112D01*
X040446Y028297D01*
X040620Y028123D02*
X040642Y028123D01*
X040653Y028134D02*
X040609Y028134D01*
X040598Y028145D02*
X040664Y028145D01*
X040675Y028156D02*
X040587Y028156D01*
X040576Y028167D02*
X040686Y028167D01*
X040697Y028178D02*
X040565Y028178D01*
X040554Y028189D02*
X040704Y028189D01*
X040693Y028200D02*
X040543Y028200D01*
X040532Y028211D02*
X040682Y028211D01*
X040671Y028222D02*
X040521Y028222D01*
X040510Y028233D02*
X040660Y028233D01*
X040649Y028244D02*
X040499Y028244D01*
X040488Y028255D02*
X040638Y028255D01*
X040627Y028266D02*
X040477Y028266D01*
X040466Y028277D02*
X040616Y028277D01*
X040605Y028288D02*
X040455Y028288D01*
X040448Y028299D02*
X040594Y028299D01*
X040583Y028310D02*
X040459Y028310D01*
X040470Y028321D02*
X040572Y028321D01*
X040561Y028332D02*
X040481Y028332D01*
X040492Y028343D02*
X040550Y028343D01*
X040539Y028354D02*
X040503Y028354D01*
X040514Y028365D02*
X040528Y028365D01*
X040409Y028260D02*
X040334Y028185D01*
X040409Y028260D02*
X040594Y028075D01*
X040519Y028000D01*
X040334Y028185D01*
X040508Y028011D02*
X040530Y028011D01*
X040541Y028022D02*
X040497Y028022D01*
X040486Y028033D02*
X040552Y028033D01*
X040563Y028044D02*
X040475Y028044D01*
X040464Y028055D02*
X040574Y028055D01*
X040585Y028066D02*
X040453Y028066D01*
X040442Y028077D02*
X040592Y028077D01*
X040581Y028088D02*
X040431Y028088D01*
X040420Y028099D02*
X040570Y028099D01*
X040559Y028110D02*
X040409Y028110D01*
X040398Y028121D02*
X040548Y028121D01*
X040537Y028132D02*
X040387Y028132D01*
X040376Y028143D02*
X040526Y028143D01*
X040515Y028154D02*
X040365Y028154D01*
X040354Y028165D02*
X040504Y028165D01*
X040493Y028176D02*
X040343Y028176D01*
X040336Y028187D02*
X040482Y028187D01*
X040471Y028198D02*
X040347Y028198D01*
X040358Y028209D02*
X040460Y028209D01*
X040449Y028220D02*
X040369Y028220D01*
X040380Y028231D02*
X040438Y028231D01*
X040427Y028242D02*
X040391Y028242D01*
X040402Y028253D02*
X040416Y028253D01*
X040298Y028149D02*
X040223Y028074D01*
X040298Y028149D02*
X040483Y027964D01*
X040408Y027889D01*
X040223Y028074D01*
X040397Y027900D02*
X040419Y027900D01*
X040430Y027911D02*
X040386Y027911D01*
X040375Y027922D02*
X040441Y027922D01*
X040452Y027933D02*
X040364Y027933D01*
X040353Y027944D02*
X040463Y027944D01*
X040474Y027955D02*
X040342Y027955D01*
X040331Y027966D02*
X040481Y027966D01*
X040470Y027977D02*
X040320Y027977D01*
X040309Y027988D02*
X040459Y027988D01*
X040448Y027999D02*
X040298Y027999D01*
X040287Y028010D02*
X040437Y028010D01*
X040426Y028021D02*
X040276Y028021D01*
X040265Y028032D02*
X040415Y028032D01*
X040404Y028043D02*
X040254Y028043D01*
X040243Y028054D02*
X040393Y028054D01*
X040382Y028065D02*
X040232Y028065D01*
X040225Y028076D02*
X040371Y028076D01*
X040360Y028087D02*
X040236Y028087D01*
X040247Y028098D02*
X040349Y028098D01*
X040338Y028109D02*
X040258Y028109D01*
X040269Y028120D02*
X040327Y028120D01*
X040316Y028131D02*
X040280Y028131D01*
X040291Y028142D02*
X040305Y028142D01*
X040093Y028074D02*
X040018Y028149D01*
X040093Y028074D02*
X039908Y027889D01*
X039833Y027964D01*
X040018Y028149D01*
X039919Y027900D02*
X039897Y027900D01*
X039886Y027911D02*
X039930Y027911D01*
X039941Y027922D02*
X039875Y027922D01*
X039864Y027933D02*
X039952Y027933D01*
X039963Y027944D02*
X039853Y027944D01*
X039842Y027955D02*
X039974Y027955D01*
X039985Y027966D02*
X039835Y027966D01*
X039846Y027977D02*
X039996Y027977D01*
X040007Y027988D02*
X039857Y027988D01*
X039868Y027999D02*
X040018Y027999D01*
X040029Y028010D02*
X039879Y028010D01*
X039890Y028021D02*
X040040Y028021D01*
X040051Y028032D02*
X039901Y028032D01*
X039912Y028043D02*
X040062Y028043D01*
X040073Y028054D02*
X039923Y028054D01*
X039934Y028065D02*
X040084Y028065D01*
X040091Y028076D02*
X039945Y028076D01*
X039956Y028087D02*
X040080Y028087D01*
X040069Y028098D02*
X039967Y028098D01*
X039978Y028109D02*
X040058Y028109D01*
X040047Y028120D02*
X039989Y028120D01*
X040000Y028131D02*
X040036Y028131D01*
X040025Y028142D02*
X040011Y028142D01*
X039982Y028185D02*
X039907Y028260D01*
X039982Y028185D02*
X039797Y028000D01*
X039722Y028075D01*
X039907Y028260D01*
X039808Y028011D02*
X039786Y028011D01*
X039775Y028022D02*
X039819Y028022D01*
X039830Y028033D02*
X039764Y028033D01*
X039753Y028044D02*
X039841Y028044D01*
X039852Y028055D02*
X039742Y028055D01*
X039731Y028066D02*
X039863Y028066D01*
X039874Y028077D02*
X039724Y028077D01*
X039735Y028088D02*
X039885Y028088D01*
X039896Y028099D02*
X039746Y028099D01*
X039757Y028110D02*
X039907Y028110D01*
X039918Y028121D02*
X039768Y028121D01*
X039779Y028132D02*
X039929Y028132D01*
X039940Y028143D02*
X039790Y028143D01*
X039801Y028154D02*
X039951Y028154D01*
X039962Y028165D02*
X039812Y028165D01*
X039823Y028176D02*
X039973Y028176D01*
X039980Y028187D02*
X039834Y028187D01*
X039845Y028198D02*
X039969Y028198D01*
X039958Y028209D02*
X039856Y028209D01*
X039867Y028220D02*
X039947Y028220D01*
X039936Y028231D02*
X039878Y028231D01*
X039889Y028242D02*
X039925Y028242D01*
X039914Y028253D02*
X039900Y028253D01*
X039871Y028297D02*
X039796Y028372D01*
X039871Y028297D02*
X039686Y028112D01*
X039611Y028187D01*
X039796Y028372D01*
X039697Y028123D02*
X039675Y028123D01*
X039664Y028134D02*
X039708Y028134D01*
X039719Y028145D02*
X039653Y028145D01*
X039642Y028156D02*
X039730Y028156D01*
X039741Y028167D02*
X039631Y028167D01*
X039620Y028178D02*
X039752Y028178D01*
X039763Y028189D02*
X039613Y028189D01*
X039624Y028200D02*
X039774Y028200D01*
X039785Y028211D02*
X039635Y028211D01*
X039646Y028222D02*
X039796Y028222D01*
X039807Y028233D02*
X039657Y028233D01*
X039668Y028244D02*
X039818Y028244D01*
X039829Y028255D02*
X039679Y028255D01*
X039690Y028266D02*
X039840Y028266D01*
X039851Y028277D02*
X039701Y028277D01*
X039712Y028288D02*
X039862Y028288D01*
X039869Y028299D02*
X039723Y028299D01*
X039734Y028310D02*
X039858Y028310D01*
X039847Y028321D02*
X039745Y028321D01*
X039756Y028332D02*
X039836Y028332D01*
X039825Y028343D02*
X039767Y028343D01*
X039778Y028354D02*
X039814Y028354D01*
X039803Y028365D02*
X039789Y028365D01*
X039759Y028408D02*
X039684Y028483D01*
X039759Y028408D02*
X039574Y028223D01*
X039499Y028298D01*
X039684Y028483D01*
X039585Y028234D02*
X039563Y028234D01*
X039552Y028245D02*
X039596Y028245D01*
X039607Y028256D02*
X039541Y028256D01*
X039530Y028267D02*
X039618Y028267D01*
X039629Y028278D02*
X039519Y028278D01*
X039508Y028289D02*
X039640Y028289D01*
X039651Y028300D02*
X039501Y028300D01*
X039512Y028311D02*
X039662Y028311D01*
X039673Y028322D02*
X039523Y028322D01*
X039534Y028333D02*
X039684Y028333D01*
X039695Y028344D02*
X039545Y028344D01*
X039556Y028355D02*
X039706Y028355D01*
X039717Y028366D02*
X039567Y028366D01*
X039578Y028377D02*
X039728Y028377D01*
X039739Y028388D02*
X039589Y028388D01*
X039600Y028399D02*
X039750Y028399D01*
X039757Y028410D02*
X039611Y028410D01*
X039622Y028421D02*
X039746Y028421D01*
X039735Y028432D02*
X039633Y028432D01*
X039644Y028443D02*
X039724Y028443D01*
X039713Y028454D02*
X039655Y028454D01*
X039666Y028465D02*
X039702Y028465D01*
X039691Y028476D02*
X039677Y028476D01*
X039648Y028519D02*
X039573Y028594D01*
X039648Y028519D02*
X039463Y028334D01*
X039388Y028409D01*
X039573Y028594D01*
X039474Y028345D02*
X039452Y028345D01*
X039441Y028356D02*
X039485Y028356D01*
X039496Y028367D02*
X039430Y028367D01*
X039419Y028378D02*
X039507Y028378D01*
X039518Y028389D02*
X039408Y028389D01*
X039397Y028400D02*
X039529Y028400D01*
X039540Y028411D02*
X039390Y028411D01*
X039401Y028422D02*
X039551Y028422D01*
X039562Y028433D02*
X039412Y028433D01*
X039423Y028444D02*
X039573Y028444D01*
X039584Y028455D02*
X039434Y028455D01*
X039445Y028466D02*
X039595Y028466D01*
X039606Y028477D02*
X039456Y028477D01*
X039467Y028488D02*
X039617Y028488D01*
X039628Y028499D02*
X039478Y028499D01*
X039489Y028510D02*
X039639Y028510D01*
X039646Y028521D02*
X039500Y028521D01*
X039511Y028532D02*
X039635Y028532D01*
X039624Y028543D02*
X039522Y028543D01*
X039533Y028554D02*
X039613Y028554D01*
X039602Y028565D02*
X039544Y028565D01*
X039555Y028576D02*
X039591Y028576D01*
X039580Y028587D02*
X039566Y028587D01*
X039536Y028631D02*
X039461Y028706D01*
X039536Y028631D02*
X039351Y028446D01*
X039276Y028521D01*
X039461Y028706D01*
X039362Y028457D02*
X039340Y028457D01*
X039329Y028468D02*
X039373Y028468D01*
X039384Y028479D02*
X039318Y028479D01*
X039307Y028490D02*
X039395Y028490D01*
X039406Y028501D02*
X039296Y028501D01*
X039285Y028512D02*
X039417Y028512D01*
X039428Y028523D02*
X039278Y028523D01*
X039289Y028534D02*
X039439Y028534D01*
X039450Y028545D02*
X039300Y028545D01*
X039311Y028556D02*
X039461Y028556D01*
X039472Y028567D02*
X039322Y028567D01*
X039333Y028578D02*
X039483Y028578D01*
X039494Y028589D02*
X039344Y028589D01*
X039355Y028600D02*
X039505Y028600D01*
X039516Y028611D02*
X039366Y028611D01*
X039377Y028622D02*
X039527Y028622D01*
X039534Y028633D02*
X039388Y028633D01*
X039399Y028644D02*
X039523Y028644D01*
X039512Y028655D02*
X039410Y028655D01*
X039421Y028666D02*
X039501Y028666D01*
X039490Y028677D02*
X039432Y028677D01*
X039443Y028688D02*
X039479Y028688D01*
X039468Y028699D02*
X039454Y028699D01*
X039425Y028742D02*
X039350Y028817D01*
X039425Y028742D02*
X039240Y028557D01*
X039165Y028632D01*
X039350Y028817D01*
X039251Y028568D02*
X039229Y028568D01*
X039218Y028579D02*
X039262Y028579D01*
X039273Y028590D02*
X039207Y028590D01*
X039196Y028601D02*
X039284Y028601D01*
X039295Y028612D02*
X039185Y028612D01*
X039174Y028623D02*
X039306Y028623D01*
X039317Y028634D02*
X039167Y028634D01*
X039178Y028645D02*
X039328Y028645D01*
X039339Y028656D02*
X039189Y028656D01*
X039200Y028667D02*
X039350Y028667D01*
X039361Y028678D02*
X039211Y028678D01*
X039222Y028689D02*
X039372Y028689D01*
X039383Y028700D02*
X039233Y028700D01*
X039244Y028711D02*
X039394Y028711D01*
X039405Y028722D02*
X039255Y028722D01*
X039266Y028733D02*
X039416Y028733D01*
X039423Y028744D02*
X039277Y028744D01*
X039288Y028755D02*
X039412Y028755D01*
X039401Y028766D02*
X039299Y028766D01*
X039310Y028777D02*
X039390Y028777D01*
X039379Y028788D02*
X039321Y028788D01*
X039332Y028799D02*
X039368Y028799D01*
X039357Y028810D02*
X039343Y028810D01*
X039314Y028853D02*
X039239Y028928D01*
X039314Y028853D02*
X039129Y028668D01*
X039054Y028743D01*
X039239Y028928D01*
X039140Y028679D02*
X039118Y028679D01*
X039107Y028690D02*
X039151Y028690D01*
X039162Y028701D02*
X039096Y028701D01*
X039085Y028712D02*
X039173Y028712D01*
X039184Y028723D02*
X039074Y028723D01*
X039063Y028734D02*
X039195Y028734D01*
X039206Y028745D02*
X039056Y028745D01*
X039067Y028756D02*
X039217Y028756D01*
X039228Y028767D02*
X039078Y028767D01*
X039089Y028778D02*
X039239Y028778D01*
X039250Y028789D02*
X039100Y028789D01*
X039111Y028800D02*
X039261Y028800D01*
X039272Y028811D02*
X039122Y028811D01*
X039133Y028822D02*
X039283Y028822D01*
X039294Y028833D02*
X039144Y028833D01*
X039155Y028844D02*
X039305Y028844D01*
X039312Y028855D02*
X039166Y028855D01*
X039177Y028866D02*
X039301Y028866D01*
X039290Y028877D02*
X039188Y028877D01*
X039199Y028888D02*
X039279Y028888D01*
X039268Y028899D02*
X039210Y028899D01*
X039221Y028910D02*
X039257Y028910D01*
X039246Y028921D02*
X039232Y028921D01*
X039202Y028965D02*
X039127Y029040D01*
X039202Y028965D02*
X039017Y028780D01*
X038942Y028855D01*
X039127Y029040D01*
X039028Y028791D02*
X039006Y028791D01*
X038995Y028802D02*
X039039Y028802D01*
X039050Y028813D02*
X038984Y028813D01*
X038973Y028824D02*
X039061Y028824D01*
X039072Y028835D02*
X038962Y028835D01*
X038951Y028846D02*
X039083Y028846D01*
X039094Y028857D02*
X038944Y028857D01*
X038955Y028868D02*
X039105Y028868D01*
X039116Y028879D02*
X038966Y028879D01*
X038977Y028890D02*
X039127Y028890D01*
X039138Y028901D02*
X038988Y028901D01*
X038999Y028912D02*
X039149Y028912D01*
X039160Y028923D02*
X039010Y028923D01*
X039021Y028934D02*
X039171Y028934D01*
X039182Y028945D02*
X039032Y028945D01*
X039043Y028956D02*
X039193Y028956D01*
X039200Y028967D02*
X039054Y028967D01*
X039065Y028978D02*
X039189Y028978D01*
X039178Y028989D02*
X039076Y028989D01*
X039087Y029000D02*
X039167Y029000D01*
X039156Y029011D02*
X039098Y029011D01*
X039109Y029022D02*
X039145Y029022D01*
X039134Y029033D02*
X039120Y029033D01*
X039091Y029076D02*
X039016Y029151D01*
X039091Y029076D02*
X038906Y028891D01*
X038831Y028966D01*
X039016Y029151D01*
X038917Y028902D02*
X038895Y028902D01*
X038884Y028913D02*
X038928Y028913D01*
X038939Y028924D02*
X038873Y028924D01*
X038862Y028935D02*
X038950Y028935D01*
X038961Y028946D02*
X038851Y028946D01*
X038840Y028957D02*
X038972Y028957D01*
X038983Y028968D02*
X038833Y028968D01*
X038844Y028979D02*
X038994Y028979D01*
X039005Y028990D02*
X038855Y028990D01*
X038866Y029001D02*
X039016Y029001D01*
X039027Y029012D02*
X038877Y029012D01*
X038888Y029023D02*
X039038Y029023D01*
X039049Y029034D02*
X038899Y029034D01*
X038910Y029045D02*
X039060Y029045D01*
X039071Y029056D02*
X038921Y029056D01*
X038932Y029067D02*
X039082Y029067D01*
X039089Y029078D02*
X038943Y029078D01*
X038954Y029089D02*
X039078Y029089D01*
X039067Y029100D02*
X038965Y029100D01*
X038976Y029111D02*
X039056Y029111D01*
X039045Y029122D02*
X038987Y029122D01*
X038998Y029133D02*
X039034Y029133D01*
X039023Y029144D02*
X039009Y029144D01*
X038980Y029187D02*
X038905Y029262D01*
X038980Y029187D02*
X038795Y029002D01*
X038720Y029077D01*
X038905Y029262D01*
X038806Y029013D02*
X038784Y029013D01*
X038773Y029024D02*
X038817Y029024D01*
X038828Y029035D02*
X038762Y029035D01*
X038751Y029046D02*
X038839Y029046D01*
X038850Y029057D02*
X038740Y029057D01*
X038729Y029068D02*
X038861Y029068D01*
X038872Y029079D02*
X038722Y029079D01*
X038733Y029090D02*
X038883Y029090D01*
X038894Y029101D02*
X038744Y029101D01*
X038755Y029112D02*
X038905Y029112D01*
X038916Y029123D02*
X038766Y029123D01*
X038777Y029134D02*
X038927Y029134D01*
X038938Y029145D02*
X038788Y029145D01*
X038799Y029156D02*
X038949Y029156D01*
X038960Y029167D02*
X038810Y029167D01*
X038821Y029178D02*
X038971Y029178D01*
X038978Y029189D02*
X038832Y029189D01*
X038843Y029200D02*
X038967Y029200D01*
X038956Y029211D02*
X038854Y029211D01*
X038865Y029222D02*
X038945Y029222D01*
X038934Y029233D02*
X038876Y029233D01*
X038887Y029244D02*
X038923Y029244D01*
X038912Y029255D02*
X038898Y029255D01*
X038868Y029299D02*
X038793Y029374D01*
X038868Y029299D02*
X038683Y029114D01*
X038608Y029189D01*
X038793Y029374D01*
X038694Y029125D02*
X038672Y029125D01*
X038661Y029136D02*
X038705Y029136D01*
X038716Y029147D02*
X038650Y029147D01*
X038639Y029158D02*
X038727Y029158D01*
X038738Y029169D02*
X038628Y029169D01*
X038617Y029180D02*
X038749Y029180D01*
X038760Y029191D02*
X038610Y029191D01*
X038621Y029202D02*
X038771Y029202D01*
X038782Y029213D02*
X038632Y029213D01*
X038643Y029224D02*
X038793Y029224D01*
X038804Y029235D02*
X038654Y029235D01*
X038665Y029246D02*
X038815Y029246D01*
X038826Y029257D02*
X038676Y029257D01*
X038687Y029268D02*
X038837Y029268D01*
X038848Y029279D02*
X038698Y029279D01*
X038709Y029290D02*
X038859Y029290D01*
X038866Y029301D02*
X038720Y029301D01*
X038731Y029312D02*
X038855Y029312D01*
X038844Y029323D02*
X038742Y029323D01*
X038753Y029334D02*
X038833Y029334D01*
X038822Y029345D02*
X038764Y029345D01*
X038775Y029356D02*
X038811Y029356D01*
X038800Y029367D02*
X038786Y029367D01*
X038757Y029410D02*
X038682Y029485D01*
X038757Y029410D02*
X038572Y029225D01*
X038497Y029300D01*
X038682Y029485D01*
X038583Y029236D02*
X038561Y029236D01*
X038550Y029247D02*
X038594Y029247D01*
X038605Y029258D02*
X038539Y029258D01*
X038528Y029269D02*
X038616Y029269D01*
X038627Y029280D02*
X038517Y029280D01*
X038506Y029291D02*
X038638Y029291D01*
X038649Y029302D02*
X038499Y029302D01*
X038510Y029313D02*
X038660Y029313D01*
X038671Y029324D02*
X038521Y029324D01*
X038532Y029335D02*
X038682Y029335D01*
X038693Y029346D02*
X038543Y029346D01*
X038554Y029357D02*
X038704Y029357D01*
X038715Y029368D02*
X038565Y029368D01*
X038576Y029379D02*
X038726Y029379D01*
X038737Y029390D02*
X038587Y029390D01*
X038598Y029401D02*
X038748Y029401D01*
X038755Y029412D02*
X038609Y029412D01*
X038620Y029423D02*
X038744Y029423D01*
X038733Y029434D02*
X038631Y029434D01*
X038642Y029445D02*
X038722Y029445D01*
X038711Y029456D02*
X038653Y029456D01*
X038664Y029467D02*
X038700Y029467D01*
X038689Y029478D02*
X038675Y029478D01*
X038646Y029521D02*
X038571Y029596D01*
X038646Y029521D02*
X038461Y029336D01*
X038386Y029411D01*
X038571Y029596D01*
X038472Y029347D02*
X038450Y029347D01*
X038439Y029358D02*
X038483Y029358D01*
X038494Y029369D02*
X038428Y029369D01*
X038417Y029380D02*
X038505Y029380D01*
X038516Y029391D02*
X038406Y029391D01*
X038395Y029402D02*
X038527Y029402D01*
X038538Y029413D02*
X038388Y029413D01*
X038399Y029424D02*
X038549Y029424D01*
X038560Y029435D02*
X038410Y029435D01*
X038421Y029446D02*
X038571Y029446D01*
X038582Y029457D02*
X038432Y029457D01*
X038443Y029468D02*
X038593Y029468D01*
X038604Y029479D02*
X038454Y029479D01*
X038465Y029490D02*
X038615Y029490D01*
X038626Y029501D02*
X038476Y029501D01*
X038487Y029512D02*
X038637Y029512D01*
X038644Y029523D02*
X038498Y029523D01*
X038509Y029534D02*
X038633Y029534D01*
X038622Y029545D02*
X038520Y029545D01*
X038531Y029556D02*
X038611Y029556D01*
X038600Y029567D02*
X038542Y029567D01*
X038553Y029578D02*
X038589Y029578D01*
X038578Y029589D02*
X038564Y029589D01*
X038534Y029633D02*
X038459Y029708D01*
X038534Y029633D02*
X038349Y029448D01*
X038274Y029523D01*
X038459Y029708D01*
X038360Y029459D02*
X038338Y029459D01*
X038327Y029470D02*
X038371Y029470D01*
X038382Y029481D02*
X038316Y029481D01*
X038305Y029492D02*
X038393Y029492D01*
X038404Y029503D02*
X038294Y029503D01*
X038283Y029514D02*
X038415Y029514D01*
X038426Y029525D02*
X038276Y029525D01*
X038287Y029536D02*
X038437Y029536D01*
X038448Y029547D02*
X038298Y029547D01*
X038309Y029558D02*
X038459Y029558D01*
X038470Y029569D02*
X038320Y029569D01*
X038331Y029580D02*
X038481Y029580D01*
X038492Y029591D02*
X038342Y029591D01*
X038353Y029602D02*
X038503Y029602D01*
X038514Y029613D02*
X038364Y029613D01*
X038375Y029624D02*
X038525Y029624D01*
X038532Y029635D02*
X038386Y029635D01*
X038397Y029646D02*
X038521Y029646D01*
X038510Y029657D02*
X038408Y029657D01*
X038419Y029668D02*
X038499Y029668D01*
X038488Y029679D02*
X038430Y029679D01*
X038441Y029690D02*
X038477Y029690D01*
X038466Y029701D02*
X038452Y029701D01*
X038423Y029744D02*
X038348Y029819D01*
X038423Y029744D02*
X038238Y029559D01*
X038163Y029634D01*
X038348Y029819D01*
X038249Y029570D02*
X038227Y029570D01*
X038216Y029581D02*
X038260Y029581D01*
X038271Y029592D02*
X038205Y029592D01*
X038194Y029603D02*
X038282Y029603D01*
X038293Y029614D02*
X038183Y029614D01*
X038172Y029625D02*
X038304Y029625D01*
X038315Y029636D02*
X038165Y029636D01*
X038176Y029647D02*
X038326Y029647D01*
X038337Y029658D02*
X038187Y029658D01*
X038198Y029669D02*
X038348Y029669D01*
X038359Y029680D02*
X038209Y029680D01*
X038220Y029691D02*
X038370Y029691D01*
X038381Y029702D02*
X038231Y029702D01*
X038242Y029713D02*
X038392Y029713D01*
X038403Y029724D02*
X038253Y029724D01*
X038264Y029735D02*
X038414Y029735D01*
X038421Y029746D02*
X038275Y029746D01*
X038286Y029757D02*
X038410Y029757D01*
X038399Y029768D02*
X038297Y029768D01*
X038308Y029779D02*
X038388Y029779D01*
X038377Y029790D02*
X038319Y029790D01*
X038330Y029801D02*
X038366Y029801D01*
X038355Y029812D02*
X038341Y029812D01*
X038312Y029856D02*
X038237Y029931D01*
X038312Y029856D02*
X038127Y029671D01*
X038052Y029746D01*
X038237Y029931D01*
X038138Y029682D02*
X038116Y029682D01*
X038105Y029693D02*
X038149Y029693D01*
X038160Y029704D02*
X038094Y029704D01*
X038083Y029715D02*
X038171Y029715D01*
X038182Y029726D02*
X038072Y029726D01*
X038061Y029737D02*
X038193Y029737D01*
X038204Y029748D02*
X038054Y029748D01*
X038065Y029759D02*
X038215Y029759D01*
X038226Y029770D02*
X038076Y029770D01*
X038087Y029781D02*
X038237Y029781D01*
X038248Y029792D02*
X038098Y029792D01*
X038109Y029803D02*
X038259Y029803D01*
X038270Y029814D02*
X038120Y029814D01*
X038131Y029825D02*
X038281Y029825D01*
X038292Y029836D02*
X038142Y029836D01*
X038153Y029847D02*
X038303Y029847D01*
X038310Y029858D02*
X038164Y029858D01*
X038175Y029869D02*
X038299Y029869D01*
X038288Y029880D02*
X038186Y029880D01*
X038197Y029891D02*
X038277Y029891D01*
X038266Y029902D02*
X038208Y029902D01*
X038219Y029913D02*
X038255Y029913D01*
X038244Y029924D02*
X038230Y029924D01*
X038237Y030060D02*
X038312Y030135D01*
X038237Y030060D02*
X038052Y030245D01*
X038127Y030320D01*
X038312Y030135D01*
X038248Y030071D02*
X038226Y030071D01*
X038215Y030082D02*
X038259Y030082D01*
X038270Y030093D02*
X038204Y030093D01*
X038193Y030104D02*
X038281Y030104D01*
X038292Y030115D02*
X038182Y030115D01*
X038171Y030126D02*
X038303Y030126D01*
X038310Y030137D02*
X038160Y030137D01*
X038149Y030148D02*
X038299Y030148D01*
X038288Y030159D02*
X038138Y030159D01*
X038127Y030170D02*
X038277Y030170D01*
X038266Y030181D02*
X038116Y030181D01*
X038105Y030192D02*
X038255Y030192D01*
X038244Y030203D02*
X038094Y030203D01*
X038083Y030214D02*
X038233Y030214D01*
X038222Y030225D02*
X038072Y030225D01*
X038061Y030236D02*
X038211Y030236D01*
X038200Y030247D02*
X038054Y030247D01*
X038065Y030258D02*
X038189Y030258D01*
X038178Y030269D02*
X038076Y030269D01*
X038087Y030280D02*
X038167Y030280D01*
X038156Y030291D02*
X038098Y030291D01*
X038109Y030302D02*
X038145Y030302D01*
X038134Y030313D02*
X038120Y030313D01*
X038348Y030172D02*
X038423Y030247D01*
X038348Y030172D02*
X038163Y030357D01*
X038238Y030432D01*
X038423Y030247D01*
X038359Y030183D02*
X038337Y030183D01*
X038326Y030194D02*
X038370Y030194D01*
X038381Y030205D02*
X038315Y030205D01*
X038304Y030216D02*
X038392Y030216D01*
X038403Y030227D02*
X038293Y030227D01*
X038282Y030238D02*
X038414Y030238D01*
X038421Y030249D02*
X038271Y030249D01*
X038260Y030260D02*
X038410Y030260D01*
X038399Y030271D02*
X038249Y030271D01*
X038238Y030282D02*
X038388Y030282D01*
X038377Y030293D02*
X038227Y030293D01*
X038216Y030304D02*
X038366Y030304D01*
X038355Y030315D02*
X038205Y030315D01*
X038194Y030326D02*
X038344Y030326D01*
X038333Y030337D02*
X038183Y030337D01*
X038172Y030348D02*
X038322Y030348D01*
X038311Y030359D02*
X038165Y030359D01*
X038176Y030370D02*
X038300Y030370D01*
X038289Y030381D02*
X038187Y030381D01*
X038198Y030392D02*
X038278Y030392D01*
X038267Y030403D02*
X038209Y030403D01*
X038220Y030414D02*
X038256Y030414D01*
X038245Y030425D02*
X038231Y030425D01*
X038459Y030283D02*
X038534Y030358D01*
X038459Y030283D02*
X038274Y030468D01*
X038349Y030543D01*
X038534Y030358D01*
X038470Y030294D02*
X038448Y030294D01*
X038437Y030305D02*
X038481Y030305D01*
X038492Y030316D02*
X038426Y030316D01*
X038415Y030327D02*
X038503Y030327D01*
X038514Y030338D02*
X038404Y030338D01*
X038393Y030349D02*
X038525Y030349D01*
X038532Y030360D02*
X038382Y030360D01*
X038371Y030371D02*
X038521Y030371D01*
X038510Y030382D02*
X038360Y030382D01*
X038349Y030393D02*
X038499Y030393D01*
X038488Y030404D02*
X038338Y030404D01*
X038327Y030415D02*
X038477Y030415D01*
X038466Y030426D02*
X038316Y030426D01*
X038305Y030437D02*
X038455Y030437D01*
X038444Y030448D02*
X038294Y030448D01*
X038283Y030459D02*
X038433Y030459D01*
X038422Y030470D02*
X038276Y030470D01*
X038287Y030481D02*
X038411Y030481D01*
X038400Y030492D02*
X038298Y030492D01*
X038309Y030503D02*
X038389Y030503D01*
X038378Y030514D02*
X038320Y030514D01*
X038331Y030525D02*
X038367Y030525D01*
X038356Y030536D02*
X038342Y030536D01*
X038571Y030394D02*
X038646Y030469D01*
X038571Y030394D02*
X038386Y030579D01*
X038461Y030654D01*
X038646Y030469D01*
X038582Y030405D02*
X038560Y030405D01*
X038549Y030416D02*
X038593Y030416D01*
X038604Y030427D02*
X038538Y030427D01*
X038527Y030438D02*
X038615Y030438D01*
X038626Y030449D02*
X038516Y030449D01*
X038505Y030460D02*
X038637Y030460D01*
X038644Y030471D02*
X038494Y030471D01*
X038483Y030482D02*
X038633Y030482D01*
X038622Y030493D02*
X038472Y030493D01*
X038461Y030504D02*
X038611Y030504D01*
X038600Y030515D02*
X038450Y030515D01*
X038439Y030526D02*
X038589Y030526D01*
X038578Y030537D02*
X038428Y030537D01*
X038417Y030548D02*
X038567Y030548D01*
X038556Y030559D02*
X038406Y030559D01*
X038395Y030570D02*
X038545Y030570D01*
X038534Y030581D02*
X038388Y030581D01*
X038399Y030592D02*
X038523Y030592D01*
X038512Y030603D02*
X038410Y030603D01*
X038421Y030614D02*
X038501Y030614D01*
X038490Y030625D02*
X038432Y030625D01*
X038443Y030636D02*
X038479Y030636D01*
X038468Y030647D02*
X038454Y030647D01*
X038682Y030506D02*
X038757Y030581D01*
X038682Y030506D02*
X038497Y030691D01*
X038572Y030766D01*
X038757Y030581D01*
X038693Y030517D02*
X038671Y030517D01*
X038660Y030528D02*
X038704Y030528D01*
X038715Y030539D02*
X038649Y030539D01*
X038638Y030550D02*
X038726Y030550D01*
X038737Y030561D02*
X038627Y030561D01*
X038616Y030572D02*
X038748Y030572D01*
X038755Y030583D02*
X038605Y030583D01*
X038594Y030594D02*
X038744Y030594D01*
X038733Y030605D02*
X038583Y030605D01*
X038572Y030616D02*
X038722Y030616D01*
X038711Y030627D02*
X038561Y030627D01*
X038550Y030638D02*
X038700Y030638D01*
X038689Y030649D02*
X038539Y030649D01*
X038528Y030660D02*
X038678Y030660D01*
X038667Y030671D02*
X038517Y030671D01*
X038506Y030682D02*
X038656Y030682D01*
X038645Y030693D02*
X038499Y030693D01*
X038510Y030704D02*
X038634Y030704D01*
X038623Y030715D02*
X038521Y030715D01*
X038532Y030726D02*
X038612Y030726D01*
X038601Y030737D02*
X038543Y030737D01*
X038554Y030748D02*
X038590Y030748D01*
X038579Y030759D02*
X038565Y030759D01*
X038793Y030617D02*
X038868Y030692D01*
X038793Y030617D02*
X038608Y030802D01*
X038683Y030877D01*
X038868Y030692D01*
X038804Y030628D02*
X038782Y030628D01*
X038771Y030639D02*
X038815Y030639D01*
X038826Y030650D02*
X038760Y030650D01*
X038749Y030661D02*
X038837Y030661D01*
X038848Y030672D02*
X038738Y030672D01*
X038727Y030683D02*
X038859Y030683D01*
X038866Y030694D02*
X038716Y030694D01*
X038705Y030705D02*
X038855Y030705D01*
X038844Y030716D02*
X038694Y030716D01*
X038683Y030727D02*
X038833Y030727D01*
X038822Y030738D02*
X038672Y030738D01*
X038661Y030749D02*
X038811Y030749D01*
X038800Y030760D02*
X038650Y030760D01*
X038639Y030771D02*
X038789Y030771D01*
X038778Y030782D02*
X038628Y030782D01*
X038617Y030793D02*
X038767Y030793D01*
X038756Y030804D02*
X038610Y030804D01*
X038621Y030815D02*
X038745Y030815D01*
X038734Y030826D02*
X038632Y030826D01*
X038643Y030837D02*
X038723Y030837D01*
X038712Y030848D02*
X038654Y030848D01*
X038665Y030859D02*
X038701Y030859D01*
X038690Y030870D02*
X038676Y030870D01*
X038905Y030728D02*
X038980Y030803D01*
X038905Y030728D02*
X038720Y030913D01*
X038795Y030988D01*
X038980Y030803D01*
X038916Y030739D02*
X038894Y030739D01*
X038883Y030750D02*
X038927Y030750D01*
X038938Y030761D02*
X038872Y030761D01*
X038861Y030772D02*
X038949Y030772D01*
X038960Y030783D02*
X038850Y030783D01*
X038839Y030794D02*
X038971Y030794D01*
X038978Y030805D02*
X038828Y030805D01*
X038817Y030816D02*
X038967Y030816D01*
X038956Y030827D02*
X038806Y030827D01*
X038795Y030838D02*
X038945Y030838D01*
X038934Y030849D02*
X038784Y030849D01*
X038773Y030860D02*
X038923Y030860D01*
X038912Y030871D02*
X038762Y030871D01*
X038751Y030882D02*
X038901Y030882D01*
X038890Y030893D02*
X038740Y030893D01*
X038729Y030904D02*
X038879Y030904D01*
X038868Y030915D02*
X038722Y030915D01*
X038733Y030926D02*
X038857Y030926D01*
X038846Y030937D02*
X038744Y030937D01*
X038755Y030948D02*
X038835Y030948D01*
X038824Y030959D02*
X038766Y030959D01*
X038777Y030970D02*
X038813Y030970D01*
X038802Y030981D02*
X038788Y030981D01*
X039016Y030840D02*
X039091Y030915D01*
X039016Y030840D02*
X038831Y031025D01*
X038906Y031100D01*
X039091Y030915D01*
X039027Y030851D02*
X039005Y030851D01*
X038994Y030862D02*
X039038Y030862D01*
X039049Y030873D02*
X038983Y030873D01*
X038972Y030884D02*
X039060Y030884D01*
X039071Y030895D02*
X038961Y030895D01*
X038950Y030906D02*
X039082Y030906D01*
X039089Y030917D02*
X038939Y030917D01*
X038928Y030928D02*
X039078Y030928D01*
X039067Y030939D02*
X038917Y030939D01*
X038906Y030950D02*
X039056Y030950D01*
X039045Y030961D02*
X038895Y030961D01*
X038884Y030972D02*
X039034Y030972D01*
X039023Y030983D02*
X038873Y030983D01*
X038862Y030994D02*
X039012Y030994D01*
X039001Y031005D02*
X038851Y031005D01*
X038840Y031016D02*
X038990Y031016D01*
X038979Y031027D02*
X038833Y031027D01*
X038844Y031038D02*
X038968Y031038D01*
X038957Y031049D02*
X038855Y031049D01*
X038866Y031060D02*
X038946Y031060D01*
X038935Y031071D02*
X038877Y031071D01*
X038888Y031082D02*
X038924Y031082D01*
X038913Y031093D02*
X038899Y031093D01*
X039127Y030951D02*
X039202Y031026D01*
X039127Y030951D02*
X038942Y031136D01*
X039017Y031211D01*
X039202Y031026D01*
X039138Y030962D02*
X039116Y030962D01*
X039105Y030973D02*
X039149Y030973D01*
X039160Y030984D02*
X039094Y030984D01*
X039083Y030995D02*
X039171Y030995D01*
X039182Y031006D02*
X039072Y031006D01*
X039061Y031017D02*
X039193Y031017D01*
X039200Y031028D02*
X039050Y031028D01*
X039039Y031039D02*
X039189Y031039D01*
X039178Y031050D02*
X039028Y031050D01*
X039017Y031061D02*
X039167Y031061D01*
X039156Y031072D02*
X039006Y031072D01*
X038995Y031083D02*
X039145Y031083D01*
X039134Y031094D02*
X038984Y031094D01*
X038973Y031105D02*
X039123Y031105D01*
X039112Y031116D02*
X038962Y031116D01*
X038951Y031127D02*
X039101Y031127D01*
X039090Y031138D02*
X038944Y031138D01*
X038955Y031149D02*
X039079Y031149D01*
X039068Y031160D02*
X038966Y031160D01*
X038977Y031171D02*
X039057Y031171D01*
X039046Y031182D02*
X038988Y031182D01*
X038999Y031193D02*
X039035Y031193D01*
X039024Y031204D02*
X039010Y031204D01*
X039239Y031062D02*
X039314Y031137D01*
X039239Y031062D02*
X039054Y031247D01*
X039129Y031322D01*
X039314Y031137D01*
X039250Y031073D02*
X039228Y031073D01*
X039217Y031084D02*
X039261Y031084D01*
X039272Y031095D02*
X039206Y031095D01*
X039195Y031106D02*
X039283Y031106D01*
X039294Y031117D02*
X039184Y031117D01*
X039173Y031128D02*
X039305Y031128D01*
X039312Y031139D02*
X039162Y031139D01*
X039151Y031150D02*
X039301Y031150D01*
X039290Y031161D02*
X039140Y031161D01*
X039129Y031172D02*
X039279Y031172D01*
X039268Y031183D02*
X039118Y031183D01*
X039107Y031194D02*
X039257Y031194D01*
X039246Y031205D02*
X039096Y031205D01*
X039085Y031216D02*
X039235Y031216D01*
X039224Y031227D02*
X039074Y031227D01*
X039063Y031238D02*
X039213Y031238D01*
X039202Y031249D02*
X039056Y031249D01*
X039067Y031260D02*
X039191Y031260D01*
X039180Y031271D02*
X039078Y031271D01*
X039089Y031282D02*
X039169Y031282D01*
X039158Y031293D02*
X039100Y031293D01*
X039111Y031304D02*
X039147Y031304D01*
X039136Y031315D02*
X039122Y031315D01*
X039350Y031174D02*
X039425Y031249D01*
X039350Y031174D02*
X039165Y031359D01*
X039240Y031434D01*
X039425Y031249D01*
X039361Y031185D02*
X039339Y031185D01*
X039328Y031196D02*
X039372Y031196D01*
X039383Y031207D02*
X039317Y031207D01*
X039306Y031218D02*
X039394Y031218D01*
X039405Y031229D02*
X039295Y031229D01*
X039284Y031240D02*
X039416Y031240D01*
X039423Y031251D02*
X039273Y031251D01*
X039262Y031262D02*
X039412Y031262D01*
X039401Y031273D02*
X039251Y031273D01*
X039240Y031284D02*
X039390Y031284D01*
X039379Y031295D02*
X039229Y031295D01*
X039218Y031306D02*
X039368Y031306D01*
X039357Y031317D02*
X039207Y031317D01*
X039196Y031328D02*
X039346Y031328D01*
X039335Y031339D02*
X039185Y031339D01*
X039174Y031350D02*
X039324Y031350D01*
X039313Y031361D02*
X039167Y031361D01*
X039178Y031372D02*
X039302Y031372D01*
X039291Y031383D02*
X039189Y031383D01*
X039200Y031394D02*
X039280Y031394D01*
X039269Y031405D02*
X039211Y031405D01*
X039222Y031416D02*
X039258Y031416D01*
X039247Y031427D02*
X039233Y031427D01*
X039461Y031285D02*
X039536Y031360D01*
X039461Y031285D02*
X039276Y031470D01*
X039351Y031545D01*
X039536Y031360D01*
X039472Y031296D02*
X039450Y031296D01*
X039439Y031307D02*
X039483Y031307D01*
X039494Y031318D02*
X039428Y031318D01*
X039417Y031329D02*
X039505Y031329D01*
X039516Y031340D02*
X039406Y031340D01*
X039395Y031351D02*
X039527Y031351D01*
X039534Y031362D02*
X039384Y031362D01*
X039373Y031373D02*
X039523Y031373D01*
X039512Y031384D02*
X039362Y031384D01*
X039351Y031395D02*
X039501Y031395D01*
X039490Y031406D02*
X039340Y031406D01*
X039329Y031417D02*
X039479Y031417D01*
X039468Y031428D02*
X039318Y031428D01*
X039307Y031439D02*
X039457Y031439D01*
X039446Y031450D02*
X039296Y031450D01*
X039285Y031461D02*
X039435Y031461D01*
X039424Y031472D02*
X039278Y031472D01*
X039289Y031483D02*
X039413Y031483D01*
X039402Y031494D02*
X039300Y031494D01*
X039311Y031505D02*
X039391Y031505D01*
X039380Y031516D02*
X039322Y031516D01*
X039333Y031527D02*
X039369Y031527D01*
X039358Y031538D02*
X039344Y031538D01*
X039573Y031397D02*
X039648Y031472D01*
X039573Y031397D02*
X039388Y031582D01*
X039463Y031657D01*
X039648Y031472D01*
X039584Y031408D02*
X039562Y031408D01*
X039551Y031419D02*
X039595Y031419D01*
X039606Y031430D02*
X039540Y031430D01*
X039529Y031441D02*
X039617Y031441D01*
X039628Y031452D02*
X039518Y031452D01*
X039507Y031463D02*
X039639Y031463D01*
X039646Y031474D02*
X039496Y031474D01*
X039485Y031485D02*
X039635Y031485D01*
X039624Y031496D02*
X039474Y031496D01*
X039463Y031507D02*
X039613Y031507D01*
X039602Y031518D02*
X039452Y031518D01*
X039441Y031529D02*
X039591Y031529D01*
X039580Y031540D02*
X039430Y031540D01*
X039419Y031551D02*
X039569Y031551D01*
X039558Y031562D02*
X039408Y031562D01*
X039397Y031573D02*
X039547Y031573D01*
X039536Y031584D02*
X039390Y031584D01*
X039401Y031595D02*
X039525Y031595D01*
X039514Y031606D02*
X039412Y031606D01*
X039423Y031617D02*
X039503Y031617D01*
X039492Y031628D02*
X039434Y031628D01*
X039445Y031639D02*
X039481Y031639D01*
X039470Y031650D02*
X039456Y031650D01*
X039684Y031508D02*
X039759Y031583D01*
X039684Y031508D02*
X039499Y031693D01*
X039574Y031768D01*
X039759Y031583D01*
X039695Y031519D02*
X039673Y031519D01*
X039662Y031530D02*
X039706Y031530D01*
X039717Y031541D02*
X039651Y031541D01*
X039640Y031552D02*
X039728Y031552D01*
X039739Y031563D02*
X039629Y031563D01*
X039618Y031574D02*
X039750Y031574D01*
X039757Y031585D02*
X039607Y031585D01*
X039596Y031596D02*
X039746Y031596D01*
X039735Y031607D02*
X039585Y031607D01*
X039574Y031618D02*
X039724Y031618D01*
X039713Y031629D02*
X039563Y031629D01*
X039552Y031640D02*
X039702Y031640D01*
X039691Y031651D02*
X039541Y031651D01*
X039530Y031662D02*
X039680Y031662D01*
X039669Y031673D02*
X039519Y031673D01*
X039508Y031684D02*
X039658Y031684D01*
X039647Y031695D02*
X039501Y031695D01*
X039512Y031706D02*
X039636Y031706D01*
X039625Y031717D02*
X039523Y031717D01*
X039534Y031728D02*
X039614Y031728D01*
X039603Y031739D02*
X039545Y031739D01*
X039556Y031750D02*
X039592Y031750D01*
X039581Y031761D02*
X039567Y031761D01*
X039796Y031619D02*
X039871Y031694D01*
X039796Y031619D02*
X039611Y031804D01*
X039686Y031879D01*
X039871Y031694D01*
X039807Y031630D02*
X039785Y031630D01*
X039774Y031641D02*
X039818Y031641D01*
X039829Y031652D02*
X039763Y031652D01*
X039752Y031663D02*
X039840Y031663D01*
X039851Y031674D02*
X039741Y031674D01*
X039730Y031685D02*
X039862Y031685D01*
X039869Y031696D02*
X039719Y031696D01*
X039708Y031707D02*
X039858Y031707D01*
X039847Y031718D02*
X039697Y031718D01*
X039686Y031729D02*
X039836Y031729D01*
X039825Y031740D02*
X039675Y031740D01*
X039664Y031751D02*
X039814Y031751D01*
X039803Y031762D02*
X039653Y031762D01*
X039642Y031773D02*
X039792Y031773D01*
X039781Y031784D02*
X039631Y031784D01*
X039620Y031795D02*
X039770Y031795D01*
X039759Y031806D02*
X039613Y031806D01*
X039624Y031817D02*
X039748Y031817D01*
X039737Y031828D02*
X039635Y031828D01*
X039646Y031839D02*
X039726Y031839D01*
X039715Y031850D02*
X039657Y031850D01*
X039668Y031861D02*
X039704Y031861D01*
X039693Y031872D02*
X039679Y031872D01*
X039907Y031731D02*
X039982Y031806D01*
X039907Y031731D02*
X039722Y031916D01*
X039797Y031991D01*
X039982Y031806D01*
X039918Y031742D02*
X039896Y031742D01*
X039885Y031753D02*
X039929Y031753D01*
X039940Y031764D02*
X039874Y031764D01*
X039863Y031775D02*
X039951Y031775D01*
X039962Y031786D02*
X039852Y031786D01*
X039841Y031797D02*
X039973Y031797D01*
X039980Y031808D02*
X039830Y031808D01*
X039819Y031819D02*
X039969Y031819D01*
X039958Y031830D02*
X039808Y031830D01*
X039797Y031841D02*
X039947Y031841D01*
X039936Y031852D02*
X039786Y031852D01*
X039775Y031863D02*
X039925Y031863D01*
X039914Y031874D02*
X039764Y031874D01*
X039753Y031885D02*
X039903Y031885D01*
X039892Y031896D02*
X039742Y031896D01*
X039731Y031907D02*
X039881Y031907D01*
X039870Y031918D02*
X039724Y031918D01*
X039735Y031929D02*
X039859Y031929D01*
X039848Y031940D02*
X039746Y031940D01*
X039757Y031951D02*
X039837Y031951D01*
X039826Y031962D02*
X039768Y031962D01*
X039779Y031973D02*
X039815Y031973D01*
X039804Y031984D02*
X039790Y031984D01*
X040018Y031842D02*
X040093Y031917D01*
X040018Y031842D02*
X039833Y032027D01*
X039908Y032102D01*
X040093Y031917D01*
X040029Y031853D02*
X040007Y031853D01*
X039996Y031864D02*
X040040Y031864D01*
X040051Y031875D02*
X039985Y031875D01*
X039974Y031886D02*
X040062Y031886D01*
X040073Y031897D02*
X039963Y031897D01*
X039952Y031908D02*
X040084Y031908D01*
X040091Y031919D02*
X039941Y031919D01*
X039930Y031930D02*
X040080Y031930D01*
X040069Y031941D02*
X039919Y031941D01*
X039908Y031952D02*
X040058Y031952D01*
X040047Y031963D02*
X039897Y031963D01*
X039886Y031974D02*
X040036Y031974D01*
X040025Y031985D02*
X039875Y031985D01*
X039864Y031996D02*
X040014Y031996D01*
X040003Y032007D02*
X039853Y032007D01*
X039842Y032018D02*
X039992Y032018D01*
X039981Y032029D02*
X039835Y032029D01*
X039846Y032040D02*
X039970Y032040D01*
X039959Y032051D02*
X039857Y032051D01*
X039868Y032062D02*
X039948Y032062D01*
X039937Y032073D02*
X039879Y032073D01*
X039890Y032084D02*
X039926Y032084D01*
X039915Y032095D02*
X039901Y032095D01*
X040223Y031917D02*
X040298Y031842D01*
X040223Y031917D02*
X040408Y032102D01*
X040483Y032027D01*
X040298Y031842D01*
X040309Y031853D02*
X040287Y031853D01*
X040276Y031864D02*
X040320Y031864D01*
X040331Y031875D02*
X040265Y031875D01*
X040254Y031886D02*
X040342Y031886D01*
X040353Y031897D02*
X040243Y031897D01*
X040232Y031908D02*
X040364Y031908D01*
X040375Y031919D02*
X040225Y031919D01*
X040236Y031930D02*
X040386Y031930D01*
X040397Y031941D02*
X040247Y031941D01*
X040258Y031952D02*
X040408Y031952D01*
X040419Y031963D02*
X040269Y031963D01*
X040280Y031974D02*
X040430Y031974D01*
X040441Y031985D02*
X040291Y031985D01*
X040302Y031996D02*
X040452Y031996D01*
X040463Y032007D02*
X040313Y032007D01*
X040324Y032018D02*
X040474Y032018D01*
X040481Y032029D02*
X040335Y032029D01*
X040346Y032040D02*
X040470Y032040D01*
X040459Y032051D02*
X040357Y032051D01*
X040368Y032062D02*
X040448Y032062D01*
X040437Y032073D02*
X040379Y032073D01*
X040390Y032084D02*
X040426Y032084D01*
X040415Y032095D02*
X040401Y032095D01*
X040334Y031806D02*
X040409Y031731D01*
X040334Y031806D02*
X040519Y031991D01*
X040594Y031916D01*
X040409Y031731D01*
X040420Y031742D02*
X040398Y031742D01*
X040387Y031753D02*
X040431Y031753D01*
X040442Y031764D02*
X040376Y031764D01*
X040365Y031775D02*
X040453Y031775D01*
X040464Y031786D02*
X040354Y031786D01*
X040343Y031797D02*
X040475Y031797D01*
X040486Y031808D02*
X040336Y031808D01*
X040347Y031819D02*
X040497Y031819D01*
X040508Y031830D02*
X040358Y031830D01*
X040369Y031841D02*
X040519Y031841D01*
X040530Y031852D02*
X040380Y031852D01*
X040391Y031863D02*
X040541Y031863D01*
X040552Y031874D02*
X040402Y031874D01*
X040413Y031885D02*
X040563Y031885D01*
X040574Y031896D02*
X040424Y031896D01*
X040435Y031907D02*
X040585Y031907D01*
X040592Y031918D02*
X040446Y031918D01*
X040457Y031929D02*
X040581Y031929D01*
X040570Y031940D02*
X040468Y031940D01*
X040479Y031951D02*
X040559Y031951D01*
X040548Y031962D02*
X040490Y031962D01*
X040501Y031973D02*
X040537Y031973D01*
X040526Y031984D02*
X040512Y031984D01*
X040446Y031694D02*
X040521Y031619D01*
X040446Y031694D02*
X040631Y031879D01*
X040706Y031804D01*
X040521Y031619D01*
X040532Y031630D02*
X040510Y031630D01*
X040499Y031641D02*
X040543Y031641D01*
X040554Y031652D02*
X040488Y031652D01*
X040477Y031663D02*
X040565Y031663D01*
X040576Y031674D02*
X040466Y031674D01*
X040455Y031685D02*
X040587Y031685D01*
X040598Y031696D02*
X040448Y031696D01*
X040459Y031707D02*
X040609Y031707D01*
X040620Y031718D02*
X040470Y031718D01*
X040481Y031729D02*
X040631Y031729D01*
X040642Y031740D02*
X040492Y031740D01*
X040503Y031751D02*
X040653Y031751D01*
X040664Y031762D02*
X040514Y031762D01*
X040525Y031773D02*
X040675Y031773D01*
X040686Y031784D02*
X040536Y031784D01*
X040547Y031795D02*
X040697Y031795D01*
X040704Y031806D02*
X040558Y031806D01*
X040569Y031817D02*
X040693Y031817D01*
X040682Y031828D02*
X040580Y031828D01*
X040591Y031839D02*
X040671Y031839D01*
X040660Y031850D02*
X040602Y031850D01*
X040613Y031861D02*
X040649Y031861D01*
X040638Y031872D02*
X040624Y031872D01*
X040557Y031583D02*
X040632Y031508D01*
X040557Y031583D02*
X040742Y031768D01*
X040817Y031693D01*
X040632Y031508D01*
X040643Y031519D02*
X040621Y031519D01*
X040610Y031530D02*
X040654Y031530D01*
X040665Y031541D02*
X040599Y031541D01*
X040588Y031552D02*
X040676Y031552D01*
X040687Y031563D02*
X040577Y031563D01*
X040566Y031574D02*
X040698Y031574D01*
X040709Y031585D02*
X040559Y031585D01*
X040570Y031596D02*
X040720Y031596D01*
X040731Y031607D02*
X040581Y031607D01*
X040592Y031618D02*
X040742Y031618D01*
X040753Y031629D02*
X040603Y031629D01*
X040614Y031640D02*
X040764Y031640D01*
X040775Y031651D02*
X040625Y031651D01*
X040636Y031662D02*
X040786Y031662D01*
X040797Y031673D02*
X040647Y031673D01*
X040658Y031684D02*
X040808Y031684D01*
X040815Y031695D02*
X040669Y031695D01*
X040680Y031706D02*
X040804Y031706D01*
X040793Y031717D02*
X040691Y031717D01*
X040702Y031728D02*
X040782Y031728D01*
X040771Y031739D02*
X040713Y031739D01*
X040724Y031750D02*
X040760Y031750D01*
X040749Y031761D02*
X040735Y031761D01*
X040668Y031472D02*
X040743Y031397D01*
X040668Y031472D02*
X040853Y031657D01*
X040928Y031582D01*
X040743Y031397D01*
X040754Y031408D02*
X040732Y031408D01*
X040721Y031419D02*
X040765Y031419D01*
X040776Y031430D02*
X040710Y031430D01*
X040699Y031441D02*
X040787Y031441D01*
X040798Y031452D02*
X040688Y031452D01*
X040677Y031463D02*
X040809Y031463D01*
X040820Y031474D02*
X040670Y031474D01*
X040681Y031485D02*
X040831Y031485D01*
X040842Y031496D02*
X040692Y031496D01*
X040703Y031507D02*
X040853Y031507D01*
X040864Y031518D02*
X040714Y031518D01*
X040725Y031529D02*
X040875Y031529D01*
X040886Y031540D02*
X040736Y031540D01*
X040747Y031551D02*
X040897Y031551D01*
X040908Y031562D02*
X040758Y031562D01*
X040769Y031573D02*
X040919Y031573D01*
X040926Y031584D02*
X040780Y031584D01*
X040791Y031595D02*
X040915Y031595D01*
X040904Y031606D02*
X040802Y031606D01*
X040813Y031617D02*
X040893Y031617D01*
X040882Y031628D02*
X040824Y031628D01*
X040835Y031639D02*
X040871Y031639D01*
X040860Y031650D02*
X040846Y031650D01*
X040780Y031360D02*
X040855Y031285D01*
X040780Y031360D02*
X040965Y031545D01*
X041040Y031470D01*
X040855Y031285D01*
X040866Y031296D02*
X040844Y031296D01*
X040833Y031307D02*
X040877Y031307D01*
X040888Y031318D02*
X040822Y031318D01*
X040811Y031329D02*
X040899Y031329D01*
X040910Y031340D02*
X040800Y031340D01*
X040789Y031351D02*
X040921Y031351D01*
X040932Y031362D02*
X040782Y031362D01*
X040793Y031373D02*
X040943Y031373D01*
X040954Y031384D02*
X040804Y031384D01*
X040815Y031395D02*
X040965Y031395D01*
X040976Y031406D02*
X040826Y031406D01*
X040837Y031417D02*
X040987Y031417D01*
X040998Y031428D02*
X040848Y031428D01*
X040859Y031439D02*
X041009Y031439D01*
X041020Y031450D02*
X040870Y031450D01*
X040881Y031461D02*
X041031Y031461D01*
X041038Y031472D02*
X040892Y031472D01*
X040903Y031483D02*
X041027Y031483D01*
X041016Y031494D02*
X040914Y031494D01*
X040925Y031505D02*
X041005Y031505D01*
X040994Y031516D02*
X040936Y031516D01*
X040947Y031527D02*
X040983Y031527D01*
X040972Y031538D02*
X040958Y031538D01*
X040891Y031249D02*
X040966Y031174D01*
X040891Y031249D02*
X041076Y031434D01*
X041151Y031359D01*
X040966Y031174D01*
X040977Y031185D02*
X040955Y031185D01*
X040944Y031196D02*
X040988Y031196D01*
X040999Y031207D02*
X040933Y031207D01*
X040922Y031218D02*
X041010Y031218D01*
X041021Y031229D02*
X040911Y031229D01*
X040900Y031240D02*
X041032Y031240D01*
X041043Y031251D02*
X040893Y031251D01*
X040904Y031262D02*
X041054Y031262D01*
X041065Y031273D02*
X040915Y031273D01*
X040926Y031284D02*
X041076Y031284D01*
X041087Y031295D02*
X040937Y031295D01*
X040948Y031306D02*
X041098Y031306D01*
X041109Y031317D02*
X040959Y031317D01*
X040970Y031328D02*
X041120Y031328D01*
X041131Y031339D02*
X040981Y031339D01*
X040992Y031350D02*
X041142Y031350D01*
X041149Y031361D02*
X041003Y031361D01*
X041014Y031372D02*
X041138Y031372D01*
X041127Y031383D02*
X041025Y031383D01*
X041036Y031394D02*
X041116Y031394D01*
X041105Y031405D02*
X041047Y031405D01*
X041058Y031416D02*
X041094Y031416D01*
X041083Y031427D02*
X041069Y031427D01*
X041002Y031137D02*
X041077Y031062D01*
X041002Y031137D02*
X041187Y031322D01*
X041262Y031247D01*
X041077Y031062D01*
X041088Y031073D02*
X041066Y031073D01*
X041055Y031084D02*
X041099Y031084D01*
X041110Y031095D02*
X041044Y031095D01*
X041033Y031106D02*
X041121Y031106D01*
X041132Y031117D02*
X041022Y031117D01*
X041011Y031128D02*
X041143Y031128D01*
X041154Y031139D02*
X041004Y031139D01*
X041015Y031150D02*
X041165Y031150D01*
X041176Y031161D02*
X041026Y031161D01*
X041037Y031172D02*
X041187Y031172D01*
X041198Y031183D02*
X041048Y031183D01*
X041059Y031194D02*
X041209Y031194D01*
X041220Y031205D02*
X041070Y031205D01*
X041081Y031216D02*
X041231Y031216D01*
X041242Y031227D02*
X041092Y031227D01*
X041103Y031238D02*
X041253Y031238D01*
X041260Y031249D02*
X041114Y031249D01*
X041125Y031260D02*
X041249Y031260D01*
X041238Y031271D02*
X041136Y031271D01*
X041147Y031282D02*
X041227Y031282D01*
X041216Y031293D02*
X041158Y031293D01*
X041169Y031304D02*
X041205Y031304D01*
X041194Y031315D02*
X041180Y031315D01*
X041114Y031026D02*
X041189Y030951D01*
X041114Y031026D02*
X041299Y031211D01*
X041374Y031136D01*
X041189Y030951D01*
X041200Y030962D02*
X041178Y030962D01*
X041167Y030973D02*
X041211Y030973D01*
X041222Y030984D02*
X041156Y030984D01*
X041145Y030995D02*
X041233Y030995D01*
X041244Y031006D02*
X041134Y031006D01*
X041123Y031017D02*
X041255Y031017D01*
X041266Y031028D02*
X041116Y031028D01*
X041127Y031039D02*
X041277Y031039D01*
X041288Y031050D02*
X041138Y031050D01*
X041149Y031061D02*
X041299Y031061D01*
X041310Y031072D02*
X041160Y031072D01*
X041171Y031083D02*
X041321Y031083D01*
X041332Y031094D02*
X041182Y031094D01*
X041193Y031105D02*
X041343Y031105D01*
X041354Y031116D02*
X041204Y031116D01*
X041215Y031127D02*
X041365Y031127D01*
X041372Y031138D02*
X041226Y031138D01*
X041237Y031149D02*
X041361Y031149D01*
X041350Y031160D02*
X041248Y031160D01*
X041259Y031171D02*
X041339Y031171D01*
X041328Y031182D02*
X041270Y031182D01*
X041281Y031193D02*
X041317Y031193D01*
X041306Y031204D02*
X041292Y031204D01*
X041225Y030915D02*
X041300Y030840D01*
X041225Y030915D02*
X041410Y031100D01*
X041485Y031025D01*
X041300Y030840D01*
X041311Y030851D02*
X041289Y030851D01*
X041278Y030862D02*
X041322Y030862D01*
X041333Y030873D02*
X041267Y030873D01*
X041256Y030884D02*
X041344Y030884D01*
X041355Y030895D02*
X041245Y030895D01*
X041234Y030906D02*
X041366Y030906D01*
X041377Y030917D02*
X041227Y030917D01*
X041238Y030928D02*
X041388Y030928D01*
X041399Y030939D02*
X041249Y030939D01*
X041260Y030950D02*
X041410Y030950D01*
X041421Y030961D02*
X041271Y030961D01*
X041282Y030972D02*
X041432Y030972D01*
X041443Y030983D02*
X041293Y030983D01*
X041304Y030994D02*
X041454Y030994D01*
X041465Y031005D02*
X041315Y031005D01*
X041326Y031016D02*
X041476Y031016D01*
X041483Y031027D02*
X041337Y031027D01*
X041348Y031038D02*
X041472Y031038D01*
X041461Y031049D02*
X041359Y031049D01*
X041370Y031060D02*
X041450Y031060D01*
X041439Y031071D02*
X041381Y031071D01*
X041392Y031082D02*
X041428Y031082D01*
X041417Y031093D02*
X041403Y031093D01*
X041337Y030803D02*
X041412Y030728D01*
X041337Y030803D02*
X041522Y030988D01*
X041597Y030913D01*
X041412Y030728D01*
X041423Y030739D02*
X041401Y030739D01*
X041390Y030750D02*
X041434Y030750D01*
X041445Y030761D02*
X041379Y030761D01*
X041368Y030772D02*
X041456Y030772D01*
X041467Y030783D02*
X041357Y030783D01*
X041346Y030794D02*
X041478Y030794D01*
X041489Y030805D02*
X041339Y030805D01*
X041350Y030816D02*
X041500Y030816D01*
X041511Y030827D02*
X041361Y030827D01*
X041372Y030838D02*
X041522Y030838D01*
X041533Y030849D02*
X041383Y030849D01*
X041394Y030860D02*
X041544Y030860D01*
X041555Y030871D02*
X041405Y030871D01*
X041416Y030882D02*
X041566Y030882D01*
X041577Y030893D02*
X041427Y030893D01*
X041438Y030904D02*
X041588Y030904D01*
X041595Y030915D02*
X041449Y030915D01*
X041460Y030926D02*
X041584Y030926D01*
X041573Y030937D02*
X041471Y030937D01*
X041482Y030948D02*
X041562Y030948D01*
X041551Y030959D02*
X041493Y030959D01*
X041504Y030970D02*
X041540Y030970D01*
X041529Y030981D02*
X041515Y030981D01*
X041448Y030692D02*
X041523Y030617D01*
X041448Y030692D02*
X041633Y030877D01*
X041708Y030802D01*
X041523Y030617D01*
X041534Y030628D02*
X041512Y030628D01*
X041501Y030639D02*
X041545Y030639D01*
X041556Y030650D02*
X041490Y030650D01*
X041479Y030661D02*
X041567Y030661D01*
X041578Y030672D02*
X041468Y030672D01*
X041457Y030683D02*
X041589Y030683D01*
X041600Y030694D02*
X041450Y030694D01*
X041461Y030705D02*
X041611Y030705D01*
X041622Y030716D02*
X041472Y030716D01*
X041483Y030727D02*
X041633Y030727D01*
X041644Y030738D02*
X041494Y030738D01*
X041505Y030749D02*
X041655Y030749D01*
X041666Y030760D02*
X041516Y030760D01*
X041527Y030771D02*
X041677Y030771D01*
X041688Y030782D02*
X041538Y030782D01*
X041549Y030793D02*
X041699Y030793D01*
X041706Y030804D02*
X041560Y030804D01*
X041571Y030815D02*
X041695Y030815D01*
X041684Y030826D02*
X041582Y030826D01*
X041593Y030837D02*
X041673Y030837D01*
X041662Y030848D02*
X041604Y030848D01*
X041615Y030859D02*
X041651Y030859D01*
X041640Y030870D02*
X041626Y030870D01*
X041559Y030581D02*
X041634Y030506D01*
X041559Y030581D02*
X041744Y030766D01*
X041819Y030691D01*
X041634Y030506D01*
X041645Y030517D02*
X041623Y030517D01*
X041612Y030528D02*
X041656Y030528D01*
X041667Y030539D02*
X041601Y030539D01*
X041590Y030550D02*
X041678Y030550D01*
X041689Y030561D02*
X041579Y030561D01*
X041568Y030572D02*
X041700Y030572D01*
X041711Y030583D02*
X041561Y030583D01*
X041572Y030594D02*
X041722Y030594D01*
X041733Y030605D02*
X041583Y030605D01*
X041594Y030616D02*
X041744Y030616D01*
X041755Y030627D02*
X041605Y030627D01*
X041616Y030638D02*
X041766Y030638D01*
X041777Y030649D02*
X041627Y030649D01*
X041638Y030660D02*
X041788Y030660D01*
X041799Y030671D02*
X041649Y030671D01*
X041660Y030682D02*
X041810Y030682D01*
X041817Y030693D02*
X041671Y030693D01*
X041682Y030704D02*
X041806Y030704D01*
X041795Y030715D02*
X041693Y030715D01*
X041704Y030726D02*
X041784Y030726D01*
X041773Y030737D02*
X041715Y030737D01*
X041726Y030748D02*
X041762Y030748D01*
X041751Y030759D02*
X041737Y030759D01*
X041671Y030469D02*
X041746Y030394D01*
X041671Y030469D02*
X041856Y030654D01*
X041931Y030579D01*
X041746Y030394D01*
X041757Y030405D02*
X041735Y030405D01*
X041724Y030416D02*
X041768Y030416D01*
X041779Y030427D02*
X041713Y030427D01*
X041702Y030438D02*
X041790Y030438D01*
X041801Y030449D02*
X041691Y030449D01*
X041680Y030460D02*
X041812Y030460D01*
X041823Y030471D02*
X041673Y030471D01*
X041684Y030482D02*
X041834Y030482D01*
X041845Y030493D02*
X041695Y030493D01*
X041706Y030504D02*
X041856Y030504D01*
X041867Y030515D02*
X041717Y030515D01*
X041728Y030526D02*
X041878Y030526D01*
X041889Y030537D02*
X041739Y030537D01*
X041750Y030548D02*
X041900Y030548D01*
X041911Y030559D02*
X041761Y030559D01*
X041772Y030570D02*
X041922Y030570D01*
X041929Y030581D02*
X041783Y030581D01*
X041794Y030592D02*
X041918Y030592D01*
X041907Y030603D02*
X041805Y030603D01*
X041816Y030614D02*
X041896Y030614D01*
X041885Y030625D02*
X041827Y030625D01*
X041838Y030636D02*
X041874Y030636D01*
X041863Y030647D02*
X041849Y030647D01*
X041782Y030358D02*
X041857Y030283D01*
X041782Y030358D02*
X041967Y030543D01*
X042042Y030468D01*
X041857Y030283D01*
X041868Y030294D02*
X041846Y030294D01*
X041835Y030305D02*
X041879Y030305D01*
X041890Y030316D02*
X041824Y030316D01*
X041813Y030327D02*
X041901Y030327D01*
X041912Y030338D02*
X041802Y030338D01*
X041791Y030349D02*
X041923Y030349D01*
X041934Y030360D02*
X041784Y030360D01*
X041795Y030371D02*
X041945Y030371D01*
X041956Y030382D02*
X041806Y030382D01*
X041817Y030393D02*
X041967Y030393D01*
X041978Y030404D02*
X041828Y030404D01*
X041839Y030415D02*
X041989Y030415D01*
X042000Y030426D02*
X041850Y030426D01*
X041861Y030437D02*
X042011Y030437D01*
X042022Y030448D02*
X041872Y030448D01*
X041883Y030459D02*
X042033Y030459D01*
X042040Y030470D02*
X041894Y030470D01*
X041905Y030481D02*
X042029Y030481D01*
X042018Y030492D02*
X041916Y030492D01*
X041927Y030503D02*
X042007Y030503D01*
X041996Y030514D02*
X041938Y030514D01*
X041949Y030525D02*
X041985Y030525D01*
X041974Y030536D02*
X041960Y030536D01*
X041893Y030247D02*
X041968Y030172D01*
X041893Y030247D02*
X042078Y030432D01*
X042153Y030357D01*
X041968Y030172D01*
X041979Y030183D02*
X041957Y030183D01*
X041946Y030194D02*
X041990Y030194D01*
X042001Y030205D02*
X041935Y030205D01*
X041924Y030216D02*
X042012Y030216D01*
X042023Y030227D02*
X041913Y030227D01*
X041902Y030238D02*
X042034Y030238D01*
X042045Y030249D02*
X041895Y030249D01*
X041906Y030260D02*
X042056Y030260D01*
X042067Y030271D02*
X041917Y030271D01*
X041928Y030282D02*
X042078Y030282D01*
X042089Y030293D02*
X041939Y030293D01*
X041950Y030304D02*
X042100Y030304D01*
X042111Y030315D02*
X041961Y030315D01*
X041972Y030326D02*
X042122Y030326D01*
X042133Y030337D02*
X041983Y030337D01*
X041994Y030348D02*
X042144Y030348D01*
X042151Y030359D02*
X042005Y030359D01*
X042016Y030370D02*
X042140Y030370D01*
X042129Y030381D02*
X042027Y030381D01*
X042038Y030392D02*
X042118Y030392D01*
X042107Y030403D02*
X042049Y030403D01*
X042060Y030414D02*
X042096Y030414D01*
X042085Y030425D02*
X042071Y030425D01*
X042005Y030135D02*
X042080Y030060D01*
X042005Y030135D02*
X042190Y030320D01*
X042265Y030245D01*
X042080Y030060D01*
X042091Y030071D02*
X042069Y030071D01*
X042058Y030082D02*
X042102Y030082D01*
X042113Y030093D02*
X042047Y030093D01*
X042036Y030104D02*
X042124Y030104D01*
X042135Y030115D02*
X042025Y030115D01*
X042014Y030126D02*
X042146Y030126D01*
X042157Y030137D02*
X042007Y030137D01*
X042018Y030148D02*
X042168Y030148D01*
X042179Y030159D02*
X042029Y030159D01*
X042040Y030170D02*
X042190Y030170D01*
X042201Y030181D02*
X042051Y030181D01*
X042062Y030192D02*
X042212Y030192D01*
X042223Y030203D02*
X042073Y030203D01*
X042084Y030214D02*
X042234Y030214D01*
X042245Y030225D02*
X042095Y030225D01*
X042106Y030236D02*
X042256Y030236D01*
X042263Y030247D02*
X042117Y030247D01*
X042128Y030258D02*
X042252Y030258D01*
X042241Y030269D02*
X042139Y030269D01*
X042150Y030280D02*
X042230Y030280D01*
X042219Y030291D02*
X042161Y030291D01*
X042172Y030302D02*
X042208Y030302D01*
X042197Y030313D02*
X042183Y030313D01*
D14*
G36*
X041396Y029995D02*
X040158Y028757D01*
X038920Y029995D01*
X040158Y031233D01*
X041396Y029995D01*
G37*
D15*
X040152Y027460D03*
X040152Y026771D03*
X040145Y032529D03*
X040145Y033218D03*
X024995Y033446D03*
X024995Y032757D03*
D16*
X023298Y030811D03*
X023298Y030311D03*
X023298Y029811D03*
X023298Y029311D03*
X023298Y028811D03*
X021798Y028811D03*
X021798Y029311D03*
X021798Y029811D03*
X021798Y030311D03*
X021798Y030811D03*
D17*
X025635Y022844D03*
X026009Y022844D03*
X026383Y022844D03*
X026383Y021820D03*
X026009Y021820D03*
X025635Y021820D03*
D18*
X024635Y021872D03*
X024635Y020769D03*
D19*
X027075Y021986D03*
X027075Y022655D03*
X030303Y023291D03*
X030972Y023291D03*
X030413Y025344D03*
X029744Y025344D03*
X024181Y032780D03*
X024181Y033450D03*
X023225Y033489D03*
X023225Y032820D03*
D20*
X027885Y022655D03*
X027885Y021986D03*
D21*
X023635Y022474D03*
X023635Y024167D03*
X023635Y024974D03*
X023635Y026667D03*
D22*
X025635Y025417D03*
X025635Y023724D03*
D23*
X025687Y027320D03*
X024584Y027320D03*
D24*
X029614Y022541D03*
X029614Y022041D03*
X029614Y021541D03*
X029614Y021041D03*
X031661Y021041D03*
X031661Y021541D03*
X031661Y022041D03*
X031661Y022541D03*
D25*
X031593Y024435D03*
X031967Y025262D03*
X031219Y025262D03*
D26*
X038720Y024518D03*
X039822Y024518D03*
D27*
X047200Y023691D03*
D28*
X048322Y025580D03*
X049661Y023691D03*
D29*
X042769Y028227D03*
X042376Y028227D03*
X042376Y028758D03*
X042769Y028758D03*
D30*
X047805Y035267D03*
D31*
X047805Y036267D03*
X046805Y036267D03*
X046805Y035267D03*
X045805Y035267D03*
X044805Y035267D03*
X044805Y036267D03*
X045805Y036267D03*
X043805Y036267D03*
X043805Y035267D03*
X042805Y035267D03*
X042805Y036267D03*
X041805Y036267D03*
X041805Y035267D03*
X040805Y035267D03*
X040805Y036267D03*
X039805Y036267D03*
X039805Y035267D03*
X038805Y035267D03*
X037805Y035267D03*
X037805Y036267D03*
X038805Y036267D03*
X036805Y036267D03*
X036805Y035267D03*
X035805Y035267D03*
X035805Y036267D03*
X034805Y036267D03*
X034805Y035267D03*
X033805Y035267D03*
X032805Y035267D03*
X032805Y036267D03*
X033805Y036267D03*
D32*
X030649Y032165D03*
X028405Y032165D03*
D33*
X031279Y037342D03*
X026102Y037736D03*
D34*
X027937Y036220D03*
X028370Y036062D03*
X028803Y036220D03*
X029236Y036299D03*
X029669Y036220D03*
X030102Y036299D03*
X030535Y036220D03*
X030968Y036220D03*
D35*
X025220Y036376D03*
X025220Y034876D03*
X023220Y034876D03*
X023220Y036376D03*
D36*
X023840Y037120D03*
X024666Y037120D03*
D37*
X038805Y021027D02*
X038805Y020507D01*
X039805Y020507D02*
X039805Y021027D01*
X040805Y021027D02*
X040805Y020507D01*
X041805Y020507D02*
X041805Y021027D01*
X042805Y021027D02*
X042805Y020507D01*
X043805Y020507D02*
X043805Y021027D01*
X044805Y021027D02*
X044805Y020507D01*
X045805Y020507D02*
X045805Y021027D01*
X046805Y021027D02*
X046805Y020507D01*
X047805Y020507D02*
X047805Y021027D01*
D38*
X030452Y026122D03*
X029704Y026122D03*
X029704Y027067D03*
X030078Y027067D03*
X030452Y027067D03*
D39*
X042224Y023177D03*
X042224Y022677D03*
X042224Y022177D03*
X042224Y021677D03*
X044284Y021677D03*
X044284Y022177D03*
X044284Y022677D03*
X044284Y023177D03*
D40*
X045325Y023012D03*
X045925Y023012D03*
D41*
X045625Y023012D03*
D42*
X049726Y020592D03*
X049726Y036734D03*
X021380Y036734D03*
X021380Y020592D03*
D43*
X042380Y024267D03*
X044230Y024267D03*
D44*
X049691Y028186D03*
X049691Y028441D03*
X049691Y028697D03*
X049691Y028953D03*
X049691Y029209D03*
D45*
X050735Y030075D03*
X050735Y027319D03*
D46*
X049672Y027713D03*
X049672Y029682D03*
D47*
X050735Y029091D03*
X050735Y028304D03*
M02*
