G75*
G70*
%OFA0B0*%
%FSLAX24Y24*%
%IPPOS*%
%LPD*%
%AMOC8*
5,1,8,0,0,1.08239X$1,22.5*
%
%ADD10C,0.0000*%
%ADD11C,0.1660*%
%ADD12C,0.1502*%
%ADD13C,0.0560*%
%ADD14OC8,0.0560*%
%ADD15C,0.0520*%
%ADD16C,0.0250*%
%ADD17C,0.0768*%
%ADD18C,0.0620*%
%ADD19C,0.0197*%
%ADD20C,0.0238*%
%ADD21C,0.0098*%
D10*
X005612Y019785D02*
X033958Y019785D01*
X033328Y021360D02*
X033330Y021410D01*
X033336Y021460D01*
X033346Y021509D01*
X033360Y021557D01*
X033377Y021604D01*
X033398Y021649D01*
X033423Y021693D01*
X033451Y021734D01*
X033483Y021773D01*
X033517Y021810D01*
X033554Y021844D01*
X033594Y021874D01*
X033636Y021901D01*
X033680Y021925D01*
X033726Y021946D01*
X033773Y021962D01*
X033821Y021975D01*
X033871Y021984D01*
X033920Y021989D01*
X033971Y021990D01*
X034021Y021987D01*
X034070Y021980D01*
X034119Y021969D01*
X034167Y021954D01*
X034213Y021936D01*
X034258Y021914D01*
X034301Y021888D01*
X034342Y021859D01*
X034381Y021827D01*
X034417Y021792D01*
X034449Y021754D01*
X034479Y021714D01*
X034506Y021671D01*
X034529Y021627D01*
X034548Y021581D01*
X034564Y021533D01*
X034576Y021484D01*
X034584Y021435D01*
X034588Y021385D01*
X034588Y021335D01*
X034584Y021285D01*
X034576Y021236D01*
X034564Y021187D01*
X034548Y021139D01*
X034529Y021093D01*
X034506Y021049D01*
X034479Y021006D01*
X034449Y020966D01*
X034417Y020928D01*
X034381Y020893D01*
X034342Y020861D01*
X034301Y020832D01*
X034258Y020806D01*
X034213Y020784D01*
X034167Y020766D01*
X034119Y020751D01*
X034070Y020740D01*
X034021Y020733D01*
X033971Y020730D01*
X033920Y020731D01*
X033871Y020736D01*
X033821Y020745D01*
X033773Y020758D01*
X033726Y020774D01*
X033680Y020795D01*
X033636Y020819D01*
X033594Y020846D01*
X033554Y020876D01*
X033517Y020910D01*
X033483Y020947D01*
X033451Y020986D01*
X033423Y021027D01*
X033398Y021071D01*
X033377Y021116D01*
X033360Y021163D01*
X033346Y021211D01*
X033336Y021260D01*
X033330Y021310D01*
X033328Y021360D01*
X033958Y019785D02*
X034035Y019787D01*
X034112Y019793D01*
X034189Y019802D01*
X034265Y019815D01*
X034341Y019832D01*
X034415Y019853D01*
X034489Y019877D01*
X034561Y019905D01*
X034631Y019936D01*
X034700Y019971D01*
X034768Y020009D01*
X034833Y020050D01*
X034896Y020095D01*
X034957Y020143D01*
X035016Y020193D01*
X035072Y020246D01*
X035125Y020302D01*
X035175Y020361D01*
X035223Y020422D01*
X035268Y020485D01*
X035309Y020550D01*
X035347Y020618D01*
X035382Y020687D01*
X035413Y020757D01*
X035441Y020829D01*
X035465Y020903D01*
X035486Y020977D01*
X035503Y021053D01*
X035516Y021129D01*
X035525Y021206D01*
X035531Y021283D01*
X035533Y021360D01*
X035533Y022639D01*
X035534Y022656D01*
X035539Y022673D01*
X035546Y022688D01*
X035556Y022702D01*
X035568Y022714D01*
X035582Y022724D01*
X035597Y022731D01*
X035614Y022736D01*
X035631Y022737D01*
X035631Y022738D02*
X036222Y022738D01*
X036222Y022737D02*
X036239Y022736D01*
X036256Y022731D01*
X036271Y022724D01*
X036285Y022714D01*
X036297Y022702D01*
X036307Y022688D01*
X036314Y022673D01*
X036319Y022656D01*
X036320Y022639D01*
X036320Y022147D01*
X036322Y022108D01*
X036328Y022070D01*
X036337Y022033D01*
X036350Y021996D01*
X036367Y021961D01*
X036386Y021928D01*
X036409Y021897D01*
X036435Y021868D01*
X036464Y021842D01*
X036495Y021819D01*
X036528Y021800D01*
X036563Y021783D01*
X036600Y021770D01*
X036637Y021761D01*
X036675Y021755D01*
X036714Y021753D01*
X036714Y021754D02*
X038289Y021754D01*
X038289Y021753D02*
X038328Y021755D01*
X038366Y021761D01*
X038403Y021770D01*
X038440Y021783D01*
X038475Y021800D01*
X038508Y021819D01*
X038539Y021842D01*
X038568Y021868D01*
X038594Y021897D01*
X038617Y021928D01*
X038636Y021961D01*
X038653Y021996D01*
X038666Y022033D01*
X038675Y022070D01*
X038681Y022108D01*
X038683Y022147D01*
X038683Y036714D01*
X038681Y036753D01*
X038675Y036791D01*
X038666Y036828D01*
X038653Y036865D01*
X038636Y036900D01*
X038617Y036933D01*
X038594Y036964D01*
X038568Y036993D01*
X038539Y037019D01*
X038508Y037042D01*
X038475Y037061D01*
X038440Y037078D01*
X038403Y037091D01*
X038366Y037100D01*
X038328Y037106D01*
X038289Y037108D01*
X036714Y037108D01*
X036675Y037106D01*
X036637Y037100D01*
X036600Y037091D01*
X036563Y037078D01*
X036528Y037061D01*
X036495Y037042D01*
X036464Y037019D01*
X036435Y036993D01*
X036409Y036964D01*
X036386Y036933D01*
X036367Y036900D01*
X036350Y036865D01*
X036337Y036828D01*
X036328Y036791D01*
X036322Y036753D01*
X036320Y036714D01*
X036320Y036616D01*
X036319Y036599D01*
X036314Y036582D01*
X036307Y036567D01*
X036297Y036553D01*
X036285Y036541D01*
X036271Y036531D01*
X036256Y036524D01*
X036239Y036519D01*
X036222Y036518D01*
X036222Y036517D02*
X035631Y036517D01*
X035631Y036518D02*
X035614Y036519D01*
X035597Y036524D01*
X035582Y036531D01*
X035568Y036541D01*
X035556Y036553D01*
X035546Y036567D01*
X035539Y036582D01*
X035534Y036599D01*
X035533Y036616D01*
X035533Y037502D01*
X035376Y036320D02*
X035378Y036345D01*
X035384Y036369D01*
X035393Y036391D01*
X035406Y036412D01*
X035422Y036431D01*
X035441Y036447D01*
X035462Y036460D01*
X035484Y036469D01*
X035508Y036475D01*
X035533Y036477D01*
X035558Y036475D01*
X035582Y036469D01*
X035604Y036460D01*
X035625Y036447D01*
X035644Y036431D01*
X035660Y036412D01*
X035673Y036391D01*
X035682Y036369D01*
X035688Y036345D01*
X035690Y036320D01*
X035688Y036295D01*
X035682Y036271D01*
X035673Y036249D01*
X035660Y036228D01*
X035644Y036209D01*
X035625Y036193D01*
X035604Y036180D01*
X035582Y036171D01*
X035558Y036165D01*
X035533Y036163D01*
X035508Y036165D01*
X035484Y036171D01*
X035462Y036180D01*
X035441Y036193D01*
X035422Y036209D01*
X035406Y036228D01*
X035393Y036249D01*
X035384Y036271D01*
X035378Y036295D01*
X035376Y036320D01*
X035376Y035927D02*
X035378Y035952D01*
X035384Y035976D01*
X035393Y035998D01*
X035406Y036019D01*
X035422Y036038D01*
X035441Y036054D01*
X035462Y036067D01*
X035484Y036076D01*
X035508Y036082D01*
X035533Y036084D01*
X035558Y036082D01*
X035582Y036076D01*
X035604Y036067D01*
X035625Y036054D01*
X035644Y036038D01*
X035660Y036019D01*
X035673Y035998D01*
X035682Y035976D01*
X035688Y035952D01*
X035690Y035927D01*
X035688Y035902D01*
X035682Y035878D01*
X035673Y035856D01*
X035660Y035835D01*
X035644Y035816D01*
X035625Y035800D01*
X035604Y035787D01*
X035582Y035778D01*
X035558Y035772D01*
X035533Y035770D01*
X035508Y035772D01*
X035484Y035778D01*
X035462Y035787D01*
X035441Y035800D01*
X035422Y035816D01*
X035406Y035835D01*
X035393Y035856D01*
X035384Y035878D01*
X035378Y035902D01*
X035376Y035927D01*
X035376Y035533D02*
X035378Y035558D01*
X035384Y035582D01*
X035393Y035604D01*
X035406Y035625D01*
X035422Y035644D01*
X035441Y035660D01*
X035462Y035673D01*
X035484Y035682D01*
X035508Y035688D01*
X035533Y035690D01*
X035558Y035688D01*
X035582Y035682D01*
X035604Y035673D01*
X035625Y035660D01*
X035644Y035644D01*
X035660Y035625D01*
X035673Y035604D01*
X035682Y035582D01*
X035688Y035558D01*
X035690Y035533D01*
X035688Y035508D01*
X035682Y035484D01*
X035673Y035462D01*
X035660Y035441D01*
X035644Y035422D01*
X035625Y035406D01*
X035604Y035393D01*
X035582Y035384D01*
X035558Y035378D01*
X035533Y035376D01*
X035508Y035378D01*
X035484Y035384D01*
X035462Y035393D01*
X035441Y035406D01*
X035422Y035422D01*
X035406Y035441D01*
X035393Y035462D01*
X035384Y035484D01*
X035378Y035508D01*
X035376Y035533D01*
X035376Y035139D02*
X035378Y035164D01*
X035384Y035188D01*
X035393Y035210D01*
X035406Y035231D01*
X035422Y035250D01*
X035441Y035266D01*
X035462Y035279D01*
X035484Y035288D01*
X035508Y035294D01*
X035533Y035296D01*
X035558Y035294D01*
X035582Y035288D01*
X035604Y035279D01*
X035625Y035266D01*
X035644Y035250D01*
X035660Y035231D01*
X035673Y035210D01*
X035682Y035188D01*
X035688Y035164D01*
X035690Y035139D01*
X035688Y035114D01*
X035682Y035090D01*
X035673Y035068D01*
X035660Y035047D01*
X035644Y035028D01*
X035625Y035012D01*
X035604Y034999D01*
X035582Y034990D01*
X035558Y034984D01*
X035533Y034982D01*
X035508Y034984D01*
X035484Y034990D01*
X035462Y034999D01*
X035441Y035012D01*
X035422Y035028D01*
X035406Y035047D01*
X035393Y035068D01*
X035384Y035090D01*
X035378Y035114D01*
X035376Y035139D01*
X035376Y034746D02*
X035378Y034771D01*
X035384Y034795D01*
X035393Y034817D01*
X035406Y034838D01*
X035422Y034857D01*
X035441Y034873D01*
X035462Y034886D01*
X035484Y034895D01*
X035508Y034901D01*
X035533Y034903D01*
X035558Y034901D01*
X035582Y034895D01*
X035604Y034886D01*
X035625Y034873D01*
X035644Y034857D01*
X035660Y034838D01*
X035673Y034817D01*
X035682Y034795D01*
X035688Y034771D01*
X035690Y034746D01*
X035688Y034721D01*
X035682Y034697D01*
X035673Y034675D01*
X035660Y034654D01*
X035644Y034635D01*
X035625Y034619D01*
X035604Y034606D01*
X035582Y034597D01*
X035558Y034591D01*
X035533Y034589D01*
X035508Y034591D01*
X035484Y034597D01*
X035462Y034606D01*
X035441Y034619D01*
X035422Y034635D01*
X035406Y034654D01*
X035393Y034675D01*
X035384Y034697D01*
X035378Y034721D01*
X035376Y034746D01*
X035631Y034549D02*
X036222Y034549D01*
X036222Y034548D02*
X036239Y034547D01*
X036256Y034542D01*
X036271Y034535D01*
X036285Y034525D01*
X036297Y034513D01*
X036307Y034499D01*
X036314Y034484D01*
X036319Y034467D01*
X036320Y034450D01*
X036320Y024805D01*
X036319Y024788D01*
X036314Y024771D01*
X036307Y024756D01*
X036297Y024742D01*
X036285Y024730D01*
X036271Y024720D01*
X036256Y024713D01*
X036239Y024708D01*
X036222Y024707D01*
X036222Y024706D02*
X035631Y024706D01*
X035631Y024707D02*
X035614Y024708D01*
X035597Y024713D01*
X035582Y024720D01*
X035568Y024730D01*
X035556Y024742D01*
X035546Y024756D01*
X035539Y024771D01*
X035534Y024788D01*
X035533Y024805D01*
X035533Y034450D01*
X035534Y034467D01*
X035539Y034484D01*
X035546Y034499D01*
X035556Y034513D01*
X035568Y034525D01*
X035582Y034535D01*
X035597Y034542D01*
X035614Y034547D01*
X035631Y034548D01*
X037010Y035533D02*
X037012Y035577D01*
X037018Y035621D01*
X037028Y035664D01*
X037041Y035706D01*
X037059Y035746D01*
X037080Y035785D01*
X037104Y035822D01*
X037131Y035857D01*
X037162Y035889D01*
X037195Y035918D01*
X037231Y035944D01*
X037269Y035966D01*
X037309Y035985D01*
X037350Y036001D01*
X037393Y036013D01*
X037436Y036021D01*
X037480Y036025D01*
X037524Y036025D01*
X037568Y036021D01*
X037611Y036013D01*
X037654Y036001D01*
X037695Y035985D01*
X037735Y035966D01*
X037773Y035944D01*
X037809Y035918D01*
X037842Y035889D01*
X037873Y035857D01*
X037900Y035822D01*
X037924Y035785D01*
X037945Y035746D01*
X037963Y035706D01*
X037976Y035664D01*
X037986Y035621D01*
X037992Y035577D01*
X037994Y035533D01*
X037992Y035489D01*
X037986Y035445D01*
X037976Y035402D01*
X037963Y035360D01*
X037945Y035320D01*
X037924Y035281D01*
X037900Y035244D01*
X037873Y035209D01*
X037842Y035177D01*
X037809Y035148D01*
X037773Y035122D01*
X037735Y035100D01*
X037695Y035081D01*
X037654Y035065D01*
X037611Y035053D01*
X037568Y035045D01*
X037524Y035041D01*
X037480Y035041D01*
X037436Y035045D01*
X037393Y035053D01*
X037350Y035065D01*
X037309Y035081D01*
X037269Y035100D01*
X037231Y035122D01*
X037195Y035148D01*
X037162Y035177D01*
X037131Y035209D01*
X037104Y035244D01*
X037080Y035281D01*
X037059Y035320D01*
X037041Y035360D01*
X037028Y035402D01*
X037018Y035445D01*
X037012Y035489D01*
X037010Y035533D01*
X036320Y031202D02*
X036320Y027659D01*
X035376Y024509D02*
X035378Y024534D01*
X035384Y024558D01*
X035393Y024580D01*
X035406Y024601D01*
X035422Y024620D01*
X035441Y024636D01*
X035462Y024649D01*
X035484Y024658D01*
X035508Y024664D01*
X035533Y024666D01*
X035558Y024664D01*
X035582Y024658D01*
X035604Y024649D01*
X035625Y024636D01*
X035644Y024620D01*
X035660Y024601D01*
X035673Y024580D01*
X035682Y024558D01*
X035688Y024534D01*
X035690Y024509D01*
X035688Y024484D01*
X035682Y024460D01*
X035673Y024438D01*
X035660Y024417D01*
X035644Y024398D01*
X035625Y024382D01*
X035604Y024369D01*
X035582Y024360D01*
X035558Y024354D01*
X035533Y024352D01*
X035508Y024354D01*
X035484Y024360D01*
X035462Y024369D01*
X035441Y024382D01*
X035422Y024398D01*
X035406Y024417D01*
X035393Y024438D01*
X035384Y024460D01*
X035378Y024484D01*
X035376Y024509D01*
X035376Y024116D02*
X035378Y024141D01*
X035384Y024165D01*
X035393Y024187D01*
X035406Y024208D01*
X035422Y024227D01*
X035441Y024243D01*
X035462Y024256D01*
X035484Y024265D01*
X035508Y024271D01*
X035533Y024273D01*
X035558Y024271D01*
X035582Y024265D01*
X035604Y024256D01*
X035625Y024243D01*
X035644Y024227D01*
X035660Y024208D01*
X035673Y024187D01*
X035682Y024165D01*
X035688Y024141D01*
X035690Y024116D01*
X035688Y024091D01*
X035682Y024067D01*
X035673Y024045D01*
X035660Y024024D01*
X035644Y024005D01*
X035625Y023989D01*
X035604Y023976D01*
X035582Y023967D01*
X035558Y023961D01*
X035533Y023959D01*
X035508Y023961D01*
X035484Y023967D01*
X035462Y023976D01*
X035441Y023989D01*
X035422Y024005D01*
X035406Y024024D01*
X035393Y024045D01*
X035384Y024067D01*
X035378Y024091D01*
X035376Y024116D01*
X035376Y023722D02*
X035378Y023747D01*
X035384Y023771D01*
X035393Y023793D01*
X035406Y023814D01*
X035422Y023833D01*
X035441Y023849D01*
X035462Y023862D01*
X035484Y023871D01*
X035508Y023877D01*
X035533Y023879D01*
X035558Y023877D01*
X035582Y023871D01*
X035604Y023862D01*
X035625Y023849D01*
X035644Y023833D01*
X035660Y023814D01*
X035673Y023793D01*
X035682Y023771D01*
X035688Y023747D01*
X035690Y023722D01*
X035688Y023697D01*
X035682Y023673D01*
X035673Y023651D01*
X035660Y023630D01*
X035644Y023611D01*
X035625Y023595D01*
X035604Y023582D01*
X035582Y023573D01*
X035558Y023567D01*
X035533Y023565D01*
X035508Y023567D01*
X035484Y023573D01*
X035462Y023582D01*
X035441Y023595D01*
X035422Y023611D01*
X035406Y023630D01*
X035393Y023651D01*
X035384Y023673D01*
X035378Y023697D01*
X035376Y023722D01*
X035376Y023328D02*
X035378Y023353D01*
X035384Y023377D01*
X035393Y023399D01*
X035406Y023420D01*
X035422Y023439D01*
X035441Y023455D01*
X035462Y023468D01*
X035484Y023477D01*
X035508Y023483D01*
X035533Y023485D01*
X035558Y023483D01*
X035582Y023477D01*
X035604Y023468D01*
X035625Y023455D01*
X035644Y023439D01*
X035660Y023420D01*
X035673Y023399D01*
X035682Y023377D01*
X035688Y023353D01*
X035690Y023328D01*
X035688Y023303D01*
X035682Y023279D01*
X035673Y023257D01*
X035660Y023236D01*
X035644Y023217D01*
X035625Y023201D01*
X035604Y023188D01*
X035582Y023179D01*
X035558Y023173D01*
X035533Y023171D01*
X035508Y023173D01*
X035484Y023179D01*
X035462Y023188D01*
X035441Y023201D01*
X035422Y023217D01*
X035406Y023236D01*
X035393Y023257D01*
X035384Y023279D01*
X035378Y023303D01*
X035376Y023328D01*
X035376Y022935D02*
X035378Y022960D01*
X035384Y022984D01*
X035393Y023006D01*
X035406Y023027D01*
X035422Y023046D01*
X035441Y023062D01*
X035462Y023075D01*
X035484Y023084D01*
X035508Y023090D01*
X035533Y023092D01*
X035558Y023090D01*
X035582Y023084D01*
X035604Y023075D01*
X035625Y023062D01*
X035644Y023046D01*
X035660Y023027D01*
X035673Y023006D01*
X035682Y022984D01*
X035688Y022960D01*
X035690Y022935D01*
X035688Y022910D01*
X035682Y022886D01*
X035673Y022864D01*
X035660Y022843D01*
X035644Y022824D01*
X035625Y022808D01*
X035604Y022795D01*
X035582Y022786D01*
X035558Y022780D01*
X035533Y022778D01*
X035508Y022780D01*
X035484Y022786D01*
X035462Y022795D01*
X035441Y022808D01*
X035422Y022824D01*
X035406Y022843D01*
X035393Y022864D01*
X035384Y022886D01*
X035378Y022910D01*
X035376Y022935D01*
X037010Y023722D02*
X037012Y023766D01*
X037018Y023810D01*
X037028Y023853D01*
X037041Y023895D01*
X037059Y023935D01*
X037080Y023974D01*
X037104Y024011D01*
X037131Y024046D01*
X037162Y024078D01*
X037195Y024107D01*
X037231Y024133D01*
X037269Y024155D01*
X037309Y024174D01*
X037350Y024190D01*
X037393Y024202D01*
X037436Y024210D01*
X037480Y024214D01*
X037524Y024214D01*
X037568Y024210D01*
X037611Y024202D01*
X037654Y024190D01*
X037695Y024174D01*
X037735Y024155D01*
X037773Y024133D01*
X037809Y024107D01*
X037842Y024078D01*
X037873Y024046D01*
X037900Y024011D01*
X037924Y023974D01*
X037945Y023935D01*
X037963Y023895D01*
X037976Y023853D01*
X037986Y023810D01*
X037992Y023766D01*
X037994Y023722D01*
X037992Y023678D01*
X037986Y023634D01*
X037976Y023591D01*
X037963Y023549D01*
X037945Y023509D01*
X037924Y023470D01*
X037900Y023433D01*
X037873Y023398D01*
X037842Y023366D01*
X037809Y023337D01*
X037773Y023311D01*
X037735Y023289D01*
X037695Y023270D01*
X037654Y023254D01*
X037611Y023242D01*
X037568Y023234D01*
X037524Y023230D01*
X037480Y023230D01*
X037436Y023234D01*
X037393Y023242D01*
X037350Y023254D01*
X037309Y023270D01*
X037269Y023289D01*
X037231Y023311D01*
X037195Y023337D01*
X037162Y023366D01*
X037131Y023398D01*
X037104Y023433D01*
X037080Y023470D01*
X037059Y023509D01*
X037041Y023549D01*
X037028Y023591D01*
X037018Y023634D01*
X037012Y023678D01*
X037010Y023722D01*
X033328Y037502D02*
X033330Y037552D01*
X033336Y037602D01*
X033346Y037651D01*
X033360Y037699D01*
X033377Y037746D01*
X033398Y037791D01*
X033423Y037835D01*
X033451Y037876D01*
X033483Y037915D01*
X033517Y037952D01*
X033554Y037986D01*
X033594Y038016D01*
X033636Y038043D01*
X033680Y038067D01*
X033726Y038088D01*
X033773Y038104D01*
X033821Y038117D01*
X033871Y038126D01*
X033920Y038131D01*
X033971Y038132D01*
X034021Y038129D01*
X034070Y038122D01*
X034119Y038111D01*
X034167Y038096D01*
X034213Y038078D01*
X034258Y038056D01*
X034301Y038030D01*
X034342Y038001D01*
X034381Y037969D01*
X034417Y037934D01*
X034449Y037896D01*
X034479Y037856D01*
X034506Y037813D01*
X034529Y037769D01*
X034548Y037723D01*
X034564Y037675D01*
X034576Y037626D01*
X034584Y037577D01*
X034588Y037527D01*
X034588Y037477D01*
X034584Y037427D01*
X034576Y037378D01*
X034564Y037329D01*
X034548Y037281D01*
X034529Y037235D01*
X034506Y037191D01*
X034479Y037148D01*
X034449Y037108D01*
X034417Y037070D01*
X034381Y037035D01*
X034342Y037003D01*
X034301Y036974D01*
X034258Y036948D01*
X034213Y036926D01*
X034167Y036908D01*
X034119Y036893D01*
X034070Y036882D01*
X034021Y036875D01*
X033971Y036872D01*
X033920Y036873D01*
X033871Y036878D01*
X033821Y036887D01*
X033773Y036900D01*
X033726Y036916D01*
X033680Y036937D01*
X033636Y036961D01*
X033594Y036988D01*
X033554Y037018D01*
X033517Y037052D01*
X033483Y037089D01*
X033451Y037128D01*
X033423Y037169D01*
X033398Y037213D01*
X033377Y037258D01*
X033360Y037305D01*
X033346Y037353D01*
X033336Y037402D01*
X033330Y037452D01*
X033328Y037502D01*
X033958Y039077D02*
X034035Y039075D01*
X034112Y039069D01*
X034189Y039060D01*
X034265Y039047D01*
X034341Y039030D01*
X034415Y039009D01*
X034489Y038985D01*
X034561Y038957D01*
X034631Y038926D01*
X034700Y038891D01*
X034768Y038853D01*
X034833Y038812D01*
X034896Y038767D01*
X034957Y038719D01*
X035016Y038669D01*
X035072Y038616D01*
X035125Y038560D01*
X035175Y038501D01*
X035223Y038440D01*
X035268Y038377D01*
X035309Y038312D01*
X035347Y038244D01*
X035382Y038175D01*
X035413Y038105D01*
X035441Y038033D01*
X035465Y037959D01*
X035486Y037885D01*
X035503Y037809D01*
X035516Y037733D01*
X035525Y037656D01*
X035531Y037579D01*
X035533Y037502D01*
X033958Y039076D02*
X005612Y039076D01*
X004982Y037502D02*
X004984Y037552D01*
X004990Y037602D01*
X005000Y037651D01*
X005014Y037699D01*
X005031Y037746D01*
X005052Y037791D01*
X005077Y037835D01*
X005105Y037876D01*
X005137Y037915D01*
X005171Y037952D01*
X005208Y037986D01*
X005248Y038016D01*
X005290Y038043D01*
X005334Y038067D01*
X005380Y038088D01*
X005427Y038104D01*
X005475Y038117D01*
X005525Y038126D01*
X005574Y038131D01*
X005625Y038132D01*
X005675Y038129D01*
X005724Y038122D01*
X005773Y038111D01*
X005821Y038096D01*
X005867Y038078D01*
X005912Y038056D01*
X005955Y038030D01*
X005996Y038001D01*
X006035Y037969D01*
X006071Y037934D01*
X006103Y037896D01*
X006133Y037856D01*
X006160Y037813D01*
X006183Y037769D01*
X006202Y037723D01*
X006218Y037675D01*
X006230Y037626D01*
X006238Y037577D01*
X006242Y037527D01*
X006242Y037477D01*
X006238Y037427D01*
X006230Y037378D01*
X006218Y037329D01*
X006202Y037281D01*
X006183Y037235D01*
X006160Y037191D01*
X006133Y037148D01*
X006103Y037108D01*
X006071Y037070D01*
X006035Y037035D01*
X005996Y037003D01*
X005955Y036974D01*
X005912Y036948D01*
X005867Y036926D01*
X005821Y036908D01*
X005773Y036893D01*
X005724Y036882D01*
X005675Y036875D01*
X005625Y036872D01*
X005574Y036873D01*
X005525Y036878D01*
X005475Y036887D01*
X005427Y036900D01*
X005380Y036916D01*
X005334Y036937D01*
X005290Y036961D01*
X005248Y036988D01*
X005208Y037018D01*
X005171Y037052D01*
X005137Y037089D01*
X005105Y037128D01*
X005077Y037169D01*
X005052Y037213D01*
X005031Y037258D01*
X005014Y037305D01*
X005000Y037353D01*
X004990Y037402D01*
X004984Y037452D01*
X004982Y037502D01*
X004037Y037502D02*
X004039Y037579D01*
X004045Y037656D01*
X004054Y037733D01*
X004067Y037809D01*
X004084Y037885D01*
X004105Y037959D01*
X004129Y038033D01*
X004157Y038105D01*
X004188Y038175D01*
X004223Y038244D01*
X004261Y038312D01*
X004302Y038377D01*
X004347Y038440D01*
X004395Y038501D01*
X004445Y038560D01*
X004498Y038616D01*
X004554Y038669D01*
X004613Y038719D01*
X004674Y038767D01*
X004737Y038812D01*
X004802Y038853D01*
X004870Y038891D01*
X004939Y038926D01*
X005009Y038957D01*
X005081Y038985D01*
X005155Y039009D01*
X005229Y039030D01*
X005305Y039047D01*
X005381Y039060D01*
X005458Y039069D01*
X005535Y039075D01*
X005612Y039077D01*
X004037Y037502D02*
X004037Y036616D01*
X004036Y036599D01*
X004031Y036582D01*
X004024Y036567D01*
X004014Y036553D01*
X004002Y036541D01*
X003988Y036531D01*
X003973Y036524D01*
X003956Y036519D01*
X003939Y036518D01*
X003939Y036517D02*
X003348Y036517D01*
X003348Y036518D02*
X003331Y036519D01*
X003314Y036524D01*
X003299Y036531D01*
X003285Y036541D01*
X003273Y036553D01*
X003263Y036567D01*
X003256Y036582D01*
X003251Y036599D01*
X003250Y036616D01*
X003250Y036714D01*
X003248Y036753D01*
X003242Y036791D01*
X003233Y036828D01*
X003220Y036865D01*
X003203Y036900D01*
X003184Y036933D01*
X003161Y036964D01*
X003135Y036993D01*
X003106Y037019D01*
X003075Y037042D01*
X003042Y037061D01*
X003007Y037078D01*
X002970Y037091D01*
X002933Y037100D01*
X002895Y037106D01*
X002856Y037108D01*
X001281Y037108D01*
X001242Y037106D01*
X001204Y037100D01*
X001167Y037091D01*
X001130Y037078D01*
X001095Y037061D01*
X001062Y037042D01*
X001031Y037019D01*
X001002Y036993D01*
X000976Y036964D01*
X000953Y036933D01*
X000934Y036900D01*
X000917Y036865D01*
X000904Y036828D01*
X000895Y036791D01*
X000889Y036753D01*
X000887Y036714D01*
X000887Y022147D01*
X000889Y022108D01*
X000895Y022070D01*
X000904Y022033D01*
X000917Y021996D01*
X000934Y021961D01*
X000953Y021928D01*
X000976Y021897D01*
X001002Y021868D01*
X001031Y021842D01*
X001062Y021819D01*
X001095Y021800D01*
X001130Y021783D01*
X001167Y021770D01*
X001204Y021761D01*
X001242Y021755D01*
X001281Y021753D01*
X001281Y021754D02*
X002856Y021754D01*
X002856Y021753D02*
X002895Y021755D01*
X002933Y021761D01*
X002970Y021770D01*
X003007Y021783D01*
X003042Y021800D01*
X003075Y021819D01*
X003106Y021842D01*
X003135Y021868D01*
X003161Y021897D01*
X003184Y021928D01*
X003203Y021961D01*
X003220Y021996D01*
X003233Y022033D01*
X003242Y022070D01*
X003248Y022108D01*
X003250Y022147D01*
X003250Y022639D01*
X003251Y022656D01*
X003256Y022673D01*
X003263Y022688D01*
X003273Y022702D01*
X003285Y022714D01*
X003299Y022724D01*
X003314Y022731D01*
X003331Y022736D01*
X003348Y022737D01*
X003348Y022738D02*
X003939Y022738D01*
X003939Y022737D02*
X003956Y022736D01*
X003973Y022731D01*
X003988Y022724D01*
X004002Y022714D01*
X004014Y022702D01*
X004024Y022688D01*
X004031Y022673D01*
X004036Y022656D01*
X004037Y022639D01*
X004037Y021360D01*
X003880Y022935D02*
X003882Y022960D01*
X003888Y022984D01*
X003897Y023006D01*
X003910Y023027D01*
X003926Y023046D01*
X003945Y023062D01*
X003966Y023075D01*
X003988Y023084D01*
X004012Y023090D01*
X004037Y023092D01*
X004062Y023090D01*
X004086Y023084D01*
X004108Y023075D01*
X004129Y023062D01*
X004148Y023046D01*
X004164Y023027D01*
X004177Y023006D01*
X004186Y022984D01*
X004192Y022960D01*
X004194Y022935D01*
X004192Y022910D01*
X004186Y022886D01*
X004177Y022864D01*
X004164Y022843D01*
X004148Y022824D01*
X004129Y022808D01*
X004108Y022795D01*
X004086Y022786D01*
X004062Y022780D01*
X004037Y022778D01*
X004012Y022780D01*
X003988Y022786D01*
X003966Y022795D01*
X003945Y022808D01*
X003926Y022824D01*
X003910Y022843D01*
X003897Y022864D01*
X003888Y022886D01*
X003882Y022910D01*
X003880Y022935D01*
X003880Y023328D02*
X003882Y023353D01*
X003888Y023377D01*
X003897Y023399D01*
X003910Y023420D01*
X003926Y023439D01*
X003945Y023455D01*
X003966Y023468D01*
X003988Y023477D01*
X004012Y023483D01*
X004037Y023485D01*
X004062Y023483D01*
X004086Y023477D01*
X004108Y023468D01*
X004129Y023455D01*
X004148Y023439D01*
X004164Y023420D01*
X004177Y023399D01*
X004186Y023377D01*
X004192Y023353D01*
X004194Y023328D01*
X004192Y023303D01*
X004186Y023279D01*
X004177Y023257D01*
X004164Y023236D01*
X004148Y023217D01*
X004129Y023201D01*
X004108Y023188D01*
X004086Y023179D01*
X004062Y023173D01*
X004037Y023171D01*
X004012Y023173D01*
X003988Y023179D01*
X003966Y023188D01*
X003945Y023201D01*
X003926Y023217D01*
X003910Y023236D01*
X003897Y023257D01*
X003888Y023279D01*
X003882Y023303D01*
X003880Y023328D01*
X003880Y023722D02*
X003882Y023747D01*
X003888Y023771D01*
X003897Y023793D01*
X003910Y023814D01*
X003926Y023833D01*
X003945Y023849D01*
X003966Y023862D01*
X003988Y023871D01*
X004012Y023877D01*
X004037Y023879D01*
X004062Y023877D01*
X004086Y023871D01*
X004108Y023862D01*
X004129Y023849D01*
X004148Y023833D01*
X004164Y023814D01*
X004177Y023793D01*
X004186Y023771D01*
X004192Y023747D01*
X004194Y023722D01*
X004192Y023697D01*
X004186Y023673D01*
X004177Y023651D01*
X004164Y023630D01*
X004148Y023611D01*
X004129Y023595D01*
X004108Y023582D01*
X004086Y023573D01*
X004062Y023567D01*
X004037Y023565D01*
X004012Y023567D01*
X003988Y023573D01*
X003966Y023582D01*
X003945Y023595D01*
X003926Y023611D01*
X003910Y023630D01*
X003897Y023651D01*
X003888Y023673D01*
X003882Y023697D01*
X003880Y023722D01*
X003880Y024116D02*
X003882Y024141D01*
X003888Y024165D01*
X003897Y024187D01*
X003910Y024208D01*
X003926Y024227D01*
X003945Y024243D01*
X003966Y024256D01*
X003988Y024265D01*
X004012Y024271D01*
X004037Y024273D01*
X004062Y024271D01*
X004086Y024265D01*
X004108Y024256D01*
X004129Y024243D01*
X004148Y024227D01*
X004164Y024208D01*
X004177Y024187D01*
X004186Y024165D01*
X004192Y024141D01*
X004194Y024116D01*
X004192Y024091D01*
X004186Y024067D01*
X004177Y024045D01*
X004164Y024024D01*
X004148Y024005D01*
X004129Y023989D01*
X004108Y023976D01*
X004086Y023967D01*
X004062Y023961D01*
X004037Y023959D01*
X004012Y023961D01*
X003988Y023967D01*
X003966Y023976D01*
X003945Y023989D01*
X003926Y024005D01*
X003910Y024024D01*
X003897Y024045D01*
X003888Y024067D01*
X003882Y024091D01*
X003880Y024116D01*
X003880Y024509D02*
X003882Y024534D01*
X003888Y024558D01*
X003897Y024580D01*
X003910Y024601D01*
X003926Y024620D01*
X003945Y024636D01*
X003966Y024649D01*
X003988Y024658D01*
X004012Y024664D01*
X004037Y024666D01*
X004062Y024664D01*
X004086Y024658D01*
X004108Y024649D01*
X004129Y024636D01*
X004148Y024620D01*
X004164Y024601D01*
X004177Y024580D01*
X004186Y024558D01*
X004192Y024534D01*
X004194Y024509D01*
X004192Y024484D01*
X004186Y024460D01*
X004177Y024438D01*
X004164Y024417D01*
X004148Y024398D01*
X004129Y024382D01*
X004108Y024369D01*
X004086Y024360D01*
X004062Y024354D01*
X004037Y024352D01*
X004012Y024354D01*
X003988Y024360D01*
X003966Y024369D01*
X003945Y024382D01*
X003926Y024398D01*
X003910Y024417D01*
X003897Y024438D01*
X003888Y024460D01*
X003882Y024484D01*
X003880Y024509D01*
X003939Y024706D02*
X003348Y024706D01*
X003348Y024707D02*
X003331Y024708D01*
X003314Y024713D01*
X003299Y024720D01*
X003285Y024730D01*
X003273Y024742D01*
X003263Y024756D01*
X003256Y024771D01*
X003251Y024788D01*
X003250Y024805D01*
X003250Y034450D01*
X003251Y034467D01*
X003256Y034484D01*
X003263Y034499D01*
X003273Y034513D01*
X003285Y034525D01*
X003299Y034535D01*
X003314Y034542D01*
X003331Y034547D01*
X003348Y034548D01*
X003348Y034549D02*
X003939Y034549D01*
X003939Y034548D02*
X003956Y034547D01*
X003973Y034542D01*
X003988Y034535D01*
X004002Y034525D01*
X004014Y034513D01*
X004024Y034499D01*
X004031Y034484D01*
X004036Y034467D01*
X004037Y034450D01*
X004037Y024805D01*
X004036Y024788D01*
X004031Y024771D01*
X004024Y024756D01*
X004014Y024742D01*
X004002Y024730D01*
X003988Y024720D01*
X003973Y024713D01*
X003956Y024708D01*
X003939Y024707D01*
X001577Y023722D02*
X001579Y023766D01*
X001585Y023810D01*
X001595Y023853D01*
X001608Y023895D01*
X001626Y023935D01*
X001647Y023974D01*
X001671Y024011D01*
X001698Y024046D01*
X001729Y024078D01*
X001762Y024107D01*
X001798Y024133D01*
X001836Y024155D01*
X001876Y024174D01*
X001917Y024190D01*
X001960Y024202D01*
X002003Y024210D01*
X002047Y024214D01*
X002091Y024214D01*
X002135Y024210D01*
X002178Y024202D01*
X002221Y024190D01*
X002262Y024174D01*
X002302Y024155D01*
X002340Y024133D01*
X002376Y024107D01*
X002409Y024078D01*
X002440Y024046D01*
X002467Y024011D01*
X002491Y023974D01*
X002512Y023935D01*
X002530Y023895D01*
X002543Y023853D01*
X002553Y023810D01*
X002559Y023766D01*
X002561Y023722D01*
X002559Y023678D01*
X002553Y023634D01*
X002543Y023591D01*
X002530Y023549D01*
X002512Y023509D01*
X002491Y023470D01*
X002467Y023433D01*
X002440Y023398D01*
X002409Y023366D01*
X002376Y023337D01*
X002340Y023311D01*
X002302Y023289D01*
X002262Y023270D01*
X002221Y023254D01*
X002178Y023242D01*
X002135Y023234D01*
X002091Y023230D01*
X002047Y023230D01*
X002003Y023234D01*
X001960Y023242D01*
X001917Y023254D01*
X001876Y023270D01*
X001836Y023289D01*
X001798Y023311D01*
X001762Y023337D01*
X001729Y023366D01*
X001698Y023398D01*
X001671Y023433D01*
X001647Y023470D01*
X001626Y023509D01*
X001608Y023549D01*
X001595Y023591D01*
X001585Y023634D01*
X001579Y023678D01*
X001577Y023722D01*
X004982Y021360D02*
X004984Y021410D01*
X004990Y021460D01*
X005000Y021509D01*
X005014Y021557D01*
X005031Y021604D01*
X005052Y021649D01*
X005077Y021693D01*
X005105Y021734D01*
X005137Y021773D01*
X005171Y021810D01*
X005208Y021844D01*
X005248Y021874D01*
X005290Y021901D01*
X005334Y021925D01*
X005380Y021946D01*
X005427Y021962D01*
X005475Y021975D01*
X005525Y021984D01*
X005574Y021989D01*
X005625Y021990D01*
X005675Y021987D01*
X005724Y021980D01*
X005773Y021969D01*
X005821Y021954D01*
X005867Y021936D01*
X005912Y021914D01*
X005955Y021888D01*
X005996Y021859D01*
X006035Y021827D01*
X006071Y021792D01*
X006103Y021754D01*
X006133Y021714D01*
X006160Y021671D01*
X006183Y021627D01*
X006202Y021581D01*
X006218Y021533D01*
X006230Y021484D01*
X006238Y021435D01*
X006242Y021385D01*
X006242Y021335D01*
X006238Y021285D01*
X006230Y021236D01*
X006218Y021187D01*
X006202Y021139D01*
X006183Y021093D01*
X006160Y021049D01*
X006133Y021006D01*
X006103Y020966D01*
X006071Y020928D01*
X006035Y020893D01*
X005996Y020861D01*
X005955Y020832D01*
X005912Y020806D01*
X005867Y020784D01*
X005821Y020766D01*
X005773Y020751D01*
X005724Y020740D01*
X005675Y020733D01*
X005625Y020730D01*
X005574Y020731D01*
X005525Y020736D01*
X005475Y020745D01*
X005427Y020758D01*
X005380Y020774D01*
X005334Y020795D01*
X005290Y020819D01*
X005248Y020846D01*
X005208Y020876D01*
X005171Y020910D01*
X005137Y020947D01*
X005105Y020986D01*
X005077Y021027D01*
X005052Y021071D01*
X005031Y021116D01*
X005014Y021163D01*
X005000Y021211D01*
X004990Y021260D01*
X004984Y021310D01*
X004982Y021360D01*
X004037Y021360D02*
X004039Y021283D01*
X004045Y021206D01*
X004054Y021129D01*
X004067Y021053D01*
X004084Y020977D01*
X004105Y020903D01*
X004129Y020829D01*
X004157Y020757D01*
X004188Y020687D01*
X004223Y020618D01*
X004261Y020550D01*
X004302Y020485D01*
X004347Y020422D01*
X004395Y020361D01*
X004445Y020302D01*
X004498Y020246D01*
X004554Y020193D01*
X004613Y020143D01*
X004674Y020095D01*
X004737Y020050D01*
X004802Y020009D01*
X004870Y019971D01*
X004939Y019936D01*
X005009Y019905D01*
X005081Y019877D01*
X005155Y019853D01*
X005229Y019832D01*
X005305Y019815D01*
X005381Y019802D01*
X005458Y019793D01*
X005535Y019787D01*
X005612Y019785D01*
X003880Y034746D02*
X003882Y034771D01*
X003888Y034795D01*
X003897Y034817D01*
X003910Y034838D01*
X003926Y034857D01*
X003945Y034873D01*
X003966Y034886D01*
X003988Y034895D01*
X004012Y034901D01*
X004037Y034903D01*
X004062Y034901D01*
X004086Y034895D01*
X004108Y034886D01*
X004129Y034873D01*
X004148Y034857D01*
X004164Y034838D01*
X004177Y034817D01*
X004186Y034795D01*
X004192Y034771D01*
X004194Y034746D01*
X004192Y034721D01*
X004186Y034697D01*
X004177Y034675D01*
X004164Y034654D01*
X004148Y034635D01*
X004129Y034619D01*
X004108Y034606D01*
X004086Y034597D01*
X004062Y034591D01*
X004037Y034589D01*
X004012Y034591D01*
X003988Y034597D01*
X003966Y034606D01*
X003945Y034619D01*
X003926Y034635D01*
X003910Y034654D01*
X003897Y034675D01*
X003888Y034697D01*
X003882Y034721D01*
X003880Y034746D01*
X003880Y035139D02*
X003882Y035164D01*
X003888Y035188D01*
X003897Y035210D01*
X003910Y035231D01*
X003926Y035250D01*
X003945Y035266D01*
X003966Y035279D01*
X003988Y035288D01*
X004012Y035294D01*
X004037Y035296D01*
X004062Y035294D01*
X004086Y035288D01*
X004108Y035279D01*
X004129Y035266D01*
X004148Y035250D01*
X004164Y035231D01*
X004177Y035210D01*
X004186Y035188D01*
X004192Y035164D01*
X004194Y035139D01*
X004192Y035114D01*
X004186Y035090D01*
X004177Y035068D01*
X004164Y035047D01*
X004148Y035028D01*
X004129Y035012D01*
X004108Y034999D01*
X004086Y034990D01*
X004062Y034984D01*
X004037Y034982D01*
X004012Y034984D01*
X003988Y034990D01*
X003966Y034999D01*
X003945Y035012D01*
X003926Y035028D01*
X003910Y035047D01*
X003897Y035068D01*
X003888Y035090D01*
X003882Y035114D01*
X003880Y035139D01*
X003880Y035533D02*
X003882Y035558D01*
X003888Y035582D01*
X003897Y035604D01*
X003910Y035625D01*
X003926Y035644D01*
X003945Y035660D01*
X003966Y035673D01*
X003988Y035682D01*
X004012Y035688D01*
X004037Y035690D01*
X004062Y035688D01*
X004086Y035682D01*
X004108Y035673D01*
X004129Y035660D01*
X004148Y035644D01*
X004164Y035625D01*
X004177Y035604D01*
X004186Y035582D01*
X004192Y035558D01*
X004194Y035533D01*
X004192Y035508D01*
X004186Y035484D01*
X004177Y035462D01*
X004164Y035441D01*
X004148Y035422D01*
X004129Y035406D01*
X004108Y035393D01*
X004086Y035384D01*
X004062Y035378D01*
X004037Y035376D01*
X004012Y035378D01*
X003988Y035384D01*
X003966Y035393D01*
X003945Y035406D01*
X003926Y035422D01*
X003910Y035441D01*
X003897Y035462D01*
X003888Y035484D01*
X003882Y035508D01*
X003880Y035533D01*
X003880Y035927D02*
X003882Y035952D01*
X003888Y035976D01*
X003897Y035998D01*
X003910Y036019D01*
X003926Y036038D01*
X003945Y036054D01*
X003966Y036067D01*
X003988Y036076D01*
X004012Y036082D01*
X004037Y036084D01*
X004062Y036082D01*
X004086Y036076D01*
X004108Y036067D01*
X004129Y036054D01*
X004148Y036038D01*
X004164Y036019D01*
X004177Y035998D01*
X004186Y035976D01*
X004192Y035952D01*
X004194Y035927D01*
X004192Y035902D01*
X004186Y035878D01*
X004177Y035856D01*
X004164Y035835D01*
X004148Y035816D01*
X004129Y035800D01*
X004108Y035787D01*
X004086Y035778D01*
X004062Y035772D01*
X004037Y035770D01*
X004012Y035772D01*
X003988Y035778D01*
X003966Y035787D01*
X003945Y035800D01*
X003926Y035816D01*
X003910Y035835D01*
X003897Y035856D01*
X003888Y035878D01*
X003882Y035902D01*
X003880Y035927D01*
X003880Y036320D02*
X003882Y036345D01*
X003888Y036369D01*
X003897Y036391D01*
X003910Y036412D01*
X003926Y036431D01*
X003945Y036447D01*
X003966Y036460D01*
X003988Y036469D01*
X004012Y036475D01*
X004037Y036477D01*
X004062Y036475D01*
X004086Y036469D01*
X004108Y036460D01*
X004129Y036447D01*
X004148Y036431D01*
X004164Y036412D01*
X004177Y036391D01*
X004186Y036369D01*
X004192Y036345D01*
X004194Y036320D01*
X004192Y036295D01*
X004186Y036271D01*
X004177Y036249D01*
X004164Y036228D01*
X004148Y036209D01*
X004129Y036193D01*
X004108Y036180D01*
X004086Y036171D01*
X004062Y036165D01*
X004037Y036163D01*
X004012Y036165D01*
X003988Y036171D01*
X003966Y036180D01*
X003945Y036193D01*
X003926Y036209D01*
X003910Y036228D01*
X003897Y036249D01*
X003888Y036271D01*
X003882Y036295D01*
X003880Y036320D01*
X001577Y035533D02*
X001579Y035577D01*
X001585Y035621D01*
X001595Y035664D01*
X001608Y035706D01*
X001626Y035746D01*
X001647Y035785D01*
X001671Y035822D01*
X001698Y035857D01*
X001729Y035889D01*
X001762Y035918D01*
X001798Y035944D01*
X001836Y035966D01*
X001876Y035985D01*
X001917Y036001D01*
X001960Y036013D01*
X002003Y036021D01*
X002047Y036025D01*
X002091Y036025D01*
X002135Y036021D01*
X002178Y036013D01*
X002221Y036001D01*
X002262Y035985D01*
X002302Y035966D01*
X002340Y035944D01*
X002376Y035918D01*
X002409Y035889D01*
X002440Y035857D01*
X002467Y035822D01*
X002491Y035785D01*
X002512Y035746D01*
X002530Y035706D01*
X002543Y035664D01*
X002553Y035621D01*
X002559Y035577D01*
X002561Y035533D01*
X002559Y035489D01*
X002553Y035445D01*
X002543Y035402D01*
X002530Y035360D01*
X002512Y035320D01*
X002491Y035281D01*
X002467Y035244D01*
X002440Y035209D01*
X002409Y035177D01*
X002376Y035148D01*
X002340Y035122D01*
X002302Y035100D01*
X002262Y035081D01*
X002221Y035065D01*
X002178Y035053D01*
X002135Y035045D01*
X002091Y035041D01*
X002047Y035041D01*
X002003Y035045D01*
X001960Y035053D01*
X001917Y035065D01*
X001876Y035081D01*
X001836Y035100D01*
X001798Y035122D01*
X001762Y035148D01*
X001729Y035177D01*
X001698Y035209D01*
X001671Y035244D01*
X001647Y035281D01*
X001626Y035320D01*
X001608Y035360D01*
X001595Y035402D01*
X001585Y035445D01*
X001579Y035489D01*
X001577Y035533D01*
D11*
X031433Y024458D03*
D12*
X032555Y026348D03*
X033893Y024458D03*
D13*
X032037Y036035D03*
D14*
X032037Y037035D03*
X031037Y037035D03*
X031037Y036035D03*
X030037Y036035D03*
X030037Y037035D03*
X029037Y037035D03*
X029037Y036035D03*
X028037Y036035D03*
X028037Y037035D03*
X027037Y037035D03*
X027037Y036035D03*
X026037Y036035D03*
X026037Y037035D03*
X025037Y037035D03*
X025037Y036035D03*
X024037Y036035D03*
X024037Y037035D03*
X023037Y037035D03*
X023037Y036035D03*
X022037Y036035D03*
X022037Y037035D03*
X021037Y037035D03*
X021037Y036035D03*
X020037Y036035D03*
X020037Y037035D03*
X019037Y037035D03*
X019037Y036035D03*
X018037Y036035D03*
X018037Y037035D03*
X017037Y037035D03*
X017037Y036035D03*
D15*
X023037Y021795D02*
X023037Y021275D01*
X024037Y021275D02*
X024037Y021795D01*
X025037Y021795D02*
X025037Y021275D01*
X026037Y021275D02*
X026037Y021795D01*
X027037Y021795D02*
X027037Y021275D01*
X028037Y021275D02*
X028037Y021795D01*
X029037Y021795D02*
X029037Y021275D01*
X030037Y021275D02*
X030037Y021795D01*
X031037Y021795D02*
X031037Y021275D01*
X032037Y021275D02*
X032037Y021795D01*
D16*
X032037Y021535D02*
X032037Y022259D01*
X033893Y024115D01*
X033893Y024458D01*
X032555Y025797D01*
X032555Y026348D01*
X032037Y021535D02*
X032037Y020811D01*
X031037Y020811D01*
X026037Y020811D01*
X026037Y020746D02*
X025946Y020746D01*
X026037Y021535D02*
X026037Y022259D01*
X024574Y023722D01*
X016734Y023722D01*
X016488Y023968D01*
X016340Y024116D01*
X016488Y023968D01*
X016340Y024116D02*
X015991Y024464D01*
X015905Y024464D01*
X015848Y024464D02*
X014667Y024464D01*
X014126Y024362D02*
X015159Y023328D01*
X019785Y023328D01*
X019982Y023328D01*
X019785Y023328D01*
X019982Y023328D02*
X021360Y023328D01*
X021754Y023328D01*
X021360Y023328D01*
X021754Y023328D02*
X024116Y023328D01*
X025037Y022407D01*
X025037Y021535D01*
X024539Y021960D02*
X024539Y020746D01*
X024539Y020733D01*
X024539Y021960D02*
X023823Y022677D01*
X019153Y022677D01*
X020059Y024997D02*
X018106Y026950D01*
X018106Y032156D01*
X020114Y034163D01*
X020465Y034163D01*
X020655Y034354D01*
X020656Y034354D01*
X020656Y034353D01*
X020655Y034353D01*
X020654Y034353D01*
X020654Y034354D01*
X020654Y034355D01*
X020655Y034355D01*
X020656Y034355D01*
X020656Y034354D01*
X020655Y034354D01*
X020656Y034354D02*
X020656Y034353D01*
X020655Y034353D01*
X020654Y034353D01*
X020654Y034354D01*
X020654Y034355D01*
X020655Y034355D01*
X020656Y034355D01*
X020656Y034354D01*
X020655Y034354D01*
X020656Y034354D02*
X020656Y034353D01*
X020655Y034353D01*
X020654Y034353D01*
X020654Y034354D01*
X020654Y034355D01*
X020655Y034355D01*
X020656Y034355D01*
X020656Y034354D01*
X020655Y034354D02*
X020662Y034346D01*
X020937Y034346D01*
X021144Y034346D01*
X023303Y032187D01*
X026253Y032187D01*
X025855Y032551D02*
X024879Y033527D01*
X024879Y034603D01*
X023310Y035098D02*
X023310Y035098D01*
X022538Y035098D01*
X021943Y034503D01*
X021821Y034626D01*
X020831Y034626D01*
X020684Y034479D01*
X020684Y034269D01*
X020230Y033815D01*
X020230Y029744D01*
X021644Y028330D01*
X023741Y026233D01*
X023741Y025572D01*
X024563Y025572D01*
X026696Y027705D01*
X026914Y027486D01*
X027973Y026427D01*
X026696Y027705D02*
X029588Y030597D01*
X025319Y024997D02*
X026079Y024237D01*
X026079Y022301D01*
X026037Y022259D01*
X025319Y024997D02*
X020059Y024997D01*
X020230Y029744D02*
X019501Y029744D01*
X017645Y032459D02*
X017615Y032459D01*
X017615Y032488D01*
X017615Y032459D02*
X017596Y032459D01*
X018179Y033053D02*
X018185Y033053D01*
X018192Y033061D01*
X020972Y033355D02*
X022310Y032017D01*
X022569Y032017D01*
X016570Y022232D02*
X014582Y022232D01*
X009921Y026893D01*
X009921Y029832D01*
X008586Y030301D02*
X008586Y030907D01*
X008586Y031399D01*
X008586Y034759D01*
X008812Y034984D01*
X008586Y031399D02*
X008586Y030907D01*
X008586Y030301D02*
X007515Y029230D01*
X007515Y028053D01*
X007515Y027659D01*
X007515Y022263D01*
X008196Y021582D01*
X007974Y021360D01*
X008196Y021582D02*
X008915Y020863D01*
X009346Y021135D02*
X009346Y021675D01*
X008884Y022138D01*
X009844Y022246D02*
X010927Y023328D01*
X012206Y023328D01*
X013929Y024559D02*
X013387Y025100D01*
X013387Y025691D01*
X013387Y028151D01*
X013344Y028195D01*
X013387Y025691D02*
X013387Y025100D01*
X013929Y024559D02*
X014126Y024362D01*
X013929Y024559D01*
X013486Y020733D02*
X013092Y020733D01*
X010336Y020733D02*
X009943Y020733D01*
X007515Y027659D02*
X007515Y028053D01*
X015057Y029909D02*
X015057Y029919D01*
X015096Y029958D01*
X031037Y021535D02*
X031037Y020811D01*
D17*
X034967Y028087D03*
X034967Y030843D03*
D18*
X033904Y030449D03*
X033904Y028481D03*
D19*
X026037Y022232D02*
X026037Y021535D01*
X026037Y020811D01*
X026037Y020746D01*
X025946Y020746D02*
X024539Y020746D01*
X024539Y020733D02*
X013486Y020733D01*
X013092Y020733D01*
X010336Y020733D01*
X009943Y020733D01*
X009045Y020733D01*
X008915Y020863D01*
X009346Y021135D02*
X016331Y021135D01*
X016331Y021015D01*
X016331Y021135D02*
X016730Y021535D01*
X023037Y021535D01*
X023340Y022232D02*
X016570Y022232D01*
X015905Y024464D02*
X015848Y024464D01*
X014667Y024464D01*
X013333Y028185D02*
X013344Y028195D01*
X015057Y029909D01*
X015096Y029958D02*
X017596Y032459D01*
X017615Y032488D02*
X018179Y033053D01*
X018192Y033061D02*
X019748Y034616D01*
X023340Y022232D02*
X024037Y021535D01*
D20*
X021754Y023328D03*
X019982Y023328D03*
X019153Y022677D03*
X020205Y025602D03*
X021359Y026660D03*
X022065Y027405D03*
X021291Y028227D03*
X020779Y028731D03*
X020464Y029046D03*
X020157Y029341D03*
X019501Y029744D03*
X019178Y028354D03*
X018437Y027076D03*
X019083Y026974D03*
X020549Y027461D03*
X021973Y028658D03*
X023583Y031527D03*
X022569Y032017D03*
X023402Y032917D03*
X023768Y032823D03*
X024081Y033870D03*
X024398Y033898D03*
X024879Y034603D03*
X025855Y032551D03*
X026253Y032187D03*
X026480Y028475D03*
X027105Y027677D03*
X027973Y026427D03*
X029588Y030597D03*
X023741Y025572D03*
X020972Y033355D03*
X021943Y034503D03*
X023310Y035098D03*
X019748Y034616D03*
X018179Y033053D03*
X017596Y032459D03*
X015057Y029909D03*
X014667Y024464D03*
X013929Y024559D03*
X012206Y023328D03*
X013486Y020733D03*
X016331Y021015D03*
X016340Y024116D03*
X010336Y020733D03*
X009844Y022246D03*
X008884Y022138D03*
X007974Y021360D03*
X009921Y026893D03*
X009921Y029832D03*
X008586Y030907D03*
X008812Y034984D03*
D21*
X006725Y036975D02*
X006731Y036990D01*
X006739Y037005D01*
X006738Y037009D01*
X006785Y037136D01*
X006789Y037138D01*
X006792Y037155D01*
X006798Y037171D01*
X006797Y037174D01*
X006825Y037307D01*
X006829Y037310D01*
X006830Y037326D01*
X006833Y037343D01*
X006831Y037346D01*
X006841Y037480D01*
X006842Y037481D01*
X006842Y037500D01*
X006843Y037518D01*
X006842Y037520D01*
X006842Y038927D01*
X032728Y038927D01*
X032728Y037520D01*
X032727Y037518D01*
X032728Y037500D01*
X032728Y037481D01*
X032729Y037480D01*
X032739Y037346D01*
X032737Y037343D01*
X032740Y037326D01*
X032742Y037310D01*
X032745Y037307D01*
X032773Y037174D01*
X032772Y037171D01*
X032778Y037155D01*
X032781Y037138D01*
X032785Y037136D01*
X032832Y037009D01*
X032831Y037005D01*
X032839Y036990D01*
X032845Y036975D01*
X032849Y036973D01*
X032914Y036854D01*
X032913Y036850D01*
X032923Y036836D01*
X032931Y036822D01*
X032935Y036820D01*
X033016Y036712D01*
X033016Y036708D01*
X033028Y036696D01*
X033038Y036682D01*
X033042Y036682D01*
X033138Y036586D01*
X033139Y036582D01*
X033153Y036572D01*
X033164Y036560D01*
X033168Y036560D01*
X033277Y036478D01*
X033278Y036475D01*
X033293Y036466D01*
X033307Y036456D01*
X033311Y036457D01*
X033430Y036392D01*
X033431Y036388D01*
X033447Y036382D01*
X033462Y036374D01*
X033466Y036375D01*
X033593Y036328D01*
X033595Y036325D01*
X033612Y036321D01*
X033627Y036315D01*
X033631Y036317D01*
X033764Y036288D01*
X033766Y036285D01*
X033783Y036284D01*
X033800Y036280D01*
X033803Y036282D01*
X033936Y036273D01*
X033938Y036271D01*
X033957Y036271D01*
X033975Y036270D01*
X033977Y036271D01*
X035226Y036271D01*
X035226Y036259D01*
X035273Y036147D01*
X035296Y036124D01*
X035273Y036100D01*
X035226Y035988D01*
X035226Y035866D01*
X035273Y035753D01*
X035296Y035730D01*
X035273Y035707D01*
X035226Y035594D01*
X035226Y035472D01*
X035273Y035359D01*
X035296Y035336D01*
X035273Y035313D01*
X035226Y035200D01*
X035226Y035078D01*
X035273Y034966D01*
X035296Y034943D01*
X035273Y034919D01*
X035226Y034807D01*
X035226Y034685D01*
X035273Y034572D01*
X035359Y034486D01*
X035384Y034476D01*
X035384Y031123D01*
X035246Y031261D01*
X035065Y031336D01*
X034869Y031336D01*
X034688Y031261D01*
X034549Y031122D01*
X034474Y030941D01*
X034474Y030745D01*
X034549Y030564D01*
X034688Y030425D01*
X034869Y030350D01*
X035065Y030350D01*
X035246Y030425D01*
X035384Y030563D01*
X035384Y028368D01*
X035246Y028505D01*
X035065Y028580D01*
X034869Y028580D01*
X034688Y028505D01*
X034549Y028366D01*
X034474Y028185D01*
X034474Y027989D01*
X034549Y027808D01*
X034688Y027669D01*
X034869Y027594D01*
X035065Y027594D01*
X035246Y027669D01*
X035384Y027807D01*
X035384Y024780D01*
X035359Y024769D01*
X035273Y024683D01*
X035226Y024570D01*
X035226Y024448D01*
X035273Y024336D01*
X035296Y024313D01*
X035273Y024289D01*
X035226Y024177D01*
X035226Y024055D01*
X035273Y023942D01*
X035296Y023919D01*
X035273Y023896D01*
X035226Y023783D01*
X035226Y023661D01*
X035273Y023548D01*
X035296Y023525D01*
X035273Y023502D01*
X035226Y023389D01*
X035226Y023267D01*
X035273Y023155D01*
X035296Y023131D01*
X035273Y023108D01*
X035226Y022996D01*
X035226Y022874D01*
X035273Y022761D01*
X035359Y022675D01*
X035384Y022664D01*
X035384Y022590D01*
X033977Y022590D01*
X033975Y022591D01*
X033957Y022590D01*
X033938Y022590D01*
X033936Y022589D01*
X033803Y022579D01*
X033800Y022581D01*
X033783Y022578D01*
X033766Y022577D01*
X033764Y022574D01*
X033631Y022545D01*
X033627Y022546D01*
X033612Y022540D01*
X033595Y022537D01*
X033593Y022533D01*
X033466Y022486D01*
X033462Y022487D01*
X033447Y022479D01*
X033431Y022473D01*
X033430Y022470D01*
X033311Y022404D01*
X033307Y022405D01*
X033293Y022395D01*
X033278Y022387D01*
X033277Y022383D01*
X033168Y022302D01*
X033164Y022302D01*
X033153Y022290D01*
X033139Y022280D01*
X033138Y022276D01*
X033042Y022180D01*
X033038Y022179D01*
X033028Y022166D01*
X033016Y022154D01*
X033016Y022150D01*
X032935Y022041D01*
X032931Y022040D01*
X032923Y022025D01*
X032913Y022012D01*
X032914Y022008D01*
X032849Y021888D01*
X032845Y021887D01*
X032839Y021871D01*
X032831Y021856D01*
X032832Y021852D01*
X032785Y021725D01*
X032781Y021723D01*
X032778Y021706D01*
X032772Y021691D01*
X032773Y021687D01*
X032745Y021554D01*
X032742Y021552D01*
X032740Y021535D01*
X032737Y021518D01*
X032739Y021515D01*
X032729Y021382D01*
X032728Y021380D01*
X032728Y021362D01*
X032727Y021343D01*
X032728Y021341D01*
X032728Y019934D01*
X006842Y019934D01*
X006842Y021341D01*
X006843Y021343D01*
X006842Y021362D01*
X006842Y021380D01*
X006841Y021382D01*
X006831Y021515D01*
X006833Y021518D01*
X006830Y021535D01*
X006829Y021552D01*
X006825Y021554D01*
X006797Y021687D01*
X006798Y021691D01*
X006792Y021706D01*
X006789Y021723D01*
X006785Y021725D01*
X006738Y021852D01*
X006739Y021856D01*
X006731Y021871D01*
X006725Y021887D01*
X006722Y021888D01*
X006656Y022008D01*
X006657Y022012D01*
X006647Y022025D01*
X006639Y022040D01*
X006635Y022041D01*
X006554Y022150D01*
X006554Y022154D01*
X006542Y022166D01*
X006532Y022179D01*
X006528Y022180D01*
X006432Y022276D01*
X006431Y022280D01*
X006418Y022290D01*
X006406Y022302D01*
X006402Y022302D01*
X006293Y022383D01*
X006292Y022387D01*
X006277Y022395D01*
X006264Y022405D01*
X006260Y022404D01*
X006140Y022470D01*
X006139Y022473D01*
X006123Y022479D01*
X006108Y022487D01*
X006104Y022486D01*
X005977Y022533D01*
X005975Y022537D01*
X005958Y022540D01*
X005943Y022546D01*
X005939Y022545D01*
X005806Y022574D01*
X005804Y022577D01*
X005787Y022578D01*
X005770Y022581D01*
X005767Y022579D01*
X005634Y022589D01*
X005632Y022590D01*
X005614Y022590D01*
X005595Y022591D01*
X005593Y022590D01*
X004186Y022590D01*
X004186Y022664D01*
X004211Y022675D01*
X004297Y022761D01*
X004344Y022874D01*
X004344Y022996D01*
X004297Y023108D01*
X004274Y023131D01*
X004297Y023155D01*
X004344Y023267D01*
X004344Y023389D01*
X004297Y023502D01*
X004274Y023525D01*
X004297Y023548D01*
X004344Y023661D01*
X004344Y023783D01*
X004297Y023896D01*
X004274Y023919D01*
X004297Y023942D01*
X004344Y024055D01*
X004344Y024177D01*
X004297Y024289D01*
X004274Y024313D01*
X004297Y024336D01*
X004344Y024448D01*
X004344Y024570D01*
X004297Y024683D01*
X004211Y024769D01*
X004186Y024780D01*
X004186Y034476D01*
X004211Y034486D01*
X004297Y034572D01*
X004344Y034685D01*
X004344Y034807D01*
X004297Y034919D01*
X004274Y034943D01*
X004297Y034966D01*
X004344Y035078D01*
X004344Y035200D01*
X004297Y035313D01*
X004274Y035336D01*
X004297Y035359D01*
X004344Y035472D01*
X004344Y035594D01*
X004297Y035707D01*
X004274Y035730D01*
X004297Y035753D01*
X004344Y035866D01*
X004344Y035988D01*
X004297Y036100D01*
X004274Y036124D01*
X004297Y036147D01*
X004344Y036259D01*
X004344Y036271D01*
X005593Y036271D01*
X005595Y036270D01*
X005614Y036271D01*
X005632Y036271D01*
X005634Y036273D01*
X005767Y036282D01*
X005770Y036280D01*
X005787Y036284D01*
X005804Y036285D01*
X005806Y036288D01*
X005939Y036317D01*
X005943Y036315D01*
X005958Y036321D01*
X005975Y036325D01*
X005977Y036328D01*
X006104Y036375D01*
X006108Y036374D01*
X006123Y036382D01*
X006139Y036388D01*
X006140Y036392D01*
X006260Y036457D01*
X006264Y036456D01*
X006277Y036466D01*
X006292Y036475D01*
X006293Y036478D01*
X006402Y036560D01*
X006406Y036560D01*
X006418Y036572D01*
X006431Y036582D01*
X006432Y036586D01*
X006528Y036682D01*
X006532Y036682D01*
X006542Y036696D01*
X006554Y036708D01*
X006554Y036712D01*
X006635Y036820D01*
X006639Y036822D01*
X006647Y036836D01*
X006657Y036850D01*
X006656Y036854D01*
X006722Y036973D01*
X006725Y036975D01*
X006704Y036941D02*
X016648Y036941D01*
X016648Y036874D02*
X016876Y036646D01*
X017198Y036646D01*
X017426Y036874D01*
X017426Y037196D01*
X017198Y037424D01*
X016876Y037424D01*
X016648Y037196D01*
X016648Y036874D01*
X016678Y036844D02*
X006653Y036844D01*
X006580Y036747D02*
X016775Y036747D01*
X016872Y036650D02*
X006496Y036650D01*
X006393Y036553D02*
X024739Y036553D01*
X024642Y036456D02*
X006258Y036456D01*
X006061Y036359D02*
X016811Y036359D01*
X016876Y036424D02*
X016648Y036196D01*
X016648Y035874D01*
X016876Y035646D01*
X017198Y035646D01*
X017426Y035874D01*
X017426Y036196D01*
X017198Y036424D01*
X016876Y036424D01*
X016714Y036262D02*
X004344Y036262D01*
X004305Y036165D02*
X016648Y036165D01*
X016648Y036069D02*
X004310Y036069D01*
X004344Y035972D02*
X016648Y035972D01*
X016648Y035875D02*
X004344Y035875D01*
X004307Y035778D02*
X016744Y035778D01*
X016841Y035681D02*
X004308Y035681D01*
X004344Y035584D02*
X023945Y035584D01*
X024007Y035646D02*
X023659Y035298D01*
X023441Y035298D01*
X023407Y035332D01*
X023213Y035332D01*
X023213Y035332D01*
X022441Y035332D01*
X022304Y035195D01*
X021943Y034834D01*
X021918Y034860D01*
X020734Y034860D01*
X020596Y034723D01*
X020449Y034576D01*
X020449Y034479D01*
X020421Y034451D01*
X020421Y034424D01*
X018052Y032055D01*
X018052Y031137D01*
X018145Y031044D01*
X019307Y029882D01*
X019266Y029841D01*
X019266Y029647D01*
X019404Y029510D01*
X019679Y029510D01*
X019894Y029295D01*
X019182Y028583D01*
X019083Y028583D01*
X018949Y028449D01*
X018949Y028260D01*
X019083Y028126D01*
X019272Y028126D01*
X019406Y028260D01*
X019406Y028359D01*
X020118Y029071D01*
X020191Y028998D01*
X018498Y027305D01*
X018343Y027305D01*
X018209Y027171D01*
X018209Y026982D01*
X018343Y026848D01*
X018532Y026848D01*
X018665Y026982D01*
X018665Y027024D01*
X020415Y028773D01*
X020506Y028682D01*
X019027Y027203D01*
X018989Y027203D01*
X018855Y027069D01*
X018855Y026880D01*
X018989Y026746D01*
X019178Y026746D01*
X019311Y026880D01*
X019311Y027039D01*
X020730Y028458D01*
X021014Y028175D01*
X020528Y027689D01*
X020454Y027689D01*
X020321Y027555D01*
X020321Y027366D01*
X020454Y027232D01*
X020643Y027232D01*
X020777Y027366D01*
X020777Y027490D01*
X021238Y027951D01*
X021813Y027376D01*
X021325Y026888D01*
X021265Y026888D01*
X021131Y026755D01*
X021131Y026656D01*
X020303Y025827D01*
X020300Y025830D01*
X020111Y025830D01*
X019977Y025696D01*
X019977Y025507D01*
X020111Y025374D01*
X020300Y025374D01*
X020434Y025507D01*
X020434Y025510D01*
X020459Y025536D01*
X021355Y026432D01*
X021454Y026432D01*
X021588Y026565D01*
X021588Y026703D01*
X022037Y027152D01*
X023507Y025682D01*
X023507Y025475D01*
X023644Y025337D01*
X023851Y025337D01*
X024050Y025138D01*
X027331Y025138D01*
X027424Y025231D01*
X028605Y026412D01*
X028605Y026544D01*
X028512Y026636D01*
X027293Y027856D01*
X030087Y030650D01*
X030180Y030743D01*
X030180Y030874D01*
X025849Y035205D01*
X025756Y035298D01*
X025440Y035298D01*
X025611Y035469D01*
X026103Y035469D01*
X026195Y035561D01*
X026195Y035646D01*
X026198Y035646D01*
X026426Y035874D01*
X026426Y036196D01*
X026198Y036424D01*
X026058Y036424D01*
X026195Y036561D01*
X026195Y036646D01*
X026198Y036646D01*
X026426Y036874D01*
X026426Y037196D01*
X026198Y037424D01*
X025876Y037424D01*
X025648Y037196D01*
X025648Y036874D01*
X025854Y036668D01*
X025471Y036285D01*
X025471Y036027D01*
X025426Y035982D01*
X025426Y036196D01*
X025198Y036424D01*
X025058Y036424D01*
X025103Y036469D01*
X025195Y036561D01*
X025195Y036646D01*
X025198Y036646D01*
X025426Y036874D01*
X025426Y037196D01*
X025198Y037424D01*
X024876Y037424D01*
X024648Y037196D01*
X024648Y036874D01*
X024854Y036668D01*
X024404Y036218D01*
X024198Y036424D01*
X023876Y036424D01*
X023648Y036196D01*
X023648Y035874D01*
X023876Y035646D01*
X024007Y035646D01*
X023841Y035681D02*
X023233Y035681D01*
X023198Y035646D02*
X023426Y035874D01*
X023426Y036196D01*
X023198Y036424D01*
X022876Y036424D01*
X022648Y036196D01*
X022648Y035874D01*
X022876Y035646D01*
X023198Y035646D01*
X023330Y035778D02*
X023744Y035778D01*
X023648Y035875D02*
X023426Y035875D01*
X023426Y035972D02*
X023648Y035972D01*
X023648Y036069D02*
X023426Y036069D01*
X023426Y036165D02*
X023648Y036165D01*
X023714Y036262D02*
X023360Y036262D01*
X023263Y036359D02*
X023811Y036359D01*
X023876Y036646D02*
X023648Y036874D01*
X023648Y037196D01*
X023876Y037424D01*
X024198Y037424D01*
X024426Y037196D01*
X024426Y036874D01*
X024198Y036646D01*
X023876Y036646D01*
X023872Y036650D02*
X023202Y036650D01*
X023198Y036646D02*
X023426Y036874D01*
X023426Y037196D01*
X023198Y037424D01*
X022876Y037424D01*
X022648Y037196D01*
X022648Y036874D01*
X022876Y036646D01*
X023198Y036646D01*
X023299Y036747D02*
X023775Y036747D01*
X023678Y036844D02*
X023396Y036844D01*
X023426Y036941D02*
X023648Y036941D01*
X023648Y037038D02*
X023426Y037038D01*
X023426Y037135D02*
X023648Y037135D01*
X023683Y037232D02*
X023391Y037232D01*
X023294Y037329D02*
X023780Y037329D01*
X024294Y037329D02*
X024780Y037329D01*
X024683Y037232D02*
X024391Y037232D01*
X024426Y037135D02*
X024648Y037135D01*
X024648Y037038D02*
X024426Y037038D01*
X024426Y036941D02*
X024648Y036941D01*
X024678Y036844D02*
X024396Y036844D01*
X024299Y036747D02*
X024775Y036747D01*
X024836Y036650D02*
X024202Y036650D01*
X024263Y036359D02*
X024545Y036359D01*
X024448Y036262D02*
X024360Y036262D01*
X024466Y036056D02*
X024466Y035881D01*
X023402Y034817D01*
X023402Y032917D01*
X023243Y033082D02*
X023174Y033012D01*
X023174Y032823D01*
X023307Y032689D01*
X023496Y032689D01*
X023539Y032732D01*
X023539Y032729D01*
X023673Y032595D01*
X023862Y032595D01*
X023996Y032729D01*
X023996Y032918D01*
X023906Y033008D01*
X023906Y033722D01*
X023987Y033641D01*
X024176Y033641D01*
X024254Y033719D01*
X024304Y033670D01*
X024493Y033670D01*
X024626Y033803D01*
X024626Y033993D01*
X024557Y034062D01*
X024557Y034414D01*
X024645Y034502D01*
X024645Y033430D01*
X025758Y032317D01*
X025952Y032317D01*
X026089Y032454D01*
X026089Y032648D01*
X025113Y033624D01*
X025113Y034700D01*
X024978Y034835D01*
X025282Y035139D01*
X025691Y035139D01*
X030021Y030809D01*
X029823Y030610D01*
X029823Y030694D01*
X029685Y030832D01*
X029491Y030832D01*
X026792Y028132D01*
X026626Y028298D01*
X026708Y028380D01*
X026708Y028569D01*
X026638Y028639D01*
X026638Y028696D01*
X023812Y031522D01*
X023812Y031621D01*
X023678Y031755D01*
X023489Y031755D01*
X023355Y031621D01*
X023355Y031569D01*
X020835Y034089D01*
X020918Y034172D01*
X020918Y034382D01*
X020928Y034391D01*
X021724Y034391D01*
X021846Y034269D01*
X022040Y034269D01*
X022635Y034864D01*
X023243Y034864D01*
X023243Y033082D01*
X023226Y033064D02*
X021861Y033064D01*
X021958Y032967D02*
X023174Y032967D01*
X023174Y032870D02*
X022054Y032870D01*
X022151Y032773D02*
X023223Y032773D01*
X023592Y032676D02*
X022248Y032676D01*
X022345Y032579D02*
X025495Y032579D01*
X025399Y032676D02*
X023943Y032676D01*
X023996Y032773D02*
X025302Y032773D01*
X025205Y032870D02*
X023996Y032870D01*
X023947Y032967D02*
X025108Y032967D01*
X025011Y033064D02*
X023906Y033064D01*
X023906Y033161D02*
X024914Y033161D01*
X024817Y033258D02*
X023906Y033258D01*
X023906Y033355D02*
X024720Y033355D01*
X024645Y033452D02*
X023906Y033452D01*
X023906Y033548D02*
X024645Y033548D01*
X024645Y033645D02*
X024180Y033645D01*
X023983Y033645D02*
X023906Y033645D01*
X024081Y033870D02*
X024081Y034413D01*
X025629Y035961D01*
X025629Y036219D01*
X026037Y036627D01*
X026037Y037035D01*
X025648Y037038D02*
X025426Y037038D01*
X025426Y037135D02*
X025648Y037135D01*
X025683Y037232D02*
X025391Y037232D01*
X025294Y037329D02*
X025780Y037329D01*
X025648Y036941D02*
X025426Y036941D01*
X025396Y036844D02*
X025678Y036844D01*
X025775Y036747D02*
X025299Y036747D01*
X025202Y036650D02*
X025836Y036650D01*
X025739Y036553D02*
X025187Y036553D01*
X025090Y036456D02*
X025642Y036456D01*
X025545Y036359D02*
X025263Y036359D01*
X025360Y036262D02*
X025471Y036262D01*
X025471Y036165D02*
X025426Y036165D01*
X025426Y036069D02*
X025471Y036069D01*
X025037Y036035D02*
X025037Y035627D01*
X023748Y034338D01*
X023748Y032910D01*
X023768Y032823D01*
X023243Y033161D02*
X021764Y033161D01*
X021667Y033258D02*
X023243Y033258D01*
X023243Y033355D02*
X021570Y033355D01*
X021473Y033452D02*
X023243Y033452D01*
X023243Y033548D02*
X021376Y033548D01*
X021279Y033645D02*
X023243Y033645D01*
X023243Y033742D02*
X021182Y033742D01*
X021085Y033839D02*
X023243Y033839D01*
X023243Y033936D02*
X020988Y033936D01*
X020891Y034033D02*
X023243Y034033D01*
X023243Y034130D02*
X020876Y034130D01*
X020918Y034227D02*
X023243Y034227D01*
X023243Y034324D02*
X022095Y034324D01*
X022192Y034421D02*
X023243Y034421D01*
X023243Y034518D02*
X022289Y034518D01*
X022386Y034615D02*
X023243Y034615D01*
X023243Y034712D02*
X022483Y034712D01*
X022580Y034808D02*
X023243Y034808D01*
X022841Y035681D02*
X022233Y035681D01*
X022198Y035646D02*
X022426Y035874D01*
X022426Y036196D01*
X022198Y036424D01*
X021876Y036424D01*
X021648Y036196D01*
X021648Y035874D01*
X021876Y035646D01*
X022198Y035646D01*
X022330Y035778D02*
X022744Y035778D01*
X022648Y035875D02*
X022426Y035875D01*
X022426Y035972D02*
X022648Y035972D01*
X022648Y036069D02*
X022426Y036069D01*
X022426Y036165D02*
X022648Y036165D01*
X022714Y036262D02*
X022360Y036262D01*
X022263Y036359D02*
X022811Y036359D01*
X022872Y036650D02*
X022202Y036650D01*
X022198Y036646D02*
X022426Y036874D01*
X022426Y037196D01*
X022198Y037424D01*
X021876Y037424D01*
X021648Y037196D01*
X021648Y036874D01*
X021876Y036646D01*
X022198Y036646D01*
X022299Y036747D02*
X022775Y036747D01*
X022678Y036844D02*
X022396Y036844D01*
X022426Y036941D02*
X022648Y036941D01*
X022648Y037038D02*
X022426Y037038D01*
X022426Y037135D02*
X022648Y037135D01*
X022683Y037232D02*
X022391Y037232D01*
X022294Y037329D02*
X022780Y037329D01*
X021780Y037329D02*
X021294Y037329D01*
X021198Y037424D02*
X020876Y037424D01*
X020648Y037196D01*
X020648Y036874D01*
X020876Y036646D01*
X021198Y036646D01*
X021426Y036874D01*
X021426Y037196D01*
X021198Y037424D01*
X021391Y037232D02*
X021683Y037232D01*
X021648Y037135D02*
X021426Y037135D01*
X021426Y037038D02*
X021648Y037038D01*
X021648Y036941D02*
X021426Y036941D01*
X021396Y036844D02*
X021678Y036844D01*
X021775Y036747D02*
X021299Y036747D01*
X021202Y036650D02*
X021872Y036650D01*
X021811Y036359D02*
X021263Y036359D01*
X021198Y036424D02*
X020876Y036424D01*
X020648Y036196D01*
X020648Y035874D01*
X020876Y035646D01*
X021198Y035646D01*
X021426Y035874D01*
X021426Y036196D01*
X021198Y036424D01*
X021360Y036262D02*
X021714Y036262D01*
X021648Y036165D02*
X021426Y036165D01*
X021426Y036069D02*
X021648Y036069D01*
X021648Y035972D02*
X021426Y035972D01*
X021426Y035875D02*
X021648Y035875D01*
X021744Y035778D02*
X021330Y035778D01*
X021233Y035681D02*
X021841Y035681D01*
X022305Y035196D02*
X004344Y035196D01*
X004344Y035099D02*
X022208Y035099D01*
X022111Y035002D02*
X004312Y035002D01*
X004303Y034905D02*
X022014Y034905D01*
X022402Y035293D02*
X004305Y035293D01*
X004310Y035390D02*
X023751Y035390D01*
X023848Y035487D02*
X004344Y035487D01*
X004343Y034808D02*
X019617Y034808D01*
X019653Y034844D02*
X019519Y034710D01*
X019519Y034681D01*
X018133Y033295D01*
X018095Y033295D01*
X018088Y033287D01*
X018082Y033287D01*
X017945Y033150D01*
X017945Y033112D01*
X017555Y032723D01*
X017518Y032723D01*
X017381Y032585D01*
X017381Y032574D01*
X017362Y032556D01*
X017362Y032518D01*
X015037Y030193D01*
X014999Y030193D01*
X014823Y030017D01*
X014823Y029968D01*
X013284Y028429D01*
X013247Y028429D01*
X013109Y028292D01*
X013109Y028098D01*
X013153Y028054D01*
X013153Y025003D01*
X013832Y024324D01*
X014029Y024128D01*
X015062Y023094D01*
X024019Y023094D01*
X024803Y022310D01*
X024803Y022083D01*
X024724Y022004D01*
X024668Y021868D01*
X024668Y021202D01*
X024724Y021066D01*
X024828Y020962D01*
X024964Y020906D01*
X025110Y020906D01*
X025246Y020962D01*
X025350Y021066D01*
X025406Y021202D01*
X025406Y021868D01*
X025350Y022004D01*
X025271Y022083D01*
X025271Y022504D01*
X024350Y023425D01*
X024213Y023563D01*
X015256Y023563D01*
X014360Y024459D01*
X014163Y024656D01*
X013622Y025197D01*
X013622Y028179D01*
X015117Y029674D01*
X015154Y029674D01*
X015291Y029812D01*
X015291Y029822D01*
X015330Y029861D01*
X015330Y029899D01*
X017656Y032224D01*
X017742Y032224D01*
X017879Y032361D01*
X017879Y032459D01*
X018239Y032819D01*
X018282Y032819D01*
X018427Y032964D01*
X018427Y033001D01*
X019813Y034388D01*
X019842Y034388D01*
X019976Y034521D01*
X019976Y034710D01*
X019842Y034844D01*
X019653Y034844D01*
X019520Y034712D02*
X004344Y034712D01*
X004315Y034615D02*
X019453Y034615D01*
X019356Y034518D02*
X004243Y034518D01*
X004186Y034421D02*
X019259Y034421D01*
X019162Y034324D02*
X004186Y034324D01*
X004186Y034227D02*
X019065Y034227D01*
X018968Y034130D02*
X004186Y034130D01*
X004186Y034033D02*
X018871Y034033D01*
X018774Y033936D02*
X004186Y033936D01*
X004186Y033839D02*
X018677Y033839D01*
X018580Y033742D02*
X004186Y033742D01*
X004186Y033645D02*
X018483Y033645D01*
X018387Y033548D02*
X004186Y033548D01*
X004186Y033452D02*
X018290Y033452D01*
X018193Y033355D02*
X004186Y033355D01*
X004186Y033258D02*
X018053Y033258D01*
X017956Y033161D02*
X004186Y033161D01*
X004186Y033064D02*
X017897Y033064D01*
X017800Y032967D02*
X004186Y032967D01*
X004186Y032870D02*
X017703Y032870D01*
X017606Y032773D02*
X004186Y032773D01*
X004186Y032676D02*
X017471Y032676D01*
X017381Y032579D02*
X004186Y032579D01*
X004186Y032482D02*
X017326Y032482D01*
X017229Y032385D02*
X004186Y032385D01*
X004186Y032288D02*
X017132Y032288D01*
X017036Y032191D02*
X004186Y032191D01*
X004186Y032095D02*
X016939Y032095D01*
X016842Y031998D02*
X004186Y031998D01*
X004186Y031901D02*
X016745Y031901D01*
X016648Y031804D02*
X004186Y031804D01*
X004186Y031707D02*
X016551Y031707D01*
X016454Y031610D02*
X004186Y031610D01*
X004186Y031513D02*
X016357Y031513D01*
X016260Y031416D02*
X004186Y031416D01*
X004186Y031319D02*
X016163Y031319D01*
X016066Y031222D02*
X004186Y031222D01*
X004186Y031125D02*
X015969Y031125D01*
X015872Y031028D02*
X004186Y031028D01*
X004186Y030931D02*
X015775Y030931D01*
X015679Y030835D02*
X004186Y030835D01*
X004186Y030738D02*
X015582Y030738D01*
X015485Y030641D02*
X004186Y030641D01*
X004186Y030544D02*
X015388Y030544D01*
X015291Y030447D02*
X004186Y030447D01*
X004186Y030350D02*
X015194Y030350D01*
X015097Y030253D02*
X004186Y030253D01*
X004186Y030156D02*
X014963Y030156D01*
X014866Y030059D02*
X010025Y030059D01*
X010018Y030066D02*
X009824Y030066D01*
X009687Y029929D01*
X009687Y026796D01*
X014485Y021998D01*
X016667Y021998D01*
X016693Y022025D01*
X022744Y022025D01*
X022724Y022004D01*
X022668Y021868D01*
X022668Y021743D01*
X016644Y021743D01*
X016523Y021621D01*
X016245Y021343D01*
X009580Y021343D01*
X009580Y021772D01*
X008981Y022372D01*
X008787Y022372D01*
X008650Y022235D01*
X008650Y022041D01*
X009112Y021578D01*
X009112Y021038D01*
X009249Y020901D01*
X009443Y020901D01*
X009470Y020928D01*
X016102Y020928D01*
X016102Y020920D01*
X016236Y020787D01*
X016425Y020787D01*
X016559Y020920D01*
X016559Y021070D01*
X016816Y021327D01*
X022668Y021327D01*
X022668Y021202D01*
X022724Y021066D01*
X022828Y020962D01*
X022964Y020906D01*
X023110Y020906D01*
X023246Y020962D01*
X023350Y021066D01*
X023406Y021202D01*
X023406Y021868D01*
X023404Y021875D01*
X023668Y021611D01*
X023668Y021202D01*
X023724Y021066D01*
X023828Y020962D01*
X023964Y020906D01*
X024110Y020906D01*
X024246Y020962D01*
X024350Y021066D01*
X024406Y021202D01*
X024406Y021868D01*
X024350Y022004D01*
X024246Y022108D01*
X024110Y022164D01*
X023964Y022164D01*
X023828Y022108D01*
X023793Y022073D01*
X023547Y022318D01*
X023426Y022440D01*
X016693Y022440D01*
X016667Y022466D01*
X014679Y022466D01*
X010155Y026990D01*
X010155Y029929D01*
X010018Y030066D01*
X010122Y029962D02*
X014817Y029962D01*
X014720Y029865D02*
X010155Y029865D01*
X010155Y029768D02*
X014623Y029768D01*
X014526Y029671D02*
X010155Y029671D01*
X010155Y029575D02*
X014429Y029575D01*
X014333Y029478D02*
X010155Y029478D01*
X010155Y029381D02*
X014236Y029381D01*
X014139Y029284D02*
X010155Y029284D01*
X010155Y029187D02*
X014042Y029187D01*
X013945Y029090D02*
X010155Y029090D01*
X010155Y028993D02*
X013848Y028993D01*
X013751Y028896D02*
X010155Y028896D01*
X010155Y028799D02*
X013654Y028799D01*
X013557Y028702D02*
X010155Y028702D01*
X010155Y028605D02*
X013460Y028605D01*
X013363Y028508D02*
X010155Y028508D01*
X010155Y028411D02*
X013229Y028411D01*
X013132Y028314D02*
X010155Y028314D01*
X010155Y028218D02*
X013109Y028218D01*
X013109Y028121D02*
X010155Y028121D01*
X010155Y028024D02*
X013153Y028024D01*
X013153Y027927D02*
X010155Y027927D01*
X010155Y027830D02*
X013153Y027830D01*
X013153Y027733D02*
X010155Y027733D01*
X010155Y027636D02*
X013153Y027636D01*
X013153Y027539D02*
X010155Y027539D01*
X010155Y027442D02*
X013153Y027442D01*
X013153Y027345D02*
X010155Y027345D01*
X010155Y027248D02*
X013153Y027248D01*
X013153Y027151D02*
X010155Y027151D01*
X010155Y027054D02*
X013153Y027054D01*
X013153Y026958D02*
X010188Y026958D01*
X010285Y026861D02*
X013153Y026861D01*
X013153Y026764D02*
X010382Y026764D01*
X010479Y026667D02*
X013153Y026667D01*
X013153Y026570D02*
X010576Y026570D01*
X010673Y026473D02*
X013153Y026473D01*
X013153Y026376D02*
X010769Y026376D01*
X010866Y026279D02*
X013153Y026279D01*
X013153Y026182D02*
X010963Y026182D01*
X011060Y026085D02*
X013153Y026085D01*
X013153Y025988D02*
X011157Y025988D01*
X011254Y025891D02*
X013153Y025891D01*
X013153Y025794D02*
X011351Y025794D01*
X011448Y025697D02*
X013153Y025697D01*
X013153Y025601D02*
X011545Y025601D01*
X011642Y025504D02*
X013153Y025504D01*
X013153Y025407D02*
X011739Y025407D01*
X011836Y025310D02*
X013153Y025310D01*
X013153Y025213D02*
X011933Y025213D01*
X012029Y025116D02*
X013153Y025116D01*
X013153Y025019D02*
X012126Y025019D01*
X012223Y024922D02*
X013234Y024922D01*
X013331Y024825D02*
X012320Y024825D01*
X012417Y024728D02*
X013428Y024728D01*
X013525Y024631D02*
X012514Y024631D01*
X012611Y024534D02*
X013622Y024534D01*
X013719Y024437D02*
X012708Y024437D01*
X012805Y024341D02*
X013816Y024341D01*
X013913Y024244D02*
X012902Y024244D01*
X012999Y024147D02*
X014009Y024147D01*
X014106Y024050D02*
X013096Y024050D01*
X013193Y023953D02*
X014203Y023953D01*
X014300Y023856D02*
X013289Y023856D01*
X013386Y023759D02*
X014397Y023759D01*
X014494Y023662D02*
X013483Y023662D01*
X013580Y023565D02*
X014591Y023565D01*
X014688Y023468D02*
X013677Y023468D01*
X013774Y023371D02*
X014785Y023371D01*
X014882Y023274D02*
X013871Y023274D01*
X013968Y023177D02*
X014979Y023177D01*
X015253Y023565D02*
X031135Y023565D01*
X031246Y023519D02*
X030901Y023662D01*
X015157Y023662D01*
X015060Y023759D02*
X030804Y023759D01*
X030901Y023662D02*
X030637Y023926D01*
X030494Y024271D01*
X030494Y024645D01*
X030637Y024990D01*
X030901Y025254D01*
X031246Y025397D01*
X031619Y025397D01*
X031965Y025254D01*
X032229Y024990D01*
X032372Y024645D01*
X032372Y024271D01*
X032229Y023926D01*
X031965Y023662D01*
X031619Y023519D01*
X031246Y023519D01*
X030707Y023856D02*
X014963Y023856D01*
X014866Y023953D02*
X030626Y023953D01*
X030585Y024050D02*
X014769Y024050D01*
X014672Y024147D02*
X030545Y024147D01*
X030505Y024244D02*
X014575Y024244D01*
X014478Y024341D02*
X030494Y024341D01*
X030494Y024437D02*
X014381Y024437D01*
X014284Y024534D02*
X030494Y024534D01*
X030494Y024631D02*
X014187Y024631D01*
X014090Y024728D02*
X030528Y024728D01*
X030568Y024825D02*
X013993Y024825D01*
X013897Y024922D02*
X030608Y024922D01*
X030665Y025019D02*
X013800Y025019D01*
X013703Y025116D02*
X030762Y025116D01*
X030859Y025213D02*
X027405Y025213D01*
X027502Y025310D02*
X031034Y025310D01*
X031831Y025310D02*
X033596Y025310D01*
X033603Y025313D02*
X033494Y025268D01*
X033392Y025209D01*
X033298Y025137D01*
X033215Y025053D01*
X033143Y024960D01*
X033084Y024857D01*
X033039Y024748D01*
X033008Y024634D01*
X032993Y024517D01*
X032993Y024507D01*
X033844Y024507D01*
X033844Y024409D01*
X032993Y024409D01*
X032993Y024399D01*
X033008Y024282D01*
X033039Y024168D01*
X033084Y024059D01*
X033143Y023957D01*
X033215Y023863D01*
X033298Y023780D01*
X033392Y023708D01*
X033494Y023649D01*
X033603Y023604D01*
X033717Y023573D01*
X033834Y023558D01*
X033844Y023558D01*
X033844Y024409D01*
X033943Y024409D01*
X033943Y024507D01*
X034794Y024507D01*
X034794Y024517D01*
X034778Y024634D01*
X034748Y024748D01*
X034703Y024857D01*
X034644Y024960D01*
X034572Y025053D01*
X034488Y025137D01*
X034395Y025209D01*
X034292Y025268D01*
X034183Y025313D01*
X034069Y025343D01*
X033952Y025359D01*
X033943Y025359D01*
X033943Y024507D01*
X033844Y024507D01*
X033844Y025359D01*
X033834Y025359D01*
X033717Y025343D01*
X033603Y025313D01*
X033400Y025213D02*
X032006Y025213D01*
X032103Y025116D02*
X033278Y025116D01*
X033189Y025019D02*
X032200Y025019D01*
X032257Y024922D02*
X033121Y024922D01*
X033071Y024825D02*
X032297Y024825D01*
X032337Y024728D02*
X033033Y024728D01*
X033008Y024631D02*
X032372Y024631D01*
X032372Y024534D02*
X032995Y024534D01*
X033001Y024341D02*
X032372Y024341D01*
X032372Y024437D02*
X033844Y024437D01*
X033844Y024341D02*
X033943Y024341D01*
X033943Y024409D02*
X033943Y023558D01*
X033952Y023558D01*
X034069Y023573D01*
X034183Y023604D01*
X034292Y023649D01*
X034395Y023708D01*
X034488Y023780D01*
X034572Y023863D01*
X034644Y023957D01*
X034703Y024059D01*
X034748Y024168D01*
X034778Y024282D01*
X034794Y024399D01*
X034794Y024409D01*
X033943Y024409D01*
X033943Y024437D02*
X035231Y024437D01*
X035226Y024534D02*
X034791Y024534D01*
X034779Y024631D02*
X035252Y024631D01*
X035318Y024728D02*
X034753Y024728D01*
X034716Y024825D02*
X035384Y024825D01*
X035384Y024922D02*
X034665Y024922D01*
X034598Y025019D02*
X035384Y025019D01*
X035384Y025116D02*
X034509Y025116D01*
X034387Y025213D02*
X035384Y025213D01*
X035384Y025310D02*
X034190Y025310D01*
X033943Y025310D02*
X033844Y025310D01*
X033844Y025213D02*
X033943Y025213D01*
X033943Y025116D02*
X033844Y025116D01*
X033844Y025019D02*
X033943Y025019D01*
X033943Y024922D02*
X033844Y024922D01*
X033844Y024825D02*
X033943Y024825D01*
X033943Y024728D02*
X033844Y024728D01*
X033844Y024631D02*
X033943Y024631D01*
X033943Y024534D02*
X033844Y024534D01*
X033844Y024244D02*
X033943Y024244D01*
X033943Y024147D02*
X033844Y024147D01*
X033844Y024050D02*
X033943Y024050D01*
X033943Y023953D02*
X033844Y023953D01*
X033844Y023856D02*
X033943Y023856D01*
X033943Y023759D02*
X033844Y023759D01*
X033844Y023662D02*
X033943Y023662D01*
X033943Y023565D02*
X033844Y023565D01*
X033779Y023565D02*
X031731Y023565D01*
X031965Y023662D02*
X033472Y023662D01*
X033326Y023759D02*
X032062Y023759D01*
X032158Y023856D02*
X033222Y023856D01*
X033146Y023953D02*
X032240Y023953D01*
X032280Y024050D02*
X033089Y024050D01*
X033048Y024147D02*
X032320Y024147D01*
X032360Y024244D02*
X033019Y024244D01*
X034007Y023565D02*
X035266Y023565D01*
X035259Y023468D02*
X024307Y023468D01*
X024404Y023371D02*
X035226Y023371D01*
X035226Y023274D02*
X024501Y023274D01*
X024598Y023177D02*
X035264Y023177D01*
X035262Y023081D02*
X024695Y023081D01*
X024792Y022984D02*
X035226Y022984D01*
X035226Y022887D02*
X024889Y022887D01*
X024986Y022790D02*
X035261Y022790D01*
X035341Y022693D02*
X025083Y022693D01*
X025179Y022596D02*
X035384Y022596D01*
X035226Y023662D02*
X034315Y023662D01*
X034461Y023759D02*
X035226Y023759D01*
X035257Y023856D02*
X034564Y023856D01*
X034640Y023953D02*
X035269Y023953D01*
X035228Y024050D02*
X034697Y024050D01*
X034739Y024147D02*
X035226Y024147D01*
X035254Y024244D02*
X034768Y024244D01*
X034786Y024341D02*
X035271Y024341D01*
X035384Y025407D02*
X027599Y025407D01*
X027696Y025504D02*
X032240Y025504D01*
X032265Y025494D02*
X032379Y025463D01*
X032496Y025448D01*
X032506Y025448D01*
X032506Y026299D01*
X032604Y026299D01*
X032604Y026397D01*
X033455Y026397D01*
X033455Y026407D01*
X033440Y026524D01*
X033409Y026638D01*
X033364Y026747D01*
X033305Y026849D01*
X033233Y026943D01*
X033150Y027026D01*
X033056Y027098D01*
X032954Y027157D01*
X032845Y027202D01*
X032731Y027233D01*
X032614Y027248D01*
X032604Y027248D01*
X032506Y027248D01*
X032496Y027248D01*
X032379Y027233D01*
X032265Y027202D01*
X032156Y027157D01*
X032053Y027098D01*
X031960Y027026D01*
X031876Y026943D01*
X031804Y026849D01*
X031745Y026747D01*
X031700Y026638D01*
X031670Y026524D01*
X031654Y026407D01*
X031654Y026397D01*
X032506Y026397D01*
X032506Y027248D01*
X032495Y027248D02*
X027900Y027248D01*
X027997Y027151D02*
X032145Y027151D01*
X031996Y027054D02*
X028094Y027054D01*
X028191Y026958D02*
X031891Y026958D01*
X031813Y026861D02*
X028288Y026861D01*
X028385Y026764D02*
X031755Y026764D01*
X031712Y026667D02*
X028482Y026667D01*
X028579Y026570D02*
X031682Y026570D01*
X031663Y026473D02*
X028605Y026473D01*
X028569Y026376D02*
X032506Y026376D01*
X032506Y026397D02*
X032506Y026299D01*
X031654Y026299D01*
X031654Y026289D01*
X031670Y026172D01*
X031700Y026058D01*
X031745Y025949D01*
X031804Y025847D01*
X031876Y025753D01*
X031960Y025670D01*
X032053Y025598D01*
X032156Y025539D01*
X032265Y025494D01*
X032050Y025601D02*
X027793Y025601D01*
X027890Y025697D02*
X031932Y025697D01*
X031845Y025794D02*
X027987Y025794D01*
X028084Y025891D02*
X031779Y025891D01*
X031729Y025988D02*
X028181Y025988D01*
X028278Y026085D02*
X031693Y026085D01*
X031668Y026182D02*
X028375Y026182D01*
X028472Y026279D02*
X031656Y026279D01*
X032506Y026279D02*
X032604Y026279D01*
X032604Y026299D02*
X032604Y025448D01*
X032614Y025448D01*
X032731Y025463D01*
X032845Y025494D01*
X032954Y025539D01*
X033056Y025598D01*
X033150Y025670D01*
X033233Y025753D01*
X033305Y025847D01*
X033364Y025949D01*
X033409Y026058D01*
X033440Y026172D01*
X033455Y026289D01*
X033455Y026299D01*
X032604Y026299D01*
X032604Y026376D02*
X035384Y026376D01*
X035384Y026473D02*
X033446Y026473D01*
X033427Y026570D02*
X035384Y026570D01*
X035384Y026667D02*
X033397Y026667D01*
X033354Y026764D02*
X035384Y026764D01*
X035384Y026861D02*
X033296Y026861D01*
X033219Y026958D02*
X035384Y026958D01*
X035384Y027054D02*
X033113Y027054D01*
X032964Y027151D02*
X035384Y027151D01*
X035384Y027248D02*
X032615Y027248D01*
X032604Y027248D02*
X032604Y026397D01*
X032506Y026397D01*
X032506Y026473D02*
X032604Y026473D01*
X032604Y026570D02*
X032506Y026570D01*
X032506Y026667D02*
X032604Y026667D01*
X032604Y026764D02*
X032506Y026764D01*
X032506Y026861D02*
X032604Y026861D01*
X032604Y026958D02*
X032506Y026958D01*
X032506Y027054D02*
X032604Y027054D01*
X032604Y027151D02*
X032506Y027151D01*
X032506Y026182D02*
X032604Y026182D01*
X032604Y026085D02*
X032506Y026085D01*
X032506Y025988D02*
X032604Y025988D01*
X032604Y025891D02*
X032506Y025891D01*
X032506Y025794D02*
X032604Y025794D01*
X032604Y025697D02*
X032506Y025697D01*
X032506Y025601D02*
X032604Y025601D01*
X032604Y025504D02*
X032506Y025504D01*
X032869Y025504D02*
X035384Y025504D01*
X035384Y025601D02*
X033060Y025601D01*
X033178Y025697D02*
X035384Y025697D01*
X035384Y025794D02*
X033265Y025794D01*
X033331Y025891D02*
X035384Y025891D01*
X035384Y025988D02*
X033380Y025988D01*
X033416Y026085D02*
X035384Y026085D01*
X035384Y026182D02*
X033441Y026182D01*
X033454Y026279D02*
X035384Y026279D01*
X035384Y027345D02*
X027803Y027345D01*
X027706Y027442D02*
X035384Y027442D01*
X035384Y027539D02*
X027609Y027539D01*
X027512Y027636D02*
X034768Y027636D01*
X034624Y027733D02*
X027416Y027733D01*
X027319Y027830D02*
X034540Y027830D01*
X034500Y027927D02*
X027363Y027927D01*
X027460Y028024D02*
X034474Y028024D01*
X034474Y028121D02*
X034130Y028121D01*
X034142Y028125D02*
X034259Y028243D01*
X034323Y028397D01*
X034323Y028564D01*
X034259Y028718D01*
X034142Y028836D01*
X033987Y028900D01*
X033821Y028900D01*
X033667Y028836D01*
X033549Y028718D01*
X033485Y028564D01*
X033485Y028397D01*
X033549Y028243D01*
X033667Y028125D01*
X033821Y028062D01*
X033987Y028062D01*
X034142Y028125D01*
X034234Y028218D02*
X034487Y028218D01*
X034528Y028314D02*
X034289Y028314D01*
X034323Y028411D02*
X034594Y028411D01*
X034696Y028508D02*
X034323Y028508D01*
X034306Y028605D02*
X035384Y028605D01*
X035384Y028508D02*
X035238Y028508D01*
X035340Y028411D02*
X035384Y028411D01*
X035384Y028702D02*
X034266Y028702D01*
X034179Y028799D02*
X035384Y028799D01*
X035384Y028896D02*
X033997Y028896D01*
X033811Y028896D02*
X028333Y028896D01*
X028430Y028993D02*
X035384Y028993D01*
X035384Y029090D02*
X028527Y029090D01*
X028623Y029187D02*
X035384Y029187D01*
X035384Y029284D02*
X028720Y029284D01*
X028817Y029381D02*
X035384Y029381D01*
X035384Y029478D02*
X028914Y029478D01*
X029011Y029575D02*
X035384Y029575D01*
X035384Y029671D02*
X029108Y029671D01*
X029205Y029768D02*
X035384Y029768D01*
X035384Y029865D02*
X029302Y029865D01*
X029399Y029962D02*
X035384Y029962D01*
X035384Y030059D02*
X034058Y030059D01*
X033987Y030030D02*
X034142Y030094D01*
X034259Y030212D01*
X034323Y030366D01*
X034323Y030533D01*
X034259Y030687D01*
X034142Y030805D01*
X033987Y030869D01*
X033821Y030869D01*
X033667Y030805D01*
X033549Y030687D01*
X033485Y030533D01*
X033485Y030366D01*
X033549Y030212D01*
X033667Y030094D01*
X033821Y030030D01*
X033987Y030030D01*
X033750Y030059D02*
X029496Y030059D01*
X029593Y030156D02*
X033604Y030156D01*
X033532Y030253D02*
X029690Y030253D01*
X029787Y030350D02*
X033491Y030350D01*
X033485Y030447D02*
X029883Y030447D01*
X029980Y030544D02*
X033489Y030544D01*
X033530Y030641D02*
X030077Y030641D01*
X030087Y030650D02*
X030087Y030650D01*
X030174Y030738D02*
X033599Y030738D01*
X033739Y030835D02*
X030180Y030835D01*
X030123Y030931D02*
X034474Y030931D01*
X034474Y030835D02*
X034069Y030835D01*
X034209Y030738D02*
X034477Y030738D01*
X034517Y030641D02*
X034279Y030641D01*
X034319Y030544D02*
X034569Y030544D01*
X034666Y030447D02*
X034323Y030447D01*
X034317Y030350D02*
X035384Y030350D01*
X035384Y030447D02*
X035268Y030447D01*
X035365Y030544D02*
X035384Y030544D01*
X035384Y030253D02*
X034276Y030253D01*
X034204Y030156D02*
X035384Y030156D01*
X035382Y031125D02*
X035384Y031125D01*
X035384Y031222D02*
X035285Y031222D01*
X035384Y031319D02*
X035106Y031319D01*
X034828Y031319D02*
X029735Y031319D01*
X029832Y031222D02*
X034649Y031222D01*
X034552Y031125D02*
X029929Y031125D01*
X030026Y031028D02*
X034510Y031028D01*
X035384Y031416D02*
X029638Y031416D01*
X029541Y031513D02*
X035384Y031513D01*
X035384Y031610D02*
X029444Y031610D01*
X029347Y031707D02*
X035384Y031707D01*
X035384Y031804D02*
X029250Y031804D01*
X029153Y031901D02*
X035384Y031901D01*
X035384Y031998D02*
X029056Y031998D01*
X028959Y032095D02*
X035384Y032095D01*
X035384Y032191D02*
X028862Y032191D01*
X028766Y032288D02*
X035384Y032288D01*
X035384Y032385D02*
X028669Y032385D01*
X028572Y032482D02*
X035384Y032482D01*
X035384Y032579D02*
X028475Y032579D01*
X028378Y032676D02*
X035384Y032676D01*
X035384Y032773D02*
X028281Y032773D01*
X028184Y032870D02*
X035384Y032870D01*
X035384Y032967D02*
X028087Y032967D01*
X027990Y033064D02*
X035384Y033064D01*
X035384Y033161D02*
X027893Y033161D01*
X027796Y033258D02*
X035384Y033258D01*
X035384Y033355D02*
X027699Y033355D01*
X027602Y033452D02*
X035384Y033452D01*
X035384Y033548D02*
X027506Y033548D01*
X027409Y033645D02*
X035384Y033645D01*
X035384Y033742D02*
X027312Y033742D01*
X027215Y033839D02*
X035384Y033839D01*
X035384Y033936D02*
X027118Y033936D01*
X027021Y034033D02*
X035384Y034033D01*
X035384Y034130D02*
X026924Y034130D01*
X026827Y034227D02*
X035384Y034227D01*
X035384Y034324D02*
X026730Y034324D01*
X026633Y034421D02*
X035384Y034421D01*
X035327Y034518D02*
X026536Y034518D01*
X026439Y034615D02*
X035255Y034615D01*
X035226Y034712D02*
X026342Y034712D01*
X026245Y034808D02*
X035227Y034808D01*
X035267Y034905D02*
X026149Y034905D01*
X026052Y035002D02*
X035258Y035002D01*
X035226Y035099D02*
X025955Y035099D01*
X025858Y035196D02*
X035226Y035196D01*
X035265Y035293D02*
X025761Y035293D01*
X025731Y035099D02*
X025242Y035099D01*
X025145Y035002D02*
X025828Y035002D01*
X025925Y034905D02*
X025048Y034905D01*
X025005Y034808D02*
X026021Y034808D01*
X026118Y034712D02*
X025102Y034712D01*
X025113Y034615D02*
X026215Y034615D01*
X026312Y034518D02*
X025113Y034518D01*
X025113Y034421D02*
X026409Y034421D01*
X026506Y034324D02*
X025113Y034324D01*
X025113Y034227D02*
X026603Y034227D01*
X026700Y034130D02*
X025113Y034130D01*
X025113Y034033D02*
X026797Y034033D01*
X026894Y033936D02*
X025113Y033936D01*
X025113Y033839D02*
X026991Y033839D01*
X027088Y033742D02*
X025113Y033742D01*
X025113Y033645D02*
X027185Y033645D01*
X027281Y033548D02*
X025189Y033548D01*
X025286Y033452D02*
X027378Y033452D01*
X027475Y033355D02*
X025383Y033355D01*
X025479Y033258D02*
X027572Y033258D01*
X027669Y033161D02*
X025576Y033161D01*
X025673Y033064D02*
X027766Y033064D01*
X027863Y032967D02*
X025770Y032967D01*
X025867Y032870D02*
X027960Y032870D01*
X028057Y032773D02*
X025964Y032773D01*
X026061Y032676D02*
X028154Y032676D01*
X028251Y032579D02*
X026089Y032579D01*
X026089Y032482D02*
X028348Y032482D01*
X028445Y032385D02*
X026021Y032385D01*
X025689Y032385D02*
X022539Y032385D01*
X022636Y032288D02*
X028541Y032288D01*
X028638Y032191D02*
X022733Y032191D01*
X022830Y032095D02*
X028735Y032095D01*
X028832Y031998D02*
X022927Y031998D01*
X023024Y031901D02*
X028929Y031901D01*
X029026Y031804D02*
X023121Y031804D01*
X023218Y031707D02*
X023441Y031707D01*
X023355Y031610D02*
X023314Y031610D01*
X023187Y031513D02*
X018341Y031513D01*
X018341Y031416D02*
X023284Y031416D01*
X023381Y031319D02*
X018341Y031319D01*
X018341Y031222D02*
X023478Y031222D01*
X023575Y031125D02*
X018341Y031125D01*
X018341Y031072D02*
X018341Y032059D01*
X020211Y033929D01*
X020562Y033929D01*
X020667Y034034D01*
X022449Y032251D01*
X022407Y032251D01*
X021069Y033589D01*
X020875Y033589D01*
X020738Y033452D01*
X020738Y033258D01*
X019539Y033258D01*
X019636Y033355D02*
X020738Y033355D01*
X020738Y033452D02*
X019733Y033452D01*
X019830Y033548D02*
X020835Y033548D01*
X020958Y033742D02*
X020024Y033742D01*
X019927Y033645D02*
X021055Y033645D01*
X021109Y033548D02*
X021152Y033548D01*
X021206Y033452D02*
X021249Y033452D01*
X021303Y033355D02*
X021346Y033355D01*
X021400Y033258D02*
X021443Y033258D01*
X021497Y033161D02*
X021540Y033161D01*
X021594Y033064D02*
X021637Y033064D01*
X021691Y032967D02*
X021733Y032967D01*
X021788Y032870D02*
X021830Y032870D01*
X021885Y032773D02*
X021927Y032773D01*
X021982Y032676D02*
X022024Y032676D01*
X022079Y032579D02*
X022121Y032579D01*
X022176Y032482D02*
X022218Y032482D01*
X022273Y032385D02*
X022315Y032385D01*
X022369Y032288D02*
X022412Y032288D01*
X022442Y032482D02*
X025592Y032482D01*
X024645Y033742D02*
X024565Y033742D01*
X024626Y033839D02*
X024645Y033839D01*
X024645Y033936D02*
X024626Y033936D01*
X024645Y034033D02*
X024586Y034033D01*
X024557Y034130D02*
X024645Y034130D01*
X024645Y034227D02*
X024557Y034227D01*
X024557Y034324D02*
X024645Y034324D01*
X024645Y034421D02*
X024563Y034421D01*
X024398Y034480D02*
X024398Y033898D01*
X024398Y034480D02*
X025546Y035627D01*
X026037Y035627D01*
X026037Y036035D01*
X026330Y035778D02*
X026744Y035778D01*
X026648Y035874D02*
X026876Y035646D01*
X027198Y035646D01*
X027426Y035874D01*
X027426Y036196D01*
X027198Y036424D01*
X026876Y036424D01*
X026648Y036196D01*
X026648Y035874D01*
X026648Y035875D02*
X026426Y035875D01*
X026426Y035972D02*
X026648Y035972D01*
X026648Y036069D02*
X026426Y036069D01*
X026426Y036165D02*
X026648Y036165D01*
X026714Y036262D02*
X026360Y036262D01*
X026263Y036359D02*
X026811Y036359D01*
X026876Y036646D02*
X027198Y036646D01*
X027426Y036874D01*
X027426Y037196D01*
X027198Y037424D01*
X026876Y037424D01*
X026648Y037196D01*
X026648Y036874D01*
X026876Y036646D01*
X026872Y036650D02*
X026202Y036650D01*
X026187Y036553D02*
X033177Y036553D01*
X033074Y036650D02*
X032202Y036650D01*
X032198Y036646D02*
X032426Y036874D01*
X032426Y037196D01*
X032198Y037424D01*
X031876Y037424D01*
X031648Y037196D01*
X031648Y036874D01*
X031876Y036646D01*
X032198Y036646D01*
X032299Y036747D02*
X032990Y036747D01*
X032917Y036844D02*
X032396Y036844D01*
X032426Y036941D02*
X032866Y036941D01*
X032821Y037038D02*
X032426Y037038D01*
X032426Y037135D02*
X032785Y037135D01*
X032761Y037232D02*
X032391Y037232D01*
X032294Y037329D02*
X032740Y037329D01*
X032733Y037425D02*
X006837Y037425D01*
X006830Y037329D02*
X016780Y037329D01*
X016683Y037232D02*
X006809Y037232D01*
X006785Y037135D02*
X016648Y037135D01*
X016648Y037038D02*
X006749Y037038D01*
X006842Y037522D02*
X032728Y037522D01*
X032728Y037619D02*
X006842Y037619D01*
X006842Y037716D02*
X032728Y037716D01*
X032728Y037813D02*
X006842Y037813D01*
X006842Y037910D02*
X032728Y037910D01*
X032728Y038007D02*
X006842Y038007D01*
X006842Y038104D02*
X032728Y038104D01*
X032728Y038201D02*
X006842Y038201D01*
X006842Y038298D02*
X032728Y038298D01*
X032728Y038395D02*
X006842Y038395D01*
X006842Y038492D02*
X032728Y038492D01*
X032728Y038589D02*
X006842Y038589D01*
X006842Y038686D02*
X032728Y038686D01*
X032728Y038782D02*
X006842Y038782D01*
X006842Y038879D02*
X032728Y038879D01*
X031780Y037329D02*
X031294Y037329D01*
X031198Y037424D02*
X031426Y037196D01*
X031426Y036874D01*
X031198Y036646D01*
X030876Y036646D01*
X030648Y036874D01*
X030648Y037196D01*
X030876Y037424D01*
X031198Y037424D01*
X031391Y037232D02*
X031683Y037232D01*
X031648Y037135D02*
X031426Y037135D01*
X031426Y037038D02*
X031648Y037038D01*
X031648Y036941D02*
X031426Y036941D01*
X031396Y036844D02*
X031678Y036844D01*
X031775Y036747D02*
X031299Y036747D01*
X031202Y036650D02*
X031872Y036650D01*
X031960Y036424D02*
X031817Y036365D01*
X031707Y036256D01*
X031648Y036112D01*
X031648Y035958D01*
X031707Y035815D01*
X031817Y035705D01*
X031960Y035646D01*
X032114Y035646D01*
X032257Y035705D01*
X032367Y035815D01*
X032426Y035958D01*
X032426Y036112D01*
X032367Y036256D01*
X032257Y036365D01*
X032114Y036424D01*
X031960Y036424D01*
X031811Y036359D02*
X031263Y036359D01*
X031198Y036424D02*
X031426Y036196D01*
X031426Y035874D01*
X031198Y035646D01*
X030876Y035646D01*
X030648Y035874D01*
X030648Y036196D01*
X030876Y036424D01*
X031198Y036424D01*
X031360Y036262D02*
X031714Y036262D01*
X031670Y036165D02*
X031426Y036165D01*
X031426Y036069D02*
X031648Y036069D01*
X031648Y035972D02*
X031426Y035972D01*
X031426Y035875D02*
X031682Y035875D01*
X031744Y035778D02*
X031330Y035778D01*
X031233Y035681D02*
X031875Y035681D01*
X032199Y035681D02*
X035262Y035681D01*
X035263Y035778D02*
X032330Y035778D01*
X032392Y035875D02*
X035226Y035875D01*
X035226Y035972D02*
X032426Y035972D01*
X032426Y036069D02*
X035260Y036069D01*
X035265Y036165D02*
X032404Y036165D01*
X032360Y036262D02*
X035226Y036262D01*
X035226Y035584D02*
X026195Y035584D01*
X026233Y035681D02*
X026841Y035681D01*
X027233Y035681D02*
X027841Y035681D01*
X027876Y035646D02*
X028198Y035646D01*
X028426Y035874D01*
X028426Y036196D01*
X028198Y036424D01*
X027876Y036424D01*
X027648Y036196D01*
X027648Y035874D01*
X027876Y035646D01*
X027744Y035778D02*
X027330Y035778D01*
X027426Y035875D02*
X027648Y035875D01*
X027648Y035972D02*
X027426Y035972D01*
X027426Y036069D02*
X027648Y036069D01*
X027648Y036165D02*
X027426Y036165D01*
X027360Y036262D02*
X027714Y036262D01*
X027811Y036359D02*
X027263Y036359D01*
X027202Y036650D02*
X027872Y036650D01*
X027876Y036646D02*
X028198Y036646D01*
X028426Y036874D01*
X028426Y037196D01*
X028198Y037424D01*
X027876Y037424D01*
X027648Y037196D01*
X027648Y036874D01*
X027876Y036646D01*
X027775Y036747D02*
X027299Y036747D01*
X027396Y036844D02*
X027678Y036844D01*
X027648Y036941D02*
X027426Y036941D01*
X027426Y037038D02*
X027648Y037038D01*
X027648Y037135D02*
X027426Y037135D01*
X027391Y037232D02*
X027683Y037232D01*
X027780Y037329D02*
X027294Y037329D01*
X026780Y037329D02*
X026294Y037329D01*
X026391Y037232D02*
X026683Y037232D01*
X026648Y037135D02*
X026426Y037135D01*
X026426Y037038D02*
X026648Y037038D01*
X026648Y036941D02*
X026426Y036941D01*
X026396Y036844D02*
X026678Y036844D01*
X026775Y036747D02*
X026299Y036747D01*
X026090Y036456D02*
X033312Y036456D01*
X033509Y036359D02*
X032263Y036359D01*
X030872Y036650D02*
X030202Y036650D01*
X030198Y036646D02*
X030426Y036874D01*
X030426Y037196D01*
X030198Y037424D01*
X029876Y037424D01*
X029648Y037196D01*
X029648Y036874D01*
X029876Y036646D01*
X030198Y036646D01*
X030299Y036747D02*
X030775Y036747D01*
X030678Y036844D02*
X030396Y036844D01*
X030426Y036941D02*
X030648Y036941D01*
X030648Y037038D02*
X030426Y037038D01*
X030426Y037135D02*
X030648Y037135D01*
X030683Y037232D02*
X030391Y037232D01*
X030294Y037329D02*
X030780Y037329D01*
X030811Y036359D02*
X030263Y036359D01*
X030198Y036424D02*
X029876Y036424D01*
X029648Y036196D01*
X029648Y035874D01*
X029876Y035646D01*
X030198Y035646D01*
X030426Y035874D01*
X030426Y036196D01*
X030198Y036424D01*
X030360Y036262D02*
X030714Y036262D01*
X030648Y036165D02*
X030426Y036165D01*
X030426Y036069D02*
X030648Y036069D01*
X030648Y035972D02*
X030426Y035972D01*
X030426Y035875D02*
X030648Y035875D01*
X030744Y035778D02*
X030330Y035778D01*
X030233Y035681D02*
X030841Y035681D01*
X029841Y035681D02*
X029233Y035681D01*
X029198Y035646D02*
X029426Y035874D01*
X029426Y036196D01*
X029198Y036424D01*
X028876Y036424D01*
X028648Y036196D01*
X028648Y035874D01*
X028876Y035646D01*
X029198Y035646D01*
X029330Y035778D02*
X029744Y035778D01*
X029648Y035875D02*
X029426Y035875D01*
X029426Y035972D02*
X029648Y035972D01*
X029648Y036069D02*
X029426Y036069D01*
X029426Y036165D02*
X029648Y036165D01*
X029714Y036262D02*
X029360Y036262D01*
X029263Y036359D02*
X029811Y036359D01*
X029872Y036650D02*
X029202Y036650D01*
X029198Y036646D02*
X029426Y036874D01*
X029426Y037196D01*
X029198Y037424D01*
X028876Y037424D01*
X028648Y037196D01*
X028648Y036874D01*
X028876Y036646D01*
X029198Y036646D01*
X029299Y036747D02*
X029775Y036747D01*
X029678Y036844D02*
X029396Y036844D01*
X029426Y036941D02*
X029648Y036941D01*
X029648Y037038D02*
X029426Y037038D01*
X029426Y037135D02*
X029648Y037135D01*
X029683Y037232D02*
X029391Y037232D01*
X029294Y037329D02*
X029780Y037329D01*
X028780Y037329D02*
X028294Y037329D01*
X028391Y037232D02*
X028683Y037232D01*
X028648Y037135D02*
X028426Y037135D01*
X028426Y037038D02*
X028648Y037038D01*
X028648Y036941D02*
X028426Y036941D01*
X028396Y036844D02*
X028678Y036844D01*
X028775Y036747D02*
X028299Y036747D01*
X028202Y036650D02*
X028872Y036650D01*
X028811Y036359D02*
X028263Y036359D01*
X028360Y036262D02*
X028714Y036262D01*
X028648Y036165D02*
X028426Y036165D01*
X028426Y036069D02*
X028648Y036069D01*
X028648Y035972D02*
X028426Y035972D01*
X028426Y035875D02*
X028648Y035875D01*
X028744Y035778D02*
X028330Y035778D01*
X028233Y035681D02*
X028841Y035681D01*
X026121Y035487D02*
X035226Y035487D01*
X035260Y035390D02*
X025533Y035390D01*
X024466Y036056D02*
X025037Y036627D01*
X025037Y037035D01*
X021791Y034324D02*
X020918Y034324D01*
X020684Y034269D02*
X020655Y034297D01*
X020655Y034354D01*
X020417Y034421D02*
X019875Y034421D01*
X019972Y034518D02*
X020449Y034518D01*
X020488Y034615D02*
X019976Y034615D01*
X019975Y034712D02*
X020585Y034712D01*
X020682Y034808D02*
X019878Y034808D01*
X019749Y034324D02*
X020320Y034324D01*
X020223Y034227D02*
X019652Y034227D01*
X019555Y034130D02*
X020126Y034130D01*
X020030Y034033D02*
X019458Y034033D01*
X019361Y033936D02*
X019933Y033936D01*
X019836Y033839D02*
X019265Y033839D01*
X019168Y033742D02*
X019739Y033742D01*
X019642Y033645D02*
X019071Y033645D01*
X018974Y033548D02*
X019545Y033548D01*
X019448Y033452D02*
X018877Y033452D01*
X018780Y033355D02*
X019351Y033355D01*
X019254Y033258D02*
X018683Y033258D01*
X018586Y033161D02*
X019157Y033161D01*
X019060Y033064D02*
X018489Y033064D01*
X018427Y032967D02*
X018963Y032967D01*
X018866Y032870D02*
X018333Y032870D01*
X018193Y032773D02*
X018769Y032773D01*
X018673Y032676D02*
X018096Y032676D01*
X017999Y032579D02*
X018576Y032579D01*
X018479Y032482D02*
X017902Y032482D01*
X017879Y032385D02*
X018382Y032385D01*
X018285Y032288D02*
X017806Y032288D01*
X017623Y032191D02*
X018188Y032191D01*
X018091Y032095D02*
X017526Y032095D01*
X017429Y031998D02*
X018052Y031998D01*
X018052Y031901D02*
X017332Y031901D01*
X017235Y031804D02*
X018052Y031804D01*
X018052Y031707D02*
X017138Y031707D01*
X017041Y031610D02*
X018052Y031610D01*
X018052Y031513D02*
X016944Y031513D01*
X016847Y031416D02*
X018052Y031416D01*
X018052Y031319D02*
X016750Y031319D01*
X016654Y031222D02*
X018052Y031222D01*
X018063Y031125D02*
X016557Y031125D01*
X016460Y031028D02*
X018160Y031028D01*
X018257Y030931D02*
X016363Y030931D01*
X016266Y030835D02*
X018354Y030835D01*
X018451Y030738D02*
X016169Y030738D01*
X016072Y030641D02*
X018548Y030641D01*
X018645Y030544D02*
X015975Y030544D01*
X015878Y030447D02*
X018742Y030447D01*
X018839Y030350D02*
X015781Y030350D01*
X015684Y030253D02*
X018936Y030253D01*
X019032Y030156D02*
X015587Y030156D01*
X015490Y030059D02*
X019129Y030059D01*
X019226Y029962D02*
X015394Y029962D01*
X015330Y029865D02*
X019290Y029865D01*
X019266Y029768D02*
X015248Y029768D01*
X015114Y029671D02*
X019266Y029671D01*
X019339Y029575D02*
X015017Y029575D01*
X014920Y029478D02*
X019711Y029478D01*
X019808Y029381D02*
X014823Y029381D01*
X014726Y029284D02*
X019883Y029284D01*
X019786Y029187D02*
X014629Y029187D01*
X014532Y029090D02*
X019689Y029090D01*
X019592Y028993D02*
X014435Y028993D01*
X014338Y028896D02*
X019495Y028896D01*
X019398Y028799D02*
X014241Y028799D01*
X014144Y028702D02*
X019301Y028702D01*
X019204Y028605D02*
X014048Y028605D01*
X013951Y028508D02*
X019009Y028508D01*
X018949Y028411D02*
X013854Y028411D01*
X013757Y028314D02*
X018949Y028314D01*
X018992Y028218D02*
X013660Y028218D01*
X013622Y028121D02*
X019314Y028121D01*
X019364Y028218D02*
X019411Y028218D01*
X019406Y028314D02*
X019508Y028314D01*
X019459Y028411D02*
X019605Y028411D01*
X019556Y028508D02*
X019702Y028508D01*
X019652Y028605D02*
X019799Y028605D01*
X019749Y028702D02*
X019896Y028702D01*
X019846Y028799D02*
X019993Y028799D01*
X019943Y028896D02*
X020090Y028896D01*
X020040Y028993D02*
X020187Y028993D01*
X020464Y029046D02*
X018494Y027076D01*
X018437Y027076D01*
X018286Y027248D02*
X013622Y027248D01*
X013622Y027151D02*
X018209Y027151D01*
X018209Y027054D02*
X013622Y027054D01*
X013622Y026958D02*
X018233Y026958D01*
X018330Y026861D02*
X013622Y026861D01*
X013622Y026764D02*
X018971Y026764D01*
X018874Y026861D02*
X018544Y026861D01*
X018641Y026958D02*
X018855Y026958D01*
X018855Y027054D02*
X018696Y027054D01*
X018793Y027151D02*
X018937Y027151D01*
X018890Y027248D02*
X019072Y027248D01*
X018987Y027345D02*
X019169Y027345D01*
X019084Y027442D02*
X019266Y027442D01*
X019181Y027539D02*
X019363Y027539D01*
X019278Y027636D02*
X019460Y027636D01*
X019375Y027733D02*
X019557Y027733D01*
X019471Y027830D02*
X019654Y027830D01*
X019568Y027927D02*
X019751Y027927D01*
X019665Y028024D02*
X019848Y028024D01*
X019762Y028121D02*
X019945Y028121D01*
X019859Y028218D02*
X020042Y028218D01*
X019956Y028314D02*
X020139Y028314D01*
X020053Y028411D02*
X020236Y028411D01*
X020150Y028508D02*
X020333Y028508D01*
X020247Y028605D02*
X020429Y028605D01*
X020486Y028702D02*
X020344Y028702D01*
X020692Y028959D02*
X020692Y029141D01*
X020558Y029275D01*
X020385Y029275D01*
X020385Y029435D01*
X020252Y029569D01*
X020062Y029569D01*
X019953Y029460D01*
X018341Y031072D01*
X018384Y031028D02*
X023672Y031028D01*
X023769Y030931D02*
X018481Y030931D01*
X018578Y030835D02*
X023866Y030835D01*
X023963Y030738D02*
X018675Y030738D01*
X018772Y030641D02*
X024060Y030641D01*
X024157Y030544D02*
X018869Y030544D01*
X018966Y030447D02*
X024254Y030447D01*
X024350Y030350D02*
X019063Y030350D01*
X019160Y030253D02*
X024447Y030253D01*
X024544Y030156D02*
X019257Y030156D01*
X019353Y030059D02*
X024641Y030059D01*
X024738Y029962D02*
X019450Y029962D01*
X019547Y029865D02*
X024835Y029865D01*
X024932Y029768D02*
X019644Y029768D01*
X019741Y029671D02*
X025029Y029671D01*
X025126Y029575D02*
X019838Y029575D01*
X019935Y029478D02*
X019971Y029478D01*
X020157Y029341D02*
X020157Y029334D01*
X019178Y028354D01*
X019217Y028024D02*
X013622Y028024D01*
X013622Y027927D02*
X019120Y027927D01*
X019023Y027830D02*
X013622Y027830D01*
X013622Y027733D02*
X018926Y027733D01*
X018830Y027636D02*
X013622Y027636D01*
X013622Y027539D02*
X018733Y027539D01*
X018636Y027442D02*
X013622Y027442D01*
X013622Y027345D02*
X018539Y027345D01*
X019083Y027035D02*
X019083Y026974D01*
X019083Y027035D02*
X020779Y028731D01*
X020937Y028896D02*
X025804Y028896D01*
X025707Y028993D02*
X020692Y028993D01*
X020692Y028959D02*
X020874Y028959D01*
X021007Y028825D01*
X021007Y028636D01*
X020892Y028521D01*
X021077Y028336D01*
X021196Y028455D01*
X021385Y028455D01*
X021519Y028322D01*
X021519Y028133D01*
X021399Y028013D01*
X021875Y027537D01*
X021971Y027633D01*
X022160Y027633D01*
X022294Y027499D01*
X022294Y027310D01*
X022198Y027214D01*
X024116Y025297D01*
X027265Y025297D01*
X028446Y026478D01*
X027181Y027744D01*
X027134Y027697D01*
X027003Y027697D01*
X026454Y028246D01*
X026385Y028246D01*
X026252Y028380D01*
X026252Y028449D01*
X022792Y031908D01*
X022666Y031783D01*
X022213Y031783D01*
X022076Y031920D01*
X020738Y033258D01*
X020835Y033161D02*
X019442Y033161D01*
X019345Y033064D02*
X020932Y033064D01*
X021029Y032967D02*
X019248Y032967D01*
X019151Y032870D02*
X021125Y032870D01*
X021222Y032773D02*
X019054Y032773D01*
X018958Y032676D02*
X021319Y032676D01*
X021416Y032579D02*
X018861Y032579D01*
X018764Y032482D02*
X021513Y032482D01*
X021610Y032385D02*
X018667Y032385D01*
X018570Y032288D02*
X021707Y032288D01*
X021804Y032191D02*
X018473Y032191D01*
X018376Y032095D02*
X021901Y032095D01*
X021998Y031998D02*
X018341Y031998D01*
X018341Y031901D02*
X022095Y031901D01*
X022192Y031804D02*
X018341Y031804D01*
X018341Y031707D02*
X022993Y031707D01*
X022897Y031804D02*
X022687Y031804D01*
X022784Y031901D02*
X022800Y031901D01*
X023090Y031610D02*
X018341Y031610D01*
X020121Y033839D02*
X020861Y033839D01*
X020764Y033936D02*
X020569Y033936D01*
X020666Y034033D02*
X020667Y034033D01*
X020841Y035681D02*
X020233Y035681D01*
X020198Y035646D02*
X020426Y035874D01*
X020426Y036196D01*
X020198Y036424D01*
X019876Y036424D01*
X019648Y036196D01*
X019648Y035874D01*
X019876Y035646D01*
X020198Y035646D01*
X020330Y035778D02*
X020744Y035778D01*
X020648Y035875D02*
X020426Y035875D01*
X020426Y035972D02*
X020648Y035972D01*
X020648Y036069D02*
X020426Y036069D01*
X020426Y036165D02*
X020648Y036165D01*
X020714Y036262D02*
X020360Y036262D01*
X020263Y036359D02*
X020811Y036359D01*
X020872Y036650D02*
X020202Y036650D01*
X020198Y036646D02*
X020426Y036874D01*
X020426Y037196D01*
X020198Y037424D01*
X019876Y037424D01*
X019648Y037196D01*
X019648Y036874D01*
X019876Y036646D01*
X020198Y036646D01*
X020299Y036747D02*
X020775Y036747D01*
X020678Y036844D02*
X020396Y036844D01*
X020426Y036941D02*
X020648Y036941D01*
X020648Y037038D02*
X020426Y037038D01*
X020426Y037135D02*
X020648Y037135D01*
X020683Y037232D02*
X020391Y037232D01*
X020294Y037329D02*
X020780Y037329D01*
X019872Y036650D02*
X019202Y036650D01*
X019198Y036646D02*
X019426Y036874D01*
X019426Y037196D01*
X019198Y037424D01*
X018876Y037424D01*
X018648Y037196D01*
X018648Y036874D01*
X018876Y036646D01*
X019198Y036646D01*
X019299Y036747D02*
X019775Y036747D01*
X019678Y036844D02*
X019396Y036844D01*
X019426Y036941D02*
X019648Y036941D01*
X019648Y037038D02*
X019426Y037038D01*
X019426Y037135D02*
X019648Y037135D01*
X019683Y037232D02*
X019391Y037232D01*
X019294Y037329D02*
X019780Y037329D01*
X019811Y036359D02*
X019263Y036359D01*
X019198Y036424D02*
X018876Y036424D01*
X018648Y036196D01*
X018648Y035874D01*
X018876Y035646D01*
X019198Y035646D01*
X019426Y035874D01*
X019426Y036196D01*
X019198Y036424D01*
X019360Y036262D02*
X019714Y036262D01*
X019648Y036165D02*
X019426Y036165D01*
X019426Y036069D02*
X019648Y036069D01*
X019648Y035972D02*
X019426Y035972D01*
X019426Y035875D02*
X019648Y035875D01*
X019744Y035778D02*
X019330Y035778D01*
X019233Y035681D02*
X019841Y035681D01*
X018841Y035681D02*
X018233Y035681D01*
X018198Y035646D02*
X018426Y035874D01*
X018426Y036196D01*
X018198Y036424D01*
X017876Y036424D01*
X017648Y036196D01*
X017648Y035874D01*
X017876Y035646D01*
X018198Y035646D01*
X018330Y035778D02*
X018744Y035778D01*
X018648Y035875D02*
X018426Y035875D01*
X018426Y035972D02*
X018648Y035972D01*
X018648Y036069D02*
X018426Y036069D01*
X018426Y036165D02*
X018648Y036165D01*
X018714Y036262D02*
X018360Y036262D01*
X018263Y036359D02*
X018811Y036359D01*
X018872Y036650D02*
X018202Y036650D01*
X018198Y036646D02*
X018426Y036874D01*
X018426Y037196D01*
X018198Y037424D01*
X017876Y037424D01*
X017648Y037196D01*
X017648Y036874D01*
X017876Y036646D01*
X018198Y036646D01*
X018299Y036747D02*
X018775Y036747D01*
X018678Y036844D02*
X018396Y036844D01*
X018426Y036941D02*
X018648Y036941D01*
X018648Y037038D02*
X018426Y037038D01*
X018426Y037135D02*
X018648Y037135D01*
X018683Y037232D02*
X018391Y037232D01*
X018294Y037329D02*
X018780Y037329D01*
X017872Y036650D02*
X017202Y036650D01*
X017299Y036747D02*
X017775Y036747D01*
X017678Y036844D02*
X017396Y036844D01*
X017426Y036941D02*
X017648Y036941D01*
X017648Y037038D02*
X017426Y037038D01*
X017426Y037135D02*
X017648Y037135D01*
X017683Y037232D02*
X017391Y037232D01*
X017294Y037329D02*
X017780Y037329D01*
X017811Y036359D02*
X017263Y036359D01*
X017360Y036262D02*
X017714Y036262D01*
X017648Y036165D02*
X017426Y036165D01*
X017426Y036069D02*
X017648Y036069D01*
X017648Y035972D02*
X017426Y035972D01*
X017426Y035875D02*
X017648Y035875D01*
X017744Y035778D02*
X017330Y035778D01*
X017233Y035681D02*
X017841Y035681D01*
X020343Y029478D02*
X025223Y029478D01*
X025320Y029381D02*
X020385Y029381D01*
X020385Y029284D02*
X025417Y029284D01*
X025514Y029187D02*
X020646Y029187D01*
X020692Y029090D02*
X025610Y029090D01*
X025901Y028799D02*
X021007Y028799D01*
X021007Y028702D02*
X025998Y028702D01*
X026095Y028605D02*
X020976Y028605D01*
X020904Y028508D02*
X026192Y028508D01*
X026252Y028411D02*
X021429Y028411D01*
X021519Y028314D02*
X026317Y028314D01*
X026483Y028218D02*
X021519Y028218D01*
X021507Y028121D02*
X026580Y028121D01*
X026677Y028024D02*
X021410Y028024D01*
X021486Y027927D02*
X026774Y027927D01*
X026871Y027830D02*
X021583Y027830D01*
X021680Y027733D02*
X026967Y027733D01*
X027105Y027677D02*
X026914Y027486D01*
X027170Y027733D02*
X027191Y027733D01*
X027288Y027636D02*
X021777Y027636D01*
X021874Y027539D02*
X021877Y027539D01*
X021746Y027442D02*
X020777Y027442D01*
X020756Y027345D02*
X021782Y027345D01*
X021685Y027248D02*
X020659Y027248D01*
X020438Y027248D02*
X019521Y027248D01*
X019617Y027345D02*
X020341Y027345D01*
X020321Y027442D02*
X019714Y027442D01*
X019811Y027539D02*
X020321Y027539D01*
X020401Y027636D02*
X019908Y027636D01*
X020005Y027733D02*
X020572Y027733D01*
X020669Y027830D02*
X020102Y027830D01*
X020199Y027927D02*
X020766Y027927D01*
X020863Y028024D02*
X020296Y028024D01*
X020393Y028121D02*
X020960Y028121D01*
X020971Y028218D02*
X020490Y028218D01*
X020587Y028314D02*
X020874Y028314D01*
X020777Y028411D02*
X020684Y028411D01*
X021001Y028411D02*
X021152Y028411D01*
X021291Y028227D02*
X020549Y027485D01*
X020549Y027461D01*
X020827Y027539D02*
X021649Y027539D01*
X021553Y027636D02*
X020924Y027636D01*
X021020Y027733D02*
X021456Y027733D01*
X021359Y027830D02*
X021117Y027830D01*
X021214Y027927D02*
X021262Y027927D01*
X021644Y028330D02*
X021973Y028658D01*
X022254Y027539D02*
X027385Y027539D01*
X027482Y027442D02*
X022294Y027442D01*
X022294Y027345D02*
X027579Y027345D01*
X027676Y027248D02*
X022232Y027248D01*
X022261Y027151D02*
X027773Y027151D01*
X027870Y027054D02*
X022358Y027054D01*
X022455Y026958D02*
X027967Y026958D01*
X028064Y026861D02*
X022552Y026861D01*
X022649Y026764D02*
X028161Y026764D01*
X028258Y026667D02*
X022746Y026667D01*
X022843Y026570D02*
X028355Y026570D01*
X028441Y026473D02*
X022940Y026473D01*
X023037Y026376D02*
X028344Y026376D01*
X028248Y026279D02*
X023134Y026279D01*
X023230Y026182D02*
X028151Y026182D01*
X028054Y026085D02*
X023327Y026085D01*
X023424Y025988D02*
X027957Y025988D01*
X027860Y025891D02*
X023521Y025891D01*
X023618Y025794D02*
X027763Y025794D01*
X027666Y025697D02*
X023715Y025697D01*
X023812Y025601D02*
X027569Y025601D01*
X027472Y025504D02*
X023909Y025504D01*
X024006Y025407D02*
X027375Y025407D01*
X027278Y025310D02*
X024103Y025310D01*
X023976Y025213D02*
X013622Y025213D01*
X013622Y025310D02*
X023879Y025310D01*
X023575Y025407D02*
X020333Y025407D01*
X020430Y025504D02*
X023507Y025504D01*
X023507Y025601D02*
X020524Y025601D01*
X020621Y025697D02*
X023491Y025697D01*
X023394Y025794D02*
X020718Y025794D01*
X020815Y025891D02*
X023297Y025891D01*
X023200Y025988D02*
X020912Y025988D01*
X021008Y026085D02*
X023103Y026085D01*
X023006Y026182D02*
X021105Y026182D01*
X021202Y026279D02*
X022910Y026279D01*
X022813Y026376D02*
X021299Y026376D01*
X021495Y026473D02*
X022716Y026473D01*
X022619Y026570D02*
X021588Y026570D01*
X021588Y026667D02*
X022522Y026667D01*
X022425Y026764D02*
X021649Y026764D01*
X021746Y026861D02*
X022328Y026861D01*
X022231Y026958D02*
X021843Y026958D01*
X021939Y027054D02*
X022134Y027054D01*
X022036Y027151D02*
X022037Y027151D01*
X022065Y027405D02*
X021359Y026698D01*
X021359Y026660D01*
X020301Y025602D01*
X020205Y025602D01*
X019977Y025601D02*
X013622Y025601D01*
X013622Y025697D02*
X019978Y025697D01*
X020075Y025794D02*
X013622Y025794D01*
X013622Y025891D02*
X020367Y025891D01*
X020463Y025988D02*
X013622Y025988D01*
X013622Y026085D02*
X020560Y026085D01*
X020657Y026182D02*
X013622Y026182D01*
X013622Y026279D02*
X020754Y026279D01*
X020851Y026376D02*
X013622Y026376D01*
X013622Y026473D02*
X020948Y026473D01*
X021045Y026570D02*
X013622Y026570D01*
X013622Y026667D02*
X021131Y026667D01*
X021140Y026764D02*
X019195Y026764D01*
X019292Y026861D02*
X021237Y026861D01*
X021394Y026958D02*
X019311Y026958D01*
X019327Y027054D02*
X021491Y027054D01*
X021588Y027151D02*
X019424Y027151D01*
X019981Y025504D02*
X013622Y025504D01*
X013622Y025407D02*
X020078Y025407D01*
X022734Y022014D02*
X016683Y022014D01*
X016625Y021724D02*
X009580Y021724D01*
X009580Y021627D02*
X016528Y021627D01*
X016431Y021530D02*
X009580Y021530D01*
X009580Y021433D02*
X016334Y021433D01*
X016631Y021142D02*
X022692Y021142D01*
X022668Y021239D02*
X016728Y021239D01*
X016559Y021045D02*
X022745Y021045D01*
X022861Y020948D02*
X016559Y020948D01*
X016490Y020851D02*
X032728Y020851D01*
X032728Y020754D02*
X006842Y020754D01*
X006842Y020657D02*
X032728Y020657D01*
X032728Y020560D02*
X006842Y020560D01*
X006842Y020464D02*
X032728Y020464D01*
X032728Y020367D02*
X006842Y020367D01*
X006842Y020270D02*
X032728Y020270D01*
X032728Y020173D02*
X006842Y020173D01*
X006842Y020076D02*
X032728Y020076D01*
X032728Y019979D02*
X006842Y019979D01*
X006842Y020851D02*
X016172Y020851D01*
X014646Y022499D02*
X024614Y022499D01*
X024711Y022402D02*
X023464Y022402D01*
X023561Y022305D02*
X024803Y022305D01*
X024803Y022208D02*
X023658Y022208D01*
X023754Y022111D02*
X023836Y022111D01*
X024238Y022111D02*
X024803Y022111D01*
X024734Y022014D02*
X024340Y022014D01*
X024386Y021917D02*
X024688Y021917D01*
X024668Y021820D02*
X024406Y021820D01*
X024406Y021724D02*
X024668Y021724D01*
X024668Y021627D02*
X024406Y021627D01*
X024406Y021530D02*
X024668Y021530D01*
X024668Y021433D02*
X024406Y021433D01*
X024406Y021336D02*
X024668Y021336D01*
X024668Y021239D02*
X024406Y021239D01*
X024382Y021142D02*
X024692Y021142D01*
X024745Y021045D02*
X024329Y021045D01*
X024213Y020948D02*
X024861Y020948D01*
X025213Y020948D02*
X025791Y020948D01*
X025770Y020963D02*
X025823Y020925D01*
X025880Y020896D01*
X025941Y020876D01*
X026005Y020866D01*
X026006Y020866D01*
X026006Y021504D01*
X026068Y021504D01*
X026068Y021566D01*
X026006Y021566D01*
X026006Y021504D01*
X025628Y021504D01*
X025628Y021243D01*
X025638Y021179D01*
X025658Y021118D01*
X025687Y021061D01*
X025725Y021008D01*
X025770Y020963D01*
X025698Y021045D02*
X025329Y021045D01*
X025382Y021142D02*
X025650Y021142D01*
X025628Y021239D02*
X025406Y021239D01*
X025406Y021336D02*
X025628Y021336D01*
X025628Y021433D02*
X025406Y021433D01*
X025406Y021530D02*
X026006Y021530D01*
X026006Y021566D02*
X025628Y021566D01*
X025628Y021827D01*
X025638Y021891D01*
X025658Y021952D01*
X025687Y022010D01*
X025725Y022062D01*
X025770Y022107D01*
X025823Y022145D01*
X025880Y022174D01*
X025941Y022194D01*
X026005Y022204D01*
X026006Y022204D01*
X026006Y021566D01*
X026006Y021627D02*
X026068Y021627D01*
X026068Y021566D02*
X026068Y022204D01*
X026069Y022204D01*
X026133Y022194D01*
X026194Y022174D01*
X026251Y022145D01*
X026304Y022107D01*
X026349Y022062D01*
X026387Y022010D01*
X026416Y021952D01*
X026436Y021891D01*
X026446Y021827D01*
X026446Y021566D01*
X026068Y021566D01*
X026068Y021530D02*
X026668Y021530D01*
X026668Y021627D02*
X026446Y021627D01*
X026446Y021724D02*
X026668Y021724D01*
X026668Y021820D02*
X026446Y021820D01*
X026428Y021917D02*
X026688Y021917D01*
X026668Y021868D02*
X026668Y021202D01*
X026724Y021066D01*
X026828Y020962D01*
X026964Y020906D01*
X027110Y020906D01*
X027246Y020962D01*
X027350Y021066D01*
X027406Y021202D01*
X027406Y021868D01*
X027350Y022004D01*
X027246Y022108D01*
X027110Y022164D01*
X026964Y022164D01*
X026828Y022108D01*
X026724Y022004D01*
X026668Y021868D01*
X026734Y022014D02*
X026384Y022014D01*
X026298Y022111D02*
X026836Y022111D01*
X027238Y022111D02*
X027836Y022111D01*
X027828Y022108D02*
X027724Y022004D01*
X027668Y021868D01*
X027668Y021202D01*
X027724Y021066D01*
X027828Y020962D01*
X027964Y020906D01*
X028110Y020906D01*
X028246Y020962D01*
X028350Y021066D01*
X028406Y021202D01*
X028406Y021868D01*
X028350Y022004D01*
X028246Y022108D01*
X028110Y022164D01*
X027964Y022164D01*
X027828Y022108D01*
X027734Y022014D02*
X027340Y022014D01*
X027386Y021917D02*
X027688Y021917D01*
X027668Y021820D02*
X027406Y021820D01*
X027406Y021724D02*
X027668Y021724D01*
X027668Y021627D02*
X027406Y021627D01*
X027406Y021530D02*
X027668Y021530D01*
X027668Y021433D02*
X027406Y021433D01*
X027406Y021336D02*
X027668Y021336D01*
X027668Y021239D02*
X027406Y021239D01*
X027382Y021142D02*
X027692Y021142D01*
X027745Y021045D02*
X027329Y021045D01*
X027213Y020948D02*
X027861Y020948D01*
X028213Y020948D02*
X028861Y020948D01*
X028828Y020962D02*
X028964Y020906D01*
X029110Y020906D01*
X029246Y020962D01*
X029350Y021066D01*
X029406Y021202D01*
X029406Y021868D01*
X029350Y022004D01*
X029246Y022108D01*
X029110Y022164D01*
X028964Y022164D01*
X028828Y022108D01*
X028724Y022004D01*
X028668Y021868D01*
X028668Y021202D01*
X028724Y021066D01*
X028828Y020962D01*
X028745Y021045D02*
X028329Y021045D01*
X028382Y021142D02*
X028692Y021142D01*
X028668Y021239D02*
X028406Y021239D01*
X028406Y021336D02*
X028668Y021336D01*
X028668Y021433D02*
X028406Y021433D01*
X028406Y021530D02*
X028668Y021530D01*
X028668Y021627D02*
X028406Y021627D01*
X028406Y021724D02*
X028668Y021724D01*
X028668Y021820D02*
X028406Y021820D01*
X028386Y021917D02*
X028688Y021917D01*
X028734Y022014D02*
X028340Y022014D01*
X028238Y022111D02*
X028836Y022111D01*
X029238Y022111D02*
X029836Y022111D01*
X029828Y022108D02*
X029724Y022004D01*
X029668Y021868D01*
X029668Y021202D01*
X029724Y021066D01*
X029828Y020962D01*
X029964Y020906D01*
X030110Y020906D01*
X030246Y020962D01*
X030350Y021066D01*
X030406Y021202D01*
X030406Y021868D01*
X030350Y022004D01*
X030246Y022108D01*
X030110Y022164D01*
X029964Y022164D01*
X029828Y022108D01*
X029734Y022014D02*
X029340Y022014D01*
X029386Y021917D02*
X029688Y021917D01*
X029668Y021820D02*
X029406Y021820D01*
X029406Y021724D02*
X029668Y021724D01*
X029668Y021627D02*
X029406Y021627D01*
X029406Y021530D02*
X029668Y021530D01*
X029668Y021433D02*
X029406Y021433D01*
X029406Y021336D02*
X029668Y021336D01*
X029668Y021239D02*
X029406Y021239D01*
X029382Y021142D02*
X029692Y021142D01*
X029745Y021045D02*
X029329Y021045D01*
X029213Y020948D02*
X029861Y020948D01*
X030213Y020948D02*
X030791Y020948D01*
X030770Y020963D02*
X030823Y020925D01*
X030880Y020896D01*
X030941Y020876D01*
X031005Y020866D01*
X031006Y020866D01*
X031006Y021504D01*
X031068Y021504D01*
X031068Y021566D01*
X031006Y021566D01*
X031006Y021504D01*
X030628Y021504D01*
X030628Y021243D01*
X030638Y021179D01*
X030658Y021118D01*
X030687Y021061D01*
X030725Y021008D01*
X030770Y020963D01*
X030698Y021045D02*
X030329Y021045D01*
X030382Y021142D02*
X030650Y021142D01*
X030628Y021239D02*
X030406Y021239D01*
X030406Y021336D02*
X030628Y021336D01*
X030628Y021433D02*
X030406Y021433D01*
X030406Y021530D02*
X031006Y021530D01*
X031006Y021566D02*
X030628Y021566D01*
X030628Y021827D01*
X030638Y021891D01*
X030658Y021952D01*
X030687Y022010D01*
X030725Y022062D01*
X030770Y022107D01*
X030823Y022145D01*
X030880Y022174D01*
X030941Y022194D01*
X031005Y022204D01*
X031006Y022204D01*
X031006Y021566D01*
X031006Y021627D02*
X031068Y021627D01*
X031068Y021566D02*
X031068Y022204D01*
X031069Y022204D01*
X031133Y022194D01*
X031194Y022174D01*
X031251Y022145D01*
X031304Y022107D01*
X031349Y022062D01*
X031387Y022010D01*
X031416Y021952D01*
X031436Y021891D01*
X031446Y021827D01*
X031446Y021566D01*
X031068Y021566D01*
X031068Y021530D02*
X032006Y021530D01*
X032006Y021504D02*
X031628Y021504D01*
X031628Y021243D01*
X031638Y021179D01*
X031658Y021118D01*
X031687Y021061D01*
X031725Y021008D01*
X031770Y020963D01*
X031823Y020925D01*
X031880Y020896D01*
X031941Y020876D01*
X032005Y020866D01*
X032006Y020866D01*
X032006Y021504D01*
X032068Y021504D01*
X032068Y021566D01*
X032006Y021566D01*
X032006Y021504D01*
X032068Y021504D02*
X032068Y020866D01*
X032069Y020866D01*
X032133Y020876D01*
X032194Y020896D01*
X032251Y020925D01*
X032304Y020963D01*
X032349Y021008D01*
X032387Y021061D01*
X032416Y021118D01*
X032436Y021179D01*
X032446Y021243D01*
X032446Y021504D01*
X032068Y021504D01*
X032068Y021530D02*
X032739Y021530D01*
X032733Y021433D02*
X032446Y021433D01*
X032446Y021336D02*
X032728Y021336D01*
X032728Y021239D02*
X032446Y021239D01*
X032424Y021142D02*
X032728Y021142D01*
X032728Y021045D02*
X032376Y021045D01*
X032283Y020948D02*
X032728Y020948D01*
X032068Y020948D02*
X032006Y020948D01*
X032006Y021045D02*
X032068Y021045D01*
X032068Y021142D02*
X032006Y021142D01*
X032006Y021239D02*
X032068Y021239D01*
X032068Y021336D02*
X032006Y021336D01*
X032006Y021433D02*
X032068Y021433D01*
X032068Y021566D02*
X032446Y021566D01*
X032446Y021827D01*
X032436Y021891D01*
X032416Y021952D01*
X032387Y022010D01*
X032349Y022062D01*
X032304Y022107D01*
X032251Y022145D01*
X032194Y022174D01*
X032133Y022194D01*
X032069Y022204D01*
X032068Y022204D01*
X032068Y021566D01*
X032068Y021627D02*
X032006Y021627D01*
X032006Y021566D02*
X032006Y022204D01*
X032005Y022204D01*
X031941Y022194D01*
X031880Y022174D01*
X031823Y022145D01*
X031770Y022107D01*
X031725Y022062D01*
X031687Y022010D01*
X031658Y021952D01*
X031638Y021891D01*
X031628Y021827D01*
X031628Y021566D01*
X032006Y021566D01*
X032006Y021724D02*
X032068Y021724D01*
X032068Y021820D02*
X032006Y021820D01*
X032006Y021917D02*
X032068Y021917D01*
X032068Y022014D02*
X032006Y022014D01*
X032006Y022111D02*
X032068Y022111D01*
X032298Y022111D02*
X032988Y022111D01*
X032915Y022014D02*
X032384Y022014D01*
X032428Y021917D02*
X032864Y021917D01*
X032820Y021820D02*
X032446Y021820D01*
X032446Y021724D02*
X032782Y021724D01*
X032760Y021627D02*
X032446Y021627D01*
X031776Y022111D02*
X031298Y022111D01*
X031384Y022014D02*
X031691Y022014D01*
X031646Y021917D02*
X031428Y021917D01*
X031446Y021820D02*
X031628Y021820D01*
X031628Y021724D02*
X031446Y021724D01*
X031446Y021627D02*
X031628Y021627D01*
X031628Y021433D02*
X031446Y021433D01*
X031446Y021504D02*
X031068Y021504D01*
X031068Y020866D01*
X031069Y020866D01*
X031133Y020876D01*
X031194Y020896D01*
X031251Y020925D01*
X031304Y020963D01*
X031349Y021008D01*
X031387Y021061D01*
X031416Y021118D01*
X031436Y021179D01*
X031446Y021243D01*
X031446Y021504D01*
X031446Y021336D02*
X031628Y021336D01*
X031628Y021239D02*
X031446Y021239D01*
X031424Y021142D02*
X031650Y021142D01*
X031698Y021045D02*
X031376Y021045D01*
X031283Y020948D02*
X031791Y020948D01*
X031068Y020948D02*
X031006Y020948D01*
X031006Y021045D02*
X031068Y021045D01*
X031068Y021142D02*
X031006Y021142D01*
X031006Y021239D02*
X031068Y021239D01*
X031068Y021336D02*
X031006Y021336D01*
X031006Y021433D02*
X031068Y021433D01*
X031068Y021724D02*
X031006Y021724D01*
X031006Y021820D02*
X031068Y021820D01*
X031068Y021917D02*
X031006Y021917D01*
X031006Y022014D02*
X031068Y022014D01*
X031068Y022111D02*
X031006Y022111D01*
X030776Y022111D02*
X030238Y022111D01*
X030340Y022014D02*
X030691Y022014D01*
X030646Y021917D02*
X030386Y021917D01*
X030406Y021820D02*
X030628Y021820D01*
X030628Y021724D02*
X030406Y021724D01*
X030406Y021627D02*
X030628Y021627D01*
X033071Y022208D02*
X025271Y022208D01*
X025271Y022111D02*
X025776Y022111D01*
X025691Y022014D02*
X025340Y022014D01*
X025386Y021917D02*
X025646Y021917D01*
X025628Y021820D02*
X025406Y021820D01*
X025406Y021724D02*
X025628Y021724D01*
X025628Y021627D02*
X025406Y021627D01*
X026006Y021724D02*
X026068Y021724D01*
X026068Y021820D02*
X026006Y021820D01*
X026006Y021917D02*
X026068Y021917D01*
X026068Y022014D02*
X026006Y022014D01*
X026006Y022111D02*
X026068Y022111D01*
X026068Y021504D02*
X026446Y021504D01*
X026446Y021243D01*
X026436Y021179D01*
X026416Y021118D01*
X026387Y021061D01*
X026349Y021008D01*
X026304Y020963D01*
X026251Y020925D01*
X026194Y020896D01*
X026133Y020876D01*
X026069Y020866D01*
X026068Y020866D01*
X026068Y021504D01*
X026068Y021433D02*
X026006Y021433D01*
X026006Y021336D02*
X026068Y021336D01*
X026068Y021239D02*
X026006Y021239D01*
X026006Y021142D02*
X026068Y021142D01*
X026068Y021045D02*
X026006Y021045D01*
X026006Y020948D02*
X026068Y020948D01*
X026283Y020948D02*
X026861Y020948D01*
X026745Y021045D02*
X026376Y021045D01*
X026424Y021142D02*
X026692Y021142D01*
X026668Y021239D02*
X026446Y021239D01*
X026446Y021336D02*
X026668Y021336D01*
X026668Y021433D02*
X026446Y021433D01*
X025271Y022305D02*
X033173Y022305D01*
X033302Y022402D02*
X025271Y022402D01*
X025271Y022499D02*
X033500Y022499D01*
X035166Y027636D02*
X035384Y027636D01*
X035384Y027733D02*
X035310Y027733D01*
X033678Y028121D02*
X027557Y028121D01*
X027654Y028218D02*
X033574Y028218D01*
X033519Y028314D02*
X027751Y028314D01*
X027848Y028411D02*
X033485Y028411D01*
X033485Y028508D02*
X027945Y028508D01*
X028042Y028605D02*
X033502Y028605D01*
X033542Y028702D02*
X028139Y028702D01*
X028236Y028799D02*
X033629Y028799D01*
X029950Y030738D02*
X029779Y030738D01*
X029823Y030641D02*
X029853Y030641D01*
X029995Y030835D02*
X024499Y030835D01*
X024402Y030931D02*
X029898Y030931D01*
X029802Y031028D02*
X024305Y031028D01*
X024209Y031125D02*
X029705Y031125D01*
X029608Y031222D02*
X024112Y031222D01*
X024015Y031319D02*
X029511Y031319D01*
X029414Y031416D02*
X023918Y031416D01*
X023821Y031513D02*
X029317Y031513D01*
X029220Y031610D02*
X023812Y031610D01*
X023726Y031707D02*
X029123Y031707D01*
X029397Y030738D02*
X024596Y030738D01*
X024693Y030641D02*
X029300Y030641D01*
X029204Y030544D02*
X024790Y030544D01*
X024887Y030447D02*
X029107Y030447D01*
X029010Y030350D02*
X024984Y030350D01*
X025081Y030253D02*
X028913Y030253D01*
X028816Y030156D02*
X025178Y030156D01*
X025275Y030059D02*
X028719Y030059D01*
X028622Y029962D02*
X025372Y029962D01*
X025469Y029865D02*
X028525Y029865D01*
X028428Y029768D02*
X025565Y029768D01*
X025662Y029671D02*
X028331Y029671D01*
X028234Y029575D02*
X025759Y029575D01*
X025856Y029478D02*
X028137Y029478D01*
X028040Y029381D02*
X025953Y029381D01*
X026050Y029284D02*
X027944Y029284D01*
X027847Y029187D02*
X026147Y029187D01*
X026244Y029090D02*
X027750Y029090D01*
X027653Y028993D02*
X026341Y028993D01*
X026438Y028896D02*
X027556Y028896D01*
X027459Y028799D02*
X026535Y028799D01*
X026632Y028702D02*
X027362Y028702D01*
X027265Y028605D02*
X026672Y028605D01*
X026708Y028508D02*
X027168Y028508D01*
X027071Y028411D02*
X026708Y028411D01*
X026643Y028314D02*
X026974Y028314D01*
X026877Y028218D02*
X026707Y028218D01*
X026480Y028475D02*
X026480Y028630D01*
X023583Y031527D01*
X024032Y023081D02*
X014065Y023081D01*
X014162Y022984D02*
X024129Y022984D01*
X024226Y022887D02*
X014259Y022887D01*
X014356Y022790D02*
X024323Y022790D01*
X024420Y022693D02*
X014453Y022693D01*
X014550Y022596D02*
X024517Y022596D01*
X023555Y021724D02*
X023406Y021724D01*
X023406Y021820D02*
X023458Y021820D01*
X023406Y021627D02*
X023652Y021627D01*
X023668Y021530D02*
X023406Y021530D01*
X023406Y021433D02*
X023668Y021433D01*
X023668Y021336D02*
X023406Y021336D01*
X023406Y021239D02*
X023668Y021239D01*
X023692Y021142D02*
X023382Y021142D01*
X023329Y021045D02*
X023745Y021045D01*
X023861Y020948D02*
X023213Y020948D01*
X022668Y021820D02*
X009532Y021820D01*
X009435Y021917D02*
X022688Y021917D01*
X014469Y022014D02*
X009944Y022014D01*
X009941Y022011D02*
X011024Y023094D01*
X012303Y023094D01*
X012441Y023231D01*
X012441Y023425D01*
X012303Y023563D01*
X010830Y023563D01*
X009610Y022343D01*
X009610Y022149D01*
X009747Y022011D01*
X009941Y022011D01*
X010041Y022111D02*
X014372Y022111D01*
X014275Y022208D02*
X010138Y022208D01*
X010235Y022305D02*
X014178Y022305D01*
X014081Y022402D02*
X010332Y022402D01*
X010429Y022499D02*
X013984Y022499D01*
X013887Y022596D02*
X010526Y022596D01*
X010622Y022693D02*
X013790Y022693D01*
X013693Y022790D02*
X010719Y022790D01*
X010816Y022887D02*
X013596Y022887D01*
X013499Y022984D02*
X010913Y022984D01*
X011010Y023081D02*
X013402Y023081D01*
X013306Y023177D02*
X012387Y023177D01*
X012441Y023274D02*
X013209Y023274D01*
X013112Y023371D02*
X012441Y023371D01*
X012398Y023468D02*
X013015Y023468D01*
X012918Y023565D02*
X004304Y023565D01*
X004311Y023468D02*
X010735Y023468D01*
X010638Y023371D02*
X004344Y023371D01*
X004344Y023274D02*
X010542Y023274D01*
X010445Y023177D02*
X004306Y023177D01*
X004309Y023081D02*
X010348Y023081D01*
X010251Y022984D02*
X004344Y022984D01*
X004344Y022887D02*
X010154Y022887D01*
X010057Y022790D02*
X004309Y022790D01*
X004229Y022693D02*
X009960Y022693D01*
X009863Y022596D02*
X004186Y022596D01*
X004344Y023662D02*
X012821Y023662D01*
X012724Y023759D02*
X004344Y023759D01*
X004314Y023856D02*
X012627Y023856D01*
X012530Y023953D02*
X004301Y023953D01*
X004342Y024050D02*
X012433Y024050D01*
X012336Y024147D02*
X004344Y024147D01*
X004316Y024244D02*
X012239Y024244D01*
X012142Y024341D02*
X004299Y024341D01*
X004339Y024437D02*
X012045Y024437D01*
X011949Y024534D02*
X004344Y024534D01*
X004318Y024631D02*
X011852Y024631D01*
X011755Y024728D02*
X004252Y024728D01*
X004186Y024825D02*
X011658Y024825D01*
X011561Y024922D02*
X004186Y024922D01*
X004186Y025019D02*
X011464Y025019D01*
X011367Y025116D02*
X004186Y025116D01*
X004186Y025213D02*
X011270Y025213D01*
X011173Y025310D02*
X004186Y025310D01*
X004186Y025407D02*
X011076Y025407D01*
X010979Y025504D02*
X004186Y025504D01*
X004186Y025601D02*
X010882Y025601D01*
X010785Y025697D02*
X004186Y025697D01*
X004186Y025794D02*
X010689Y025794D01*
X010592Y025891D02*
X004186Y025891D01*
X004186Y025988D02*
X010495Y025988D01*
X010398Y026085D02*
X004186Y026085D01*
X004186Y026182D02*
X010301Y026182D01*
X010204Y026279D02*
X004186Y026279D01*
X004186Y026376D02*
X010107Y026376D01*
X010010Y026473D02*
X004186Y026473D01*
X004186Y026570D02*
X009913Y026570D01*
X009816Y026667D02*
X004186Y026667D01*
X004186Y026764D02*
X009719Y026764D01*
X009687Y026861D02*
X004186Y026861D01*
X004186Y026958D02*
X009687Y026958D01*
X009687Y027054D02*
X004186Y027054D01*
X004186Y027151D02*
X009687Y027151D01*
X009687Y027248D02*
X004186Y027248D01*
X004186Y027345D02*
X009687Y027345D01*
X009687Y027442D02*
X004186Y027442D01*
X004186Y027539D02*
X009687Y027539D01*
X009687Y027636D02*
X004186Y027636D01*
X004186Y027733D02*
X009687Y027733D01*
X009687Y027830D02*
X004186Y027830D01*
X004186Y027927D02*
X009687Y027927D01*
X009687Y028024D02*
X004186Y028024D01*
X004186Y028121D02*
X009687Y028121D01*
X009687Y028218D02*
X004186Y028218D01*
X004186Y028314D02*
X009687Y028314D01*
X009687Y028411D02*
X004186Y028411D01*
X004186Y028508D02*
X009687Y028508D01*
X009687Y028605D02*
X004186Y028605D01*
X004186Y028702D02*
X009687Y028702D01*
X009687Y028799D02*
X004186Y028799D01*
X004186Y028896D02*
X009687Y028896D01*
X009687Y028993D02*
X004186Y028993D01*
X004186Y029090D02*
X009687Y029090D01*
X009687Y029187D02*
X004186Y029187D01*
X004186Y029284D02*
X009687Y029284D01*
X009687Y029381D02*
X004186Y029381D01*
X004186Y029478D02*
X009687Y029478D01*
X009687Y029575D02*
X004186Y029575D01*
X004186Y029671D02*
X009687Y029671D01*
X009687Y029768D02*
X004186Y029768D01*
X004186Y029865D02*
X009687Y029865D01*
X009720Y029962D02*
X004186Y029962D01*
X004186Y030059D02*
X009817Y030059D01*
X009766Y022499D02*
X006070Y022499D01*
X006268Y022402D02*
X009669Y022402D01*
X009610Y022305D02*
X009048Y022305D01*
X009145Y022208D02*
X009610Y022208D01*
X009647Y022111D02*
X009242Y022111D01*
X009339Y022014D02*
X009744Y022014D01*
X009112Y021530D02*
X006831Y021530D01*
X006837Y021433D02*
X009112Y021433D01*
X009112Y021336D02*
X006842Y021336D01*
X006842Y021239D02*
X009112Y021239D01*
X009112Y021142D02*
X006842Y021142D01*
X006842Y021045D02*
X009112Y021045D01*
X009202Y020948D02*
X006842Y020948D01*
X006810Y021627D02*
X009064Y021627D01*
X008967Y021724D02*
X006788Y021724D01*
X006750Y021820D02*
X008870Y021820D01*
X008773Y021917D02*
X006706Y021917D01*
X006655Y022014D02*
X008676Y022014D01*
X008650Y022111D02*
X006582Y022111D01*
X006499Y022208D02*
X008650Y022208D01*
X008720Y022305D02*
X006397Y022305D01*
M02*
