G75*
G70*
%OFA0B0*%
%FSLAX24Y24*%
%IPPOS*%
%LPD*%
%AMOC8*
5,1,8,0,0,1.08239X$1,22.5*
%
%ADD10C,0.0000*%
%ADD11C,0.1700*%
%ADD12C,0.1542*%
%ADD13C,0.0600*%
%ADD14OC8,0.0600*%
%ADD15C,0.0560*%
%ADD16R,0.0440X0.0440*%
%ADD17C,0.1300*%
%ADD18C,0.0808*%
%ADD19C,0.0660*%
D10*
X020305Y019017D02*
X048336Y019017D01*
X049726Y019017D02*
X021380Y019017D01*
X020750Y020592D02*
X020752Y020642D01*
X020758Y020692D01*
X020768Y020741D01*
X020782Y020789D01*
X020799Y020836D01*
X020820Y020881D01*
X020845Y020925D01*
X020873Y020966D01*
X020905Y021005D01*
X020939Y021042D01*
X020976Y021076D01*
X021016Y021106D01*
X021058Y021133D01*
X021102Y021157D01*
X021148Y021178D01*
X021195Y021194D01*
X021243Y021207D01*
X021293Y021216D01*
X021342Y021221D01*
X021393Y021222D01*
X021443Y021219D01*
X021492Y021212D01*
X021541Y021201D01*
X021589Y021186D01*
X021635Y021168D01*
X021680Y021146D01*
X021723Y021120D01*
X021764Y021091D01*
X021803Y021059D01*
X021839Y021024D01*
X021871Y020986D01*
X021901Y020946D01*
X021928Y020903D01*
X021951Y020859D01*
X021970Y020813D01*
X021986Y020765D01*
X021998Y020716D01*
X022006Y020667D01*
X022010Y020617D01*
X022010Y020567D01*
X022006Y020517D01*
X021998Y020468D01*
X021986Y020419D01*
X021970Y020371D01*
X021951Y020325D01*
X021928Y020281D01*
X021901Y020238D01*
X021871Y020198D01*
X021839Y020160D01*
X021803Y020125D01*
X021764Y020093D01*
X021723Y020064D01*
X021680Y020038D01*
X021635Y020016D01*
X021589Y019998D01*
X021541Y019983D01*
X021492Y019972D01*
X021443Y019965D01*
X021393Y019962D01*
X021342Y019963D01*
X021293Y019968D01*
X021243Y019977D01*
X021195Y019990D01*
X021148Y020006D01*
X021102Y020027D01*
X021058Y020051D01*
X021016Y020078D01*
X020976Y020108D01*
X020939Y020142D01*
X020905Y020179D01*
X020873Y020218D01*
X020845Y020259D01*
X020820Y020303D01*
X020799Y020348D01*
X020782Y020395D01*
X020768Y020443D01*
X020758Y020492D01*
X020752Y020542D01*
X020750Y020592D01*
X019805Y020592D02*
X019807Y020515D01*
X019813Y020438D01*
X019822Y020361D01*
X019835Y020285D01*
X019852Y020209D01*
X019873Y020135D01*
X019897Y020061D01*
X019925Y019989D01*
X019956Y019919D01*
X019991Y019850D01*
X020029Y019782D01*
X020070Y019717D01*
X020115Y019654D01*
X020163Y019593D01*
X020213Y019534D01*
X020266Y019478D01*
X020322Y019425D01*
X020381Y019375D01*
X020442Y019327D01*
X020505Y019282D01*
X020570Y019241D01*
X020638Y019203D01*
X020707Y019168D01*
X020777Y019137D01*
X020849Y019109D01*
X020923Y019085D01*
X020997Y019064D01*
X021073Y019047D01*
X021149Y019034D01*
X021226Y019025D01*
X021303Y019019D01*
X021380Y019017D01*
X019805Y020592D02*
X019805Y036734D01*
X020750Y036734D02*
X020752Y036784D01*
X020758Y036834D01*
X020768Y036883D01*
X020782Y036931D01*
X020799Y036978D01*
X020820Y037023D01*
X020845Y037067D01*
X020873Y037108D01*
X020905Y037147D01*
X020939Y037184D01*
X020976Y037218D01*
X021016Y037248D01*
X021058Y037275D01*
X021102Y037299D01*
X021148Y037320D01*
X021195Y037336D01*
X021243Y037349D01*
X021293Y037358D01*
X021342Y037363D01*
X021393Y037364D01*
X021443Y037361D01*
X021492Y037354D01*
X021541Y037343D01*
X021589Y037328D01*
X021635Y037310D01*
X021680Y037288D01*
X021723Y037262D01*
X021764Y037233D01*
X021803Y037201D01*
X021839Y037166D01*
X021871Y037128D01*
X021901Y037088D01*
X021928Y037045D01*
X021951Y037001D01*
X021970Y036955D01*
X021986Y036907D01*
X021998Y036858D01*
X022006Y036809D01*
X022010Y036759D01*
X022010Y036709D01*
X022006Y036659D01*
X021998Y036610D01*
X021986Y036561D01*
X021970Y036513D01*
X021951Y036467D01*
X021928Y036423D01*
X021901Y036380D01*
X021871Y036340D01*
X021839Y036302D01*
X021803Y036267D01*
X021764Y036235D01*
X021723Y036206D01*
X021680Y036180D01*
X021635Y036158D01*
X021589Y036140D01*
X021541Y036125D01*
X021492Y036114D01*
X021443Y036107D01*
X021393Y036104D01*
X021342Y036105D01*
X021293Y036110D01*
X021243Y036119D01*
X021195Y036132D01*
X021148Y036148D01*
X021102Y036169D01*
X021058Y036193D01*
X021016Y036220D01*
X020976Y036250D01*
X020939Y036284D01*
X020905Y036321D01*
X020873Y036360D01*
X020845Y036401D01*
X020820Y036445D01*
X020799Y036490D01*
X020782Y036537D01*
X020768Y036585D01*
X020758Y036634D01*
X020752Y036684D01*
X020750Y036734D01*
X019805Y036734D02*
X019807Y036811D01*
X019813Y036888D01*
X019822Y036965D01*
X019835Y037041D01*
X019852Y037117D01*
X019873Y037191D01*
X019897Y037265D01*
X019925Y037337D01*
X019956Y037407D01*
X019991Y037476D01*
X020029Y037544D01*
X020070Y037609D01*
X020115Y037672D01*
X020163Y037733D01*
X020213Y037792D01*
X020266Y037848D01*
X020322Y037901D01*
X020381Y037951D01*
X020442Y037999D01*
X020505Y038044D01*
X020570Y038085D01*
X020638Y038123D01*
X020707Y038158D01*
X020777Y038189D01*
X020849Y038217D01*
X020923Y038241D01*
X020997Y038262D01*
X021073Y038279D01*
X021149Y038292D01*
X021226Y038301D01*
X021303Y038307D01*
X021380Y038309D01*
X049726Y038309D01*
X049096Y036734D02*
X049098Y036784D01*
X049104Y036834D01*
X049114Y036883D01*
X049128Y036931D01*
X049145Y036978D01*
X049166Y037023D01*
X049191Y037067D01*
X049219Y037108D01*
X049251Y037147D01*
X049285Y037184D01*
X049322Y037218D01*
X049362Y037248D01*
X049404Y037275D01*
X049448Y037299D01*
X049494Y037320D01*
X049541Y037336D01*
X049589Y037349D01*
X049639Y037358D01*
X049688Y037363D01*
X049739Y037364D01*
X049789Y037361D01*
X049838Y037354D01*
X049887Y037343D01*
X049935Y037328D01*
X049981Y037310D01*
X050026Y037288D01*
X050069Y037262D01*
X050110Y037233D01*
X050149Y037201D01*
X050185Y037166D01*
X050217Y037128D01*
X050247Y037088D01*
X050274Y037045D01*
X050297Y037001D01*
X050316Y036955D01*
X050332Y036907D01*
X050344Y036858D01*
X050352Y036809D01*
X050356Y036759D01*
X050356Y036709D01*
X050352Y036659D01*
X050344Y036610D01*
X050332Y036561D01*
X050316Y036513D01*
X050297Y036467D01*
X050274Y036423D01*
X050247Y036380D01*
X050217Y036340D01*
X050185Y036302D01*
X050149Y036267D01*
X050110Y036235D01*
X050069Y036206D01*
X050026Y036180D01*
X049981Y036158D01*
X049935Y036140D01*
X049887Y036125D01*
X049838Y036114D01*
X049789Y036107D01*
X049739Y036104D01*
X049688Y036105D01*
X049639Y036110D01*
X049589Y036119D01*
X049541Y036132D01*
X049494Y036148D01*
X049448Y036169D01*
X049404Y036193D01*
X049362Y036220D01*
X049322Y036250D01*
X049285Y036284D01*
X049251Y036321D01*
X049219Y036360D01*
X049191Y036401D01*
X049166Y036445D01*
X049145Y036490D01*
X049128Y036537D01*
X049114Y036585D01*
X049104Y036634D01*
X049098Y036684D01*
X049096Y036734D01*
X049726Y038309D02*
X049803Y038307D01*
X049880Y038301D01*
X049957Y038292D01*
X050033Y038279D01*
X050109Y038262D01*
X050183Y038241D01*
X050257Y038217D01*
X050329Y038189D01*
X050399Y038158D01*
X050468Y038123D01*
X050536Y038085D01*
X050601Y038044D01*
X050664Y037999D01*
X050725Y037951D01*
X050784Y037901D01*
X050840Y037848D01*
X050893Y037792D01*
X050943Y037733D01*
X050991Y037672D01*
X051036Y037609D01*
X051077Y037544D01*
X051115Y037476D01*
X051150Y037407D01*
X051181Y037337D01*
X051209Y037265D01*
X051233Y037191D01*
X051254Y037117D01*
X051271Y037041D01*
X051284Y036965D01*
X051293Y036888D01*
X051299Y036811D01*
X051301Y036734D01*
X051301Y020592D01*
X049096Y020592D02*
X049098Y020642D01*
X049104Y020692D01*
X049114Y020741D01*
X049128Y020789D01*
X049145Y020836D01*
X049166Y020881D01*
X049191Y020925D01*
X049219Y020966D01*
X049251Y021005D01*
X049285Y021042D01*
X049322Y021076D01*
X049362Y021106D01*
X049404Y021133D01*
X049448Y021157D01*
X049494Y021178D01*
X049541Y021194D01*
X049589Y021207D01*
X049639Y021216D01*
X049688Y021221D01*
X049739Y021222D01*
X049789Y021219D01*
X049838Y021212D01*
X049887Y021201D01*
X049935Y021186D01*
X049981Y021168D01*
X050026Y021146D01*
X050069Y021120D01*
X050110Y021091D01*
X050149Y021059D01*
X050185Y021024D01*
X050217Y020986D01*
X050247Y020946D01*
X050274Y020903D01*
X050297Y020859D01*
X050316Y020813D01*
X050332Y020765D01*
X050344Y020716D01*
X050352Y020667D01*
X050356Y020617D01*
X050356Y020567D01*
X050352Y020517D01*
X050344Y020468D01*
X050332Y020419D01*
X050316Y020371D01*
X050297Y020325D01*
X050274Y020281D01*
X050247Y020238D01*
X050217Y020198D01*
X050185Y020160D01*
X050149Y020125D01*
X050110Y020093D01*
X050069Y020064D01*
X050026Y020038D01*
X049981Y020016D01*
X049935Y019998D01*
X049887Y019983D01*
X049838Y019972D01*
X049789Y019965D01*
X049739Y019962D01*
X049688Y019963D01*
X049639Y019968D01*
X049589Y019977D01*
X049541Y019990D01*
X049494Y020006D01*
X049448Y020027D01*
X049404Y020051D01*
X049362Y020078D01*
X049322Y020108D01*
X049285Y020142D01*
X049251Y020179D01*
X049219Y020218D01*
X049191Y020259D01*
X049166Y020303D01*
X049145Y020348D01*
X049128Y020395D01*
X049114Y020443D01*
X049104Y020492D01*
X049098Y020542D01*
X049096Y020592D01*
X049726Y019017D02*
X049803Y019019D01*
X049880Y019025D01*
X049957Y019034D01*
X050033Y019047D01*
X050109Y019064D01*
X050183Y019085D01*
X050257Y019109D01*
X050329Y019137D01*
X050399Y019168D01*
X050468Y019203D01*
X050536Y019241D01*
X050601Y019282D01*
X050664Y019327D01*
X050725Y019375D01*
X050784Y019425D01*
X050840Y019478D01*
X050893Y019534D01*
X050943Y019593D01*
X050991Y019654D01*
X051036Y019717D01*
X051077Y019782D01*
X051115Y019850D01*
X051150Y019919D01*
X051181Y019989D01*
X051209Y020061D01*
X051233Y020135D01*
X051254Y020209D01*
X051271Y020285D01*
X051284Y020361D01*
X051293Y020438D01*
X051299Y020515D01*
X051301Y020592D01*
D11*
X047200Y023691D03*
D12*
X048322Y025580D03*
X049661Y023691D03*
D13*
X047805Y035267D03*
D14*
X047805Y036267D03*
X046805Y036267D03*
X046805Y035267D03*
X045805Y035267D03*
X044805Y035267D03*
X044805Y036267D03*
X045805Y036267D03*
X043805Y036267D03*
X043805Y035267D03*
X042805Y035267D03*
X042805Y036267D03*
X041805Y036267D03*
X041805Y035267D03*
X040805Y035267D03*
X040805Y036267D03*
X039805Y036267D03*
X039805Y035267D03*
X038805Y035267D03*
X037805Y035267D03*
X037805Y036267D03*
X038805Y036267D03*
X036805Y036267D03*
X036805Y035267D03*
X035805Y035267D03*
X035805Y036267D03*
X034805Y036267D03*
X034805Y035267D03*
X033805Y035267D03*
X032805Y035267D03*
X032805Y036267D03*
X033805Y036267D03*
D15*
X038805Y021027D02*
X038805Y020507D01*
X039805Y020507D02*
X039805Y021027D01*
X040805Y021027D02*
X040805Y020507D01*
X041805Y020507D02*
X041805Y021027D01*
X042805Y021027D02*
X042805Y020507D01*
X043805Y020507D02*
X043805Y021027D01*
X044805Y021027D02*
X044805Y020507D01*
X045805Y020507D02*
X045805Y021027D01*
X046805Y021027D02*
X046805Y020507D01*
X047805Y020507D02*
X047805Y021027D01*
D16*
G36*
X037187Y031159D02*
X037498Y031470D01*
X037809Y031159D01*
X037498Y030848D01*
X037187Y031159D01*
G37*
G36*
X036657Y030982D02*
X036968Y031293D01*
X037279Y030982D01*
X036968Y030671D01*
X036657Y030982D01*
G37*
G36*
X036834Y031512D02*
X037145Y031823D01*
X037456Y031512D01*
X037145Y031201D01*
X036834Y031512D01*
G37*
D17*
X049726Y036734D03*
X049726Y020592D03*
X021380Y020592D03*
X021380Y036734D03*
D18*
X050735Y030075D03*
X050735Y027319D03*
D19*
X049672Y027713D03*
X049672Y029682D03*
M02*
