G75*
G70*
%OFA0B0*%
%FSLAX24Y24*%
%IPPOS*%
%LPD*%
%AMOC8*
5,1,8,0,0,1.08239X$1,22.5*
%
%ADD10C,0.0039*%
%ADD11R,0.0394X0.0433*%
%ADD12R,0.0413X0.0425*%
%ADD13C,0.0008*%
%ADD14R,0.1004X0.1004*%
%ADD15R,0.0425X0.0413*%
%ADD16R,0.1100X0.0290*%
%ADD17R,0.0272X0.0394*%
%ADD18R,0.1063X0.0630*%
%ADD19R,0.0433X0.0394*%
%ADD20R,0.0591X0.0512*%
%ADD21R,0.0579X0.0500*%
%ADD22R,0.2362X0.0787*%
%ADD23R,0.0630X0.0709*%
%ADD24R,0.0866X0.0236*%
%ADD25R,0.0315X0.0354*%
%ADD26R,0.0394X0.0709*%
%ADD27R,0.0276X0.0295*%
%ADD28R,0.0709X0.0551*%
%ADD29R,0.0551X0.0748*%
%ADD30R,0.0315X0.0591*%
%ADD31R,0.0600X0.0300*%
%ADD32R,0.0472X0.0472*%
%ADD33R,0.0197X0.0394*%
%ADD34R,0.0870X0.0240*%
%ADD35R,0.0460X0.0630*%
%ADD36R,0.1000X0.1000*%
%ADD37R,0.0551X0.0138*%
%ADD38R,0.0591X0.0591*%
D10*
X003565Y003269D02*
X003567Y003313D01*
X003573Y003357D01*
X003583Y003400D01*
X003596Y003442D01*
X003614Y003482D01*
X003635Y003521D01*
X003659Y003558D01*
X003686Y003593D01*
X003717Y003625D01*
X003750Y003654D01*
X003786Y003680D01*
X003824Y003702D01*
X003864Y003721D01*
X003905Y003737D01*
X003948Y003749D01*
X003991Y003757D01*
X004035Y003761D01*
X004079Y003761D01*
X004123Y003757D01*
X004166Y003749D01*
X004209Y003737D01*
X004250Y003721D01*
X004290Y003702D01*
X004328Y003680D01*
X004364Y003654D01*
X004397Y003625D01*
X004428Y003593D01*
X004455Y003558D01*
X004479Y003521D01*
X004500Y003482D01*
X004518Y003442D01*
X004531Y003400D01*
X004541Y003357D01*
X004547Y003313D01*
X004549Y003269D01*
X004547Y003225D01*
X004541Y003181D01*
X004531Y003138D01*
X004518Y003096D01*
X004500Y003056D01*
X004479Y003017D01*
X004455Y002980D01*
X004428Y002945D01*
X004397Y002913D01*
X004364Y002884D01*
X004328Y002858D01*
X004290Y002836D01*
X004250Y002817D01*
X004209Y002801D01*
X004166Y002789D01*
X004123Y002781D01*
X004079Y002777D01*
X004035Y002777D01*
X003991Y002781D01*
X003948Y002789D01*
X003905Y002801D01*
X003864Y002817D01*
X003824Y002836D01*
X003786Y002858D01*
X003750Y002884D01*
X003717Y002913D01*
X003686Y002945D01*
X003659Y002980D01*
X003635Y003017D01*
X003614Y003056D01*
X003596Y003096D01*
X003583Y003138D01*
X003573Y003181D01*
X003567Y003225D01*
X003565Y003269D01*
X003565Y054450D02*
X003567Y054494D01*
X003573Y054538D01*
X003583Y054581D01*
X003596Y054623D01*
X003614Y054663D01*
X003635Y054702D01*
X003659Y054739D01*
X003686Y054774D01*
X003717Y054806D01*
X003750Y054835D01*
X003786Y054861D01*
X003824Y054883D01*
X003864Y054902D01*
X003905Y054918D01*
X003948Y054930D01*
X003991Y054938D01*
X004035Y054942D01*
X004079Y054942D01*
X004123Y054938D01*
X004166Y054930D01*
X004209Y054918D01*
X004250Y054902D01*
X004290Y054883D01*
X004328Y054861D01*
X004364Y054835D01*
X004397Y054806D01*
X004428Y054774D01*
X004455Y054739D01*
X004479Y054702D01*
X004500Y054663D01*
X004518Y054623D01*
X004531Y054581D01*
X004541Y054538D01*
X004547Y054494D01*
X004549Y054450D01*
X004547Y054406D01*
X004541Y054362D01*
X004531Y054319D01*
X004518Y054277D01*
X004500Y054237D01*
X004479Y054198D01*
X004455Y054161D01*
X004428Y054126D01*
X004397Y054094D01*
X004364Y054065D01*
X004328Y054039D01*
X004290Y054017D01*
X004250Y053998D01*
X004209Y053982D01*
X004166Y053970D01*
X004123Y053962D01*
X004079Y053958D01*
X004035Y053958D01*
X003991Y053962D01*
X003948Y053970D01*
X003905Y053982D01*
X003864Y053998D01*
X003824Y054017D01*
X003786Y054039D01*
X003750Y054065D01*
X003717Y054094D01*
X003686Y054126D01*
X003659Y054161D01*
X003635Y054198D01*
X003614Y054237D01*
X003596Y054277D01*
X003583Y054319D01*
X003573Y054362D01*
X003567Y054406D01*
X003565Y054450D01*
X066557Y054450D02*
X066559Y054494D01*
X066565Y054538D01*
X066575Y054581D01*
X066588Y054623D01*
X066606Y054663D01*
X066627Y054702D01*
X066651Y054739D01*
X066678Y054774D01*
X066709Y054806D01*
X066742Y054835D01*
X066778Y054861D01*
X066816Y054883D01*
X066856Y054902D01*
X066897Y054918D01*
X066940Y054930D01*
X066983Y054938D01*
X067027Y054942D01*
X067071Y054942D01*
X067115Y054938D01*
X067158Y054930D01*
X067201Y054918D01*
X067242Y054902D01*
X067282Y054883D01*
X067320Y054861D01*
X067356Y054835D01*
X067389Y054806D01*
X067420Y054774D01*
X067447Y054739D01*
X067471Y054702D01*
X067492Y054663D01*
X067510Y054623D01*
X067523Y054581D01*
X067533Y054538D01*
X067539Y054494D01*
X067541Y054450D01*
X067539Y054406D01*
X067533Y054362D01*
X067523Y054319D01*
X067510Y054277D01*
X067492Y054237D01*
X067471Y054198D01*
X067447Y054161D01*
X067420Y054126D01*
X067389Y054094D01*
X067356Y054065D01*
X067320Y054039D01*
X067282Y054017D01*
X067242Y053998D01*
X067201Y053982D01*
X067158Y053970D01*
X067115Y053962D01*
X067071Y053958D01*
X067027Y053958D01*
X066983Y053962D01*
X066940Y053970D01*
X066897Y053982D01*
X066856Y053998D01*
X066816Y054017D01*
X066778Y054039D01*
X066742Y054065D01*
X066709Y054094D01*
X066678Y054126D01*
X066651Y054161D01*
X066627Y054198D01*
X066606Y054237D01*
X066588Y054277D01*
X066575Y054319D01*
X066565Y054362D01*
X066559Y054406D01*
X066557Y054450D01*
X066557Y003269D02*
X066559Y003313D01*
X066565Y003357D01*
X066575Y003400D01*
X066588Y003442D01*
X066606Y003482D01*
X066627Y003521D01*
X066651Y003558D01*
X066678Y003593D01*
X066709Y003625D01*
X066742Y003654D01*
X066778Y003680D01*
X066816Y003702D01*
X066856Y003721D01*
X066897Y003737D01*
X066940Y003749D01*
X066983Y003757D01*
X067027Y003761D01*
X067071Y003761D01*
X067115Y003757D01*
X067158Y003749D01*
X067201Y003737D01*
X067242Y003721D01*
X067282Y003702D01*
X067320Y003680D01*
X067356Y003654D01*
X067389Y003625D01*
X067420Y003593D01*
X067447Y003558D01*
X067471Y003521D01*
X067492Y003482D01*
X067510Y003442D01*
X067523Y003400D01*
X067533Y003357D01*
X067539Y003313D01*
X067541Y003269D01*
X067539Y003225D01*
X067533Y003181D01*
X067523Y003138D01*
X067510Y003096D01*
X067492Y003056D01*
X067471Y003017D01*
X067447Y002980D01*
X067420Y002945D01*
X067389Y002913D01*
X067356Y002884D01*
X067320Y002858D01*
X067282Y002836D01*
X067242Y002817D01*
X067201Y002801D01*
X067158Y002789D01*
X067115Y002781D01*
X067071Y002777D01*
X067027Y002777D01*
X066983Y002781D01*
X066940Y002789D01*
X066897Y002801D01*
X066856Y002817D01*
X066816Y002836D01*
X066778Y002858D01*
X066742Y002884D01*
X066709Y002913D01*
X066678Y002945D01*
X066651Y002980D01*
X066627Y003017D01*
X066606Y003056D01*
X066588Y003096D01*
X066575Y003138D01*
X066565Y003181D01*
X066559Y003225D01*
X066557Y003269D01*
D11*
X041353Y021828D03*
X040683Y021828D03*
X040683Y022675D03*
X041353Y022675D03*
X041875Y025835D03*
X041875Y026504D03*
X041058Y026323D03*
X041058Y026992D03*
X031533Y020225D03*
X030864Y020225D03*
X030246Y020250D03*
X029576Y020250D03*
X027970Y024270D03*
X027301Y024270D03*
X027301Y025120D03*
X027970Y025120D03*
D12*
X023683Y031421D03*
X022994Y031421D03*
X036947Y029992D03*
X037636Y029992D03*
G36*
X037677Y031936D02*
X037386Y032227D01*
X037685Y032526D01*
X037976Y032235D01*
X037677Y031936D01*
G37*
G36*
X038137Y032916D02*
X038428Y032625D01*
X038129Y032326D01*
X037838Y032617D01*
X038137Y032916D01*
G37*
G36*
X037709Y032776D02*
X037418Y033067D01*
X037717Y033366D01*
X038008Y033075D01*
X037709Y032776D01*
G37*
G36*
X037190Y032423D02*
X036899Y032714D01*
X037198Y033013D01*
X037489Y032722D01*
X037190Y032423D01*
G37*
G36*
X037222Y033263D02*
X036931Y033554D01*
X037230Y033853D01*
X037521Y033562D01*
X037222Y033263D01*
G37*
G36*
X038625Y032428D02*
X038916Y032137D01*
X038617Y031838D01*
X038326Y032129D01*
X038625Y032428D01*
G37*
G36*
X042561Y032402D02*
X042852Y032693D01*
X043151Y032394D01*
X042860Y032103D01*
X042561Y032402D01*
G37*
G36*
X043654Y031999D02*
X043363Y031708D01*
X043064Y032007D01*
X043355Y032298D01*
X043654Y031999D01*
G37*
G36*
X043507Y032385D02*
X043798Y032676D01*
X044097Y032377D01*
X043806Y032086D01*
X043507Y032385D01*
G37*
G36*
X043049Y032890D02*
X043340Y033181D01*
X043639Y032882D01*
X043348Y032591D01*
X043049Y032890D01*
G37*
G36*
X043994Y032873D02*
X044285Y033164D01*
X044584Y032865D01*
X044293Y032574D01*
X043994Y032873D01*
G37*
G36*
X043167Y031512D02*
X042876Y031221D01*
X042577Y031520D01*
X042868Y031811D01*
X043167Y031512D01*
G37*
X043376Y029971D03*
X042687Y029971D03*
X043233Y028665D03*
X043253Y028145D03*
G36*
X042881Y027270D02*
X042590Y027561D01*
X042889Y027860D01*
X043180Y027569D01*
X042881Y027270D01*
G37*
G36*
X043368Y026783D02*
X043077Y027074D01*
X043376Y027373D01*
X043667Y027082D01*
X043368Y026783D01*
G37*
G36*
X042862Y026261D02*
X042571Y026552D01*
X042870Y026851D01*
X043161Y026560D01*
X042862Y026261D01*
G37*
G36*
X042375Y026749D02*
X042084Y027040D01*
X042383Y027339D01*
X042674Y027048D01*
X042375Y026749D01*
G37*
X043942Y028145D03*
X043922Y028665D03*
D13*
X042080Y029906D02*
X042030Y029856D01*
X042080Y029906D02*
X042240Y029746D01*
X042190Y029696D01*
X042030Y029856D01*
X042183Y029703D02*
X042197Y029703D01*
X042204Y029710D02*
X042176Y029710D01*
X042169Y029717D02*
X042211Y029717D01*
X042218Y029724D02*
X042162Y029724D01*
X042155Y029731D02*
X042225Y029731D01*
X042232Y029738D02*
X042148Y029738D01*
X042141Y029745D02*
X042239Y029745D01*
X042234Y029752D02*
X042134Y029752D01*
X042127Y029759D02*
X042227Y029759D01*
X042220Y029766D02*
X042120Y029766D01*
X042113Y029773D02*
X042213Y029773D01*
X042206Y029780D02*
X042106Y029780D01*
X042099Y029787D02*
X042199Y029787D01*
X042192Y029794D02*
X042092Y029794D01*
X042085Y029801D02*
X042185Y029801D01*
X042178Y029808D02*
X042078Y029808D01*
X042071Y029815D02*
X042171Y029815D01*
X042164Y029822D02*
X042064Y029822D01*
X042057Y029829D02*
X042157Y029829D01*
X042150Y029836D02*
X042050Y029836D01*
X042043Y029843D02*
X042143Y029843D01*
X042136Y029850D02*
X042036Y029850D01*
X042031Y029857D02*
X042129Y029857D01*
X042122Y029864D02*
X042038Y029864D01*
X042045Y029871D02*
X042115Y029871D01*
X042108Y029878D02*
X042052Y029878D01*
X042059Y029885D02*
X042101Y029885D01*
X042094Y029892D02*
X042066Y029892D01*
X042073Y029899D02*
X042087Y029899D01*
X042080Y029906D02*
X042080Y029906D01*
X041968Y029794D02*
X041918Y029744D01*
X041968Y029794D02*
X042128Y029634D01*
X042078Y029584D01*
X041918Y029744D01*
X042071Y029591D02*
X042085Y029591D01*
X042092Y029598D02*
X042064Y029598D01*
X042057Y029605D02*
X042099Y029605D01*
X042106Y029612D02*
X042050Y029612D01*
X042043Y029619D02*
X042113Y029619D01*
X042120Y029626D02*
X042036Y029626D01*
X042029Y029633D02*
X042127Y029633D01*
X042122Y029640D02*
X042022Y029640D01*
X042015Y029647D02*
X042115Y029647D01*
X042108Y029654D02*
X042008Y029654D01*
X042001Y029661D02*
X042101Y029661D01*
X042094Y029668D02*
X041994Y029668D01*
X041987Y029675D02*
X042087Y029675D01*
X042080Y029682D02*
X041980Y029682D01*
X041973Y029689D02*
X042073Y029689D01*
X042066Y029696D02*
X041966Y029696D01*
X041959Y029703D02*
X042059Y029703D01*
X042052Y029710D02*
X041952Y029710D01*
X041945Y029717D02*
X042045Y029717D01*
X042038Y029724D02*
X041938Y029724D01*
X041931Y029731D02*
X042031Y029731D01*
X042024Y029738D02*
X041924Y029738D01*
X041919Y029745D02*
X042017Y029745D01*
X042010Y029752D02*
X041926Y029752D01*
X041933Y029759D02*
X042003Y029759D01*
X041996Y029766D02*
X041940Y029766D01*
X041947Y029773D02*
X041989Y029773D01*
X041982Y029780D02*
X041954Y029780D01*
X041961Y029787D02*
X041975Y029787D01*
X041968Y029794D02*
X041968Y029794D01*
X041857Y029683D02*
X041807Y029633D01*
X041857Y029683D02*
X042017Y029523D01*
X041967Y029473D01*
X041807Y029633D01*
X041960Y029480D02*
X041974Y029480D01*
X041981Y029487D02*
X041953Y029487D01*
X041946Y029494D02*
X041988Y029494D01*
X041995Y029501D02*
X041939Y029501D01*
X041932Y029508D02*
X042002Y029508D01*
X042009Y029515D02*
X041925Y029515D01*
X041918Y029522D02*
X042016Y029522D01*
X042011Y029529D02*
X041911Y029529D01*
X041904Y029536D02*
X042004Y029536D01*
X041997Y029543D02*
X041897Y029543D01*
X041890Y029550D02*
X041990Y029550D01*
X041983Y029557D02*
X041883Y029557D01*
X041876Y029564D02*
X041976Y029564D01*
X041969Y029571D02*
X041869Y029571D01*
X041862Y029578D02*
X041962Y029578D01*
X041955Y029585D02*
X041855Y029585D01*
X041848Y029592D02*
X041948Y029592D01*
X041941Y029599D02*
X041841Y029599D01*
X041834Y029606D02*
X041934Y029606D01*
X041927Y029613D02*
X041827Y029613D01*
X041820Y029620D02*
X041920Y029620D01*
X041913Y029627D02*
X041813Y029627D01*
X041808Y029634D02*
X041906Y029634D01*
X041899Y029641D02*
X041815Y029641D01*
X041822Y029648D02*
X041892Y029648D01*
X041885Y029655D02*
X041829Y029655D01*
X041836Y029662D02*
X041878Y029662D01*
X041871Y029669D02*
X041843Y029669D01*
X041850Y029676D02*
X041864Y029676D01*
X041857Y029683D02*
X041857Y029683D01*
X041746Y029571D02*
X041696Y029521D01*
X041746Y029571D02*
X041906Y029411D01*
X041856Y029361D01*
X041696Y029521D01*
X041849Y029368D02*
X041863Y029368D01*
X041870Y029375D02*
X041842Y029375D01*
X041835Y029382D02*
X041877Y029382D01*
X041884Y029389D02*
X041828Y029389D01*
X041821Y029396D02*
X041891Y029396D01*
X041898Y029403D02*
X041814Y029403D01*
X041807Y029410D02*
X041905Y029410D01*
X041900Y029417D02*
X041800Y029417D01*
X041793Y029424D02*
X041893Y029424D01*
X041886Y029431D02*
X041786Y029431D01*
X041779Y029438D02*
X041879Y029438D01*
X041872Y029445D02*
X041772Y029445D01*
X041765Y029452D02*
X041865Y029452D01*
X041858Y029459D02*
X041758Y029459D01*
X041751Y029466D02*
X041851Y029466D01*
X041844Y029473D02*
X041744Y029473D01*
X041737Y029480D02*
X041837Y029480D01*
X041830Y029487D02*
X041730Y029487D01*
X041723Y029494D02*
X041823Y029494D01*
X041816Y029501D02*
X041716Y029501D01*
X041709Y029508D02*
X041809Y029508D01*
X041802Y029515D02*
X041702Y029515D01*
X041697Y029522D02*
X041795Y029522D01*
X041788Y029529D02*
X041704Y029529D01*
X041711Y029536D02*
X041781Y029536D01*
X041774Y029543D02*
X041718Y029543D01*
X041725Y029550D02*
X041767Y029550D01*
X041760Y029557D02*
X041732Y029557D01*
X041739Y029564D02*
X041753Y029564D01*
X041746Y029571D02*
X041746Y029571D01*
X041634Y029460D02*
X041584Y029410D01*
X041634Y029460D02*
X041794Y029300D01*
X041744Y029250D01*
X041584Y029410D01*
X041737Y029257D02*
X041751Y029257D01*
X041758Y029264D02*
X041730Y029264D01*
X041723Y029271D02*
X041765Y029271D01*
X041772Y029278D02*
X041716Y029278D01*
X041709Y029285D02*
X041779Y029285D01*
X041786Y029292D02*
X041702Y029292D01*
X041695Y029299D02*
X041793Y029299D01*
X041788Y029306D02*
X041688Y029306D01*
X041681Y029313D02*
X041781Y029313D01*
X041774Y029320D02*
X041674Y029320D01*
X041667Y029327D02*
X041767Y029327D01*
X041760Y029334D02*
X041660Y029334D01*
X041653Y029341D02*
X041753Y029341D01*
X041746Y029348D02*
X041646Y029348D01*
X041639Y029355D02*
X041739Y029355D01*
X041732Y029362D02*
X041632Y029362D01*
X041625Y029369D02*
X041725Y029369D01*
X041718Y029376D02*
X041618Y029376D01*
X041611Y029383D02*
X041711Y029383D01*
X041704Y029390D02*
X041604Y029390D01*
X041597Y029397D02*
X041697Y029397D01*
X041690Y029404D02*
X041590Y029404D01*
X041585Y029411D02*
X041683Y029411D01*
X041676Y029418D02*
X041592Y029418D01*
X041599Y029425D02*
X041669Y029425D01*
X041662Y029432D02*
X041606Y029432D01*
X041613Y029439D02*
X041655Y029439D01*
X041648Y029446D02*
X041620Y029446D01*
X041627Y029453D02*
X041641Y029453D01*
X041634Y029460D02*
X041634Y029460D01*
X041523Y029349D02*
X041473Y029299D01*
X041523Y029349D02*
X041683Y029189D01*
X041633Y029139D01*
X041473Y029299D01*
X041626Y029146D02*
X041640Y029146D01*
X041647Y029153D02*
X041619Y029153D01*
X041612Y029160D02*
X041654Y029160D01*
X041661Y029167D02*
X041605Y029167D01*
X041598Y029174D02*
X041668Y029174D01*
X041675Y029181D02*
X041591Y029181D01*
X041584Y029188D02*
X041682Y029188D01*
X041677Y029195D02*
X041577Y029195D01*
X041570Y029202D02*
X041670Y029202D01*
X041663Y029209D02*
X041563Y029209D01*
X041556Y029216D02*
X041656Y029216D01*
X041649Y029223D02*
X041549Y029223D01*
X041542Y029230D02*
X041642Y029230D01*
X041635Y029237D02*
X041535Y029237D01*
X041528Y029244D02*
X041628Y029244D01*
X041621Y029251D02*
X041521Y029251D01*
X041514Y029258D02*
X041614Y029258D01*
X041607Y029265D02*
X041507Y029265D01*
X041500Y029272D02*
X041600Y029272D01*
X041593Y029279D02*
X041493Y029279D01*
X041486Y029286D02*
X041586Y029286D01*
X041579Y029293D02*
X041479Y029293D01*
X041474Y029300D02*
X041572Y029300D01*
X041565Y029307D02*
X041481Y029307D01*
X041488Y029314D02*
X041558Y029314D01*
X041551Y029321D02*
X041495Y029321D01*
X041502Y029328D02*
X041544Y029328D01*
X041537Y029335D02*
X041509Y029335D01*
X041516Y029342D02*
X041530Y029342D01*
X041523Y029349D02*
X041523Y029349D01*
X041412Y029237D02*
X041362Y029187D01*
X041412Y029237D02*
X041572Y029077D01*
X041522Y029027D01*
X041362Y029187D01*
X041515Y029034D02*
X041529Y029034D01*
X041536Y029041D02*
X041508Y029041D01*
X041501Y029048D02*
X041543Y029048D01*
X041550Y029055D02*
X041494Y029055D01*
X041487Y029062D02*
X041557Y029062D01*
X041564Y029069D02*
X041480Y029069D01*
X041473Y029076D02*
X041571Y029076D01*
X041566Y029083D02*
X041466Y029083D01*
X041459Y029090D02*
X041559Y029090D01*
X041552Y029097D02*
X041452Y029097D01*
X041445Y029104D02*
X041545Y029104D01*
X041538Y029111D02*
X041438Y029111D01*
X041431Y029118D02*
X041531Y029118D01*
X041524Y029125D02*
X041424Y029125D01*
X041417Y029132D02*
X041517Y029132D01*
X041510Y029139D02*
X041410Y029139D01*
X041403Y029146D02*
X041503Y029146D01*
X041496Y029153D02*
X041396Y029153D01*
X041389Y029160D02*
X041489Y029160D01*
X041482Y029167D02*
X041382Y029167D01*
X041375Y029174D02*
X041475Y029174D01*
X041468Y029181D02*
X041368Y029181D01*
X041363Y029188D02*
X041461Y029188D01*
X041454Y029195D02*
X041370Y029195D01*
X041377Y029202D02*
X041447Y029202D01*
X041440Y029209D02*
X041384Y029209D01*
X041391Y029216D02*
X041433Y029216D01*
X041426Y029223D02*
X041398Y029223D01*
X041405Y029230D02*
X041419Y029230D01*
X041412Y029237D02*
X041412Y029237D01*
X041300Y029126D02*
X041250Y029076D01*
X041300Y029126D02*
X041460Y028966D01*
X041410Y028916D01*
X041250Y029076D01*
X041403Y028923D02*
X041417Y028923D01*
X041424Y028930D02*
X041396Y028930D01*
X041389Y028937D02*
X041431Y028937D01*
X041438Y028944D02*
X041382Y028944D01*
X041375Y028951D02*
X041445Y028951D01*
X041452Y028958D02*
X041368Y028958D01*
X041361Y028965D02*
X041459Y028965D01*
X041454Y028972D02*
X041354Y028972D01*
X041347Y028979D02*
X041447Y028979D01*
X041440Y028986D02*
X041340Y028986D01*
X041333Y028993D02*
X041433Y028993D01*
X041426Y029000D02*
X041326Y029000D01*
X041319Y029007D02*
X041419Y029007D01*
X041412Y029014D02*
X041312Y029014D01*
X041305Y029021D02*
X041405Y029021D01*
X041398Y029028D02*
X041298Y029028D01*
X041291Y029035D02*
X041391Y029035D01*
X041384Y029042D02*
X041284Y029042D01*
X041277Y029049D02*
X041377Y029049D01*
X041370Y029056D02*
X041270Y029056D01*
X041263Y029063D02*
X041363Y029063D01*
X041356Y029070D02*
X041256Y029070D01*
X041251Y029077D02*
X041349Y029077D01*
X041342Y029084D02*
X041258Y029084D01*
X041265Y029091D02*
X041335Y029091D01*
X041328Y029098D02*
X041272Y029098D01*
X041279Y029105D02*
X041321Y029105D01*
X041314Y029112D02*
X041286Y029112D01*
X041293Y029119D02*
X041307Y029119D01*
X041300Y029126D02*
X041300Y029126D01*
X041189Y029015D02*
X041139Y028965D01*
X041189Y029015D02*
X041349Y028855D01*
X041299Y028805D01*
X041139Y028965D01*
X041292Y028812D02*
X041306Y028812D01*
X041313Y028819D02*
X041285Y028819D01*
X041278Y028826D02*
X041320Y028826D01*
X041327Y028833D02*
X041271Y028833D01*
X041264Y028840D02*
X041334Y028840D01*
X041341Y028847D02*
X041257Y028847D01*
X041250Y028854D02*
X041348Y028854D01*
X041343Y028861D02*
X041243Y028861D01*
X041236Y028868D02*
X041336Y028868D01*
X041329Y028875D02*
X041229Y028875D01*
X041222Y028882D02*
X041322Y028882D01*
X041315Y028889D02*
X041215Y028889D01*
X041208Y028896D02*
X041308Y028896D01*
X041301Y028903D02*
X041201Y028903D01*
X041194Y028910D02*
X041294Y028910D01*
X041287Y028917D02*
X041187Y028917D01*
X041180Y028924D02*
X041280Y028924D01*
X041273Y028931D02*
X041173Y028931D01*
X041166Y028938D02*
X041266Y028938D01*
X041259Y028945D02*
X041159Y028945D01*
X041152Y028952D02*
X041252Y028952D01*
X041245Y028959D02*
X041145Y028959D01*
X041140Y028966D02*
X041238Y028966D01*
X041231Y028973D02*
X041147Y028973D01*
X041154Y028980D02*
X041224Y028980D01*
X041217Y028987D02*
X041161Y028987D01*
X041168Y028994D02*
X041210Y028994D01*
X041203Y029001D02*
X041175Y029001D01*
X041182Y029008D02*
X041196Y029008D01*
X041189Y029015D02*
X041189Y029015D01*
X041077Y028903D02*
X041027Y028853D01*
X041077Y028903D02*
X041237Y028743D01*
X041187Y028693D01*
X041027Y028853D01*
X041180Y028700D02*
X041194Y028700D01*
X041201Y028707D02*
X041173Y028707D01*
X041166Y028714D02*
X041208Y028714D01*
X041215Y028721D02*
X041159Y028721D01*
X041152Y028728D02*
X041222Y028728D01*
X041229Y028735D02*
X041145Y028735D01*
X041138Y028742D02*
X041236Y028742D01*
X041231Y028749D02*
X041131Y028749D01*
X041124Y028756D02*
X041224Y028756D01*
X041217Y028763D02*
X041117Y028763D01*
X041110Y028770D02*
X041210Y028770D01*
X041203Y028777D02*
X041103Y028777D01*
X041096Y028784D02*
X041196Y028784D01*
X041189Y028791D02*
X041089Y028791D01*
X041082Y028798D02*
X041182Y028798D01*
X041175Y028805D02*
X041075Y028805D01*
X041068Y028812D02*
X041168Y028812D01*
X041161Y028819D02*
X041061Y028819D01*
X041054Y028826D02*
X041154Y028826D01*
X041147Y028833D02*
X041047Y028833D01*
X041040Y028840D02*
X041140Y028840D01*
X041133Y028847D02*
X041033Y028847D01*
X041028Y028854D02*
X041126Y028854D01*
X041119Y028861D02*
X041035Y028861D01*
X041042Y028868D02*
X041112Y028868D01*
X041105Y028875D02*
X041049Y028875D01*
X041056Y028882D02*
X041098Y028882D01*
X041091Y028889D02*
X041063Y028889D01*
X041070Y028896D02*
X041084Y028896D01*
X041077Y028903D02*
X041077Y028903D01*
X040966Y028792D02*
X040916Y028742D01*
X040966Y028792D02*
X041126Y028632D01*
X041076Y028582D01*
X040916Y028742D01*
X041069Y028589D02*
X041083Y028589D01*
X041090Y028596D02*
X041062Y028596D01*
X041055Y028603D02*
X041097Y028603D01*
X041104Y028610D02*
X041048Y028610D01*
X041041Y028617D02*
X041111Y028617D01*
X041118Y028624D02*
X041034Y028624D01*
X041027Y028631D02*
X041125Y028631D01*
X041120Y028638D02*
X041020Y028638D01*
X041013Y028645D02*
X041113Y028645D01*
X041106Y028652D02*
X041006Y028652D01*
X040999Y028659D02*
X041099Y028659D01*
X041092Y028666D02*
X040992Y028666D01*
X040985Y028673D02*
X041085Y028673D01*
X041078Y028680D02*
X040978Y028680D01*
X040971Y028687D02*
X041071Y028687D01*
X041064Y028694D02*
X040964Y028694D01*
X040957Y028701D02*
X041057Y028701D01*
X041050Y028708D02*
X040950Y028708D01*
X040943Y028715D02*
X041043Y028715D01*
X041036Y028722D02*
X040936Y028722D01*
X040929Y028729D02*
X041029Y028729D01*
X041022Y028736D02*
X040922Y028736D01*
X040917Y028743D02*
X041015Y028743D01*
X041008Y028750D02*
X040924Y028750D01*
X040931Y028757D02*
X041001Y028757D01*
X040994Y028764D02*
X040938Y028764D01*
X040945Y028771D02*
X040987Y028771D01*
X040980Y028778D02*
X040952Y028778D01*
X040959Y028785D02*
X040973Y028785D01*
X040966Y028792D02*
X040966Y028792D01*
X040855Y028681D02*
X040805Y028631D01*
X040855Y028681D02*
X041015Y028521D01*
X040965Y028471D01*
X040805Y028631D01*
X040958Y028478D02*
X040972Y028478D01*
X040979Y028485D02*
X040951Y028485D01*
X040944Y028492D02*
X040986Y028492D01*
X040993Y028499D02*
X040937Y028499D01*
X040930Y028506D02*
X041000Y028506D01*
X041007Y028513D02*
X040923Y028513D01*
X040916Y028520D02*
X041014Y028520D01*
X041009Y028527D02*
X040909Y028527D01*
X040902Y028534D02*
X041002Y028534D01*
X040995Y028541D02*
X040895Y028541D01*
X040888Y028548D02*
X040988Y028548D01*
X040981Y028555D02*
X040881Y028555D01*
X040874Y028562D02*
X040974Y028562D01*
X040967Y028569D02*
X040867Y028569D01*
X040860Y028576D02*
X040960Y028576D01*
X040953Y028583D02*
X040853Y028583D01*
X040846Y028590D02*
X040946Y028590D01*
X040939Y028597D02*
X040839Y028597D01*
X040832Y028604D02*
X040932Y028604D01*
X040925Y028611D02*
X040825Y028611D01*
X040818Y028618D02*
X040918Y028618D01*
X040911Y028625D02*
X040811Y028625D01*
X040806Y028632D02*
X040904Y028632D01*
X040897Y028639D02*
X040813Y028639D01*
X040820Y028646D02*
X040890Y028646D01*
X040883Y028653D02*
X040827Y028653D01*
X040834Y028660D02*
X040876Y028660D01*
X040869Y028667D02*
X040841Y028667D01*
X040848Y028674D02*
X040862Y028674D01*
X040855Y028681D02*
X040855Y028681D01*
X040743Y028569D02*
X040693Y028519D01*
X040743Y028569D02*
X040903Y028409D01*
X040853Y028359D01*
X040693Y028519D01*
X040846Y028366D02*
X040860Y028366D01*
X040867Y028373D02*
X040839Y028373D01*
X040832Y028380D02*
X040874Y028380D01*
X040881Y028387D02*
X040825Y028387D01*
X040818Y028394D02*
X040888Y028394D01*
X040895Y028401D02*
X040811Y028401D01*
X040804Y028408D02*
X040902Y028408D01*
X040897Y028415D02*
X040797Y028415D01*
X040790Y028422D02*
X040890Y028422D01*
X040883Y028429D02*
X040783Y028429D01*
X040776Y028436D02*
X040876Y028436D01*
X040869Y028443D02*
X040769Y028443D01*
X040762Y028450D02*
X040862Y028450D01*
X040855Y028457D02*
X040755Y028457D01*
X040748Y028464D02*
X040848Y028464D01*
X040841Y028471D02*
X040741Y028471D01*
X040734Y028478D02*
X040834Y028478D01*
X040827Y028485D02*
X040727Y028485D01*
X040720Y028492D02*
X040820Y028492D01*
X040813Y028499D02*
X040713Y028499D01*
X040706Y028506D02*
X040806Y028506D01*
X040799Y028513D02*
X040699Y028513D01*
X040694Y028520D02*
X040792Y028520D01*
X040785Y028527D02*
X040701Y028527D01*
X040708Y028534D02*
X040778Y028534D01*
X040771Y028541D02*
X040715Y028541D01*
X040722Y028548D02*
X040764Y028548D01*
X040757Y028555D02*
X040729Y028555D01*
X040736Y028562D02*
X040750Y028562D01*
X040743Y028569D02*
X040743Y028569D01*
X040632Y028458D02*
X040582Y028408D01*
X040632Y028458D02*
X040792Y028298D01*
X040742Y028248D01*
X040582Y028408D01*
X040735Y028255D02*
X040749Y028255D01*
X040756Y028262D02*
X040728Y028262D01*
X040721Y028269D02*
X040763Y028269D01*
X040770Y028276D02*
X040714Y028276D01*
X040707Y028283D02*
X040777Y028283D01*
X040784Y028290D02*
X040700Y028290D01*
X040693Y028297D02*
X040791Y028297D01*
X040786Y028304D02*
X040686Y028304D01*
X040679Y028311D02*
X040779Y028311D01*
X040772Y028318D02*
X040672Y028318D01*
X040665Y028325D02*
X040765Y028325D01*
X040758Y028332D02*
X040658Y028332D01*
X040651Y028339D02*
X040751Y028339D01*
X040744Y028346D02*
X040644Y028346D01*
X040637Y028353D02*
X040737Y028353D01*
X040730Y028360D02*
X040630Y028360D01*
X040623Y028367D02*
X040723Y028367D01*
X040716Y028374D02*
X040616Y028374D01*
X040609Y028381D02*
X040709Y028381D01*
X040702Y028388D02*
X040602Y028388D01*
X040595Y028395D02*
X040695Y028395D01*
X040688Y028402D02*
X040588Y028402D01*
X040583Y028409D02*
X040681Y028409D01*
X040674Y028416D02*
X040590Y028416D01*
X040597Y028423D02*
X040667Y028423D01*
X040660Y028430D02*
X040604Y028430D01*
X040611Y028437D02*
X040653Y028437D01*
X040646Y028444D02*
X040618Y028444D01*
X040625Y028451D02*
X040639Y028451D01*
X040632Y028458D02*
X040632Y028458D01*
X040521Y028347D02*
X040471Y028297D01*
X040521Y028347D02*
X040681Y028187D01*
X040631Y028137D01*
X040471Y028297D01*
X040624Y028144D02*
X040638Y028144D01*
X040645Y028151D02*
X040617Y028151D01*
X040610Y028158D02*
X040652Y028158D01*
X040659Y028165D02*
X040603Y028165D01*
X040596Y028172D02*
X040666Y028172D01*
X040673Y028179D02*
X040589Y028179D01*
X040582Y028186D02*
X040680Y028186D01*
X040675Y028193D02*
X040575Y028193D01*
X040568Y028200D02*
X040668Y028200D01*
X040661Y028207D02*
X040561Y028207D01*
X040554Y028214D02*
X040654Y028214D01*
X040647Y028221D02*
X040547Y028221D01*
X040540Y028228D02*
X040640Y028228D01*
X040633Y028235D02*
X040533Y028235D01*
X040526Y028242D02*
X040626Y028242D01*
X040619Y028249D02*
X040519Y028249D01*
X040512Y028256D02*
X040612Y028256D01*
X040605Y028263D02*
X040505Y028263D01*
X040498Y028270D02*
X040598Y028270D01*
X040591Y028277D02*
X040491Y028277D01*
X040484Y028284D02*
X040584Y028284D01*
X040577Y028291D02*
X040477Y028291D01*
X040472Y028298D02*
X040570Y028298D01*
X040563Y028305D02*
X040479Y028305D01*
X040486Y028312D02*
X040556Y028312D01*
X040549Y028319D02*
X040493Y028319D01*
X040500Y028326D02*
X040542Y028326D01*
X040535Y028333D02*
X040507Y028333D01*
X040514Y028340D02*
X040528Y028340D01*
X040521Y028347D02*
X040521Y028347D01*
X040409Y028235D02*
X040359Y028185D01*
X040409Y028235D02*
X040569Y028075D01*
X040519Y028025D01*
X040359Y028185D01*
X040512Y028032D02*
X040526Y028032D01*
X040533Y028039D02*
X040505Y028039D01*
X040498Y028046D02*
X040540Y028046D01*
X040547Y028053D02*
X040491Y028053D01*
X040484Y028060D02*
X040554Y028060D01*
X040561Y028067D02*
X040477Y028067D01*
X040470Y028074D02*
X040568Y028074D01*
X040563Y028081D02*
X040463Y028081D01*
X040456Y028088D02*
X040556Y028088D01*
X040549Y028095D02*
X040449Y028095D01*
X040442Y028102D02*
X040542Y028102D01*
X040535Y028109D02*
X040435Y028109D01*
X040428Y028116D02*
X040528Y028116D01*
X040521Y028123D02*
X040421Y028123D01*
X040414Y028130D02*
X040514Y028130D01*
X040507Y028137D02*
X040407Y028137D01*
X040400Y028144D02*
X040500Y028144D01*
X040493Y028151D02*
X040393Y028151D01*
X040386Y028158D02*
X040486Y028158D01*
X040479Y028165D02*
X040379Y028165D01*
X040372Y028172D02*
X040472Y028172D01*
X040465Y028179D02*
X040365Y028179D01*
X040360Y028186D02*
X040458Y028186D01*
X040451Y028193D02*
X040367Y028193D01*
X040374Y028200D02*
X040444Y028200D01*
X040437Y028207D02*
X040381Y028207D01*
X040388Y028214D02*
X040430Y028214D01*
X040423Y028221D02*
X040395Y028221D01*
X040402Y028228D02*
X040416Y028228D01*
X040409Y028235D02*
X040409Y028235D01*
X040298Y028124D02*
X040248Y028074D01*
X040298Y028124D02*
X040458Y027964D01*
X040408Y027914D01*
X040248Y028074D01*
X040401Y027921D02*
X040415Y027921D01*
X040422Y027928D02*
X040394Y027928D01*
X040387Y027935D02*
X040429Y027935D01*
X040436Y027942D02*
X040380Y027942D01*
X040373Y027949D02*
X040443Y027949D01*
X040450Y027956D02*
X040366Y027956D01*
X040359Y027963D02*
X040457Y027963D01*
X040452Y027970D02*
X040352Y027970D01*
X040345Y027977D02*
X040445Y027977D01*
X040438Y027984D02*
X040338Y027984D01*
X040331Y027991D02*
X040431Y027991D01*
X040424Y027998D02*
X040324Y027998D01*
X040317Y028005D02*
X040417Y028005D01*
X040410Y028012D02*
X040310Y028012D01*
X040303Y028019D02*
X040403Y028019D01*
X040396Y028026D02*
X040296Y028026D01*
X040289Y028033D02*
X040389Y028033D01*
X040382Y028040D02*
X040282Y028040D01*
X040275Y028047D02*
X040375Y028047D01*
X040368Y028054D02*
X040268Y028054D01*
X040261Y028061D02*
X040361Y028061D01*
X040354Y028068D02*
X040254Y028068D01*
X040249Y028075D02*
X040347Y028075D01*
X040340Y028082D02*
X040256Y028082D01*
X040263Y028089D02*
X040333Y028089D01*
X040326Y028096D02*
X040270Y028096D01*
X040277Y028103D02*
X040319Y028103D01*
X040312Y028110D02*
X040284Y028110D01*
X040291Y028117D02*
X040305Y028117D01*
X040298Y028124D02*
X040298Y028124D01*
X040068Y028074D02*
X040018Y028124D01*
X040068Y028074D02*
X039908Y027914D01*
X039858Y027964D01*
X040018Y028124D01*
X039915Y027921D02*
X039901Y027921D01*
X039894Y027928D02*
X039922Y027928D01*
X039929Y027935D02*
X039887Y027935D01*
X039880Y027942D02*
X039936Y027942D01*
X039943Y027949D02*
X039873Y027949D01*
X039866Y027956D02*
X039950Y027956D01*
X039957Y027963D02*
X039859Y027963D01*
X039864Y027970D02*
X039964Y027970D01*
X039971Y027977D02*
X039871Y027977D01*
X039878Y027984D02*
X039978Y027984D01*
X039985Y027991D02*
X039885Y027991D01*
X039892Y027998D02*
X039992Y027998D01*
X039999Y028005D02*
X039899Y028005D01*
X039906Y028012D02*
X040006Y028012D01*
X040013Y028019D02*
X039913Y028019D01*
X039920Y028026D02*
X040020Y028026D01*
X040027Y028033D02*
X039927Y028033D01*
X039934Y028040D02*
X040034Y028040D01*
X040041Y028047D02*
X039941Y028047D01*
X039948Y028054D02*
X040048Y028054D01*
X040055Y028061D02*
X039955Y028061D01*
X039962Y028068D02*
X040062Y028068D01*
X040067Y028075D02*
X039969Y028075D01*
X039976Y028082D02*
X040060Y028082D01*
X040053Y028089D02*
X039983Y028089D01*
X039990Y028096D02*
X040046Y028096D01*
X040039Y028103D02*
X039997Y028103D01*
X040004Y028110D02*
X040032Y028110D01*
X040025Y028117D02*
X040011Y028117D01*
X040018Y028124D02*
X040018Y028124D01*
X039957Y028185D02*
X039907Y028235D01*
X039957Y028185D02*
X039797Y028025D01*
X039747Y028075D01*
X039907Y028235D01*
X039804Y028032D02*
X039790Y028032D01*
X039783Y028039D02*
X039811Y028039D01*
X039818Y028046D02*
X039776Y028046D01*
X039769Y028053D02*
X039825Y028053D01*
X039832Y028060D02*
X039762Y028060D01*
X039755Y028067D02*
X039839Y028067D01*
X039846Y028074D02*
X039748Y028074D01*
X039753Y028081D02*
X039853Y028081D01*
X039860Y028088D02*
X039760Y028088D01*
X039767Y028095D02*
X039867Y028095D01*
X039874Y028102D02*
X039774Y028102D01*
X039781Y028109D02*
X039881Y028109D01*
X039888Y028116D02*
X039788Y028116D01*
X039795Y028123D02*
X039895Y028123D01*
X039902Y028130D02*
X039802Y028130D01*
X039809Y028137D02*
X039909Y028137D01*
X039916Y028144D02*
X039816Y028144D01*
X039823Y028151D02*
X039923Y028151D01*
X039930Y028158D02*
X039830Y028158D01*
X039837Y028165D02*
X039937Y028165D01*
X039944Y028172D02*
X039844Y028172D01*
X039851Y028179D02*
X039951Y028179D01*
X039956Y028186D02*
X039858Y028186D01*
X039865Y028193D02*
X039949Y028193D01*
X039942Y028200D02*
X039872Y028200D01*
X039879Y028207D02*
X039935Y028207D01*
X039928Y028214D02*
X039886Y028214D01*
X039893Y028221D02*
X039921Y028221D01*
X039914Y028228D02*
X039900Y028228D01*
X039907Y028235D02*
X039907Y028235D01*
X039846Y028297D02*
X039796Y028347D01*
X039846Y028297D02*
X039686Y028137D01*
X039636Y028187D01*
X039796Y028347D01*
X039693Y028144D02*
X039679Y028144D01*
X039672Y028151D02*
X039700Y028151D01*
X039707Y028158D02*
X039665Y028158D01*
X039658Y028165D02*
X039714Y028165D01*
X039721Y028172D02*
X039651Y028172D01*
X039644Y028179D02*
X039728Y028179D01*
X039735Y028186D02*
X039637Y028186D01*
X039642Y028193D02*
X039742Y028193D01*
X039749Y028200D02*
X039649Y028200D01*
X039656Y028207D02*
X039756Y028207D01*
X039763Y028214D02*
X039663Y028214D01*
X039670Y028221D02*
X039770Y028221D01*
X039777Y028228D02*
X039677Y028228D01*
X039684Y028235D02*
X039784Y028235D01*
X039791Y028242D02*
X039691Y028242D01*
X039698Y028249D02*
X039798Y028249D01*
X039805Y028256D02*
X039705Y028256D01*
X039712Y028263D02*
X039812Y028263D01*
X039819Y028270D02*
X039719Y028270D01*
X039726Y028277D02*
X039826Y028277D01*
X039833Y028284D02*
X039733Y028284D01*
X039740Y028291D02*
X039840Y028291D01*
X039845Y028298D02*
X039747Y028298D01*
X039754Y028305D02*
X039838Y028305D01*
X039831Y028312D02*
X039761Y028312D01*
X039768Y028319D02*
X039824Y028319D01*
X039817Y028326D02*
X039775Y028326D01*
X039782Y028333D02*
X039810Y028333D01*
X039803Y028340D02*
X039789Y028340D01*
X039796Y028347D02*
X039796Y028347D01*
X039734Y028408D02*
X039684Y028458D01*
X039734Y028408D02*
X039574Y028248D01*
X039524Y028298D01*
X039684Y028458D01*
X039581Y028255D02*
X039567Y028255D01*
X039560Y028262D02*
X039588Y028262D01*
X039595Y028269D02*
X039553Y028269D01*
X039546Y028276D02*
X039602Y028276D01*
X039609Y028283D02*
X039539Y028283D01*
X039532Y028290D02*
X039616Y028290D01*
X039623Y028297D02*
X039525Y028297D01*
X039530Y028304D02*
X039630Y028304D01*
X039637Y028311D02*
X039537Y028311D01*
X039544Y028318D02*
X039644Y028318D01*
X039651Y028325D02*
X039551Y028325D01*
X039558Y028332D02*
X039658Y028332D01*
X039665Y028339D02*
X039565Y028339D01*
X039572Y028346D02*
X039672Y028346D01*
X039679Y028353D02*
X039579Y028353D01*
X039586Y028360D02*
X039686Y028360D01*
X039693Y028367D02*
X039593Y028367D01*
X039600Y028374D02*
X039700Y028374D01*
X039707Y028381D02*
X039607Y028381D01*
X039614Y028388D02*
X039714Y028388D01*
X039721Y028395D02*
X039621Y028395D01*
X039628Y028402D02*
X039728Y028402D01*
X039733Y028409D02*
X039635Y028409D01*
X039642Y028416D02*
X039726Y028416D01*
X039719Y028423D02*
X039649Y028423D01*
X039656Y028430D02*
X039712Y028430D01*
X039705Y028437D02*
X039663Y028437D01*
X039670Y028444D02*
X039698Y028444D01*
X039691Y028451D02*
X039677Y028451D01*
X039684Y028458D02*
X039684Y028458D01*
X039623Y028519D02*
X039573Y028569D01*
X039623Y028519D02*
X039463Y028359D01*
X039413Y028409D01*
X039573Y028569D01*
X039470Y028366D02*
X039456Y028366D01*
X039449Y028373D02*
X039477Y028373D01*
X039484Y028380D02*
X039442Y028380D01*
X039435Y028387D02*
X039491Y028387D01*
X039498Y028394D02*
X039428Y028394D01*
X039421Y028401D02*
X039505Y028401D01*
X039512Y028408D02*
X039414Y028408D01*
X039419Y028415D02*
X039519Y028415D01*
X039526Y028422D02*
X039426Y028422D01*
X039433Y028429D02*
X039533Y028429D01*
X039540Y028436D02*
X039440Y028436D01*
X039447Y028443D02*
X039547Y028443D01*
X039554Y028450D02*
X039454Y028450D01*
X039461Y028457D02*
X039561Y028457D01*
X039568Y028464D02*
X039468Y028464D01*
X039475Y028471D02*
X039575Y028471D01*
X039582Y028478D02*
X039482Y028478D01*
X039489Y028485D02*
X039589Y028485D01*
X039596Y028492D02*
X039496Y028492D01*
X039503Y028499D02*
X039603Y028499D01*
X039610Y028506D02*
X039510Y028506D01*
X039517Y028513D02*
X039617Y028513D01*
X039622Y028520D02*
X039524Y028520D01*
X039531Y028527D02*
X039615Y028527D01*
X039608Y028534D02*
X039538Y028534D01*
X039545Y028541D02*
X039601Y028541D01*
X039594Y028548D02*
X039552Y028548D01*
X039559Y028555D02*
X039587Y028555D01*
X039580Y028562D02*
X039566Y028562D01*
X039573Y028569D02*
X039573Y028569D01*
X039511Y028631D02*
X039461Y028681D01*
X039511Y028631D02*
X039351Y028471D01*
X039301Y028521D01*
X039461Y028681D01*
X039358Y028478D02*
X039344Y028478D01*
X039337Y028485D02*
X039365Y028485D01*
X039372Y028492D02*
X039330Y028492D01*
X039323Y028499D02*
X039379Y028499D01*
X039386Y028506D02*
X039316Y028506D01*
X039309Y028513D02*
X039393Y028513D01*
X039400Y028520D02*
X039302Y028520D01*
X039307Y028527D02*
X039407Y028527D01*
X039414Y028534D02*
X039314Y028534D01*
X039321Y028541D02*
X039421Y028541D01*
X039428Y028548D02*
X039328Y028548D01*
X039335Y028555D02*
X039435Y028555D01*
X039442Y028562D02*
X039342Y028562D01*
X039349Y028569D02*
X039449Y028569D01*
X039456Y028576D02*
X039356Y028576D01*
X039363Y028583D02*
X039463Y028583D01*
X039470Y028590D02*
X039370Y028590D01*
X039377Y028597D02*
X039477Y028597D01*
X039484Y028604D02*
X039384Y028604D01*
X039391Y028611D02*
X039491Y028611D01*
X039498Y028618D02*
X039398Y028618D01*
X039405Y028625D02*
X039505Y028625D01*
X039510Y028632D02*
X039412Y028632D01*
X039419Y028639D02*
X039503Y028639D01*
X039496Y028646D02*
X039426Y028646D01*
X039433Y028653D02*
X039489Y028653D01*
X039482Y028660D02*
X039440Y028660D01*
X039447Y028667D02*
X039475Y028667D01*
X039468Y028674D02*
X039454Y028674D01*
X039461Y028681D02*
X039461Y028681D01*
X039400Y028742D02*
X039350Y028792D01*
X039400Y028742D02*
X039240Y028582D01*
X039190Y028632D01*
X039350Y028792D01*
X039247Y028589D02*
X039233Y028589D01*
X039226Y028596D02*
X039254Y028596D01*
X039261Y028603D02*
X039219Y028603D01*
X039212Y028610D02*
X039268Y028610D01*
X039275Y028617D02*
X039205Y028617D01*
X039198Y028624D02*
X039282Y028624D01*
X039289Y028631D02*
X039191Y028631D01*
X039196Y028638D02*
X039296Y028638D01*
X039303Y028645D02*
X039203Y028645D01*
X039210Y028652D02*
X039310Y028652D01*
X039317Y028659D02*
X039217Y028659D01*
X039224Y028666D02*
X039324Y028666D01*
X039331Y028673D02*
X039231Y028673D01*
X039238Y028680D02*
X039338Y028680D01*
X039345Y028687D02*
X039245Y028687D01*
X039252Y028694D02*
X039352Y028694D01*
X039359Y028701D02*
X039259Y028701D01*
X039266Y028708D02*
X039366Y028708D01*
X039373Y028715D02*
X039273Y028715D01*
X039280Y028722D02*
X039380Y028722D01*
X039387Y028729D02*
X039287Y028729D01*
X039294Y028736D02*
X039394Y028736D01*
X039399Y028743D02*
X039301Y028743D01*
X039308Y028750D02*
X039392Y028750D01*
X039385Y028757D02*
X039315Y028757D01*
X039322Y028764D02*
X039378Y028764D01*
X039371Y028771D02*
X039329Y028771D01*
X039336Y028778D02*
X039364Y028778D01*
X039357Y028785D02*
X039343Y028785D01*
X039350Y028792D02*
X039350Y028792D01*
X039289Y028853D02*
X039239Y028903D01*
X039289Y028853D02*
X039129Y028693D01*
X039079Y028743D01*
X039239Y028903D01*
X039136Y028700D02*
X039122Y028700D01*
X039115Y028707D02*
X039143Y028707D01*
X039150Y028714D02*
X039108Y028714D01*
X039101Y028721D02*
X039157Y028721D01*
X039164Y028728D02*
X039094Y028728D01*
X039087Y028735D02*
X039171Y028735D01*
X039178Y028742D02*
X039080Y028742D01*
X039085Y028749D02*
X039185Y028749D01*
X039192Y028756D02*
X039092Y028756D01*
X039099Y028763D02*
X039199Y028763D01*
X039206Y028770D02*
X039106Y028770D01*
X039113Y028777D02*
X039213Y028777D01*
X039220Y028784D02*
X039120Y028784D01*
X039127Y028791D02*
X039227Y028791D01*
X039234Y028798D02*
X039134Y028798D01*
X039141Y028805D02*
X039241Y028805D01*
X039248Y028812D02*
X039148Y028812D01*
X039155Y028819D02*
X039255Y028819D01*
X039262Y028826D02*
X039162Y028826D01*
X039169Y028833D02*
X039269Y028833D01*
X039276Y028840D02*
X039176Y028840D01*
X039183Y028847D02*
X039283Y028847D01*
X039288Y028854D02*
X039190Y028854D01*
X039197Y028861D02*
X039281Y028861D01*
X039274Y028868D02*
X039204Y028868D01*
X039211Y028875D02*
X039267Y028875D01*
X039260Y028882D02*
X039218Y028882D01*
X039225Y028889D02*
X039253Y028889D01*
X039246Y028896D02*
X039232Y028896D01*
X039239Y028903D02*
X039239Y028903D01*
X039177Y028965D02*
X039127Y029015D01*
X039177Y028965D02*
X039017Y028805D01*
X038967Y028855D01*
X039127Y029015D01*
X039024Y028812D02*
X039010Y028812D01*
X039003Y028819D02*
X039031Y028819D01*
X039038Y028826D02*
X038996Y028826D01*
X038989Y028833D02*
X039045Y028833D01*
X039052Y028840D02*
X038982Y028840D01*
X038975Y028847D02*
X039059Y028847D01*
X039066Y028854D02*
X038968Y028854D01*
X038973Y028861D02*
X039073Y028861D01*
X039080Y028868D02*
X038980Y028868D01*
X038987Y028875D02*
X039087Y028875D01*
X039094Y028882D02*
X038994Y028882D01*
X039001Y028889D02*
X039101Y028889D01*
X039108Y028896D02*
X039008Y028896D01*
X039015Y028903D02*
X039115Y028903D01*
X039122Y028910D02*
X039022Y028910D01*
X039029Y028917D02*
X039129Y028917D01*
X039136Y028924D02*
X039036Y028924D01*
X039043Y028931D02*
X039143Y028931D01*
X039150Y028938D02*
X039050Y028938D01*
X039057Y028945D02*
X039157Y028945D01*
X039164Y028952D02*
X039064Y028952D01*
X039071Y028959D02*
X039171Y028959D01*
X039176Y028966D02*
X039078Y028966D01*
X039085Y028973D02*
X039169Y028973D01*
X039162Y028980D02*
X039092Y028980D01*
X039099Y028987D02*
X039155Y028987D01*
X039148Y028994D02*
X039106Y028994D01*
X039113Y029001D02*
X039141Y029001D01*
X039134Y029008D02*
X039120Y029008D01*
X039127Y029015D02*
X039127Y029015D01*
X039066Y029076D02*
X039016Y029126D01*
X039066Y029076D02*
X038906Y028916D01*
X038856Y028966D01*
X039016Y029126D01*
X038913Y028923D02*
X038899Y028923D01*
X038892Y028930D02*
X038920Y028930D01*
X038927Y028937D02*
X038885Y028937D01*
X038878Y028944D02*
X038934Y028944D01*
X038941Y028951D02*
X038871Y028951D01*
X038864Y028958D02*
X038948Y028958D01*
X038955Y028965D02*
X038857Y028965D01*
X038862Y028972D02*
X038962Y028972D01*
X038969Y028979D02*
X038869Y028979D01*
X038876Y028986D02*
X038976Y028986D01*
X038983Y028993D02*
X038883Y028993D01*
X038890Y029000D02*
X038990Y029000D01*
X038997Y029007D02*
X038897Y029007D01*
X038904Y029014D02*
X039004Y029014D01*
X039011Y029021D02*
X038911Y029021D01*
X038918Y029028D02*
X039018Y029028D01*
X039025Y029035D02*
X038925Y029035D01*
X038932Y029042D02*
X039032Y029042D01*
X039039Y029049D02*
X038939Y029049D01*
X038946Y029056D02*
X039046Y029056D01*
X039053Y029063D02*
X038953Y029063D01*
X038960Y029070D02*
X039060Y029070D01*
X039065Y029077D02*
X038967Y029077D01*
X038974Y029084D02*
X039058Y029084D01*
X039051Y029091D02*
X038981Y029091D01*
X038988Y029098D02*
X039044Y029098D01*
X039037Y029105D02*
X038995Y029105D01*
X039002Y029112D02*
X039030Y029112D01*
X039023Y029119D02*
X039009Y029119D01*
X039016Y029126D02*
X039016Y029126D01*
X038955Y029187D02*
X038905Y029237D01*
X038955Y029187D02*
X038795Y029027D01*
X038745Y029077D01*
X038905Y029237D01*
X038802Y029034D02*
X038788Y029034D01*
X038781Y029041D02*
X038809Y029041D01*
X038816Y029048D02*
X038774Y029048D01*
X038767Y029055D02*
X038823Y029055D01*
X038830Y029062D02*
X038760Y029062D01*
X038753Y029069D02*
X038837Y029069D01*
X038844Y029076D02*
X038746Y029076D01*
X038751Y029083D02*
X038851Y029083D01*
X038858Y029090D02*
X038758Y029090D01*
X038765Y029097D02*
X038865Y029097D01*
X038872Y029104D02*
X038772Y029104D01*
X038779Y029111D02*
X038879Y029111D01*
X038886Y029118D02*
X038786Y029118D01*
X038793Y029125D02*
X038893Y029125D01*
X038900Y029132D02*
X038800Y029132D01*
X038807Y029139D02*
X038907Y029139D01*
X038914Y029146D02*
X038814Y029146D01*
X038821Y029153D02*
X038921Y029153D01*
X038928Y029160D02*
X038828Y029160D01*
X038835Y029167D02*
X038935Y029167D01*
X038942Y029174D02*
X038842Y029174D01*
X038849Y029181D02*
X038949Y029181D01*
X038954Y029188D02*
X038856Y029188D01*
X038863Y029195D02*
X038947Y029195D01*
X038940Y029202D02*
X038870Y029202D01*
X038877Y029209D02*
X038933Y029209D01*
X038926Y029216D02*
X038884Y029216D01*
X038891Y029223D02*
X038919Y029223D01*
X038912Y029230D02*
X038898Y029230D01*
X038905Y029237D02*
X038905Y029237D01*
X038843Y029299D02*
X038793Y029349D01*
X038843Y029299D02*
X038683Y029139D01*
X038633Y029189D01*
X038793Y029349D01*
X038690Y029146D02*
X038676Y029146D01*
X038669Y029153D02*
X038697Y029153D01*
X038704Y029160D02*
X038662Y029160D01*
X038655Y029167D02*
X038711Y029167D01*
X038718Y029174D02*
X038648Y029174D01*
X038641Y029181D02*
X038725Y029181D01*
X038732Y029188D02*
X038634Y029188D01*
X038639Y029195D02*
X038739Y029195D01*
X038746Y029202D02*
X038646Y029202D01*
X038653Y029209D02*
X038753Y029209D01*
X038760Y029216D02*
X038660Y029216D01*
X038667Y029223D02*
X038767Y029223D01*
X038774Y029230D02*
X038674Y029230D01*
X038681Y029237D02*
X038781Y029237D01*
X038788Y029244D02*
X038688Y029244D01*
X038695Y029251D02*
X038795Y029251D01*
X038802Y029258D02*
X038702Y029258D01*
X038709Y029265D02*
X038809Y029265D01*
X038816Y029272D02*
X038716Y029272D01*
X038723Y029279D02*
X038823Y029279D01*
X038830Y029286D02*
X038730Y029286D01*
X038737Y029293D02*
X038837Y029293D01*
X038842Y029300D02*
X038744Y029300D01*
X038751Y029307D02*
X038835Y029307D01*
X038828Y029314D02*
X038758Y029314D01*
X038765Y029321D02*
X038821Y029321D01*
X038814Y029328D02*
X038772Y029328D01*
X038779Y029335D02*
X038807Y029335D01*
X038800Y029342D02*
X038786Y029342D01*
X038793Y029349D02*
X038793Y029349D01*
X038732Y029410D02*
X038682Y029460D01*
X038732Y029410D02*
X038572Y029250D01*
X038522Y029300D01*
X038682Y029460D01*
X038579Y029257D02*
X038565Y029257D01*
X038558Y029264D02*
X038586Y029264D01*
X038593Y029271D02*
X038551Y029271D01*
X038544Y029278D02*
X038600Y029278D01*
X038607Y029285D02*
X038537Y029285D01*
X038530Y029292D02*
X038614Y029292D01*
X038621Y029299D02*
X038523Y029299D01*
X038528Y029306D02*
X038628Y029306D01*
X038635Y029313D02*
X038535Y029313D01*
X038542Y029320D02*
X038642Y029320D01*
X038649Y029327D02*
X038549Y029327D01*
X038556Y029334D02*
X038656Y029334D01*
X038663Y029341D02*
X038563Y029341D01*
X038570Y029348D02*
X038670Y029348D01*
X038677Y029355D02*
X038577Y029355D01*
X038584Y029362D02*
X038684Y029362D01*
X038691Y029369D02*
X038591Y029369D01*
X038598Y029376D02*
X038698Y029376D01*
X038705Y029383D02*
X038605Y029383D01*
X038612Y029390D02*
X038712Y029390D01*
X038719Y029397D02*
X038619Y029397D01*
X038626Y029404D02*
X038726Y029404D01*
X038731Y029411D02*
X038633Y029411D01*
X038640Y029418D02*
X038724Y029418D01*
X038717Y029425D02*
X038647Y029425D01*
X038654Y029432D02*
X038710Y029432D01*
X038703Y029439D02*
X038661Y029439D01*
X038668Y029446D02*
X038696Y029446D01*
X038689Y029453D02*
X038675Y029453D01*
X038682Y029460D02*
X038682Y029460D01*
X038621Y029521D02*
X038571Y029571D01*
X038621Y029521D02*
X038461Y029361D01*
X038411Y029411D01*
X038571Y029571D01*
X038468Y029368D02*
X038454Y029368D01*
X038447Y029375D02*
X038475Y029375D01*
X038482Y029382D02*
X038440Y029382D01*
X038433Y029389D02*
X038489Y029389D01*
X038496Y029396D02*
X038426Y029396D01*
X038419Y029403D02*
X038503Y029403D01*
X038510Y029410D02*
X038412Y029410D01*
X038417Y029417D02*
X038517Y029417D01*
X038524Y029424D02*
X038424Y029424D01*
X038431Y029431D02*
X038531Y029431D01*
X038538Y029438D02*
X038438Y029438D01*
X038445Y029445D02*
X038545Y029445D01*
X038552Y029452D02*
X038452Y029452D01*
X038459Y029459D02*
X038559Y029459D01*
X038566Y029466D02*
X038466Y029466D01*
X038473Y029473D02*
X038573Y029473D01*
X038580Y029480D02*
X038480Y029480D01*
X038487Y029487D02*
X038587Y029487D01*
X038594Y029494D02*
X038494Y029494D01*
X038501Y029501D02*
X038601Y029501D01*
X038608Y029508D02*
X038508Y029508D01*
X038515Y029515D02*
X038615Y029515D01*
X038620Y029522D02*
X038522Y029522D01*
X038529Y029529D02*
X038613Y029529D01*
X038606Y029536D02*
X038536Y029536D01*
X038543Y029543D02*
X038599Y029543D01*
X038592Y029550D02*
X038550Y029550D01*
X038557Y029557D02*
X038585Y029557D01*
X038578Y029564D02*
X038564Y029564D01*
X038571Y029571D02*
X038571Y029571D01*
X038509Y029633D02*
X038459Y029683D01*
X038509Y029633D02*
X038349Y029473D01*
X038299Y029523D01*
X038459Y029683D01*
X038356Y029480D02*
X038342Y029480D01*
X038335Y029487D02*
X038363Y029487D01*
X038370Y029494D02*
X038328Y029494D01*
X038321Y029501D02*
X038377Y029501D01*
X038384Y029508D02*
X038314Y029508D01*
X038307Y029515D02*
X038391Y029515D01*
X038398Y029522D02*
X038300Y029522D01*
X038305Y029529D02*
X038405Y029529D01*
X038412Y029536D02*
X038312Y029536D01*
X038319Y029543D02*
X038419Y029543D01*
X038426Y029550D02*
X038326Y029550D01*
X038333Y029557D02*
X038433Y029557D01*
X038440Y029564D02*
X038340Y029564D01*
X038347Y029571D02*
X038447Y029571D01*
X038454Y029578D02*
X038354Y029578D01*
X038361Y029585D02*
X038461Y029585D01*
X038468Y029592D02*
X038368Y029592D01*
X038375Y029599D02*
X038475Y029599D01*
X038482Y029606D02*
X038382Y029606D01*
X038389Y029613D02*
X038489Y029613D01*
X038496Y029620D02*
X038396Y029620D01*
X038403Y029627D02*
X038503Y029627D01*
X038508Y029634D02*
X038410Y029634D01*
X038417Y029641D02*
X038501Y029641D01*
X038494Y029648D02*
X038424Y029648D01*
X038431Y029655D02*
X038487Y029655D01*
X038480Y029662D02*
X038438Y029662D01*
X038445Y029669D02*
X038473Y029669D01*
X038466Y029676D02*
X038452Y029676D01*
X038459Y029683D02*
X038459Y029683D01*
X038398Y029744D02*
X038348Y029794D01*
X038398Y029744D02*
X038238Y029584D01*
X038188Y029634D01*
X038348Y029794D01*
X038245Y029591D02*
X038231Y029591D01*
X038224Y029598D02*
X038252Y029598D01*
X038259Y029605D02*
X038217Y029605D01*
X038210Y029612D02*
X038266Y029612D01*
X038273Y029619D02*
X038203Y029619D01*
X038196Y029626D02*
X038280Y029626D01*
X038287Y029633D02*
X038189Y029633D01*
X038194Y029640D02*
X038294Y029640D01*
X038301Y029647D02*
X038201Y029647D01*
X038208Y029654D02*
X038308Y029654D01*
X038315Y029661D02*
X038215Y029661D01*
X038222Y029668D02*
X038322Y029668D01*
X038329Y029675D02*
X038229Y029675D01*
X038236Y029682D02*
X038336Y029682D01*
X038343Y029689D02*
X038243Y029689D01*
X038250Y029696D02*
X038350Y029696D01*
X038357Y029703D02*
X038257Y029703D01*
X038264Y029710D02*
X038364Y029710D01*
X038371Y029717D02*
X038271Y029717D01*
X038278Y029724D02*
X038378Y029724D01*
X038385Y029731D02*
X038285Y029731D01*
X038292Y029738D02*
X038392Y029738D01*
X038397Y029745D02*
X038299Y029745D01*
X038306Y029752D02*
X038390Y029752D01*
X038383Y029759D02*
X038313Y029759D01*
X038320Y029766D02*
X038376Y029766D01*
X038369Y029773D02*
X038327Y029773D01*
X038334Y029780D02*
X038362Y029780D01*
X038355Y029787D02*
X038341Y029787D01*
X038348Y029794D02*
X038348Y029794D01*
X038287Y029856D02*
X038237Y029906D01*
X038287Y029856D02*
X038127Y029696D01*
X038077Y029746D01*
X038237Y029906D01*
X038134Y029703D02*
X038120Y029703D01*
X038113Y029710D02*
X038141Y029710D01*
X038148Y029717D02*
X038106Y029717D01*
X038099Y029724D02*
X038155Y029724D01*
X038162Y029731D02*
X038092Y029731D01*
X038085Y029738D02*
X038169Y029738D01*
X038176Y029745D02*
X038078Y029745D01*
X038083Y029752D02*
X038183Y029752D01*
X038190Y029759D02*
X038090Y029759D01*
X038097Y029766D02*
X038197Y029766D01*
X038204Y029773D02*
X038104Y029773D01*
X038111Y029780D02*
X038211Y029780D01*
X038218Y029787D02*
X038118Y029787D01*
X038125Y029794D02*
X038225Y029794D01*
X038232Y029801D02*
X038132Y029801D01*
X038139Y029808D02*
X038239Y029808D01*
X038246Y029815D02*
X038146Y029815D01*
X038153Y029822D02*
X038253Y029822D01*
X038260Y029829D02*
X038160Y029829D01*
X038167Y029836D02*
X038267Y029836D01*
X038274Y029843D02*
X038174Y029843D01*
X038181Y029850D02*
X038281Y029850D01*
X038286Y029857D02*
X038188Y029857D01*
X038195Y029864D02*
X038279Y029864D01*
X038272Y029871D02*
X038202Y029871D01*
X038209Y029878D02*
X038265Y029878D01*
X038258Y029885D02*
X038216Y029885D01*
X038223Y029892D02*
X038251Y029892D01*
X038244Y029899D02*
X038230Y029899D01*
X038237Y029906D02*
X038237Y029906D01*
X038237Y030085D02*
X038287Y030135D01*
X038237Y030085D02*
X038077Y030245D01*
X038127Y030295D01*
X038287Y030135D01*
X038244Y030092D02*
X038230Y030092D01*
X038223Y030099D02*
X038251Y030099D01*
X038258Y030106D02*
X038216Y030106D01*
X038209Y030113D02*
X038265Y030113D01*
X038272Y030120D02*
X038202Y030120D01*
X038195Y030127D02*
X038279Y030127D01*
X038286Y030134D02*
X038188Y030134D01*
X038181Y030141D02*
X038281Y030141D01*
X038274Y030148D02*
X038174Y030148D01*
X038167Y030155D02*
X038267Y030155D01*
X038260Y030162D02*
X038160Y030162D01*
X038153Y030169D02*
X038253Y030169D01*
X038246Y030176D02*
X038146Y030176D01*
X038139Y030183D02*
X038239Y030183D01*
X038232Y030190D02*
X038132Y030190D01*
X038125Y030197D02*
X038225Y030197D01*
X038218Y030204D02*
X038118Y030204D01*
X038111Y030211D02*
X038211Y030211D01*
X038204Y030218D02*
X038104Y030218D01*
X038097Y030225D02*
X038197Y030225D01*
X038190Y030232D02*
X038090Y030232D01*
X038083Y030239D02*
X038183Y030239D01*
X038176Y030246D02*
X038078Y030246D01*
X038085Y030253D02*
X038169Y030253D01*
X038162Y030260D02*
X038092Y030260D01*
X038099Y030267D02*
X038155Y030267D01*
X038148Y030274D02*
X038106Y030274D01*
X038113Y030281D02*
X038141Y030281D01*
X038134Y030288D02*
X038120Y030288D01*
X038127Y030295D02*
X038127Y030295D01*
X038348Y030197D02*
X038398Y030247D01*
X038348Y030197D02*
X038188Y030357D01*
X038238Y030407D01*
X038398Y030247D01*
X038355Y030204D02*
X038341Y030204D01*
X038334Y030211D02*
X038362Y030211D01*
X038369Y030218D02*
X038327Y030218D01*
X038320Y030225D02*
X038376Y030225D01*
X038383Y030232D02*
X038313Y030232D01*
X038306Y030239D02*
X038390Y030239D01*
X038397Y030246D02*
X038299Y030246D01*
X038292Y030253D02*
X038392Y030253D01*
X038385Y030260D02*
X038285Y030260D01*
X038278Y030267D02*
X038378Y030267D01*
X038371Y030274D02*
X038271Y030274D01*
X038264Y030281D02*
X038364Y030281D01*
X038357Y030288D02*
X038257Y030288D01*
X038250Y030295D02*
X038350Y030295D01*
X038343Y030302D02*
X038243Y030302D01*
X038236Y030309D02*
X038336Y030309D01*
X038329Y030316D02*
X038229Y030316D01*
X038222Y030323D02*
X038322Y030323D01*
X038315Y030330D02*
X038215Y030330D01*
X038208Y030337D02*
X038308Y030337D01*
X038301Y030344D02*
X038201Y030344D01*
X038194Y030351D02*
X038294Y030351D01*
X038287Y030358D02*
X038189Y030358D01*
X038196Y030365D02*
X038280Y030365D01*
X038273Y030372D02*
X038203Y030372D01*
X038210Y030379D02*
X038266Y030379D01*
X038259Y030386D02*
X038217Y030386D01*
X038224Y030393D02*
X038252Y030393D01*
X038245Y030400D02*
X038231Y030400D01*
X038238Y030407D02*
X038238Y030407D01*
X038459Y030308D02*
X038509Y030358D01*
X038459Y030308D02*
X038299Y030468D01*
X038349Y030518D01*
X038509Y030358D01*
X038466Y030315D02*
X038452Y030315D01*
X038445Y030322D02*
X038473Y030322D01*
X038480Y030329D02*
X038438Y030329D01*
X038431Y030336D02*
X038487Y030336D01*
X038494Y030343D02*
X038424Y030343D01*
X038417Y030350D02*
X038501Y030350D01*
X038508Y030357D02*
X038410Y030357D01*
X038403Y030364D02*
X038503Y030364D01*
X038496Y030371D02*
X038396Y030371D01*
X038389Y030378D02*
X038489Y030378D01*
X038482Y030385D02*
X038382Y030385D01*
X038375Y030392D02*
X038475Y030392D01*
X038468Y030399D02*
X038368Y030399D01*
X038361Y030406D02*
X038461Y030406D01*
X038454Y030413D02*
X038354Y030413D01*
X038347Y030420D02*
X038447Y030420D01*
X038440Y030427D02*
X038340Y030427D01*
X038333Y030434D02*
X038433Y030434D01*
X038426Y030441D02*
X038326Y030441D01*
X038319Y030448D02*
X038419Y030448D01*
X038412Y030455D02*
X038312Y030455D01*
X038305Y030462D02*
X038405Y030462D01*
X038398Y030469D02*
X038300Y030469D01*
X038307Y030476D02*
X038391Y030476D01*
X038384Y030483D02*
X038314Y030483D01*
X038321Y030490D02*
X038377Y030490D01*
X038370Y030497D02*
X038328Y030497D01*
X038335Y030504D02*
X038363Y030504D01*
X038356Y030511D02*
X038342Y030511D01*
X038349Y030518D02*
X038349Y030518D01*
X038571Y030419D02*
X038621Y030469D01*
X038571Y030419D02*
X038411Y030579D01*
X038461Y030629D01*
X038621Y030469D01*
X038578Y030426D02*
X038564Y030426D01*
X038557Y030433D02*
X038585Y030433D01*
X038592Y030440D02*
X038550Y030440D01*
X038543Y030447D02*
X038599Y030447D01*
X038606Y030454D02*
X038536Y030454D01*
X038529Y030461D02*
X038613Y030461D01*
X038620Y030468D02*
X038522Y030468D01*
X038515Y030475D02*
X038615Y030475D01*
X038608Y030482D02*
X038508Y030482D01*
X038501Y030489D02*
X038601Y030489D01*
X038594Y030496D02*
X038494Y030496D01*
X038487Y030503D02*
X038587Y030503D01*
X038580Y030510D02*
X038480Y030510D01*
X038473Y030517D02*
X038573Y030517D01*
X038566Y030524D02*
X038466Y030524D01*
X038459Y030531D02*
X038559Y030531D01*
X038552Y030538D02*
X038452Y030538D01*
X038445Y030545D02*
X038545Y030545D01*
X038538Y030552D02*
X038438Y030552D01*
X038431Y030559D02*
X038531Y030559D01*
X038524Y030566D02*
X038424Y030566D01*
X038417Y030573D02*
X038517Y030573D01*
X038510Y030580D02*
X038412Y030580D01*
X038419Y030587D02*
X038503Y030587D01*
X038496Y030594D02*
X038426Y030594D01*
X038433Y030601D02*
X038489Y030601D01*
X038482Y030608D02*
X038440Y030608D01*
X038447Y030615D02*
X038475Y030615D01*
X038468Y030622D02*
X038454Y030622D01*
X038461Y030629D02*
X038461Y030629D01*
X038682Y030531D02*
X038732Y030581D01*
X038682Y030531D02*
X038522Y030691D01*
X038572Y030741D01*
X038732Y030581D01*
X038689Y030538D02*
X038675Y030538D01*
X038668Y030545D02*
X038696Y030545D01*
X038703Y030552D02*
X038661Y030552D01*
X038654Y030559D02*
X038710Y030559D01*
X038717Y030566D02*
X038647Y030566D01*
X038640Y030573D02*
X038724Y030573D01*
X038731Y030580D02*
X038633Y030580D01*
X038626Y030587D02*
X038726Y030587D01*
X038719Y030594D02*
X038619Y030594D01*
X038612Y030601D02*
X038712Y030601D01*
X038705Y030608D02*
X038605Y030608D01*
X038598Y030615D02*
X038698Y030615D01*
X038691Y030622D02*
X038591Y030622D01*
X038584Y030629D02*
X038684Y030629D01*
X038677Y030636D02*
X038577Y030636D01*
X038570Y030643D02*
X038670Y030643D01*
X038663Y030650D02*
X038563Y030650D01*
X038556Y030657D02*
X038656Y030657D01*
X038649Y030664D02*
X038549Y030664D01*
X038542Y030671D02*
X038642Y030671D01*
X038635Y030678D02*
X038535Y030678D01*
X038528Y030685D02*
X038628Y030685D01*
X038621Y030692D02*
X038523Y030692D01*
X038530Y030699D02*
X038614Y030699D01*
X038607Y030706D02*
X038537Y030706D01*
X038544Y030713D02*
X038600Y030713D01*
X038593Y030720D02*
X038551Y030720D01*
X038558Y030727D02*
X038586Y030727D01*
X038579Y030734D02*
X038565Y030734D01*
X038572Y030741D02*
X038572Y030741D01*
X038793Y030642D02*
X038843Y030692D01*
X038793Y030642D02*
X038633Y030802D01*
X038683Y030852D01*
X038843Y030692D01*
X038800Y030649D02*
X038786Y030649D01*
X038779Y030656D02*
X038807Y030656D01*
X038814Y030663D02*
X038772Y030663D01*
X038765Y030670D02*
X038821Y030670D01*
X038828Y030677D02*
X038758Y030677D01*
X038751Y030684D02*
X038835Y030684D01*
X038842Y030691D02*
X038744Y030691D01*
X038737Y030698D02*
X038837Y030698D01*
X038830Y030705D02*
X038730Y030705D01*
X038723Y030712D02*
X038823Y030712D01*
X038816Y030719D02*
X038716Y030719D01*
X038709Y030726D02*
X038809Y030726D01*
X038802Y030733D02*
X038702Y030733D01*
X038695Y030740D02*
X038795Y030740D01*
X038788Y030747D02*
X038688Y030747D01*
X038681Y030754D02*
X038781Y030754D01*
X038774Y030761D02*
X038674Y030761D01*
X038667Y030768D02*
X038767Y030768D01*
X038760Y030775D02*
X038660Y030775D01*
X038653Y030782D02*
X038753Y030782D01*
X038746Y030789D02*
X038646Y030789D01*
X038639Y030796D02*
X038739Y030796D01*
X038732Y030803D02*
X038634Y030803D01*
X038641Y030810D02*
X038725Y030810D01*
X038718Y030817D02*
X038648Y030817D01*
X038655Y030824D02*
X038711Y030824D01*
X038704Y030831D02*
X038662Y030831D01*
X038669Y030838D02*
X038697Y030838D01*
X038690Y030845D02*
X038676Y030845D01*
X038683Y030852D02*
X038683Y030852D01*
X038905Y030753D02*
X038955Y030803D01*
X038905Y030753D02*
X038745Y030913D01*
X038795Y030963D01*
X038955Y030803D01*
X038912Y030760D02*
X038898Y030760D01*
X038891Y030767D02*
X038919Y030767D01*
X038926Y030774D02*
X038884Y030774D01*
X038877Y030781D02*
X038933Y030781D01*
X038940Y030788D02*
X038870Y030788D01*
X038863Y030795D02*
X038947Y030795D01*
X038954Y030802D02*
X038856Y030802D01*
X038849Y030809D02*
X038949Y030809D01*
X038942Y030816D02*
X038842Y030816D01*
X038835Y030823D02*
X038935Y030823D01*
X038928Y030830D02*
X038828Y030830D01*
X038821Y030837D02*
X038921Y030837D01*
X038914Y030844D02*
X038814Y030844D01*
X038807Y030851D02*
X038907Y030851D01*
X038900Y030858D02*
X038800Y030858D01*
X038793Y030865D02*
X038893Y030865D01*
X038886Y030872D02*
X038786Y030872D01*
X038779Y030879D02*
X038879Y030879D01*
X038872Y030886D02*
X038772Y030886D01*
X038765Y030893D02*
X038865Y030893D01*
X038858Y030900D02*
X038758Y030900D01*
X038751Y030907D02*
X038851Y030907D01*
X038844Y030914D02*
X038746Y030914D01*
X038753Y030921D02*
X038837Y030921D01*
X038830Y030928D02*
X038760Y030928D01*
X038767Y030935D02*
X038823Y030935D01*
X038816Y030942D02*
X038774Y030942D01*
X038781Y030949D02*
X038809Y030949D01*
X038802Y030956D02*
X038788Y030956D01*
X038795Y030963D02*
X038795Y030963D01*
X039016Y030865D02*
X039066Y030915D01*
X039016Y030865D02*
X038856Y031025D01*
X038906Y031075D01*
X039066Y030915D01*
X039023Y030872D02*
X039009Y030872D01*
X039002Y030879D02*
X039030Y030879D01*
X039037Y030886D02*
X038995Y030886D01*
X038988Y030893D02*
X039044Y030893D01*
X039051Y030900D02*
X038981Y030900D01*
X038974Y030907D02*
X039058Y030907D01*
X039065Y030914D02*
X038967Y030914D01*
X038960Y030921D02*
X039060Y030921D01*
X039053Y030928D02*
X038953Y030928D01*
X038946Y030935D02*
X039046Y030935D01*
X039039Y030942D02*
X038939Y030942D01*
X038932Y030949D02*
X039032Y030949D01*
X039025Y030956D02*
X038925Y030956D01*
X038918Y030963D02*
X039018Y030963D01*
X039011Y030970D02*
X038911Y030970D01*
X038904Y030977D02*
X039004Y030977D01*
X038997Y030984D02*
X038897Y030984D01*
X038890Y030991D02*
X038990Y030991D01*
X038983Y030998D02*
X038883Y030998D01*
X038876Y031005D02*
X038976Y031005D01*
X038969Y031012D02*
X038869Y031012D01*
X038862Y031019D02*
X038962Y031019D01*
X038955Y031026D02*
X038857Y031026D01*
X038864Y031033D02*
X038948Y031033D01*
X038941Y031040D02*
X038871Y031040D01*
X038878Y031047D02*
X038934Y031047D01*
X038927Y031054D02*
X038885Y031054D01*
X038892Y031061D02*
X038920Y031061D01*
X038913Y031068D02*
X038899Y031068D01*
X038906Y031075D02*
X038906Y031075D01*
X039127Y030976D02*
X039177Y031026D01*
X039127Y030976D02*
X038967Y031136D01*
X039017Y031186D01*
X039177Y031026D01*
X039134Y030983D02*
X039120Y030983D01*
X039113Y030990D02*
X039141Y030990D01*
X039148Y030997D02*
X039106Y030997D01*
X039099Y031004D02*
X039155Y031004D01*
X039162Y031011D02*
X039092Y031011D01*
X039085Y031018D02*
X039169Y031018D01*
X039176Y031025D02*
X039078Y031025D01*
X039071Y031032D02*
X039171Y031032D01*
X039164Y031039D02*
X039064Y031039D01*
X039057Y031046D02*
X039157Y031046D01*
X039150Y031053D02*
X039050Y031053D01*
X039043Y031060D02*
X039143Y031060D01*
X039136Y031067D02*
X039036Y031067D01*
X039029Y031074D02*
X039129Y031074D01*
X039122Y031081D02*
X039022Y031081D01*
X039015Y031088D02*
X039115Y031088D01*
X039108Y031095D02*
X039008Y031095D01*
X039001Y031102D02*
X039101Y031102D01*
X039094Y031109D02*
X038994Y031109D01*
X038987Y031116D02*
X039087Y031116D01*
X039080Y031123D02*
X038980Y031123D01*
X038973Y031130D02*
X039073Y031130D01*
X039066Y031137D02*
X038968Y031137D01*
X038975Y031144D02*
X039059Y031144D01*
X039052Y031151D02*
X038982Y031151D01*
X038989Y031158D02*
X039045Y031158D01*
X039038Y031165D02*
X038996Y031165D01*
X039003Y031172D02*
X039031Y031172D01*
X039024Y031179D02*
X039010Y031179D01*
X039017Y031186D02*
X039017Y031186D01*
X039239Y031087D02*
X039289Y031137D01*
X039239Y031087D02*
X039079Y031247D01*
X039129Y031297D01*
X039289Y031137D01*
X039246Y031094D02*
X039232Y031094D01*
X039225Y031101D02*
X039253Y031101D01*
X039260Y031108D02*
X039218Y031108D01*
X039211Y031115D02*
X039267Y031115D01*
X039274Y031122D02*
X039204Y031122D01*
X039197Y031129D02*
X039281Y031129D01*
X039288Y031136D02*
X039190Y031136D01*
X039183Y031143D02*
X039283Y031143D01*
X039276Y031150D02*
X039176Y031150D01*
X039169Y031157D02*
X039269Y031157D01*
X039262Y031164D02*
X039162Y031164D01*
X039155Y031171D02*
X039255Y031171D01*
X039248Y031178D02*
X039148Y031178D01*
X039141Y031185D02*
X039241Y031185D01*
X039234Y031192D02*
X039134Y031192D01*
X039127Y031199D02*
X039227Y031199D01*
X039220Y031206D02*
X039120Y031206D01*
X039113Y031213D02*
X039213Y031213D01*
X039206Y031220D02*
X039106Y031220D01*
X039099Y031227D02*
X039199Y031227D01*
X039192Y031234D02*
X039092Y031234D01*
X039085Y031241D02*
X039185Y031241D01*
X039178Y031248D02*
X039080Y031248D01*
X039087Y031255D02*
X039171Y031255D01*
X039164Y031262D02*
X039094Y031262D01*
X039101Y031269D02*
X039157Y031269D01*
X039150Y031276D02*
X039108Y031276D01*
X039115Y031283D02*
X039143Y031283D01*
X039136Y031290D02*
X039122Y031290D01*
X039129Y031297D02*
X039129Y031297D01*
X039350Y031199D02*
X039400Y031249D01*
X039350Y031199D02*
X039190Y031359D01*
X039240Y031409D01*
X039400Y031249D01*
X039357Y031206D02*
X039343Y031206D01*
X039336Y031213D02*
X039364Y031213D01*
X039371Y031220D02*
X039329Y031220D01*
X039322Y031227D02*
X039378Y031227D01*
X039385Y031234D02*
X039315Y031234D01*
X039308Y031241D02*
X039392Y031241D01*
X039399Y031248D02*
X039301Y031248D01*
X039294Y031255D02*
X039394Y031255D01*
X039387Y031262D02*
X039287Y031262D01*
X039280Y031269D02*
X039380Y031269D01*
X039373Y031276D02*
X039273Y031276D01*
X039266Y031283D02*
X039366Y031283D01*
X039359Y031290D02*
X039259Y031290D01*
X039252Y031297D02*
X039352Y031297D01*
X039345Y031304D02*
X039245Y031304D01*
X039238Y031311D02*
X039338Y031311D01*
X039331Y031318D02*
X039231Y031318D01*
X039224Y031325D02*
X039324Y031325D01*
X039317Y031332D02*
X039217Y031332D01*
X039210Y031339D02*
X039310Y031339D01*
X039303Y031346D02*
X039203Y031346D01*
X039196Y031353D02*
X039296Y031353D01*
X039289Y031360D02*
X039191Y031360D01*
X039198Y031367D02*
X039282Y031367D01*
X039275Y031374D02*
X039205Y031374D01*
X039212Y031381D02*
X039268Y031381D01*
X039261Y031388D02*
X039219Y031388D01*
X039226Y031395D02*
X039254Y031395D01*
X039247Y031402D02*
X039233Y031402D01*
X039240Y031409D02*
X039240Y031409D01*
X039461Y031310D02*
X039511Y031360D01*
X039461Y031310D02*
X039301Y031470D01*
X039351Y031520D01*
X039511Y031360D01*
X039468Y031317D02*
X039454Y031317D01*
X039447Y031324D02*
X039475Y031324D01*
X039482Y031331D02*
X039440Y031331D01*
X039433Y031338D02*
X039489Y031338D01*
X039496Y031345D02*
X039426Y031345D01*
X039419Y031352D02*
X039503Y031352D01*
X039510Y031359D02*
X039412Y031359D01*
X039405Y031366D02*
X039505Y031366D01*
X039498Y031373D02*
X039398Y031373D01*
X039391Y031380D02*
X039491Y031380D01*
X039484Y031387D02*
X039384Y031387D01*
X039377Y031394D02*
X039477Y031394D01*
X039470Y031401D02*
X039370Y031401D01*
X039363Y031408D02*
X039463Y031408D01*
X039456Y031415D02*
X039356Y031415D01*
X039349Y031422D02*
X039449Y031422D01*
X039442Y031429D02*
X039342Y031429D01*
X039335Y031436D02*
X039435Y031436D01*
X039428Y031443D02*
X039328Y031443D01*
X039321Y031450D02*
X039421Y031450D01*
X039414Y031457D02*
X039314Y031457D01*
X039307Y031464D02*
X039407Y031464D01*
X039400Y031471D02*
X039302Y031471D01*
X039309Y031478D02*
X039393Y031478D01*
X039386Y031485D02*
X039316Y031485D01*
X039323Y031492D02*
X039379Y031492D01*
X039372Y031499D02*
X039330Y031499D01*
X039337Y031506D02*
X039365Y031506D01*
X039358Y031513D02*
X039344Y031513D01*
X039351Y031520D02*
X039351Y031520D01*
X039573Y031422D02*
X039623Y031472D01*
X039573Y031422D02*
X039413Y031582D01*
X039463Y031632D01*
X039623Y031472D01*
X039580Y031429D02*
X039566Y031429D01*
X039559Y031436D02*
X039587Y031436D01*
X039594Y031443D02*
X039552Y031443D01*
X039545Y031450D02*
X039601Y031450D01*
X039608Y031457D02*
X039538Y031457D01*
X039531Y031464D02*
X039615Y031464D01*
X039622Y031471D02*
X039524Y031471D01*
X039517Y031478D02*
X039617Y031478D01*
X039610Y031485D02*
X039510Y031485D01*
X039503Y031492D02*
X039603Y031492D01*
X039596Y031499D02*
X039496Y031499D01*
X039489Y031506D02*
X039589Y031506D01*
X039582Y031513D02*
X039482Y031513D01*
X039475Y031520D02*
X039575Y031520D01*
X039568Y031527D02*
X039468Y031527D01*
X039461Y031534D02*
X039561Y031534D01*
X039554Y031541D02*
X039454Y031541D01*
X039447Y031548D02*
X039547Y031548D01*
X039540Y031555D02*
X039440Y031555D01*
X039433Y031562D02*
X039533Y031562D01*
X039526Y031569D02*
X039426Y031569D01*
X039419Y031576D02*
X039519Y031576D01*
X039512Y031583D02*
X039414Y031583D01*
X039421Y031590D02*
X039505Y031590D01*
X039498Y031597D02*
X039428Y031597D01*
X039435Y031604D02*
X039491Y031604D01*
X039484Y031611D02*
X039442Y031611D01*
X039449Y031618D02*
X039477Y031618D01*
X039470Y031625D02*
X039456Y031625D01*
X039463Y031632D02*
X039463Y031632D01*
X039684Y031533D02*
X039734Y031583D01*
X039684Y031533D02*
X039524Y031693D01*
X039574Y031743D01*
X039734Y031583D01*
X039691Y031540D02*
X039677Y031540D01*
X039670Y031547D02*
X039698Y031547D01*
X039705Y031554D02*
X039663Y031554D01*
X039656Y031561D02*
X039712Y031561D01*
X039719Y031568D02*
X039649Y031568D01*
X039642Y031575D02*
X039726Y031575D01*
X039733Y031582D02*
X039635Y031582D01*
X039628Y031589D02*
X039728Y031589D01*
X039721Y031596D02*
X039621Y031596D01*
X039614Y031603D02*
X039714Y031603D01*
X039707Y031610D02*
X039607Y031610D01*
X039600Y031617D02*
X039700Y031617D01*
X039693Y031624D02*
X039593Y031624D01*
X039586Y031631D02*
X039686Y031631D01*
X039679Y031638D02*
X039579Y031638D01*
X039572Y031645D02*
X039672Y031645D01*
X039665Y031652D02*
X039565Y031652D01*
X039558Y031659D02*
X039658Y031659D01*
X039651Y031666D02*
X039551Y031666D01*
X039544Y031673D02*
X039644Y031673D01*
X039637Y031680D02*
X039537Y031680D01*
X039530Y031687D02*
X039630Y031687D01*
X039623Y031694D02*
X039525Y031694D01*
X039532Y031701D02*
X039616Y031701D01*
X039609Y031708D02*
X039539Y031708D01*
X039546Y031715D02*
X039602Y031715D01*
X039595Y031722D02*
X039553Y031722D01*
X039560Y031729D02*
X039588Y031729D01*
X039581Y031736D02*
X039567Y031736D01*
X039574Y031743D02*
X039574Y031743D01*
X039796Y031644D02*
X039846Y031694D01*
X039796Y031644D02*
X039636Y031804D01*
X039686Y031854D01*
X039846Y031694D01*
X039803Y031651D02*
X039789Y031651D01*
X039782Y031658D02*
X039810Y031658D01*
X039817Y031665D02*
X039775Y031665D01*
X039768Y031672D02*
X039824Y031672D01*
X039831Y031679D02*
X039761Y031679D01*
X039754Y031686D02*
X039838Y031686D01*
X039845Y031693D02*
X039747Y031693D01*
X039740Y031700D02*
X039840Y031700D01*
X039833Y031707D02*
X039733Y031707D01*
X039726Y031714D02*
X039826Y031714D01*
X039819Y031721D02*
X039719Y031721D01*
X039712Y031728D02*
X039812Y031728D01*
X039805Y031735D02*
X039705Y031735D01*
X039698Y031742D02*
X039798Y031742D01*
X039791Y031749D02*
X039691Y031749D01*
X039684Y031756D02*
X039784Y031756D01*
X039777Y031763D02*
X039677Y031763D01*
X039670Y031770D02*
X039770Y031770D01*
X039763Y031777D02*
X039663Y031777D01*
X039656Y031784D02*
X039756Y031784D01*
X039749Y031791D02*
X039649Y031791D01*
X039642Y031798D02*
X039742Y031798D01*
X039735Y031805D02*
X039637Y031805D01*
X039644Y031812D02*
X039728Y031812D01*
X039721Y031819D02*
X039651Y031819D01*
X039658Y031826D02*
X039714Y031826D01*
X039707Y031833D02*
X039665Y031833D01*
X039672Y031840D02*
X039700Y031840D01*
X039693Y031847D02*
X039679Y031847D01*
X039686Y031854D02*
X039686Y031854D01*
X039907Y031756D02*
X039957Y031806D01*
X039907Y031756D02*
X039747Y031916D01*
X039797Y031966D01*
X039957Y031806D01*
X039914Y031763D02*
X039900Y031763D01*
X039893Y031770D02*
X039921Y031770D01*
X039928Y031777D02*
X039886Y031777D01*
X039879Y031784D02*
X039935Y031784D01*
X039942Y031791D02*
X039872Y031791D01*
X039865Y031798D02*
X039949Y031798D01*
X039956Y031805D02*
X039858Y031805D01*
X039851Y031812D02*
X039951Y031812D01*
X039944Y031819D02*
X039844Y031819D01*
X039837Y031826D02*
X039937Y031826D01*
X039930Y031833D02*
X039830Y031833D01*
X039823Y031840D02*
X039923Y031840D01*
X039916Y031847D02*
X039816Y031847D01*
X039809Y031854D02*
X039909Y031854D01*
X039902Y031861D02*
X039802Y031861D01*
X039795Y031868D02*
X039895Y031868D01*
X039888Y031875D02*
X039788Y031875D01*
X039781Y031882D02*
X039881Y031882D01*
X039874Y031889D02*
X039774Y031889D01*
X039767Y031896D02*
X039867Y031896D01*
X039860Y031903D02*
X039760Y031903D01*
X039753Y031910D02*
X039853Y031910D01*
X039846Y031917D02*
X039748Y031917D01*
X039755Y031924D02*
X039839Y031924D01*
X039832Y031931D02*
X039762Y031931D01*
X039769Y031938D02*
X039825Y031938D01*
X039818Y031945D02*
X039776Y031945D01*
X039783Y031952D02*
X039811Y031952D01*
X039804Y031959D02*
X039790Y031959D01*
X039797Y031966D02*
X039797Y031966D01*
X040018Y031867D02*
X040068Y031917D01*
X040018Y031867D02*
X039858Y032027D01*
X039908Y032077D01*
X040068Y031917D01*
X040025Y031874D02*
X040011Y031874D01*
X040004Y031881D02*
X040032Y031881D01*
X040039Y031888D02*
X039997Y031888D01*
X039990Y031895D02*
X040046Y031895D01*
X040053Y031902D02*
X039983Y031902D01*
X039976Y031909D02*
X040060Y031909D01*
X040067Y031916D02*
X039969Y031916D01*
X039962Y031923D02*
X040062Y031923D01*
X040055Y031930D02*
X039955Y031930D01*
X039948Y031937D02*
X040048Y031937D01*
X040041Y031944D02*
X039941Y031944D01*
X039934Y031951D02*
X040034Y031951D01*
X040027Y031958D02*
X039927Y031958D01*
X039920Y031965D02*
X040020Y031965D01*
X040013Y031972D02*
X039913Y031972D01*
X039906Y031979D02*
X040006Y031979D01*
X039999Y031986D02*
X039899Y031986D01*
X039892Y031993D02*
X039992Y031993D01*
X039985Y032000D02*
X039885Y032000D01*
X039878Y032007D02*
X039978Y032007D01*
X039971Y032014D02*
X039871Y032014D01*
X039864Y032021D02*
X039964Y032021D01*
X039957Y032028D02*
X039859Y032028D01*
X039866Y032035D02*
X039950Y032035D01*
X039943Y032042D02*
X039873Y032042D01*
X039880Y032049D02*
X039936Y032049D01*
X039929Y032056D02*
X039887Y032056D01*
X039894Y032063D02*
X039922Y032063D01*
X039915Y032070D02*
X039901Y032070D01*
X039908Y032077D02*
X039908Y032077D01*
X040248Y031917D02*
X040298Y031867D01*
X040248Y031917D02*
X040408Y032077D01*
X040458Y032027D01*
X040298Y031867D01*
X040305Y031874D02*
X040291Y031874D01*
X040284Y031881D02*
X040312Y031881D01*
X040319Y031888D02*
X040277Y031888D01*
X040270Y031895D02*
X040326Y031895D01*
X040333Y031902D02*
X040263Y031902D01*
X040256Y031909D02*
X040340Y031909D01*
X040347Y031916D02*
X040249Y031916D01*
X040254Y031923D02*
X040354Y031923D01*
X040361Y031930D02*
X040261Y031930D01*
X040268Y031937D02*
X040368Y031937D01*
X040375Y031944D02*
X040275Y031944D01*
X040282Y031951D02*
X040382Y031951D01*
X040389Y031958D02*
X040289Y031958D01*
X040296Y031965D02*
X040396Y031965D01*
X040403Y031972D02*
X040303Y031972D01*
X040310Y031979D02*
X040410Y031979D01*
X040417Y031986D02*
X040317Y031986D01*
X040324Y031993D02*
X040424Y031993D01*
X040431Y032000D02*
X040331Y032000D01*
X040338Y032007D02*
X040438Y032007D01*
X040445Y032014D02*
X040345Y032014D01*
X040352Y032021D02*
X040452Y032021D01*
X040457Y032028D02*
X040359Y032028D01*
X040366Y032035D02*
X040450Y032035D01*
X040443Y032042D02*
X040373Y032042D01*
X040380Y032049D02*
X040436Y032049D01*
X040429Y032056D02*
X040387Y032056D01*
X040394Y032063D02*
X040422Y032063D01*
X040415Y032070D02*
X040401Y032070D01*
X040408Y032077D02*
X040408Y032077D01*
X040359Y031806D02*
X040409Y031756D01*
X040359Y031806D02*
X040519Y031966D01*
X040569Y031916D01*
X040409Y031756D01*
X040416Y031763D02*
X040402Y031763D01*
X040395Y031770D02*
X040423Y031770D01*
X040430Y031777D02*
X040388Y031777D01*
X040381Y031784D02*
X040437Y031784D01*
X040444Y031791D02*
X040374Y031791D01*
X040367Y031798D02*
X040451Y031798D01*
X040458Y031805D02*
X040360Y031805D01*
X040365Y031812D02*
X040465Y031812D01*
X040472Y031819D02*
X040372Y031819D01*
X040379Y031826D02*
X040479Y031826D01*
X040486Y031833D02*
X040386Y031833D01*
X040393Y031840D02*
X040493Y031840D01*
X040500Y031847D02*
X040400Y031847D01*
X040407Y031854D02*
X040507Y031854D01*
X040514Y031861D02*
X040414Y031861D01*
X040421Y031868D02*
X040521Y031868D01*
X040528Y031875D02*
X040428Y031875D01*
X040435Y031882D02*
X040535Y031882D01*
X040542Y031889D02*
X040442Y031889D01*
X040449Y031896D02*
X040549Y031896D01*
X040556Y031903D02*
X040456Y031903D01*
X040463Y031910D02*
X040563Y031910D01*
X040568Y031917D02*
X040470Y031917D01*
X040477Y031924D02*
X040561Y031924D01*
X040554Y031931D02*
X040484Y031931D01*
X040491Y031938D02*
X040547Y031938D01*
X040540Y031945D02*
X040498Y031945D01*
X040505Y031952D02*
X040533Y031952D01*
X040526Y031959D02*
X040512Y031959D01*
X040519Y031966D02*
X040519Y031966D01*
X040471Y031694D02*
X040521Y031644D01*
X040471Y031694D02*
X040631Y031854D01*
X040681Y031804D01*
X040521Y031644D01*
X040528Y031651D02*
X040514Y031651D01*
X040507Y031658D02*
X040535Y031658D01*
X040542Y031665D02*
X040500Y031665D01*
X040493Y031672D02*
X040549Y031672D01*
X040556Y031679D02*
X040486Y031679D01*
X040479Y031686D02*
X040563Y031686D01*
X040570Y031693D02*
X040472Y031693D01*
X040477Y031700D02*
X040577Y031700D01*
X040584Y031707D02*
X040484Y031707D01*
X040491Y031714D02*
X040591Y031714D01*
X040598Y031721D02*
X040498Y031721D01*
X040505Y031728D02*
X040605Y031728D01*
X040612Y031735D02*
X040512Y031735D01*
X040519Y031742D02*
X040619Y031742D01*
X040626Y031749D02*
X040526Y031749D01*
X040533Y031756D02*
X040633Y031756D01*
X040640Y031763D02*
X040540Y031763D01*
X040547Y031770D02*
X040647Y031770D01*
X040654Y031777D02*
X040554Y031777D01*
X040561Y031784D02*
X040661Y031784D01*
X040668Y031791D02*
X040568Y031791D01*
X040575Y031798D02*
X040675Y031798D01*
X040680Y031805D02*
X040582Y031805D01*
X040589Y031812D02*
X040673Y031812D01*
X040666Y031819D02*
X040596Y031819D01*
X040603Y031826D02*
X040659Y031826D01*
X040652Y031833D02*
X040610Y031833D01*
X040617Y031840D02*
X040645Y031840D01*
X040638Y031847D02*
X040624Y031847D01*
X040631Y031854D02*
X040631Y031854D01*
X040582Y031583D02*
X040632Y031533D01*
X040582Y031583D02*
X040742Y031743D01*
X040792Y031693D01*
X040632Y031533D01*
X040639Y031540D02*
X040625Y031540D01*
X040618Y031547D02*
X040646Y031547D01*
X040653Y031554D02*
X040611Y031554D01*
X040604Y031561D02*
X040660Y031561D01*
X040667Y031568D02*
X040597Y031568D01*
X040590Y031575D02*
X040674Y031575D01*
X040681Y031582D02*
X040583Y031582D01*
X040588Y031589D02*
X040688Y031589D01*
X040695Y031596D02*
X040595Y031596D01*
X040602Y031603D02*
X040702Y031603D01*
X040709Y031610D02*
X040609Y031610D01*
X040616Y031617D02*
X040716Y031617D01*
X040723Y031624D02*
X040623Y031624D01*
X040630Y031631D02*
X040730Y031631D01*
X040737Y031638D02*
X040637Y031638D01*
X040644Y031645D02*
X040744Y031645D01*
X040751Y031652D02*
X040651Y031652D01*
X040658Y031659D02*
X040758Y031659D01*
X040765Y031666D02*
X040665Y031666D01*
X040672Y031673D02*
X040772Y031673D01*
X040779Y031680D02*
X040679Y031680D01*
X040686Y031687D02*
X040786Y031687D01*
X040791Y031694D02*
X040693Y031694D01*
X040700Y031701D02*
X040784Y031701D01*
X040777Y031708D02*
X040707Y031708D01*
X040714Y031715D02*
X040770Y031715D01*
X040763Y031722D02*
X040721Y031722D01*
X040728Y031729D02*
X040756Y031729D01*
X040749Y031736D02*
X040735Y031736D01*
X040742Y031743D02*
X040742Y031743D01*
X040693Y031472D02*
X040743Y031422D01*
X040693Y031472D02*
X040853Y031632D01*
X040903Y031582D01*
X040743Y031422D01*
X040750Y031429D02*
X040736Y031429D01*
X040729Y031436D02*
X040757Y031436D01*
X040764Y031443D02*
X040722Y031443D01*
X040715Y031450D02*
X040771Y031450D01*
X040778Y031457D02*
X040708Y031457D01*
X040701Y031464D02*
X040785Y031464D01*
X040792Y031471D02*
X040694Y031471D01*
X040699Y031478D02*
X040799Y031478D01*
X040806Y031485D02*
X040706Y031485D01*
X040713Y031492D02*
X040813Y031492D01*
X040820Y031499D02*
X040720Y031499D01*
X040727Y031506D02*
X040827Y031506D01*
X040834Y031513D02*
X040734Y031513D01*
X040741Y031520D02*
X040841Y031520D01*
X040848Y031527D02*
X040748Y031527D01*
X040755Y031534D02*
X040855Y031534D01*
X040862Y031541D02*
X040762Y031541D01*
X040769Y031548D02*
X040869Y031548D01*
X040876Y031555D02*
X040776Y031555D01*
X040783Y031562D02*
X040883Y031562D01*
X040890Y031569D02*
X040790Y031569D01*
X040797Y031576D02*
X040897Y031576D01*
X040902Y031583D02*
X040804Y031583D01*
X040811Y031590D02*
X040895Y031590D01*
X040888Y031597D02*
X040818Y031597D01*
X040825Y031604D02*
X040881Y031604D01*
X040874Y031611D02*
X040832Y031611D01*
X040839Y031618D02*
X040867Y031618D01*
X040860Y031625D02*
X040846Y031625D01*
X040853Y031632D02*
X040853Y031632D01*
X040805Y031360D02*
X040855Y031310D01*
X040805Y031360D02*
X040965Y031520D01*
X041015Y031470D01*
X040855Y031310D01*
X040862Y031317D02*
X040848Y031317D01*
X040841Y031324D02*
X040869Y031324D01*
X040876Y031331D02*
X040834Y031331D01*
X040827Y031338D02*
X040883Y031338D01*
X040890Y031345D02*
X040820Y031345D01*
X040813Y031352D02*
X040897Y031352D01*
X040904Y031359D02*
X040806Y031359D01*
X040811Y031366D02*
X040911Y031366D01*
X040918Y031373D02*
X040818Y031373D01*
X040825Y031380D02*
X040925Y031380D01*
X040932Y031387D02*
X040832Y031387D01*
X040839Y031394D02*
X040939Y031394D01*
X040946Y031401D02*
X040846Y031401D01*
X040853Y031408D02*
X040953Y031408D01*
X040960Y031415D02*
X040860Y031415D01*
X040867Y031422D02*
X040967Y031422D01*
X040974Y031429D02*
X040874Y031429D01*
X040881Y031436D02*
X040981Y031436D01*
X040988Y031443D02*
X040888Y031443D01*
X040895Y031450D02*
X040995Y031450D01*
X041002Y031457D02*
X040902Y031457D01*
X040909Y031464D02*
X041009Y031464D01*
X041014Y031471D02*
X040916Y031471D01*
X040923Y031478D02*
X041007Y031478D01*
X041000Y031485D02*
X040930Y031485D01*
X040937Y031492D02*
X040993Y031492D01*
X040986Y031499D02*
X040944Y031499D01*
X040951Y031506D02*
X040979Y031506D01*
X040972Y031513D02*
X040958Y031513D01*
X040965Y031520D02*
X040965Y031520D01*
X040916Y031249D02*
X040966Y031199D01*
X040916Y031249D02*
X041076Y031409D01*
X041126Y031359D01*
X040966Y031199D01*
X040973Y031206D02*
X040959Y031206D01*
X040952Y031213D02*
X040980Y031213D01*
X040987Y031220D02*
X040945Y031220D01*
X040938Y031227D02*
X040994Y031227D01*
X041001Y031234D02*
X040931Y031234D01*
X040924Y031241D02*
X041008Y031241D01*
X041015Y031248D02*
X040917Y031248D01*
X040922Y031255D02*
X041022Y031255D01*
X041029Y031262D02*
X040929Y031262D01*
X040936Y031269D02*
X041036Y031269D01*
X041043Y031276D02*
X040943Y031276D01*
X040950Y031283D02*
X041050Y031283D01*
X041057Y031290D02*
X040957Y031290D01*
X040964Y031297D02*
X041064Y031297D01*
X041071Y031304D02*
X040971Y031304D01*
X040978Y031311D02*
X041078Y031311D01*
X041085Y031318D02*
X040985Y031318D01*
X040992Y031325D02*
X041092Y031325D01*
X041099Y031332D02*
X040999Y031332D01*
X041006Y031339D02*
X041106Y031339D01*
X041113Y031346D02*
X041013Y031346D01*
X041020Y031353D02*
X041120Y031353D01*
X041125Y031360D02*
X041027Y031360D01*
X041034Y031367D02*
X041118Y031367D01*
X041111Y031374D02*
X041041Y031374D01*
X041048Y031381D02*
X041104Y031381D01*
X041097Y031388D02*
X041055Y031388D01*
X041062Y031395D02*
X041090Y031395D01*
X041083Y031402D02*
X041069Y031402D01*
X041076Y031409D02*
X041076Y031409D01*
X041027Y031137D02*
X041077Y031087D01*
X041027Y031137D02*
X041187Y031297D01*
X041237Y031247D01*
X041077Y031087D01*
X041084Y031094D02*
X041070Y031094D01*
X041063Y031101D02*
X041091Y031101D01*
X041098Y031108D02*
X041056Y031108D01*
X041049Y031115D02*
X041105Y031115D01*
X041112Y031122D02*
X041042Y031122D01*
X041035Y031129D02*
X041119Y031129D01*
X041126Y031136D02*
X041028Y031136D01*
X041033Y031143D02*
X041133Y031143D01*
X041140Y031150D02*
X041040Y031150D01*
X041047Y031157D02*
X041147Y031157D01*
X041154Y031164D02*
X041054Y031164D01*
X041061Y031171D02*
X041161Y031171D01*
X041168Y031178D02*
X041068Y031178D01*
X041075Y031185D02*
X041175Y031185D01*
X041182Y031192D02*
X041082Y031192D01*
X041089Y031199D02*
X041189Y031199D01*
X041196Y031206D02*
X041096Y031206D01*
X041103Y031213D02*
X041203Y031213D01*
X041210Y031220D02*
X041110Y031220D01*
X041117Y031227D02*
X041217Y031227D01*
X041224Y031234D02*
X041124Y031234D01*
X041131Y031241D02*
X041231Y031241D01*
X041236Y031248D02*
X041138Y031248D01*
X041145Y031255D02*
X041229Y031255D01*
X041222Y031262D02*
X041152Y031262D01*
X041159Y031269D02*
X041215Y031269D01*
X041208Y031276D02*
X041166Y031276D01*
X041173Y031283D02*
X041201Y031283D01*
X041194Y031290D02*
X041180Y031290D01*
X041187Y031297D02*
X041187Y031297D01*
X041139Y031026D02*
X041189Y030976D01*
X041139Y031026D02*
X041299Y031186D01*
X041349Y031136D01*
X041189Y030976D01*
X041196Y030983D02*
X041182Y030983D01*
X041175Y030990D02*
X041203Y030990D01*
X041210Y030997D02*
X041168Y030997D01*
X041161Y031004D02*
X041217Y031004D01*
X041224Y031011D02*
X041154Y031011D01*
X041147Y031018D02*
X041231Y031018D01*
X041238Y031025D02*
X041140Y031025D01*
X041145Y031032D02*
X041245Y031032D01*
X041252Y031039D02*
X041152Y031039D01*
X041159Y031046D02*
X041259Y031046D01*
X041266Y031053D02*
X041166Y031053D01*
X041173Y031060D02*
X041273Y031060D01*
X041280Y031067D02*
X041180Y031067D01*
X041187Y031074D02*
X041287Y031074D01*
X041294Y031081D02*
X041194Y031081D01*
X041201Y031088D02*
X041301Y031088D01*
X041308Y031095D02*
X041208Y031095D01*
X041215Y031102D02*
X041315Y031102D01*
X041322Y031109D02*
X041222Y031109D01*
X041229Y031116D02*
X041329Y031116D01*
X041336Y031123D02*
X041236Y031123D01*
X041243Y031130D02*
X041343Y031130D01*
X041348Y031137D02*
X041250Y031137D01*
X041257Y031144D02*
X041341Y031144D01*
X041334Y031151D02*
X041264Y031151D01*
X041271Y031158D02*
X041327Y031158D01*
X041320Y031165D02*
X041278Y031165D01*
X041285Y031172D02*
X041313Y031172D01*
X041306Y031179D02*
X041292Y031179D01*
X041299Y031186D02*
X041299Y031186D01*
X041250Y030915D02*
X041300Y030865D01*
X041250Y030915D02*
X041410Y031075D01*
X041460Y031025D01*
X041300Y030865D01*
X041307Y030872D02*
X041293Y030872D01*
X041286Y030879D02*
X041314Y030879D01*
X041321Y030886D02*
X041279Y030886D01*
X041272Y030893D02*
X041328Y030893D01*
X041335Y030900D02*
X041265Y030900D01*
X041258Y030907D02*
X041342Y030907D01*
X041349Y030914D02*
X041251Y030914D01*
X041256Y030921D02*
X041356Y030921D01*
X041363Y030928D02*
X041263Y030928D01*
X041270Y030935D02*
X041370Y030935D01*
X041377Y030942D02*
X041277Y030942D01*
X041284Y030949D02*
X041384Y030949D01*
X041391Y030956D02*
X041291Y030956D01*
X041298Y030963D02*
X041398Y030963D01*
X041405Y030970D02*
X041305Y030970D01*
X041312Y030977D02*
X041412Y030977D01*
X041419Y030984D02*
X041319Y030984D01*
X041326Y030991D02*
X041426Y030991D01*
X041433Y030998D02*
X041333Y030998D01*
X041340Y031005D02*
X041440Y031005D01*
X041447Y031012D02*
X041347Y031012D01*
X041354Y031019D02*
X041454Y031019D01*
X041459Y031026D02*
X041361Y031026D01*
X041368Y031033D02*
X041452Y031033D01*
X041445Y031040D02*
X041375Y031040D01*
X041382Y031047D02*
X041438Y031047D01*
X041431Y031054D02*
X041389Y031054D01*
X041396Y031061D02*
X041424Y031061D01*
X041417Y031068D02*
X041403Y031068D01*
X041410Y031075D02*
X041410Y031075D01*
X041362Y030803D02*
X041412Y030753D01*
X041362Y030803D02*
X041522Y030963D01*
X041572Y030913D01*
X041412Y030753D01*
X041419Y030760D02*
X041405Y030760D01*
X041398Y030767D02*
X041426Y030767D01*
X041433Y030774D02*
X041391Y030774D01*
X041384Y030781D02*
X041440Y030781D01*
X041447Y030788D02*
X041377Y030788D01*
X041370Y030795D02*
X041454Y030795D01*
X041461Y030802D02*
X041363Y030802D01*
X041368Y030809D02*
X041468Y030809D01*
X041475Y030816D02*
X041375Y030816D01*
X041382Y030823D02*
X041482Y030823D01*
X041489Y030830D02*
X041389Y030830D01*
X041396Y030837D02*
X041496Y030837D01*
X041503Y030844D02*
X041403Y030844D01*
X041410Y030851D02*
X041510Y030851D01*
X041517Y030858D02*
X041417Y030858D01*
X041424Y030865D02*
X041524Y030865D01*
X041531Y030872D02*
X041431Y030872D01*
X041438Y030879D02*
X041538Y030879D01*
X041545Y030886D02*
X041445Y030886D01*
X041452Y030893D02*
X041552Y030893D01*
X041559Y030900D02*
X041459Y030900D01*
X041466Y030907D02*
X041566Y030907D01*
X041571Y030914D02*
X041473Y030914D01*
X041480Y030921D02*
X041564Y030921D01*
X041557Y030928D02*
X041487Y030928D01*
X041494Y030935D02*
X041550Y030935D01*
X041543Y030942D02*
X041501Y030942D01*
X041508Y030949D02*
X041536Y030949D01*
X041529Y030956D02*
X041515Y030956D01*
X041522Y030963D02*
X041522Y030963D01*
X041473Y030692D02*
X041523Y030642D01*
X041473Y030692D02*
X041633Y030852D01*
X041683Y030802D01*
X041523Y030642D01*
X041530Y030649D02*
X041516Y030649D01*
X041509Y030656D02*
X041537Y030656D01*
X041544Y030663D02*
X041502Y030663D01*
X041495Y030670D02*
X041551Y030670D01*
X041558Y030677D02*
X041488Y030677D01*
X041481Y030684D02*
X041565Y030684D01*
X041572Y030691D02*
X041474Y030691D01*
X041479Y030698D02*
X041579Y030698D01*
X041586Y030705D02*
X041486Y030705D01*
X041493Y030712D02*
X041593Y030712D01*
X041600Y030719D02*
X041500Y030719D01*
X041507Y030726D02*
X041607Y030726D01*
X041614Y030733D02*
X041514Y030733D01*
X041521Y030740D02*
X041621Y030740D01*
X041628Y030747D02*
X041528Y030747D01*
X041535Y030754D02*
X041635Y030754D01*
X041642Y030761D02*
X041542Y030761D01*
X041549Y030768D02*
X041649Y030768D01*
X041656Y030775D02*
X041556Y030775D01*
X041563Y030782D02*
X041663Y030782D01*
X041670Y030789D02*
X041570Y030789D01*
X041577Y030796D02*
X041677Y030796D01*
X041682Y030803D02*
X041584Y030803D01*
X041591Y030810D02*
X041675Y030810D01*
X041668Y030817D02*
X041598Y030817D01*
X041605Y030824D02*
X041661Y030824D01*
X041654Y030831D02*
X041612Y030831D01*
X041619Y030838D02*
X041647Y030838D01*
X041640Y030845D02*
X041626Y030845D01*
X041633Y030852D02*
X041633Y030852D01*
X041584Y030581D02*
X041634Y030531D01*
X041584Y030581D02*
X041744Y030741D01*
X041794Y030691D01*
X041634Y030531D01*
X041641Y030538D02*
X041627Y030538D01*
X041620Y030545D02*
X041648Y030545D01*
X041655Y030552D02*
X041613Y030552D01*
X041606Y030559D02*
X041662Y030559D01*
X041669Y030566D02*
X041599Y030566D01*
X041592Y030573D02*
X041676Y030573D01*
X041683Y030580D02*
X041585Y030580D01*
X041590Y030587D02*
X041690Y030587D01*
X041697Y030594D02*
X041597Y030594D01*
X041604Y030601D02*
X041704Y030601D01*
X041711Y030608D02*
X041611Y030608D01*
X041618Y030615D02*
X041718Y030615D01*
X041725Y030622D02*
X041625Y030622D01*
X041632Y030629D02*
X041732Y030629D01*
X041739Y030636D02*
X041639Y030636D01*
X041646Y030643D02*
X041746Y030643D01*
X041753Y030650D02*
X041653Y030650D01*
X041660Y030657D02*
X041760Y030657D01*
X041767Y030664D02*
X041667Y030664D01*
X041674Y030671D02*
X041774Y030671D01*
X041781Y030678D02*
X041681Y030678D01*
X041688Y030685D02*
X041788Y030685D01*
X041793Y030692D02*
X041695Y030692D01*
X041702Y030699D02*
X041786Y030699D01*
X041779Y030706D02*
X041709Y030706D01*
X041716Y030713D02*
X041772Y030713D01*
X041765Y030720D02*
X041723Y030720D01*
X041730Y030727D02*
X041758Y030727D01*
X041751Y030734D02*
X041737Y030734D01*
X041744Y030741D02*
X041744Y030741D01*
X041696Y030469D02*
X041746Y030419D01*
X041696Y030469D02*
X041856Y030629D01*
X041906Y030579D01*
X041746Y030419D01*
X041753Y030426D02*
X041739Y030426D01*
X041732Y030433D02*
X041760Y030433D01*
X041767Y030440D02*
X041725Y030440D01*
X041718Y030447D02*
X041774Y030447D01*
X041781Y030454D02*
X041711Y030454D01*
X041704Y030461D02*
X041788Y030461D01*
X041795Y030468D02*
X041697Y030468D01*
X041702Y030475D02*
X041802Y030475D01*
X041809Y030482D02*
X041709Y030482D01*
X041716Y030489D02*
X041816Y030489D01*
X041823Y030496D02*
X041723Y030496D01*
X041730Y030503D02*
X041830Y030503D01*
X041837Y030510D02*
X041737Y030510D01*
X041744Y030517D02*
X041844Y030517D01*
X041851Y030524D02*
X041751Y030524D01*
X041758Y030531D02*
X041858Y030531D01*
X041865Y030538D02*
X041765Y030538D01*
X041772Y030545D02*
X041872Y030545D01*
X041879Y030552D02*
X041779Y030552D01*
X041786Y030559D02*
X041886Y030559D01*
X041893Y030566D02*
X041793Y030566D01*
X041800Y030573D02*
X041900Y030573D01*
X041905Y030580D02*
X041807Y030580D01*
X041814Y030587D02*
X041898Y030587D01*
X041891Y030594D02*
X041821Y030594D01*
X041828Y030601D02*
X041884Y030601D01*
X041877Y030608D02*
X041835Y030608D01*
X041842Y030615D02*
X041870Y030615D01*
X041863Y030622D02*
X041849Y030622D01*
X041856Y030629D02*
X041856Y030629D01*
X041807Y030358D02*
X041857Y030308D01*
X041807Y030358D02*
X041967Y030518D01*
X042017Y030468D01*
X041857Y030308D01*
X041864Y030315D02*
X041850Y030315D01*
X041843Y030322D02*
X041871Y030322D01*
X041878Y030329D02*
X041836Y030329D01*
X041829Y030336D02*
X041885Y030336D01*
X041892Y030343D02*
X041822Y030343D01*
X041815Y030350D02*
X041899Y030350D01*
X041906Y030357D02*
X041808Y030357D01*
X041813Y030364D02*
X041913Y030364D01*
X041920Y030371D02*
X041820Y030371D01*
X041827Y030378D02*
X041927Y030378D01*
X041934Y030385D02*
X041834Y030385D01*
X041841Y030392D02*
X041941Y030392D01*
X041948Y030399D02*
X041848Y030399D01*
X041855Y030406D02*
X041955Y030406D01*
X041962Y030413D02*
X041862Y030413D01*
X041869Y030420D02*
X041969Y030420D01*
X041976Y030427D02*
X041876Y030427D01*
X041883Y030434D02*
X041983Y030434D01*
X041990Y030441D02*
X041890Y030441D01*
X041897Y030448D02*
X041997Y030448D01*
X042004Y030455D02*
X041904Y030455D01*
X041911Y030462D02*
X042011Y030462D01*
X042016Y030469D02*
X041918Y030469D01*
X041925Y030476D02*
X042009Y030476D01*
X042002Y030483D02*
X041932Y030483D01*
X041939Y030490D02*
X041995Y030490D01*
X041988Y030497D02*
X041946Y030497D01*
X041953Y030504D02*
X041981Y030504D01*
X041974Y030511D02*
X041960Y030511D01*
X041967Y030518D02*
X041967Y030518D01*
X041918Y030247D02*
X041968Y030197D01*
X041918Y030247D02*
X042078Y030407D01*
X042128Y030357D01*
X041968Y030197D01*
X041975Y030204D02*
X041961Y030204D01*
X041954Y030211D02*
X041982Y030211D01*
X041989Y030218D02*
X041947Y030218D01*
X041940Y030225D02*
X041996Y030225D01*
X042003Y030232D02*
X041933Y030232D01*
X041926Y030239D02*
X042010Y030239D01*
X042017Y030246D02*
X041919Y030246D01*
X041924Y030253D02*
X042024Y030253D01*
X042031Y030260D02*
X041931Y030260D01*
X041938Y030267D02*
X042038Y030267D01*
X042045Y030274D02*
X041945Y030274D01*
X041952Y030281D02*
X042052Y030281D01*
X042059Y030288D02*
X041959Y030288D01*
X041966Y030295D02*
X042066Y030295D01*
X042073Y030302D02*
X041973Y030302D01*
X041980Y030309D02*
X042080Y030309D01*
X042087Y030316D02*
X041987Y030316D01*
X041994Y030323D02*
X042094Y030323D01*
X042101Y030330D02*
X042001Y030330D01*
X042008Y030337D02*
X042108Y030337D01*
X042115Y030344D02*
X042015Y030344D01*
X042022Y030351D02*
X042122Y030351D01*
X042127Y030358D02*
X042029Y030358D01*
X042036Y030365D02*
X042120Y030365D01*
X042113Y030372D02*
X042043Y030372D01*
X042050Y030379D02*
X042106Y030379D01*
X042099Y030386D02*
X042057Y030386D01*
X042064Y030393D02*
X042092Y030393D01*
X042085Y030400D02*
X042071Y030400D01*
X042078Y030407D02*
X042078Y030407D01*
X042030Y030135D02*
X042080Y030085D01*
X042030Y030135D02*
X042190Y030295D01*
X042240Y030245D01*
X042080Y030085D01*
X042087Y030092D02*
X042073Y030092D01*
X042066Y030099D02*
X042094Y030099D01*
X042101Y030106D02*
X042059Y030106D01*
X042052Y030113D02*
X042108Y030113D01*
X042115Y030120D02*
X042045Y030120D01*
X042038Y030127D02*
X042122Y030127D01*
X042129Y030134D02*
X042031Y030134D01*
X042036Y030141D02*
X042136Y030141D01*
X042143Y030148D02*
X042043Y030148D01*
X042050Y030155D02*
X042150Y030155D01*
X042157Y030162D02*
X042057Y030162D01*
X042064Y030169D02*
X042164Y030169D01*
X042171Y030176D02*
X042071Y030176D01*
X042078Y030183D02*
X042178Y030183D01*
X042185Y030190D02*
X042085Y030190D01*
X042092Y030197D02*
X042192Y030197D01*
X042199Y030204D02*
X042099Y030204D01*
X042106Y030211D02*
X042206Y030211D01*
X042213Y030218D02*
X042113Y030218D01*
X042120Y030225D02*
X042220Y030225D01*
X042227Y030232D02*
X042127Y030232D01*
X042134Y030239D02*
X042234Y030239D01*
X042239Y030246D02*
X042141Y030246D01*
X042148Y030253D02*
X042232Y030253D01*
X042225Y030260D02*
X042155Y030260D01*
X042162Y030267D02*
X042218Y030267D01*
X042211Y030274D02*
X042169Y030274D01*
X042176Y030281D02*
X042204Y030281D01*
X042197Y030288D02*
X042183Y030288D01*
X042190Y030295D02*
X042190Y030295D01*
D14*
G36*
X040867Y029995D02*
X040158Y029286D01*
X039449Y029995D01*
X040158Y030704D01*
X040867Y029995D01*
G37*
D15*
X040152Y027460D03*
X040152Y026771D03*
X040145Y032529D03*
X040145Y033218D03*
X024995Y033446D03*
X024995Y032757D03*
D16*
X023298Y030811D03*
X023298Y030311D03*
X023298Y029811D03*
X023298Y029311D03*
X023298Y028811D03*
X021798Y028811D03*
X021798Y029311D03*
X021798Y029811D03*
X021798Y030311D03*
X021798Y030811D03*
D17*
X025635Y022844D03*
X026009Y022844D03*
X026383Y022844D03*
X026383Y021820D03*
X026009Y021820D03*
X025635Y021820D03*
D18*
X024635Y021872D03*
X024635Y020769D03*
D19*
X027075Y021986D03*
X027075Y022655D03*
X030303Y023291D03*
X030972Y023291D03*
X030413Y025344D03*
X029744Y025344D03*
X024181Y032780D03*
X024181Y033450D03*
X023225Y033489D03*
X023225Y032820D03*
D20*
X027885Y022655D03*
X027885Y021986D03*
D21*
X023635Y022474D03*
X023635Y024167D03*
X023635Y024974D03*
X023635Y026667D03*
D22*
X025635Y025417D03*
X025635Y023724D03*
D23*
X025687Y027320D03*
X024584Y027320D03*
D24*
X029614Y022541D03*
X029614Y022041D03*
X029614Y021541D03*
X029614Y021041D03*
X031661Y021041D03*
X031661Y021541D03*
X031661Y022041D03*
X031661Y022541D03*
D25*
X031593Y024435D03*
X031967Y025262D03*
X031219Y025262D03*
D26*
X038720Y024518D03*
X039822Y024518D03*
D27*
X042376Y028227D03*
X042769Y028227D03*
X042769Y028758D03*
X042376Y028758D03*
D28*
X030649Y032165D03*
X028405Y032165D03*
D29*
X031279Y037342D03*
X026102Y037736D03*
D30*
X027937Y036220D03*
X028370Y036062D03*
X028803Y036220D03*
X029236Y036299D03*
X029669Y036220D03*
X030102Y036299D03*
X030535Y036220D03*
X030968Y036220D03*
D31*
X025220Y036376D03*
X025220Y034876D03*
X023220Y034876D03*
X023220Y036376D03*
D32*
X023840Y037120D03*
X024666Y037120D03*
D33*
X029704Y027067D03*
X030078Y027067D03*
X030452Y027067D03*
X030452Y026122D03*
X029704Y026122D03*
D34*
X042224Y023177D03*
X042224Y022677D03*
X042224Y022177D03*
X042224Y021677D03*
X044284Y021677D03*
X044284Y022177D03*
X044284Y022677D03*
X044284Y023177D03*
D35*
X045325Y023012D03*
X045925Y023012D03*
D36*
X044230Y024267D03*
X042380Y024267D03*
D37*
X049691Y028186D03*
X049691Y028441D03*
X049691Y028697D03*
X049691Y028953D03*
X049691Y029209D03*
D38*
X050735Y029091D03*
X050735Y028304D03*
M02*
