G75*
G70*
%OFA0B0*%
%FSLAX24Y24*%
%IPPOS*%
%LPD*%
%AMOC8*
5,1,8,0,0,1.08239X$1,22.5*
%
%ADD10C,0.0000*%
%ADD11C,0.1660*%
%ADD12C,0.1502*%
%ADD13C,0.0560*%
%ADD14OC8,0.0560*%
%ADD15C,0.0520*%
%ADD16R,0.0400X0.0400*%
%ADD17C,0.0768*%
%ADD18C,0.0620*%
%ADD19C,0.0238*%
%ADD20C,0.0060*%
%ADD21C,0.0120*%
%ADD22C,0.0240*%
%ADD23C,0.0400*%
%ADD24C,0.0350*%
%ADD25C,0.0160*%
%ADD26C,0.0100*%
D10*
X020305Y019017D02*
X048336Y019017D01*
X049726Y019017D02*
X021380Y019017D01*
X020750Y020592D02*
X020752Y020642D01*
X020758Y020692D01*
X020768Y020741D01*
X020782Y020789D01*
X020799Y020836D01*
X020820Y020881D01*
X020845Y020925D01*
X020873Y020966D01*
X020905Y021005D01*
X020939Y021042D01*
X020976Y021076D01*
X021016Y021106D01*
X021058Y021133D01*
X021102Y021157D01*
X021148Y021178D01*
X021195Y021194D01*
X021243Y021207D01*
X021293Y021216D01*
X021342Y021221D01*
X021393Y021222D01*
X021443Y021219D01*
X021492Y021212D01*
X021541Y021201D01*
X021589Y021186D01*
X021635Y021168D01*
X021680Y021146D01*
X021723Y021120D01*
X021764Y021091D01*
X021803Y021059D01*
X021839Y021024D01*
X021871Y020986D01*
X021901Y020946D01*
X021928Y020903D01*
X021951Y020859D01*
X021970Y020813D01*
X021986Y020765D01*
X021998Y020716D01*
X022006Y020667D01*
X022010Y020617D01*
X022010Y020567D01*
X022006Y020517D01*
X021998Y020468D01*
X021986Y020419D01*
X021970Y020371D01*
X021951Y020325D01*
X021928Y020281D01*
X021901Y020238D01*
X021871Y020198D01*
X021839Y020160D01*
X021803Y020125D01*
X021764Y020093D01*
X021723Y020064D01*
X021680Y020038D01*
X021635Y020016D01*
X021589Y019998D01*
X021541Y019983D01*
X021492Y019972D01*
X021443Y019965D01*
X021393Y019962D01*
X021342Y019963D01*
X021293Y019968D01*
X021243Y019977D01*
X021195Y019990D01*
X021148Y020006D01*
X021102Y020027D01*
X021058Y020051D01*
X021016Y020078D01*
X020976Y020108D01*
X020939Y020142D01*
X020905Y020179D01*
X020873Y020218D01*
X020845Y020259D01*
X020820Y020303D01*
X020799Y020348D01*
X020782Y020395D01*
X020768Y020443D01*
X020758Y020492D01*
X020752Y020542D01*
X020750Y020592D01*
X019805Y020592D02*
X019807Y020515D01*
X019813Y020438D01*
X019822Y020361D01*
X019835Y020285D01*
X019852Y020209D01*
X019873Y020135D01*
X019897Y020061D01*
X019925Y019989D01*
X019956Y019919D01*
X019991Y019850D01*
X020029Y019782D01*
X020070Y019717D01*
X020115Y019654D01*
X020163Y019593D01*
X020213Y019534D01*
X020266Y019478D01*
X020322Y019425D01*
X020381Y019375D01*
X020442Y019327D01*
X020505Y019282D01*
X020570Y019241D01*
X020638Y019203D01*
X020707Y019168D01*
X020777Y019137D01*
X020849Y019109D01*
X020923Y019085D01*
X020997Y019064D01*
X021073Y019047D01*
X021149Y019034D01*
X021226Y019025D01*
X021303Y019019D01*
X021380Y019017D01*
X019805Y020592D02*
X019805Y036734D01*
X020750Y036734D02*
X020752Y036784D01*
X020758Y036834D01*
X020768Y036883D01*
X020782Y036931D01*
X020799Y036978D01*
X020820Y037023D01*
X020845Y037067D01*
X020873Y037108D01*
X020905Y037147D01*
X020939Y037184D01*
X020976Y037218D01*
X021016Y037248D01*
X021058Y037275D01*
X021102Y037299D01*
X021148Y037320D01*
X021195Y037336D01*
X021243Y037349D01*
X021293Y037358D01*
X021342Y037363D01*
X021393Y037364D01*
X021443Y037361D01*
X021492Y037354D01*
X021541Y037343D01*
X021589Y037328D01*
X021635Y037310D01*
X021680Y037288D01*
X021723Y037262D01*
X021764Y037233D01*
X021803Y037201D01*
X021839Y037166D01*
X021871Y037128D01*
X021901Y037088D01*
X021928Y037045D01*
X021951Y037001D01*
X021970Y036955D01*
X021986Y036907D01*
X021998Y036858D01*
X022006Y036809D01*
X022010Y036759D01*
X022010Y036709D01*
X022006Y036659D01*
X021998Y036610D01*
X021986Y036561D01*
X021970Y036513D01*
X021951Y036467D01*
X021928Y036423D01*
X021901Y036380D01*
X021871Y036340D01*
X021839Y036302D01*
X021803Y036267D01*
X021764Y036235D01*
X021723Y036206D01*
X021680Y036180D01*
X021635Y036158D01*
X021589Y036140D01*
X021541Y036125D01*
X021492Y036114D01*
X021443Y036107D01*
X021393Y036104D01*
X021342Y036105D01*
X021293Y036110D01*
X021243Y036119D01*
X021195Y036132D01*
X021148Y036148D01*
X021102Y036169D01*
X021058Y036193D01*
X021016Y036220D01*
X020976Y036250D01*
X020939Y036284D01*
X020905Y036321D01*
X020873Y036360D01*
X020845Y036401D01*
X020820Y036445D01*
X020799Y036490D01*
X020782Y036537D01*
X020768Y036585D01*
X020758Y036634D01*
X020752Y036684D01*
X020750Y036734D01*
X019805Y036734D02*
X019807Y036811D01*
X019813Y036888D01*
X019822Y036965D01*
X019835Y037041D01*
X019852Y037117D01*
X019873Y037191D01*
X019897Y037265D01*
X019925Y037337D01*
X019956Y037407D01*
X019991Y037476D01*
X020029Y037544D01*
X020070Y037609D01*
X020115Y037672D01*
X020163Y037733D01*
X020213Y037792D01*
X020266Y037848D01*
X020322Y037901D01*
X020381Y037951D01*
X020442Y037999D01*
X020505Y038044D01*
X020570Y038085D01*
X020638Y038123D01*
X020707Y038158D01*
X020777Y038189D01*
X020849Y038217D01*
X020923Y038241D01*
X020997Y038262D01*
X021073Y038279D01*
X021149Y038292D01*
X021226Y038301D01*
X021303Y038307D01*
X021380Y038309D01*
X049726Y038309D01*
X049096Y036734D02*
X049098Y036784D01*
X049104Y036834D01*
X049114Y036883D01*
X049128Y036931D01*
X049145Y036978D01*
X049166Y037023D01*
X049191Y037067D01*
X049219Y037108D01*
X049251Y037147D01*
X049285Y037184D01*
X049322Y037218D01*
X049362Y037248D01*
X049404Y037275D01*
X049448Y037299D01*
X049494Y037320D01*
X049541Y037336D01*
X049589Y037349D01*
X049639Y037358D01*
X049688Y037363D01*
X049739Y037364D01*
X049789Y037361D01*
X049838Y037354D01*
X049887Y037343D01*
X049935Y037328D01*
X049981Y037310D01*
X050026Y037288D01*
X050069Y037262D01*
X050110Y037233D01*
X050149Y037201D01*
X050185Y037166D01*
X050217Y037128D01*
X050247Y037088D01*
X050274Y037045D01*
X050297Y037001D01*
X050316Y036955D01*
X050332Y036907D01*
X050344Y036858D01*
X050352Y036809D01*
X050356Y036759D01*
X050356Y036709D01*
X050352Y036659D01*
X050344Y036610D01*
X050332Y036561D01*
X050316Y036513D01*
X050297Y036467D01*
X050274Y036423D01*
X050247Y036380D01*
X050217Y036340D01*
X050185Y036302D01*
X050149Y036267D01*
X050110Y036235D01*
X050069Y036206D01*
X050026Y036180D01*
X049981Y036158D01*
X049935Y036140D01*
X049887Y036125D01*
X049838Y036114D01*
X049789Y036107D01*
X049739Y036104D01*
X049688Y036105D01*
X049639Y036110D01*
X049589Y036119D01*
X049541Y036132D01*
X049494Y036148D01*
X049448Y036169D01*
X049404Y036193D01*
X049362Y036220D01*
X049322Y036250D01*
X049285Y036284D01*
X049251Y036321D01*
X049219Y036360D01*
X049191Y036401D01*
X049166Y036445D01*
X049145Y036490D01*
X049128Y036537D01*
X049114Y036585D01*
X049104Y036634D01*
X049098Y036684D01*
X049096Y036734D01*
X049726Y038309D02*
X049803Y038307D01*
X049880Y038301D01*
X049957Y038292D01*
X050033Y038279D01*
X050109Y038262D01*
X050183Y038241D01*
X050257Y038217D01*
X050329Y038189D01*
X050399Y038158D01*
X050468Y038123D01*
X050536Y038085D01*
X050601Y038044D01*
X050664Y037999D01*
X050725Y037951D01*
X050784Y037901D01*
X050840Y037848D01*
X050893Y037792D01*
X050943Y037733D01*
X050991Y037672D01*
X051036Y037609D01*
X051077Y037544D01*
X051115Y037476D01*
X051150Y037407D01*
X051181Y037337D01*
X051209Y037265D01*
X051233Y037191D01*
X051254Y037117D01*
X051271Y037041D01*
X051284Y036965D01*
X051293Y036888D01*
X051299Y036811D01*
X051301Y036734D01*
X051301Y020592D01*
X049096Y020592D02*
X049098Y020642D01*
X049104Y020692D01*
X049114Y020741D01*
X049128Y020789D01*
X049145Y020836D01*
X049166Y020881D01*
X049191Y020925D01*
X049219Y020966D01*
X049251Y021005D01*
X049285Y021042D01*
X049322Y021076D01*
X049362Y021106D01*
X049404Y021133D01*
X049448Y021157D01*
X049494Y021178D01*
X049541Y021194D01*
X049589Y021207D01*
X049639Y021216D01*
X049688Y021221D01*
X049739Y021222D01*
X049789Y021219D01*
X049838Y021212D01*
X049887Y021201D01*
X049935Y021186D01*
X049981Y021168D01*
X050026Y021146D01*
X050069Y021120D01*
X050110Y021091D01*
X050149Y021059D01*
X050185Y021024D01*
X050217Y020986D01*
X050247Y020946D01*
X050274Y020903D01*
X050297Y020859D01*
X050316Y020813D01*
X050332Y020765D01*
X050344Y020716D01*
X050352Y020667D01*
X050356Y020617D01*
X050356Y020567D01*
X050352Y020517D01*
X050344Y020468D01*
X050332Y020419D01*
X050316Y020371D01*
X050297Y020325D01*
X050274Y020281D01*
X050247Y020238D01*
X050217Y020198D01*
X050185Y020160D01*
X050149Y020125D01*
X050110Y020093D01*
X050069Y020064D01*
X050026Y020038D01*
X049981Y020016D01*
X049935Y019998D01*
X049887Y019983D01*
X049838Y019972D01*
X049789Y019965D01*
X049739Y019962D01*
X049688Y019963D01*
X049639Y019968D01*
X049589Y019977D01*
X049541Y019990D01*
X049494Y020006D01*
X049448Y020027D01*
X049404Y020051D01*
X049362Y020078D01*
X049322Y020108D01*
X049285Y020142D01*
X049251Y020179D01*
X049219Y020218D01*
X049191Y020259D01*
X049166Y020303D01*
X049145Y020348D01*
X049128Y020395D01*
X049114Y020443D01*
X049104Y020492D01*
X049098Y020542D01*
X049096Y020592D01*
X049726Y019017D02*
X049803Y019019D01*
X049880Y019025D01*
X049957Y019034D01*
X050033Y019047D01*
X050109Y019064D01*
X050183Y019085D01*
X050257Y019109D01*
X050329Y019137D01*
X050399Y019168D01*
X050468Y019203D01*
X050536Y019241D01*
X050601Y019282D01*
X050664Y019327D01*
X050725Y019375D01*
X050784Y019425D01*
X050840Y019478D01*
X050893Y019534D01*
X050943Y019593D01*
X050991Y019654D01*
X051036Y019717D01*
X051077Y019782D01*
X051115Y019850D01*
X051150Y019919D01*
X051181Y019989D01*
X051209Y020061D01*
X051233Y020135D01*
X051254Y020209D01*
X051271Y020285D01*
X051284Y020361D01*
X051293Y020438D01*
X051299Y020515D01*
X051301Y020592D01*
D11*
X047200Y023691D03*
D12*
X048322Y025580D03*
X049661Y023691D03*
D13*
X047805Y035267D03*
D14*
X047805Y036267D03*
X046805Y036267D03*
X046805Y035267D03*
X045805Y035267D03*
X044805Y035267D03*
X044805Y036267D03*
X045805Y036267D03*
X043805Y036267D03*
X043805Y035267D03*
X042805Y035267D03*
X042805Y036267D03*
X041805Y036267D03*
X041805Y035267D03*
X040805Y035267D03*
X040805Y036267D03*
X039805Y036267D03*
X039805Y035267D03*
X038805Y035267D03*
X037805Y035267D03*
X037805Y036267D03*
X038805Y036267D03*
X036805Y036267D03*
X036805Y035267D03*
X035805Y035267D03*
X035805Y036267D03*
X034805Y036267D03*
X034805Y035267D03*
X033805Y035267D03*
X032805Y035267D03*
X032805Y036267D03*
X033805Y036267D03*
D15*
X038805Y021027D02*
X038805Y020507D01*
X039805Y020507D02*
X039805Y021027D01*
X040805Y021027D02*
X040805Y020507D01*
X041805Y020507D02*
X041805Y021027D01*
X042805Y021027D02*
X042805Y020507D01*
X043805Y020507D02*
X043805Y021027D01*
X044805Y021027D02*
X044805Y020507D01*
X045805Y020507D02*
X045805Y021027D01*
X046805Y021027D02*
X046805Y020507D01*
X047805Y020507D02*
X047805Y021027D01*
D16*
G36*
X037216Y031159D02*
X037498Y031441D01*
X037780Y031159D01*
X037498Y030877D01*
X037216Y031159D01*
G37*
G36*
X036686Y030982D02*
X036968Y031264D01*
X037250Y030982D01*
X036968Y030700D01*
X036686Y030982D01*
G37*
G36*
X036863Y031512D02*
X037145Y031794D01*
X037427Y031512D01*
X037145Y031230D01*
X036863Y031512D01*
G37*
D17*
X050735Y030075D03*
X050735Y027319D03*
D18*
X049672Y027713D03*
X049672Y029682D03*
D19*
X044596Y031677D03*
X044548Y032069D03*
X042638Y032078D03*
X040996Y030897D03*
X039883Y030041D03*
X039338Y030818D03*
X039638Y031178D03*
X037988Y031509D03*
X037178Y032198D03*
X036916Y032397D03*
X038583Y032950D03*
X039698Y033218D03*
X036938Y030398D03*
X036845Y029157D03*
X037085Y028917D03*
X037325Y028677D03*
X037565Y028437D03*
X037805Y028197D03*
X038165Y027837D03*
X039238Y029094D03*
X040756Y028917D03*
X041018Y029138D03*
X040876Y027897D03*
X041176Y027777D03*
X039698Y026798D03*
X039256Y026397D03*
X038956Y026397D03*
X041055Y024267D03*
X040205Y022817D03*
X041585Y022397D03*
X041645Y021917D03*
X043305Y021277D03*
X043745Y021657D03*
X043445Y022157D03*
X043745Y023177D03*
X044305Y020767D03*
X039305Y021517D03*
X038305Y021517D03*
X036185Y025857D03*
X035825Y026217D03*
X035585Y026457D03*
X035585Y026937D03*
X035585Y027417D03*
X035585Y027897D03*
X031685Y024957D03*
X030055Y026017D03*
X029078Y027594D03*
X027885Y023820D03*
X029585Y022987D03*
X030555Y021517D03*
X031055Y022017D03*
X031305Y020637D03*
X027885Y021320D03*
X027135Y021570D03*
X025635Y021320D03*
X023585Y020637D03*
X027885Y019820D03*
X023635Y025570D03*
X024065Y029277D03*
X024995Y031017D03*
X024555Y032267D03*
X022805Y032767D03*
X021785Y031137D03*
X024555Y034517D03*
X025505Y035457D03*
X029285Y033537D03*
X029705Y033717D03*
X030545Y033717D03*
X031480Y032249D03*
X030094Y035697D03*
X043396Y033957D03*
X043936Y034197D03*
X043756Y029937D03*
X044356Y028377D03*
X043427Y026498D03*
D20*
X043434Y026505D02*
X041296Y026505D01*
X041296Y026447D02*
X043376Y026447D01*
X043317Y026388D02*
X041296Y026388D01*
X041296Y026330D02*
X043259Y026330D01*
X043200Y026271D02*
X041296Y026271D01*
X041296Y026213D02*
X043142Y026213D01*
X043083Y026154D02*
X041296Y026154D01*
X041296Y026108D02*
X041296Y027602D01*
X041385Y027691D01*
X041385Y027864D01*
X041263Y027986D01*
X041090Y027986D01*
X041085Y027982D01*
X041085Y027984D01*
X040963Y028106D01*
X040790Y028106D01*
X040667Y027984D01*
X040667Y027811D01*
X040756Y027722D01*
X040756Y026397D01*
X039465Y026397D01*
X039465Y026484D01*
X039343Y026606D01*
X039170Y026606D01*
X039106Y026543D01*
X039043Y026606D01*
X038870Y026606D01*
X038747Y026484D01*
X038747Y026453D01*
X037863Y027337D01*
X038154Y027628D01*
X038251Y027628D01*
X038374Y027751D01*
X038374Y027924D01*
X038251Y028046D01*
X038078Y028046D01*
X037956Y027924D01*
X037956Y027826D01*
X037665Y027535D01*
X037503Y027697D01*
X037794Y027988D01*
X037891Y027988D01*
X038014Y028111D01*
X038014Y028284D01*
X037891Y028406D01*
X037774Y028406D01*
X037774Y028524D01*
X037651Y028646D01*
X037534Y028646D01*
X037534Y028764D01*
X037411Y028886D01*
X037294Y028886D01*
X037294Y029004D01*
X037171Y029126D01*
X037054Y029126D01*
X037054Y029244D01*
X036931Y029366D01*
X036758Y029366D01*
X036636Y029244D01*
X036636Y029146D01*
X036345Y028855D01*
X035722Y029478D01*
X036892Y030648D01*
X036931Y030609D01*
X037005Y030609D01*
X037322Y030925D01*
X037461Y030786D01*
X037536Y030786D01*
X037871Y031121D01*
X037871Y031196D01*
X037704Y031363D01*
X037779Y031439D01*
X037779Y031422D01*
X037901Y031300D01*
X037957Y031300D01*
X038448Y030808D01*
X038548Y030708D01*
X039153Y030708D01*
X039252Y030609D01*
X039425Y030609D01*
X039547Y030732D01*
X039547Y030905D01*
X039425Y031027D01*
X039370Y031027D01*
X039349Y031048D01*
X038689Y031048D01*
X038398Y031339D01*
X039503Y031339D01*
X039429Y031265D01*
X039429Y031092D01*
X039552Y030969D01*
X039725Y030969D01*
X039814Y031058D01*
X040189Y031058D01*
X041258Y029989D01*
X041258Y029968D01*
X040789Y029498D01*
X040718Y029428D01*
X040718Y029269D01*
X040809Y029178D01*
X040809Y029126D01*
X040670Y029126D01*
X040547Y029004D01*
X040547Y028831D01*
X040670Y028708D01*
X040767Y028708D01*
X040818Y028657D01*
X041114Y028657D01*
X041316Y028859D01*
X041316Y028859D01*
X041594Y029137D01*
X041676Y029219D01*
X041676Y029653D01*
X044094Y027235D01*
X044129Y027200D01*
X043033Y026104D01*
X041293Y026104D01*
X041296Y026108D01*
X041176Y026157D02*
X041176Y027777D01*
X041176Y027717D01*
X041311Y027617D02*
X043713Y027617D01*
X043771Y027558D02*
X041296Y027558D01*
X041296Y027500D02*
X043830Y027500D01*
X043888Y027441D02*
X041296Y027441D01*
X041296Y027383D02*
X043947Y027383D01*
X044005Y027324D02*
X041296Y027324D01*
X041296Y027266D02*
X044064Y027266D01*
X044122Y027207D02*
X041296Y027207D01*
X041296Y027149D02*
X044078Y027149D01*
X044019Y027090D02*
X041296Y027090D01*
X041296Y027032D02*
X043961Y027032D01*
X043902Y026973D02*
X041296Y026973D01*
X041296Y026915D02*
X043844Y026915D01*
X043785Y026856D02*
X041296Y026856D01*
X041296Y026798D02*
X043727Y026798D01*
X043668Y026739D02*
X041296Y026739D01*
X041296Y026681D02*
X043610Y026681D01*
X043551Y026622D02*
X041296Y026622D01*
X041296Y026564D02*
X043493Y026564D01*
X043636Y026537D02*
X044264Y027165D01*
X044334Y027235D01*
X044334Y028115D01*
X044388Y028168D01*
X044443Y028168D01*
X044565Y028291D01*
X044565Y028464D01*
X044443Y028586D01*
X044334Y028586D01*
X044334Y031665D01*
X043153Y032847D01*
X043083Y032917D01*
X038792Y032917D01*
X038792Y033037D01*
X038781Y033048D01*
X038781Y033048D01*
X039573Y033048D01*
X039612Y033009D01*
X039785Y033009D01*
X039907Y033132D01*
X039907Y033305D01*
X039785Y033427D01*
X039612Y033427D01*
X039573Y033388D01*
X038541Y033388D01*
X038441Y033289D01*
X038441Y033104D01*
X038374Y033037D01*
X038374Y032982D01*
X038199Y032807D01*
X037230Y031837D01*
X037207Y031860D01*
X037255Y031907D01*
X037255Y031989D01*
X037265Y031989D01*
X037387Y032112D01*
X037387Y032285D01*
X037265Y032407D01*
X037125Y032407D01*
X037125Y032484D01*
X037003Y032606D01*
X036830Y032606D01*
X036707Y032484D01*
X036707Y032389D01*
X031636Y032389D01*
X031567Y032459D01*
X031394Y032459D01*
X031271Y032336D01*
X031271Y032163D01*
X031394Y032040D01*
X031567Y032040D01*
X031636Y032109D01*
X036790Y032109D01*
X036807Y032099D01*
X036846Y032109D01*
X036886Y032109D01*
X036900Y032123D01*
X036915Y032127D01*
X036915Y032048D01*
X033554Y028687D01*
X029425Y028687D01*
X029425Y033382D01*
X029494Y033451D01*
X029494Y033624D01*
X029371Y033746D01*
X029198Y033746D01*
X029076Y033624D01*
X029076Y033451D01*
X029145Y033382D01*
X029145Y032407D01*
X024710Y032407D01*
X024641Y032476D01*
X024468Y032476D01*
X024346Y032354D01*
X024346Y032181D01*
X024468Y032058D01*
X024641Y032058D01*
X024710Y032127D01*
X029145Y032127D01*
X029145Y028598D01*
X029135Y028588D01*
X029010Y028463D01*
X028385Y027838D01*
X028385Y027447D01*
X028484Y027347D01*
X029845Y025987D01*
X029845Y023680D01*
X030345Y023180D01*
X030345Y021430D01*
X030845Y020930D01*
X030848Y020927D01*
X023527Y020927D01*
X023420Y020883D01*
X023339Y020802D01*
X023295Y020695D01*
X023295Y020580D01*
X023339Y020473D01*
X023420Y020391D01*
X023527Y020347D01*
X031362Y020347D01*
X031469Y020391D01*
X031551Y020473D01*
X031595Y020580D01*
X031595Y020695D01*
X031551Y020802D01*
X031545Y020807D01*
X037892Y020807D01*
X038515Y021430D01*
X038515Y021604D01*
X038392Y021727D01*
X038218Y021727D01*
X037718Y021227D01*
X031142Y021227D01*
X030765Y021604D01*
X030765Y023354D01*
X030265Y023854D01*
X030265Y026104D01*
X030142Y026227D01*
X030085Y026227D01*
X028725Y027588D01*
X028725Y027697D01*
X029250Y028222D01*
X029375Y028347D01*
X033695Y028347D01*
X036797Y031450D01*
X036883Y031364D01*
X036756Y031236D01*
X036864Y031128D01*
X036822Y031086D01*
X036714Y031194D01*
X036581Y031062D01*
X036564Y031032D01*
X036555Y030999D01*
X036555Y030965D01*
X036564Y030932D01*
X036581Y030902D01*
X036610Y030874D01*
X035503Y029767D01*
X035433Y029697D01*
X035433Y029598D01*
X036260Y028770D01*
X035596Y028106D01*
X035498Y028106D01*
X035376Y027984D01*
X035376Y027811D01*
X035498Y027688D01*
X035658Y027688D01*
X035596Y027626D01*
X035498Y027626D01*
X035376Y027504D01*
X035376Y027331D01*
X035498Y027208D01*
X035658Y027208D01*
X035596Y027146D01*
X035498Y027146D01*
X035376Y027024D01*
X035376Y026851D01*
X035498Y026728D01*
X035658Y026728D01*
X035596Y026666D01*
X035498Y026666D01*
X035376Y026544D01*
X035376Y026371D01*
X035498Y026248D01*
X035616Y026248D01*
X035616Y026131D01*
X035738Y026008D01*
X035911Y026008D01*
X036034Y026131D01*
X036034Y026228D01*
X037418Y027612D01*
X037580Y027450D01*
X036196Y026066D01*
X036098Y026066D01*
X035976Y025944D01*
X035976Y025771D01*
X036098Y025648D01*
X036271Y025648D01*
X036394Y025771D01*
X036394Y025868D01*
X037778Y027252D01*
X038976Y026054D01*
X039046Y025984D01*
X043083Y025984D01*
X043387Y026289D01*
X043513Y026289D01*
X043636Y026411D01*
X043636Y026537D01*
X043636Y026505D02*
X051171Y026505D01*
X051171Y026447D02*
X048491Y026447D01*
X048495Y026446D02*
X048380Y026461D01*
X048352Y026461D01*
X048352Y025610D01*
X048292Y025610D01*
X048292Y025550D01*
X047441Y025550D01*
X047441Y025523D01*
X047456Y025408D01*
X047486Y025296D01*
X047530Y025190D01*
X047588Y025090D01*
X047659Y024998D01*
X047740Y024916D01*
X047832Y024846D01*
X047932Y024788D01*
X048039Y024744D01*
X048150Y024714D01*
X048265Y024699D01*
X048292Y024699D01*
X048292Y025550D01*
X048352Y025550D01*
X048352Y024699D01*
X048380Y024699D01*
X048495Y024714D01*
X048606Y024744D01*
X048713Y024788D01*
X048813Y024846D01*
X048905Y024916D01*
X048986Y024998D01*
X049057Y025090D01*
X049114Y025190D01*
X049159Y025296D01*
X049189Y025408D01*
X049204Y025523D01*
X049204Y025550D01*
X048352Y025550D01*
X048352Y025610D01*
X049204Y025610D01*
X049204Y025638D01*
X049189Y025753D01*
X049159Y025864D01*
X049114Y025971D01*
X049057Y026071D01*
X048986Y026163D01*
X048905Y026244D01*
X048813Y026315D01*
X048713Y026372D01*
X048606Y026417D01*
X048495Y026446D01*
X048352Y026447D02*
X048292Y026447D01*
X048292Y026461D02*
X048265Y026461D01*
X048150Y026446D01*
X048039Y026417D01*
X047932Y026372D01*
X047832Y026315D01*
X047740Y026244D01*
X047659Y026163D01*
X047588Y026071D01*
X047530Y025971D01*
X047486Y025864D01*
X047456Y025753D01*
X047441Y025638D01*
X047441Y025610D01*
X048292Y025610D01*
X048292Y026461D01*
X048292Y026388D02*
X048352Y026388D01*
X048352Y026330D02*
X048292Y026330D01*
X048292Y026271D02*
X048352Y026271D01*
X048352Y026213D02*
X048292Y026213D01*
X048292Y026154D02*
X048352Y026154D01*
X048352Y026096D02*
X048292Y026096D01*
X048292Y026037D02*
X048352Y026037D01*
X048352Y025979D02*
X048292Y025979D01*
X048292Y025920D02*
X048352Y025920D01*
X048352Y025862D02*
X048292Y025862D01*
X048292Y025803D02*
X048352Y025803D01*
X048352Y025745D02*
X048292Y025745D01*
X048292Y025686D02*
X048352Y025686D01*
X048352Y025628D02*
X048292Y025628D01*
X048292Y025569D02*
X030265Y025569D01*
X030265Y025511D02*
X047443Y025511D01*
X047451Y025452D02*
X030265Y025452D01*
X030265Y025394D02*
X047460Y025394D01*
X047476Y025335D02*
X030265Y025335D01*
X030265Y025277D02*
X047494Y025277D01*
X047519Y025218D02*
X030265Y025218D01*
X030265Y025160D02*
X031592Y025160D01*
X031598Y025166D02*
X031476Y025044D01*
X031476Y024871D01*
X031545Y024802D01*
X031545Y022705D01*
X031066Y022226D01*
X030968Y022226D01*
X030846Y022104D01*
X030846Y021931D01*
X030968Y021808D01*
X031141Y021808D01*
X031264Y021931D01*
X031264Y022028D01*
X031825Y022589D01*
X031825Y024802D01*
X031894Y024871D01*
X031894Y025044D01*
X031771Y025166D01*
X031598Y025166D01*
X031533Y025101D02*
X030265Y025101D01*
X030265Y025043D02*
X031476Y025043D01*
X031476Y024984D02*
X030265Y024984D01*
X030265Y024926D02*
X031476Y024926D01*
X031479Y024867D02*
X030265Y024867D01*
X030265Y024809D02*
X031538Y024809D01*
X031545Y024750D02*
X030265Y024750D01*
X030265Y024692D02*
X031545Y024692D01*
X031545Y024633D02*
X030265Y024633D01*
X030265Y024575D02*
X031545Y024575D01*
X031545Y024516D02*
X030265Y024516D01*
X030265Y024458D02*
X031545Y024458D01*
X031545Y024399D02*
X030265Y024399D01*
X030265Y024341D02*
X031545Y024341D01*
X031545Y024282D02*
X030265Y024282D01*
X030265Y024224D02*
X031545Y024224D01*
X031545Y024165D02*
X030265Y024165D01*
X030265Y024107D02*
X031545Y024107D01*
X031545Y024048D02*
X030265Y024048D01*
X030265Y023990D02*
X031545Y023990D01*
X031545Y023931D02*
X030265Y023931D01*
X030265Y023873D02*
X031545Y023873D01*
X031545Y023814D02*
X030305Y023814D01*
X030363Y023756D02*
X031545Y023756D01*
X031545Y023697D02*
X030422Y023697D01*
X030480Y023639D02*
X031545Y023639D01*
X031545Y023580D02*
X030539Y023580D01*
X030597Y023522D02*
X031545Y023522D01*
X031545Y023463D02*
X030656Y023463D01*
X030714Y023405D02*
X031545Y023405D01*
X031545Y023346D02*
X030765Y023346D01*
X030765Y023288D02*
X031545Y023288D01*
X031545Y023229D02*
X030765Y023229D01*
X030765Y023171D02*
X031545Y023171D01*
X031545Y023112D02*
X030765Y023112D01*
X030765Y023054D02*
X031545Y023054D01*
X031545Y022995D02*
X030765Y022995D01*
X030765Y022937D02*
X031545Y022937D01*
X031545Y022878D02*
X030765Y022878D01*
X030765Y022820D02*
X031545Y022820D01*
X031545Y022761D02*
X030765Y022761D01*
X030765Y022703D02*
X031542Y022703D01*
X031484Y022644D02*
X030765Y022644D01*
X030765Y022586D02*
X031425Y022586D01*
X031367Y022527D02*
X030765Y022527D01*
X030765Y022469D02*
X031308Y022469D01*
X031250Y022410D02*
X030765Y022410D01*
X030765Y022352D02*
X031191Y022352D01*
X031133Y022293D02*
X030765Y022293D01*
X030765Y022235D02*
X031074Y022235D01*
X030918Y022176D02*
X030765Y022176D01*
X030765Y022118D02*
X030860Y022118D01*
X030846Y022059D02*
X030765Y022059D01*
X030765Y022001D02*
X030846Y022001D01*
X030846Y021942D02*
X030765Y021942D01*
X030765Y021884D02*
X030893Y021884D01*
X030951Y021825D02*
X030765Y021825D01*
X030765Y021767D02*
X038515Y021767D01*
X038515Y021825D02*
X031158Y021825D01*
X031217Y021884D02*
X038515Y021884D01*
X038515Y021942D02*
X031264Y021942D01*
X031264Y022001D02*
X038515Y022001D01*
X038515Y022059D02*
X031295Y022059D01*
X031353Y022118D02*
X038515Y022118D01*
X038515Y022176D02*
X031412Y022176D01*
X031470Y022235D02*
X038515Y022235D01*
X038515Y022293D02*
X031529Y022293D01*
X031587Y022352D02*
X038526Y022352D01*
X038515Y022325D02*
X038515Y021232D01*
X038508Y021226D01*
X038455Y021097D01*
X038455Y020438D01*
X038508Y020309D01*
X038606Y020211D01*
X038735Y020157D01*
X038874Y020157D01*
X039003Y020211D01*
X039101Y020309D01*
X039155Y020438D01*
X039155Y021097D01*
X039101Y021226D01*
X039095Y021232D01*
X039095Y022147D01*
X040392Y023445D01*
X040925Y023977D01*
X041112Y023977D01*
X041219Y024021D01*
X041301Y024103D01*
X041345Y024210D01*
X041345Y024325D01*
X041301Y024432D01*
X041219Y024513D01*
X041112Y024557D01*
X040747Y024557D01*
X040640Y024513D01*
X039982Y023855D01*
X038640Y022513D01*
X038559Y022432D01*
X038515Y022325D01*
X038550Y022410D02*
X031646Y022410D01*
X031704Y022469D02*
X038596Y022469D01*
X038655Y022527D02*
X031763Y022527D01*
X031821Y022586D02*
X038713Y022586D01*
X038772Y022644D02*
X031825Y022644D01*
X031825Y022703D02*
X038830Y022703D01*
X038889Y022761D02*
X031825Y022761D01*
X031825Y022820D02*
X038947Y022820D01*
X039006Y022878D02*
X031825Y022878D01*
X031825Y022937D02*
X039064Y022937D01*
X039123Y022995D02*
X031825Y022995D01*
X031825Y023054D02*
X039181Y023054D01*
X039240Y023112D02*
X031825Y023112D01*
X031825Y023171D02*
X039298Y023171D01*
X039357Y023229D02*
X031825Y023229D01*
X031825Y023288D02*
X039415Y023288D01*
X039474Y023346D02*
X031825Y023346D01*
X031825Y023405D02*
X039532Y023405D01*
X039591Y023463D02*
X031825Y023463D01*
X031825Y023522D02*
X039649Y023522D01*
X039708Y023580D02*
X031825Y023580D01*
X031825Y023639D02*
X039766Y023639D01*
X039825Y023697D02*
X031825Y023697D01*
X031825Y023756D02*
X039883Y023756D01*
X039942Y023814D02*
X031825Y023814D01*
X031825Y023873D02*
X040000Y023873D01*
X040059Y023931D02*
X031825Y023931D01*
X031825Y023990D02*
X040117Y023990D01*
X040176Y024048D02*
X031825Y024048D01*
X031825Y024107D02*
X040234Y024107D01*
X040293Y024165D02*
X031825Y024165D01*
X031825Y024224D02*
X040351Y024224D01*
X040410Y024282D02*
X031825Y024282D01*
X031825Y024341D02*
X040468Y024341D01*
X040527Y024399D02*
X031825Y024399D01*
X031825Y024458D02*
X040585Y024458D01*
X040648Y024516D02*
X031825Y024516D01*
X031825Y024575D02*
X046931Y024575D01*
X047017Y024610D02*
X046679Y024470D01*
X046421Y024212D01*
X046280Y023874D01*
X046280Y023508D01*
X046421Y023169D01*
X046679Y022911D01*
X047017Y022771D01*
X047383Y022771D01*
X047721Y022911D01*
X047980Y023169D01*
X048120Y023508D01*
X048120Y023874D01*
X047980Y024212D01*
X047721Y024470D01*
X047383Y024610D01*
X047017Y024610D01*
X046790Y024516D02*
X041211Y024516D01*
X041274Y024458D02*
X046667Y024458D01*
X046608Y024399D02*
X041314Y024399D01*
X041338Y024341D02*
X046550Y024341D01*
X046491Y024282D02*
X041345Y024282D01*
X041345Y024224D02*
X046433Y024224D01*
X046401Y024165D02*
X041326Y024165D01*
X041302Y024107D02*
X046377Y024107D01*
X046353Y024048D02*
X041246Y024048D01*
X041143Y023990D02*
X046329Y023990D01*
X046304Y023931D02*
X040879Y023931D01*
X040820Y023873D02*
X046280Y023873D01*
X046280Y023814D02*
X040762Y023814D01*
X040703Y023756D02*
X046280Y023756D01*
X046280Y023697D02*
X040645Y023697D01*
X040586Y023639D02*
X046280Y023639D01*
X046280Y023580D02*
X040528Y023580D01*
X040469Y023522D02*
X046280Y023522D01*
X046299Y023463D02*
X040411Y023463D01*
X040352Y023405D02*
X046323Y023405D01*
X046347Y023346D02*
X043871Y023346D01*
X043831Y023386D02*
X043658Y023386D01*
X043536Y023264D01*
X043536Y023091D01*
X043605Y023022D01*
X043605Y022293D01*
X043531Y022366D01*
X043434Y022366D01*
X043263Y022537D01*
X041740Y022537D01*
X041671Y022606D01*
X041498Y022606D01*
X041376Y022484D01*
X041376Y022311D01*
X041498Y022188D01*
X041671Y022188D01*
X041740Y022257D01*
X043147Y022257D01*
X043236Y022168D01*
X043236Y022071D01*
X043249Y022057D01*
X041800Y022057D01*
X041731Y022126D01*
X041558Y022126D01*
X041436Y022004D01*
X041436Y021831D01*
X041558Y021708D01*
X041731Y021708D01*
X041800Y021777D01*
X043427Y021777D01*
X043536Y021668D01*
X043536Y021571D01*
X043658Y021448D01*
X043831Y021448D01*
X043954Y021571D01*
X043954Y021670D01*
X044165Y021459D01*
X044165Y020923D01*
X044155Y020913D01*
X044155Y021097D01*
X044101Y021226D01*
X044003Y021324D01*
X043874Y021377D01*
X043735Y021377D01*
X043606Y021324D01*
X043508Y021226D01*
X043455Y021097D01*
X043455Y020438D01*
X043508Y020309D01*
X043606Y020211D01*
X043735Y020157D01*
X043874Y020157D01*
X044003Y020211D01*
X044101Y020309D01*
X044155Y020438D01*
X044155Y020622D01*
X044218Y020558D01*
X044391Y020558D01*
X044455Y020622D01*
X044455Y020438D01*
X044508Y020309D01*
X044606Y020211D01*
X044735Y020157D01*
X044874Y020157D01*
X045003Y020211D01*
X045101Y020309D01*
X045155Y020438D01*
X045155Y021097D01*
X045101Y021226D01*
X045003Y021324D01*
X044874Y021377D01*
X044735Y021377D01*
X044606Y021324D01*
X044508Y021226D01*
X044455Y021097D01*
X044455Y020913D01*
X044445Y020923D01*
X044445Y021575D01*
X044363Y021657D01*
X043885Y022135D01*
X043885Y023022D01*
X043954Y023091D01*
X043954Y023264D01*
X043831Y023386D01*
X043930Y023288D02*
X046371Y023288D01*
X046396Y023229D02*
X043954Y023229D01*
X043954Y023171D02*
X046420Y023171D01*
X046478Y023112D02*
X043954Y023112D01*
X043917Y023054D02*
X046536Y023054D01*
X046595Y022995D02*
X043885Y022995D01*
X043885Y022937D02*
X046653Y022937D01*
X046757Y022878D02*
X043885Y022878D01*
X043885Y022820D02*
X046899Y022820D01*
X047502Y022820D02*
X049524Y022820D01*
X049489Y022824D02*
X049603Y022809D01*
X049631Y022809D01*
X049631Y023661D01*
X048780Y023661D01*
X048780Y023633D01*
X048795Y023518D01*
X048825Y023407D01*
X048869Y023300D01*
X048927Y023200D01*
X048997Y023108D01*
X049079Y023027D01*
X049170Y022956D01*
X049270Y022899D01*
X049377Y022854D01*
X049489Y022824D01*
X049631Y022820D02*
X049691Y022820D01*
X049691Y022809D02*
X049719Y022809D01*
X049833Y022824D01*
X049945Y022854D01*
X050052Y022899D01*
X050152Y022956D01*
X050243Y023027D01*
X050325Y023108D01*
X050395Y023200D01*
X050453Y023300D01*
X050497Y023407D01*
X050527Y023518D01*
X050542Y023633D01*
X050542Y023661D01*
X049691Y023661D01*
X049691Y023721D01*
X049631Y023721D01*
X049631Y024572D01*
X049603Y024572D01*
X049489Y024557D01*
X049377Y024527D01*
X049270Y024483D01*
X049170Y024425D01*
X049079Y024354D01*
X048997Y024273D01*
X048927Y024181D01*
X048869Y024081D01*
X048825Y023974D01*
X048795Y023863D01*
X048780Y023748D01*
X048780Y023721D01*
X049631Y023721D01*
X049631Y023661D01*
X049691Y023661D01*
X049691Y022809D01*
X049691Y022878D02*
X049631Y022878D01*
X049631Y022937D02*
X049691Y022937D01*
X049691Y022995D02*
X049631Y022995D01*
X049631Y023054D02*
X049691Y023054D01*
X049691Y023112D02*
X049631Y023112D01*
X049631Y023171D02*
X049691Y023171D01*
X049691Y023229D02*
X049631Y023229D01*
X049631Y023288D02*
X049691Y023288D01*
X049691Y023346D02*
X049631Y023346D01*
X049631Y023405D02*
X049691Y023405D01*
X049691Y023463D02*
X049631Y023463D01*
X049631Y023522D02*
X049691Y023522D01*
X049691Y023580D02*
X049631Y023580D01*
X049631Y023639D02*
X049691Y023639D01*
X049691Y023697D02*
X051171Y023697D01*
X051171Y023639D02*
X050542Y023639D01*
X050535Y023580D02*
X051171Y023580D01*
X051171Y023522D02*
X050528Y023522D01*
X050512Y023463D02*
X051171Y023463D01*
X051171Y023405D02*
X050496Y023405D01*
X050472Y023346D02*
X051171Y023346D01*
X051171Y023288D02*
X050446Y023288D01*
X050412Y023229D02*
X051171Y023229D01*
X051171Y023171D02*
X050373Y023171D01*
X050328Y023112D02*
X051171Y023112D01*
X051171Y023054D02*
X050270Y023054D01*
X050203Y022995D02*
X051171Y022995D01*
X051171Y022937D02*
X050118Y022937D01*
X050003Y022878D02*
X051171Y022878D01*
X051171Y022820D02*
X049798Y022820D01*
X049319Y022878D02*
X047643Y022878D01*
X047748Y022937D02*
X049204Y022937D01*
X049120Y022995D02*
X047806Y022995D01*
X047865Y023054D02*
X049052Y023054D01*
X048994Y023112D02*
X047923Y023112D01*
X047981Y023171D02*
X048949Y023171D01*
X048910Y023229D02*
X048005Y023229D01*
X048029Y023288D02*
X048876Y023288D01*
X048850Y023346D02*
X048054Y023346D01*
X048078Y023405D02*
X048826Y023405D01*
X048810Y023463D02*
X048102Y023463D01*
X048120Y023522D02*
X048794Y023522D01*
X048787Y023580D02*
X048120Y023580D01*
X048120Y023639D02*
X048780Y023639D01*
X048781Y023756D02*
X048120Y023756D01*
X048120Y023814D02*
X048789Y023814D01*
X048798Y023873D02*
X048120Y023873D01*
X048096Y023931D02*
X048813Y023931D01*
X048831Y023990D02*
X048072Y023990D01*
X048048Y024048D02*
X048855Y024048D01*
X048884Y024107D02*
X048024Y024107D01*
X047999Y024165D02*
X048918Y024165D01*
X048960Y024224D02*
X047968Y024224D01*
X047910Y024282D02*
X049007Y024282D01*
X049065Y024341D02*
X047851Y024341D01*
X047793Y024399D02*
X049137Y024399D01*
X049228Y024458D02*
X047734Y024458D01*
X047611Y024516D02*
X049352Y024516D01*
X049631Y024516D02*
X049691Y024516D01*
X049691Y024572D02*
X049691Y023721D01*
X050542Y023721D01*
X050542Y023748D01*
X050527Y023863D01*
X050497Y023974D01*
X050453Y024081D01*
X050395Y024181D01*
X050325Y024273D01*
X050243Y024354D01*
X050152Y024425D01*
X050052Y024483D01*
X049945Y024527D01*
X049833Y024557D01*
X049719Y024572D01*
X049691Y024572D01*
X049691Y024458D02*
X049631Y024458D01*
X049631Y024399D02*
X049691Y024399D01*
X049691Y024341D02*
X049631Y024341D01*
X049631Y024282D02*
X049691Y024282D01*
X049691Y024224D02*
X049631Y024224D01*
X049631Y024165D02*
X049691Y024165D01*
X049691Y024107D02*
X049631Y024107D01*
X049631Y024048D02*
X049691Y024048D01*
X049691Y023990D02*
X049631Y023990D01*
X049631Y023931D02*
X049691Y023931D01*
X049691Y023873D02*
X049631Y023873D01*
X049631Y023814D02*
X049691Y023814D01*
X049691Y023756D02*
X049631Y023756D01*
X049631Y023697D02*
X048120Y023697D01*
X048024Y024750D02*
X031825Y024750D01*
X031825Y024692D02*
X051171Y024692D01*
X051171Y024750D02*
X048621Y024750D01*
X048749Y024809D02*
X051171Y024809D01*
X051171Y024867D02*
X048841Y024867D01*
X048914Y024926D02*
X051171Y024926D01*
X051171Y024984D02*
X048973Y024984D01*
X049021Y025043D02*
X051171Y025043D01*
X051171Y025101D02*
X049063Y025101D01*
X049097Y025160D02*
X051171Y025160D01*
X051171Y025218D02*
X049126Y025218D01*
X049151Y025277D02*
X051171Y025277D01*
X051171Y025335D02*
X049169Y025335D01*
X049185Y025394D02*
X051171Y025394D01*
X051171Y025452D02*
X049194Y025452D01*
X049202Y025511D02*
X051171Y025511D01*
X051171Y025569D02*
X048352Y025569D01*
X048352Y025511D02*
X048292Y025511D01*
X048292Y025452D02*
X048352Y025452D01*
X048352Y025394D02*
X048292Y025394D01*
X048292Y025335D02*
X048352Y025335D01*
X048352Y025277D02*
X048292Y025277D01*
X048292Y025218D02*
X048352Y025218D01*
X048352Y025160D02*
X048292Y025160D01*
X048292Y025101D02*
X048352Y025101D01*
X048352Y025043D02*
X048292Y025043D01*
X048292Y024984D02*
X048352Y024984D01*
X048352Y024926D02*
X048292Y024926D01*
X048292Y024867D02*
X048352Y024867D01*
X048352Y024809D02*
X048292Y024809D01*
X048292Y024750D02*
X048352Y024750D01*
X047896Y024809D02*
X031832Y024809D01*
X031890Y024867D02*
X047804Y024867D01*
X047731Y024926D02*
X031894Y024926D01*
X031894Y024984D02*
X047672Y024984D01*
X047624Y025043D02*
X031894Y025043D01*
X031836Y025101D02*
X047581Y025101D01*
X047548Y025160D02*
X031778Y025160D01*
X031825Y024633D02*
X051171Y024633D01*
X051171Y024575D02*
X047469Y024575D01*
X047441Y025628D02*
X030265Y025628D01*
X030265Y025686D02*
X036060Y025686D01*
X036002Y025745D02*
X030265Y025745D01*
X030265Y025803D02*
X035976Y025803D01*
X035976Y025862D02*
X030265Y025862D01*
X030265Y025920D02*
X035976Y025920D01*
X036011Y025979D02*
X030265Y025979D01*
X030265Y026037D02*
X035709Y026037D01*
X035651Y026096D02*
X030265Y026096D01*
X030215Y026154D02*
X035616Y026154D01*
X035616Y026213D02*
X030156Y026213D01*
X030041Y026271D02*
X035475Y026271D01*
X035417Y026330D02*
X029983Y026330D01*
X029924Y026388D02*
X035376Y026388D01*
X035376Y026447D02*
X029866Y026447D01*
X029807Y026505D02*
X035376Y026505D01*
X035396Y026564D02*
X029749Y026564D01*
X029690Y026622D02*
X035454Y026622D01*
X035487Y026739D02*
X029573Y026739D01*
X029632Y026681D02*
X035610Y026681D01*
X035429Y026798D02*
X029515Y026798D01*
X029456Y026856D02*
X035376Y026856D01*
X035376Y026915D02*
X029398Y026915D01*
X029339Y026973D02*
X035376Y026973D01*
X035384Y027032D02*
X029281Y027032D01*
X029222Y027090D02*
X035442Y027090D01*
X035598Y027149D02*
X029164Y027149D01*
X029105Y027207D02*
X035657Y027207D01*
X035441Y027266D02*
X029047Y027266D01*
X028988Y027324D02*
X035382Y027324D01*
X035376Y027383D02*
X028930Y027383D01*
X028871Y027441D02*
X035376Y027441D01*
X035376Y027500D02*
X028813Y027500D01*
X028754Y027558D02*
X035430Y027558D01*
X035489Y027617D02*
X028725Y027617D01*
X028725Y027675D02*
X035645Y027675D01*
X035453Y027734D02*
X028762Y027734D01*
X028820Y027792D02*
X035394Y027792D01*
X035376Y027851D02*
X028879Y027851D01*
X028937Y027909D02*
X035376Y027909D01*
X035376Y027968D02*
X028996Y027968D01*
X029054Y028026D02*
X035418Y028026D01*
X035477Y028085D02*
X029113Y028085D01*
X029171Y028143D02*
X035633Y028143D01*
X035691Y028202D02*
X029230Y028202D01*
X029288Y028260D02*
X035750Y028260D01*
X035808Y028319D02*
X029347Y028319D01*
X029100Y028553D02*
X019935Y028553D01*
X019935Y028611D02*
X029145Y028611D01*
X029145Y028670D02*
X019935Y028670D01*
X019935Y028728D02*
X029145Y028728D01*
X029145Y028787D02*
X019935Y028787D01*
X019935Y028845D02*
X029145Y028845D01*
X029145Y028904D02*
X019935Y028904D01*
X019935Y028962D02*
X029145Y028962D01*
X029145Y029021D02*
X019935Y029021D01*
X019935Y029079D02*
X029145Y029079D01*
X029145Y029138D02*
X019935Y029138D01*
X019935Y029196D02*
X029145Y029196D01*
X029145Y029255D02*
X019935Y029255D01*
X019935Y029313D02*
X029145Y029313D01*
X029145Y029372D02*
X019935Y029372D01*
X019935Y029430D02*
X029145Y029430D01*
X029145Y029489D02*
X019935Y029489D01*
X019935Y029547D02*
X029145Y029547D01*
X029145Y029606D02*
X019935Y029606D01*
X019935Y029664D02*
X029145Y029664D01*
X029145Y029723D02*
X019935Y029723D01*
X019935Y029781D02*
X029145Y029781D01*
X029145Y029840D02*
X019935Y029840D01*
X019935Y029898D02*
X029145Y029898D01*
X029145Y029957D02*
X019935Y029957D01*
X019935Y030015D02*
X029145Y030015D01*
X029145Y030074D02*
X019935Y030074D01*
X019935Y030132D02*
X029145Y030132D01*
X029145Y030191D02*
X019935Y030191D01*
X019935Y030249D02*
X029145Y030249D01*
X029145Y030308D02*
X019935Y030308D01*
X019935Y030366D02*
X029145Y030366D01*
X029145Y030425D02*
X019935Y030425D01*
X019935Y030483D02*
X029145Y030483D01*
X029145Y030542D02*
X019935Y030542D01*
X019935Y030600D02*
X029145Y030600D01*
X029145Y030659D02*
X019935Y030659D01*
X019935Y030717D02*
X029145Y030717D01*
X029145Y030776D02*
X019935Y030776D01*
X019935Y030834D02*
X024882Y030834D01*
X024908Y030808D02*
X024786Y030931D01*
X024786Y030997D01*
X021940Y030997D01*
X021871Y030928D01*
X021698Y030928D01*
X021576Y031051D01*
X021576Y031224D01*
X021698Y031346D01*
X021871Y031346D01*
X021940Y031277D01*
X024933Y031277D01*
X024984Y031226D01*
X025081Y031226D01*
X025204Y031104D01*
X025204Y030931D01*
X025081Y030808D01*
X024908Y030808D01*
X024824Y030893D02*
X019935Y030893D01*
X019935Y030951D02*
X021675Y030951D01*
X021617Y031010D02*
X019935Y031010D01*
X019935Y031068D02*
X021576Y031068D01*
X021576Y031127D02*
X019935Y031127D01*
X019935Y031185D02*
X021576Y031185D01*
X021596Y031244D02*
X019935Y031244D01*
X019935Y031302D02*
X021654Y031302D01*
X021915Y031302D02*
X029145Y031302D01*
X029145Y031244D02*
X024966Y031244D01*
X025122Y031185D02*
X029145Y031185D01*
X029145Y031127D02*
X025181Y031127D01*
X025204Y031068D02*
X029145Y031068D01*
X029145Y031010D02*
X025204Y031010D01*
X025204Y030951D02*
X029145Y030951D01*
X029145Y030893D02*
X025166Y030893D01*
X025107Y030834D02*
X029145Y030834D01*
X029425Y030834D02*
X035701Y030834D01*
X035643Y030776D02*
X029425Y030776D01*
X029425Y030717D02*
X035584Y030717D01*
X035526Y030659D02*
X029425Y030659D01*
X029425Y030600D02*
X035467Y030600D01*
X035409Y030542D02*
X029425Y030542D01*
X029425Y030483D02*
X035350Y030483D01*
X035292Y030425D02*
X029425Y030425D01*
X029425Y030366D02*
X035233Y030366D01*
X035175Y030308D02*
X029425Y030308D01*
X029425Y030249D02*
X035116Y030249D01*
X035058Y030191D02*
X029425Y030191D01*
X029425Y030132D02*
X034999Y030132D01*
X034941Y030074D02*
X029425Y030074D01*
X029425Y030015D02*
X034882Y030015D01*
X034824Y029957D02*
X029425Y029957D01*
X029425Y029898D02*
X034765Y029898D01*
X034707Y029840D02*
X029425Y029840D01*
X029425Y029781D02*
X034648Y029781D01*
X034590Y029723D02*
X029425Y029723D01*
X029425Y029664D02*
X034531Y029664D01*
X034473Y029606D02*
X029425Y029606D01*
X029425Y029547D02*
X034414Y029547D01*
X034356Y029489D02*
X029425Y029489D01*
X029425Y029430D02*
X034297Y029430D01*
X034239Y029372D02*
X029425Y029372D01*
X029425Y029313D02*
X034180Y029313D01*
X034122Y029255D02*
X029425Y029255D01*
X029425Y029196D02*
X034063Y029196D01*
X034005Y029138D02*
X029425Y029138D01*
X029425Y029079D02*
X033946Y029079D01*
X033888Y029021D02*
X029425Y029021D01*
X029425Y028962D02*
X033829Y028962D01*
X033771Y028904D02*
X029425Y028904D01*
X029425Y028845D02*
X033712Y028845D01*
X033654Y028787D02*
X029425Y028787D01*
X029425Y028728D02*
X033595Y028728D01*
X033842Y028494D02*
X035984Y028494D01*
X035925Y028436D02*
X033784Y028436D01*
X033725Y028377D02*
X035867Y028377D01*
X036042Y028553D02*
X033901Y028553D01*
X033959Y028611D02*
X036101Y028611D01*
X036159Y028670D02*
X034018Y028670D01*
X034076Y028728D02*
X036218Y028728D01*
X036243Y028787D02*
X034135Y028787D01*
X034193Y028845D02*
X036185Y028845D01*
X036126Y028904D02*
X034252Y028904D01*
X034310Y028962D02*
X036068Y028962D01*
X036009Y029021D02*
X034369Y029021D01*
X034427Y029079D02*
X035951Y029079D01*
X035892Y029138D02*
X034486Y029138D01*
X034544Y029196D02*
X035834Y029196D01*
X035775Y029255D02*
X034603Y029255D01*
X034661Y029313D02*
X035717Y029313D01*
X035658Y029372D02*
X034720Y029372D01*
X034778Y029430D02*
X035600Y029430D01*
X035541Y029489D02*
X034837Y029489D01*
X034895Y029547D02*
X035483Y029547D01*
X035433Y029606D02*
X034954Y029606D01*
X035012Y029664D02*
X035433Y029664D01*
X035459Y029723D02*
X035071Y029723D01*
X035129Y029781D02*
X035517Y029781D01*
X035576Y029840D02*
X035188Y029840D01*
X035246Y029898D02*
X035634Y029898D01*
X035693Y029957D02*
X035305Y029957D01*
X035363Y030015D02*
X035751Y030015D01*
X035810Y030074D02*
X035422Y030074D01*
X035480Y030132D02*
X035868Y030132D01*
X035927Y030191D02*
X035539Y030191D01*
X035597Y030249D02*
X035985Y030249D01*
X036044Y030308D02*
X035656Y030308D01*
X035714Y030366D02*
X036102Y030366D01*
X036161Y030425D02*
X035773Y030425D01*
X035831Y030483D02*
X036219Y030483D01*
X036278Y030542D02*
X035890Y030542D01*
X035948Y030600D02*
X036336Y030600D01*
X036395Y030659D02*
X036007Y030659D01*
X036065Y030717D02*
X036453Y030717D01*
X036512Y030776D02*
X036124Y030776D01*
X036182Y030834D02*
X036570Y030834D01*
X036590Y030893D02*
X036241Y030893D01*
X036299Y030951D02*
X036559Y030951D01*
X036558Y031010D02*
X036358Y031010D01*
X036416Y031068D02*
X036588Y031068D01*
X036646Y031127D02*
X036475Y031127D01*
X036533Y031185D02*
X036705Y031185D01*
X036722Y031185D02*
X036807Y031185D01*
X036781Y031127D02*
X036863Y031127D01*
X036763Y031244D02*
X036592Y031244D01*
X036650Y031302D02*
X036822Y031302D01*
X036880Y031361D02*
X036709Y031361D01*
X036767Y031419D02*
X036828Y031419D01*
X036579Y031712D02*
X029425Y031712D01*
X029425Y031770D02*
X036637Y031770D01*
X036696Y031829D02*
X029425Y031829D01*
X029425Y031887D02*
X036754Y031887D01*
X036813Y031946D02*
X029425Y031946D01*
X029425Y032004D02*
X036871Y032004D01*
X036915Y032063D02*
X031589Y032063D01*
X031371Y032063D02*
X029425Y032063D01*
X029425Y032121D02*
X031313Y032121D01*
X031271Y032180D02*
X029425Y032180D01*
X029425Y032238D02*
X031271Y032238D01*
X031271Y032297D02*
X029425Y032297D01*
X029425Y032355D02*
X031290Y032355D01*
X031349Y032414D02*
X029425Y032414D01*
X029425Y032472D02*
X036707Y032472D01*
X036707Y032414D02*
X031611Y032414D01*
X030783Y033337D02*
X030865Y033419D01*
X030865Y033419D01*
X030890Y033444D01*
X042975Y033444D01*
X044339Y032081D01*
X044339Y031983D01*
X044461Y031860D01*
X044484Y031860D01*
X044387Y031764D01*
X044387Y031591D01*
X044510Y031468D01*
X044683Y031468D01*
X044805Y031591D01*
X044805Y031688D01*
X044954Y031837D01*
X045036Y031919D01*
X045036Y032155D01*
X043443Y033748D01*
X043483Y033748D01*
X043605Y033871D01*
X043605Y034044D01*
X043592Y034057D01*
X043781Y034057D01*
X043850Y033988D01*
X044023Y033988D01*
X044145Y034111D01*
X044145Y034284D01*
X044023Y034406D01*
X043850Y034406D01*
X043781Y034337D01*
X024933Y034337D01*
X024764Y034506D01*
X024764Y034604D01*
X024641Y034726D01*
X024468Y034726D01*
X024346Y034604D01*
X024346Y034431D01*
X024468Y034308D01*
X024566Y034308D01*
X024756Y034118D01*
X023957Y034118D01*
X022816Y032976D01*
X022718Y032976D01*
X022596Y032854D01*
X022596Y032681D01*
X022718Y032558D01*
X022891Y032558D01*
X023014Y032681D01*
X023014Y032778D01*
X024073Y033838D01*
X029530Y033838D01*
X029496Y033804D01*
X029496Y033631D01*
X029618Y033508D01*
X029716Y033508D01*
X029887Y033337D01*
X030783Y033337D01*
X030795Y033350D02*
X038502Y033350D01*
X038444Y033291D02*
X029425Y033291D01*
X029425Y033233D02*
X038441Y033233D01*
X038441Y033174D02*
X029425Y033174D01*
X029425Y033116D02*
X038441Y033116D01*
X038394Y033057D02*
X029425Y033057D01*
X029425Y032999D02*
X038374Y032999D01*
X038333Y032940D02*
X029425Y032940D01*
X029425Y032882D02*
X038274Y032882D01*
X038216Y032823D02*
X029425Y032823D01*
X029425Y032765D02*
X038157Y032765D01*
X038099Y032706D02*
X029425Y032706D01*
X029425Y032648D02*
X038040Y032648D01*
X037982Y032589D02*
X037020Y032589D01*
X037078Y032531D02*
X037923Y032531D01*
X037865Y032472D02*
X037125Y032472D01*
X037125Y032414D02*
X037806Y032414D01*
X037748Y032355D02*
X037317Y032355D01*
X037376Y032297D02*
X037689Y032297D01*
X037631Y032238D02*
X037387Y032238D01*
X037387Y032180D02*
X037572Y032180D01*
X037514Y032121D02*
X037387Y032121D01*
X037339Y032063D02*
X037455Y032063D01*
X037397Y032004D02*
X037280Y032004D01*
X037255Y031946D02*
X037338Y031946D01*
X037280Y031887D02*
X037235Y031887D01*
X036915Y032121D02*
X036898Y032121D01*
X036754Y032531D02*
X029425Y032531D01*
X029425Y032589D02*
X036813Y032589D01*
X036520Y031653D02*
X029425Y031653D01*
X029425Y031595D02*
X036462Y031595D01*
X036403Y031536D02*
X029425Y031536D01*
X029425Y031478D02*
X036345Y031478D01*
X036286Y031419D02*
X029425Y031419D01*
X029425Y031361D02*
X036228Y031361D01*
X036169Y031302D02*
X029425Y031302D01*
X029425Y031244D02*
X036111Y031244D01*
X036052Y031185D02*
X029425Y031185D01*
X029425Y031127D02*
X035994Y031127D01*
X035935Y031068D02*
X029425Y031068D01*
X029425Y031010D02*
X035877Y031010D01*
X035818Y030951D02*
X029425Y030951D01*
X029425Y030893D02*
X035760Y030893D01*
X036435Y030191D02*
X041056Y030191D01*
X040998Y030249D02*
X036494Y030249D01*
X036552Y030308D02*
X040939Y030308D01*
X040881Y030366D02*
X036611Y030366D01*
X036669Y030425D02*
X040822Y030425D01*
X040764Y030483D02*
X036728Y030483D01*
X036786Y030542D02*
X040705Y030542D01*
X040647Y030600D02*
X036845Y030600D01*
X037055Y030659D02*
X039202Y030659D01*
X039475Y030659D02*
X040588Y030659D01*
X040530Y030717D02*
X039533Y030717D01*
X039547Y030776D02*
X040471Y030776D01*
X040413Y030834D02*
X039547Y030834D01*
X039547Y030893D02*
X040354Y030893D01*
X040296Y030951D02*
X039501Y030951D01*
X039511Y031010D02*
X039443Y031010D01*
X039453Y031068D02*
X038669Y031068D01*
X038610Y031127D02*
X039429Y031127D01*
X039429Y031185D02*
X038552Y031185D01*
X038493Y031244D02*
X039429Y031244D01*
X039467Y031302D02*
X038435Y031302D01*
X038188Y031068D02*
X037818Y031068D01*
X037871Y031127D02*
X038130Y031127D01*
X038071Y031185D02*
X037871Y031185D01*
X037823Y031244D02*
X038013Y031244D01*
X037899Y031302D02*
X037765Y031302D01*
X037706Y031361D02*
X037840Y031361D01*
X037782Y031419D02*
X037760Y031419D01*
X037760Y031010D02*
X038247Y031010D01*
X038305Y030951D02*
X037701Y030951D01*
X037643Y030893D02*
X038364Y030893D01*
X038422Y030834D02*
X037584Y030834D01*
X037413Y030834D02*
X037231Y030834D01*
X037172Y030776D02*
X038481Y030776D01*
X038448Y030808D02*
X038448Y030808D01*
X038539Y030717D02*
X037114Y030717D01*
X037289Y030893D02*
X037354Y030893D01*
X036377Y030132D02*
X041115Y030132D01*
X041173Y030074D02*
X036318Y030074D01*
X036260Y030015D02*
X041232Y030015D01*
X041247Y029957D02*
X036201Y029957D01*
X036143Y029898D02*
X041189Y029898D01*
X041130Y029840D02*
X036084Y029840D01*
X036026Y029781D02*
X041072Y029781D01*
X041013Y029723D02*
X035967Y029723D01*
X035909Y029664D02*
X040955Y029664D01*
X040896Y029606D02*
X035850Y029606D01*
X035792Y029547D02*
X040838Y029547D01*
X040779Y029489D02*
X035733Y029489D01*
X035770Y029430D02*
X040721Y029430D01*
X040718Y029372D02*
X035828Y029372D01*
X035887Y029313D02*
X036705Y029313D01*
X036647Y029255D02*
X035945Y029255D01*
X036004Y029196D02*
X036636Y029196D01*
X036627Y029138D02*
X036062Y029138D01*
X036121Y029079D02*
X036569Y029079D01*
X036510Y029021D02*
X036179Y029021D01*
X036238Y028962D02*
X036452Y028962D01*
X036393Y028904D02*
X036296Y028904D01*
X037054Y029138D02*
X040809Y029138D01*
X040791Y029196D02*
X037054Y029196D01*
X037043Y029255D02*
X040732Y029255D01*
X040718Y029313D02*
X036984Y029313D01*
X037218Y029079D02*
X040623Y029079D01*
X040564Y029021D02*
X037277Y029021D01*
X037294Y028962D02*
X040547Y028962D01*
X040547Y028904D02*
X037294Y028904D01*
X037452Y028845D02*
X040547Y028845D01*
X040591Y028787D02*
X037511Y028787D01*
X037534Y028728D02*
X040650Y028728D01*
X040806Y028670D02*
X037534Y028670D01*
X037686Y028611D02*
X042718Y028611D01*
X042777Y028553D02*
X037745Y028553D01*
X037774Y028494D02*
X042835Y028494D01*
X042894Y028436D02*
X037774Y028436D01*
X037920Y028377D02*
X042952Y028377D01*
X043011Y028319D02*
X037979Y028319D01*
X038014Y028260D02*
X043069Y028260D01*
X043128Y028202D02*
X038014Y028202D01*
X038014Y028143D02*
X043186Y028143D01*
X043245Y028085D02*
X040984Y028085D01*
X041043Y028026D02*
X043303Y028026D01*
X043362Y027968D02*
X041281Y027968D01*
X041340Y027909D02*
X043420Y027909D01*
X043479Y027851D02*
X041385Y027851D01*
X041385Y027792D02*
X043537Y027792D01*
X043596Y027734D02*
X041385Y027734D01*
X041370Y027675D02*
X043654Y027675D01*
X043619Y027880D02*
X042779Y028720D01*
X043788Y029728D01*
X043843Y029728D01*
X043965Y029851D01*
X043965Y030024D01*
X043843Y030146D01*
X043670Y030146D01*
X043547Y030024D01*
X043547Y029969D01*
X042539Y028960D01*
X041676Y029823D01*
X041676Y030235D01*
X041153Y030758D01*
X041205Y030811D01*
X041205Y030984D01*
X041083Y031106D01*
X041028Y031106D01*
X040555Y031579D01*
X040455Y031679D01*
X039820Y031679D01*
X038714Y032785D01*
X038725Y032797D01*
X043033Y032797D01*
X044214Y031616D01*
X044214Y028531D01*
X044147Y028464D01*
X044147Y028409D01*
X043619Y027880D01*
X043590Y027909D02*
X043648Y027909D01*
X043706Y027968D02*
X043531Y027968D01*
X043473Y028026D02*
X043765Y028026D01*
X043823Y028085D02*
X043414Y028085D01*
X043356Y028143D02*
X043882Y028143D01*
X043940Y028202D02*
X043297Y028202D01*
X043239Y028260D02*
X043999Y028260D01*
X044057Y028319D02*
X043180Y028319D01*
X043122Y028377D02*
X044116Y028377D01*
X044147Y028436D02*
X043063Y028436D01*
X043005Y028494D02*
X044178Y028494D01*
X044214Y028553D02*
X042946Y028553D01*
X042888Y028611D02*
X044214Y028611D01*
X044214Y028670D02*
X042829Y028670D01*
X042788Y028728D02*
X044214Y028728D01*
X044214Y028787D02*
X042846Y028787D01*
X042905Y028845D02*
X044214Y028845D01*
X044214Y028904D02*
X042963Y028904D01*
X043022Y028962D02*
X044214Y028962D01*
X044214Y029021D02*
X043080Y029021D01*
X043139Y029079D02*
X044214Y029079D01*
X044214Y029138D02*
X043197Y029138D01*
X043256Y029196D02*
X044214Y029196D01*
X044214Y029255D02*
X043314Y029255D01*
X043373Y029313D02*
X044214Y029313D01*
X044214Y029372D02*
X043431Y029372D01*
X043490Y029430D02*
X044214Y029430D01*
X044214Y029489D02*
X043548Y029489D01*
X043607Y029547D02*
X044214Y029547D01*
X044214Y029606D02*
X043665Y029606D01*
X043724Y029664D02*
X044214Y029664D01*
X044214Y029723D02*
X043782Y029723D01*
X043896Y029781D02*
X044214Y029781D01*
X044214Y029840D02*
X043954Y029840D01*
X043965Y029898D02*
X044214Y029898D01*
X044214Y029957D02*
X043965Y029957D01*
X043965Y030015D02*
X044214Y030015D01*
X044214Y030074D02*
X043915Y030074D01*
X043857Y030132D02*
X044214Y030132D01*
X044214Y030191D02*
X041676Y030191D01*
X041676Y030132D02*
X043656Y030132D01*
X043597Y030074D02*
X041676Y030074D01*
X041676Y030015D02*
X043547Y030015D01*
X043535Y029957D02*
X041676Y029957D01*
X041676Y029898D02*
X043477Y029898D01*
X043418Y029840D02*
X041676Y029840D01*
X041718Y029781D02*
X043360Y029781D01*
X043301Y029723D02*
X041776Y029723D01*
X041835Y029664D02*
X043243Y029664D01*
X043184Y029606D02*
X041893Y029606D01*
X041952Y029547D02*
X043126Y029547D01*
X043067Y029489D02*
X042010Y029489D01*
X042069Y029430D02*
X043009Y029430D01*
X042950Y029372D02*
X042127Y029372D01*
X042186Y029313D02*
X042892Y029313D01*
X042833Y029255D02*
X042244Y029255D01*
X042303Y029196D02*
X042775Y029196D01*
X042716Y029138D02*
X042361Y029138D01*
X042420Y029079D02*
X042658Y029079D01*
X042599Y029021D02*
X042478Y029021D01*
X042537Y028962D02*
X042541Y028962D01*
X042426Y028904D02*
X041361Y028904D01*
X041419Y028962D02*
X042367Y028962D01*
X042309Y029021D02*
X041478Y029021D01*
X041536Y029079D02*
X042250Y029079D01*
X042192Y029138D02*
X041595Y029138D01*
X041653Y029196D02*
X042133Y029196D01*
X042075Y029255D02*
X041676Y029255D01*
X041676Y029313D02*
X042016Y029313D01*
X041958Y029372D02*
X041676Y029372D01*
X041676Y029430D02*
X041899Y029430D01*
X041841Y029489D02*
X041676Y029489D01*
X041676Y029547D02*
X041782Y029547D01*
X041724Y029606D02*
X041676Y029606D01*
X041378Y029918D02*
X040838Y029378D01*
X040838Y029318D01*
X041018Y029138D01*
X041302Y028845D02*
X042484Y028845D01*
X042543Y028787D02*
X041244Y028787D01*
X041185Y028728D02*
X042601Y028728D01*
X042660Y028670D02*
X041127Y028670D01*
X040768Y028085D02*
X037988Y028085D01*
X037929Y028026D02*
X038058Y028026D01*
X038000Y027968D02*
X037773Y027968D01*
X037715Y027909D02*
X037956Y027909D01*
X037956Y027851D02*
X037656Y027851D01*
X037598Y027792D02*
X037922Y027792D01*
X037863Y027734D02*
X037539Y027734D01*
X037525Y027675D02*
X037805Y027675D01*
X037746Y027617D02*
X037583Y027617D01*
X037642Y027558D02*
X037688Y027558D01*
X037571Y027441D02*
X037247Y027441D01*
X037188Y027383D02*
X037512Y027383D01*
X037454Y027324D02*
X037130Y027324D01*
X037071Y027266D02*
X037395Y027266D01*
X037337Y027207D02*
X037013Y027207D01*
X036954Y027149D02*
X037278Y027149D01*
X037220Y027090D02*
X036896Y027090D01*
X036837Y027032D02*
X037161Y027032D01*
X037103Y026973D02*
X036779Y026973D01*
X036720Y026915D02*
X037044Y026915D01*
X036986Y026856D02*
X036662Y026856D01*
X036603Y026798D02*
X036927Y026798D01*
X036869Y026739D02*
X036545Y026739D01*
X036486Y026681D02*
X036810Y026681D01*
X036752Y026622D02*
X036428Y026622D01*
X036369Y026564D02*
X036693Y026564D01*
X036635Y026505D02*
X036311Y026505D01*
X036252Y026447D02*
X036576Y026447D01*
X036518Y026388D02*
X036194Y026388D01*
X036135Y026330D02*
X036459Y026330D01*
X036401Y026271D02*
X036077Y026271D01*
X036034Y026213D02*
X036342Y026213D01*
X036284Y026154D02*
X036034Y026154D01*
X035999Y026096D02*
X036225Y026096D01*
X036069Y026037D02*
X035940Y026037D01*
X036394Y025862D02*
X047486Y025862D01*
X047470Y025803D02*
X036394Y025803D01*
X036368Y025745D02*
X047455Y025745D01*
X047448Y025686D02*
X036309Y025686D01*
X036446Y025920D02*
X047510Y025920D01*
X047535Y025979D02*
X036504Y025979D01*
X036563Y026037D02*
X038993Y026037D01*
X038934Y026096D02*
X036621Y026096D01*
X036680Y026154D02*
X038876Y026154D01*
X038817Y026213D02*
X036738Y026213D01*
X036797Y026271D02*
X038759Y026271D01*
X038700Y026330D02*
X036855Y026330D01*
X036914Y026388D02*
X038642Y026388D01*
X038583Y026447D02*
X036972Y026447D01*
X037031Y026505D02*
X038525Y026505D01*
X038466Y026564D02*
X037089Y026564D01*
X037148Y026622D02*
X038408Y026622D01*
X038349Y026681D02*
X037206Y026681D01*
X037265Y026739D02*
X038291Y026739D01*
X038232Y026798D02*
X037323Y026798D01*
X037382Y026856D02*
X038174Y026856D01*
X038115Y026915D02*
X037440Y026915D01*
X037499Y026973D02*
X038057Y026973D01*
X037998Y027032D02*
X037557Y027032D01*
X037616Y027090D02*
X037940Y027090D01*
X037881Y027149D02*
X037674Y027149D01*
X037733Y027207D02*
X037823Y027207D01*
X037934Y027266D02*
X040756Y027266D01*
X040756Y027324D02*
X037876Y027324D01*
X037908Y027383D02*
X040756Y027383D01*
X040756Y027441D02*
X037967Y027441D01*
X038025Y027500D02*
X040756Y027500D01*
X040756Y027558D02*
X038084Y027558D01*
X038142Y027617D02*
X040756Y027617D01*
X040756Y027675D02*
X038298Y027675D01*
X038357Y027734D02*
X040744Y027734D01*
X040686Y027792D02*
X038374Y027792D01*
X038374Y027851D02*
X040667Y027851D01*
X040667Y027909D02*
X038374Y027909D01*
X038330Y027968D02*
X040667Y027968D01*
X040710Y028026D02*
X038271Y028026D01*
X037993Y027207D02*
X040756Y027207D01*
X040756Y027149D02*
X038051Y027149D01*
X038110Y027090D02*
X040756Y027090D01*
X040756Y027032D02*
X038168Y027032D01*
X038227Y026973D02*
X040756Y026973D01*
X040756Y026915D02*
X038285Y026915D01*
X038344Y026856D02*
X040756Y026856D01*
X040756Y026798D02*
X038402Y026798D01*
X038461Y026739D02*
X040756Y026739D01*
X040756Y026681D02*
X038519Y026681D01*
X038578Y026622D02*
X040756Y026622D01*
X040756Y026564D02*
X039385Y026564D01*
X039444Y026505D02*
X040756Y026505D01*
X040756Y026447D02*
X039465Y026447D01*
X039376Y026277D02*
X040876Y026277D01*
X040876Y027897D01*
X040876Y027837D01*
X039127Y026564D02*
X039085Y026564D01*
X038956Y026397D02*
X039196Y026157D01*
X041176Y026157D01*
X039376Y026277D02*
X039256Y026397D01*
X038827Y026564D02*
X038636Y026564D01*
X038695Y026505D02*
X038769Y026505D01*
X037530Y027500D02*
X037305Y027500D01*
X037364Y027558D02*
X037472Y027558D01*
X039766Y031010D02*
X040237Y031010D01*
X040238Y031178D02*
X039638Y031178D01*
X039787Y031712D02*
X044118Y031712D01*
X044060Y031770D02*
X039729Y031770D01*
X039670Y031829D02*
X044001Y031829D01*
X043943Y031887D02*
X039612Y031887D01*
X039553Y031946D02*
X043884Y031946D01*
X043826Y032004D02*
X039495Y032004D01*
X039436Y032063D02*
X043767Y032063D01*
X043709Y032121D02*
X039378Y032121D01*
X039319Y032180D02*
X043650Y032180D01*
X043592Y032238D02*
X039261Y032238D01*
X039202Y032297D02*
X043533Y032297D01*
X043475Y032355D02*
X039144Y032355D01*
X039085Y032414D02*
X043416Y032414D01*
X043358Y032472D02*
X039027Y032472D01*
X038968Y032531D02*
X043299Y032531D01*
X043241Y032589D02*
X038910Y032589D01*
X038851Y032648D02*
X043182Y032648D01*
X043124Y032706D02*
X038793Y032706D01*
X038734Y032765D02*
X043065Y032765D01*
X043176Y032823D02*
X043596Y032823D01*
X043654Y032765D02*
X043235Y032765D01*
X043293Y032706D02*
X043713Y032706D01*
X043771Y032648D02*
X043352Y032648D01*
X043410Y032589D02*
X043830Y032589D01*
X043888Y032531D02*
X043469Y032531D01*
X043527Y032472D02*
X043947Y032472D01*
X044005Y032414D02*
X043586Y032414D01*
X043644Y032355D02*
X044064Y032355D01*
X044122Y032297D02*
X043703Y032297D01*
X043761Y032238D02*
X044181Y032238D01*
X044239Y032180D02*
X043820Y032180D01*
X043878Y032121D02*
X044298Y032121D01*
X044339Y032063D02*
X043937Y032063D01*
X043995Y032004D02*
X044339Y032004D01*
X044376Y031946D02*
X044054Y031946D01*
X044112Y031887D02*
X044434Y031887D01*
X044452Y031829D02*
X044171Y031829D01*
X044229Y031770D02*
X044394Y031770D01*
X044387Y031712D02*
X044288Y031712D01*
X044334Y031653D02*
X044387Y031653D01*
X044387Y031595D02*
X044334Y031595D01*
X044334Y031536D02*
X044442Y031536D01*
X044500Y031478D02*
X044334Y031478D01*
X044334Y031419D02*
X051171Y031419D01*
X051171Y031361D02*
X044334Y031361D01*
X044334Y031302D02*
X051171Y031302D01*
X051171Y031244D02*
X044334Y031244D01*
X044334Y031185D02*
X051171Y031185D01*
X051171Y031127D02*
X044334Y031127D01*
X044334Y031068D02*
X051171Y031068D01*
X051171Y031010D02*
X044334Y031010D01*
X044334Y030951D02*
X051171Y030951D01*
X051171Y030893D02*
X044334Y030893D01*
X044334Y030834D02*
X051171Y030834D01*
X051171Y030776D02*
X044334Y030776D01*
X044334Y030717D02*
X051171Y030717D01*
X051171Y030659D02*
X044334Y030659D01*
X044334Y030600D02*
X051171Y030600D01*
X051171Y030542D02*
X050847Y030542D01*
X050829Y030549D02*
X050640Y030549D01*
X050466Y030477D01*
X050333Y030344D01*
X050261Y030170D01*
X050261Y029981D01*
X050333Y029807D01*
X050466Y029674D01*
X050640Y029601D01*
X050829Y029601D01*
X051003Y029674D01*
X051136Y029807D01*
X051171Y029890D01*
X051171Y027505D01*
X051136Y027588D01*
X051003Y027721D01*
X050829Y027793D01*
X050640Y027793D01*
X050466Y027721D01*
X050333Y027588D01*
X050261Y027414D01*
X050261Y027225D01*
X050333Y027051D01*
X050466Y026918D01*
X050640Y026846D01*
X050829Y026846D01*
X051003Y026918D01*
X051136Y027051D01*
X051171Y027134D01*
X051171Y021803D01*
X049737Y021803D01*
X049736Y021804D01*
X049725Y021803D01*
X049714Y021803D01*
X049713Y021802D01*
X049566Y021792D01*
X049564Y021793D01*
X049554Y021791D01*
X049543Y021790D01*
X049542Y021788D01*
X049397Y021757D01*
X049394Y021758D01*
X049385Y021754D01*
X049375Y021752D01*
X049373Y021750D01*
X049234Y021698D01*
X049232Y021699D01*
X049223Y021694D01*
X049213Y021690D01*
X049212Y021688D01*
X049082Y021617D01*
X049079Y021617D01*
X049071Y021611D01*
X049062Y021606D01*
X049061Y021604D01*
X048943Y021515D01*
X048940Y021515D01*
X048933Y021507D01*
X048925Y021501D01*
X048924Y021499D01*
X048819Y021394D01*
X048817Y021394D01*
X048811Y021385D01*
X048803Y021378D01*
X048803Y021376D01*
X048714Y021257D01*
X048712Y021256D01*
X048707Y021247D01*
X048701Y021239D01*
X048701Y021236D01*
X048630Y021106D01*
X048628Y021105D01*
X048624Y021095D01*
X048619Y021086D01*
X048620Y021084D01*
X048568Y020945D01*
X048566Y020943D01*
X048564Y020933D01*
X048560Y020924D01*
X048561Y020922D01*
X048530Y020776D01*
X048528Y020775D01*
X048527Y020765D01*
X048525Y020754D01*
X048526Y020752D01*
X048516Y020605D01*
X048515Y020605D01*
X048515Y020593D01*
X048514Y020582D01*
X048515Y020581D01*
X048515Y019147D01*
X022591Y019147D01*
X022591Y020581D01*
X022591Y020582D01*
X022591Y020593D01*
X022591Y020605D01*
X022590Y020605D01*
X022579Y020752D01*
X022581Y020754D01*
X022578Y020764D01*
X022578Y020775D01*
X022576Y020776D01*
X022544Y020921D01*
X022545Y020924D01*
X022542Y020933D01*
X022539Y020943D01*
X022537Y020945D01*
X022485Y021084D01*
X022486Y021086D01*
X022481Y021095D01*
X022478Y021105D01*
X022475Y021106D01*
X022404Y021236D01*
X022405Y021239D01*
X022398Y021247D01*
X022394Y021256D01*
X022391Y021257D01*
X022302Y021376D01*
X022302Y021378D01*
X022295Y021385D01*
X022289Y021394D01*
X022286Y021394D01*
X022181Y021499D01*
X022181Y021501D01*
X022173Y021507D01*
X022165Y021515D01*
X022163Y021515D01*
X022044Y021604D01*
X022043Y021606D01*
X022034Y021611D01*
X022026Y021617D01*
X022024Y021617D01*
X021893Y021688D01*
X021892Y021690D01*
X021883Y021694D01*
X021874Y021699D01*
X021871Y021698D01*
X021732Y021750D01*
X021731Y021752D01*
X021721Y021754D01*
X021711Y021758D01*
X021709Y021757D01*
X021564Y021788D01*
X021562Y021790D01*
X021552Y021791D01*
X021542Y021793D01*
X021540Y021792D01*
X021393Y021802D01*
X021392Y021803D01*
X021381Y021803D01*
X021369Y021804D01*
X021368Y021803D01*
X019935Y021803D01*
X019935Y035523D01*
X021368Y035523D01*
X021369Y035522D01*
X021381Y035523D01*
X021392Y035523D01*
X021393Y035524D01*
X021540Y035534D01*
X021542Y035533D01*
X021552Y035535D01*
X021562Y035536D01*
X021564Y035538D01*
X021709Y035569D01*
X021711Y035568D01*
X021721Y035572D01*
X021731Y035574D01*
X021732Y035576D01*
X021871Y035628D01*
X021874Y035627D01*
X021883Y035632D01*
X021892Y035636D01*
X021893Y035638D01*
X022024Y035709D01*
X022026Y035709D01*
X022034Y035715D01*
X022043Y035720D01*
X022044Y035722D01*
X022163Y035811D01*
X022165Y035811D01*
X022173Y035819D01*
X022181Y035825D01*
X022181Y035827D01*
X022286Y035932D01*
X022289Y035932D01*
X022295Y035941D01*
X022302Y035948D01*
X022302Y035950D01*
X022391Y036069D01*
X022394Y036070D01*
X022398Y036079D01*
X022405Y036087D01*
X022404Y036090D01*
X022475Y036220D01*
X022478Y036221D01*
X022481Y036231D01*
X022486Y036240D01*
X022485Y036242D01*
X022537Y036381D01*
X022539Y036383D01*
X022542Y036393D01*
X022545Y036402D01*
X022544Y036404D01*
X022576Y036550D01*
X022578Y036551D01*
X022578Y036561D01*
X022581Y036572D01*
X022579Y036574D01*
X022590Y036721D01*
X022591Y036721D01*
X022591Y036733D01*
X022591Y036744D01*
X022591Y036745D01*
X022591Y038179D01*
X048515Y038179D01*
X048515Y036745D01*
X048514Y036744D01*
X048515Y036733D01*
X048515Y036721D01*
X048516Y036721D01*
X048526Y036574D01*
X048525Y036572D01*
X048527Y036561D01*
X048528Y036551D01*
X048530Y036550D01*
X048561Y036404D01*
X048560Y036402D01*
X048564Y036393D01*
X048566Y036383D01*
X048568Y036381D01*
X048620Y036242D01*
X048619Y036240D01*
X048624Y036231D01*
X048628Y036221D01*
X048630Y036220D01*
X048701Y036090D01*
X048701Y036087D01*
X048707Y036079D01*
X048712Y036070D01*
X048714Y036069D01*
X048803Y035950D01*
X048803Y035948D01*
X048811Y035941D01*
X048817Y035932D01*
X048819Y035932D01*
X048924Y035827D01*
X048925Y035825D01*
X048933Y035819D01*
X048940Y035811D01*
X048943Y035811D01*
X049061Y035722D01*
X049062Y035720D01*
X049071Y035715D01*
X049079Y035709D01*
X049082Y035709D01*
X049212Y035638D01*
X049213Y035636D01*
X049223Y035632D01*
X049232Y035627D01*
X049234Y035628D01*
X049373Y035576D01*
X049375Y035574D01*
X049385Y035572D01*
X049394Y035568D01*
X049397Y035569D01*
X049542Y035538D01*
X049543Y035536D01*
X049554Y035535D01*
X049564Y035533D01*
X049566Y035534D01*
X049713Y035524D01*
X049714Y035523D01*
X049725Y035523D01*
X049736Y035522D01*
X049737Y035523D01*
X051171Y035523D01*
X051171Y030261D01*
X051136Y030344D01*
X051003Y030477D01*
X050829Y030549D01*
X050988Y030483D02*
X051171Y030483D01*
X051171Y030425D02*
X051055Y030425D01*
X051114Y030366D02*
X051171Y030366D01*
X051171Y030308D02*
X051151Y030308D01*
X051150Y029840D02*
X051171Y029840D01*
X051171Y029781D02*
X051111Y029781D01*
X051052Y029723D02*
X051171Y029723D01*
X051171Y029664D02*
X050981Y029664D01*
X050840Y029606D02*
X051171Y029606D01*
X051171Y029547D02*
X050049Y029547D01*
X050072Y029602D02*
X050011Y029455D01*
X049898Y029342D01*
X049751Y029282D01*
X049592Y029282D01*
X049445Y029342D01*
X049333Y029455D01*
X049272Y029602D01*
X049272Y029761D01*
X049333Y029908D01*
X049445Y030021D01*
X049592Y030082D01*
X049751Y030082D01*
X049898Y030021D01*
X050011Y029908D01*
X050072Y029761D01*
X050072Y029602D01*
X050072Y029606D02*
X050630Y029606D01*
X050488Y029664D02*
X050072Y029664D01*
X050072Y029723D02*
X050417Y029723D01*
X050358Y029781D02*
X050063Y029781D01*
X050039Y029840D02*
X050319Y029840D01*
X050295Y029898D02*
X050015Y029898D01*
X049962Y029957D02*
X050271Y029957D01*
X050261Y030015D02*
X049904Y030015D01*
X049770Y030074D02*
X050261Y030074D01*
X050261Y030132D02*
X044334Y030132D01*
X044334Y030074D02*
X049573Y030074D01*
X049440Y030015D02*
X044334Y030015D01*
X044334Y029957D02*
X049381Y029957D01*
X049329Y029898D02*
X044334Y029898D01*
X044334Y029840D02*
X049304Y029840D01*
X049280Y029781D02*
X044334Y029781D01*
X044334Y029723D02*
X049272Y029723D01*
X049272Y029664D02*
X044334Y029664D01*
X044334Y029606D02*
X049272Y029606D01*
X049294Y029547D02*
X044334Y029547D01*
X044334Y029489D02*
X049319Y029489D01*
X049357Y029430D02*
X044334Y029430D01*
X044334Y029372D02*
X049416Y029372D01*
X049515Y029313D02*
X044334Y029313D01*
X044334Y029255D02*
X051171Y029255D01*
X051171Y029313D02*
X049828Y029313D01*
X049928Y029372D02*
X051171Y029372D01*
X051171Y029430D02*
X049986Y029430D01*
X050025Y029489D02*
X051171Y029489D01*
X051171Y029196D02*
X044334Y029196D01*
X044334Y029138D02*
X051171Y029138D01*
X051171Y029079D02*
X044334Y029079D01*
X044334Y029021D02*
X051171Y029021D01*
X051171Y028962D02*
X044334Y028962D01*
X044334Y028904D02*
X051171Y028904D01*
X051171Y028845D02*
X044334Y028845D01*
X044334Y028787D02*
X051171Y028787D01*
X051171Y028728D02*
X044334Y028728D01*
X044334Y028670D02*
X051171Y028670D01*
X051171Y028611D02*
X044334Y028611D01*
X044476Y028553D02*
X051171Y028553D01*
X051171Y028494D02*
X044535Y028494D01*
X044565Y028436D02*
X051171Y028436D01*
X051171Y028377D02*
X044565Y028377D01*
X044565Y028319D02*
X051171Y028319D01*
X051171Y028260D02*
X044535Y028260D01*
X044476Y028202D02*
X051171Y028202D01*
X051171Y028143D02*
X044363Y028143D01*
X044334Y028085D02*
X049524Y028085D01*
X049592Y028113D02*
X049445Y028052D01*
X049333Y027940D01*
X049272Y027793D01*
X049272Y027633D01*
X049333Y027486D01*
X049445Y027374D01*
X049592Y027313D01*
X049751Y027313D01*
X049898Y027374D01*
X050011Y027486D01*
X050072Y027633D01*
X050072Y027793D01*
X050011Y027940D01*
X049898Y028052D01*
X049751Y028113D01*
X049592Y028113D01*
X049419Y028026D02*
X044334Y028026D01*
X044334Y027968D02*
X049361Y027968D01*
X049320Y027909D02*
X044334Y027909D01*
X044334Y027851D02*
X049296Y027851D01*
X049272Y027792D02*
X044334Y027792D01*
X044334Y027734D02*
X049272Y027734D01*
X049272Y027675D02*
X044334Y027675D01*
X044334Y027617D02*
X049279Y027617D01*
X049303Y027558D02*
X044334Y027558D01*
X044334Y027500D02*
X049327Y027500D01*
X049378Y027441D02*
X044334Y027441D01*
X044334Y027383D02*
X049436Y027383D01*
X049565Y027324D02*
X044334Y027324D01*
X044334Y027266D02*
X050261Y027266D01*
X050261Y027324D02*
X049779Y027324D01*
X049907Y027383D02*
X050261Y027383D01*
X050272Y027441D02*
X049966Y027441D01*
X050016Y027500D02*
X050297Y027500D01*
X050321Y027558D02*
X050041Y027558D01*
X050065Y027617D02*
X050362Y027617D01*
X050421Y027675D02*
X050072Y027675D01*
X050072Y027734D02*
X050497Y027734D01*
X050638Y027792D02*
X050072Y027792D01*
X050048Y027851D02*
X051171Y027851D01*
X051171Y027909D02*
X050023Y027909D01*
X049983Y027968D02*
X051171Y027968D01*
X051171Y028026D02*
X049924Y028026D01*
X049820Y028085D02*
X051171Y028085D01*
X051171Y027792D02*
X050831Y027792D01*
X050972Y027734D02*
X051171Y027734D01*
X051171Y027675D02*
X051049Y027675D01*
X051107Y027617D02*
X051171Y027617D01*
X051171Y027558D02*
X051149Y027558D01*
X051153Y027090D02*
X051171Y027090D01*
X051171Y027032D02*
X051117Y027032D01*
X051171Y026973D02*
X051059Y026973D01*
X050996Y026915D02*
X051171Y026915D01*
X051171Y026856D02*
X050855Y026856D01*
X050614Y026856D02*
X043955Y026856D01*
X043897Y026798D02*
X051171Y026798D01*
X051171Y026739D02*
X043838Y026739D01*
X043780Y026681D02*
X051171Y026681D01*
X051171Y026622D02*
X043721Y026622D01*
X043663Y026564D02*
X051171Y026564D01*
X051171Y026388D02*
X048674Y026388D01*
X048787Y026330D02*
X051171Y026330D01*
X051171Y026271D02*
X048869Y026271D01*
X048936Y026213D02*
X051171Y026213D01*
X051171Y026154D02*
X048993Y026154D01*
X049038Y026096D02*
X051171Y026096D01*
X051171Y026037D02*
X049076Y026037D01*
X049110Y025979D02*
X051171Y025979D01*
X051171Y025920D02*
X049135Y025920D01*
X049159Y025862D02*
X051171Y025862D01*
X051171Y025803D02*
X049175Y025803D01*
X049190Y025745D02*
X051171Y025745D01*
X051171Y025686D02*
X049197Y025686D01*
X049204Y025628D02*
X051171Y025628D01*
X051171Y024516D02*
X049970Y024516D01*
X050094Y024458D02*
X051171Y024458D01*
X051171Y024399D02*
X050185Y024399D01*
X050257Y024341D02*
X051171Y024341D01*
X051171Y024282D02*
X050315Y024282D01*
X050363Y024224D02*
X051171Y024224D01*
X051171Y024165D02*
X050404Y024165D01*
X050438Y024107D02*
X051171Y024107D01*
X051171Y024048D02*
X050467Y024048D01*
X050491Y023990D02*
X051171Y023990D01*
X051171Y023931D02*
X050509Y023931D01*
X050524Y023873D02*
X051171Y023873D01*
X051171Y023814D02*
X050534Y023814D01*
X050541Y023756D02*
X051171Y023756D01*
X051171Y022761D02*
X043885Y022761D01*
X043885Y022703D02*
X051171Y022703D01*
X051171Y022644D02*
X043885Y022644D01*
X043885Y022586D02*
X051171Y022586D01*
X051171Y022527D02*
X043885Y022527D01*
X043885Y022469D02*
X051171Y022469D01*
X051171Y022410D02*
X043885Y022410D01*
X043885Y022352D02*
X051171Y022352D01*
X051171Y022293D02*
X043885Y022293D01*
X043885Y022235D02*
X051171Y022235D01*
X051171Y022176D02*
X043885Y022176D01*
X043902Y022118D02*
X051171Y022118D01*
X051171Y022059D02*
X043961Y022059D01*
X044019Y022001D02*
X051171Y022001D01*
X051171Y021942D02*
X044078Y021942D01*
X044136Y021884D02*
X051171Y021884D01*
X051171Y021825D02*
X044195Y021825D01*
X044253Y021767D02*
X049443Y021767D01*
X049262Y021708D02*
X044312Y021708D01*
X044370Y021650D02*
X049142Y021650D01*
X049045Y021591D02*
X044429Y021591D01*
X044445Y021533D02*
X048967Y021533D01*
X048900Y021474D02*
X044445Y021474D01*
X044445Y021416D02*
X046759Y021416D01*
X046766Y021417D02*
X046691Y021402D01*
X046620Y021373D01*
X046556Y021330D01*
X046502Y021276D01*
X046459Y021212D01*
X046430Y021141D01*
X046415Y021066D01*
X046415Y020797D01*
X046775Y020797D01*
X046775Y020737D01*
X046835Y020737D01*
X046835Y020797D01*
X047195Y020797D01*
X047195Y021066D01*
X047180Y021141D01*
X047150Y021212D01*
X047108Y021276D01*
X047053Y021330D01*
X046989Y021373D01*
X046918Y021402D01*
X046843Y021417D01*
X046835Y021417D01*
X046835Y020797D01*
X046775Y020797D01*
X046775Y021417D01*
X046766Y021417D01*
X046775Y021416D02*
X046835Y021416D01*
X046851Y021416D02*
X047759Y021416D01*
X047766Y021417D02*
X047691Y021402D01*
X047620Y021373D01*
X047556Y021330D01*
X047502Y021276D01*
X047459Y021212D01*
X047430Y021141D01*
X047415Y021066D01*
X047415Y020797D01*
X047775Y020797D01*
X047775Y020737D01*
X047835Y020737D01*
X047835Y020797D01*
X048195Y020797D01*
X048195Y021066D01*
X048180Y021141D01*
X048150Y021212D01*
X048108Y021276D01*
X048053Y021330D01*
X047989Y021373D01*
X047918Y021402D01*
X047843Y021417D01*
X047835Y021417D01*
X047835Y020797D01*
X047775Y020797D01*
X047775Y021417D01*
X047766Y021417D01*
X047775Y021416D02*
X047835Y021416D01*
X047851Y021416D02*
X048841Y021416D01*
X048790Y021357D02*
X048013Y021357D01*
X048085Y021299D02*
X048746Y021299D01*
X048702Y021240D02*
X048131Y021240D01*
X048163Y021182D02*
X048672Y021182D01*
X048640Y021123D02*
X048183Y021123D01*
X048195Y021065D02*
X048613Y021065D01*
X048591Y021006D02*
X048195Y021006D01*
X048195Y020948D02*
X048569Y020948D01*
X048554Y020889D02*
X048195Y020889D01*
X048195Y020831D02*
X048542Y020831D01*
X048528Y020772D02*
X047835Y020772D01*
X047835Y020737D02*
X048195Y020737D01*
X048195Y020469D01*
X048180Y020394D01*
X048150Y020323D01*
X048108Y020259D01*
X048053Y020204D01*
X047989Y020162D01*
X047918Y020132D01*
X047843Y020117D01*
X047835Y020117D01*
X047835Y020737D01*
X047835Y020714D02*
X047775Y020714D01*
X047775Y020737D02*
X047775Y020117D01*
X047766Y020117D01*
X047691Y020132D01*
X047620Y020162D01*
X047556Y020204D01*
X047502Y020259D01*
X047459Y020323D01*
X047430Y020394D01*
X047415Y020469D01*
X047415Y020737D01*
X047775Y020737D01*
X047775Y020772D02*
X046835Y020772D01*
X046835Y020737D02*
X047195Y020737D01*
X047195Y020469D01*
X047180Y020394D01*
X047150Y020323D01*
X047108Y020259D01*
X047053Y020204D01*
X046989Y020162D01*
X046918Y020132D01*
X046843Y020117D01*
X046835Y020117D01*
X046835Y020737D01*
X046835Y020714D02*
X046775Y020714D01*
X046775Y020737D02*
X046775Y020117D01*
X046766Y020117D01*
X046691Y020132D01*
X046620Y020162D01*
X046556Y020204D01*
X046502Y020259D01*
X046459Y020323D01*
X046430Y020394D01*
X046415Y020469D01*
X046415Y020737D01*
X046775Y020737D01*
X046775Y020772D02*
X046155Y020772D01*
X046155Y020714D02*
X046415Y020714D01*
X046415Y020655D02*
X046155Y020655D01*
X046155Y020597D02*
X046415Y020597D01*
X046415Y020538D02*
X046155Y020538D01*
X046155Y020480D02*
X046415Y020480D01*
X046424Y020421D02*
X046148Y020421D01*
X046155Y020438D02*
X046101Y020309D01*
X046003Y020211D01*
X045874Y020157D01*
X045735Y020157D01*
X045606Y020211D01*
X045508Y020309D01*
X045455Y020438D01*
X045455Y021097D01*
X045508Y021226D01*
X045606Y021324D01*
X045735Y021377D01*
X045874Y021377D01*
X046003Y021324D01*
X046101Y021226D01*
X046155Y021097D01*
X046155Y020438D01*
X046124Y020363D02*
X046442Y020363D01*
X046471Y020304D02*
X046097Y020304D01*
X046038Y020246D02*
X046515Y020246D01*
X046582Y020187D02*
X045947Y020187D01*
X045663Y020187D02*
X044947Y020187D01*
X045038Y020246D02*
X045571Y020246D01*
X045513Y020304D02*
X045097Y020304D01*
X045124Y020363D02*
X045486Y020363D01*
X045462Y020421D02*
X045148Y020421D01*
X045155Y020480D02*
X045455Y020480D01*
X045455Y020538D02*
X045155Y020538D01*
X045155Y020597D02*
X045455Y020597D01*
X045455Y020655D02*
X045155Y020655D01*
X045155Y020714D02*
X045455Y020714D01*
X045455Y020772D02*
X045155Y020772D01*
X045155Y020831D02*
X045455Y020831D01*
X045455Y020889D02*
X045155Y020889D01*
X045155Y020948D02*
X045455Y020948D01*
X045455Y021006D02*
X045155Y021006D01*
X045155Y021065D02*
X045455Y021065D01*
X045466Y021123D02*
X045144Y021123D01*
X045120Y021182D02*
X045490Y021182D01*
X045523Y021240D02*
X045087Y021240D01*
X045028Y021299D02*
X045581Y021299D01*
X045687Y021357D02*
X044923Y021357D01*
X044687Y021357D02*
X044445Y021357D01*
X044445Y021299D02*
X044581Y021299D01*
X044523Y021240D02*
X044445Y021240D01*
X044445Y021182D02*
X044490Y021182D01*
X044466Y021123D02*
X044445Y021123D01*
X044445Y021065D02*
X044455Y021065D01*
X044445Y021006D02*
X044455Y021006D01*
X044445Y020948D02*
X044455Y020948D01*
X044165Y020948D02*
X044155Y020948D01*
X044155Y021006D02*
X044165Y021006D01*
X044155Y021065D02*
X044165Y021065D01*
X044165Y021123D02*
X044144Y021123D01*
X044165Y021182D02*
X044120Y021182D01*
X044087Y021240D02*
X044165Y021240D01*
X044165Y021299D02*
X044028Y021299D01*
X043923Y021357D02*
X044165Y021357D01*
X044165Y021416D02*
X042618Y021416D01*
X042560Y021474D02*
X043632Y021474D01*
X043574Y021533D02*
X042501Y021533D01*
X042443Y021591D02*
X043536Y021591D01*
X043536Y021650D02*
X042384Y021650D01*
X042367Y021667D02*
X042243Y021667D01*
X042233Y021657D01*
X041363Y021657D01*
X040352Y022668D01*
X040414Y022731D01*
X040414Y022904D01*
X040291Y023026D01*
X040118Y023026D01*
X039996Y022904D01*
X039996Y022731D01*
X040065Y022662D01*
X040065Y022559D01*
X041165Y021459D01*
X041247Y021377D01*
X041631Y021377D01*
X041620Y021373D01*
X041556Y021330D01*
X041502Y021276D01*
X041459Y021212D01*
X041430Y021141D01*
X041415Y021066D01*
X041415Y020797D01*
X041775Y020797D01*
X041775Y020737D01*
X041835Y020737D01*
X041835Y020797D01*
X042195Y020797D01*
X042195Y021066D01*
X042180Y021141D01*
X042150Y021212D01*
X042108Y021276D01*
X042053Y021330D01*
X041989Y021373D01*
X041979Y021377D01*
X042233Y021377D01*
X042472Y021138D01*
X042455Y021097D01*
X042455Y020438D01*
X042508Y020309D01*
X042606Y020211D01*
X042735Y020157D01*
X042874Y020157D01*
X043003Y020211D01*
X043101Y020309D01*
X043155Y020438D01*
X043155Y021097D01*
X043101Y021226D01*
X043003Y021324D01*
X042874Y021377D01*
X042735Y021377D01*
X042680Y021354D01*
X042367Y021667D01*
X042253Y021357D02*
X042013Y021357D01*
X042085Y021299D02*
X042311Y021299D01*
X042370Y021240D02*
X042131Y021240D01*
X042163Y021182D02*
X042428Y021182D01*
X042466Y021123D02*
X042183Y021123D01*
X042195Y021065D02*
X042455Y021065D01*
X042455Y021006D02*
X042195Y021006D01*
X042195Y020948D02*
X042455Y020948D01*
X042455Y020889D02*
X042195Y020889D01*
X042195Y020831D02*
X042455Y020831D01*
X042455Y020772D02*
X041835Y020772D01*
X041835Y020737D02*
X042195Y020737D01*
X042195Y020469D01*
X042180Y020394D01*
X042150Y020323D01*
X042108Y020259D01*
X042053Y020204D01*
X041989Y020162D01*
X041918Y020132D01*
X041843Y020117D01*
X041835Y020117D01*
X041835Y020737D01*
X041835Y020714D02*
X041775Y020714D01*
X041775Y020737D02*
X041775Y020117D01*
X041766Y020117D01*
X041691Y020132D01*
X041620Y020162D01*
X041556Y020204D01*
X041502Y020259D01*
X041459Y020323D01*
X041430Y020394D01*
X041415Y020469D01*
X041415Y020737D01*
X041775Y020737D01*
X041775Y020772D02*
X041155Y020772D01*
X041155Y020714D02*
X041415Y020714D01*
X041415Y020655D02*
X041155Y020655D01*
X041155Y020597D02*
X041415Y020597D01*
X041415Y020538D02*
X041155Y020538D01*
X041155Y020480D02*
X041415Y020480D01*
X041424Y020421D02*
X041148Y020421D01*
X041155Y020438D02*
X041155Y021097D01*
X041101Y021226D01*
X041015Y021312D01*
X041015Y021354D01*
X040892Y021477D01*
X040892Y021477D01*
X040642Y021727D01*
X039218Y021727D01*
X039095Y021604D01*
X039095Y021430D01*
X039218Y021307D01*
X039590Y021307D01*
X039508Y021226D01*
X039455Y021097D01*
X039455Y020438D01*
X039508Y020309D01*
X039606Y020211D01*
X039735Y020157D01*
X039874Y020157D01*
X040003Y020211D01*
X040101Y020309D01*
X040155Y020438D01*
X040155Y021097D01*
X040101Y021226D01*
X040020Y021307D01*
X040468Y021307D01*
X040529Y021246D01*
X040508Y021226D01*
X040455Y021097D01*
X040455Y020438D01*
X040508Y020309D01*
X040606Y020211D01*
X040735Y020157D01*
X040874Y020157D01*
X041003Y020211D01*
X041101Y020309D01*
X041155Y020438D01*
X041124Y020363D02*
X041442Y020363D01*
X041471Y020304D02*
X041097Y020304D01*
X041038Y020246D02*
X041515Y020246D01*
X041582Y020187D02*
X040947Y020187D01*
X040663Y020187D02*
X039947Y020187D01*
X040038Y020246D02*
X040571Y020246D01*
X040513Y020304D02*
X040097Y020304D01*
X040124Y020363D02*
X040486Y020363D01*
X040462Y020421D02*
X040148Y020421D01*
X040155Y020480D02*
X040455Y020480D01*
X040455Y020538D02*
X040155Y020538D01*
X040155Y020597D02*
X040455Y020597D01*
X040455Y020655D02*
X040155Y020655D01*
X040155Y020714D02*
X040455Y020714D01*
X040455Y020772D02*
X040155Y020772D01*
X040155Y020831D02*
X040455Y020831D01*
X040455Y020889D02*
X040155Y020889D01*
X040155Y020948D02*
X040455Y020948D01*
X040455Y021006D02*
X040155Y021006D01*
X040155Y021065D02*
X040455Y021065D01*
X040466Y021123D02*
X040144Y021123D01*
X040120Y021182D02*
X040490Y021182D01*
X040523Y021240D02*
X040087Y021240D01*
X040028Y021299D02*
X040476Y021299D01*
X040778Y021591D02*
X041033Y021591D01*
X041091Y021533D02*
X040836Y021533D01*
X040895Y021474D02*
X041150Y021474D01*
X041208Y021416D02*
X040953Y021416D01*
X041012Y021357D02*
X041597Y021357D01*
X041525Y021299D02*
X041028Y021299D01*
X041087Y021240D02*
X041478Y021240D01*
X041447Y021182D02*
X041120Y021182D01*
X041144Y021123D02*
X041426Y021123D01*
X041415Y021065D02*
X041155Y021065D01*
X041155Y021006D02*
X041415Y021006D01*
X041415Y020948D02*
X041155Y020948D01*
X041155Y020889D02*
X041415Y020889D01*
X041415Y020831D02*
X041155Y020831D01*
X041775Y020655D02*
X041835Y020655D01*
X041835Y020597D02*
X041775Y020597D01*
X041775Y020538D02*
X041835Y020538D01*
X041835Y020480D02*
X041775Y020480D01*
X041775Y020421D02*
X041835Y020421D01*
X041835Y020363D02*
X041775Y020363D01*
X041775Y020304D02*
X041835Y020304D01*
X041835Y020246D02*
X041775Y020246D01*
X041775Y020187D02*
X041835Y020187D01*
X041835Y020129D02*
X041775Y020129D01*
X041708Y020129D02*
X022591Y020129D01*
X022591Y020187D02*
X038663Y020187D01*
X038571Y020246D02*
X022591Y020246D01*
X022591Y020304D02*
X038513Y020304D01*
X038486Y020363D02*
X031400Y020363D01*
X031499Y020421D02*
X038462Y020421D01*
X038455Y020480D02*
X031553Y020480D01*
X031578Y020538D02*
X038455Y020538D01*
X038455Y020597D02*
X031595Y020597D01*
X031595Y020655D02*
X038455Y020655D01*
X038455Y020714D02*
X031587Y020714D01*
X031563Y020772D02*
X038455Y020772D01*
X038455Y020831D02*
X037915Y020831D01*
X037974Y020889D02*
X038455Y020889D01*
X038455Y020948D02*
X038032Y020948D01*
X038091Y021006D02*
X038455Y021006D01*
X038455Y021065D02*
X038149Y021065D01*
X038208Y021123D02*
X038466Y021123D01*
X038490Y021182D02*
X038266Y021182D01*
X038325Y021240D02*
X038515Y021240D01*
X038515Y021299D02*
X038383Y021299D01*
X038442Y021357D02*
X038515Y021357D01*
X038515Y021416D02*
X038500Y021416D01*
X038515Y021474D02*
X038515Y021474D01*
X038515Y021533D02*
X038515Y021533D01*
X038515Y021591D02*
X038515Y021591D01*
X038515Y021650D02*
X038469Y021650D01*
X038515Y021708D02*
X038411Y021708D01*
X038199Y021708D02*
X030765Y021708D01*
X030765Y021650D02*
X038140Y021650D01*
X038082Y021591D02*
X030778Y021591D01*
X030836Y021533D02*
X038023Y021533D01*
X037965Y021474D02*
X030895Y021474D01*
X030953Y021416D02*
X037906Y021416D01*
X037848Y021357D02*
X031012Y021357D01*
X031070Y021299D02*
X037789Y021299D01*
X037731Y021240D02*
X031129Y021240D01*
X030827Y020948D02*
X022536Y020948D01*
X022551Y020889D02*
X023435Y020889D01*
X023368Y020831D02*
X022564Y020831D01*
X022578Y020772D02*
X023327Y020772D01*
X023303Y020714D02*
X022582Y020714D01*
X022586Y020655D02*
X023295Y020655D01*
X023295Y020597D02*
X022591Y020597D01*
X022591Y020538D02*
X023312Y020538D01*
X023336Y020480D02*
X022591Y020480D01*
X022591Y020421D02*
X023391Y020421D01*
X023490Y020363D02*
X022591Y020363D01*
X022591Y020070D02*
X048515Y020070D01*
X048515Y020012D02*
X022591Y020012D01*
X022591Y019953D02*
X048515Y019953D01*
X048515Y019895D02*
X022591Y019895D01*
X022591Y019836D02*
X048515Y019836D01*
X048515Y019778D02*
X022591Y019778D01*
X022591Y019719D02*
X048515Y019719D01*
X048515Y019661D02*
X022591Y019661D01*
X022591Y019602D02*
X048515Y019602D01*
X048515Y019544D02*
X022591Y019544D01*
X022591Y019485D02*
X048515Y019485D01*
X048515Y019427D02*
X022591Y019427D01*
X022591Y019368D02*
X048515Y019368D01*
X048515Y019310D02*
X022591Y019310D01*
X022591Y019251D02*
X048515Y019251D01*
X048515Y019193D02*
X022591Y019193D01*
X022514Y021006D02*
X030769Y021006D01*
X030710Y021065D02*
X022493Y021065D01*
X022466Y021123D02*
X025537Y021123D01*
X025549Y021111D02*
X025722Y021111D01*
X025791Y021180D01*
X027730Y021180D01*
X027799Y021111D01*
X027972Y021111D01*
X028094Y021234D01*
X028094Y021407D01*
X027972Y021530D01*
X027799Y021530D01*
X027730Y021460D01*
X027723Y021460D01*
X027775Y021512D01*
X028025Y021762D01*
X028025Y023665D01*
X028094Y023734D01*
X028094Y023907D01*
X027972Y024030D01*
X027799Y024030D01*
X027676Y023907D01*
X027676Y023734D01*
X027745Y023665D01*
X027745Y021878D01*
X027577Y021710D01*
X027291Y021710D01*
X027222Y021780D01*
X027049Y021780D01*
X026926Y021657D01*
X026926Y021484D01*
X026950Y021460D01*
X025791Y021460D01*
X025722Y021530D01*
X025549Y021530D01*
X025480Y021460D01*
X023775Y021460D01*
X023775Y025415D01*
X023844Y025484D01*
X023844Y025657D01*
X023722Y025780D01*
X023549Y025780D01*
X023426Y025657D01*
X023426Y025484D01*
X023495Y025415D01*
X023495Y021262D01*
X023577Y021180D01*
X025480Y021180D01*
X025549Y021111D01*
X025734Y021123D02*
X027787Y021123D01*
X027984Y021123D02*
X030652Y021123D01*
X030593Y021182D02*
X028042Y021182D01*
X028094Y021240D02*
X030535Y021240D01*
X030476Y021299D02*
X028094Y021299D01*
X028094Y021357D02*
X030418Y021357D01*
X030359Y021416D02*
X028086Y021416D01*
X028027Y021474D02*
X030345Y021474D01*
X030345Y021533D02*
X027796Y021533D01*
X027744Y021474D02*
X027737Y021474D01*
X027854Y021591D02*
X030345Y021591D01*
X030345Y021650D02*
X027913Y021650D01*
X027971Y021708D02*
X030345Y021708D01*
X030345Y021767D02*
X028025Y021767D01*
X028025Y021825D02*
X030345Y021825D01*
X030345Y021884D02*
X028025Y021884D01*
X028025Y021942D02*
X030345Y021942D01*
X030345Y022001D02*
X028025Y022001D01*
X028025Y022059D02*
X030345Y022059D01*
X030345Y022118D02*
X028025Y022118D01*
X028025Y022176D02*
X030345Y022176D01*
X030345Y022235D02*
X028025Y022235D01*
X028025Y022293D02*
X030345Y022293D01*
X030345Y022352D02*
X028025Y022352D01*
X028025Y022410D02*
X030345Y022410D01*
X030345Y022469D02*
X028025Y022469D01*
X028025Y022527D02*
X030345Y022527D01*
X030345Y022586D02*
X028025Y022586D01*
X028025Y022644D02*
X030345Y022644D01*
X030345Y022703D02*
X028025Y022703D01*
X028025Y022761D02*
X030345Y022761D01*
X030345Y022820D02*
X028025Y022820D01*
X028025Y022878D02*
X030345Y022878D01*
X030345Y022937D02*
X028025Y022937D01*
X028025Y022995D02*
X030345Y022995D01*
X030345Y023054D02*
X028025Y023054D01*
X028025Y023112D02*
X030345Y023112D01*
X030345Y023171D02*
X028025Y023171D01*
X028025Y023229D02*
X030296Y023229D01*
X030237Y023288D02*
X028025Y023288D01*
X028025Y023346D02*
X030179Y023346D01*
X030120Y023405D02*
X028025Y023405D01*
X028025Y023463D02*
X030062Y023463D01*
X030003Y023522D02*
X028025Y023522D01*
X028025Y023580D02*
X029945Y023580D01*
X029886Y023639D02*
X028025Y023639D01*
X028058Y023697D02*
X029845Y023697D01*
X029845Y023756D02*
X028094Y023756D01*
X028094Y023814D02*
X029845Y023814D01*
X029845Y023873D02*
X028094Y023873D01*
X028070Y023931D02*
X029845Y023931D01*
X029845Y023990D02*
X028012Y023990D01*
X027759Y023990D02*
X023775Y023990D01*
X023775Y024048D02*
X029845Y024048D01*
X029845Y024107D02*
X023775Y024107D01*
X023775Y024165D02*
X029845Y024165D01*
X029845Y024224D02*
X023775Y024224D01*
X023775Y024282D02*
X029845Y024282D01*
X029845Y024341D02*
X023775Y024341D01*
X023775Y024399D02*
X029845Y024399D01*
X029845Y024458D02*
X023775Y024458D01*
X023775Y024516D02*
X029845Y024516D01*
X029845Y024575D02*
X023775Y024575D01*
X023775Y024633D02*
X029845Y024633D01*
X029845Y024692D02*
X023775Y024692D01*
X023775Y024750D02*
X029845Y024750D01*
X029845Y024809D02*
X023775Y024809D01*
X023775Y024867D02*
X029845Y024867D01*
X029845Y024926D02*
X023775Y024926D01*
X023775Y024984D02*
X029845Y024984D01*
X029845Y025043D02*
X023775Y025043D01*
X023775Y025101D02*
X029845Y025101D01*
X029845Y025160D02*
X023775Y025160D01*
X023775Y025218D02*
X029845Y025218D01*
X029845Y025277D02*
X023775Y025277D01*
X023775Y025335D02*
X029845Y025335D01*
X029845Y025394D02*
X023775Y025394D01*
X023813Y025452D02*
X029845Y025452D01*
X029845Y025511D02*
X023844Y025511D01*
X023844Y025569D02*
X029845Y025569D01*
X029845Y025628D02*
X023844Y025628D01*
X023815Y025686D02*
X029845Y025686D01*
X029845Y025745D02*
X023757Y025745D01*
X023514Y025745D02*
X019935Y025745D01*
X019935Y025803D02*
X029845Y025803D01*
X029845Y025862D02*
X019935Y025862D01*
X019935Y025920D02*
X029845Y025920D01*
X029845Y025979D02*
X019935Y025979D01*
X019935Y026037D02*
X029794Y026037D01*
X029736Y026096D02*
X019935Y026096D01*
X019935Y026154D02*
X029677Y026154D01*
X029619Y026213D02*
X019935Y026213D01*
X019935Y026271D02*
X029560Y026271D01*
X029502Y026330D02*
X019935Y026330D01*
X019935Y026388D02*
X029443Y026388D01*
X029385Y026447D02*
X019935Y026447D01*
X019935Y026505D02*
X029326Y026505D01*
X029268Y026564D02*
X019935Y026564D01*
X019935Y026622D02*
X029209Y026622D01*
X029151Y026681D02*
X019935Y026681D01*
X019935Y026739D02*
X029092Y026739D01*
X029034Y026798D02*
X019935Y026798D01*
X019935Y026856D02*
X028975Y026856D01*
X028917Y026915D02*
X019935Y026915D01*
X019935Y026973D02*
X028858Y026973D01*
X028800Y027032D02*
X019935Y027032D01*
X019935Y027090D02*
X028741Y027090D01*
X028683Y027149D02*
X019935Y027149D01*
X019935Y027207D02*
X028624Y027207D01*
X028566Y027266D02*
X019935Y027266D01*
X019935Y027324D02*
X028507Y027324D01*
X028449Y027383D02*
X019935Y027383D01*
X019935Y027441D02*
X028390Y027441D01*
X028385Y027500D02*
X019935Y027500D01*
X019935Y027558D02*
X028385Y027558D01*
X028385Y027617D02*
X019935Y027617D01*
X019935Y027675D02*
X028385Y027675D01*
X028385Y027734D02*
X019935Y027734D01*
X019935Y027792D02*
X028385Y027792D01*
X028398Y027851D02*
X019935Y027851D01*
X019935Y027909D02*
X028456Y027909D01*
X028515Y027968D02*
X019935Y027968D01*
X019935Y028026D02*
X028573Y028026D01*
X028632Y028085D02*
X019935Y028085D01*
X019935Y028143D02*
X028690Y028143D01*
X028749Y028202D02*
X019935Y028202D01*
X019935Y028260D02*
X028807Y028260D01*
X028866Y028319D02*
X019935Y028319D01*
X019935Y028377D02*
X028924Y028377D01*
X028983Y028436D02*
X019935Y028436D01*
X019935Y028494D02*
X029041Y028494D01*
X029145Y031361D02*
X019935Y031361D01*
X019935Y031419D02*
X029145Y031419D01*
X029145Y031478D02*
X019935Y031478D01*
X019935Y031536D02*
X029145Y031536D01*
X029145Y031595D02*
X019935Y031595D01*
X019935Y031653D02*
X029145Y031653D01*
X029145Y031712D02*
X019935Y031712D01*
X019935Y031770D02*
X029145Y031770D01*
X029145Y031829D02*
X019935Y031829D01*
X019935Y031887D02*
X029145Y031887D01*
X029145Y031946D02*
X019935Y031946D01*
X019935Y032004D02*
X029145Y032004D01*
X029145Y032063D02*
X024646Y032063D01*
X024704Y032121D02*
X029145Y032121D01*
X029145Y032414D02*
X024704Y032414D01*
X024645Y032472D02*
X029145Y032472D01*
X029145Y032531D02*
X019935Y032531D01*
X019935Y032589D02*
X022687Y032589D01*
X022629Y032648D02*
X019935Y032648D01*
X019935Y032706D02*
X022596Y032706D01*
X022596Y032765D02*
X019935Y032765D01*
X019935Y032823D02*
X022596Y032823D01*
X022624Y032882D02*
X019935Y032882D01*
X019935Y032940D02*
X022682Y032940D01*
X022838Y032999D02*
X019935Y032999D01*
X019935Y033057D02*
X022897Y033057D01*
X022955Y033116D02*
X019935Y033116D01*
X019935Y033174D02*
X023014Y033174D01*
X023072Y033233D02*
X019935Y033233D01*
X019935Y033291D02*
X023131Y033291D01*
X023189Y033350D02*
X019935Y033350D01*
X019935Y033408D02*
X023248Y033408D01*
X023306Y033467D02*
X019935Y033467D01*
X019935Y033525D02*
X023365Y033525D01*
X023423Y033584D02*
X019935Y033584D01*
X019935Y033642D02*
X023482Y033642D01*
X023540Y033701D02*
X019935Y033701D01*
X019935Y033759D02*
X023599Y033759D01*
X023657Y033818D02*
X019935Y033818D01*
X019935Y033876D02*
X023716Y033876D01*
X023774Y033935D02*
X019935Y033935D01*
X019935Y033993D02*
X023833Y033993D01*
X023891Y034052D02*
X019935Y034052D01*
X019935Y034110D02*
X023950Y034110D01*
X024053Y033818D02*
X029510Y033818D01*
X029496Y033759D02*
X023995Y033759D01*
X023936Y033701D02*
X029153Y033701D01*
X029094Y033642D02*
X023878Y033642D01*
X023819Y033584D02*
X029076Y033584D01*
X029076Y033525D02*
X023761Y033525D01*
X023702Y033467D02*
X029076Y033467D01*
X029118Y033408D02*
X023644Y033408D01*
X023585Y033350D02*
X029145Y033350D01*
X029145Y033291D02*
X023527Y033291D01*
X023468Y033233D02*
X029145Y033233D01*
X029145Y033174D02*
X023410Y033174D01*
X023351Y033116D02*
X029145Y033116D01*
X029145Y033057D02*
X023293Y033057D01*
X023234Y032999D02*
X029145Y032999D01*
X029145Y032940D02*
X023176Y032940D01*
X023117Y032882D02*
X029145Y032882D01*
X029145Y032823D02*
X023059Y032823D01*
X023014Y032765D02*
X029145Y032765D01*
X029145Y032706D02*
X023014Y032706D01*
X022981Y032648D02*
X029145Y032648D01*
X029145Y032589D02*
X022922Y032589D01*
X024347Y032355D02*
X019935Y032355D01*
X019935Y032297D02*
X024346Y032297D01*
X024346Y032238D02*
X019935Y032238D01*
X019935Y032180D02*
X024347Y032180D01*
X024405Y032121D02*
X019935Y032121D01*
X019935Y032063D02*
X024464Y032063D01*
X024406Y032414D02*
X019935Y032414D01*
X019935Y032472D02*
X024464Y032472D01*
X024786Y030951D02*
X021894Y030951D01*
X019935Y034169D02*
X024705Y034169D01*
X024647Y034227D02*
X019935Y034227D01*
X019935Y034286D02*
X024588Y034286D01*
X024432Y034344D02*
X019935Y034344D01*
X019935Y034403D02*
X024374Y034403D01*
X024346Y034461D02*
X019935Y034461D01*
X019935Y034520D02*
X024346Y034520D01*
X024346Y034578D02*
X019935Y034578D01*
X019935Y034637D02*
X024379Y034637D01*
X024437Y034695D02*
X019935Y034695D01*
X019935Y034754D02*
X051171Y034754D01*
X051171Y034812D02*
X019935Y034812D01*
X019935Y034871D02*
X051171Y034871D01*
X051171Y034929D02*
X047956Y034929D01*
X048014Y034954D02*
X048118Y035058D01*
X048175Y035194D01*
X048175Y035341D01*
X048118Y035477D01*
X048014Y035581D01*
X047878Y035637D01*
X047731Y035637D01*
X047595Y035581D01*
X047491Y035477D01*
X047435Y035341D01*
X047435Y035194D01*
X047491Y035058D01*
X047595Y034954D01*
X047731Y034897D01*
X047878Y034897D01*
X048014Y034954D01*
X048049Y034988D02*
X051171Y034988D01*
X051171Y035046D02*
X048107Y035046D01*
X048138Y035105D02*
X051171Y035105D01*
X051171Y035163D02*
X048162Y035163D01*
X048175Y035222D02*
X051171Y035222D01*
X051171Y035280D02*
X048175Y035280D01*
X048175Y035339D02*
X051171Y035339D01*
X051171Y035397D02*
X048151Y035397D01*
X048127Y035456D02*
X051171Y035456D01*
X051171Y035514D02*
X048081Y035514D01*
X048022Y035573D02*
X049379Y035573D01*
X049224Y035631D02*
X047893Y035631D01*
X047717Y035631D02*
X046964Y035631D01*
X046958Y035637D02*
X046651Y035637D01*
X046435Y035421D01*
X046435Y035114D01*
X046651Y034897D01*
X046958Y034897D01*
X047175Y035114D01*
X047175Y035421D01*
X046958Y035637D01*
X047022Y035573D02*
X047587Y035573D01*
X047529Y035514D02*
X047081Y035514D01*
X047139Y035456D02*
X047482Y035456D01*
X047458Y035397D02*
X047175Y035397D01*
X047175Y035339D02*
X047435Y035339D01*
X047435Y035280D02*
X047175Y035280D01*
X047175Y035222D02*
X047435Y035222D01*
X047447Y035163D02*
X047175Y035163D01*
X047166Y035105D02*
X047472Y035105D01*
X047502Y035046D02*
X047107Y035046D01*
X047049Y034988D02*
X047561Y034988D01*
X047654Y034929D02*
X046990Y034929D01*
X046619Y034929D02*
X045990Y034929D01*
X045958Y034897D02*
X046175Y035114D01*
X046175Y035421D01*
X045958Y035637D01*
X045651Y035637D01*
X045435Y035421D01*
X045435Y035114D01*
X045651Y034897D01*
X045958Y034897D01*
X046049Y034988D02*
X046561Y034988D01*
X046502Y035046D02*
X046107Y035046D01*
X046166Y035105D02*
X046444Y035105D01*
X046435Y035163D02*
X046175Y035163D01*
X046175Y035222D02*
X046435Y035222D01*
X046435Y035280D02*
X046175Y035280D01*
X046175Y035339D02*
X046435Y035339D01*
X046435Y035397D02*
X046175Y035397D01*
X046139Y035456D02*
X046470Y035456D01*
X046529Y035514D02*
X046081Y035514D01*
X046022Y035573D02*
X046587Y035573D01*
X046646Y035631D02*
X045964Y035631D01*
X045958Y035897D02*
X046175Y036114D01*
X046175Y036421D01*
X045958Y036637D01*
X045651Y036637D01*
X045435Y036421D01*
X045435Y036114D01*
X045651Y035897D01*
X045958Y035897D01*
X045985Y035924D02*
X046625Y035924D01*
X046651Y035897D02*
X046958Y035897D01*
X047175Y036114D01*
X047175Y036421D01*
X046958Y036637D01*
X046651Y036637D01*
X046435Y036421D01*
X046435Y036114D01*
X046651Y035897D01*
X046566Y035982D02*
X046043Y035982D01*
X046102Y036041D02*
X046508Y036041D01*
X046449Y036099D02*
X046160Y036099D01*
X046175Y036158D02*
X046435Y036158D01*
X046435Y036216D02*
X046175Y036216D01*
X046175Y036275D02*
X046435Y036275D01*
X046435Y036333D02*
X046175Y036333D01*
X046175Y036392D02*
X046435Y036392D01*
X046465Y036450D02*
X046145Y036450D01*
X046086Y036509D02*
X046523Y036509D01*
X046582Y036567D02*
X046028Y036567D01*
X045969Y036626D02*
X046640Y036626D01*
X046969Y036626D02*
X047640Y036626D01*
X047651Y036637D02*
X047435Y036421D01*
X047435Y036114D01*
X047651Y035897D01*
X047958Y035897D01*
X048175Y036114D01*
X048175Y036421D01*
X047958Y036637D01*
X047651Y036637D01*
X047582Y036567D02*
X047028Y036567D01*
X047086Y036509D02*
X047523Y036509D01*
X047465Y036450D02*
X047145Y036450D01*
X047175Y036392D02*
X047435Y036392D01*
X047435Y036333D02*
X047175Y036333D01*
X047175Y036275D02*
X047435Y036275D01*
X047435Y036216D02*
X047175Y036216D01*
X047175Y036158D02*
X047435Y036158D01*
X047449Y036099D02*
X047160Y036099D01*
X047102Y036041D02*
X047508Y036041D01*
X047566Y035982D02*
X047043Y035982D01*
X046985Y035924D02*
X047625Y035924D01*
X047985Y035924D02*
X048827Y035924D01*
X048779Y035982D02*
X048043Y035982D01*
X048102Y036041D02*
X048736Y036041D01*
X048696Y036099D02*
X048160Y036099D01*
X048175Y036158D02*
X048664Y036158D01*
X048632Y036216D02*
X048175Y036216D01*
X048175Y036275D02*
X048608Y036275D01*
X048586Y036333D02*
X048175Y036333D01*
X048175Y036392D02*
X048564Y036392D01*
X048551Y036450D02*
X048145Y036450D01*
X048086Y036509D02*
X048539Y036509D01*
X048526Y036567D02*
X048028Y036567D01*
X047969Y036626D02*
X048523Y036626D01*
X048518Y036684D02*
X022587Y036684D01*
X022583Y036626D02*
X032640Y036626D01*
X032651Y036637D02*
X032435Y036421D01*
X032435Y036114D01*
X032651Y035897D01*
X032958Y035897D01*
X033175Y036114D01*
X033175Y036421D01*
X032958Y036637D01*
X032651Y036637D01*
X032582Y036567D02*
X022580Y036567D01*
X022567Y036509D02*
X032523Y036509D01*
X032465Y036450D02*
X022554Y036450D01*
X022541Y036392D02*
X032435Y036392D01*
X032435Y036333D02*
X022520Y036333D01*
X022498Y036275D02*
X032435Y036275D01*
X032435Y036216D02*
X022473Y036216D01*
X022441Y036158D02*
X032435Y036158D01*
X032449Y036099D02*
X022410Y036099D01*
X022370Y036041D02*
X032508Y036041D01*
X032566Y035982D02*
X022326Y035982D01*
X022278Y035924D02*
X032625Y035924D01*
X032651Y035637D02*
X032435Y035421D01*
X032435Y035114D01*
X032651Y034897D01*
X032958Y034897D01*
X033175Y035114D01*
X033175Y035421D01*
X032958Y035637D01*
X032651Y035637D01*
X032646Y035631D02*
X021881Y035631D01*
X021988Y035690D02*
X049117Y035690D01*
X049026Y035748D02*
X022079Y035748D01*
X022157Y035807D02*
X048948Y035807D01*
X048886Y035865D02*
X022220Y035865D01*
X021726Y035573D02*
X032587Y035573D01*
X032529Y035514D02*
X019935Y035514D01*
X019935Y035456D02*
X032470Y035456D01*
X032435Y035397D02*
X019935Y035397D01*
X019935Y035339D02*
X032435Y035339D01*
X032435Y035280D02*
X019935Y035280D01*
X019935Y035222D02*
X032435Y035222D01*
X032435Y035163D02*
X019935Y035163D01*
X019935Y035105D02*
X032444Y035105D01*
X032502Y035046D02*
X019935Y035046D01*
X019935Y034988D02*
X032561Y034988D01*
X032619Y034929D02*
X019935Y034929D01*
X022591Y036743D02*
X048514Y036743D01*
X048515Y036801D02*
X022591Y036801D01*
X022591Y036860D02*
X048515Y036860D01*
X048515Y036918D02*
X022591Y036918D01*
X022591Y036977D02*
X048515Y036977D01*
X048515Y037035D02*
X022591Y037035D01*
X022591Y037094D02*
X048515Y037094D01*
X048515Y037152D02*
X022591Y037152D01*
X022591Y037211D02*
X048515Y037211D01*
X048515Y037269D02*
X022591Y037269D01*
X022591Y037328D02*
X048515Y037328D01*
X048515Y037386D02*
X022591Y037386D01*
X022591Y037445D02*
X048515Y037445D01*
X048515Y037503D02*
X022591Y037503D01*
X022591Y037562D02*
X048515Y037562D01*
X048515Y037620D02*
X022591Y037620D01*
X022591Y037679D02*
X048515Y037679D01*
X048515Y037737D02*
X022591Y037737D01*
X022591Y037796D02*
X048515Y037796D01*
X048515Y037854D02*
X022591Y037854D01*
X022591Y037913D02*
X048515Y037913D01*
X048515Y037971D02*
X022591Y037971D01*
X022591Y038030D02*
X048515Y038030D01*
X048515Y038088D02*
X022591Y038088D01*
X022591Y038147D02*
X048515Y038147D01*
X045640Y036626D02*
X044969Y036626D01*
X044958Y036637D02*
X044651Y036637D01*
X044435Y036421D01*
X044435Y036114D01*
X044651Y035897D01*
X044958Y035897D01*
X045175Y036114D01*
X045175Y036421D01*
X044958Y036637D01*
X045028Y036567D02*
X045582Y036567D01*
X045523Y036509D02*
X045086Y036509D01*
X045145Y036450D02*
X045465Y036450D01*
X045435Y036392D02*
X045175Y036392D01*
X045175Y036333D02*
X045435Y036333D01*
X045435Y036275D02*
X045175Y036275D01*
X045175Y036216D02*
X045435Y036216D01*
X045435Y036158D02*
X045175Y036158D01*
X045160Y036099D02*
X045449Y036099D01*
X045508Y036041D02*
X045102Y036041D01*
X045043Y035982D02*
X045566Y035982D01*
X045625Y035924D02*
X044985Y035924D01*
X044958Y035637D02*
X044651Y035637D01*
X044435Y035421D01*
X044435Y035114D01*
X044651Y034897D01*
X044958Y034897D01*
X045175Y035114D01*
X045175Y035421D01*
X044958Y035637D01*
X044964Y035631D02*
X045646Y035631D01*
X045587Y035573D02*
X045022Y035573D01*
X045081Y035514D02*
X045529Y035514D01*
X045470Y035456D02*
X045139Y035456D01*
X045175Y035397D02*
X045435Y035397D01*
X045435Y035339D02*
X045175Y035339D01*
X045175Y035280D02*
X045435Y035280D01*
X045435Y035222D02*
X045175Y035222D01*
X045175Y035163D02*
X045435Y035163D01*
X045444Y035105D02*
X045166Y035105D01*
X045107Y035046D02*
X045502Y035046D01*
X045561Y034988D02*
X045049Y034988D01*
X044990Y034929D02*
X045619Y034929D01*
X044619Y034929D02*
X043990Y034929D01*
X043958Y034897D02*
X044175Y035114D01*
X044175Y035421D01*
X043958Y035637D01*
X043651Y035637D01*
X043435Y035421D01*
X043435Y035114D01*
X043651Y034897D01*
X043958Y034897D01*
X044049Y034988D02*
X044561Y034988D01*
X044502Y035046D02*
X044107Y035046D01*
X044166Y035105D02*
X044444Y035105D01*
X044435Y035163D02*
X044175Y035163D01*
X044175Y035222D02*
X044435Y035222D01*
X044435Y035280D02*
X044175Y035280D01*
X044175Y035339D02*
X044435Y035339D01*
X044435Y035397D02*
X044175Y035397D01*
X044139Y035456D02*
X044470Y035456D01*
X044529Y035514D02*
X044081Y035514D01*
X044022Y035573D02*
X044587Y035573D01*
X044646Y035631D02*
X043964Y035631D01*
X043958Y035897D02*
X044175Y036114D01*
X044175Y036421D01*
X043958Y036637D01*
X043651Y036637D01*
X043435Y036421D01*
X043435Y036114D01*
X043651Y035897D01*
X043958Y035897D01*
X043985Y035924D02*
X044625Y035924D01*
X044566Y035982D02*
X044043Y035982D01*
X044102Y036041D02*
X044508Y036041D01*
X044449Y036099D02*
X044160Y036099D01*
X044175Y036158D02*
X044435Y036158D01*
X044435Y036216D02*
X044175Y036216D01*
X044175Y036275D02*
X044435Y036275D01*
X044435Y036333D02*
X044175Y036333D01*
X044175Y036392D02*
X044435Y036392D01*
X044465Y036450D02*
X044145Y036450D01*
X044086Y036509D02*
X044523Y036509D01*
X044582Y036567D02*
X044028Y036567D01*
X043969Y036626D02*
X044640Y036626D01*
X043640Y036626D02*
X042969Y036626D01*
X042958Y036637D02*
X042651Y036637D01*
X042435Y036421D01*
X042435Y036114D01*
X042651Y035897D01*
X042958Y035897D01*
X043175Y036114D01*
X043175Y036421D01*
X042958Y036637D01*
X043028Y036567D02*
X043582Y036567D01*
X043523Y036509D02*
X043086Y036509D01*
X043145Y036450D02*
X043465Y036450D01*
X043435Y036392D02*
X043175Y036392D01*
X043175Y036333D02*
X043435Y036333D01*
X043435Y036275D02*
X043175Y036275D01*
X043175Y036216D02*
X043435Y036216D01*
X043435Y036158D02*
X043175Y036158D01*
X043160Y036099D02*
X043449Y036099D01*
X043508Y036041D02*
X043102Y036041D01*
X043043Y035982D02*
X043566Y035982D01*
X043625Y035924D02*
X042985Y035924D01*
X042958Y035637D02*
X042651Y035637D01*
X042435Y035421D01*
X042435Y035114D01*
X042651Y034897D01*
X042958Y034897D01*
X043175Y035114D01*
X043175Y035421D01*
X042958Y035637D01*
X042964Y035631D02*
X043646Y035631D01*
X043587Y035573D02*
X043022Y035573D01*
X043081Y035514D02*
X043529Y035514D01*
X043470Y035456D02*
X043139Y035456D01*
X043175Y035397D02*
X043435Y035397D01*
X043435Y035339D02*
X043175Y035339D01*
X043175Y035280D02*
X043435Y035280D01*
X043435Y035222D02*
X043175Y035222D01*
X043175Y035163D02*
X043435Y035163D01*
X043444Y035105D02*
X043166Y035105D01*
X043107Y035046D02*
X043502Y035046D01*
X043561Y034988D02*
X043049Y034988D01*
X042990Y034929D02*
X043619Y034929D01*
X043846Y034403D02*
X024867Y034403D01*
X024809Y034461D02*
X051171Y034461D01*
X051171Y034403D02*
X044026Y034403D01*
X044085Y034344D02*
X051171Y034344D01*
X051171Y034286D02*
X044143Y034286D01*
X044145Y034227D02*
X051171Y034227D01*
X051171Y034169D02*
X044145Y034169D01*
X044145Y034110D02*
X051171Y034110D01*
X051171Y034052D02*
X044086Y034052D01*
X044028Y033993D02*
X051171Y033993D01*
X051171Y033935D02*
X043605Y033935D01*
X043605Y033993D02*
X043845Y033993D01*
X043786Y034052D02*
X043597Y034052D01*
X043605Y033876D02*
X051171Y033876D01*
X051171Y033818D02*
X043552Y033818D01*
X043494Y033759D02*
X051171Y033759D01*
X051171Y033701D02*
X043491Y033701D01*
X043549Y033642D02*
X051171Y033642D01*
X051171Y033584D02*
X043608Y033584D01*
X043666Y033525D02*
X051171Y033525D01*
X051171Y033467D02*
X043725Y033467D01*
X043783Y033408D02*
X051171Y033408D01*
X051171Y033350D02*
X043842Y033350D01*
X043900Y033291D02*
X051171Y033291D01*
X051171Y033233D02*
X043959Y033233D01*
X044017Y033174D02*
X051171Y033174D01*
X051171Y033116D02*
X044076Y033116D01*
X044134Y033057D02*
X051171Y033057D01*
X051171Y032999D02*
X044193Y032999D01*
X044251Y032940D02*
X051171Y032940D01*
X051171Y032882D02*
X044310Y032882D01*
X044368Y032823D02*
X051171Y032823D01*
X051171Y032765D02*
X044427Y032765D01*
X044485Y032706D02*
X051171Y032706D01*
X051171Y032648D02*
X044544Y032648D01*
X044602Y032589D02*
X051171Y032589D01*
X051171Y032531D02*
X044661Y032531D01*
X044719Y032472D02*
X051171Y032472D01*
X051171Y032414D02*
X044778Y032414D01*
X044836Y032355D02*
X051171Y032355D01*
X051171Y032297D02*
X044895Y032297D01*
X044953Y032238D02*
X051171Y032238D01*
X051171Y032180D02*
X045012Y032180D01*
X045036Y032121D02*
X051171Y032121D01*
X051171Y032063D02*
X045036Y032063D01*
X045036Y032004D02*
X051171Y032004D01*
X051171Y031946D02*
X045036Y031946D01*
X045004Y031887D02*
X051171Y031887D01*
X051171Y031829D02*
X044946Y031829D01*
X044887Y031770D02*
X051171Y031770D01*
X051171Y031712D02*
X044829Y031712D01*
X044805Y031653D02*
X051171Y031653D01*
X051171Y031595D02*
X044805Y031595D01*
X044751Y031536D02*
X051171Y031536D01*
X051171Y031478D02*
X044692Y031478D01*
X044214Y031478D02*
X040656Y031478D01*
X040598Y031536D02*
X044214Y031536D01*
X044214Y031595D02*
X040539Y031595D01*
X040481Y031653D02*
X044177Y031653D01*
X044214Y031419D02*
X040715Y031419D01*
X040773Y031361D02*
X044214Y031361D01*
X044214Y031302D02*
X040832Y031302D01*
X040890Y031244D02*
X044214Y031244D01*
X044214Y031185D02*
X040949Y031185D01*
X041007Y031127D02*
X044214Y031127D01*
X044214Y031068D02*
X041121Y031068D01*
X041179Y031010D02*
X044214Y031010D01*
X044214Y030951D02*
X041205Y030951D01*
X041205Y030893D02*
X044214Y030893D01*
X044214Y030834D02*
X041205Y030834D01*
X041170Y030776D02*
X044214Y030776D01*
X044214Y030717D02*
X041194Y030717D01*
X041253Y030659D02*
X044214Y030659D01*
X044214Y030600D02*
X041311Y030600D01*
X041370Y030542D02*
X044214Y030542D01*
X044214Y030483D02*
X041428Y030483D01*
X041487Y030425D02*
X044214Y030425D01*
X044214Y030366D02*
X041545Y030366D01*
X041604Y030308D02*
X044214Y030308D01*
X044214Y030249D02*
X041662Y030249D01*
X041378Y030038D02*
X041378Y029918D01*
X041378Y030038D02*
X040238Y031178D01*
X039833Y033057D02*
X043362Y033057D01*
X043420Y032999D02*
X038792Y032999D01*
X038792Y032940D02*
X043479Y032940D01*
X043537Y032882D02*
X043118Y032882D01*
X043303Y033116D02*
X039892Y033116D01*
X039907Y033174D02*
X043245Y033174D01*
X043186Y033233D02*
X039907Y033233D01*
X039907Y033291D02*
X043128Y033291D01*
X043069Y033350D02*
X039863Y033350D01*
X039804Y033408D02*
X043011Y033408D01*
X043017Y033957D02*
X042997Y033978D01*
X043788Y034344D02*
X024926Y034344D01*
X024764Y034520D02*
X051171Y034520D01*
X051171Y034578D02*
X024764Y034578D01*
X024731Y034637D02*
X051171Y034637D01*
X051171Y034695D02*
X024672Y034695D01*
X029417Y033701D02*
X029496Y033701D01*
X029496Y033642D02*
X029475Y033642D01*
X029494Y033584D02*
X029543Y033584D01*
X029494Y033525D02*
X029601Y033525D01*
X029494Y033467D02*
X029757Y033467D01*
X029816Y033408D02*
X029451Y033408D01*
X029425Y033350D02*
X029874Y033350D01*
X030854Y033408D02*
X039593Y033408D01*
X039651Y034897D02*
X039958Y034897D01*
X040175Y035114D01*
X040175Y035421D01*
X039958Y035637D01*
X039651Y035637D01*
X039435Y035421D01*
X039435Y035114D01*
X039651Y034897D01*
X039619Y034929D02*
X038990Y034929D01*
X038958Y034897D02*
X039175Y035114D01*
X039175Y035421D01*
X038958Y035637D01*
X038651Y035637D01*
X038435Y035421D01*
X038435Y035114D01*
X038651Y034897D01*
X038958Y034897D01*
X039049Y034988D02*
X039561Y034988D01*
X039502Y035046D02*
X039107Y035046D01*
X039166Y035105D02*
X039444Y035105D01*
X039435Y035163D02*
X039175Y035163D01*
X039175Y035222D02*
X039435Y035222D01*
X039435Y035280D02*
X039175Y035280D01*
X039175Y035339D02*
X039435Y035339D01*
X039435Y035397D02*
X039175Y035397D01*
X039139Y035456D02*
X039470Y035456D01*
X039529Y035514D02*
X039081Y035514D01*
X039022Y035573D02*
X039587Y035573D01*
X039646Y035631D02*
X038964Y035631D01*
X038958Y035897D02*
X039175Y036114D01*
X039175Y036421D01*
X038958Y036637D01*
X038651Y036637D01*
X038435Y036421D01*
X038435Y036114D01*
X038651Y035897D01*
X038958Y035897D01*
X038985Y035924D02*
X039625Y035924D01*
X039651Y035897D02*
X039958Y035897D01*
X040175Y036114D01*
X040175Y036421D01*
X039958Y036637D01*
X039651Y036637D01*
X039435Y036421D01*
X039435Y036114D01*
X039651Y035897D01*
X039566Y035982D02*
X039043Y035982D01*
X039102Y036041D02*
X039508Y036041D01*
X039449Y036099D02*
X039160Y036099D01*
X039175Y036158D02*
X039435Y036158D01*
X039435Y036216D02*
X039175Y036216D01*
X039175Y036275D02*
X039435Y036275D01*
X039435Y036333D02*
X039175Y036333D01*
X039175Y036392D02*
X039435Y036392D01*
X039465Y036450D02*
X039145Y036450D01*
X039086Y036509D02*
X039523Y036509D01*
X039582Y036567D02*
X039028Y036567D01*
X038969Y036626D02*
X039640Y036626D01*
X039969Y036626D02*
X040640Y036626D01*
X040651Y036637D02*
X040435Y036421D01*
X040435Y036114D01*
X040651Y035897D01*
X040958Y035897D01*
X041175Y036114D01*
X041175Y036421D01*
X040958Y036637D01*
X040651Y036637D01*
X040582Y036567D02*
X040028Y036567D01*
X040086Y036509D02*
X040523Y036509D01*
X040465Y036450D02*
X040145Y036450D01*
X040175Y036392D02*
X040435Y036392D01*
X040435Y036333D02*
X040175Y036333D01*
X040175Y036275D02*
X040435Y036275D01*
X040435Y036216D02*
X040175Y036216D01*
X040175Y036158D02*
X040435Y036158D01*
X040449Y036099D02*
X040160Y036099D01*
X040102Y036041D02*
X040508Y036041D01*
X040566Y035982D02*
X040043Y035982D01*
X039985Y035924D02*
X040625Y035924D01*
X040651Y035637D02*
X040435Y035421D01*
X040435Y035114D01*
X040651Y034897D01*
X040958Y034897D01*
X041175Y035114D01*
X041175Y035421D01*
X040958Y035637D01*
X040651Y035637D01*
X040646Y035631D02*
X039964Y035631D01*
X040022Y035573D02*
X040587Y035573D01*
X040529Y035514D02*
X040081Y035514D01*
X040139Y035456D02*
X040470Y035456D01*
X040435Y035397D02*
X040175Y035397D01*
X040175Y035339D02*
X040435Y035339D01*
X040435Y035280D02*
X040175Y035280D01*
X040175Y035222D02*
X040435Y035222D01*
X040435Y035163D02*
X040175Y035163D01*
X040166Y035105D02*
X040444Y035105D01*
X040502Y035046D02*
X040107Y035046D01*
X040049Y034988D02*
X040561Y034988D01*
X040619Y034929D02*
X039990Y034929D01*
X040990Y034929D02*
X041619Y034929D01*
X041651Y034897D02*
X041958Y034897D01*
X042175Y035114D01*
X042175Y035421D01*
X041958Y035637D01*
X041651Y035637D01*
X041435Y035421D01*
X041435Y035114D01*
X041651Y034897D01*
X041561Y034988D02*
X041049Y034988D01*
X041107Y035046D02*
X041502Y035046D01*
X041444Y035105D02*
X041166Y035105D01*
X041175Y035163D02*
X041435Y035163D01*
X041435Y035222D02*
X041175Y035222D01*
X041175Y035280D02*
X041435Y035280D01*
X041435Y035339D02*
X041175Y035339D01*
X041175Y035397D02*
X041435Y035397D01*
X041470Y035456D02*
X041139Y035456D01*
X041081Y035514D02*
X041529Y035514D01*
X041587Y035573D02*
X041022Y035573D01*
X040964Y035631D02*
X041646Y035631D01*
X041651Y035897D02*
X041958Y035897D01*
X042175Y036114D01*
X042175Y036421D01*
X041958Y036637D01*
X041651Y036637D01*
X041435Y036421D01*
X041435Y036114D01*
X041651Y035897D01*
X041625Y035924D02*
X040985Y035924D01*
X041043Y035982D02*
X041566Y035982D01*
X041508Y036041D02*
X041102Y036041D01*
X041160Y036099D02*
X041449Y036099D01*
X041435Y036158D02*
X041175Y036158D01*
X041175Y036216D02*
X041435Y036216D01*
X041435Y036275D02*
X041175Y036275D01*
X041175Y036333D02*
X041435Y036333D01*
X041435Y036392D02*
X041175Y036392D01*
X041145Y036450D02*
X041465Y036450D01*
X041523Y036509D02*
X041086Y036509D01*
X041028Y036567D02*
X041582Y036567D01*
X041640Y036626D02*
X040969Y036626D01*
X041969Y036626D02*
X042640Y036626D01*
X042582Y036567D02*
X042028Y036567D01*
X042086Y036509D02*
X042523Y036509D01*
X042465Y036450D02*
X042145Y036450D01*
X042175Y036392D02*
X042435Y036392D01*
X042435Y036333D02*
X042175Y036333D01*
X042175Y036275D02*
X042435Y036275D01*
X042435Y036216D02*
X042175Y036216D01*
X042175Y036158D02*
X042435Y036158D01*
X042449Y036099D02*
X042160Y036099D01*
X042102Y036041D02*
X042508Y036041D01*
X042566Y035982D02*
X042043Y035982D01*
X041985Y035924D02*
X042625Y035924D01*
X042646Y035631D02*
X041964Y035631D01*
X042022Y035573D02*
X042587Y035573D01*
X042529Y035514D02*
X042081Y035514D01*
X042139Y035456D02*
X042470Y035456D01*
X042435Y035397D02*
X042175Y035397D01*
X042175Y035339D02*
X042435Y035339D01*
X042435Y035280D02*
X042175Y035280D01*
X042175Y035222D02*
X042435Y035222D01*
X042435Y035163D02*
X042175Y035163D01*
X042166Y035105D02*
X042444Y035105D01*
X042502Y035046D02*
X042107Y035046D01*
X042049Y034988D02*
X042561Y034988D01*
X042619Y034929D02*
X041990Y034929D01*
X038619Y034929D02*
X037990Y034929D01*
X037958Y034897D02*
X038175Y035114D01*
X038175Y035421D01*
X037958Y035637D01*
X037651Y035637D01*
X037435Y035421D01*
X037435Y035114D01*
X037651Y034897D01*
X037958Y034897D01*
X038049Y034988D02*
X038561Y034988D01*
X038502Y035046D02*
X038107Y035046D01*
X038166Y035105D02*
X038444Y035105D01*
X038435Y035163D02*
X038175Y035163D01*
X038175Y035222D02*
X038435Y035222D01*
X038435Y035280D02*
X038175Y035280D01*
X038175Y035339D02*
X038435Y035339D01*
X038435Y035397D02*
X038175Y035397D01*
X038139Y035456D02*
X038470Y035456D01*
X038529Y035514D02*
X038081Y035514D01*
X038022Y035573D02*
X038587Y035573D01*
X038646Y035631D02*
X037964Y035631D01*
X037958Y035897D02*
X037651Y035897D01*
X037435Y036114D01*
X037435Y036421D01*
X037651Y036637D01*
X037958Y036637D01*
X038175Y036421D01*
X038175Y036114D01*
X037958Y035897D01*
X037985Y035924D02*
X038625Y035924D01*
X038566Y035982D02*
X038043Y035982D01*
X038102Y036041D02*
X038508Y036041D01*
X038449Y036099D02*
X038160Y036099D01*
X038175Y036158D02*
X038435Y036158D01*
X038435Y036216D02*
X038175Y036216D01*
X038175Y036275D02*
X038435Y036275D01*
X038435Y036333D02*
X038175Y036333D01*
X038175Y036392D02*
X038435Y036392D01*
X038465Y036450D02*
X038145Y036450D01*
X038086Y036509D02*
X038523Y036509D01*
X038582Y036567D02*
X038028Y036567D01*
X037969Y036626D02*
X038640Y036626D01*
X037640Y036626D02*
X036969Y036626D01*
X036958Y036637D02*
X036651Y036637D01*
X036435Y036421D01*
X036435Y036114D01*
X036651Y035897D01*
X036958Y035897D01*
X037175Y036114D01*
X037175Y036421D01*
X036958Y036637D01*
X037028Y036567D02*
X037582Y036567D01*
X037523Y036509D02*
X037086Y036509D01*
X037145Y036450D02*
X037465Y036450D01*
X037435Y036392D02*
X037175Y036392D01*
X037175Y036333D02*
X037435Y036333D01*
X037435Y036275D02*
X037175Y036275D01*
X037175Y036216D02*
X037435Y036216D01*
X037435Y036158D02*
X037175Y036158D01*
X037160Y036099D02*
X037449Y036099D01*
X037508Y036041D02*
X037102Y036041D01*
X037043Y035982D02*
X037566Y035982D01*
X037625Y035924D02*
X036985Y035924D01*
X036958Y035637D02*
X036651Y035637D01*
X036435Y035421D01*
X036435Y035114D01*
X036651Y034897D01*
X036958Y034897D01*
X037175Y035114D01*
X037175Y035421D01*
X036958Y035637D01*
X036964Y035631D02*
X037646Y035631D01*
X037587Y035573D02*
X037022Y035573D01*
X037081Y035514D02*
X037529Y035514D01*
X037470Y035456D02*
X037139Y035456D01*
X037175Y035397D02*
X037435Y035397D01*
X037435Y035339D02*
X037175Y035339D01*
X037175Y035280D02*
X037435Y035280D01*
X037435Y035222D02*
X037175Y035222D01*
X037175Y035163D02*
X037435Y035163D01*
X037444Y035105D02*
X037166Y035105D01*
X037107Y035046D02*
X037502Y035046D01*
X037561Y034988D02*
X037049Y034988D01*
X036990Y034929D02*
X037619Y034929D01*
X036619Y034929D02*
X035990Y034929D01*
X035958Y034897D02*
X036175Y035114D01*
X036175Y035421D01*
X035958Y035637D01*
X035651Y035637D01*
X035435Y035421D01*
X035435Y035114D01*
X035651Y034897D01*
X035958Y034897D01*
X036049Y034988D02*
X036561Y034988D01*
X036502Y035046D02*
X036107Y035046D01*
X036166Y035105D02*
X036444Y035105D01*
X036435Y035163D02*
X036175Y035163D01*
X036175Y035222D02*
X036435Y035222D01*
X036435Y035280D02*
X036175Y035280D01*
X036175Y035339D02*
X036435Y035339D01*
X036435Y035397D02*
X036175Y035397D01*
X036139Y035456D02*
X036470Y035456D01*
X036529Y035514D02*
X036081Y035514D01*
X036022Y035573D02*
X036587Y035573D01*
X036646Y035631D02*
X035964Y035631D01*
X035958Y035897D02*
X036175Y036114D01*
X036175Y036421D01*
X035958Y036637D01*
X035651Y036637D01*
X035435Y036421D01*
X035435Y036114D01*
X035651Y035897D01*
X035958Y035897D01*
X035985Y035924D02*
X036625Y035924D01*
X036566Y035982D02*
X036043Y035982D01*
X036102Y036041D02*
X036508Y036041D01*
X036449Y036099D02*
X036160Y036099D01*
X036175Y036158D02*
X036435Y036158D01*
X036435Y036216D02*
X036175Y036216D01*
X036175Y036275D02*
X036435Y036275D01*
X036435Y036333D02*
X036175Y036333D01*
X036175Y036392D02*
X036435Y036392D01*
X036465Y036450D02*
X036145Y036450D01*
X036086Y036509D02*
X036523Y036509D01*
X036582Y036567D02*
X036028Y036567D01*
X035969Y036626D02*
X036640Y036626D01*
X035640Y036626D02*
X034969Y036626D01*
X034958Y036637D02*
X034651Y036637D01*
X034435Y036421D01*
X034435Y036114D01*
X034651Y035897D01*
X034958Y035897D01*
X035175Y036114D01*
X035175Y036421D01*
X034958Y036637D01*
X035028Y036567D02*
X035582Y036567D01*
X035523Y036509D02*
X035086Y036509D01*
X035145Y036450D02*
X035465Y036450D01*
X035435Y036392D02*
X035175Y036392D01*
X035175Y036333D02*
X035435Y036333D01*
X035435Y036275D02*
X035175Y036275D01*
X035175Y036216D02*
X035435Y036216D01*
X035435Y036158D02*
X035175Y036158D01*
X035160Y036099D02*
X035449Y036099D01*
X035508Y036041D02*
X035102Y036041D01*
X035043Y035982D02*
X035566Y035982D01*
X035625Y035924D02*
X034985Y035924D01*
X034958Y035637D02*
X034651Y035637D01*
X034435Y035421D01*
X034435Y035114D01*
X034651Y034897D01*
X034958Y034897D01*
X035175Y035114D01*
X035175Y035421D01*
X034958Y035637D01*
X034964Y035631D02*
X035646Y035631D01*
X035587Y035573D02*
X035022Y035573D01*
X035081Y035514D02*
X035529Y035514D01*
X035470Y035456D02*
X035139Y035456D01*
X035175Y035397D02*
X035435Y035397D01*
X035435Y035339D02*
X035175Y035339D01*
X035175Y035280D02*
X035435Y035280D01*
X035435Y035222D02*
X035175Y035222D01*
X035175Y035163D02*
X035435Y035163D01*
X035444Y035105D02*
X035166Y035105D01*
X035107Y035046D02*
X035502Y035046D01*
X035561Y034988D02*
X035049Y034988D01*
X034990Y034929D02*
X035619Y034929D01*
X034619Y034929D02*
X033990Y034929D01*
X033958Y034897D02*
X034175Y035114D01*
X034175Y035421D01*
X033958Y035637D01*
X033651Y035637D01*
X033435Y035421D01*
X033435Y035114D01*
X033651Y034897D01*
X033958Y034897D01*
X034049Y034988D02*
X034561Y034988D01*
X034502Y035046D02*
X034107Y035046D01*
X034166Y035105D02*
X034444Y035105D01*
X034435Y035163D02*
X034175Y035163D01*
X034175Y035222D02*
X034435Y035222D01*
X034435Y035280D02*
X034175Y035280D01*
X034175Y035339D02*
X034435Y035339D01*
X034435Y035397D02*
X034175Y035397D01*
X034139Y035456D02*
X034470Y035456D01*
X034529Y035514D02*
X034081Y035514D01*
X034022Y035573D02*
X034587Y035573D01*
X034646Y035631D02*
X033964Y035631D01*
X033958Y035897D02*
X034175Y036114D01*
X034175Y036421D01*
X033958Y036637D01*
X033651Y036637D01*
X033435Y036421D01*
X033435Y036114D01*
X033651Y035897D01*
X033958Y035897D01*
X033985Y035924D02*
X034625Y035924D01*
X034566Y035982D02*
X034043Y035982D01*
X034102Y036041D02*
X034508Y036041D01*
X034449Y036099D02*
X034160Y036099D01*
X034175Y036158D02*
X034435Y036158D01*
X034435Y036216D02*
X034175Y036216D01*
X034175Y036275D02*
X034435Y036275D01*
X034435Y036333D02*
X034175Y036333D01*
X034175Y036392D02*
X034435Y036392D01*
X034465Y036450D02*
X034145Y036450D01*
X034086Y036509D02*
X034523Y036509D01*
X034582Y036567D02*
X034028Y036567D01*
X033969Y036626D02*
X034640Y036626D01*
X033640Y036626D02*
X032969Y036626D01*
X033028Y036567D02*
X033582Y036567D01*
X033523Y036509D02*
X033086Y036509D01*
X033145Y036450D02*
X033465Y036450D01*
X033435Y036392D02*
X033175Y036392D01*
X033175Y036333D02*
X033435Y036333D01*
X033435Y036275D02*
X033175Y036275D01*
X033175Y036216D02*
X033435Y036216D01*
X033435Y036158D02*
X033175Y036158D01*
X033160Y036099D02*
X033449Y036099D01*
X033508Y036041D02*
X033102Y036041D01*
X033043Y035982D02*
X033566Y035982D01*
X033625Y035924D02*
X032985Y035924D01*
X032964Y035631D02*
X033646Y035631D01*
X033587Y035573D02*
X033022Y035573D01*
X033081Y035514D02*
X033529Y035514D01*
X033470Y035456D02*
X033139Y035456D01*
X033175Y035397D02*
X033435Y035397D01*
X033435Y035339D02*
X033175Y035339D01*
X033175Y035280D02*
X033435Y035280D01*
X033435Y035222D02*
X033175Y035222D01*
X033175Y035163D02*
X033435Y035163D01*
X033444Y035105D02*
X033166Y035105D01*
X033107Y035046D02*
X033502Y035046D01*
X033561Y034988D02*
X033049Y034988D01*
X032990Y034929D02*
X033619Y034929D01*
X044014Y026915D02*
X050473Y026915D01*
X050411Y026973D02*
X044072Y026973D01*
X044131Y027032D02*
X050352Y027032D01*
X050317Y027090D02*
X044189Y027090D01*
X044248Y027149D02*
X050292Y027149D01*
X050268Y027207D02*
X044306Y027207D01*
X044264Y027165D02*
X044264Y027165D01*
X043636Y026447D02*
X048153Y026447D01*
X047971Y026388D02*
X043613Y026388D01*
X043555Y026330D02*
X047858Y026330D01*
X047776Y026271D02*
X043370Y026271D01*
X043312Y026213D02*
X047709Y026213D01*
X047652Y026154D02*
X043253Y026154D01*
X043195Y026096D02*
X047607Y026096D01*
X047569Y026037D02*
X043136Y026037D01*
X043618Y023346D02*
X040294Y023346D01*
X040235Y023288D02*
X043560Y023288D01*
X043536Y023229D02*
X040177Y023229D01*
X040118Y023171D02*
X043536Y023171D01*
X043536Y023112D02*
X040060Y023112D01*
X040001Y023054D02*
X043573Y023054D01*
X043605Y022995D02*
X040322Y022995D01*
X040381Y022937D02*
X043605Y022937D01*
X043605Y022878D02*
X040414Y022878D01*
X040414Y022820D02*
X043605Y022820D01*
X043605Y022761D02*
X040414Y022761D01*
X040386Y022703D02*
X043605Y022703D01*
X043605Y022644D02*
X040376Y022644D01*
X040434Y022586D02*
X041478Y022586D01*
X041419Y022527D02*
X040493Y022527D01*
X040551Y022469D02*
X041376Y022469D01*
X041376Y022410D02*
X040610Y022410D01*
X040668Y022352D02*
X041376Y022352D01*
X041393Y022293D02*
X040727Y022293D01*
X040785Y022235D02*
X041452Y022235D01*
X041550Y022118D02*
X040902Y022118D01*
X040844Y022176D02*
X043228Y022176D01*
X043236Y022118D02*
X041740Y022118D01*
X041798Y022059D02*
X043247Y022059D01*
X043169Y022235D02*
X041718Y022235D01*
X041491Y022059D02*
X040961Y022059D01*
X041019Y022001D02*
X041436Y022001D01*
X041436Y021942D02*
X041078Y021942D01*
X041136Y021884D02*
X041436Y021884D01*
X041441Y021825D02*
X041195Y021825D01*
X041253Y021767D02*
X041500Y021767D01*
X041558Y021708D02*
X041312Y021708D01*
X040974Y021650D02*
X040719Y021650D01*
X040661Y021708D02*
X040916Y021708D01*
X040857Y021767D02*
X039095Y021767D01*
X039095Y021825D02*
X040799Y021825D01*
X040740Y021884D02*
X039095Y021884D01*
X039095Y021942D02*
X040682Y021942D01*
X040623Y022001D02*
X039095Y022001D01*
X039095Y022059D02*
X040565Y022059D01*
X040506Y022118D02*
X039095Y022118D01*
X039124Y022176D02*
X040448Y022176D01*
X040389Y022235D02*
X039182Y022235D01*
X039241Y022293D02*
X040331Y022293D01*
X040272Y022352D02*
X039299Y022352D01*
X039358Y022410D02*
X040214Y022410D01*
X040155Y022469D02*
X039416Y022469D01*
X039475Y022527D02*
X040097Y022527D01*
X040065Y022586D02*
X039533Y022586D01*
X039592Y022644D02*
X040065Y022644D01*
X040024Y022703D02*
X039650Y022703D01*
X039709Y022761D02*
X039996Y022761D01*
X039996Y022820D02*
X039767Y022820D01*
X039826Y022878D02*
X039996Y022878D01*
X040029Y022937D02*
X039884Y022937D01*
X039943Y022995D02*
X040087Y022995D01*
X039199Y021708D02*
X039095Y021708D01*
X039095Y021650D02*
X039140Y021650D01*
X039095Y021591D02*
X039095Y021591D01*
X039095Y021533D02*
X039095Y021533D01*
X039095Y021474D02*
X039095Y021474D01*
X039095Y021416D02*
X039109Y021416D01*
X039095Y021357D02*
X039168Y021357D01*
X039095Y021299D02*
X039581Y021299D01*
X039523Y021240D02*
X039095Y021240D01*
X039120Y021182D02*
X039490Y021182D01*
X039466Y021123D02*
X039144Y021123D01*
X039155Y021065D02*
X039455Y021065D01*
X039455Y021006D02*
X039155Y021006D01*
X039155Y020948D02*
X039455Y020948D01*
X039455Y020889D02*
X039155Y020889D01*
X039155Y020831D02*
X039455Y020831D01*
X039455Y020772D02*
X039155Y020772D01*
X039155Y020714D02*
X039455Y020714D01*
X039455Y020655D02*
X039155Y020655D01*
X039155Y020597D02*
X039455Y020597D01*
X039455Y020538D02*
X039155Y020538D01*
X039155Y020480D02*
X039455Y020480D01*
X039462Y020421D02*
X039148Y020421D01*
X039124Y020363D02*
X039486Y020363D01*
X039513Y020304D02*
X039097Y020304D01*
X039038Y020246D02*
X039571Y020246D01*
X039663Y020187D02*
X038947Y020187D01*
X041901Y020129D02*
X046708Y020129D01*
X046775Y020129D02*
X046835Y020129D01*
X046835Y020187D02*
X046775Y020187D01*
X046775Y020246D02*
X046835Y020246D01*
X046835Y020304D02*
X046775Y020304D01*
X046775Y020363D02*
X046835Y020363D01*
X046835Y020421D02*
X046775Y020421D01*
X046775Y020480D02*
X046835Y020480D01*
X046835Y020538D02*
X046775Y020538D01*
X046775Y020597D02*
X046835Y020597D01*
X046835Y020655D02*
X046775Y020655D01*
X046775Y020831D02*
X046835Y020831D01*
X046835Y020889D02*
X046775Y020889D01*
X046775Y020948D02*
X046835Y020948D01*
X046835Y021006D02*
X046775Y021006D01*
X046775Y021065D02*
X046835Y021065D01*
X046835Y021123D02*
X046775Y021123D01*
X046775Y021182D02*
X046835Y021182D01*
X046835Y021240D02*
X046775Y021240D01*
X046775Y021299D02*
X046835Y021299D01*
X046835Y021357D02*
X046775Y021357D01*
X046597Y021357D02*
X045923Y021357D01*
X046028Y021299D02*
X046525Y021299D01*
X046478Y021240D02*
X046087Y021240D01*
X046120Y021182D02*
X046447Y021182D01*
X046426Y021123D02*
X046144Y021123D01*
X046155Y021065D02*
X046415Y021065D01*
X046415Y021006D02*
X046155Y021006D01*
X046155Y020948D02*
X046415Y020948D01*
X046415Y020889D02*
X046155Y020889D01*
X046155Y020831D02*
X046415Y020831D01*
X047195Y020831D02*
X047415Y020831D01*
X047415Y020889D02*
X047195Y020889D01*
X047195Y020948D02*
X047415Y020948D01*
X047415Y021006D02*
X047195Y021006D01*
X047195Y021065D02*
X047415Y021065D01*
X047426Y021123D02*
X047183Y021123D01*
X047163Y021182D02*
X047447Y021182D01*
X047478Y021240D02*
X047131Y021240D01*
X047085Y021299D02*
X047525Y021299D01*
X047597Y021357D02*
X047013Y021357D01*
X047775Y021357D02*
X047835Y021357D01*
X047835Y021299D02*
X047775Y021299D01*
X047775Y021240D02*
X047835Y021240D01*
X047835Y021182D02*
X047775Y021182D01*
X047775Y021123D02*
X047835Y021123D01*
X047835Y021065D02*
X047775Y021065D01*
X047775Y021006D02*
X047835Y021006D01*
X047835Y020948D02*
X047775Y020948D01*
X047775Y020889D02*
X047835Y020889D01*
X047835Y020831D02*
X047775Y020831D01*
X047775Y020655D02*
X047835Y020655D01*
X047835Y020597D02*
X047775Y020597D01*
X047775Y020538D02*
X047835Y020538D01*
X047835Y020480D02*
X047775Y020480D01*
X047775Y020421D02*
X047835Y020421D01*
X047835Y020363D02*
X047775Y020363D01*
X047775Y020304D02*
X047835Y020304D01*
X047835Y020246D02*
X047775Y020246D01*
X047775Y020187D02*
X047835Y020187D01*
X047835Y020129D02*
X047775Y020129D01*
X047708Y020129D02*
X046901Y020129D01*
X047028Y020187D02*
X047582Y020187D01*
X047515Y020246D02*
X047095Y020246D01*
X047138Y020304D02*
X047471Y020304D01*
X047442Y020363D02*
X047167Y020363D01*
X047185Y020421D02*
X047424Y020421D01*
X047415Y020480D02*
X047195Y020480D01*
X047195Y020538D02*
X047415Y020538D01*
X047415Y020597D02*
X047195Y020597D01*
X047195Y020655D02*
X047415Y020655D01*
X047415Y020714D02*
X047195Y020714D01*
X047901Y020129D02*
X048515Y020129D01*
X048515Y020187D02*
X048028Y020187D01*
X048095Y020246D02*
X048515Y020246D01*
X048515Y020304D02*
X048138Y020304D01*
X048167Y020363D02*
X048515Y020363D01*
X048515Y020421D02*
X048185Y020421D01*
X048195Y020480D02*
X048515Y020480D01*
X048515Y020538D02*
X048195Y020538D01*
X048195Y020597D02*
X048515Y020597D01*
X048519Y020655D02*
X048195Y020655D01*
X048195Y020714D02*
X048524Y020714D01*
X044663Y020187D02*
X043947Y020187D01*
X044038Y020246D02*
X044571Y020246D01*
X044513Y020304D02*
X044097Y020304D01*
X044124Y020363D02*
X044486Y020363D01*
X044462Y020421D02*
X044148Y020421D01*
X044155Y020480D02*
X044455Y020480D01*
X044455Y020538D02*
X044155Y020538D01*
X044155Y020597D02*
X044180Y020597D01*
X044430Y020597D02*
X044455Y020597D01*
X043663Y020187D02*
X042947Y020187D01*
X043038Y020246D02*
X043571Y020246D01*
X043513Y020304D02*
X043097Y020304D01*
X043124Y020363D02*
X043486Y020363D01*
X043462Y020421D02*
X043148Y020421D01*
X043155Y020480D02*
X043455Y020480D01*
X043455Y020538D02*
X043155Y020538D01*
X043155Y020597D02*
X043455Y020597D01*
X043455Y020655D02*
X043155Y020655D01*
X043155Y020714D02*
X043455Y020714D01*
X043455Y020772D02*
X043155Y020772D01*
X043155Y020831D02*
X043455Y020831D01*
X043455Y020889D02*
X043155Y020889D01*
X043155Y020948D02*
X043455Y020948D01*
X043455Y021006D02*
X043155Y021006D01*
X043155Y021065D02*
X043455Y021065D01*
X043466Y021123D02*
X043144Y021123D01*
X043120Y021182D02*
X043490Y021182D01*
X043523Y021240D02*
X043087Y021240D01*
X043028Y021299D02*
X043581Y021299D01*
X043687Y021357D02*
X042923Y021357D01*
X042687Y021357D02*
X042677Y021357D01*
X043437Y021767D02*
X041790Y021767D01*
X041731Y021708D02*
X043496Y021708D01*
X043857Y021474D02*
X044150Y021474D01*
X044091Y021533D02*
X043916Y021533D01*
X043954Y021591D02*
X044033Y021591D01*
X043974Y021650D02*
X043954Y021650D01*
X043605Y022293D02*
X043604Y022293D01*
X043605Y022352D02*
X043546Y022352D01*
X043605Y022410D02*
X043390Y022410D01*
X043331Y022469D02*
X043605Y022469D01*
X043605Y022527D02*
X043273Y022527D01*
X043605Y022586D02*
X041692Y022586D01*
X042195Y020714D02*
X042455Y020714D01*
X042455Y020655D02*
X042195Y020655D01*
X042195Y020597D02*
X042455Y020597D01*
X042455Y020538D02*
X042195Y020538D01*
X042195Y020480D02*
X042455Y020480D01*
X042462Y020421D02*
X042185Y020421D01*
X042167Y020363D02*
X042486Y020363D01*
X042513Y020304D02*
X042138Y020304D01*
X042095Y020246D02*
X042571Y020246D01*
X042663Y020187D02*
X042028Y020187D01*
X030845Y020930D02*
X030845Y020930D01*
X027745Y021884D02*
X023775Y021884D01*
X023775Y021942D02*
X027745Y021942D01*
X027745Y022001D02*
X023775Y022001D01*
X023775Y022059D02*
X027745Y022059D01*
X027745Y022118D02*
X023775Y022118D01*
X023775Y022176D02*
X027745Y022176D01*
X027745Y022235D02*
X023775Y022235D01*
X023775Y022293D02*
X027745Y022293D01*
X027745Y022352D02*
X023775Y022352D01*
X023775Y022410D02*
X027745Y022410D01*
X027745Y022469D02*
X023775Y022469D01*
X023775Y022527D02*
X027745Y022527D01*
X027745Y022586D02*
X023775Y022586D01*
X023775Y022644D02*
X027745Y022644D01*
X027745Y022703D02*
X023775Y022703D01*
X023775Y022761D02*
X027745Y022761D01*
X027745Y022820D02*
X023775Y022820D01*
X023775Y022878D02*
X027745Y022878D01*
X027745Y022937D02*
X023775Y022937D01*
X023775Y022995D02*
X027745Y022995D01*
X027745Y023054D02*
X023775Y023054D01*
X023775Y023112D02*
X027745Y023112D01*
X027745Y023171D02*
X023775Y023171D01*
X023775Y023229D02*
X027745Y023229D01*
X027745Y023288D02*
X023775Y023288D01*
X023775Y023346D02*
X027745Y023346D01*
X027745Y023405D02*
X023775Y023405D01*
X023775Y023463D02*
X027745Y023463D01*
X027745Y023522D02*
X023775Y023522D01*
X023775Y023580D02*
X027745Y023580D01*
X027745Y023639D02*
X023775Y023639D01*
X023775Y023697D02*
X027713Y023697D01*
X027676Y023756D02*
X023775Y023756D01*
X023775Y023814D02*
X027676Y023814D01*
X027676Y023873D02*
X023775Y023873D01*
X023775Y023931D02*
X027701Y023931D01*
X027692Y021825D02*
X023775Y021825D01*
X023775Y021767D02*
X027036Y021767D01*
X026978Y021708D02*
X023775Y021708D01*
X023775Y021650D02*
X026926Y021650D01*
X026926Y021591D02*
X023775Y021591D01*
X023775Y021533D02*
X026926Y021533D01*
X026936Y021474D02*
X025777Y021474D01*
X025494Y021474D02*
X023775Y021474D01*
X023495Y021474D02*
X022206Y021474D01*
X022264Y021416D02*
X023495Y021416D01*
X023495Y021357D02*
X022316Y021357D01*
X022360Y021299D02*
X023495Y021299D01*
X023518Y021240D02*
X022403Y021240D01*
X022434Y021182D02*
X023576Y021182D01*
X023495Y021533D02*
X022139Y021533D01*
X022061Y021591D02*
X023495Y021591D01*
X023495Y021650D02*
X021963Y021650D01*
X021844Y021708D02*
X023495Y021708D01*
X023495Y021767D02*
X021663Y021767D01*
X019935Y021825D02*
X023495Y021825D01*
X023495Y021884D02*
X019935Y021884D01*
X019935Y021942D02*
X023495Y021942D01*
X023495Y022001D02*
X019935Y022001D01*
X019935Y022059D02*
X023495Y022059D01*
X023495Y022118D02*
X019935Y022118D01*
X019935Y022176D02*
X023495Y022176D01*
X023495Y022235D02*
X019935Y022235D01*
X019935Y022293D02*
X023495Y022293D01*
X023495Y022352D02*
X019935Y022352D01*
X019935Y022410D02*
X023495Y022410D01*
X023495Y022469D02*
X019935Y022469D01*
X019935Y022527D02*
X023495Y022527D01*
X023495Y022586D02*
X019935Y022586D01*
X019935Y022644D02*
X023495Y022644D01*
X023495Y022703D02*
X019935Y022703D01*
X019935Y022761D02*
X023495Y022761D01*
X023495Y022820D02*
X019935Y022820D01*
X019935Y022878D02*
X023495Y022878D01*
X023495Y022937D02*
X019935Y022937D01*
X019935Y022995D02*
X023495Y022995D01*
X023495Y023054D02*
X019935Y023054D01*
X019935Y023112D02*
X023495Y023112D01*
X023495Y023171D02*
X019935Y023171D01*
X019935Y023229D02*
X023495Y023229D01*
X023495Y023288D02*
X019935Y023288D01*
X019935Y023346D02*
X023495Y023346D01*
X023495Y023405D02*
X019935Y023405D01*
X019935Y023463D02*
X023495Y023463D01*
X023495Y023522D02*
X019935Y023522D01*
X019935Y023580D02*
X023495Y023580D01*
X023495Y023639D02*
X019935Y023639D01*
X019935Y023697D02*
X023495Y023697D01*
X023495Y023756D02*
X019935Y023756D01*
X019935Y023814D02*
X023495Y023814D01*
X023495Y023873D02*
X019935Y023873D01*
X019935Y023931D02*
X023495Y023931D01*
X023495Y023990D02*
X019935Y023990D01*
X019935Y024048D02*
X023495Y024048D01*
X023495Y024107D02*
X019935Y024107D01*
X019935Y024165D02*
X023495Y024165D01*
X023495Y024224D02*
X019935Y024224D01*
X019935Y024282D02*
X023495Y024282D01*
X023495Y024341D02*
X019935Y024341D01*
X019935Y024399D02*
X023495Y024399D01*
X023495Y024458D02*
X019935Y024458D01*
X019935Y024516D02*
X023495Y024516D01*
X023495Y024575D02*
X019935Y024575D01*
X019935Y024633D02*
X023495Y024633D01*
X023495Y024692D02*
X019935Y024692D01*
X019935Y024750D02*
X023495Y024750D01*
X023495Y024809D02*
X019935Y024809D01*
X019935Y024867D02*
X023495Y024867D01*
X023495Y024926D02*
X019935Y024926D01*
X019935Y024984D02*
X023495Y024984D01*
X023495Y025043D02*
X019935Y025043D01*
X019935Y025101D02*
X023495Y025101D01*
X023495Y025160D02*
X019935Y025160D01*
X019935Y025218D02*
X023495Y025218D01*
X023495Y025277D02*
X019935Y025277D01*
X019935Y025335D02*
X023495Y025335D01*
X023495Y025394D02*
X019935Y025394D01*
X019935Y025452D02*
X023458Y025452D01*
X023426Y025511D02*
X019935Y025511D01*
X019935Y025569D02*
X023426Y025569D01*
X023426Y025628D02*
X019935Y025628D01*
X019935Y025686D02*
X023456Y025686D01*
X027235Y021767D02*
X027634Y021767D01*
X044334Y030191D02*
X050270Y030191D01*
X050294Y030249D02*
X044334Y030249D01*
X044334Y030308D02*
X050318Y030308D01*
X050356Y030366D02*
X044334Y030366D01*
X044334Y030425D02*
X050414Y030425D01*
X050482Y030483D02*
X044334Y030483D01*
X044334Y030542D02*
X050623Y030542D01*
X044548Y032069D02*
X044536Y032081D01*
D21*
X042305Y021517D02*
X042805Y021017D01*
X042805Y020799D01*
X043305Y021277D02*
X043305Y019299D01*
D22*
X040805Y020767D02*
X040805Y021267D01*
X040555Y021517D01*
X039305Y021517D01*
X038305Y021517D02*
X037805Y021017D01*
X031055Y021017D01*
X030555Y021517D01*
X030555Y022017D01*
X030555Y023267D01*
X030055Y023767D01*
X030055Y026017D01*
X033555Y025017D02*
X033605Y025067D01*
X033605Y027657D01*
X036929Y030982D01*
X036968Y030982D01*
X025505Y035457D02*
X022995Y035457D01*
X020555Y033017D01*
X020555Y029157D01*
X022445Y027267D01*
X022445Y021627D01*
X022805Y021267D01*
X022805Y020151D01*
X023135Y019820D01*
X027885Y019820D01*
X022445Y027267D02*
X022445Y027417D01*
X022545Y027517D01*
X022555Y027517D01*
X024065Y029027D01*
X024065Y029277D01*
D23*
X029078Y027594D02*
X030155Y026517D01*
X031555Y026517D01*
X032305Y025767D01*
X033055Y025017D01*
X033555Y025017D01*
X046305Y025017D01*
X046868Y025580D01*
X048322Y025580D01*
X048322Y025029D01*
X049661Y023691D01*
X049228Y023691D01*
X046305Y021267D01*
X046305Y019337D02*
X046325Y019317D01*
X041805Y019317D01*
X041805Y020767D01*
X041805Y019317D02*
X028389Y019317D01*
X027885Y019820D01*
X031055Y020637D02*
X031305Y020637D01*
X031055Y020637D02*
X023585Y020637D01*
X038805Y020767D02*
X038805Y022267D01*
X040228Y023691D01*
X040805Y024267D01*
X041055Y024267D01*
D24*
X046305Y021267D02*
X046305Y019337D01*
D25*
X043427Y026498D02*
X043419Y026498D01*
X042636Y027281D01*
X043260Y027281D01*
X044356Y028377D01*
X043756Y029937D02*
X042417Y028598D01*
X042398Y028598D01*
X042186Y028598D01*
X041458Y028598D01*
X041258Y028598D01*
X042636Y027281D01*
X042398Y028598D02*
X042186Y028598D01*
X041458Y028598D01*
X041258Y028598D02*
X040239Y028598D01*
X039763Y029134D01*
X039698Y029069D01*
X039698Y026798D01*
X039763Y029134D02*
X039567Y029330D01*
X039470Y029330D01*
X039238Y029094D01*
X039567Y029330D02*
X039173Y029724D01*
X037265Y031632D01*
X037145Y031512D01*
X038369Y032736D01*
X038583Y032950D01*
X038611Y032978D01*
X038611Y033218D01*
X039698Y033218D01*
X038583Y032950D02*
X038369Y032736D01*
X038178Y032078D02*
X042638Y032078D01*
X040996Y030897D02*
X040385Y031509D01*
X037988Y031509D01*
X038618Y030878D01*
X039278Y030878D01*
X039338Y030818D01*
X039883Y030041D02*
X039490Y029647D01*
X039490Y029618D01*
X039279Y029618D01*
X039173Y029724D01*
X037498Y031159D02*
X037498Y031399D01*
X038178Y032078D01*
X037178Y032198D02*
X037085Y032105D01*
X037085Y031977D01*
X033625Y028517D01*
X029305Y028517D01*
X029180Y028392D01*
X028555Y027767D01*
X028555Y027517D01*
X030055Y026017D01*
X036938Y030398D02*
X037025Y030485D01*
X037145Y030605D01*
X037145Y031512D01*
D26*
X036828Y032249D02*
X036916Y032397D01*
X036828Y032249D02*
X031480Y032249D01*
X030725Y033477D02*
X029945Y033477D01*
X029705Y033717D01*
X029285Y033537D02*
X029285Y032937D01*
X029285Y032267D01*
X024555Y032267D01*
X024875Y031137D02*
X024995Y031017D01*
X024875Y031137D02*
X021785Y031137D01*
X022805Y032767D02*
X024015Y033978D01*
X032009Y033978D01*
X032403Y033978D01*
X042997Y033978D01*
X043017Y033957D02*
X043396Y033957D01*
X043216Y033777D02*
X032416Y033777D01*
X030605Y033777D01*
X030545Y033717D01*
X030725Y033477D02*
X030832Y033584D01*
X032403Y033584D01*
X043033Y033584D01*
X044536Y032081D01*
X044896Y032097D02*
X043216Y033777D01*
X042856Y034197D02*
X043936Y034197D01*
X042856Y034197D02*
X032356Y034197D01*
X024875Y034197D01*
X024555Y034517D01*
X029285Y032267D02*
X029285Y028497D01*
X029180Y028392D01*
X031685Y024957D02*
X031685Y022647D01*
X031055Y022017D01*
X030555Y022017D02*
X030555Y021517D01*
X031055Y020637D02*
X031305Y020637D01*
X027885Y021320D02*
X025635Y021320D01*
X023635Y021320D01*
X023635Y025570D01*
X027885Y023820D02*
X027885Y021820D01*
X027635Y021570D01*
X027135Y021570D01*
X035585Y026457D02*
X037565Y028437D01*
X037805Y028197D02*
X035825Y026217D01*
X036185Y025857D02*
X038165Y027837D01*
X037325Y028677D02*
X035585Y026937D01*
X035585Y027417D02*
X037085Y028917D01*
X036845Y029157D02*
X035585Y027897D01*
X040756Y028917D02*
X040876Y028797D01*
X041056Y028797D01*
X041176Y028917D01*
X041536Y029277D01*
X041536Y030177D01*
X040996Y030717D01*
X040996Y030897D01*
X044596Y031677D02*
X044896Y031977D01*
X044896Y032097D01*
X043745Y023177D02*
X043745Y022077D01*
X044305Y021517D01*
X044305Y020767D01*
X043745Y021657D02*
X043485Y021917D01*
X043325Y021917D01*
X041645Y021917D01*
X041585Y022397D02*
X043205Y022397D01*
X043445Y022157D01*
X042305Y021517D02*
X041305Y021517D01*
X040205Y022617D01*
X040205Y022817D01*
X042805Y020799D02*
X042805Y020767D01*
M02*
