G75*
G70*
%OFA0B0*%
%FSLAX24Y24*%
%IPPOS*%
%LPD*%
%AMOC8*
5,1,8,0,0,1.08239X$1,22.5*
%
%ADD10C,0.0000*%
%ADD11C,0.0060*%
%ADD12C,0.0080*%
%ADD13C,0.0010*%
%ADD14C,0.0050*%
%ADD15C,0.0025*%
%ADD16C,0.0098*%
%ADD17C,0.0040*%
%ADD18C,0.0160*%
%ADD19C,0.0059*%
D10*
X005418Y002075D02*
X005418Y018217D01*
X005420Y018294D01*
X005426Y018371D01*
X005435Y018448D01*
X005448Y018524D01*
X005465Y018600D01*
X005486Y018674D01*
X005510Y018748D01*
X005538Y018820D01*
X005569Y018890D01*
X005604Y018959D01*
X005642Y019027D01*
X005683Y019092D01*
X005728Y019155D01*
X005776Y019216D01*
X005826Y019275D01*
X005879Y019331D01*
X005935Y019384D01*
X005994Y019434D01*
X006055Y019482D01*
X006118Y019527D01*
X006183Y019568D01*
X006251Y019606D01*
X006320Y019641D01*
X006390Y019672D01*
X006462Y019700D01*
X006536Y019724D01*
X006610Y019745D01*
X006686Y019762D01*
X006762Y019775D01*
X006839Y019784D01*
X006916Y019790D01*
X006993Y019792D01*
X006993Y019791D02*
X023528Y019791D01*
X023528Y019792D02*
X023605Y019790D01*
X023682Y019784D01*
X023759Y019775D01*
X023835Y019762D01*
X023911Y019745D01*
X023985Y019724D01*
X024059Y019700D01*
X024131Y019672D01*
X024201Y019641D01*
X024270Y019606D01*
X024338Y019568D01*
X024403Y019527D01*
X024466Y019482D01*
X024527Y019434D01*
X024586Y019384D01*
X024642Y019331D01*
X024695Y019275D01*
X024745Y019216D01*
X024793Y019155D01*
X024838Y019092D01*
X024879Y019027D01*
X024917Y018959D01*
X024952Y018890D01*
X024983Y018820D01*
X025011Y018748D01*
X025035Y018674D01*
X025056Y018600D01*
X025073Y018524D01*
X025086Y018448D01*
X025095Y018371D01*
X025101Y018294D01*
X025103Y018217D01*
X025103Y002075D01*
X025101Y001998D01*
X025095Y001921D01*
X025086Y001844D01*
X025073Y001768D01*
X025056Y001692D01*
X025035Y001618D01*
X025011Y001544D01*
X024983Y001472D01*
X024952Y001402D01*
X024917Y001333D01*
X024879Y001265D01*
X024838Y001200D01*
X024793Y001137D01*
X024745Y001076D01*
X024695Y001017D01*
X024642Y000961D01*
X024586Y000908D01*
X024527Y000858D01*
X024466Y000810D01*
X024403Y000765D01*
X024338Y000724D01*
X024270Y000686D01*
X024201Y000651D01*
X024131Y000620D01*
X024059Y000592D01*
X023985Y000568D01*
X023911Y000547D01*
X023835Y000530D01*
X023759Y000517D01*
X023682Y000508D01*
X023605Y000502D01*
X023528Y000500D01*
X006993Y000500D01*
X006916Y000502D01*
X006839Y000508D01*
X006762Y000517D01*
X006686Y000530D01*
X006610Y000547D01*
X006536Y000568D01*
X006462Y000592D01*
X006390Y000620D01*
X006320Y000651D01*
X006251Y000686D01*
X006183Y000724D01*
X006118Y000765D01*
X006055Y000810D01*
X005994Y000858D01*
X005935Y000908D01*
X005879Y000961D01*
X005826Y001017D01*
X005776Y001076D01*
X005728Y001137D01*
X005683Y001200D01*
X005642Y001265D01*
X005604Y001333D01*
X005569Y001402D01*
X005538Y001472D01*
X005510Y001544D01*
X005486Y001618D01*
X005465Y001692D01*
X005448Y001768D01*
X005435Y001844D01*
X005426Y001921D01*
X005420Y001998D01*
X005418Y002075D01*
X007026Y004720D02*
X007420Y004720D01*
X007420Y006689D01*
X007026Y006689D01*
X007026Y004720D01*
X007026Y012594D02*
X007420Y012594D01*
X007420Y014563D01*
X007026Y014563D01*
X007026Y012594D01*
X008286Y017319D02*
X008288Y017354D01*
X008294Y017389D01*
X008304Y017423D01*
X008317Y017456D01*
X008334Y017487D01*
X008355Y017515D01*
X008378Y017542D01*
X008405Y017565D01*
X008433Y017586D01*
X008464Y017603D01*
X008497Y017616D01*
X008531Y017626D01*
X008566Y017632D01*
X008601Y017634D01*
X008636Y017632D01*
X008671Y017626D01*
X008705Y017616D01*
X008738Y017603D01*
X008769Y017586D01*
X008797Y017565D01*
X008824Y017542D01*
X008847Y017515D01*
X008868Y017487D01*
X008885Y017456D01*
X008898Y017423D01*
X008908Y017389D01*
X008914Y017354D01*
X008916Y017319D01*
X008914Y017284D01*
X008908Y017249D01*
X008898Y017215D01*
X008885Y017182D01*
X008868Y017151D01*
X008847Y017123D01*
X008824Y017096D01*
X008797Y017073D01*
X008769Y017052D01*
X008738Y017035D01*
X008705Y017022D01*
X008671Y017012D01*
X008636Y017006D01*
X008601Y017004D01*
X008566Y017006D01*
X008531Y017012D01*
X008497Y017022D01*
X008464Y017035D01*
X008433Y017052D01*
X008405Y017073D01*
X008378Y017096D01*
X008355Y017123D01*
X008334Y017151D01*
X008317Y017182D01*
X008304Y017215D01*
X008294Y017249D01*
X008288Y017284D01*
X008286Y017319D01*
X021672Y007280D02*
X021674Y007315D01*
X021680Y007350D01*
X021690Y007384D01*
X021703Y007417D01*
X021720Y007448D01*
X021741Y007476D01*
X021764Y007503D01*
X021791Y007526D01*
X021819Y007547D01*
X021850Y007564D01*
X021883Y007577D01*
X021917Y007587D01*
X021952Y007593D01*
X021987Y007595D01*
X022022Y007593D01*
X022057Y007587D01*
X022091Y007577D01*
X022124Y007564D01*
X022155Y007547D01*
X022183Y007526D01*
X022210Y007503D01*
X022233Y007476D01*
X022254Y007448D01*
X022271Y007417D01*
X022284Y007384D01*
X022294Y007350D01*
X022300Y007315D01*
X022302Y007280D01*
X022300Y007245D01*
X022294Y007210D01*
X022284Y007176D01*
X022271Y007143D01*
X022254Y007112D01*
X022233Y007084D01*
X022210Y007057D01*
X022183Y007034D01*
X022155Y007013D01*
X022124Y006996D01*
X022091Y006983D01*
X022057Y006973D01*
X022022Y006967D01*
X021987Y006965D01*
X021952Y006967D01*
X021917Y006973D01*
X021883Y006983D01*
X021850Y006996D01*
X021819Y007013D01*
X021791Y007034D01*
X021764Y007057D01*
X021741Y007084D01*
X021720Y007112D01*
X021703Y007143D01*
X021690Y007176D01*
X021680Y007210D01*
X021674Y007245D01*
X021672Y007280D01*
X023168Y006689D02*
X023168Y004720D01*
X023562Y004720D01*
X023562Y006689D01*
X023168Y006689D01*
X023168Y012594D02*
X023168Y014563D01*
X023562Y014563D01*
X023562Y012594D01*
X023168Y012594D01*
D11*
X023599Y010461D02*
X023599Y010224D01*
X024072Y010224D02*
X024072Y010461D01*
X024080Y015315D02*
X024080Y015551D01*
X023607Y015551D02*
X023607Y015315D01*
X012286Y004486D02*
X012050Y004486D01*
X012050Y004014D02*
X012286Y004014D01*
X012286Y003861D02*
X012050Y003861D01*
X012050Y003389D02*
X012286Y003389D01*
X019208Y003430D02*
X020628Y003430D01*
X021935Y003456D02*
X021935Y002356D01*
X021937Y002339D01*
X021941Y002322D01*
X021948Y002306D01*
X021958Y002292D01*
X021971Y002279D01*
X021985Y002269D01*
X022001Y002262D01*
X022018Y002258D01*
X022035Y002256D01*
X022635Y002256D01*
X022652Y002258D01*
X022669Y002262D01*
X022685Y002269D01*
X022699Y002279D01*
X022712Y002292D01*
X022722Y002306D01*
X022729Y002322D01*
X022733Y002339D01*
X022735Y002356D01*
X022735Y003456D01*
X022733Y003473D01*
X022729Y003490D01*
X022722Y003506D01*
X022712Y003520D01*
X022699Y003533D01*
X022685Y003543D01*
X022669Y003550D01*
X022652Y003554D01*
X022635Y003556D01*
X022035Y003556D01*
X022018Y003554D01*
X022001Y003550D01*
X021985Y003543D01*
X021971Y003533D01*
X021958Y003520D01*
X021948Y003506D01*
X021941Y003490D01*
X021937Y003473D01*
X021935Y003456D01*
X020628Y001570D02*
X019208Y001570D01*
X006961Y010283D02*
X006961Y010520D01*
X006489Y010520D02*
X006489Y010283D01*
X006489Y015335D02*
X006489Y015571D01*
X006961Y015571D02*
X006961Y015335D01*
D12*
X023977Y016504D02*
X024292Y016504D01*
X024292Y016740D01*
X024292Y017370D02*
X024292Y017606D01*
X023977Y017606D01*
X019471Y003210D02*
X019473Y003225D01*
X019479Y003238D01*
X019488Y003250D01*
X019499Y003259D01*
X019513Y003265D01*
X019528Y003267D01*
X019543Y003265D01*
X019556Y003259D01*
X019568Y003250D01*
X019577Y003239D01*
X019583Y003225D01*
X019585Y003210D01*
X019583Y003195D01*
X019577Y003182D01*
X019568Y003170D01*
X019557Y003161D01*
X019543Y003155D01*
X019528Y003153D01*
X019513Y003155D01*
X019500Y003161D01*
X019488Y003170D01*
X019479Y003181D01*
X019473Y003195D01*
X019471Y003210D01*
D13*
X019698Y002958D02*
X019673Y002933D01*
X019673Y002858D01*
X019823Y002858D01*
X019823Y002933D01*
X019798Y002958D01*
X019698Y002958D01*
X019673Y002810D02*
X019823Y002810D01*
X019898Y002760D02*
X020098Y002760D01*
X020073Y002735D02*
X020073Y002785D01*
X020048Y002810D01*
X020023Y002810D01*
X019998Y002785D01*
X019998Y002735D01*
X019973Y002710D01*
X019948Y002710D01*
X019923Y002735D01*
X019923Y002785D01*
X019948Y002810D01*
X019948Y002858D02*
X019923Y002883D01*
X019923Y002933D01*
X019948Y002958D01*
X019973Y002958D01*
X020073Y002858D01*
X020073Y002958D01*
X020073Y002735D02*
X020048Y002710D01*
X020048Y002663D02*
X019923Y002663D01*
X019923Y002563D02*
X020048Y002563D01*
X020073Y002588D01*
X020073Y002638D01*
X020048Y002663D01*
X019823Y002638D02*
X019823Y002588D01*
X019798Y002563D01*
X019798Y002516D02*
X019823Y002491D01*
X019823Y002441D01*
X019798Y002416D01*
X019698Y002416D01*
X019673Y002441D01*
X019673Y002491D01*
X019698Y002516D01*
X019698Y002563D02*
X019723Y002563D01*
X019748Y002588D01*
X019748Y002638D01*
X019773Y002663D01*
X019798Y002663D01*
X019823Y002638D01*
X019823Y002710D02*
X019673Y002710D01*
X019723Y002760D01*
X019673Y002810D01*
X019698Y002663D02*
X019673Y002638D01*
X019673Y002588D01*
X019698Y002563D01*
X019698Y002368D02*
X019673Y002343D01*
X019673Y002293D01*
X019698Y002268D01*
X019673Y002220D02*
X019673Y002170D01*
X019673Y002195D02*
X019823Y002195D01*
X019823Y002170D02*
X019823Y002220D01*
X019823Y002268D02*
X019723Y002368D01*
X019698Y002368D01*
X019823Y002368D02*
X019823Y002268D01*
X019748Y002123D02*
X019748Y002023D01*
X019673Y001976D02*
X019823Y001976D01*
X019823Y001875D02*
X019673Y001875D01*
X019723Y001926D01*
X019673Y001976D01*
X019698Y001828D02*
X019673Y001803D01*
X019673Y001753D01*
X019698Y001728D01*
X019798Y001728D01*
X019823Y001753D01*
X019823Y001803D01*
X019798Y001828D01*
X019698Y001828D01*
X019698Y001681D02*
X019748Y001681D01*
X019773Y001656D01*
X019773Y001581D01*
X019773Y001631D02*
X019823Y001681D01*
X019823Y001581D02*
X019673Y001581D01*
X019673Y001656D01*
X019698Y001681D01*
X019698Y001534D02*
X019748Y001534D01*
X019773Y001509D01*
X019773Y001434D01*
X019823Y001434D02*
X019673Y001434D01*
X019673Y001509D01*
X019698Y001534D01*
X019673Y001386D02*
X019673Y001286D01*
X019823Y001286D01*
X019823Y001386D01*
X019748Y001336D02*
X019748Y001286D01*
X019673Y001239D02*
X019673Y001139D01*
X019823Y001139D01*
X019823Y001239D01*
X019748Y001189D02*
X019748Y001139D01*
X012426Y003145D02*
X012326Y003145D01*
X012426Y003245D01*
X012426Y003270D01*
X012401Y003295D01*
X012351Y003295D01*
X012326Y003270D01*
X012279Y003270D02*
X012254Y003295D01*
X012203Y003295D01*
X012178Y003270D01*
X012178Y003170D01*
X012203Y003145D01*
X012254Y003145D01*
X012279Y003170D01*
X012254Y003770D02*
X012279Y003795D01*
X012254Y003770D02*
X012203Y003770D01*
X012178Y003795D01*
X012178Y003895D01*
X012203Y003920D01*
X012254Y003920D01*
X012279Y003895D01*
X012326Y003870D02*
X012376Y003920D01*
X012376Y003770D01*
X012326Y003770D02*
X012426Y003770D01*
X012451Y004020D02*
X012526Y004020D01*
X012526Y004120D01*
X012426Y004120D02*
X012426Y004045D01*
X012451Y004020D01*
X012379Y004020D02*
X012278Y004020D01*
X012230Y004020D02*
X012230Y004045D01*
X012205Y004045D01*
X012205Y004020D01*
X012230Y004020D01*
X012158Y004045D02*
X012133Y004020D01*
X012082Y004020D01*
X012057Y004045D01*
X012158Y004145D01*
X012158Y004045D01*
X012158Y004145D02*
X012133Y004170D01*
X012082Y004170D01*
X012057Y004145D01*
X012057Y004045D01*
X012278Y004120D02*
X012329Y004170D01*
X012329Y004020D01*
X012329Y004645D02*
X012329Y004795D01*
X012278Y004745D01*
X012230Y004670D02*
X012230Y004645D01*
X012205Y004645D01*
X012205Y004670D01*
X012230Y004670D01*
X012278Y004645D02*
X012379Y004645D01*
X012426Y004670D02*
X012451Y004645D01*
X012526Y004645D01*
X012526Y004745D01*
X012426Y004745D02*
X012426Y004670D01*
X012158Y004670D02*
X012133Y004645D01*
X012082Y004645D01*
X012057Y004670D01*
X012158Y004770D01*
X012158Y004670D01*
X012158Y004770D02*
X012133Y004795D01*
X012082Y004795D01*
X012057Y004770D01*
X012057Y004670D01*
X007205Y010412D02*
X007055Y010412D01*
X007055Y010487D01*
X007080Y010512D01*
X007130Y010512D01*
X007155Y010487D01*
X007155Y010412D01*
X007155Y010462D02*
X007205Y010512D01*
X007205Y010559D02*
X007205Y010659D01*
X007205Y010609D02*
X007055Y010609D01*
X007105Y010559D01*
X006330Y010587D02*
X006180Y010587D01*
X006255Y010512D01*
X006255Y010612D01*
X006205Y010659D02*
X006180Y010684D01*
X006180Y010734D01*
X006205Y010759D01*
X006305Y010659D01*
X006330Y010684D01*
X006330Y010734D01*
X006305Y010759D01*
X006205Y010759D01*
X006205Y010659D02*
X006305Y010659D01*
X006305Y010465D02*
X006280Y010465D01*
X006255Y010440D01*
X006255Y010415D01*
X006255Y010440D02*
X006230Y010465D01*
X006205Y010465D01*
X006180Y010440D01*
X006180Y010390D01*
X006205Y010365D01*
X006305Y010365D02*
X006330Y010390D01*
X006330Y010440D01*
X006305Y010465D01*
X006305Y015416D02*
X006330Y015441D01*
X006330Y015491D01*
X006305Y015516D01*
X006280Y015516D01*
X006255Y015491D01*
X006255Y015466D01*
X006255Y015491D02*
X006230Y015516D01*
X006205Y015516D01*
X006180Y015491D01*
X006180Y015441D01*
X006205Y015416D01*
X006255Y015563D02*
X006255Y015663D01*
X006205Y015710D02*
X006180Y015735D01*
X006180Y015785D01*
X006205Y015811D01*
X006305Y015710D01*
X006330Y015735D01*
X006330Y015785D01*
X006305Y015811D01*
X006205Y015811D01*
X006205Y015710D02*
X006305Y015710D01*
X006330Y015638D02*
X006180Y015638D01*
X006255Y015563D01*
X007055Y015538D02*
X007055Y015463D01*
X007205Y015463D01*
X007155Y015463D02*
X007155Y015538D01*
X007130Y015563D01*
X007080Y015563D01*
X007055Y015538D01*
X007080Y015610D02*
X007055Y015635D01*
X007055Y015685D01*
X007080Y015711D01*
X007105Y015711D01*
X007205Y015610D01*
X007205Y015711D01*
X007205Y015563D02*
X007155Y015513D01*
X023298Y015471D02*
X023323Y015496D01*
X023348Y015496D01*
X023373Y015471D01*
X023398Y015496D01*
X023423Y015496D01*
X023448Y015471D01*
X023448Y015421D01*
X023423Y015396D01*
X023373Y015446D02*
X023373Y015471D01*
X023373Y015543D02*
X023298Y015618D01*
X023448Y015618D01*
X023423Y015691D02*
X023323Y015791D01*
X023423Y015791D01*
X023448Y015766D01*
X023448Y015716D01*
X023423Y015691D01*
X023323Y015691D01*
X023298Y015716D01*
X023298Y015766D01*
X023323Y015791D01*
X023373Y015644D02*
X023373Y015543D01*
X023298Y015471D02*
X023298Y015421D01*
X023323Y015396D01*
X023946Y015398D02*
X024097Y015398D01*
X024097Y015498D01*
X024173Y015518D02*
X024198Y015544D01*
X024248Y015544D01*
X024273Y015518D01*
X024273Y015443D01*
X024323Y015443D02*
X024173Y015443D01*
X024173Y015518D01*
X024273Y015493D02*
X024323Y015544D01*
X024248Y015591D02*
X024248Y015691D01*
X024173Y015666D02*
X024248Y015591D01*
X024323Y015666D02*
X024173Y015666D01*
X024097Y015595D02*
X023946Y015595D01*
X023946Y015545D02*
X023946Y015645D01*
X024021Y015692D02*
X024021Y015792D01*
X023946Y015840D02*
X024097Y015940D01*
X023946Y015940D01*
X023971Y015987D02*
X024072Y015987D01*
X024097Y016012D01*
X024097Y016062D01*
X024072Y016087D01*
X024097Y016134D02*
X023946Y016134D01*
X023971Y016087D02*
X023946Y016062D01*
X023946Y016012D01*
X023971Y015987D01*
X023946Y015840D02*
X024097Y015840D01*
X024021Y016134D02*
X024021Y016234D01*
X024021Y016282D02*
X024021Y016382D01*
X023996Y016382D02*
X024097Y016382D01*
X024097Y016429D02*
X023946Y016429D01*
X024097Y016529D01*
X023946Y016529D01*
X023946Y016576D02*
X024097Y016676D01*
X023946Y016676D01*
X023946Y016723D02*
X024097Y016723D01*
X024097Y016824D01*
X024097Y016871D02*
X024097Y016971D01*
X024072Y017018D02*
X024097Y017043D01*
X024097Y017093D01*
X024072Y017118D01*
X024046Y017118D01*
X024021Y017093D01*
X024021Y017043D01*
X023996Y017018D01*
X023971Y017018D01*
X023946Y017043D01*
X023946Y017093D01*
X023971Y017118D01*
X023946Y017165D02*
X023996Y017215D01*
X023946Y017266D01*
X024097Y017266D01*
X024097Y017313D02*
X024097Y017388D01*
X024072Y017413D01*
X023971Y017413D01*
X023946Y017388D01*
X023946Y017313D01*
X024097Y017313D01*
X024097Y017165D02*
X023946Y017165D01*
X023946Y016871D02*
X024097Y016871D01*
X024021Y016774D02*
X024021Y016723D01*
X023946Y016723D02*
X023946Y016824D01*
X023946Y016576D02*
X024097Y016576D01*
X023996Y016382D02*
X023946Y016332D01*
X023996Y016282D01*
X024097Y016282D01*
X024097Y016234D02*
X023946Y016234D01*
X023946Y015498D02*
X023946Y015398D01*
X023946Y015350D02*
X023946Y015250D01*
X024097Y015250D01*
X024072Y015203D02*
X024097Y015178D01*
X024097Y015128D01*
X024072Y015103D01*
X024072Y015056D02*
X023971Y015056D01*
X023946Y015031D01*
X023946Y014981D01*
X023971Y014956D01*
X024072Y014956D01*
X024097Y014981D01*
X024097Y015031D01*
X024072Y015056D01*
X024021Y015128D02*
X023996Y015103D01*
X023971Y015103D01*
X023946Y015128D01*
X023946Y015178D01*
X023971Y015203D01*
X024021Y015178D02*
X024046Y015203D01*
X024072Y015203D01*
X024021Y015178D02*
X024021Y015128D01*
X024021Y015250D02*
X024021Y015300D01*
X024021Y015398D02*
X024021Y015448D01*
X023946Y014908D02*
X024097Y014908D01*
X024097Y014808D02*
X023946Y014808D01*
X023996Y014858D01*
X023946Y014908D01*
X024746Y017090D02*
X024721Y017115D01*
X024721Y017166D01*
X024746Y017191D01*
X024847Y017191D01*
X024872Y017166D01*
X024872Y017115D01*
X024847Y017090D01*
X024746Y017090D01*
X024821Y017141D02*
X024872Y017191D01*
X024872Y017238D02*
X024872Y017338D01*
X024872Y017288D02*
X024721Y017288D01*
X024771Y017238D01*
X023415Y010700D02*
X023315Y010700D01*
X023415Y010600D01*
X023440Y010625D01*
X023440Y010675D01*
X023415Y010700D01*
X023315Y010700D02*
X023290Y010675D01*
X023290Y010625D01*
X023315Y010600D01*
X023415Y010600D01*
X023365Y010553D02*
X023365Y010453D01*
X023290Y010528D01*
X023440Y010528D01*
X023415Y010406D02*
X023440Y010381D01*
X023440Y010331D01*
X023415Y010306D01*
X023365Y010356D02*
X023365Y010381D01*
X023390Y010406D01*
X023415Y010406D01*
X023365Y010381D02*
X023340Y010406D01*
X023315Y010406D01*
X023290Y010381D01*
X023290Y010331D01*
X023315Y010306D01*
X024165Y010353D02*
X024165Y010428D01*
X024190Y010453D01*
X024240Y010453D01*
X024265Y010428D01*
X024265Y010353D01*
X024265Y010403D02*
X024315Y010453D01*
X024290Y010500D02*
X024315Y010525D01*
X024315Y010575D01*
X024290Y010600D01*
X024265Y010600D01*
X024240Y010575D01*
X024240Y010550D01*
X024240Y010575D02*
X024215Y010600D01*
X024190Y010600D01*
X024165Y010575D01*
X024165Y010525D01*
X024190Y010500D01*
X024165Y010353D02*
X024315Y010353D01*
D14*
X017235Y004469D02*
X017235Y000531D01*
X013298Y000531D01*
X013298Y004469D01*
X017235Y004469D01*
X016546Y004075D02*
X016548Y004109D01*
X016554Y004143D01*
X016564Y004176D01*
X016577Y004207D01*
X016595Y004237D01*
X016615Y004265D01*
X016639Y004290D01*
X016665Y004312D01*
X016693Y004330D01*
X016724Y004346D01*
X016756Y004358D01*
X016790Y004366D01*
X016824Y004370D01*
X016858Y004370D01*
X016892Y004366D01*
X016926Y004358D01*
X016958Y004346D01*
X016988Y004330D01*
X017017Y004312D01*
X017043Y004290D01*
X017067Y004265D01*
X017087Y004237D01*
X017105Y004207D01*
X017118Y004176D01*
X017128Y004143D01*
X017134Y004109D01*
X017136Y004075D01*
X017134Y004041D01*
X017128Y004007D01*
X017118Y003974D01*
X017105Y003943D01*
X017087Y003913D01*
X017067Y003885D01*
X017043Y003860D01*
X017017Y003838D01*
X016989Y003820D01*
X016958Y003804D01*
X016926Y003792D01*
X016892Y003784D01*
X016858Y003780D01*
X016824Y003780D01*
X016790Y003784D01*
X016756Y003792D01*
X016724Y003804D01*
X016693Y003820D01*
X016665Y003838D01*
X016639Y003860D01*
X016615Y003885D01*
X016595Y003913D01*
X016577Y003943D01*
X016564Y003974D01*
X016554Y004007D01*
X016548Y004041D01*
X016546Y004075D01*
X015857Y003091D02*
X015857Y001909D01*
X014676Y001909D01*
X014676Y003091D01*
X015857Y003091D01*
X015070Y002500D02*
X015072Y002527D01*
X015078Y002554D01*
X015087Y002580D01*
X015100Y002604D01*
X015116Y002627D01*
X015135Y002646D01*
X015157Y002663D01*
X015181Y002677D01*
X015206Y002687D01*
X015233Y002694D01*
X015260Y002697D01*
X015288Y002696D01*
X015315Y002691D01*
X015341Y002683D01*
X015365Y002671D01*
X015388Y002655D01*
X015409Y002637D01*
X015426Y002616D01*
X015441Y002592D01*
X015452Y002567D01*
X015460Y002541D01*
X015464Y002514D01*
X015464Y002486D01*
X015460Y002459D01*
X015452Y002433D01*
X015441Y002408D01*
X015426Y002384D01*
X015409Y002363D01*
X015388Y002345D01*
X015366Y002329D01*
X015341Y002317D01*
X015315Y002309D01*
X015288Y002304D01*
X015260Y002303D01*
X015233Y002306D01*
X015206Y002313D01*
X015181Y002323D01*
X015157Y002337D01*
X015135Y002354D01*
X015116Y002373D01*
X015100Y002396D01*
X015087Y002420D01*
X015078Y002446D01*
X015072Y002473D01*
X015070Y002500D01*
X014135Y002500D02*
X014137Y002567D01*
X014143Y002634D01*
X014153Y002700D01*
X014167Y002766D01*
X014184Y002831D01*
X014206Y002894D01*
X014231Y002956D01*
X014260Y003017D01*
X014292Y003076D01*
X014328Y003132D01*
X014367Y003187D01*
X014409Y003239D01*
X014455Y003288D01*
X014503Y003335D01*
X014554Y003379D01*
X014607Y003420D01*
X014663Y003457D01*
X014720Y003491D01*
X014780Y003522D01*
X014842Y003549D01*
X014904Y003572D01*
X014969Y003592D01*
X015034Y003608D01*
X015100Y003620D01*
X015166Y003628D01*
X015233Y003632D01*
X015301Y003632D01*
X015368Y003628D01*
X015434Y003620D01*
X015500Y003608D01*
X015565Y003592D01*
X015630Y003572D01*
X015692Y003549D01*
X015754Y003522D01*
X015814Y003491D01*
X015871Y003457D01*
X015927Y003420D01*
X015980Y003379D01*
X016031Y003335D01*
X016079Y003288D01*
X016125Y003239D01*
X016167Y003187D01*
X016206Y003132D01*
X016242Y003076D01*
X016274Y003017D01*
X016303Y002956D01*
X016328Y002894D01*
X016350Y002831D01*
X016367Y002766D01*
X016381Y002700D01*
X016391Y002634D01*
X016397Y002567D01*
X016399Y002500D01*
X016397Y002433D01*
X016391Y002366D01*
X016381Y002300D01*
X016367Y002234D01*
X016350Y002169D01*
X016328Y002106D01*
X016303Y002044D01*
X016274Y001983D01*
X016242Y001924D01*
X016206Y001868D01*
X016167Y001813D01*
X016125Y001761D01*
X016079Y001712D01*
X016031Y001665D01*
X015980Y001621D01*
X015927Y001580D01*
X015871Y001543D01*
X015814Y001509D01*
X015754Y001478D01*
X015692Y001451D01*
X015630Y001428D01*
X015565Y001408D01*
X015500Y001392D01*
X015434Y001380D01*
X015368Y001372D01*
X015301Y001368D01*
X015233Y001368D01*
X015166Y001372D01*
X015100Y001380D01*
X015034Y001392D01*
X014969Y001408D01*
X014904Y001428D01*
X014842Y001451D01*
X014780Y001478D01*
X014720Y001509D01*
X014663Y001543D01*
X014607Y001580D01*
X014554Y001621D01*
X014503Y001665D01*
X014455Y001712D01*
X014409Y001761D01*
X014367Y001813D01*
X014328Y001868D01*
X014292Y001924D01*
X014260Y001983D01*
X014231Y002044D01*
X014206Y002106D01*
X014184Y002169D01*
X014167Y002234D01*
X014153Y002300D01*
X014143Y002366D01*
X014137Y002433D01*
X014135Y002500D01*
X013397Y000925D02*
X013399Y000959D01*
X013405Y000993D01*
X013415Y001026D01*
X013428Y001057D01*
X013446Y001087D01*
X013466Y001115D01*
X013490Y001140D01*
X013516Y001162D01*
X013544Y001180D01*
X013575Y001196D01*
X013607Y001208D01*
X013641Y001216D01*
X013675Y001220D01*
X013709Y001220D01*
X013743Y001216D01*
X013777Y001208D01*
X013809Y001196D01*
X013839Y001180D01*
X013868Y001162D01*
X013894Y001140D01*
X013918Y001115D01*
X013938Y001087D01*
X013956Y001057D01*
X013969Y001026D01*
X013979Y000993D01*
X013985Y000959D01*
X013987Y000925D01*
X013985Y000891D01*
X013979Y000857D01*
X013969Y000824D01*
X013956Y000793D01*
X013938Y000763D01*
X013918Y000735D01*
X013894Y000710D01*
X013868Y000688D01*
X013840Y000670D01*
X013809Y000654D01*
X013777Y000642D01*
X013743Y000634D01*
X013709Y000630D01*
X013675Y000630D01*
X013641Y000634D01*
X013607Y000642D01*
X013575Y000654D01*
X013544Y000670D01*
X013516Y000688D01*
X013490Y000710D01*
X013466Y000735D01*
X013446Y000763D01*
X013428Y000793D01*
X013415Y000824D01*
X013405Y000857D01*
X013399Y000891D01*
X013397Y000925D01*
X016546Y000925D02*
X016548Y000959D01*
X016554Y000993D01*
X016564Y001026D01*
X016577Y001057D01*
X016595Y001087D01*
X016615Y001115D01*
X016639Y001140D01*
X016665Y001162D01*
X016693Y001180D01*
X016724Y001196D01*
X016756Y001208D01*
X016790Y001216D01*
X016824Y001220D01*
X016858Y001220D01*
X016892Y001216D01*
X016926Y001208D01*
X016958Y001196D01*
X016988Y001180D01*
X017017Y001162D01*
X017043Y001140D01*
X017067Y001115D01*
X017087Y001087D01*
X017105Y001057D01*
X017118Y001026D01*
X017128Y000993D01*
X017134Y000959D01*
X017136Y000925D01*
X017134Y000891D01*
X017128Y000857D01*
X017118Y000824D01*
X017105Y000793D01*
X017087Y000763D01*
X017067Y000735D01*
X017043Y000710D01*
X017017Y000688D01*
X016989Y000670D01*
X016958Y000654D01*
X016926Y000642D01*
X016892Y000634D01*
X016858Y000630D01*
X016824Y000630D01*
X016790Y000634D01*
X016756Y000642D01*
X016724Y000654D01*
X016693Y000670D01*
X016665Y000688D01*
X016639Y000710D01*
X016615Y000735D01*
X016595Y000763D01*
X016577Y000793D01*
X016564Y000824D01*
X016554Y000857D01*
X016548Y000891D01*
X016546Y000925D01*
X013397Y004075D02*
X013399Y004109D01*
X013405Y004143D01*
X013415Y004176D01*
X013428Y004207D01*
X013446Y004237D01*
X013466Y004265D01*
X013490Y004290D01*
X013516Y004312D01*
X013544Y004330D01*
X013575Y004346D01*
X013607Y004358D01*
X013641Y004366D01*
X013675Y004370D01*
X013709Y004370D01*
X013743Y004366D01*
X013777Y004358D01*
X013809Y004346D01*
X013839Y004330D01*
X013868Y004312D01*
X013894Y004290D01*
X013918Y004265D01*
X013938Y004237D01*
X013956Y004207D01*
X013969Y004176D01*
X013979Y004143D01*
X013985Y004109D01*
X013987Y004075D01*
X013985Y004041D01*
X013979Y004007D01*
X013969Y003974D01*
X013956Y003943D01*
X013938Y003913D01*
X013918Y003885D01*
X013894Y003860D01*
X013868Y003838D01*
X013840Y003820D01*
X013809Y003804D01*
X013777Y003792D01*
X013743Y003784D01*
X013709Y003780D01*
X013675Y003780D01*
X013641Y003784D01*
X013607Y003792D01*
X013575Y003804D01*
X013544Y003820D01*
X013516Y003838D01*
X013490Y003860D01*
X013466Y003885D01*
X013446Y003913D01*
X013428Y003943D01*
X013415Y003974D01*
X013405Y004007D01*
X013399Y004041D01*
X013397Y004075D01*
X021410Y003352D02*
X021860Y003352D01*
X021860Y003202D02*
X021860Y003503D01*
X021560Y003202D02*
X021410Y003352D01*
X021410Y003042D02*
X021410Y002892D01*
X021410Y002967D02*
X021785Y002967D01*
X021860Y002892D01*
X021860Y002817D01*
X021785Y002742D01*
X021785Y002582D02*
X021860Y002507D01*
X021860Y002357D01*
X021785Y002281D01*
X021635Y002357D02*
X021635Y002507D01*
X021710Y002582D01*
X021785Y002582D01*
X021635Y002357D02*
X021560Y002281D01*
X021485Y002281D01*
X021410Y002357D01*
X021410Y002507D01*
X021485Y002582D01*
D15*
X022916Y010280D02*
X022975Y010339D01*
X022906Y010407D01*
X022847Y010348D01*
X022916Y010280D01*
X022910Y015398D02*
X022969Y015457D01*
X022900Y015526D01*
X022841Y015467D01*
X022910Y015398D01*
X007713Y015469D02*
X007654Y015409D01*
X007585Y015478D01*
X007644Y015537D01*
X007713Y015469D01*
X007650Y010419D02*
X007719Y010350D01*
X007660Y010291D01*
X007591Y010360D01*
X007650Y010419D01*
D16*
X007493Y010252D03*
X007487Y015370D03*
X022743Y015358D03*
X022749Y010240D03*
D17*
X022493Y010238D02*
X022493Y010545D01*
X022493Y010699D02*
X022493Y010929D01*
X022416Y011006D01*
X022109Y011006D01*
X022032Y010929D01*
X022032Y010699D01*
X022493Y010699D01*
X022262Y010392D02*
X022262Y010238D01*
X022032Y010238D02*
X022493Y010238D01*
X022493Y010085D02*
X022493Y009778D01*
X022032Y009778D01*
X022032Y010238D02*
X022032Y010545D01*
X022109Y011159D02*
X022032Y011236D01*
X022032Y011389D01*
X022109Y011466D01*
X022186Y011466D01*
X022262Y011389D01*
X022339Y011466D01*
X022416Y011466D01*
X022493Y011389D01*
X022493Y011236D01*
X022416Y011159D01*
X022262Y011313D02*
X022262Y011389D01*
X022026Y014896D02*
X022487Y014896D01*
X022487Y015203D01*
X022487Y015356D02*
X022487Y015663D01*
X022487Y015817D02*
X022487Y016047D01*
X022410Y016124D01*
X022103Y016124D01*
X022026Y016047D01*
X022026Y015817D01*
X022487Y015817D01*
X022256Y015510D02*
X022256Y015356D01*
X022026Y015356D02*
X022026Y015663D01*
X022026Y015356D02*
X022487Y015356D01*
X022256Y016277D02*
X022256Y016584D01*
X022026Y016507D02*
X022256Y016277D01*
X022487Y016507D02*
X022026Y016507D01*
X007231Y016596D02*
X007231Y016289D01*
X006924Y016596D01*
X006847Y016596D01*
X006770Y016519D01*
X006770Y016366D01*
X006847Y016289D01*
X006847Y016136D02*
X006770Y016059D01*
X006770Y015829D01*
X007231Y015829D01*
X007231Y016059D01*
X007154Y016136D01*
X006847Y016136D01*
X006770Y015675D02*
X006770Y015368D01*
X007231Y015368D01*
X007231Y015675D01*
X007001Y015522D02*
X007001Y015368D01*
X007231Y015215D02*
X007231Y014908D01*
X006770Y014908D01*
X007237Y011478D02*
X007237Y011171D01*
X007237Y011324D02*
X006776Y011324D01*
X006930Y011171D01*
X006853Y011017D02*
X006776Y010941D01*
X006776Y010710D01*
X007237Y010710D01*
X007237Y010941D01*
X007160Y011017D01*
X006853Y011017D01*
X006776Y010557D02*
X006776Y010250D01*
X007237Y010250D01*
X007237Y010557D01*
X007006Y010404D02*
X007006Y010250D01*
X007237Y010097D02*
X007237Y009790D01*
X006776Y009790D01*
D18*
X007420Y004720D02*
X023168Y004720D01*
X023168Y018500D01*
X007420Y018500D01*
X007420Y004720D01*
D19*
X007538Y003477D02*
X007298Y003477D01*
X007266Y003159D01*
X007159Y003125D01*
X007060Y003074D01*
X006812Y003276D01*
X006643Y003106D01*
X006844Y002859D01*
X006793Y002759D01*
X006759Y002652D01*
X006441Y002620D01*
X006441Y002380D01*
X006759Y002348D01*
X006793Y002241D01*
X006844Y002141D01*
X006643Y001894D01*
X006812Y001724D01*
X007060Y001926D01*
X007159Y001875D01*
X007300Y002216D01*
X007247Y002244D01*
X007201Y002282D01*
X007162Y002329D01*
X007134Y002382D01*
X007116Y002440D01*
X007111Y002500D01*
X007117Y002563D01*
X007136Y002623D01*
X007167Y002678D01*
X007209Y002725D01*
X007259Y002763D01*
X007317Y002790D01*
X007378Y002805D01*
X007441Y002807D01*
X007503Y002796D01*
X007562Y002772D01*
X007614Y002737D01*
X007659Y002692D01*
X007693Y002639D01*
X007715Y002580D01*
X007725Y002517D01*
X007722Y002454D01*
X007706Y002393D01*
X007679Y002336D01*
X007640Y002287D01*
X007591Y002246D01*
X007536Y002216D01*
X007677Y001875D01*
X007777Y001926D01*
X008024Y001724D01*
X008194Y001894D01*
X007992Y002141D01*
X008043Y002241D01*
X008077Y002348D01*
X008395Y002380D01*
X008395Y002620D01*
X008077Y002652D01*
X008043Y002759D01*
X007992Y002859D01*
X008194Y003106D01*
X008024Y003276D01*
X007777Y003074D01*
X007677Y003125D01*
X007570Y003159D01*
X007538Y003477D01*
X007542Y003435D02*
X007294Y003435D01*
X007288Y003378D02*
X007548Y003378D01*
X007554Y003320D02*
X007282Y003320D01*
X007276Y003263D02*
X007560Y003263D01*
X007566Y003205D02*
X007271Y003205D01*
X007229Y003148D02*
X007607Y003148D01*
X007745Y003090D02*
X007091Y003090D01*
X007040Y003090D02*
X006656Y003090D01*
X006684Y003148D02*
X006969Y003148D01*
X006899Y003205D02*
X006742Y003205D01*
X006799Y003263D02*
X006828Y003263D01*
X006702Y003032D02*
X008134Y003032D01*
X008087Y002975D02*
X006749Y002975D01*
X006796Y002917D02*
X008040Y002917D01*
X007993Y002860D02*
X006843Y002860D01*
X006815Y002802D02*
X007366Y002802D01*
X007466Y002802D02*
X008021Y002802D01*
X008048Y002745D02*
X007603Y002745D01*
X007662Y002687D02*
X008066Y002687D01*
X008301Y002630D02*
X007696Y002630D01*
X007716Y002572D02*
X008395Y002572D01*
X008395Y002514D02*
X007725Y002514D01*
X007722Y002457D02*
X008395Y002457D01*
X008395Y002399D02*
X007708Y002399D01*
X007681Y002342D02*
X008076Y002342D01*
X008057Y002284D02*
X007637Y002284D01*
X007556Y002227D02*
X008036Y002227D01*
X008006Y002169D02*
X007555Y002169D01*
X007579Y002112D02*
X008016Y002112D01*
X008063Y002054D02*
X007603Y002054D01*
X007627Y001996D02*
X008110Y001996D01*
X008157Y001939D02*
X007651Y001939D01*
X007674Y001881D02*
X007690Y001881D01*
X007832Y001881D02*
X008181Y001881D01*
X008123Y001824D02*
X007902Y001824D01*
X007973Y001766D02*
X008066Y001766D01*
X007257Y002112D02*
X006820Y002112D01*
X006830Y002169D02*
X007281Y002169D01*
X007280Y002227D02*
X006800Y002227D01*
X006779Y002284D02*
X007199Y002284D01*
X007156Y002342D02*
X006761Y002342D01*
X006773Y002054D02*
X007233Y002054D01*
X007210Y001996D02*
X006726Y001996D01*
X006679Y001939D02*
X007186Y001939D01*
X007162Y001881D02*
X007146Y001881D01*
X007005Y001881D02*
X006655Y001881D01*
X006713Y001824D02*
X006934Y001824D01*
X006863Y001766D02*
X006770Y001766D01*
X006441Y002399D02*
X007129Y002399D01*
X007115Y002457D02*
X006441Y002457D01*
X006441Y002514D02*
X007112Y002514D01*
X007120Y002572D02*
X006441Y002572D01*
X006536Y002630D02*
X007140Y002630D01*
X007175Y002687D02*
X006770Y002687D01*
X006788Y002745D02*
X007234Y002745D01*
X007796Y003090D02*
X008181Y003090D01*
X008152Y003148D02*
X007867Y003148D01*
X007938Y003205D02*
X008095Y003205D01*
X008037Y003263D02*
X008008Y003263D01*
M02*
