%
M48
M72
T01C0.0118
T02C0.0630
%
T01
X9918Y3000
X12168Y3625
X12918Y4375
X12543Y4750
X14918Y3750
X15293Y4875
X16043Y4875
X17918Y2875
X19543Y3500
X20043Y2750
X21543Y2000
X19918Y1500
X15668Y2375
X13418Y14500
X12918Y14500
X12418Y14500
X11918Y14500
X11418Y14500
X19918Y14500
X20418Y14500
X20918Y14500
X21418Y14500
X24293Y16625
X23668Y17875
T02
X8601Y17319
X21987Y7280
M30
