G75*
G70*
%OFA0B0*%
%FSLAX24Y24*%
%IPPOS*%
%LPD*%
%AMOC8*
5,1,8,0,0,1.08239X$1,22.5*
%
%ADD10C,0.0000*%
%ADD11R,0.0910X0.0280*%
%ADD12R,0.0670X0.0500*%
%ADD13R,0.0720X0.0060*%
%ADD14R,0.0512X0.0512*%
%ADD15R,0.0512X0.0355*%
%ADD16R,0.0394X0.0355*%
%ADD17R,0.0240X0.1240*%
%ADD18C,0.0670*%
%ADD19R,0.0591X0.0631*%
%ADD20R,0.0591X0.0552*%
%ADD21R,0.0355X0.0512*%
D10*
X005418Y002075D02*
X005418Y018217D01*
X005420Y018294D01*
X005426Y018371D01*
X005435Y018448D01*
X005448Y018524D01*
X005465Y018600D01*
X005486Y018674D01*
X005510Y018748D01*
X005538Y018820D01*
X005569Y018890D01*
X005604Y018959D01*
X005642Y019027D01*
X005683Y019092D01*
X005728Y019155D01*
X005776Y019216D01*
X005826Y019275D01*
X005879Y019331D01*
X005935Y019384D01*
X005994Y019434D01*
X006055Y019482D01*
X006118Y019527D01*
X006183Y019568D01*
X006251Y019606D01*
X006320Y019641D01*
X006390Y019672D01*
X006462Y019700D01*
X006536Y019724D01*
X006610Y019745D01*
X006686Y019762D01*
X006762Y019775D01*
X006839Y019784D01*
X006916Y019790D01*
X006993Y019792D01*
X006993Y019791D02*
X023528Y019791D01*
X023528Y019792D02*
X023605Y019790D01*
X023682Y019784D01*
X023759Y019775D01*
X023835Y019762D01*
X023911Y019745D01*
X023985Y019724D01*
X024059Y019700D01*
X024131Y019672D01*
X024201Y019641D01*
X024270Y019606D01*
X024338Y019568D01*
X024403Y019527D01*
X024466Y019482D01*
X024527Y019434D01*
X024586Y019384D01*
X024642Y019331D01*
X024695Y019275D01*
X024745Y019216D01*
X024793Y019155D01*
X024838Y019092D01*
X024879Y019027D01*
X024917Y018959D01*
X024952Y018890D01*
X024983Y018820D01*
X025011Y018748D01*
X025035Y018674D01*
X025056Y018600D01*
X025073Y018524D01*
X025086Y018448D01*
X025095Y018371D01*
X025101Y018294D01*
X025103Y018217D01*
X025103Y002075D01*
X025101Y001998D01*
X025095Y001921D01*
X025086Y001844D01*
X025073Y001768D01*
X025056Y001692D01*
X025035Y001618D01*
X025011Y001544D01*
X024983Y001472D01*
X024952Y001402D01*
X024917Y001333D01*
X024879Y001265D01*
X024838Y001200D01*
X024793Y001137D01*
X024745Y001076D01*
X024695Y001017D01*
X024642Y000961D01*
X024586Y000908D01*
X024527Y000858D01*
X024466Y000810D01*
X024403Y000765D01*
X024338Y000724D01*
X024270Y000686D01*
X024201Y000651D01*
X024131Y000620D01*
X024059Y000592D01*
X023985Y000568D01*
X023911Y000547D01*
X023835Y000530D01*
X023759Y000517D01*
X023682Y000508D01*
X023605Y000502D01*
X023528Y000500D01*
X006993Y000500D01*
X006916Y000502D01*
X006839Y000508D01*
X006762Y000517D01*
X006686Y000530D01*
X006610Y000547D01*
X006536Y000568D01*
X006462Y000592D01*
X006390Y000620D01*
X006320Y000651D01*
X006251Y000686D01*
X006183Y000724D01*
X006118Y000765D01*
X006055Y000810D01*
X005994Y000858D01*
X005935Y000908D01*
X005879Y000961D01*
X005826Y001017D01*
X005776Y001076D01*
X005728Y001137D01*
X005683Y001200D01*
X005642Y001265D01*
X005604Y001333D01*
X005569Y001402D01*
X005538Y001472D01*
X005510Y001544D01*
X005486Y001618D01*
X005465Y001692D01*
X005448Y001768D01*
X005435Y001844D01*
X005426Y001921D01*
X005420Y001998D01*
X005418Y002075D01*
X007026Y004720D02*
X007420Y004720D01*
X007420Y006689D01*
X007026Y006689D01*
X007026Y004720D01*
X007026Y012594D02*
X007420Y012594D01*
X007420Y014563D01*
X007026Y014563D01*
X007026Y012594D01*
X008286Y017319D02*
X008288Y017354D01*
X008294Y017389D01*
X008304Y017423D01*
X008317Y017456D01*
X008334Y017487D01*
X008355Y017515D01*
X008378Y017542D01*
X008405Y017565D01*
X008433Y017586D01*
X008464Y017603D01*
X008497Y017616D01*
X008531Y017626D01*
X008566Y017632D01*
X008601Y017634D01*
X008636Y017632D01*
X008671Y017626D01*
X008705Y017616D01*
X008738Y017603D01*
X008769Y017586D01*
X008797Y017565D01*
X008824Y017542D01*
X008847Y017515D01*
X008868Y017487D01*
X008885Y017456D01*
X008898Y017423D01*
X008908Y017389D01*
X008914Y017354D01*
X008916Y017319D01*
X008914Y017284D01*
X008908Y017249D01*
X008898Y017215D01*
X008885Y017182D01*
X008868Y017151D01*
X008847Y017123D01*
X008824Y017096D01*
X008797Y017073D01*
X008769Y017052D01*
X008738Y017035D01*
X008705Y017022D01*
X008671Y017012D01*
X008636Y017006D01*
X008601Y017004D01*
X008566Y017006D01*
X008531Y017012D01*
X008497Y017022D01*
X008464Y017035D01*
X008433Y017052D01*
X008405Y017073D01*
X008378Y017096D01*
X008355Y017123D01*
X008334Y017151D01*
X008317Y017182D01*
X008304Y017215D01*
X008294Y017249D01*
X008288Y017284D01*
X008286Y017319D01*
X021672Y007280D02*
X021674Y007315D01*
X021680Y007350D01*
X021690Y007384D01*
X021703Y007417D01*
X021720Y007448D01*
X021741Y007476D01*
X021764Y007503D01*
X021791Y007526D01*
X021819Y007547D01*
X021850Y007564D01*
X021883Y007577D01*
X021917Y007587D01*
X021952Y007593D01*
X021987Y007595D01*
X022022Y007593D01*
X022057Y007587D01*
X022091Y007577D01*
X022124Y007564D01*
X022155Y007547D01*
X022183Y007526D01*
X022210Y007503D01*
X022233Y007476D01*
X022254Y007448D01*
X022271Y007417D01*
X022284Y007384D01*
X022294Y007350D01*
X022300Y007315D01*
X022302Y007280D01*
X022300Y007245D01*
X022294Y007210D01*
X022284Y007176D01*
X022271Y007143D01*
X022254Y007112D01*
X022233Y007084D01*
X022210Y007057D01*
X022183Y007034D01*
X022155Y007013D01*
X022124Y006996D01*
X022091Y006983D01*
X022057Y006973D01*
X022022Y006967D01*
X021987Y006965D01*
X021952Y006967D01*
X021917Y006973D01*
X021883Y006983D01*
X021850Y006996D01*
X021819Y007013D01*
X021791Y007034D01*
X021764Y007057D01*
X021741Y007084D01*
X021720Y007112D01*
X021703Y007143D01*
X021690Y007176D01*
X021680Y007210D01*
X021674Y007245D01*
X021672Y007280D01*
X023168Y006689D02*
X023168Y004720D01*
X023562Y004720D01*
X023562Y006689D01*
X023168Y006689D01*
X023168Y012594D02*
X023168Y014563D01*
X023562Y014563D01*
X023562Y012594D01*
X023168Y012594D01*
D11*
X020948Y003250D03*
X020948Y002750D03*
X020948Y002250D03*
X020948Y001750D03*
X018888Y001750D03*
X018888Y002250D03*
X018888Y002750D03*
X018888Y003250D03*
D12*
X022335Y003206D03*
X022335Y002606D03*
D13*
X022335Y002906D03*
D14*
X022906Y009935D03*
X022906Y010762D03*
X022900Y015053D03*
X022900Y015880D03*
X007644Y015892D03*
X007644Y015065D03*
X007650Y010774D03*
X007650Y009947D03*
D15*
X006725Y010047D03*
X006725Y010756D03*
X006725Y015098D03*
X006725Y015807D03*
X023843Y015787D03*
X023843Y015079D03*
X023835Y010697D03*
X023835Y009988D03*
D16*
X023623Y016681D03*
X024450Y017055D03*
X023623Y017429D03*
D17*
X016887Y005695D03*
X016487Y005695D03*
X016087Y005695D03*
X015687Y005695D03*
X015287Y005695D03*
X014887Y005695D03*
X014487Y005695D03*
X014087Y005695D03*
X013687Y005695D03*
D18*
X021987Y007280D03*
X008601Y017319D03*
D19*
X013259Y003780D03*
X013259Y001220D03*
X017274Y001220D03*
X017274Y003780D03*
D20*
X017274Y002323D03*
X013259Y002323D03*
D21*
X012522Y003625D03*
X011814Y003625D03*
X011814Y004250D03*
X012522Y004250D03*
M02*
