%
M48
M72
T01C0.0118
T02C0.0197
T03C0.0400
T04C0.0472
T05C0.1260
%
T01
X15043Y10000
X25418Y14000
X25793Y14250
X26043Y14625
X28043Y14750
X28543Y14875
X28918Y14750
X28918Y16875
X28418Y16875
X27918Y16875
X26918Y16875
X25418Y16875
X24918Y16875
X24418Y16875
X23918Y16875
X23418Y16875
X22918Y16875
X22418Y16875
X21918Y16875
X21418Y16875
X20918Y16875
X20418Y16875
X19918Y16875
X18918Y16875
X29418Y16875
X29918Y16875
X30418Y16875
X30918Y16875
X31418Y16875
X31918Y16875
X32418Y16875
X32918Y16875
X33418Y16875
X33918Y5250
X33418Y4750
X33418Y3500
X34418Y3250
X31918Y3000
X31418Y2250
X30418Y2250
X29418Y2250
X28418Y2250
X27418Y2250
X26418Y2250
X25418Y2250
X24418Y2250
X32918Y1500
T02
X26418Y8500
X13543Y10375
X11543Y10125
X11543Y9625
X10668Y9375
X11543Y9125
X11543Y8625
X11543Y10625
X11543Y11125
X10668Y10875
X11543Y11625
X11543Y12125
X11543Y12625
X11543Y13125
X11543Y13625
T03
X6418Y11625
X6418Y10625
X6418Y9625
X6418Y8625
T04
X7543Y9125
X7543Y7747
X7543Y11122
X7543Y12500
X34793Y10753
X34793Y9375
T05
X6993Y2075
X35339Y2075
X35339Y18217
X6993Y18217
M30
