G75*
G70*
%OFA0B0*%
%FSLAX24Y24*%
%IPPOS*%
%LPD*%
%AMOC8*
5,1,8,0,0,1.08239X$1,22.5*
%
%ADD10R,0.0394X0.0787*%
%ADD11R,0.0500X0.1000*%
%ADD12C,0.0000*%
%ADD13R,0.0800X0.0800*%
%ADD14C,0.0800*%
%ADD15R,0.0740X0.0740*%
%ADD16C,0.0740*%
%ADD17C,0.0240*%
%ADD18C,0.0238*%
%ADD19C,0.0317*%
%ADD20C,0.0200*%
%ADD21C,0.0400*%
%ADD22C,0.0120*%
D10*
X024418Y001600D03*
X026418Y001600D03*
X028418Y001600D03*
X030418Y001600D03*
X032418Y001600D03*
X031418Y002900D03*
X029418Y002900D03*
X027418Y002900D03*
X025418Y002900D03*
X033418Y002900D03*
D11*
X033418Y016175D03*
X032418Y016175D03*
X031418Y016175D03*
X030418Y016175D03*
X029418Y016175D03*
X028418Y016175D03*
X027418Y016175D03*
X026418Y016175D03*
X025418Y016175D03*
X024418Y016175D03*
X023418Y016175D03*
X022418Y016175D03*
X021418Y016175D03*
X020418Y016175D03*
X019418Y016175D03*
X018418Y016175D03*
X018418Y018325D03*
X019418Y018325D03*
X020418Y018325D03*
X021418Y018325D03*
X022418Y018325D03*
X023418Y018325D03*
X024418Y018325D03*
X025418Y018325D03*
X026418Y018325D03*
X027418Y018325D03*
X028418Y018325D03*
X029418Y018325D03*
X030418Y018325D03*
X031418Y018325D03*
X032418Y018325D03*
X033418Y018325D03*
D12*
X005418Y018217D02*
X005418Y002075D01*
X006363Y002075D02*
X006365Y002125D01*
X006371Y002175D01*
X006381Y002224D01*
X006395Y002272D01*
X006412Y002319D01*
X006433Y002364D01*
X006458Y002408D01*
X006486Y002449D01*
X006518Y002488D01*
X006552Y002525D01*
X006589Y002559D01*
X006629Y002589D01*
X006671Y002616D01*
X006715Y002640D01*
X006761Y002661D01*
X006808Y002677D01*
X006856Y002690D01*
X006906Y002699D01*
X006955Y002704D01*
X007006Y002705D01*
X007056Y002702D01*
X007105Y002695D01*
X007154Y002684D01*
X007202Y002669D01*
X007248Y002651D01*
X007293Y002629D01*
X007336Y002603D01*
X007377Y002574D01*
X007416Y002542D01*
X007452Y002507D01*
X007484Y002469D01*
X007514Y002429D01*
X007541Y002386D01*
X007564Y002342D01*
X007583Y002296D01*
X007599Y002248D01*
X007611Y002199D01*
X007619Y002150D01*
X007623Y002100D01*
X007623Y002050D01*
X007619Y002000D01*
X007611Y001951D01*
X007599Y001902D01*
X007583Y001854D01*
X007564Y001808D01*
X007541Y001764D01*
X007514Y001721D01*
X007484Y001681D01*
X007452Y001643D01*
X007416Y001608D01*
X007377Y001576D01*
X007336Y001547D01*
X007293Y001521D01*
X007248Y001499D01*
X007202Y001481D01*
X007154Y001466D01*
X007105Y001455D01*
X007056Y001448D01*
X007006Y001445D01*
X006955Y001446D01*
X006906Y001451D01*
X006856Y001460D01*
X006808Y001473D01*
X006761Y001489D01*
X006715Y001510D01*
X006671Y001534D01*
X006629Y001561D01*
X006589Y001591D01*
X006552Y001625D01*
X006518Y001662D01*
X006486Y001701D01*
X006458Y001742D01*
X006433Y001786D01*
X006412Y001831D01*
X006395Y001878D01*
X006381Y001926D01*
X006371Y001975D01*
X006365Y002025D01*
X006363Y002075D01*
X005418Y002075D02*
X005420Y001998D01*
X005426Y001921D01*
X005435Y001844D01*
X005448Y001768D01*
X005465Y001692D01*
X005486Y001618D01*
X005510Y001544D01*
X005538Y001472D01*
X005569Y001402D01*
X005604Y001333D01*
X005642Y001265D01*
X005683Y001200D01*
X005728Y001137D01*
X005776Y001076D01*
X005826Y001017D01*
X005879Y000961D01*
X005935Y000908D01*
X005994Y000858D01*
X006055Y000810D01*
X006118Y000765D01*
X006183Y000724D01*
X006251Y000686D01*
X006320Y000651D01*
X006390Y000620D01*
X006462Y000592D01*
X006536Y000568D01*
X006610Y000547D01*
X006686Y000530D01*
X006762Y000517D01*
X006839Y000508D01*
X006916Y000502D01*
X006993Y000500D01*
X035339Y000500D01*
X034709Y002075D02*
X034711Y002125D01*
X034717Y002175D01*
X034727Y002224D01*
X034741Y002272D01*
X034758Y002319D01*
X034779Y002364D01*
X034804Y002408D01*
X034832Y002449D01*
X034864Y002488D01*
X034898Y002525D01*
X034935Y002559D01*
X034975Y002589D01*
X035017Y002616D01*
X035061Y002640D01*
X035107Y002661D01*
X035154Y002677D01*
X035202Y002690D01*
X035252Y002699D01*
X035301Y002704D01*
X035352Y002705D01*
X035402Y002702D01*
X035451Y002695D01*
X035500Y002684D01*
X035548Y002669D01*
X035594Y002651D01*
X035639Y002629D01*
X035682Y002603D01*
X035723Y002574D01*
X035762Y002542D01*
X035798Y002507D01*
X035830Y002469D01*
X035860Y002429D01*
X035887Y002386D01*
X035910Y002342D01*
X035929Y002296D01*
X035945Y002248D01*
X035957Y002199D01*
X035965Y002150D01*
X035969Y002100D01*
X035969Y002050D01*
X035965Y002000D01*
X035957Y001951D01*
X035945Y001902D01*
X035929Y001854D01*
X035910Y001808D01*
X035887Y001764D01*
X035860Y001721D01*
X035830Y001681D01*
X035798Y001643D01*
X035762Y001608D01*
X035723Y001576D01*
X035682Y001547D01*
X035639Y001521D01*
X035594Y001499D01*
X035548Y001481D01*
X035500Y001466D01*
X035451Y001455D01*
X035402Y001448D01*
X035352Y001445D01*
X035301Y001446D01*
X035252Y001451D01*
X035202Y001460D01*
X035154Y001473D01*
X035107Y001489D01*
X035061Y001510D01*
X035017Y001534D01*
X034975Y001561D01*
X034935Y001591D01*
X034898Y001625D01*
X034864Y001662D01*
X034832Y001701D01*
X034804Y001742D01*
X034779Y001786D01*
X034758Y001831D01*
X034741Y001878D01*
X034727Y001926D01*
X034717Y001975D01*
X034711Y002025D01*
X034709Y002075D01*
X035339Y000500D02*
X035416Y000502D01*
X035493Y000508D01*
X035570Y000517D01*
X035646Y000530D01*
X035722Y000547D01*
X035796Y000568D01*
X035870Y000592D01*
X035942Y000620D01*
X036012Y000651D01*
X036081Y000686D01*
X036149Y000724D01*
X036214Y000765D01*
X036277Y000810D01*
X036338Y000858D01*
X036397Y000908D01*
X036453Y000961D01*
X036506Y001017D01*
X036556Y001076D01*
X036604Y001137D01*
X036649Y001200D01*
X036690Y001265D01*
X036728Y001333D01*
X036763Y001402D01*
X036794Y001472D01*
X036822Y001544D01*
X036846Y001618D01*
X036867Y001692D01*
X036884Y001768D01*
X036897Y001844D01*
X036906Y001921D01*
X036912Y001998D01*
X036914Y002075D01*
X036914Y018217D01*
X034709Y018217D02*
X034711Y018267D01*
X034717Y018317D01*
X034727Y018366D01*
X034741Y018414D01*
X034758Y018461D01*
X034779Y018506D01*
X034804Y018550D01*
X034832Y018591D01*
X034864Y018630D01*
X034898Y018667D01*
X034935Y018701D01*
X034975Y018731D01*
X035017Y018758D01*
X035061Y018782D01*
X035107Y018803D01*
X035154Y018819D01*
X035202Y018832D01*
X035252Y018841D01*
X035301Y018846D01*
X035352Y018847D01*
X035402Y018844D01*
X035451Y018837D01*
X035500Y018826D01*
X035548Y018811D01*
X035594Y018793D01*
X035639Y018771D01*
X035682Y018745D01*
X035723Y018716D01*
X035762Y018684D01*
X035798Y018649D01*
X035830Y018611D01*
X035860Y018571D01*
X035887Y018528D01*
X035910Y018484D01*
X035929Y018438D01*
X035945Y018390D01*
X035957Y018341D01*
X035965Y018292D01*
X035969Y018242D01*
X035969Y018192D01*
X035965Y018142D01*
X035957Y018093D01*
X035945Y018044D01*
X035929Y017996D01*
X035910Y017950D01*
X035887Y017906D01*
X035860Y017863D01*
X035830Y017823D01*
X035798Y017785D01*
X035762Y017750D01*
X035723Y017718D01*
X035682Y017689D01*
X035639Y017663D01*
X035594Y017641D01*
X035548Y017623D01*
X035500Y017608D01*
X035451Y017597D01*
X035402Y017590D01*
X035352Y017587D01*
X035301Y017588D01*
X035252Y017593D01*
X035202Y017602D01*
X035154Y017615D01*
X035107Y017631D01*
X035061Y017652D01*
X035017Y017676D01*
X034975Y017703D01*
X034935Y017733D01*
X034898Y017767D01*
X034864Y017804D01*
X034832Y017843D01*
X034804Y017884D01*
X034779Y017928D01*
X034758Y017973D01*
X034741Y018020D01*
X034727Y018068D01*
X034717Y018117D01*
X034711Y018167D01*
X034709Y018217D01*
X035339Y019792D02*
X035416Y019790D01*
X035493Y019784D01*
X035570Y019775D01*
X035646Y019762D01*
X035722Y019745D01*
X035796Y019724D01*
X035870Y019700D01*
X035942Y019672D01*
X036012Y019641D01*
X036081Y019606D01*
X036149Y019568D01*
X036214Y019527D01*
X036277Y019482D01*
X036338Y019434D01*
X036397Y019384D01*
X036453Y019331D01*
X036506Y019275D01*
X036556Y019216D01*
X036604Y019155D01*
X036649Y019092D01*
X036690Y019027D01*
X036728Y018959D01*
X036763Y018890D01*
X036794Y018820D01*
X036822Y018748D01*
X036846Y018674D01*
X036867Y018600D01*
X036884Y018524D01*
X036897Y018448D01*
X036906Y018371D01*
X036912Y018294D01*
X036914Y018217D01*
X035339Y019791D02*
X006993Y019791D01*
X006363Y018217D02*
X006365Y018267D01*
X006371Y018317D01*
X006381Y018366D01*
X006395Y018414D01*
X006412Y018461D01*
X006433Y018506D01*
X006458Y018550D01*
X006486Y018591D01*
X006518Y018630D01*
X006552Y018667D01*
X006589Y018701D01*
X006629Y018731D01*
X006671Y018758D01*
X006715Y018782D01*
X006761Y018803D01*
X006808Y018819D01*
X006856Y018832D01*
X006906Y018841D01*
X006955Y018846D01*
X007006Y018847D01*
X007056Y018844D01*
X007105Y018837D01*
X007154Y018826D01*
X007202Y018811D01*
X007248Y018793D01*
X007293Y018771D01*
X007336Y018745D01*
X007377Y018716D01*
X007416Y018684D01*
X007452Y018649D01*
X007484Y018611D01*
X007514Y018571D01*
X007541Y018528D01*
X007564Y018484D01*
X007583Y018438D01*
X007599Y018390D01*
X007611Y018341D01*
X007619Y018292D01*
X007623Y018242D01*
X007623Y018192D01*
X007619Y018142D01*
X007611Y018093D01*
X007599Y018044D01*
X007583Y017996D01*
X007564Y017950D01*
X007541Y017906D01*
X007514Y017863D01*
X007484Y017823D01*
X007452Y017785D01*
X007416Y017750D01*
X007377Y017718D01*
X007336Y017689D01*
X007293Y017663D01*
X007248Y017641D01*
X007202Y017623D01*
X007154Y017608D01*
X007105Y017597D01*
X007056Y017590D01*
X007006Y017587D01*
X006955Y017588D01*
X006906Y017593D01*
X006856Y017602D01*
X006808Y017615D01*
X006761Y017631D01*
X006715Y017652D01*
X006671Y017676D01*
X006629Y017703D01*
X006589Y017733D01*
X006552Y017767D01*
X006518Y017804D01*
X006486Y017843D01*
X006458Y017884D01*
X006433Y017928D01*
X006412Y017973D01*
X006395Y018020D01*
X006381Y018068D01*
X006371Y018117D01*
X006365Y018167D01*
X006363Y018217D01*
X005418Y018217D02*
X005420Y018294D01*
X005426Y018371D01*
X005435Y018448D01*
X005448Y018524D01*
X005465Y018600D01*
X005486Y018674D01*
X005510Y018748D01*
X005538Y018820D01*
X005569Y018890D01*
X005604Y018959D01*
X005642Y019027D01*
X005683Y019092D01*
X005728Y019155D01*
X005776Y019216D01*
X005826Y019275D01*
X005879Y019331D01*
X005935Y019384D01*
X005994Y019434D01*
X006055Y019482D01*
X006118Y019527D01*
X006183Y019568D01*
X006251Y019606D01*
X006320Y019641D01*
X006390Y019672D01*
X006462Y019700D01*
X006536Y019724D01*
X006610Y019745D01*
X006686Y019762D01*
X006762Y019775D01*
X006839Y019784D01*
X006916Y019790D01*
X006993Y019792D01*
D13*
X007543Y012500D03*
X007543Y009125D03*
X034793Y009375D03*
D14*
X034793Y010753D03*
X007543Y011122D03*
X007543Y007747D03*
D15*
X006418Y008625D03*
D16*
X006418Y009625D03*
X006418Y010625D03*
X006418Y011625D03*
D17*
X025418Y002900D02*
X025418Y002250D01*
X024418Y002250D02*
X024418Y001600D01*
X026418Y001600D02*
X026418Y002250D01*
X027418Y002250D02*
X027418Y002900D01*
X028418Y002250D02*
X028418Y001600D01*
X029418Y002250D02*
X029418Y002900D01*
X030418Y002250D02*
X030418Y001600D01*
X032418Y001600D02*
X032818Y001600D01*
X032918Y001500D01*
X031818Y002900D02*
X031418Y002900D01*
X031818Y002900D02*
X031918Y003000D01*
D18*
X031918Y003000D03*
X031418Y002250D03*
X030418Y002250D03*
X029418Y002250D03*
X028418Y002250D03*
X027418Y002250D03*
X026418Y002250D03*
X025418Y002250D03*
X024418Y002250D03*
X032918Y001500D03*
X034418Y003250D03*
X033418Y003500D03*
X033418Y004750D03*
X033918Y005250D03*
X025418Y014000D03*
X025793Y014250D03*
X026043Y014625D03*
X028043Y014750D03*
X028543Y014875D03*
X028918Y014750D03*
X028918Y016875D03*
X028418Y016875D03*
X027918Y016875D03*
X026918Y016875D03*
X025418Y016875D03*
X024918Y016875D03*
X024418Y016875D03*
X023918Y016875D03*
X023418Y016875D03*
X022918Y016875D03*
X022418Y016875D03*
X021918Y016875D03*
X021418Y016875D03*
X020918Y016875D03*
X020418Y016875D03*
X019918Y016875D03*
X018918Y016875D03*
X029418Y016875D03*
X029918Y016875D03*
X030418Y016875D03*
X030918Y016875D03*
X031418Y016875D03*
X031918Y016875D03*
X032418Y016875D03*
X032918Y016875D03*
X033418Y016875D03*
X015043Y010000D03*
D19*
X013543Y010375D03*
X011543Y010125D03*
X011543Y009625D03*
X010668Y009375D03*
X011543Y009125D03*
X011543Y008625D03*
X011543Y010625D03*
X011543Y011125D03*
X010668Y010875D03*
X011543Y011625D03*
X011543Y012125D03*
X011543Y012625D03*
X011543Y013125D03*
X011543Y013625D03*
X026418Y008500D03*
D20*
X024793Y008500D01*
X022918Y010375D01*
X013543Y010375D01*
X015043Y010000D02*
X015043Y007000D01*
X011543Y007375D02*
X011418Y007500D01*
X018418Y016175D02*
X018918Y016675D01*
X018918Y016875D01*
X019418Y016175D02*
X019918Y016675D01*
X019918Y016875D01*
X020418Y016875D02*
X019793Y017500D01*
X019168Y017500D01*
X018418Y018250D01*
X018418Y018325D01*
X019418Y018325D02*
X019418Y018250D01*
X020168Y017500D01*
X020793Y017500D01*
X021418Y016875D01*
X020918Y016875D02*
X020918Y016675D01*
X020418Y016175D01*
X021418Y016175D02*
X021918Y016675D01*
X021918Y016875D01*
X022418Y016875D02*
X021793Y017500D01*
X021168Y017500D01*
X020418Y018250D01*
X020418Y018325D01*
X021418Y018325D02*
X021418Y018250D01*
X022168Y017500D01*
X022793Y017500D01*
X023418Y016875D01*
X023918Y016875D02*
X023918Y016675D01*
X023418Y016175D01*
X024418Y016175D02*
X024918Y016675D01*
X024918Y016875D01*
X024418Y016875D02*
X023793Y017500D01*
X023168Y017500D01*
X022418Y018250D01*
X022418Y018325D01*
X023418Y018325D02*
X023418Y018250D01*
X024168Y017500D01*
X024793Y017500D01*
X025418Y016875D01*
X026418Y016175D02*
X026918Y016675D01*
X026918Y016875D01*
X027418Y016175D02*
X027918Y016675D01*
X027918Y016875D01*
X028418Y016875D02*
X027793Y017500D01*
X027168Y017500D01*
X026418Y018250D01*
X026418Y018325D01*
X027418Y018325D02*
X027418Y018250D01*
X028168Y017500D01*
X028793Y017500D01*
X029418Y016875D01*
X028918Y016875D02*
X028918Y016675D01*
X028418Y016175D01*
X029418Y016175D02*
X029918Y016675D01*
X029918Y016875D01*
X030418Y016875D02*
X029793Y017500D01*
X029168Y017500D01*
X028543Y018125D01*
X028418Y018125D01*
X028418Y018325D01*
X029418Y018325D02*
X029418Y018125D01*
X029543Y018125D01*
X030168Y017500D01*
X030793Y017500D01*
X031418Y016875D01*
X030918Y016875D02*
X030918Y016675D01*
X030418Y016175D01*
X031418Y016175D02*
X031918Y016675D01*
X031918Y016875D01*
X032418Y016875D02*
X031793Y017500D01*
X031168Y017500D01*
X030543Y018125D01*
X030418Y018125D01*
X030418Y018325D01*
X031418Y018325D02*
X031418Y018125D01*
X031543Y018125D01*
X032168Y017500D01*
X032793Y017500D01*
X033418Y016875D01*
X032918Y016875D02*
X032918Y016675D01*
X032418Y016175D01*
X022918Y016675D02*
X022418Y016175D01*
X022918Y016675D02*
X022918Y016875D01*
D21*
X011418Y010875D02*
X010668Y010875D01*
X011418Y010875D02*
X011418Y009375D01*
X010668Y009375D01*
X011418Y009375D02*
X011418Y007500D01*
X011543Y007375D01*
X011918Y007000D01*
X013293Y007000D01*
X014793Y007000D01*
X014918Y007000D01*
X015043Y007000D01*
X027418Y007000D01*
X029793Y009375D01*
X034793Y009375D01*
X027418Y007000D02*
X027418Y002900D01*
D22*
X031418Y002250D02*
X033418Y002250D01*
X033668Y002250D01*
X034418Y003000D01*
X034418Y003250D01*
X033418Y003500D02*
X033418Y002900D01*
X033418Y004750D02*
X033918Y005250D01*
X025418Y014000D02*
X025418Y015500D01*
X025418Y016175D01*
X025793Y015625D02*
X025793Y014250D01*
X026043Y014625D02*
X026043Y015625D01*
X026043Y017125D01*
X025418Y017750D01*
X025418Y018325D01*
X025293Y017500D02*
X024468Y018325D01*
X024418Y018325D01*
X025293Y017500D02*
X025793Y017000D01*
X025793Y015625D01*
X028043Y014750D02*
X028793Y015500D01*
X033418Y015500D01*
X033418Y016175D01*
X033793Y015500D02*
X033418Y015125D01*
X028793Y015125D01*
X028543Y014875D01*
X028918Y014750D02*
X033418Y014750D01*
X034043Y015375D01*
X034043Y015500D01*
X034043Y017125D01*
X033418Y017750D01*
X033418Y018325D01*
X032468Y018325D02*
X033793Y017000D01*
X033793Y015500D01*
X032468Y018325D02*
X032418Y018325D01*
X014668Y015000D02*
X014668Y010595D01*
X013717Y010595D01*
X013701Y010611D01*
X013598Y010653D01*
X013488Y010653D01*
X013385Y010611D01*
X013307Y010533D01*
X013265Y010430D01*
X013265Y010320D01*
X013307Y010217D01*
X013385Y010139D01*
X013488Y010097D01*
X013598Y010097D01*
X013701Y010139D01*
X013717Y010155D01*
X014668Y010155D01*
X014668Y005000D01*
X008918Y005000D01*
X008918Y015000D01*
X014668Y015000D01*
X014668Y014957D02*
X008918Y014957D01*
X008918Y014839D02*
X014668Y014839D01*
X014668Y014720D02*
X008918Y014720D01*
X008918Y014602D02*
X014668Y014602D01*
X014668Y014483D02*
X008918Y014483D01*
X008918Y014365D02*
X014668Y014365D01*
X014668Y014246D02*
X008918Y014246D01*
X008918Y014128D02*
X014668Y014128D01*
X014668Y014009D02*
X008918Y014009D01*
X008918Y013891D02*
X014668Y013891D01*
X014668Y013772D02*
X008918Y013772D01*
X008918Y013654D02*
X014668Y013654D01*
X014668Y013535D02*
X008918Y013535D01*
X008918Y013417D02*
X014668Y013417D01*
X014668Y013298D02*
X008918Y013298D01*
X008918Y013180D02*
X014668Y013180D01*
X014668Y013061D02*
X008918Y013061D01*
X008918Y012943D02*
X014668Y012943D01*
X014668Y012824D02*
X008918Y012824D01*
X008918Y012706D02*
X014668Y012706D01*
X014668Y012587D02*
X008918Y012587D01*
X008918Y012469D02*
X014668Y012469D01*
X014668Y012350D02*
X008918Y012350D01*
X008918Y012232D02*
X014668Y012232D01*
X014668Y012113D02*
X008918Y012113D01*
X008918Y011995D02*
X014668Y011995D01*
X014668Y011876D02*
X008918Y011876D01*
X008918Y011758D02*
X014668Y011758D01*
X014668Y011639D02*
X008918Y011639D01*
X008918Y011521D02*
X014668Y011521D01*
X014668Y011402D02*
X008918Y011402D01*
X008918Y011284D02*
X014668Y011284D01*
X014668Y011165D02*
X008918Y011165D01*
X008918Y011047D02*
X014668Y011047D01*
X014668Y010928D02*
X008918Y010928D01*
X008918Y010810D02*
X014668Y010810D01*
X014668Y010691D02*
X008918Y010691D01*
X008918Y010573D02*
X013347Y010573D01*
X013274Y010454D02*
X008918Y010454D01*
X008918Y010336D02*
X013265Y010336D01*
X013307Y010217D02*
X008918Y010217D01*
X008918Y010099D02*
X013483Y010099D01*
X013603Y010099D02*
X014668Y010099D01*
X014668Y009980D02*
X008918Y009980D01*
X008918Y009862D02*
X014668Y009862D01*
X014668Y009743D02*
X008918Y009743D01*
X008918Y009625D02*
X014668Y009625D01*
X014668Y009506D02*
X008918Y009506D01*
X008918Y009388D02*
X014668Y009388D01*
X014668Y009269D02*
X008918Y009269D01*
X008918Y009151D02*
X014668Y009151D01*
X014668Y009032D02*
X008918Y009032D01*
X008918Y008914D02*
X014668Y008914D01*
X014668Y008795D02*
X008918Y008795D01*
X008918Y008677D02*
X014668Y008677D01*
X014668Y008558D02*
X008918Y008558D01*
X008918Y008440D02*
X014668Y008440D01*
X014668Y008321D02*
X008918Y008321D01*
X008918Y008203D02*
X014668Y008203D01*
X014668Y008084D02*
X008918Y008084D01*
X008918Y007966D02*
X014668Y007966D01*
X014668Y007847D02*
X008918Y007847D01*
X008918Y007729D02*
X014668Y007729D01*
X014668Y007610D02*
X008918Y007610D01*
X008918Y007492D02*
X014668Y007492D01*
X014668Y007373D02*
X008918Y007373D01*
X008918Y007255D02*
X014668Y007255D01*
X014668Y007136D02*
X008918Y007136D01*
X008918Y007018D02*
X014668Y007018D01*
X014668Y006899D02*
X008918Y006899D01*
X008918Y006781D02*
X014668Y006781D01*
X014668Y006662D02*
X008918Y006662D01*
X008918Y006544D02*
X014668Y006544D01*
X014668Y006425D02*
X008918Y006425D01*
X008918Y006307D02*
X014668Y006307D01*
X014668Y006188D02*
X008918Y006188D01*
X008918Y006070D02*
X014668Y006070D01*
X014668Y005951D02*
X008918Y005951D01*
X008918Y005833D02*
X014668Y005833D01*
X014668Y005714D02*
X008918Y005714D01*
X008918Y005596D02*
X014668Y005596D01*
X014668Y005477D02*
X008918Y005477D01*
X008918Y005359D02*
X014668Y005359D01*
X014668Y005240D02*
X008918Y005240D01*
X008918Y005122D02*
X014668Y005122D01*
X014668Y005003D02*
X008918Y005003D01*
M02*
