G75*
G70*
%OFA0B0*%
%FSLAX24Y24*%
%IPPOS*%
%LPD*%
%AMOC8*
5,1,8,0,0,1.08239X$1,22.5*
%
%ADD10C,0.0060*%
%ADD11C,0.0080*%
%ADD12C,0.0040*%
%ADD13C,0.0020*%
%ADD14C,0.0070*%
%ADD15C,0.0000*%
%ADD16C,0.0004*%
%ADD17C,0.0050*%
%ADD18C,0.0030*%
%ADD19C,0.0010*%
%ADD20C,0.0059*%
D10*
X007300Y006389D02*
X007536Y006389D01*
X007536Y006861D02*
X007300Y006861D01*
X011425Y007639D02*
X011661Y007639D01*
X011661Y008111D02*
X011425Y008111D01*
X014175Y010139D02*
X014411Y010139D01*
X014411Y010611D02*
X014175Y010611D01*
X007661Y013389D02*
X007425Y013389D01*
X007425Y013861D02*
X007661Y013861D01*
X017918Y016500D02*
X017918Y018000D01*
X018168Y018250D01*
X018668Y018250D01*
X018918Y018000D01*
X018918Y016500D01*
X019168Y016250D01*
X019668Y016250D01*
X019918Y016500D01*
X019918Y018000D01*
X020168Y018250D01*
X020668Y018250D01*
X020918Y018000D01*
X020918Y016500D01*
X021168Y016250D01*
X021668Y016250D01*
X021918Y016500D01*
X021918Y018000D01*
X022168Y018250D01*
X022668Y018250D01*
X022918Y018000D01*
X022918Y016500D01*
X023168Y016250D01*
X023668Y016250D01*
X023918Y016500D01*
X023918Y018000D01*
X024168Y018250D01*
X024668Y018250D01*
X024918Y018000D01*
X024918Y016500D01*
X024668Y016250D01*
X024168Y016250D01*
X023918Y016500D01*
X024918Y016500D02*
X025168Y016250D01*
X025668Y016250D01*
X025918Y016500D01*
X025918Y018000D01*
X026168Y018250D01*
X026668Y018250D01*
X026918Y018000D01*
X027168Y018250D01*
X027668Y018250D01*
X027918Y018000D01*
X028168Y018250D01*
X028668Y018250D01*
X028918Y018000D01*
X028918Y016500D01*
X029168Y016250D01*
X029668Y016250D01*
X029918Y016500D01*
X029918Y018000D01*
X030168Y018250D01*
X030668Y018250D01*
X030918Y018000D01*
X030918Y016500D01*
X030668Y016250D01*
X030168Y016250D01*
X029918Y016500D01*
X028918Y016500D02*
X028668Y016250D01*
X028168Y016250D01*
X027918Y016500D01*
X027918Y018000D01*
X026918Y018000D02*
X026918Y016500D01*
X027168Y016250D01*
X027668Y016250D01*
X027918Y016500D01*
X026918Y016500D02*
X026668Y016250D01*
X026168Y016250D01*
X025918Y016500D01*
X025918Y018000D02*
X025668Y018250D01*
X025168Y018250D01*
X024918Y018000D01*
X023918Y018000D02*
X023668Y018250D01*
X023168Y018250D01*
X022918Y018000D01*
X021918Y018000D02*
X021668Y018250D01*
X021168Y018250D01*
X020918Y018000D01*
X019918Y018000D02*
X019668Y018250D01*
X019168Y018250D01*
X018918Y018000D01*
X018942Y019030D02*
X018942Y019671D01*
X019156Y019457D01*
X019369Y019671D01*
X019369Y019030D01*
X019587Y019137D02*
X019693Y019030D01*
X019907Y019030D01*
X020014Y019137D01*
X020014Y019350D01*
X019907Y019457D01*
X019693Y019457D01*
X019587Y019350D01*
X019587Y019137D01*
X020231Y019457D02*
X020445Y019457D01*
X020338Y019564D02*
X020338Y019137D01*
X020445Y019030D01*
X020661Y019137D02*
X020768Y019030D01*
X020981Y019030D01*
X021088Y019137D01*
X021088Y019350D01*
X020981Y019457D01*
X020768Y019457D01*
X020661Y019350D01*
X020661Y019137D01*
X021306Y019244D02*
X021519Y019457D01*
X021626Y019457D01*
X021306Y019457D02*
X021306Y019030D01*
X022487Y019030D02*
X022487Y019671D01*
X022807Y019671D01*
X022914Y019564D01*
X022914Y019350D01*
X022807Y019244D01*
X022487Y019244D01*
X023132Y019030D02*
X023345Y019030D01*
X023239Y019030D02*
X023239Y019671D01*
X023132Y019671D01*
X023668Y019457D02*
X023882Y019457D01*
X023988Y019350D01*
X023988Y019030D01*
X023668Y019030D01*
X023561Y019137D01*
X023668Y019244D01*
X023988Y019244D01*
X024206Y019457D02*
X024526Y019457D01*
X024633Y019350D01*
X024633Y019030D01*
X024851Y019030D02*
X024851Y019671D01*
X025171Y019457D02*
X024851Y019244D01*
X025171Y019030D01*
X026032Y019457D02*
X026246Y019030D01*
X026459Y019457D01*
X026677Y019564D02*
X026784Y019671D01*
X026997Y019671D01*
X027104Y019564D01*
X026677Y019137D01*
X026784Y019030D01*
X026997Y019030D01*
X027104Y019137D01*
X027104Y019564D01*
X026677Y019564D02*
X026677Y019137D01*
X027321Y019137D02*
X027321Y019030D01*
X027428Y019030D01*
X027428Y019137D01*
X027321Y019137D01*
X027644Y019030D02*
X028071Y019030D01*
X027857Y019030D02*
X027857Y019671D01*
X027644Y019457D01*
X028918Y018000D02*
X029168Y018250D01*
X029668Y018250D01*
X029918Y018000D01*
X030918Y018000D02*
X031168Y018250D01*
X031668Y018250D01*
X031918Y018000D01*
X031918Y016500D01*
X031668Y016250D01*
X031168Y016250D01*
X030918Y016500D01*
X031918Y016500D02*
X032168Y016250D01*
X032668Y016250D01*
X032918Y016500D01*
X033168Y016250D01*
X033668Y016250D01*
X033918Y016500D01*
X033918Y018000D01*
X033668Y018250D01*
X033168Y018250D01*
X032918Y018000D01*
X032918Y016500D01*
X032918Y018000D02*
X032668Y018250D01*
X032168Y018250D01*
X031918Y018000D01*
X024206Y019030D02*
X024206Y019457D01*
X018080Y019564D02*
X017973Y019671D01*
X017760Y019671D01*
X017653Y019564D01*
X017653Y019137D01*
X017760Y019030D01*
X017973Y019030D01*
X018080Y019137D01*
X017436Y019137D02*
X017436Y019564D01*
X017329Y019671D01*
X017009Y019671D01*
X017009Y019030D01*
X017329Y019030D01*
X017436Y019137D01*
X016148Y019030D02*
X015934Y019030D01*
X016041Y019030D02*
X016041Y019457D01*
X015934Y019457D01*
X015717Y019457D02*
X015397Y019244D01*
X015717Y019030D01*
X015397Y019030D02*
X015397Y019671D01*
X015180Y019350D02*
X015073Y019457D01*
X014859Y019457D01*
X014753Y019350D01*
X014753Y019137D01*
X014859Y019030D01*
X015073Y019030D01*
X015180Y019137D01*
X015180Y019350D01*
X014535Y019030D02*
X014108Y019030D01*
X014108Y019671D01*
X016041Y019671D02*
X016041Y019777D01*
X017918Y016500D02*
X018168Y016250D01*
X018668Y016250D01*
X018918Y016500D01*
X019918Y016500D02*
X020168Y016250D01*
X020668Y016250D01*
X020918Y016500D01*
X021918Y016500D02*
X022168Y016250D01*
X022668Y016250D01*
X022918Y016500D01*
X034618Y006900D02*
X035718Y006900D01*
X035735Y006898D01*
X035752Y006894D01*
X035768Y006887D01*
X035782Y006877D01*
X035795Y006864D01*
X035805Y006850D01*
X035812Y006834D01*
X035816Y006817D01*
X035818Y006800D01*
X035818Y006200D01*
X035816Y006183D01*
X035812Y006166D01*
X035805Y006150D01*
X035795Y006136D01*
X035782Y006123D01*
X035768Y006113D01*
X035752Y006106D01*
X035735Y006102D01*
X035718Y006100D01*
X034618Y006100D01*
X034601Y006102D01*
X034584Y006106D01*
X034568Y006113D01*
X034554Y006123D01*
X034541Y006136D01*
X034531Y006150D01*
X034524Y006166D01*
X034520Y006183D01*
X034518Y006200D01*
X034518Y006800D01*
X034520Y006817D01*
X034524Y006834D01*
X034531Y006850D01*
X034541Y006864D01*
X034554Y006877D01*
X034568Y006887D01*
X034584Y006894D01*
X034601Y006898D01*
X034618Y006900D01*
X034098Y005960D02*
X034098Y004540D01*
X032238Y004540D02*
X032238Y005960D01*
X024818Y005050D02*
X024818Y003950D01*
X024816Y003933D01*
X024812Y003916D01*
X024805Y003900D01*
X024795Y003886D01*
X024782Y003873D01*
X024768Y003863D01*
X024752Y003856D01*
X024735Y003852D01*
X024718Y003850D01*
X024118Y003850D01*
X024101Y003852D01*
X024084Y003856D01*
X024068Y003863D01*
X024054Y003873D01*
X024041Y003886D01*
X024031Y003900D01*
X024024Y003916D01*
X024020Y003933D01*
X024018Y003950D01*
X024018Y005050D01*
X024020Y005067D01*
X024024Y005084D01*
X024031Y005100D01*
X024041Y005114D01*
X024054Y005127D01*
X024068Y005137D01*
X024084Y005144D01*
X024101Y005148D01*
X024118Y005150D01*
X024718Y005150D01*
X024735Y005148D01*
X024752Y005144D01*
X024768Y005137D01*
X024782Y005127D01*
X024795Y005114D01*
X024805Y005100D01*
X024812Y005084D01*
X024816Y005067D01*
X024818Y005050D01*
D11*
X032401Y004860D02*
X032403Y004875D01*
X032409Y004888D01*
X032418Y004900D01*
X032429Y004909D01*
X032443Y004915D01*
X032458Y004917D01*
X032473Y004915D01*
X032486Y004909D01*
X032498Y004900D01*
X032507Y004889D01*
X032513Y004875D01*
X032515Y004860D01*
X032513Y004845D01*
X032507Y004832D01*
X032498Y004820D01*
X032487Y004811D01*
X032473Y004805D01*
X032458Y004803D01*
X032443Y004805D01*
X032430Y004811D01*
X032418Y004820D01*
X032409Y004831D01*
X032403Y004845D01*
X032401Y004860D01*
X034373Y008375D02*
X034987Y008375D01*
X035895Y008686D02*
X033455Y008686D01*
X033455Y011442D01*
X035895Y011442D01*
X035895Y008686D01*
X036210Y008686D01*
X036210Y011442D01*
X035895Y011442D01*
X034987Y012000D02*
X034373Y012000D01*
X034680Y012307D02*
X034680Y011693D01*
X012527Y011798D02*
X012527Y008452D01*
X010559Y008452D01*
X010559Y011798D01*
X012527Y011798D01*
X010755Y011525D02*
X010757Y011543D01*
X010763Y011561D01*
X010772Y011577D01*
X010784Y011590D01*
X010799Y011601D01*
X010816Y011609D01*
X010834Y011613D01*
X010852Y011613D01*
X010870Y011609D01*
X010887Y011601D01*
X010902Y011590D01*
X010914Y011577D01*
X010923Y011561D01*
X010929Y011543D01*
X010931Y011525D01*
X010929Y011507D01*
X010923Y011489D01*
X010914Y011473D01*
X010902Y011460D01*
X010887Y011449D01*
X010870Y011441D01*
X010852Y011437D01*
X010834Y011437D01*
X010816Y011441D01*
X010799Y011449D01*
X010784Y011460D01*
X010772Y011473D01*
X010763Y011489D01*
X010757Y011507D01*
X010755Y011525D01*
X008882Y010433D02*
X006441Y010433D01*
X006441Y013189D01*
X008882Y013189D01*
X008882Y010433D01*
X008882Y009814D02*
X006441Y009814D01*
X006441Y007058D01*
X006126Y007058D01*
X006126Y009814D01*
X006441Y009814D01*
X006668Y010125D02*
X006918Y009875D01*
X006918Y009375D01*
X006668Y009125D01*
X006918Y008875D01*
X006918Y008375D01*
X006668Y008125D01*
X006168Y008125D01*
X005918Y008375D01*
X005918Y008875D01*
X006168Y009125D01*
X005918Y009375D01*
X005918Y009875D01*
X006168Y010125D01*
X005918Y010375D01*
X005918Y010875D01*
X006168Y011125D01*
X005918Y011375D01*
X005918Y011875D01*
X006168Y012125D01*
X006668Y012125D01*
X006918Y011875D01*
X006918Y011375D01*
X006668Y011125D01*
X006918Y010875D01*
X006918Y010375D01*
X006668Y010125D01*
X006441Y010433D02*
X006126Y010433D01*
X006126Y013189D01*
X006441Y013189D01*
X008882Y009814D02*
X008882Y007058D01*
X006441Y007058D01*
X010519Y007340D02*
X010519Y006513D01*
X010519Y006080D02*
X010519Y005253D01*
X012173Y005253D01*
X012606Y005686D01*
X012606Y006099D01*
X012606Y006513D02*
X012606Y006906D01*
X012173Y007340D01*
X010519Y007340D01*
X010598Y006513D02*
X010613Y006572D01*
X010631Y006629D01*
X010653Y006686D01*
X010678Y006741D01*
X010707Y006794D01*
X010739Y006846D01*
X010774Y006895D01*
X010812Y006942D01*
X010853Y006987D01*
X010897Y007029D01*
X010943Y007068D01*
X010991Y007104D01*
X011042Y007138D01*
X011095Y007168D01*
X011149Y007194D01*
X011205Y007218D01*
X011262Y007237D01*
X011321Y007253D01*
X011380Y007266D01*
X011440Y007275D01*
X011500Y007280D01*
X011561Y007281D01*
X011622Y007278D01*
X011682Y007272D01*
X011742Y007262D01*
X011801Y007248D01*
X011859Y007231D01*
X011916Y007210D01*
X011971Y007186D01*
X012025Y007158D01*
X012077Y007127D01*
X012127Y007093D01*
X012175Y007055D01*
X012220Y007015D01*
X012263Y006972D01*
X012303Y006927D01*
X012340Y006879D01*
X012374Y006829D01*
X012405Y006777D01*
X012432Y006723D01*
X012457Y006667D01*
X012477Y006610D01*
X012494Y006552D01*
X012508Y006493D01*
X012528Y006099D02*
X012513Y006039D01*
X012495Y005980D01*
X012472Y005922D01*
X012446Y005865D01*
X012417Y005811D01*
X012384Y005758D01*
X012348Y005707D01*
X012309Y005659D01*
X012267Y005613D01*
X012222Y005571D01*
X012175Y005530D01*
X012125Y005494D01*
X012073Y005460D01*
X012019Y005429D01*
X011963Y005402D01*
X011905Y005379D01*
X011846Y005359D01*
X011786Y005343D01*
X011726Y005331D01*
X011664Y005322D01*
X011602Y005318D01*
X011540Y005317D01*
X011478Y005320D01*
X011416Y005328D01*
X011355Y005339D01*
X011295Y005353D01*
X011236Y005372D01*
X011178Y005394D01*
X011121Y005420D01*
X011067Y005449D01*
X011014Y005482D01*
X010963Y005518D01*
X010915Y005557D01*
X010869Y005599D01*
X010826Y005644D01*
X010786Y005691D01*
X010749Y005741D01*
X010715Y005793D01*
X010685Y005847D01*
X010658Y005903D01*
X010634Y005961D01*
X010614Y006020D01*
X010598Y006080D01*
D12*
X032688Y007565D02*
X032688Y007795D01*
X032764Y007871D01*
X033071Y007871D01*
X033148Y007795D01*
X033148Y007565D01*
X032688Y007565D01*
X032764Y008025D02*
X033071Y008025D01*
X033148Y008102D01*
X033148Y008255D01*
X033071Y008332D01*
X032764Y008332D02*
X032688Y008255D01*
X032688Y008102D01*
X032764Y008025D01*
X032841Y008946D02*
X032841Y009022D01*
X033148Y009022D01*
X033148Y008946D02*
X033148Y009099D01*
X033148Y009253D02*
X032841Y009253D01*
X032841Y009483D01*
X032918Y009560D01*
X033148Y009560D01*
X032688Y009022D02*
X032611Y009022D01*
X032918Y010173D02*
X032918Y010404D01*
X032995Y010480D01*
X033071Y010480D01*
X033148Y010404D01*
X033148Y010250D01*
X033071Y010173D01*
X032918Y010173D01*
X032764Y010327D01*
X032688Y010480D01*
X032918Y010634D02*
X032918Y010941D01*
X032764Y011094D02*
X032688Y011171D01*
X032688Y011324D01*
X032764Y011401D01*
X032841Y011401D01*
X033148Y011094D01*
X033148Y011401D01*
X033071Y011555D02*
X032764Y011555D01*
X032688Y011631D01*
X032688Y011785D01*
X032764Y011862D01*
X033071Y011555D01*
X033148Y011631D01*
X033148Y011785D01*
X033071Y011862D01*
X032764Y011862D01*
X032688Y012015D02*
X032995Y012015D01*
X033148Y012168D01*
X032995Y012322D01*
X032688Y012322D01*
X035398Y004367D02*
X035398Y004060D01*
X035398Y004213D02*
X034938Y004213D01*
X035091Y004060D01*
X035014Y003906D02*
X034938Y003829D01*
X034938Y003676D01*
X035014Y003599D01*
X035321Y003599D01*
X035398Y003676D01*
X035398Y003829D01*
X035321Y003906D01*
X035398Y003446D02*
X035398Y003292D01*
X035398Y003369D02*
X034938Y003369D01*
X034938Y003292D02*
X034938Y003446D01*
D13*
X020070Y001697D02*
X020023Y001697D01*
X019930Y001603D01*
X019840Y001603D02*
X019654Y001603D01*
X019654Y001557D02*
X019654Y001650D01*
X019700Y001697D01*
X019794Y001697D01*
X019840Y001650D01*
X019840Y001603D01*
X019794Y001510D02*
X019700Y001510D01*
X019654Y001557D01*
X019564Y001557D02*
X019564Y001697D01*
X019564Y001557D02*
X019517Y001510D01*
X019471Y001557D01*
X019424Y001510D01*
X019377Y001557D01*
X019377Y001697D01*
X019288Y001650D02*
X019241Y001697D01*
X019148Y001697D01*
X019101Y001650D01*
X019101Y001557D01*
X019148Y001510D01*
X019241Y001510D01*
X019288Y001557D01*
X019288Y001650D01*
X019012Y001650D02*
X019012Y001557D01*
X018965Y001510D01*
X018825Y001510D01*
X018825Y001417D02*
X018825Y001697D01*
X018965Y001697D01*
X019012Y001650D01*
X018458Y001510D02*
X018364Y001510D01*
X018411Y001510D02*
X018411Y001790D01*
X018364Y001790D01*
X018228Y001697D02*
X018275Y001650D01*
X018275Y001510D01*
X018135Y001510D01*
X018088Y001557D01*
X018135Y001603D01*
X018275Y001603D01*
X018228Y001697D02*
X018135Y001697D01*
X017999Y001650D02*
X017999Y001510D01*
X017999Y001650D02*
X017952Y001697D01*
X017812Y001697D01*
X017812Y001510D01*
X017722Y001697D02*
X017675Y001697D01*
X017582Y001603D01*
X017492Y001603D02*
X017306Y001603D01*
X017306Y001557D02*
X017306Y001650D01*
X017352Y001697D01*
X017446Y001697D01*
X017492Y001650D01*
X017492Y001603D01*
X017446Y001510D02*
X017352Y001510D01*
X017306Y001557D01*
X017215Y001510D02*
X017168Y001557D01*
X017168Y001744D01*
X017121Y001697D02*
X017215Y001697D01*
X017032Y001697D02*
X016845Y001510D01*
X016756Y001603D02*
X016569Y001603D01*
X016569Y001557D02*
X016569Y001650D01*
X016616Y001697D01*
X016709Y001697D01*
X016756Y001650D01*
X016756Y001603D01*
X016709Y001510D02*
X016616Y001510D01*
X016569Y001557D01*
X016845Y001697D02*
X017032Y001510D01*
X017582Y001510D02*
X017582Y001697D01*
X016203Y001697D02*
X016063Y001697D01*
X016016Y001650D01*
X016016Y001557D01*
X016063Y001510D01*
X016203Y001510D01*
X016203Y001790D01*
X015927Y001650D02*
X015927Y001510D01*
X015927Y001650D02*
X015880Y001697D01*
X015740Y001697D01*
X015740Y001510D01*
X015651Y001510D02*
X015511Y001510D01*
X015464Y001557D01*
X015511Y001603D01*
X015651Y001603D01*
X015651Y001650D02*
X015651Y001510D01*
X015651Y001650D02*
X015604Y001697D01*
X015511Y001697D01*
X015098Y001790D02*
X015098Y001510D01*
X014912Y001790D01*
X014912Y001510D01*
X014821Y001510D02*
X014727Y001510D01*
X014774Y001510D02*
X014774Y001790D01*
X014727Y001790D02*
X014821Y001790D01*
X014638Y001790D02*
X014638Y001603D01*
X014545Y001510D01*
X014451Y001603D01*
X014451Y001790D01*
X014084Y001697D02*
X013991Y001697D01*
X014037Y001744D02*
X014037Y001557D01*
X014084Y001510D01*
X013901Y001510D02*
X013761Y001510D01*
X013714Y001557D01*
X013714Y001650D01*
X013761Y001697D01*
X013901Y001697D01*
X013625Y001650D02*
X013625Y001603D01*
X013438Y001603D01*
X013438Y001557D02*
X013438Y001650D01*
X013485Y001697D01*
X013578Y001697D01*
X013625Y001650D01*
X013578Y001510D02*
X013485Y001510D01*
X013438Y001557D01*
X013349Y001510D02*
X013349Y001650D01*
X013302Y001697D01*
X013162Y001697D01*
X013162Y001510D01*
X013073Y001510D02*
X013073Y001650D01*
X013026Y001697D01*
X012886Y001697D01*
X012886Y001510D01*
X012796Y001557D02*
X012796Y001650D01*
X012750Y001697D01*
X012656Y001697D01*
X012610Y001650D01*
X012610Y001557D01*
X012656Y001510D01*
X012750Y001510D01*
X012796Y001557D01*
X012520Y001510D02*
X012380Y001510D01*
X012333Y001557D01*
X012333Y001650D01*
X012380Y001697D01*
X012520Y001697D01*
X011968Y001650D02*
X011968Y001557D01*
X011921Y001510D01*
X011828Y001510D01*
X011781Y001557D01*
X011781Y001650D01*
X011828Y001697D01*
X011921Y001697D01*
X011968Y001650D01*
X011690Y001697D02*
X011597Y001697D01*
X011643Y001744D02*
X011643Y001557D01*
X011690Y001510D01*
X011231Y001510D02*
X011044Y001510D01*
X011231Y001697D01*
X011231Y001744D01*
X011184Y001790D01*
X011091Y001790D01*
X011044Y001744D01*
X010955Y001790D02*
X010861Y001790D01*
X010908Y001790D02*
X010908Y001557D01*
X010861Y001510D01*
X010815Y001510D01*
X010768Y001557D01*
X010679Y001557D02*
X010632Y001510D01*
X010538Y001510D01*
X010492Y001557D01*
X010538Y001650D02*
X010632Y001650D01*
X010679Y001603D01*
X010679Y001557D01*
X010538Y001650D02*
X010492Y001697D01*
X010492Y001744D01*
X010538Y001790D01*
X010632Y001790D01*
X010679Y001744D01*
X010126Y001650D02*
X010126Y001603D01*
X009939Y001603D01*
X009939Y001557D02*
X009939Y001650D01*
X009986Y001697D01*
X010079Y001697D01*
X010126Y001650D01*
X010079Y001510D02*
X009986Y001510D01*
X009939Y001557D01*
X009850Y001510D02*
X009710Y001510D01*
X009663Y001557D01*
X009663Y001650D01*
X009710Y001697D01*
X009850Y001697D01*
X009850Y001463D01*
X009803Y001417D01*
X009756Y001417D01*
X009574Y001510D02*
X009574Y001790D01*
X009574Y001697D02*
X009434Y001697D01*
X009387Y001650D01*
X009387Y001557D01*
X009434Y001510D01*
X009574Y001510D01*
X009296Y001510D02*
X009203Y001510D01*
X009249Y001510D02*
X009249Y001697D01*
X009203Y001697D01*
X009113Y001697D02*
X009066Y001697D01*
X008972Y001603D01*
X008883Y001603D02*
X008883Y001557D01*
X008836Y001510D01*
X008696Y001510D01*
X008696Y001790D01*
X008836Y001790D01*
X008883Y001744D01*
X008883Y001697D01*
X008836Y001650D01*
X008696Y001650D01*
X008836Y001650D02*
X008883Y001603D01*
X008972Y001510D02*
X008972Y001697D01*
X009249Y001790D02*
X009249Y001837D01*
X019930Y001697D02*
X019930Y001510D01*
D14*
X023879Y001758D02*
X025131Y001758D01*
X025729Y001742D02*
X027107Y001742D01*
X027729Y001742D02*
X029107Y001742D01*
X029729Y001742D02*
X031107Y001742D01*
X031729Y001742D02*
X033107Y001742D01*
X033694Y001758D02*
X033957Y001758D01*
X033957Y002742D01*
X032694Y002742D01*
X032107Y002742D02*
X030729Y002742D01*
X030107Y002742D02*
X028729Y002742D01*
X028107Y002742D02*
X026729Y002742D01*
X026107Y002742D02*
X024729Y002742D01*
X024131Y002742D02*
X023879Y002742D01*
X023879Y001758D01*
D15*
X005418Y002075D02*
X005418Y018217D01*
X006363Y018217D02*
X006365Y018267D01*
X006371Y018317D01*
X006381Y018366D01*
X006395Y018414D01*
X006412Y018461D01*
X006433Y018506D01*
X006458Y018550D01*
X006486Y018591D01*
X006518Y018630D01*
X006552Y018667D01*
X006589Y018701D01*
X006629Y018731D01*
X006671Y018758D01*
X006715Y018782D01*
X006761Y018803D01*
X006808Y018819D01*
X006856Y018832D01*
X006906Y018841D01*
X006955Y018846D01*
X007006Y018847D01*
X007056Y018844D01*
X007105Y018837D01*
X007154Y018826D01*
X007202Y018811D01*
X007248Y018793D01*
X007293Y018771D01*
X007336Y018745D01*
X007377Y018716D01*
X007416Y018684D01*
X007452Y018649D01*
X007484Y018611D01*
X007514Y018571D01*
X007541Y018528D01*
X007564Y018484D01*
X007583Y018438D01*
X007599Y018390D01*
X007611Y018341D01*
X007619Y018292D01*
X007623Y018242D01*
X007623Y018192D01*
X007619Y018142D01*
X007611Y018093D01*
X007599Y018044D01*
X007583Y017996D01*
X007564Y017950D01*
X007541Y017906D01*
X007514Y017863D01*
X007484Y017823D01*
X007452Y017785D01*
X007416Y017750D01*
X007377Y017718D01*
X007336Y017689D01*
X007293Y017663D01*
X007248Y017641D01*
X007202Y017623D01*
X007154Y017608D01*
X007105Y017597D01*
X007056Y017590D01*
X007006Y017587D01*
X006955Y017588D01*
X006906Y017593D01*
X006856Y017602D01*
X006808Y017615D01*
X006761Y017631D01*
X006715Y017652D01*
X006671Y017676D01*
X006629Y017703D01*
X006589Y017733D01*
X006552Y017767D01*
X006518Y017804D01*
X006486Y017843D01*
X006458Y017884D01*
X006433Y017928D01*
X006412Y017973D01*
X006395Y018020D01*
X006381Y018068D01*
X006371Y018117D01*
X006365Y018167D01*
X006363Y018217D01*
X005418Y018217D02*
X005420Y018294D01*
X005426Y018371D01*
X005435Y018448D01*
X005448Y018524D01*
X005465Y018600D01*
X005486Y018674D01*
X005510Y018748D01*
X005538Y018820D01*
X005569Y018890D01*
X005604Y018959D01*
X005642Y019027D01*
X005683Y019092D01*
X005728Y019155D01*
X005776Y019216D01*
X005826Y019275D01*
X005879Y019331D01*
X005935Y019384D01*
X005994Y019434D01*
X006055Y019482D01*
X006118Y019527D01*
X006183Y019568D01*
X006251Y019606D01*
X006320Y019641D01*
X006390Y019672D01*
X006462Y019700D01*
X006536Y019724D01*
X006610Y019745D01*
X006686Y019762D01*
X006762Y019775D01*
X006839Y019784D01*
X006916Y019790D01*
X006993Y019792D01*
X006993Y019791D02*
X035339Y019791D01*
X034709Y018217D02*
X034711Y018267D01*
X034717Y018317D01*
X034727Y018366D01*
X034741Y018414D01*
X034758Y018461D01*
X034779Y018506D01*
X034804Y018550D01*
X034832Y018591D01*
X034864Y018630D01*
X034898Y018667D01*
X034935Y018701D01*
X034975Y018731D01*
X035017Y018758D01*
X035061Y018782D01*
X035107Y018803D01*
X035154Y018819D01*
X035202Y018832D01*
X035252Y018841D01*
X035301Y018846D01*
X035352Y018847D01*
X035402Y018844D01*
X035451Y018837D01*
X035500Y018826D01*
X035548Y018811D01*
X035594Y018793D01*
X035639Y018771D01*
X035682Y018745D01*
X035723Y018716D01*
X035762Y018684D01*
X035798Y018649D01*
X035830Y018611D01*
X035860Y018571D01*
X035887Y018528D01*
X035910Y018484D01*
X035929Y018438D01*
X035945Y018390D01*
X035957Y018341D01*
X035965Y018292D01*
X035969Y018242D01*
X035969Y018192D01*
X035965Y018142D01*
X035957Y018093D01*
X035945Y018044D01*
X035929Y017996D01*
X035910Y017950D01*
X035887Y017906D01*
X035860Y017863D01*
X035830Y017823D01*
X035798Y017785D01*
X035762Y017750D01*
X035723Y017718D01*
X035682Y017689D01*
X035639Y017663D01*
X035594Y017641D01*
X035548Y017623D01*
X035500Y017608D01*
X035451Y017597D01*
X035402Y017590D01*
X035352Y017587D01*
X035301Y017588D01*
X035252Y017593D01*
X035202Y017602D01*
X035154Y017615D01*
X035107Y017631D01*
X035061Y017652D01*
X035017Y017676D01*
X034975Y017703D01*
X034935Y017733D01*
X034898Y017767D01*
X034864Y017804D01*
X034832Y017843D01*
X034804Y017884D01*
X034779Y017928D01*
X034758Y017973D01*
X034741Y018020D01*
X034727Y018068D01*
X034717Y018117D01*
X034711Y018167D01*
X034709Y018217D01*
X035339Y019792D02*
X035416Y019790D01*
X035493Y019784D01*
X035570Y019775D01*
X035646Y019762D01*
X035722Y019745D01*
X035796Y019724D01*
X035870Y019700D01*
X035942Y019672D01*
X036012Y019641D01*
X036081Y019606D01*
X036149Y019568D01*
X036214Y019527D01*
X036277Y019482D01*
X036338Y019434D01*
X036397Y019384D01*
X036453Y019331D01*
X036506Y019275D01*
X036556Y019216D01*
X036604Y019155D01*
X036649Y019092D01*
X036690Y019027D01*
X036728Y018959D01*
X036763Y018890D01*
X036794Y018820D01*
X036822Y018748D01*
X036846Y018674D01*
X036867Y018600D01*
X036884Y018524D01*
X036897Y018448D01*
X036906Y018371D01*
X036912Y018294D01*
X036914Y018217D01*
X036914Y002075D01*
X034709Y002075D02*
X034711Y002125D01*
X034717Y002175D01*
X034727Y002224D01*
X034741Y002272D01*
X034758Y002319D01*
X034779Y002364D01*
X034804Y002408D01*
X034832Y002449D01*
X034864Y002488D01*
X034898Y002525D01*
X034935Y002559D01*
X034975Y002589D01*
X035017Y002616D01*
X035061Y002640D01*
X035107Y002661D01*
X035154Y002677D01*
X035202Y002690D01*
X035252Y002699D01*
X035301Y002704D01*
X035352Y002705D01*
X035402Y002702D01*
X035451Y002695D01*
X035500Y002684D01*
X035548Y002669D01*
X035594Y002651D01*
X035639Y002629D01*
X035682Y002603D01*
X035723Y002574D01*
X035762Y002542D01*
X035798Y002507D01*
X035830Y002469D01*
X035860Y002429D01*
X035887Y002386D01*
X035910Y002342D01*
X035929Y002296D01*
X035945Y002248D01*
X035957Y002199D01*
X035965Y002150D01*
X035969Y002100D01*
X035969Y002050D01*
X035965Y002000D01*
X035957Y001951D01*
X035945Y001902D01*
X035929Y001854D01*
X035910Y001808D01*
X035887Y001764D01*
X035860Y001721D01*
X035830Y001681D01*
X035798Y001643D01*
X035762Y001608D01*
X035723Y001576D01*
X035682Y001547D01*
X035639Y001521D01*
X035594Y001499D01*
X035548Y001481D01*
X035500Y001466D01*
X035451Y001455D01*
X035402Y001448D01*
X035352Y001445D01*
X035301Y001446D01*
X035252Y001451D01*
X035202Y001460D01*
X035154Y001473D01*
X035107Y001489D01*
X035061Y001510D01*
X035017Y001534D01*
X034975Y001561D01*
X034935Y001591D01*
X034898Y001625D01*
X034864Y001662D01*
X034832Y001701D01*
X034804Y001742D01*
X034779Y001786D01*
X034758Y001831D01*
X034741Y001878D01*
X034727Y001926D01*
X034717Y001975D01*
X034711Y002025D01*
X034709Y002075D01*
X035339Y000500D02*
X035416Y000502D01*
X035493Y000508D01*
X035570Y000517D01*
X035646Y000530D01*
X035722Y000547D01*
X035796Y000568D01*
X035870Y000592D01*
X035942Y000620D01*
X036012Y000651D01*
X036081Y000686D01*
X036149Y000724D01*
X036214Y000765D01*
X036277Y000810D01*
X036338Y000858D01*
X036397Y000908D01*
X036453Y000961D01*
X036506Y001017D01*
X036556Y001076D01*
X036604Y001137D01*
X036649Y001200D01*
X036690Y001265D01*
X036728Y001333D01*
X036763Y001402D01*
X036794Y001472D01*
X036822Y001544D01*
X036846Y001618D01*
X036867Y001692D01*
X036884Y001768D01*
X036897Y001844D01*
X036906Y001921D01*
X036912Y001998D01*
X036914Y002075D01*
X035339Y000500D02*
X006993Y000500D01*
X006363Y002075D02*
X006365Y002125D01*
X006371Y002175D01*
X006381Y002224D01*
X006395Y002272D01*
X006412Y002319D01*
X006433Y002364D01*
X006458Y002408D01*
X006486Y002449D01*
X006518Y002488D01*
X006552Y002525D01*
X006589Y002559D01*
X006629Y002589D01*
X006671Y002616D01*
X006715Y002640D01*
X006761Y002661D01*
X006808Y002677D01*
X006856Y002690D01*
X006906Y002699D01*
X006955Y002704D01*
X007006Y002705D01*
X007056Y002702D01*
X007105Y002695D01*
X007154Y002684D01*
X007202Y002669D01*
X007248Y002651D01*
X007293Y002629D01*
X007336Y002603D01*
X007377Y002574D01*
X007416Y002542D01*
X007452Y002507D01*
X007484Y002469D01*
X007514Y002429D01*
X007541Y002386D01*
X007564Y002342D01*
X007583Y002296D01*
X007599Y002248D01*
X007611Y002199D01*
X007619Y002150D01*
X007623Y002100D01*
X007623Y002050D01*
X007619Y002000D01*
X007611Y001951D01*
X007599Y001902D01*
X007583Y001854D01*
X007564Y001808D01*
X007541Y001764D01*
X007514Y001721D01*
X007484Y001681D01*
X007452Y001643D01*
X007416Y001608D01*
X007377Y001576D01*
X007336Y001547D01*
X007293Y001521D01*
X007248Y001499D01*
X007202Y001481D01*
X007154Y001466D01*
X007105Y001455D01*
X007056Y001448D01*
X007006Y001445D01*
X006955Y001446D01*
X006906Y001451D01*
X006856Y001460D01*
X006808Y001473D01*
X006761Y001489D01*
X006715Y001510D01*
X006671Y001534D01*
X006629Y001561D01*
X006589Y001591D01*
X006552Y001625D01*
X006518Y001662D01*
X006486Y001701D01*
X006458Y001742D01*
X006433Y001786D01*
X006412Y001831D01*
X006395Y001878D01*
X006381Y001926D01*
X006371Y001975D01*
X006365Y002025D01*
X006363Y002075D01*
X005418Y002075D02*
X005420Y001998D01*
X005426Y001921D01*
X005435Y001844D01*
X005448Y001768D01*
X005465Y001692D01*
X005486Y001618D01*
X005510Y001544D01*
X005538Y001472D01*
X005569Y001402D01*
X005604Y001333D01*
X005642Y001265D01*
X005683Y001200D01*
X005728Y001137D01*
X005776Y001076D01*
X005826Y001017D01*
X005879Y000961D01*
X005935Y000908D01*
X005994Y000858D01*
X006055Y000810D01*
X006118Y000765D01*
X006183Y000724D01*
X006251Y000686D01*
X006320Y000651D01*
X006390Y000620D01*
X006462Y000592D01*
X006536Y000568D01*
X006610Y000547D01*
X006686Y000530D01*
X006762Y000517D01*
X006839Y000508D01*
X006916Y000502D01*
X006993Y000500D01*
D16*
X034656Y005250D02*
X034660Y005250D01*
D17*
X034853Y005809D02*
X035483Y005809D01*
X035483Y004691D02*
X034853Y004691D01*
X034768Y006975D02*
X034618Y006975D01*
X034543Y007050D01*
X034618Y007200D02*
X034768Y007200D01*
X034843Y007125D01*
X034843Y007050D01*
X034768Y006975D01*
X035004Y007050D02*
X035079Y006975D01*
X035154Y006975D01*
X035229Y007050D01*
X035229Y007425D01*
X035154Y007425D02*
X035304Y007425D01*
X035464Y007275D02*
X035614Y007425D01*
X035614Y006975D01*
X035464Y006975D02*
X035764Y006975D01*
X034843Y007350D02*
X034768Y007425D01*
X034618Y007425D01*
X034543Y007350D01*
X034543Y007275D01*
X034618Y007200D01*
X025343Y005015D02*
X025343Y004715D01*
X025043Y005015D01*
X024968Y005015D01*
X024893Y004940D01*
X024893Y004790D01*
X024968Y004715D01*
X024893Y004554D02*
X024893Y004404D01*
X024893Y004479D02*
X025268Y004479D01*
X025343Y004404D01*
X025343Y004329D01*
X025268Y004254D01*
X025268Y004094D02*
X025343Y004019D01*
X025343Y003869D01*
X025268Y003794D01*
X025118Y003869D02*
X025118Y004019D01*
X025193Y004094D01*
X025268Y004094D01*
X025118Y003869D02*
X025043Y003794D01*
X024968Y003794D01*
X024893Y003869D01*
X024893Y004019D01*
X024968Y004094D01*
X005673Y008195D02*
X005673Y008270D01*
X005598Y008345D01*
X005223Y008345D01*
X005223Y008270D02*
X005223Y008420D01*
X005223Y008580D02*
X005223Y008806D01*
X005298Y008881D01*
X005448Y008881D01*
X005523Y008806D01*
X005523Y008580D01*
X005673Y008580D02*
X005223Y008580D01*
X005673Y008195D02*
X005598Y008120D01*
X005598Y009041D02*
X005673Y009116D01*
X005673Y009266D01*
X005598Y009341D01*
X005523Y009341D01*
X005448Y009266D01*
X005448Y009191D01*
X005448Y009266D02*
X005373Y009341D01*
X005298Y009341D01*
X005223Y009266D01*
X005223Y009116D01*
X005298Y009041D01*
D18*
X034908Y005750D02*
X034908Y004746D01*
X035424Y004746D01*
X035424Y005750D01*
X034908Y005750D01*
D19*
X031438Y005452D02*
X031238Y005452D01*
X031263Y005427D02*
X031263Y005477D01*
X031288Y005502D01*
X031288Y005550D02*
X031263Y005575D01*
X031263Y005625D01*
X031288Y005650D01*
X031313Y005650D01*
X031413Y005550D01*
X031413Y005650D01*
X031388Y005502D02*
X031363Y005502D01*
X031338Y005477D01*
X031338Y005427D01*
X031313Y005402D01*
X031288Y005402D01*
X031263Y005427D01*
X031263Y005355D02*
X031388Y005355D01*
X031413Y005330D01*
X031413Y005280D01*
X031388Y005255D01*
X031263Y005255D01*
X031388Y005402D02*
X031413Y005427D01*
X031413Y005477D01*
X031388Y005502D01*
X033638Y008930D02*
X033638Y008980D01*
X033638Y008955D02*
X033763Y008955D01*
X033788Y008930D01*
X033788Y008905D01*
X033763Y008880D01*
X033738Y009027D02*
X033738Y009102D01*
X033713Y009127D01*
X033663Y009127D01*
X033638Y009102D01*
X033638Y009027D01*
X033788Y009027D01*
X033713Y009175D02*
X033713Y009275D01*
X033638Y009250D02*
X033713Y009175D01*
X033788Y009250D02*
X033638Y009250D01*
X014367Y009830D02*
X014367Y009930D01*
X014367Y009830D02*
X014291Y009830D01*
X014266Y009855D01*
X014266Y009930D01*
X014169Y009980D02*
X014169Y009830D01*
X014119Y009830D02*
X014219Y009830D01*
X014119Y009930D02*
X014169Y009980D01*
X014070Y009855D02*
X014070Y009830D01*
X014045Y009830D01*
X014045Y009855D01*
X014070Y009855D01*
X013998Y009855D02*
X013973Y009830D01*
X013923Y009830D01*
X013898Y009855D01*
X013998Y009955D01*
X013998Y009855D01*
X013898Y009855D02*
X013898Y009955D01*
X013923Y009980D01*
X013973Y009980D01*
X013998Y009955D01*
X014023Y010705D02*
X014073Y010705D01*
X014098Y010730D01*
X014145Y010705D02*
X014246Y010705D01*
X014195Y010705D02*
X014195Y010855D01*
X014145Y010805D01*
X014098Y010830D02*
X014073Y010855D01*
X014023Y010855D01*
X013998Y010830D01*
X013998Y010730D01*
X014023Y010705D01*
X012198Y011213D02*
X012198Y011263D01*
X012173Y011288D01*
X012048Y011288D01*
X012073Y011335D02*
X012048Y011360D01*
X012048Y011410D01*
X012073Y011435D01*
X012073Y011483D02*
X012048Y011508D01*
X012048Y011558D01*
X012073Y011583D01*
X012098Y011583D01*
X012123Y011558D01*
X012148Y011583D01*
X012173Y011583D01*
X012198Y011558D01*
X012198Y011508D01*
X012173Y011483D01*
X012173Y011435D02*
X012148Y011435D01*
X012123Y011410D01*
X012123Y011360D01*
X012098Y011335D01*
X012073Y011335D01*
X012023Y011385D02*
X012223Y011385D01*
X012198Y011360D02*
X012198Y011410D01*
X012173Y011435D01*
X012198Y011360D02*
X012173Y011335D01*
X012198Y011213D02*
X012173Y011188D01*
X012048Y011188D01*
X011698Y011188D02*
X011548Y011188D01*
X011548Y011288D01*
X011548Y011335D02*
X011698Y011435D01*
X011548Y011435D01*
X011573Y011483D02*
X011673Y011483D01*
X011698Y011508D01*
X011698Y011558D01*
X011673Y011583D01*
X011623Y011583D01*
X011623Y011533D01*
X011573Y011583D02*
X011548Y011558D01*
X011548Y011508D01*
X011573Y011483D01*
X011548Y011335D02*
X011698Y011335D01*
X011623Y011238D02*
X011623Y011188D01*
X011698Y011141D02*
X011698Y011041D01*
X011698Y010993D02*
X011698Y010893D01*
X011598Y010993D01*
X011573Y010993D01*
X011548Y010968D01*
X011548Y010918D01*
X011573Y010893D01*
X011548Y010846D02*
X011573Y010796D01*
X011623Y010746D01*
X011623Y010821D01*
X011648Y010846D01*
X011673Y010846D01*
X011698Y010821D01*
X011698Y010771D01*
X011673Y010746D01*
X011623Y010746D01*
X011648Y010699D02*
X011623Y010674D01*
X011623Y010599D01*
X011673Y010599D01*
X011698Y010624D01*
X011698Y010674D01*
X011673Y010699D01*
X011648Y010699D01*
X011573Y010649D02*
X011623Y010599D01*
X011598Y010551D02*
X011623Y010526D01*
X011623Y010451D01*
X011548Y010451D02*
X011548Y010526D01*
X011573Y010551D01*
X011598Y010551D01*
X011623Y010526D02*
X011648Y010551D01*
X011673Y010551D01*
X011698Y010526D01*
X011698Y010451D01*
X011548Y010451D01*
X011548Y010404D02*
X011548Y010304D01*
X011548Y010354D02*
X011698Y010354D01*
X011573Y010649D02*
X011548Y010699D01*
X011598Y011041D02*
X011548Y011091D01*
X011698Y011091D01*
X012123Y011533D02*
X012123Y011558D01*
X008698Y012588D02*
X008698Y012613D01*
X008673Y012638D01*
X008548Y012638D01*
X008548Y012613D02*
X008548Y012663D01*
X008548Y012710D02*
X008548Y012785D01*
X008573Y012810D01*
X008623Y012810D01*
X008648Y012785D01*
X008648Y012710D01*
X008698Y012710D02*
X008548Y012710D01*
X008598Y012858D02*
X008548Y012908D01*
X008698Y012908D01*
X008698Y012858D02*
X008698Y012958D01*
X008698Y012588D02*
X008673Y012563D01*
X007496Y013955D02*
X007395Y013955D01*
X007348Y013955D02*
X007298Y014005D01*
X007323Y014005D02*
X007248Y014005D01*
X007248Y013955D02*
X007248Y014105D01*
X007323Y014105D01*
X007348Y014080D01*
X007348Y014030D01*
X007323Y014005D01*
X007395Y014055D02*
X007445Y014105D01*
X007445Y013955D01*
X008573Y009583D02*
X008548Y009558D01*
X008548Y009508D01*
X008573Y009483D01*
X008573Y009435D02*
X008623Y009435D01*
X008648Y009410D01*
X008648Y009335D01*
X008698Y009335D02*
X008548Y009335D01*
X008548Y009410D01*
X008573Y009435D01*
X008698Y009483D02*
X008598Y009583D01*
X008573Y009583D01*
X008698Y009583D02*
X008698Y009483D01*
X008673Y009263D02*
X008548Y009263D01*
X008548Y009238D02*
X008548Y009288D01*
X008673Y009263D02*
X008698Y009238D01*
X008698Y009213D01*
X008673Y009188D01*
X011432Y008395D02*
X011457Y008420D01*
X011508Y008420D01*
X011533Y008395D01*
X011432Y008295D01*
X011457Y008270D01*
X011508Y008270D01*
X011533Y008295D01*
X011533Y008395D01*
X011432Y008395D02*
X011432Y008295D01*
X011580Y008295D02*
X011605Y008295D01*
X011605Y008270D01*
X011580Y008270D01*
X011580Y008295D01*
X011653Y008270D02*
X011754Y008270D01*
X011704Y008270D02*
X011704Y008420D01*
X011653Y008370D01*
X011801Y008370D02*
X011801Y008295D01*
X011826Y008270D01*
X011901Y008270D01*
X011901Y008370D01*
X011776Y007545D02*
X011726Y007545D01*
X011701Y007520D01*
X011654Y007520D02*
X011629Y007545D01*
X011578Y007545D01*
X011553Y007520D01*
X011553Y007420D01*
X011578Y007395D01*
X011629Y007395D01*
X011654Y007420D01*
X011701Y007395D02*
X011801Y007495D01*
X011801Y007520D01*
X011776Y007545D01*
X011801Y007395D02*
X011701Y007395D01*
X010772Y007468D02*
X010747Y007443D01*
X010697Y007443D01*
X010672Y007468D01*
X010625Y007468D02*
X010600Y007443D01*
X010550Y007443D01*
X010524Y007468D01*
X010524Y007568D01*
X010550Y007593D01*
X010600Y007593D01*
X010625Y007568D01*
X010672Y007568D02*
X010697Y007593D01*
X010747Y007593D01*
X010772Y007568D01*
X010772Y007543D01*
X010747Y007518D01*
X010772Y007493D01*
X010772Y007468D01*
X010747Y007518D02*
X010722Y007518D01*
X007676Y006270D02*
X007651Y006295D01*
X007601Y006295D01*
X007576Y006270D01*
X007529Y006270D02*
X007529Y006220D01*
X007504Y006195D01*
X007428Y006195D01*
X007428Y006145D02*
X007428Y006295D01*
X007504Y006295D01*
X007529Y006270D01*
X007479Y006195D02*
X007529Y006145D01*
X007576Y006145D02*
X007676Y006245D01*
X007676Y006270D01*
X007676Y006145D02*
X007576Y006145D01*
X010524Y005122D02*
X010575Y005172D01*
X010575Y005022D01*
X010625Y005022D02*
X010524Y005022D01*
X010672Y005047D02*
X010772Y005147D01*
X010772Y005047D01*
X010747Y005022D01*
X010697Y005022D01*
X010672Y005047D01*
X010672Y005147D01*
X010697Y005172D01*
X010747Y005172D01*
X010772Y005147D01*
X010819Y005122D02*
X010819Y005047D01*
X010844Y005022D01*
X010919Y005022D01*
X010919Y005122D01*
D20*
X020191Y002370D02*
X020191Y002130D01*
X020509Y002098D01*
X020543Y001991D01*
X020594Y001891D01*
X020393Y001644D01*
X020562Y001474D01*
X020810Y001676D01*
X020909Y001625D01*
X021050Y001966D01*
X020997Y001994D01*
X020951Y002032D01*
X020912Y002079D01*
X020884Y002132D01*
X020866Y002190D01*
X020861Y002250D01*
X020867Y002313D01*
X020886Y002373D01*
X020917Y002428D01*
X020959Y002475D01*
X021009Y002513D01*
X021067Y002540D01*
X021128Y002555D01*
X021191Y002557D01*
X021253Y002546D01*
X021312Y002522D01*
X021364Y002487D01*
X021409Y002442D01*
X021443Y002389D01*
X021465Y002330D01*
X021475Y002267D01*
X021472Y002204D01*
X021456Y002143D01*
X021429Y002086D01*
X021390Y002037D01*
X021341Y001996D01*
X021286Y001966D01*
X021427Y001625D01*
X021527Y001676D01*
X021774Y001474D01*
X021944Y001644D01*
X021742Y001891D01*
X021793Y001991D01*
X021827Y002098D01*
X022145Y002130D01*
X022145Y002370D01*
X021827Y002402D01*
X021793Y002509D01*
X021742Y002609D01*
X021944Y002856D01*
X021774Y003026D01*
X021527Y002824D01*
X021427Y002875D01*
X021320Y002909D01*
X021288Y003227D01*
X021048Y003227D01*
X021016Y002909D01*
X020909Y002875D01*
X020810Y002824D01*
X020562Y003026D01*
X020393Y002856D01*
X020594Y002609D01*
X020543Y002509D01*
X020509Y002402D01*
X020191Y002370D01*
X020191Y002342D02*
X020876Y002342D01*
X020864Y002284D02*
X020191Y002284D01*
X020191Y002227D02*
X020863Y002227D01*
X020873Y002169D02*
X020191Y002169D01*
X020373Y002112D02*
X020895Y002112D01*
X020933Y002054D02*
X020523Y002054D01*
X020541Y001996D02*
X020995Y001996D01*
X021039Y001939D02*
X020570Y001939D01*
X020586Y001881D02*
X021015Y001881D01*
X020992Y001824D02*
X020539Y001824D01*
X020492Y001766D02*
X020968Y001766D01*
X020944Y001709D02*
X020445Y001709D01*
X020398Y001651D02*
X020779Y001651D01*
X020858Y001651D02*
X020920Y001651D01*
X020708Y001594D02*
X020443Y001594D01*
X020501Y001536D02*
X020638Y001536D01*
X020567Y001478D02*
X020558Y001478D01*
X021345Y001824D02*
X021797Y001824D01*
X021750Y001881D02*
X021321Y001881D01*
X021297Y001939D02*
X021766Y001939D01*
X021795Y001996D02*
X021342Y001996D01*
X021403Y002054D02*
X021813Y002054D01*
X021963Y002112D02*
X021441Y002112D01*
X021463Y002169D02*
X022145Y002169D01*
X022145Y002227D02*
X021473Y002227D01*
X021472Y002284D02*
X022145Y002284D01*
X022145Y002342D02*
X021461Y002342D01*
X021436Y002399D02*
X021856Y002399D01*
X021810Y002457D02*
X021394Y002457D01*
X021323Y002514D02*
X021790Y002514D01*
X021761Y002572D02*
X020575Y002572D01*
X020577Y002630D02*
X021759Y002630D01*
X021806Y002687D02*
X020530Y002687D01*
X020483Y002745D02*
X021853Y002745D01*
X021900Y002802D02*
X020436Y002802D01*
X020396Y002860D02*
X020765Y002860D01*
X020695Y002917D02*
X020454Y002917D01*
X020511Y002975D02*
X020624Y002975D01*
X020879Y002860D02*
X021457Y002860D01*
X021571Y002860D02*
X021940Y002860D01*
X021882Y002917D02*
X021641Y002917D01*
X021712Y002975D02*
X021825Y002975D01*
X021320Y002917D02*
X021017Y002917D01*
X021023Y002975D02*
X021314Y002975D01*
X021308Y003032D02*
X021028Y003032D01*
X021034Y003090D02*
X021302Y003090D01*
X021296Y003148D02*
X021040Y003148D01*
X021046Y003205D02*
X021290Y003205D01*
X021011Y002514D02*
X020546Y002514D01*
X020526Y002457D02*
X020943Y002457D01*
X020901Y002399D02*
X020480Y002399D01*
X021369Y001766D02*
X021844Y001766D01*
X021891Y001709D02*
X021392Y001709D01*
X021416Y001651D02*
X021478Y001651D01*
X021557Y001651D02*
X021938Y001651D01*
X021893Y001594D02*
X021628Y001594D01*
X021699Y001536D02*
X021836Y001536D01*
X021778Y001478D02*
X021769Y001478D01*
M02*
